<?xml version="1.0" encoding="UTF-8" ?>
<!DOCTYPE svg PUBLIC "-//W3C//DTD SVG 1.1//EN" "http://www.w3.org/Graphics/SVG/1.1/DTD/svg11.dtd">
<svg width="382pt" height="132pt" viewBox="0 0 382 132" version="1.1" xmlns="http://www.w3.org/2000/svg">
<g id="#ffffffff">
</g>
<g id="#fc5656ff">
<path fill="#fc5656" opacity="1.00" d=" M 308.14 16.17 C 310.35 15.64 312.74 15.23 314.97 15.97 C 316.61 17.07 317.03 19.11 316.93 20.97 C 316.91 46.99 316.94 73.02 316.92 99.04 C 317.16 101.46 315.97 104.07 313.39 104.53 C 308.71 105.48 303.58 105.68 299.05 103.99 C 296.94 103.32 296.31 101.06 296.44 99.08 C 296.41 75.03 296.46 50.99 296.42 26.94 C 296.43 24.93 296.52 22.60 298.18 21.18 C 301.02 18.73 304.59 17.26 308.14 16.17 Z" />
<path fill="#fc5656" opacity="1.00" d=" M 52.61 28.53 C 56.84 26.94 62.29 27.04 65.76 30.25 C 67.55 31.94 68.22 34.37 68.98 36.62 C 65.27 40.26 61.62 43.95 57.93 47.62 C 54.17 44.01 50.71 40.10 46.74 36.71 C 47.58 33.39 49.22 29.89 52.61 28.53 Z" />
<path fill="#fc5656" opacity="1.00" d=" M 345.72 29.76 C 347.95 28.25 352.04 28.41 352.58 31.61 C 353.32 36.62 352.72 41.72 352.90 46.77 C 357.26 46.88 361.64 46.59 366.01 46.90 C 369.82 47.28 369.74 54.35 365.87 54.56 C 361.56 54.87 357.23 54.57 352.92 54.67 C 352.89 65.11 352.92 75.55 352.89 85.99 C 352.75 87.46 353.05 89.61 355.01 89.58 C 359.37 90.18 363.65 86.72 367.88 88.28 C 369.82 90.85 367.42 93.78 365.47 95.48 C 360.29 100.12 354.33 104.96 347.06 105.22 C 342.77 105.54 338.18 103.98 335.54 100.46 C 332.83 96.95 332.43 92.32 332.44 88.05 C 332.42 76.92 332.43 65.80 332.44 54.67 C 329.18 54.52 325.45 55.45 322.74 53.13 C 322.65 48.24 326.95 45.16 330.08 42.04 C 335.08 37.71 339.93 33.05 345.72 29.76 Z" />
<path fill="#fc5656" opacity="1.00" d=" M 23.35 45.18 C 24.86 41.44 28.13 38.29 32.05 37.21 C 36.38 36.18 40.47 38.66 43.55 41.45 C 47.08 44.76 50.40 48.28 53.93 51.59 C 52.85 52.62 51.79 53.66 50.72 54.70 C 42.17 54.57 33.61 54.77 25.06 54.84 C 23.35 51.97 22.10 48.48 23.35 45.18 Z" />
<path fill="#fc5656" opacity="1.00" d=" M 79.29 37.35 C 86.78 35.03 95.25 43.68 92.40 51.13 C 91.37 54.21 89.28 56.79 87.04 59.08 C 72.68 73.37 58.36 87.69 44.01 101.98 C 40.73 105.10 36.02 107.91 31.37 106.46 C 26.44 104.59 21.96 99.52 23.00 93.94 C 24.12 88.84 28.29 85.33 31.78 81.77 C 44.14 69.49 56.46 57.16 68.81 44.87 C 71.77 41.73 75.05 38.60 79.29 37.35 Z" />
<path fill="#fc5656" opacity="1.00" d=" M 133.33 43.51 C 136.01 42.60 139.09 41.95 141.80 43.08 C 143.65 44.45 143.34 46.98 143.42 49.00 C 143.32 66.01 143.49 83.03 143.34 100.04 C 143.71 103.08 140.68 104.76 138.06 104.93 C 133.80 105.30 129.25 105.61 125.23 103.84 C 123.46 102.97 122.70 100.91 122.88 99.03 C 122.92 83.70 122.86 68.36 122.91 53.02 C 122.68 47.27 129.10 45.42 133.33 43.51 Z" />
<path fill="#fc5656" opacity="1.00" d=" M 159.36 43.42 C 164.10 42.01 169.78 41.90 173.82 45.15 C 177.98 48.41 179.61 53.85 179.64 58.96 C 179.75 71.97 179.63 84.98 179.70 97.99 C 179.70 100.26 179.74 103.38 177.06 104.20 C 172.48 105.69 167.34 105.49 162.70 104.34 C 160.27 103.85 158.91 101.43 159.15 99.07 C 159.11 87.08 159.17 75.08 159.14 63.08 C 159.04 60.58 159.24 57.43 156.91 55.81 C 153.65 54.64 150.16 57.95 147.01 55.91 C 146.10 54.25 146.63 52.28 147.88 50.97 C 150.97 47.53 154.97 44.88 159.36 43.42 Z" />
<path fill="#fc5656" opacity="1.00" d=" M 196.15 43.20 C 200.70 42.05 206.01 42.06 209.88 45.06 C 214.16 48.27 215.95 53.81 215.90 58.99 C 215.90 72.66 215.94 86.33 215.88 100.00 C 216.24 102.84 213.51 104.67 210.99 104.88 C 206.92 105.32 202.66 105.54 198.72 104.25 C 196.84 103.70 195.38 101.91 195.51 99.92 C 195.42 87.62 195.51 75.33 195.48 63.03 C 195.37 60.49 195.42 57.26 192.92 55.80 C 189.61 54.63 186.14 57.87 182.91 55.99 C 181.42 54.06 182.81 51.75 184.25 50.29 C 187.52 46.97 191.62 44.39 196.15 43.20 Z" />
<path fill="#fc5656" opacity="1.00" d=" M 245.77 43.64 C 252.91 41.90 261.63 42.62 266.67 48.58 C 270.71 44.77 276.34 42.29 281.95 42.56 C 284.32 42.55 285.52 44.96 285.32 47.06 C 285.35 64.69 285.38 82.32 285.31 99.95 C 285.74 103.49 281.94 105.01 279.04 105.04 C 274.29 105.22 268.39 105.95 264.99 101.85 C 264.82 88.89 265.00 75.93 264.90 62.96 C 264.91 59.88 264.04 56.45 261.48 54.49 C 258.00 51.87 252.69 52.62 249.85 55.85 C 244.92 61.16 244.36 68.98 244.73 75.87 C 245.18 81.44 245.80 87.98 250.37 91.83 C 253.29 94.24 256.81 91.56 259.96 91.23 C 261.83 91.57 262.23 93.89 261.25 95.28 C 259.11 98.45 256.19 101.09 253.02 103.21 C 247.77 106.69 240.70 105.70 235.55 102.52 C 230.57 99.28 227.42 93.87 225.70 88.29 C 222.87 78.60 223.52 67.85 227.83 58.69 C 231.26 51.41 237.82 45.44 245.77 43.64 Z" />
<path fill="#fc5656" opacity="1.00" d=" M 16.10 64.09 C 19.03 61.33 23.20 60.54 27.09 60.46 C 33.10 60.35 39.10 60.54 45.11 60.35 C 37.58 67.93 29.95 75.40 22.53 83.07 C 19.31 82.15 15.90 80.60 14.41 77.39 C 12.51 73.15 12.68 67.53 16.10 64.09 Z" />
<path fill="#fc5656" opacity="1.00" d=" M 93.18 60.82 C 96.25 61.63 99.55 63.00 101.02 66.03 C 102.80 69.73 102.81 74.31 100.98 77.99 C 98.79 81.80 94.10 83.27 89.93 83.30 C 83.58 83.35 77.22 83.30 70.87 83.31 C 78.23 75.73 85.84 68.41 93.18 60.82 Z" />
<path fill="#fc5656" opacity="1.00" d=" M 65.16 89.04 C 73.73 89.25 82.29 88.85 90.85 89.07 C 91.82 91.30 93.01 93.53 93.03 96.02 C 92.64 102.74 85.34 108.85 78.65 106.38 C 71.67 103.61 67.40 97.02 61.95 92.19 C 63.03 91.15 64.10 90.10 65.16 89.04 Z" />
<path fill="#fc5656" opacity="1.00" d=" M 46.80 107.22 C 50.59 103.66 54.22 99.93 57.93 96.28 C 61.64 99.92 65.21 103.70 69.03 107.23 C 68.04 110.42 66.58 113.83 63.37 115.34 C 59.03 117.40 53.05 116.97 49.73 113.22 C 48.16 111.56 47.54 109.31 46.80 107.22 Z" />
</g>
</svg>
