<?xml version="1.0" encoding="UTF-8" ?>
<!DOCTYPE svg PUBLIC "-//W3C//DTD SVG 1.1//EN" "http://www.w3.org/Graphics/SVG/1.1/DTD/svg11.dtd">
<svg width="512pt" height="512pt" viewBox="0 0 512 512" version="1.1" xmlns="http://www.w3.org/2000/svg">
<g id="#fdc537ff">
<path fill="#fdc537" opacity="1.00" d=" M 99.28 0.00 L 100.66 0.00 C 104.09 0.33 107.50 1.58 110.04 3.97 C 122.94 16.62 135.49 29.63 148.48 42.18 C 130.82 59.64 113.35 77.29 95.77 94.83 C 89.96 100.41 90.02 110.63 95.90 116.14 C 101.46 121.77 111.44 121.75 116.96 116.06 C 134.55 98.52 152.09 80.93 169.67 63.38 C 177.48 71.46 185.42 79.42 193.51 87.21 C 180.87 99.69 168.36 112.32 155.78 124.87 C 150.00 130.46 150.07 140.63 155.92 146.14 C 161.49 151.80 171.47 151.75 177.01 146.06 C 189.60 133.54 202.12 120.94 214.70 108.41 C 228.67 122.67 242.81 136.77 257.04 150.77 C 256.81 153.34 256.89 155.93 257.29 158.49 C 223.13 192.63 188.96 226.76 154.78 260.87 C 104.67 210.76 54.56 160.64 4.44 110.54 C 1.79 107.96 0.36 104.37 0.00 100.73 L 0.00 99.26 C 0.29 95.60 1.72 91.98 4.34 89.37 C 32.69 61.01 61.05 32.66 89.41 4.31 C 92.01 1.68 95.64 0.30 99.28 0.00 Z" />
</g>
<g id="#53565cff">
<path fill="#53565c" opacity="1.00" d=" M 374.29 43.29 C 402.90 24.63 444.09 27.81 468.75 51.76 C 452.29 68.60 435.49 85.13 418.86 101.81 C 414.41 106.52 409.44 110.75 405.34 115.78 C 405.16 115.60 404.81 115.25 404.64 115.08 C 401.45 111.91 398.32 108.68 395.06 105.58 C 380.78 91.47 366.55 77.29 352.58 62.87 C 359.55 56.08 365.90 48.45 374.29 43.29 Z" />
</g>
<g id="#995d5cff">
<path fill="#995d5c" opacity="1.00" d=" M 148.48 42.18 C 155.67 49.12 162.74 56.19 169.67 63.38 C 152.09 80.93 134.55 98.52 116.96 116.06 C 111.44 121.75 101.46 121.77 95.90 116.14 C 90.02 110.63 89.96 100.41 95.77 94.83 C 113.35 77.29 130.82 59.64 148.48 42.18 Z" />
<path fill="#995d5c" opacity="1.00" d=" M 193.51 87.21 C 200.69 94.15 207.77 101.21 214.70 108.41 C 202.12 120.94 189.60 133.54 177.01 146.06 C 171.47 151.75 161.49 151.80 155.92 146.14 C 150.07 140.63 150.00 130.46 155.78 124.87 C 168.36 112.32 180.87 99.69 193.51 87.21 Z" />
</g>
<g id="#36383aff">
<path fill="#36383a" opacity="1.00" d=" M 468.75 51.76 C 482.60 64.98 490.83 83.90 491.21 103.03 C 491.88 119.17 487.03 135.44 477.72 148.64 C 472.42 156.39 465.17 162.46 458.80 169.26 C 444.37 154.82 429.91 140.38 415.48 125.93 C 412.11 122.53 408.71 119.17 405.34 115.78 C 409.44 110.75 414.41 106.52 418.86 101.81 C 435.49 85.13 452.29 68.60 468.75 51.76 Z" />
<path fill="#36383a" opacity="1.00" d=" M 41.00 479.79 C 50.26 470.29 59.81 461.06 69.09 451.58 C 76.27 459.24 83.63 466.76 90.45 474.75 C 78.70 478.00 66.99 481.54 55.10 484.21 C 53.08 483.64 50.95 483.61 48.95 484.25 C 45.84 483.79 43.18 481.96 41.00 479.79 Z" />
</g>
<g id="#45c1f1ff">
<path fill="#45c1f1" opacity="1.00" d=" M 261.15 154.65 C 291.62 124.06 322.45 93.81 352.58 62.87 C 366.55 77.29 380.78 91.47 395.06 105.58 C 303.15 197.14 211.46 288.94 119.65 380.60 C 116.58 383.58 113.74 386.80 110.38 389.47 C 96.84 375.71 83.16 362.10 69.45 348.51 C 70.23 346.45 71.17 344.39 72.77 342.82 C 100.09 315.49 127.47 288.21 154.78 260.87 C 188.96 226.76 223.13 192.63 257.29 158.49 C 258.58 157.21 259.87 155.94 261.15 154.65 Z" />
</g>
<g id="#9ad2ffff">
<path fill="#9ad2ff" opacity="1.00" d=" M 119.65 380.60 C 211.46 288.94 303.15 197.14 395.06 105.58 C 398.32 108.68 401.45 111.91 404.64 115.08 C 402.61 118.49 399.52 121.02 396.77 123.82 C 317.96 202.65 239.13 281.46 160.30 360.29 C 147.20 373.58 133.71 386.51 120.84 400.02 L 120.64 399.82 C 117.19 396.40 113.70 393.01 110.38 389.47 C 113.74 386.80 116.58 383.58 119.65 380.60 Z" />
</g>
<g id="#93bdf9ff">
<path fill="#93bdf9" opacity="1.00" d=" M 404.64 115.08 C 404.81 115.25 405.16 115.60 405.34 115.78 C 408.71 119.17 412.11 122.53 415.48 125.93 C 321.01 221.02 226.50 316.06 131.90 411.02 C 128.20 407.37 124.58 403.64 120.84 400.02 C 133.71 386.51 147.20 373.58 160.30 360.29 C 239.13 281.46 317.96 202.65 396.77 123.82 C 399.52 121.02 402.61 118.49 404.64 115.08 Z" />
</g>
<g id="#44a4ecff">
<path fill="#44a4ec" opacity="1.00" d=" M 415.48 125.93 C 429.91 140.38 444.37 154.82 458.80 169.26 C 428.27 199.78 397.71 230.26 367.17 260.76 C 331.70 296.21 296.22 331.66 260.72 367.08 C 234.96 392.88 209.13 418.60 183.34 444.38 C 180.26 447.38 177.42 451.02 173.08 452.22 C 159.37 438.47 145.62 424.76 131.90 411.02 C 226.50 316.06 321.01 221.02 415.48 125.93 Z" />
</g>
<g id="#f0a335f6">
<path fill="#f0a335" opacity="0.96" d=" M 257.04 150.77 C 258.44 152.02 259.80 153.33 261.15 154.65 C 259.87 155.94 258.58 157.21 257.29 158.49 C 256.89 155.93 256.81 153.34 257.04 150.77 Z" />
</g>
<g id="#faa736ff">
<path fill="#faa736" opacity="1.00" d=" M 260.72 367.08 C 296.22 331.66 331.70 296.21 367.17 260.76 C 379.36 272.94 391.49 285.18 403.75 297.29 C 391.03 309.73 378.55 322.43 365.94 334.99 C 360.79 340.01 360.15 348.75 364.50 354.48 C 368.14 359.55 375.17 361.81 381.09 359.83 C 386.02 358.38 389.13 354.02 392.72 350.66 C 403.36 339.84 414.36 329.35 424.80 318.33 C 432.73 326.38 440.73 334.37 448.77 342.31 C 433.06 357.77 417.58 373.47 401.96 389.03 C 398.79 392.49 394.68 395.32 392.79 399.77 C 389.78 406.50 392.69 415.25 399.26 418.67 C 405.17 422.13 413.18 420.69 417.76 415.68 C 435.06 398.19 452.75 381.06 469.82 363.35 C 482.37 376.07 495.08 388.62 507.68 401.29 C 509.89 403.44 511.10 406.34 512.00 409.25 L 512.00 415.02 C 511.02 418.06 509.69 421.09 507.28 423.27 C 479.10 451.43 450.95 479.62 422.76 507.77 C 420.72 509.90 417.91 510.99 415.20 512.00 L 409.26 512.00 C 402.74 510.64 398.87 504.93 394.29 500.66 C 349.77 456.13 305.22 411.62 260.72 367.08 Z" />
</g>
<g id="#994d4dff">
<path fill="#994d4d" opacity="1.00" d=" M 403.75 297.29 C 410.82 304.25 417.83 311.27 424.80 318.33 C 414.36 329.35 403.36 339.84 392.72 350.66 C 389.13 354.02 386.02 358.38 381.09 359.83 C 375.17 361.81 368.14 359.55 364.50 354.48 C 360.15 348.75 360.79 340.01 365.94 334.99 C 378.55 322.43 391.03 309.73 403.75 297.29 Z" />
<path fill="#994d4d" opacity="1.00" d=" M 448.77 342.31 C 455.84 349.27 462.85 356.29 469.82 363.35 C 452.75 381.06 435.06 398.19 417.76 415.68 C 413.18 420.69 405.17 422.13 399.26 418.67 C 392.69 415.25 389.78 406.50 392.79 399.77 C 394.68 395.32 398.79 392.49 401.96 389.03 C 417.58 373.47 433.06 357.77 448.77 342.31 Z" />
</g>
<g id="#ffcf99ff">
<path fill="#ffcf99" opacity="1.00" d=" M 47.52 428.84 C 55.02 402.12 62.21 375.30 69.45 348.51 C 83.16 362.10 96.84 375.71 110.38 389.47 C 113.70 393.01 117.19 396.40 120.64 399.82 C 103.71 417.28 86.24 434.23 69.13 451.53 C 61.84 444.05 54.87 436.26 47.52 428.84 Z" />
</g>
<g id="#e8b989ff">
<path fill="#e8b989" opacity="1.00" d=" M 120.64 399.82 L 120.84 400.02 C 124.58 403.64 128.20 407.37 131.90 411.02 C 145.62 424.76 159.37 438.47 173.08 452.22 C 145.55 459.76 117.98 467.21 90.45 474.75 C 83.63 466.76 76.27 459.24 69.09 451.58 L 69.13 451.53 C 86.24 434.23 103.71 417.28 120.64 399.82 Z" />
</g>
<g id="#5c5f66ff">
<path fill="#5c5f66" opacity="1.00" d=" M 37.43 465.39 C 40.85 453.22 43.94 440.96 47.52 428.84 C 54.87 436.26 61.84 444.05 69.13 451.53 L 69.09 451.58 C 59.81 461.06 50.26 470.29 41.00 479.79 C 37.47 475.97 36.05 470.42 37.43 465.39 Z" />
</g>
<g id="#423d389b">
<path fill="#423d38" opacity="0.61" d=" M 48.95 484.25 C 50.95 483.61 53.08 483.64 55.10 484.21 C 53.46 485.78 50.73 485.36 48.95 484.25 Z" />
</g>
</svg>
