<?xml version="1.0" encoding="UTF-8" ?>
<!DOCTYPE svg PUBLIC "-//W3C//DTD SVG 1.1//EN" "http://www.w3.org/Graphics/SVG/1.1/DTD/svg11.dtd">
<svg width="512pt" height="512pt" viewBox="0 0 512 512" version="1.1" xmlns="http://www.w3.org/2000/svg">
<g id="#ffcc5bff">
<path fill="#ffcc5b" opacity="1.00" d=" M 254.32 0.00 L 257.67 0.00 C 272.09 0.65 286.60 1.79 300.59 5.57 C 347.29 16.73 388.99 47.06 414.25 87.86 C 438.76 126.32 447.77 174.07 439.89 218.90 C 434.83 248.99 421.95 277.67 403.16 301.69 C 392.46 315.35 379.91 327.59 365.85 337.77 C 331.91 362.66 289.27 375.56 247.22 373.17 C 227.09 372.52 207.15 368.04 188.37 360.84 C 189.87 360.34 191.40 359.78 193.01 359.77 C 217.98 359.85 242.95 359.73 267.93 359.85 C 274.48 360.00 281.25 357.65 285.79 352.81 C 290.83 347.48 292.58 339.15 289.62 332.36 C 287.36 326.37 281.95 321.72 275.67 320.44 C 273.03 319.95 270.35 319.82 267.69 319.70 C 273.19 318.62 278.85 318.60 284.29 317.21 C 303.20 312.73 321.34 304.71 336.75 292.79 C 359.67 275.29 376.91 250.25 384.44 222.36 C 391.54 197.01 390.79 169.54 382.38 144.60 C 374.78 121.51 360.50 100.73 341.93 85.09 C 319.18 65.82 289.80 54.40 259.96 53.77 C 256.21 53.75 252.46 53.76 248.72 53.76 C 253.31 52.59 258.60 53.65 262.56 50.57 C 267.85 46.80 272.25 40.77 272.05 34.02 C 272.34 24.71 265.03 15.93 255.90 14.30 C 253.60 13.97 251.27 14.00 248.95 13.99 C 229.96 14.02 210.96 13.98 191.96 14.02 C 190.40 13.98 188.89 13.56 187.39 13.19 C 208.63 4.59 231.47 0.59 254.32 0.00 Z" />
<path fill="#ffcc5b" opacity="1.00" d=" M 144.95 63.98 C 147.59 57.75 154.19 53.49 161.00 53.92 C 187.44 54.03 213.91 53.62 240.35 54.18 C 231.13 56.12 221.71 57.37 212.87 60.77 C 194.78 66.94 178.11 77.11 164.24 90.25 C 159.37 89.51 153.93 89.44 150.01 86.03 C 143.60 80.81 142.29 71.47 144.95 63.98 Z" />
<path fill="#ffcc5b" opacity="1.00" d=" M 164.17 283.19 C 168.12 286.44 171.56 290.29 175.83 293.16 C 184.69 300.19 194.84 305.31 205.06 310.01 C 217.63 315.15 230.96 317.99 244.38 319.76 C 223.28 320.19 202.15 319.74 181.04 319.96 C 175.40 319.94 169.27 319.89 164.40 316.64 C 157.15 312.11 152.98 302.33 156.06 294.13 C 157.37 289.61 160.89 286.35 164.17 283.19 Z" />
</g>
<g id="#fdbc4bff">
<path fill="#fdbc4b" opacity="1.00" d=" M 89.43 102.39 C 109.81 62.12 145.22 29.46 187.39 13.19 C 188.89 13.56 190.40 13.98 191.96 14.02 C 210.96 13.98 229.96 14.02 248.95 13.99 C 251.27 14.00 253.60 13.97 255.90 14.30 C 265.03 15.93 272.34 24.71 272.05 34.02 C 272.25 40.77 267.85 46.80 262.56 50.57 C 258.60 53.65 253.31 52.59 248.72 53.76 C 248.33 53.82 247.55 53.95 247.16 54.01 C 244.89 54.15 242.62 54.15 240.35 54.18 C 213.91 53.62 187.44 54.03 161.00 53.92 C 154.19 53.49 147.59 57.75 144.95 63.98 C 142.29 71.47 143.60 80.81 150.01 86.03 C 153.93 89.44 159.37 89.51 164.24 90.25 C 146.48 107.25 133.18 129.08 127.16 152.99 C 115.78 194.79 126.70 241.98 155.65 274.28 C 158.45 277.29 160.94 280.61 164.17 283.19 C 160.89 286.35 157.37 289.61 156.06 294.13 C 152.98 302.33 157.15 312.11 164.40 316.64 C 169.27 319.89 175.40 319.94 181.04 319.96 C 202.15 319.74 223.28 320.19 244.38 319.76 C 252.14 320.09 259.92 320.20 267.69 319.70 C 270.35 319.82 273.03 319.95 275.67 320.44 C 281.95 321.72 287.36 326.37 289.62 332.36 C 292.58 339.15 290.83 347.48 285.79 352.81 C 281.25 357.65 274.48 360.00 267.93 359.85 C 242.95 359.73 217.98 359.85 193.01 359.77 C 191.40 359.78 189.87 360.34 188.37 360.84 C 173.07 355.18 158.67 347.08 145.55 337.42 C 131.70 327.35 119.34 315.23 108.81 301.75 C 93.97 282.69 82.73 260.80 76.27 237.52 C 63.67 192.94 68.26 143.66 89.43 102.39 Z" />
</g>
<g id="#ffdb70ff">
<path fill="#ffdb70" opacity="1.00" d=" M 240.35 54.18 C 242.62 54.15 244.89 54.15 247.16 54.01 C 241.65 56.12 236.27 60.41 235.48 66.62 C 233.63 75.32 241.31 84.11 250.05 84.08 C 275.05 84.28 300.06 83.92 325.04 84.26 C 332.49 84.74 338.86 91.55 338.97 98.99 C 339.25 103.46 336.98 107.76 333.73 110.71 C 330.24 113.74 325.47 114.62 320.98 114.71 C 312.01 114.85 303.02 114.57 294.05 114.80 C 288.08 114.86 282.68 119.18 280.64 124.68 C 278.16 131.48 281.31 139.87 287.80 143.17 C 290.91 144.95 294.57 145.04 298.05 145.06 C 311.37 144.95 324.69 144.98 338.01 145.05 C 344.80 144.95 350.38 150.74 350.91 157.36 C 328.66 157.04 306.39 157.59 284.15 157.09 C 277.84 137.40 271.35 117.77 265.02 98.09 C 264.19 95.77 263.42 93.21 261.43 91.60 C 257.87 88.63 251.78 89.21 249.16 93.16 C 247.36 96.04 246.62 99.42 245.54 102.61 C 239.63 120.76 233.69 138.91 227.86 157.09 C 206.23 157.59 184.58 157.05 162.95 157.34 C 158.30 157.20 154.16 161.34 154.35 166.01 C 154.22 169.35 156.55 172.04 159.13 173.84 C 176.17 186.21 193.25 198.54 210.23 210.99 C 203.82 231.48 196.93 251.83 190.45 272.30 C 188.69 276.72 191.20 281.96 195.68 283.44 C 199.01 284.79 202.50 283.20 205.15 281.17 C 221.24 269.40 237.39 257.73 253.50 245.99 C 254.35 250.73 256.85 255.48 261.32 257.69 C 265.97 260.30 271.54 260.28 276.63 259.21 C 286.16 266.06 295.62 272.99 305.10 279.90 C 307.78 281.75 310.56 284.19 314.05 283.91 C 318.88 283.67 323.11 278.76 321.90 273.90 C 320.88 269.18 318.99 264.71 317.64 260.08 C 323.74 259.76 329.86 259.64 335.96 259.91 C 341.11 260.20 345.71 264.03 347.06 268.99 C 348.95 274.45 346.88 280.79 342.52 284.44 C 338.38 287.64 332.87 286.97 327.98 287.03 C 307.65 287.00 287.33 286.99 267.00 287.00 C 261.76 286.79 256.39 288.87 253.01 292.94 C 248.70 298.20 248.64 306.61 253.20 311.75 C 255.90 314.93 259.85 317.16 264.09 317.19 C 270.82 317.45 277.56 317.15 284.29 317.21 C 278.85 318.60 273.19 318.62 267.69 319.70 C 259.92 320.20 252.14 320.09 244.38 319.76 C 230.96 317.99 217.63 315.15 205.06 310.01 C 194.84 305.31 184.69 300.19 175.83 293.16 C 171.56 290.29 168.12 286.44 164.17 283.19 C 160.94 280.61 158.45 277.29 155.65 274.28 C 126.70 241.98 115.78 194.79 127.16 152.99 C 133.18 129.08 146.48 107.25 164.24 90.25 C 178.11 77.11 194.78 66.94 212.87 60.77 C 221.71 57.37 231.13 56.12 240.35 54.18 Z" />
<path fill="#ffdb70" opacity="1.00" d=" M 301.81 210.96 C 305.98 207.81 310.25 204.79 314.49 201.73 C 321.28 202.37 328.12 201.44 334.90 202.25 C 342.40 203.20 347.46 211.89 345.12 218.96 C 343.84 224.44 338.76 228.91 333.06 229.06 C 324.59 229.37 316.10 228.96 307.62 229.26 C 305.69 223.15 303.51 217.13 301.81 210.96 Z" />
</g>
<g id="#ffe28dff">
<path fill="#ffe28d" opacity="1.00" d=" M 247.16 54.01 C 247.55 53.95 248.33 53.82 248.72 53.76 C 252.46 53.76 256.21 53.75 259.96 53.77 C 289.80 54.40 319.18 65.82 341.93 85.09 C 360.50 100.73 374.78 121.51 382.38 144.60 C 390.79 169.54 391.54 197.01 384.44 222.36 C 376.91 250.25 359.67 275.29 336.75 292.79 C 321.34 304.71 303.20 312.73 284.29 317.21 C 277.56 317.15 270.82 317.45 264.09 317.19 C 259.85 317.16 255.90 314.93 253.20 311.75 C 248.64 306.61 248.70 298.20 253.01 292.94 C 256.39 288.87 261.76 286.79 267.00 287.00 C 287.33 286.99 307.65 287.00 327.98 287.03 C 332.87 286.97 338.38 287.64 342.52 284.44 C 346.88 280.79 348.95 274.45 347.06 268.99 C 345.71 264.03 341.11 260.20 335.96 259.91 C 329.86 259.64 323.74 259.76 317.64 260.08 C 314.27 249.82 310.96 239.53 307.62 229.26 C 316.10 228.96 324.59 229.37 333.06 229.06 C 338.76 228.91 343.84 224.44 345.12 218.96 C 347.46 211.89 342.40 203.20 334.90 202.25 C 328.12 201.44 321.28 202.37 314.49 201.73 C 327.25 192.39 340.07 183.12 352.86 173.83 C 355.73 171.88 358.21 168.70 357.64 165.03 C 357.34 161.26 354.34 158.48 350.91 157.36 C 350.38 150.74 344.80 144.95 338.01 145.05 C 324.69 144.98 311.37 144.95 298.05 145.06 C 294.57 145.04 290.91 144.95 287.80 143.17 C 281.31 139.87 278.16 131.48 280.64 124.68 C 282.68 119.18 288.08 114.86 294.05 114.80 C 303.02 114.57 312.01 114.85 320.98 114.71 C 325.47 114.62 330.24 113.74 333.73 110.71 C 336.98 107.76 339.25 103.46 338.97 98.99 C 338.86 91.55 332.49 84.74 325.04 84.26 C 300.06 83.92 275.05 84.28 250.05 84.08 C 241.31 84.11 233.63 75.32 235.48 66.62 C 236.27 60.41 241.65 56.12 247.16 54.01 Z" />
<path fill="#ffe28d" opacity="1.00" d=" M 253.50 245.99 C 254.13 245.54 255.38 244.65 256.01 244.20 C 262.89 249.19 269.78 254.18 276.63 259.21 C 271.54 260.28 265.97 260.30 261.32 257.69 C 256.85 255.48 254.35 250.73 253.50 245.99 Z" />
</g>
<g id="#ec9922ff">
<path fill="#ec9922" opacity="1.00" d=" M 249.16 93.16 C 251.78 89.21 257.87 88.63 261.43 91.60 C 263.42 93.21 264.19 95.77 265.02 98.09 C 271.35 117.77 277.84 137.40 284.15 157.09 C 306.39 157.59 328.66 157.04 350.91 157.36 C 354.34 158.48 357.34 161.26 357.64 165.03 C 358.21 168.70 355.73 171.88 352.86 173.83 C 340.07 183.12 327.25 192.39 314.49 201.73 C 310.25 204.79 305.98 207.81 301.81 210.96 C 303.51 217.13 305.69 223.15 307.62 229.26 C 310.96 239.53 314.27 249.82 317.64 260.08 C 318.99 264.71 320.88 269.18 321.90 273.90 C 323.11 278.76 318.88 283.67 314.05 283.91 C 310.56 284.19 307.78 281.75 305.10 279.90 C 295.62 272.99 286.16 266.06 276.63 259.21 C 269.78 254.18 262.89 249.19 256.01 244.20 C 255.38 244.65 254.13 245.54 253.50 245.99 C 237.39 257.73 221.24 269.40 205.15 281.17 C 202.50 283.20 199.01 284.79 195.68 283.44 C 191.20 281.96 188.69 276.72 190.45 272.30 C 196.93 251.83 203.82 231.48 210.23 210.99 C 193.25 198.54 176.17 186.21 159.13 173.84 C 156.55 172.04 154.22 169.35 154.35 166.01 C 154.16 161.34 158.30 157.20 162.95 157.34 C 184.58 157.05 206.23 157.59 227.86 157.09 C 233.69 138.91 239.63 120.76 245.54 102.61 C 246.62 99.42 247.36 96.04 249.16 93.16 Z" />
</g>
<g id="#e95454ff">
<path fill="#e95454" opacity="1.00" d=" M 39.61 432.00 C 62.71 388.60 85.67 345.12 108.81 301.75 C 119.34 315.23 131.70 327.35 145.55 337.42 C 142.45 339.01 138.67 339.50 136.23 342.16 C 133.19 345.20 131.17 349.66 132.22 353.99 C 133.08 357.48 134.89 360.92 137.78 363.14 C 144.25 367.26 151.22 370.51 157.97 374.13 C 164.08 377.80 170.70 380.53 176.82 384.17 C 182.52 387.57 188.73 389.99 194.36 393.50 C 198.63 395.98 201.18 401.58 199.50 406.35 C 198.21 410.34 195.40 414.29 191.04 415.15 C 185.36 417.08 180.27 412.87 175.35 410.70 C 170.22 408.53 165.84 404.70 160.34 403.46 C 153.74 401.97 146.52 406.37 144.76 412.90 C 143.22 417.03 144.94 421.43 146.97 425.05 C 149.02 428.85 153.47 429.96 156.93 432.03 C 162.27 434.82 166.16 440.87 165.15 447.02 C 165.14 450.94 161.92 453.56 159.49 456.20 C 153.58 444.91 147.24 433.84 141.17 422.63 C 107.31 425.73 73.47 428.88 39.61 432.00 Z" />
<path fill="#e95454" opacity="1.00" d=" M 247.22 373.17 C 289.27 375.56 331.91 362.66 365.85 337.77 C 369.10 338.78 372.73 339.31 375.32 341.70 C 378.16 344.32 380.36 348.08 380.01 352.07 C 379.55 357.30 376.52 362.47 371.65 364.71 C 354.15 374.27 336.47 383.49 318.83 392.78 C 313.12 395.46 310.01 402.98 313.42 408.61 C 315.69 414.38 323.10 417.33 328.67 414.61 C 335.42 411.58 341.84 407.89 348.40 404.50 C 355.33 400.95 364.43 404.84 367.00 412.08 C 368.97 416.61 367.18 421.74 364.61 425.65 C 362.22 429.18 357.83 430.22 354.42 432.44 C 349.42 435.34 345.87 441.16 346.85 447.06 C 347.05 450.80 349.60 453.88 352.82 455.58 C 342.63 474.46 332.28 493.28 321.79 512.00 L 321.54 512.00 C 299.68 470.87 277.89 429.71 256.01 388.59 C 253.44 383.27 251.00 377.77 247.22 373.17 Z" />
</g>
<g id="#ed6362ff">
<path fill="#ed6362" opacity="1.00" d=" M 365.85 337.77 C 379.91 327.59 392.46 315.35 403.16 301.69 C 426.31 345.09 449.29 388.59 472.40 432.02 C 438.55 428.85 404.69 425.76 370.84 422.63 C 364.86 433.62 358.68 444.51 352.82 455.58 C 349.60 453.88 347.05 450.80 346.85 447.06 C 345.87 441.16 349.42 435.34 354.42 432.44 C 357.83 430.22 362.22 429.18 364.61 425.65 C 367.18 421.74 368.97 416.61 367.00 412.08 C 364.43 404.84 355.33 400.95 348.40 404.50 C 341.84 407.89 335.42 411.58 328.67 414.61 C 323.10 417.33 315.69 414.38 313.42 408.61 C 310.01 402.98 313.12 395.46 318.83 392.78 C 336.47 383.49 354.15 374.27 371.65 364.71 C 376.52 362.47 379.55 357.30 380.01 352.07 C 380.36 348.08 378.16 344.32 375.32 341.70 C 372.73 339.31 369.10 338.78 365.85 337.77 Z" />
<path fill="#ed6362" opacity="1.00" d=" M 145.55 337.42 C 158.67 347.08 173.07 355.18 188.37 360.84 C 207.15 368.04 227.09 372.52 247.22 373.17 C 251.00 377.77 253.44 383.27 256.01 388.59 C 234.05 429.67 212.29 470.86 190.46 512.00 L 190.26 512.00 C 179.78 493.53 169.65 474.85 159.49 456.20 C 161.92 453.56 165.14 450.94 165.15 447.02 C 166.16 440.87 162.27 434.82 156.93 432.03 C 153.47 429.96 149.02 428.85 146.97 425.05 C 144.94 421.43 143.22 417.03 144.76 412.90 C 146.52 406.37 153.74 401.97 160.34 403.46 C 165.84 404.70 170.22 408.53 175.35 410.70 C 180.27 412.87 185.36 417.08 191.04 415.15 C 195.40 414.29 198.21 410.34 199.50 406.35 C 201.18 401.58 198.63 395.98 194.36 393.50 C 188.73 389.99 182.52 387.57 176.82 384.17 C 170.70 380.53 164.08 377.80 157.97 374.13 C 151.22 370.51 144.25 367.26 137.78 363.14 C 134.89 360.92 133.08 357.48 132.22 353.99 C 131.17 349.66 133.19 345.20 136.23 342.16 C 138.67 339.50 142.45 339.01 145.55 337.42 Z" />
</g>
</svg>
