<?xml version="1.0" encoding="UTF-8" ?>
<!DOCTYPE svg PUBLIC "-//W3C//DTD SVG 1.1//EN" "http://www.w3.org/Graphics/SVG/1.1/DTD/svg11.dtd">
<svg width="512pt" height="512pt" viewBox="0 0 512 512" version="1.1" xmlns="http://www.w3.org/2000/svg">
<g id="#ffaa00ff">
<path fill="#ffaa00" opacity="1.00" d=" M 98.45 1.56 C 103.27 0.10 108.38 3.55 109.40 8.35 C 113.84 25.48 118.18 42.63 122.57 59.77 C 123.99 64.00 122.32 69.27 118.06 71.09 C 113.17 73.62 106.81 70.25 105.81 64.93 C 101.26 47.61 96.89 30.24 92.47 12.90 C 90.95 8.26 93.66 2.78 98.45 1.56 Z" />
<path fill="#ffaa00" opacity="1.00" d=" M 23.34 51.44 C 26.53 49.78 30.32 50.79 33.07 52.83 C 47.88 63.38 62.65 73.99 77.48 84.52 C 79.75 86.15 82.07 88.13 82.68 91.00 C 84.04 95.90 80.17 101.28 75.13 101.67 C 72.44 102.03 69.96 100.72 67.83 99.24 C 53.04 88.66 38.26 78.09 23.46 67.54 C 21.55 66.10 19.55 64.47 18.82 62.10 C 17.33 58.07 19.44 53.19 23.34 51.44 Z" />
<path fill="#ffaa00" opacity="1.00" d=" M 189.17 101.16 C 190.04 100.74 191.50 99.35 192.21 100.78 C 195.23 105.13 198.18 109.60 200.58 114.33 C 194.52 118.92 188.16 123.30 182.75 128.73 C 168.81 143.20 158.40 161.31 154.24 181.05 C 149.48 201.42 151.37 223.31 159.24 242.68 C 168.86 266.65 187.49 286.90 210.68 298.34 C 217.08 301.15 223.48 304.01 229.65 307.32 C 251.84 320.07 266.02 345.16 265.83 370.74 C 260.04 370.68 254.26 370.82 248.48 370.58 C 247.99 360.75 245.73 350.88 240.60 342.39 C 235.45 333.53 227.73 326.19 218.72 321.32 C 213.65 318.55 208.18 316.63 203.03 314.05 C 185.00 305.19 169.03 292.02 157.41 275.57 C 139.83 251.44 131.60 220.66 134.85 190.97 C 138.32 154.94 158.76 120.87 189.17 101.16 Z" />
<path fill="#ffaa00" opacity="1.00" d=" M 58.39 136.56 C 61.18 135.93 64.22 134.93 67.02 136.06 C 71.47 137.48 74.01 142.94 72.22 147.26 C 71.15 150.40 68.10 152.31 65.00 153.02 C 48.07 157.26 31.13 161.50 14.18 165.72 C 9.92 167.15 4.68 165.34 2.92 161.04 C 0.52 156.19 3.86 150.03 9.05 148.97 C 25.47 144.72 41.96 140.76 58.39 136.56 Z" />
<path fill="#ffaa00" opacity="1.00" d=" M 429.43 327.45 C 432.17 326.45 435.14 326.66 438.00 326.64 C 450.97 326.74 463.94 326.52 476.91 326.74 C 481.07 326.72 484.92 330.00 485.40 334.16 C 486.36 339.17 482.03 344.24 476.94 344.17 C 462.96 344.38 448.97 344.18 434.98 344.26 C 431.50 344.43 427.64 343.44 425.71 340.30 C 422.65 336.05 424.58 329.42 429.43 327.45 Z" />
<path fill="#ffaa00" opacity="1.00" d=" M 420.40 376.51 C 423.77 375.69 426.96 377.53 429.41 379.67 C 441.88 390.18 454.53 400.47 466.92 411.05 C 470.84 414.27 471.04 420.87 467.11 424.15 C 463.81 427.40 458.27 426.89 454.99 423.87 C 442.62 413.62 430.32 403.29 417.96 393.04 C 415.51 391.07 413.27 388.35 413.40 385.02 C 413.34 380.99 416.45 377.24 420.40 376.51 Z" />
<path fill="#ffaa00" opacity="1.00" d=" M 248.34 388.20 C 254.15 388.11 259.97 388.05 265.79 388.17 C 266.12 397.01 265.98 405.86 265.80 414.69 C 259.98 414.71 254.17 414.69 248.35 414.69 C 248.20 405.86 248.31 397.03 248.34 388.20 Z" />
<path fill="#ffaa00" opacity="1.00" d=" M 377.42 397.52 C 380.97 396.29 385.22 397.67 387.30 400.80 C 389.22 403.44 388.94 406.85 388.99 409.93 C 388.87 423.32 389.14 436.71 388.86 450.08 C 388.75 455.00 383.94 459.16 379.05 458.30 C 374.48 457.91 371.26 453.46 371.43 449.04 C 371.40 434.71 371.35 420.38 371.46 406.06 C 371.44 402.32 373.81 398.67 377.42 397.52 Z" />
</g>
<g id="#1cc8ebff">
<path fill="#1cc8eb" opacity="1.00" d=" M 362.88 10.23 C 380.27 12.69 397.65 15.21 415.04 17.68 C 413.59 28.09 412.10 38.49 410.59 48.89 C 410.03 52.88 409.76 57.12 411.41 60.91 C 414.24 68.19 422.37 72.90 430.10 71.63 C 435.31 70.98 439.45 67.45 443.50 64.41 C 450.91 58.83 458.33 53.26 465.75 47.69 C 476.29 61.77 486.84 75.83 497.36 89.91 C 490.06 95.38 482.77 100.87 475.46 106.33 C 472.40 108.64 469.17 110.80 466.69 113.76 C 462.34 119.01 461.62 126.88 464.90 132.85 C 467.53 138.01 472.87 141.38 478.55 142.14 C 489.69 143.82 500.85 145.34 512.00 146.97 L 512.00 147.42 C 509.40 164.63 507.03 181.89 504.54 199.12 C 493.04 197.64 481.60 195.71 470.09 194.34 C 462.32 193.28 454.25 198.05 451.58 205.44 C 449.23 211.19 450.56 217.88 454.24 222.76 C 460.93 231.85 467.78 240.82 474.53 249.87 C 460.48 260.42 446.43 270.96 432.37 281.49 C 426.11 273.14 419.83 264.80 413.60 256.44 C 412.00 254.29 410.21 252.29 408.25 250.48 C 403.20 246.88 396.30 245.82 390.59 248.45 C 385.07 250.73 381.21 256.10 380.27 261.93 C 378.38 273.31 377.03 284.77 375.18 296.15 C 357.82 293.58 340.44 291.16 323.07 288.66 C 324.61 277.84 326.20 267.03 327.76 256.22 C 328.40 251.61 327.97 246.65 325.35 242.68 C 321.62 236.62 313.92 233.33 306.96 234.95 C 301.79 235.98 297.80 239.70 293.66 242.71 C 286.61 248.04 279.49 253.29 272.46 258.66 C 261.85 244.63 251.30 230.55 240.81 216.43 C 249.87 209.63 258.98 202.90 267.97 196.02 C 273.16 192.14 276.26 185.46 275.08 178.98 C 274.14 171.72 268.06 165.72 260.91 164.48 C 249.37 162.55 237.74 161.14 226.16 159.41 C 228.63 142.00 231.14 124.60 233.62 107.19 C 244.25 108.69 254.87 110.22 265.49 111.75 C 269.99 112.39 274.83 112.28 278.84 109.87 C 285.11 106.47 288.75 98.94 287.50 91.90 C 286.81 87.04 283.62 83.11 280.76 79.32 C 275.03 71.73 269.33 64.11 263.63 56.50 C 268.02 53.19 272.42 49.90 276.82 46.60 C 286.48 39.35 296.14 32.10 305.81 24.85 C 312.14 33.29 318.49 41.72 324.80 50.19 C 326.97 53.04 329.39 55.87 332.66 57.50 C 339.00 60.87 347.36 59.63 352.53 54.66 C 355.87 51.68 357.56 47.33 358.19 42.98 C 359.80 32.07 361.29 21.14 362.88 10.23 M 344.04 96.99 C 329.66 103.39 317.93 115.51 312.08 130.13 C 306.97 142.70 306.21 156.97 309.96 170.02 C 313.98 184.36 323.48 197.04 336.04 205.03 C 348.35 212.98 363.58 216.17 378.06 214.00 C 392.23 212.01 405.48 204.72 415.01 194.09 C 425.43 182.39 431.17 166.64 430.50 150.97 C 430.01 133.39 421.42 116.29 407.69 105.32 C 396.85 96.46 382.93 91.69 368.96 91.65 C 360.41 91.82 351.85 93.46 344.04 96.99 Z" />
</g>
<g id="#ffb41fff">
<path fill="#ffb41f" opacity="1.00" d=" M 163.98 75.94 C 196.03 52.20 237.28 41.76 276.82 46.60 C 272.42 49.90 268.02 53.19 263.63 56.50 C 269.33 64.11 275.03 71.73 280.76 79.32 C 283.62 83.11 286.81 87.04 287.50 91.90 C 288.75 98.94 285.11 106.47 278.84 109.87 C 274.83 112.28 269.99 112.39 265.49 111.75 C 254.87 110.22 244.25 108.69 233.62 107.19 C 231.14 124.60 228.63 142.00 226.16 159.41 C 237.74 161.14 249.37 162.55 260.91 164.48 C 268.06 165.72 274.14 171.72 275.08 178.98 C 276.26 185.46 273.16 192.14 267.97 196.02 C 258.98 202.90 249.87 209.63 240.81 216.43 C 251.30 230.55 261.85 244.63 272.46 258.66 C 279.49 253.29 286.61 248.04 293.66 242.71 C 297.80 239.70 301.79 235.98 306.96 234.95 C 313.92 233.33 321.62 236.62 325.35 242.68 C 327.97 246.65 328.40 251.61 327.76 256.22 C 326.20 267.03 324.61 277.84 323.07 288.66 C 340.44 291.16 357.82 293.58 375.18 296.15 C 377.03 284.77 378.38 273.31 380.27 261.93 C 381.21 256.10 385.07 250.73 390.59 248.45 C 396.30 245.82 403.20 246.88 408.25 250.48 C 397.49 285.26 374.37 316.01 343.88 335.90 C 333.22 342.57 324.76 352.88 321.09 364.98 C 317.75 374.98 318.84 385.64 318.66 395.99 C 318.53 402.98 318.93 409.99 318.44 416.98 C 317.71 427.04 310.52 436.04 301.08 439.41 C 295.24 441.33 289.02 440.92 282.98 440.95 C 265.99 440.94 248.99 440.94 232.00 440.94 C 225.72 440.90 219.27 441.41 213.20 439.40 C 206.28 436.85 200.47 431.44 197.70 424.58 C 194.62 417.10 195.94 408.84 195.66 400.98 C 195.38 389.88 196.55 378.65 194.23 367.69 L 194.27 366.96 C 194.49 365.70 194.06 364.71 192.99 363.97 L 192.92 363.76 C 192.57 361.20 191.55 358.85 190.07 356.76 L 189.90 356.36 C 189.97 354.86 189.32 353.79 187.94 353.18 L 187.63 352.74 L 187.49 352.52 L 187.35 352.33 C 187.00 351.83 186.30 350.82 185.95 350.32 C 186.03 348.54 185.01 347.03 183.32 346.50 L 183.10 346.38 C 183.05 344.82 182.25 344.01 180.69 343.95 C 179.57 342.99 178.47 342.02 177.37 341.04 C 177.06 339.57 176.16 338.87 174.67 338.92 C 174.32 338.69 173.62 338.22 173.27 337.99 C 172.99 336.55 172.17 335.84 170.80 335.86 L 170.43 335.86 C 170.00 334.50 169.07 333.87 167.64 333.95 C 167.31 333.73 166.63 333.27 166.29 333.04 C 166.01 331.59 165.18 330.87 163.80 330.89 L 163.43 330.89 C 163.02 329.56 162.11 328.89 160.71 328.89 C 160.28 328.66 159.41 328.20 158.98 327.97 C 159.27 325.46 157.11 324.00 154.81 324.23 C 153.27 322.92 151.72 321.60 150.25 320.22 C 133.70 304.87 120.40 286.09 111.52 265.33 C 109.75 261.37 108.34 257.26 106.94 253.17 C 106.71 252.59 106.24 251.45 106.01 250.88 C 105.98 250.47 105.92 249.67 105.89 249.26 C 105.68 248.68 105.26 247.52 105.05 246.94 C 104.99 246.54 104.89 245.76 104.83 245.36 C 104.63 244.78 104.22 243.61 104.02 243.03 C 103.61 241.40 103.22 239.78 102.85 238.15 C 103.59 236.68 103.40 234.87 101.98 233.89 L 101.98 233.06 C 102.35 231.67 102.62 229.51 100.85 228.98 L 101.04 227.93 C 101.76 225.89 101.51 223.66 100.09 221.98 C 100.04 221.52 99.93 220.60 99.88 220.13 C 98.77 213.64 100.07 207.08 99.17 200.59 C 99.68 151.97 124.43 104.27 163.98 75.94 M 189.17 101.16 C 158.76 120.87 138.32 154.94 134.85 190.97 C 131.60 220.66 139.83 251.44 157.41 275.57 C 169.03 292.02 185.00 305.19 203.03 314.05 C 208.18 316.63 213.65 318.55 218.72 321.32 C 227.73 326.19 235.45 333.53 240.60 342.39 C 245.73 350.88 247.99 360.75 248.48 370.58 C 254.26 370.82 260.04 370.68 265.83 370.74 C 266.02 345.16 251.84 320.07 229.65 307.32 C 223.48 304.01 217.08 301.15 210.68 298.34 C 187.49 286.90 168.86 266.65 159.24 242.68 C 151.37 223.31 149.48 201.42 154.24 181.05 C 158.40 161.31 168.81 143.20 182.75 128.73 C 188.16 123.30 194.52 118.92 200.58 114.33 C 198.18 109.60 195.23 105.13 192.21 100.78 C 191.50 99.35 190.04 100.74 189.17 101.16 M 248.34 388.20 C 248.31 397.03 248.20 405.86 248.35 414.69 C 254.17 414.69 259.98 414.71 265.80 414.69 C 265.98 405.86 266.12 397.01 265.79 388.17 C 259.97 388.05 254.15 388.11 248.34 388.20 Z" />
<path fill="#ffb41f" opacity="1.00" d=" M 344.04 96.99 C 351.85 93.46 360.41 91.82 368.96 91.65 C 395.94 118.83 412.80 155.79 415.01 194.09 C 405.48 204.72 392.23 212.01 378.06 214.00 C 363.58 216.17 348.35 212.98 336.04 205.03 C 323.48 197.04 313.98 184.36 309.96 170.02 C 306.21 156.97 306.97 142.70 312.08 130.13 C 317.93 115.51 329.66 103.39 344.04 96.99 Z" />
</g>
<g id="#c9dfffff">
<path fill="#c9dfff" opacity="1.00" d=" M 81.88 232.07 C 83.95 222.59 85.85 213.08 87.87 203.60 C 91.41 203.61 94.95 203.67 98.49 203.37 C 100.02 208.82 98.61 214.60 99.88 220.13 C 99.93 220.60 100.04 221.52 100.09 221.98 C 99.49 224.03 99.75 226.20 101.04 227.93 L 100.85 228.98 C 100.36 230.44 101.01 231.95 101.98 233.06 L 101.98 233.89 C 101.57 235.37 101.76 236.99 102.85 238.15 C 103.22 239.78 103.61 241.40 104.02 243.03 C 104.22 243.61 104.63 244.78 104.83 245.36 C 104.89 245.76 104.99 246.54 105.05 246.94 C 105.26 247.52 105.68 248.68 105.89 249.26 C 105.92 249.67 105.98 250.47 106.01 250.88 C 106.24 251.45 106.71 252.59 106.94 253.17 C 108.34 257.26 109.75 261.37 111.52 265.33 C 97.70 264.23 83.47 269.82 74.53 280.49 C 62.29 294.28 60.50 316.02 70.27 331.65 C 77.28 343.47 90.21 351.55 103.94 352.57 C 116.45 353.83 129.28 349.12 138.25 340.37 C 144.04 334.89 147.69 327.67 150.25 320.22 C 151.72 321.60 153.27 322.92 154.81 324.23 C 155.79 325.87 157.17 327.25 158.98 327.97 C 159.41 328.20 160.28 328.66 160.71 328.89 C 161.08 330.32 161.99 330.98 163.43 330.89 L 163.80 330.89 C 163.98 332.23 164.81 332.95 166.29 333.04 C 166.63 333.27 167.31 333.73 167.64 333.95 C 168.09 335.33 169.02 335.96 170.43 335.86 L 170.80 335.86 C 170.96 337.20 171.78 337.91 173.27 337.99 C 173.62 338.22 174.32 338.69 174.67 338.92 C 175.09 340.23 175.99 340.93 177.37 341.04 C 178.47 342.02 179.57 342.99 180.69 343.95 C 181.02 345.23 181.82 346.04 183.10 346.38 L 183.32 346.50 C 183.17 348.28 184.34 349.70 185.95 350.32 C 186.30 350.82 187.00 351.83 187.35 352.33 C 187.42 352.43 187.56 352.63 187.63 352.74 L 187.94 353.18 C 187.94 354.64 188.59 355.70 189.90 356.36 L 190.07 356.76 C 190.85 359.16 191.82 361.49 192.92 363.76 L 192.99 363.97 C 192.43 365.50 192.85 366.50 194.27 366.96 L 194.23 367.69 C 194.18 368.21 194.09 369.26 194.05 369.78 C 185.14 378.95 175.97 387.88 166.97 396.97 C 158.85 391.42 150.82 385.72 142.65 380.25 C 138.01 376.79 130.59 379.47 129.30 385.13 C 127.00 394.89 125.17 404.76 123.03 414.56 C 111.32 414.57 99.62 414.54 87.91 414.58 C 85.70 404.80 83.92 394.92 81.60 385.17 C 80.37 379.83 73.57 376.98 68.92 379.93 C 60.46 385.41 52.29 391.33 43.93 396.97 C 35.15 388.19 26.38 379.40 17.57 370.65 C 22.72 363.11 27.91 355.59 33.12 348.08 C 34.57 345.98 36.04 343.64 35.82 340.98 C 35.71 336.95 32.54 333.41 28.61 332.69 C 19.10 330.56 9.51 328.77 0.00 326.60 L 0.00 291.50 C 8.94 289.63 17.87 287.73 26.82 285.89 C 29.28 285.34 31.93 284.66 33.60 282.63 C 36.27 279.69 36.50 274.98 34.18 271.76 C 28.72 263.66 23.11 255.65 17.56 247.60 C 26.32 238.76 35.15 230.00 43.94 221.19 C 51.62 226.48 59.30 231.78 66.97 237.09 C 69.28 238.73 72.15 240.01 75.03 239.25 C 78.56 238.59 81.25 235.53 81.88 232.07 Z" />
</g>
<g id="#d1b272e6">
<path fill="#d1b272" opacity="0.90" d=" M 100.09 221.98 C 101.51 223.66 101.76 225.89 101.04 227.93 C 99.75 226.20 99.49 224.03 100.09 221.98 Z" />
</g>
<g id="#c5a666d8">
<path fill="#c5a666" opacity="0.85" d=" M 100.85 228.98 C 102.62 229.51 102.35 231.67 101.98 233.06 C 101.01 231.95 100.36 230.44 100.85 228.98 Z" />
</g>
<g id="#c5a054d3">
<path fill="#c5a054" opacity="0.83" d=" M 101.98 233.89 C 103.40 234.87 103.59 236.68 102.85 238.15 C 101.76 236.99 101.57 235.37 101.98 233.89 Z" />
</g>
<g id="#cb9f46d7">
<path fill="#cb9f46" opacity="0.84" d=" M 104.02 243.03 C 104.22 243.61 104.63 244.78 104.83 245.36 C 104.63 244.78 104.22 243.61 104.02 243.03 Z" />
</g>
<g id="#c09b51ce">
<path fill="#c09b51" opacity="0.81" d=" M 105.05 246.94 C 105.26 247.52 105.68 248.68 105.89 249.26 C 105.68 248.68 105.26 247.52 105.05 246.94 Z" />
</g>
<g id="#c4ad7adc">
<path fill="#c4ad7a" opacity="0.86" d=" M 106.01 250.88 C 106.24 251.45 106.71 252.59 106.94 253.17 C 106.71 252.59 106.24 251.45 106.01 250.88 Z" />
</g>
<g id="#d0b06ee4">
<path fill="#d0b06e" opacity="0.89" d=" M 154.81 324.23 C 157.11 324.00 159.27 325.46 158.98 327.97 C 157.17 327.25 155.79 325.87 154.81 324.23 Z" />
</g>
<g id="#cda553db">
<path fill="#cda553" opacity="0.86" d=" M 160.71 328.89 C 162.11 328.89 163.02 329.56 163.43 330.89 C 161.99 330.98 161.08 330.32 160.71 328.89 Z" />
</g>
<g id="#d0a040d9">
<path fill="#d0a040" opacity="0.85" d=" M 163.80 330.89 C 165.18 330.87 166.01 331.59 166.29 333.04 C 164.81 332.95 163.98 332.23 163.80 330.89 Z" />
</g>
<g id="#cba65adb">
<path fill="#cba65a" opacity="0.86" d=" M 167.64 333.95 C 169.07 333.87 170.00 334.50 170.43 335.86 C 169.02 335.96 168.09 335.33 167.64 333.95 Z" />
</g>
<g id="#cda146d8">
<path fill="#cda146" opacity="0.85" d=" M 170.80 335.86 C 172.17 335.84 172.99 336.55 173.27 337.99 C 171.78 337.91 170.96 337.20 170.80 335.86 Z" />
</g>
<g id="#c7a660d8">
<path fill="#c7a660" opacity="0.85" d=" M 174.67 338.92 C 176.16 338.87 177.06 339.57 177.37 341.04 C 175.99 340.93 175.09 340.23 174.67 338.92 Z" />
</g>
<g id="#d49923d7">
<path fill="#d49923" opacity="0.84" d=" M 180.69 343.95 C 182.25 344.01 183.05 344.82 183.10 346.38 C 181.82 346.04 181.02 345.23 180.69 343.95 Z" />
</g>
<g id="#a88f5cb9">
<path fill="#a88f5c" opacity="0.73" d=" M 187.35 352.33 L 187.49 352.52 L 187.63 352.74 C 187.56 352.63 187.42 352.43 187.35 352.33 Z" />
</g>
<g id="#c5a156d4">
<path fill="#c5a156" opacity="0.83" d=" M 187.94 353.18 C 189.32 353.79 189.97 354.86 189.90 356.36 C 188.59 355.70 187.94 354.64 187.94 353.18 Z" />
</g>
<g id="#c59f4fd3">
<path fill="#c59f4f" opacity="0.83" d=" M 190.07 356.76 C 191.55 358.85 192.57 361.20 192.92 363.76 C 191.82 361.49 190.85 359.16 190.07 356.76 Z" />
</g>
<g id="#b89d64ca">
<path fill="#b89d64" opacity="0.79" d=" M 192.99 363.97 C 194.06 364.71 194.49 365.70 194.27 366.96 C 192.85 366.50 192.43 365.50 192.99 363.97 Z" />
</g>
<g id="#ebebebff">
<path fill="#ebebeb" opacity="1.00" d=" M 213.20 439.40 C 219.27 441.41 225.72 440.90 232.00 440.94 C 248.99 440.94 265.99 440.94 282.98 440.95 C 289.02 440.92 295.24 441.33 301.08 439.41 C 301.13 445.76 301.03 452.11 301.14 458.47 C 271.80 458.58 242.46 458.38 213.12 458.56 C 213.31 452.18 213.19 445.79 213.20 439.40 Z" />
<path fill="#ebebeb" opacity="1.00" d=" M 213.12 476.14 C 242.46 476.02 271.80 476.12 301.14 476.09 C 301.03 482.95 301.63 490.24 298.30 496.52 C 294.09 505.29 284.70 511.17 274.98 511.19 C 263.00 511.28 251.02 511.31 239.05 511.17 C 228.48 511.09 218.45 503.95 214.93 493.99 C 212.70 488.31 213.38 482.10 213.12 476.14 Z" />
</g>
<g id="#9e9e9eff">
<path fill="#9e9e9e" opacity="1.00" d=" M 213.12 458.56 C 242.46 458.38 271.80 458.58 301.14 458.47 C 301.24 464.34 301.24 470.22 301.14 476.09 C 271.80 476.12 242.46 476.02 213.12 476.14 C 212.93 470.29 212.93 464.42 213.12 458.56 Z" />
</g>
</svg>
