<?xml version="1.0" encoding="UTF-8" ?>
<!DOCTYPE svg PUBLIC "-//W3C//DTD SVG 1.1//EN" "http://www.w3.org/Graphics/SVG/1.1/DTD/svg11.dtd">
<svg width="512pt" height="512pt" viewBox="0 0 512 512" version="1.1" xmlns="http://www.w3.org/2000/svg">
<g id="#ffc250ff">
<path fill="#ffc250" opacity="1.00" d=" M 219.20 12.00 C 220.14 9.73 222.36 7.94 224.90 8.04 C 238.92 7.91 252.95 8.08 266.98 7.96 C 268.39 9.20 270.07 10.29 270.92 12.03 C 276.50 24.68 282.40 37.19 288.23 49.73 C 289.38 52.20 290.12 54.92 291.79 57.11 C 294.60 59.33 298.10 60.38 301.35 61.76 C 314.26 67.11 327.20 72.41 340.08 77.82 C 345.18 80.28 350.27 76.20 355.12 74.88 C 366.93 70.58 378.77 66.33 390.50 61.79 C 404.04 75.85 418.22 89.28 431.76 103.33 C 433.94 105.39 432.91 108.57 432.03 111.00 C 426.86 124.29 422.36 137.84 417.14 151.12 C 416.45 153.04 415.58 154.97 415.41 157.03 C 415.81 159.24 416.88 161.25 417.72 163.32 C 422.33 174.13 426.66 185.06 431.15 195.91 C 432.14 199.03 435.75 199.55 438.32 200.83 C 451.57 206.88 464.74 213.12 478.02 219.11 C 481.02 220.43 482.19 223.88 482.05 226.96 C 481.99 243.29 482.03 259.63 482.01 275.97 C 481.92 280.21 482.42 284.51 481.57 288.70 C 480.73 292.42 476.69 293.44 473.69 294.81 C 460.26 301.06 446.78 307.20 433.35 313.43 C 432.24 313.91 431.68 315.03 431.21 316.07 C 426.95 326.20 422.91 336.42 418.62 346.54 C 400.62 347.78 383.24 355.80 370.30 368.34 C 352.53 385.27 343.41 410.88 346.93 435.22 C 344.00 435.01 340.91 433.93 338.05 435.03 C 326.26 439.92 314.47 444.82 302.68 449.71 C 299.01 451.29 295.04 452.41 291.81 454.84 C 289.96 457.24 289.18 460.25 287.90 462.96 C 282.15 475.25 276.53 487.60 270.82 499.91 C 270.08 501.70 268.46 502.83 267.04 504.04 C 252.98 503.90 238.92 504.11 224.87 503.94 C 222.34 504.00 220.13 502.25 219.20 499.97 C 212.12 484.69 205.09 469.39 198.02 454.11 C 184.33 448.40 170.63 442.72 156.93 437.05 C 147.26 440.70 137.51 444.11 127.87 447.83 C 149.45 425.99 171.37 404.48 192.90 382.59 C 224.17 398.37 261.39 401.44 295.03 391.99 C 318.12 385.25 339.65 372.74 356.31 355.32 C 370.53 341.68 380.98 324.49 388.31 306.30 C 402.17 269.32 400.27 226.29 381.68 191.27 C 376.38 180.76 369.66 171.00 361.81 162.25 C 355.13 155.55 348.66 148.58 341.00 142.97 C 316.99 125.01 287.15 114.32 257.03 114.84 C 222.92 113.78 188.99 126.96 163.30 149.19 C 158.85 153.46 154.55 157.88 150.17 162.23 C 131.44 183.27 119.07 210.05 115.72 238.06 C 114.42 247.64 114.77 257.35 114.94 267.00 C 116.46 285.10 121.25 302.98 129.45 319.23 C 107.55 340.79 86.06 362.78 64.13 384.32 C 67.75 374.58 71.33 364.82 74.92 355.07 C 69.23 341.37 63.57 327.65 57.87 313.95 C 42.59 306.84 27.27 299.84 11.99 292.74 C 9.27 291.71 7.71 288.82 8.02 285.96 C 8.02 265.95 8.01 245.93 8.02 225.92 C 7.72 223.07 9.30 220.23 12.01 219.22 C 27.29 212.16 42.57 205.09 57.86 198.06 C 63.55 184.35 69.20 170.63 74.91 156.94 C 69.10 140.95 63.10 125.03 57.32 109.04 C 56.10 106.28 57.59 103.38 59.70 101.57 C 74.06 87.31 88.30 72.92 102.67 58.68 C 104.44 56.78 107.31 56.49 109.62 57.50 C 125.42 63.24 141.17 69.09 156.94 74.92 C 170.63 69.28 184.30 63.60 197.98 57.91 C 205.10 42.63 212.10 27.29 219.20 12.00 Z" />
</g>
<g id="#f2b149ff">
<path fill="#f2b149" opacity="1.00" d=" M 266.98 7.96 C 274.02 8.08 281.06 7.91 288.10 8.03 C 290.69 8.08 292.36 10.53 293.32 12.67 C 300.26 27.72 307.16 42.79 314.16 57.82 C 327.84 63.42 341.57 68.95 355.12 74.88 C 350.27 76.20 345.18 80.28 340.08 77.82 C 327.20 72.41 314.26 67.11 301.35 61.76 C 298.10 60.38 294.60 59.33 291.79 57.11 C 290.12 54.92 289.38 52.20 288.23 49.73 C 282.40 37.19 276.50 24.68 270.92 12.03 C 270.07 10.29 268.39 9.20 266.98 7.96 Z" />
<path fill="#f2b149" opacity="1.00" d=" M 402.22 57.35 C 404.90 56.36 408.14 56.75 410.02 59.06 C 424.34 73.38 438.67 87.69 452.96 102.03 C 455.05 103.75 455.55 106.60 454.80 109.12 C 449.17 125.11 442.87 140.90 437.43 156.94 C 442.75 170.66 448.69 184.15 454.17 197.82 C 469.20 204.80 484.26 211.72 499.29 218.67 C 501.81 219.71 504.41 221.93 504.00 224.95 C 504.00 245.66 504.00 266.38 504.00 287.09 C 504.37 290.09 501.77 292.26 499.29 293.32 C 484.24 300.23 469.21 307.20 454.17 314.14 C 449.71 325.35 444.78 336.38 440.49 347.65 C 437.04 347.21 433.60 346.71 430.14 346.46 C 426.30 346.12 422.45 346.28 418.62 346.54 C 422.91 336.42 426.95 326.20 431.21 316.07 C 431.68 315.03 432.24 313.91 433.35 313.43 C 446.78 307.20 460.26 301.06 473.69 294.81 C 476.69 293.44 480.73 292.42 481.57 288.70 C 482.42 284.51 481.92 280.21 482.01 275.97 C 482.03 259.63 481.99 243.29 482.05 226.96 C 482.19 223.88 481.02 220.43 478.02 219.11 C 464.74 213.12 451.57 206.88 438.32 200.83 C 435.75 199.55 432.14 199.03 431.15 195.91 C 426.66 185.06 422.33 174.13 417.72 163.32 C 416.88 161.25 415.81 159.24 415.41 157.03 C 415.58 154.97 416.45 153.04 417.14 151.12 C 422.36 137.84 426.86 124.29 432.03 111.00 C 432.91 108.57 433.94 105.39 431.76 103.33 C 418.22 89.28 404.04 75.85 390.50 61.79 C 394.38 60.25 398.30 58.80 402.22 57.35 Z" />
<path fill="#f2b149" opacity="1.00" d=" M 163.30 149.19 C 188.99 126.96 222.92 113.78 257.03 114.84 C 287.15 114.32 316.99 125.01 341.00 142.97 C 348.66 148.58 355.13 155.55 361.81 162.25 C 369.66 171.00 376.38 180.76 381.68 191.27 C 400.27 226.29 402.17 269.32 388.31 306.30 C 380.98 324.49 370.53 341.68 356.31 355.32 C 339.65 372.74 318.12 385.25 295.03 391.99 C 261.39 401.44 224.17 398.37 192.90 382.59 C 198.87 376.38 204.91 370.23 211.20 364.34 C 231.83 372.96 254.95 375.33 276.94 371.38 C 304.71 366.45 330.36 350.93 347.83 328.82 C 361.27 311.97 369.94 291.34 372.43 269.93 C 374.69 250.77 372.28 231.04 365.14 213.10 C 354.57 186.05 333.52 163.32 307.42 150.60 C 283.32 138.68 255.05 135.67 228.93 141.89 C 203.50 147.82 180.36 162.71 164.14 183.15 C 150.71 200.01 142.04 220.64 139.55 242.07 C 137.26 261.93 139.88 282.42 147.69 300.86 C 141.83 307.20 135.61 313.19 129.45 319.23 C 121.25 302.98 116.46 285.10 114.94 267.00 C 114.77 257.35 114.42 247.64 115.72 238.06 C 119.07 210.05 131.44 183.27 150.17 162.23 C 154.55 157.88 158.85 153.46 163.30 149.19 Z" />
<path fill="#f2b149" opacity="1.00" d=" M 338.05 435.03 C 340.91 433.93 344.00 435.01 346.93 435.22 C 347.20 436.96 347.50 438.69 347.75 440.44 C 336.46 444.81 325.38 449.70 314.14 454.18 C 307.15 469.22 300.23 484.30 293.29 499.37 C 292.33 501.48 290.67 503.86 288.12 503.95 C 281.10 504.11 274.06 503.90 267.04 504.04 C 268.46 502.83 270.08 501.70 270.82 499.91 C 276.53 487.60 282.15 475.25 287.90 462.96 C 289.18 460.25 289.96 457.24 291.81 454.84 C 295.04 452.41 299.01 451.29 302.68 449.71 C 314.47 444.82 326.26 439.92 338.05 435.03 Z" />
</g>
<g id="#4a80aaff">
<path fill="#4a80aa" opacity="1.00" d=" M 224.31 169.46 C 240.25 163.54 257.81 162.44 274.45 165.72 C 261.28 179.60 247.27 192.68 234.13 206.57 C 238.41 210.68 242.41 215.11 246.94 218.97 C 262.55 234.16 277.67 249.86 293.30 265.04 C 305.60 252.46 318.20 240.17 330.55 227.65 C 332.22 225.91 334.05 224.31 336.08 222.99 C 339.71 239.10 338.03 256.16 332.60 271.67 C 324.55 294.23 307.32 313.28 285.75 323.66 C 270.04 331.03 252.26 334.33 235.01 331.94 C 230.31 331.46 225.71 330.32 221.10 329.34 C 172.72 377.53 124.50 425.91 76.18 474.17 C 71.79 478.24 67.12 482.16 61.65 484.68 C 50.37 489.76 37.09 490.13 25.66 485.30 C 20.54 483.41 16.45 479.67 11.67 477.14 L 11.35 476.97 C 6.76 465.45 6.61 452.06 11.79 440.70 C 14.14 435.42 17.59 430.67 21.73 426.65 C 35.87 412.55 49.92 398.35 64.13 384.32 C 86.06 362.78 107.55 340.79 129.45 319.23 C 135.61 313.19 141.83 307.20 147.69 300.86 C 153.91 294.00 160.96 287.90 167.10 280.99 C 165.59 273.40 163.74 265.78 163.98 257.97 C 163.36 241.26 167.80 224.49 176.14 210.03 C 186.82 191.44 204.17 176.81 224.31 169.46 Z" />
</g>
<g id="#407093ff">
<path fill="#407093" opacity="1.00" d=" M 274.45 165.72 C 278.37 166.48 282.37 167.28 286.01 168.99 C 289.64 170.89 290.06 176.34 286.93 178.93 C 273.68 192.35 260.26 205.62 246.94 218.97 C 242.41 215.11 238.41 210.68 234.13 206.57 C 247.27 192.68 261.28 179.60 274.45 165.72 Z" />
<path fill="#407093" opacity="1.00" d=" M 336.08 222.99 C 339.26 222.51 342.79 224.09 343.65 227.39 C 348.18 241.01 349.13 255.71 347.14 269.88 C 343.74 292.94 331.07 314.49 312.61 328.72 C 296.10 341.64 275.03 348.88 254.03 348.02 C 246.19 348.44 238.57 346.38 230.95 344.99 C 224.10 351.15 217.99 358.11 211.20 364.34 C 204.91 370.23 198.87 376.38 192.90 382.59 C 171.37 404.48 149.45 425.99 127.87 447.83 C 113.77 462.05 99.56 476.17 85.40 490.34 C 77.28 498.72 65.79 504.26 54.00 504.02 C 36.18 505.14 18.27 493.71 11.67 477.14 C 16.45 479.67 20.54 483.41 25.66 485.30 C 37.09 490.13 50.37 489.76 61.65 484.68 C 67.12 482.16 71.79 478.24 76.18 474.17 C 124.50 425.91 172.72 377.53 221.10 329.34 C 225.71 330.32 230.31 331.46 235.01 331.94 C 252.26 334.33 270.04 331.03 285.75 323.66 C 307.32 313.28 324.55 294.23 332.60 271.67 C 338.03 256.16 339.71 239.10 336.08 222.99 Z" />
</g>
<g id="#80b4fbff">
<path fill="#80b4fb" opacity="1.00" d=" M 370.30 368.34 C 383.24 355.80 400.62 347.78 418.62 346.54 C 422.45 346.28 426.30 346.12 430.14 346.46 C 428.73 346.71 427.33 346.99 425.94 347.30 C 442.76 350.60 458.65 359.07 470.22 371.79 C 480.32 382.99 487.38 397.01 489.83 411.93 C 493.24 430.79 489.06 450.76 478.92 466.97 C 470.94 479.48 459.62 489.97 446.07 496.17 C 438.44 500.11 429.98 501.77 421.74 503.89 C 386.40 503.34 353.68 475.30 347.75 440.44 C 347.50 438.69 347.20 436.96 346.93 435.22 C 343.41 410.88 352.53 385.27 370.30 368.34 M 451.35 394.33 C 441.08 404.05 430.93 413.90 420.70 423.66 C 418.34 425.86 416.23 428.36 413.49 430.12 C 408.99 425.42 404.36 420.85 399.75 416.25 C 397.47 413.93 394.41 412.23 391.10 412.21 C 385.36 411.83 379.84 416.31 378.91 421.96 C 378.04 426.07 379.75 430.35 382.75 433.18 C 390.28 440.70 397.78 448.26 405.35 455.74 C 409.74 460.11 417.47 460.13 421.87 455.76 C 437.19 441.15 452.48 426.48 467.71 411.77 C 472.67 407.32 472.70 398.70 467.66 394.31 C 463.30 390.04 455.69 390.04 451.35 394.33 Z" />
</g>
<g id="#61a2f9ff">
<path fill="#61a2f9" opacity="1.00" d=" M 425.94 347.30 C 427.33 346.99 428.73 346.71 430.14 346.46 C 433.60 346.71 437.04 347.21 440.49 347.65 C 458.85 350.78 475.50 361.52 487.09 375.96 C 504.64 397.63 509.06 428.82 498.51 454.58 C 486.67 484.93 454.46 506.33 421.74 503.89 C 429.98 501.77 438.44 500.11 446.07 496.17 C 459.62 489.97 470.94 479.48 478.92 466.97 C 489.06 450.76 493.24 430.79 489.83 411.93 C 487.38 397.01 480.32 382.99 470.22 371.79 C 458.65 359.07 442.76 350.60 425.94 347.30 Z" />
</g>
<g id="#e4f6ffff">
<path fill="#e4f6ff" opacity="1.00" d=" M 451.35 394.33 C 455.69 390.04 463.30 390.04 467.66 394.31 C 472.70 398.70 472.67 407.32 467.71 411.77 C 452.48 426.48 437.19 441.15 421.87 455.76 C 417.47 460.13 409.74 460.11 405.35 455.74 C 397.78 448.26 390.28 440.70 382.75 433.18 C 379.75 430.35 378.04 426.07 378.91 421.96 C 379.84 416.31 385.36 411.83 391.10 412.21 C 394.41 412.23 397.47 413.93 399.75 416.25 C 404.36 420.85 408.99 425.42 413.49 430.12 C 416.23 428.36 418.34 425.86 420.70 423.66 C 430.93 413.90 441.08 404.05 451.35 394.33 Z" />
</g>
</svg>
