<?xml version="1.0" encoding="UTF-8" ?>
<!DOCTYPE svg PUBLIC "-//W3C//DTD SVG 1.1//EN" "http://www.w3.org/Graphics/SVG/1.1/DTD/svg11.dtd">
<svg width="512pt" height="512pt" viewBox="0 0 512 512" version="1.1" xmlns="http://www.w3.org/2000/svg">
<g id="#f9c82bff">
<path fill="#f9c82b" opacity="1.00" d=" M 247.57 13.39 C 250.81 7.19 260.69 6.97 264.19 13.02 C 269.13 22.34 273.64 31.89 278.40 41.30 C 288.46 43.07 298.57 44.62 308.57 46.65 C 315.44 48.53 317.99 58.09 313.33 63.34 C 306.42 70.91 299.27 78.26 292.26 85.75 C 293.70 96.19 295.39 106.60 296.69 117.06 C 297.48 124.14 289.36 130.43 282.81 127.12 C 273.82 122.57 264.96 117.77 255.99 113.20 C 247.05 117.88 238.13 122.60 229.13 127.15 C 222.56 130.42 214.49 124.09 215.30 117.03 C 216.63 106.58 218.28 96.18 219.74 85.75 C 212.76 78.23 205.59 70.88 198.65 63.32 C 193.96 58.07 196.59 48.47 203.48 46.63 C 213.49 44.73 223.56 43.14 233.59 41.31 C 238.28 32.02 242.79 22.63 247.57 13.39 Z" />
<path fill="#f9c82b" opacity="1.00" d=" M 94.25 81.21 C 97.73 75.34 107.28 75.44 110.66 81.37 C 115.51 90.67 120.08 100.12 124.74 109.53 C 134.64 111.33 144.60 112.83 154.48 114.79 C 161.65 116.32 164.54 126.21 159.75 131.59 C 152.83 139.17 145.67 146.53 138.66 154.02 C 140.09 164.34 141.73 174.64 143.07 184.97 C 144.10 192.08 136.07 198.66 129.40 195.47 C 120.40 190.90 111.45 186.21 102.54 181.46 C 93.42 186.02 84.50 190.97 75.36 195.48 C 68.74 198.62 60.78 192.15 61.71 185.10 C 63.06 174.71 64.69 164.36 66.14 153.99 C 59.18 146.59 52.15 139.25 45.23 131.81 C 40.28 126.57 42.92 116.61 50.02 114.87 C 59.97 112.96 70.01 111.44 79.97 109.58 C 84.79 100.16 89.28 90.56 94.25 81.21 Z" />
<path fill="#f9c82b" opacity="1.00" d=" M 401.32 81.42 C 404.67 75.41 414.31 75.34 417.78 81.27 C 422.74 90.59 427.22 100.19 432.04 109.60 C 441.88 111.25 451.72 112.89 461.53 114.75 C 468.91 116.20 471.83 126.44 466.76 131.83 C 459.86 139.28 452.82 146.61 445.86 154.01 C 447.30 164.37 448.94 174.71 450.28 185.08 C 451.22 192.14 443.25 198.63 436.62 195.48 C 427.59 190.93 418.65 186.16 409.69 181.46 C 400.64 186.08 391.70 190.93 382.60 195.46 C 375.92 198.68 367.89 192.07 368.93 184.97 C 370.27 174.63 371.90 164.32 373.34 153.99 C 366.32 146.51 359.19 139.13 352.25 131.59 C 347.42 126.20 350.36 116.26 357.56 114.77 C 367.44 112.92 377.39 111.44 387.26 109.52 C 391.92 100.14 396.48 90.70 401.32 81.42 Z" />
<path fill="#f9c82b" opacity="1.00" d=" M 256.00 213.30 C 294.73 213.34 333.48 222.44 367.95 240.17 C 391.20 251.92 412.42 267.55 430.95 285.84 C 402.80 314.05 374.56 342.16 346.45 370.41 C 323.86 347.46 292.27 333.76 260.08 332.86 C 258.75 332.65 257.42 332.38 256.10 332.12 C 255.84 292.52 256.10 252.90 256.00 213.30 Z" />
</g>
<g id="#e99e32ff">
<path fill="#e99e32" opacity="1.00" d=" M 164.94 230.77 C 193.78 219.10 224.92 213.40 256.00 213.30 C 256.10 252.90 255.84 292.52 256.10 332.12 C 257.42 332.38 258.75 332.65 260.08 332.86 C 225.16 331.57 190.15 345.55 165.56 370.34 C 137.39 342.19 109.25 313.99 81.07 285.85 C 105.00 262.16 133.58 243.11 164.94 230.77 Z" />
</g>
<g id="#d7342cff">
<path fill="#d7342c" opacity="1.00" d=" M 54.02 318.05 C 62.04 306.52 71.29 295.90 81.07 285.85 C 109.25 313.99 137.39 342.19 165.56 370.34 C 142.68 393.07 128.81 424.69 128.10 456.98 C 127.95 459.63 128.29 462.51 126.91 464.91 C 125.38 467.76 122.15 469.47 118.94 469.32 C 85.60 469.36 52.27 469.31 18.94 469.35 C 13.90 470.11 8.49 466.30 8.58 460.98 C 8.27 410.14 24.51 359.43 54.02 318.05 Z" />
</g>
<g id="#2aa869ff">
<path fill="#2aa869" opacity="1.00" d=" M 346.45 370.41 C 374.56 342.16 402.80 314.05 430.95 285.84 C 456.02 311.13 475.79 341.69 488.16 375.11 C 498.30 402.51 503.53 431.75 503.42 460.97 C 503.47 465.42 499.46 469.36 495.02 469.30 C 461.02 469.37 427.01 469.32 393.01 469.32 C 388.39 469.63 384.02 465.69 384.04 461.03 C 383.91 450.23 382.68 439.43 379.99 428.95 C 399.07 417.78 418.06 406.44 437.05 395.11 C 439.68 393.45 442.73 392.15 444.64 389.58 C 447.57 385.43 445.58 379.00 440.96 377.02 C 438.78 375.94 436.26 376.30 434.05 377.05 C 412.20 384.62 390.32 392.12 368.54 399.87 C 362.60 389.08 355.21 379.07 346.45 370.41 Z" />
</g>
<g id="#0a365eff">
<path fill="#0a365e" opacity="1.00" d=" M 434.05 377.05 C 436.26 376.30 438.78 375.94 440.96 377.02 C 445.58 379.00 447.57 385.43 444.64 389.58 C 442.73 392.15 439.68 393.45 437.05 395.11 C 418.06 406.44 399.07 417.78 379.99 428.95 C 349.47 446.87 318.97 464.83 287.84 481.68 C 291.66 471.78 290.62 460.11 284.84 451.17 C 280.67 444.81 274.56 439.60 267.34 437.08 C 300.73 423.78 334.67 411.89 368.54 399.87 C 390.32 392.12 412.20 384.62 434.05 377.05 Z" />
</g>
<g id="#06293fff">
<path fill="#06293f" opacity="1.00" d=" M 230.58 446.60 C 239.46 436.37 254.60 432.60 267.34 437.08 C 274.56 439.60 280.67 444.81 284.84 451.17 C 290.62 460.11 291.66 471.78 287.84 481.68 C 283.94 491.59 275.30 499.55 264.95 502.24 C 250.96 506.30 234.92 500.05 227.25 487.70 C 219.04 475.27 220.44 457.53 230.58 446.60 Z" />
</g>
</svg>
