<?xml version="1.0" encoding="UTF-8" ?>
<!DOCTYPE svg PUBLIC "-//W3C//DTD SVG 1.1//EN" "http://www.w3.org/Graphics/SVG/1.1/DTD/svg11.dtd">
<svg width="512pt" height="512pt" viewBox="0 0 512 512" version="1.1" xmlns="http://www.w3.org/2000/svg">
<g id="#2563EB">
<path fill="#2563EB" opacity="1.00" d=" M 26.24 80.25 C 32.40 77.40 39.17 75.94 45.95 76.01 C 184.65 75.99 323.34 76.01 462.03 76.00 C 470.13 75.68 478.38 76.73 485.76 80.22 C 413.50 152.79 341.17 225.30 268.90 297.85 C 262.51 305.16 249.54 305.22 243.16 297.87 C 170.86 225.33 98.57 152.77 26.24 80.25 Z" />
<path fill="#2563EB" opacity="1.00" d=" M 0.00 118.01 C 0.60 112.18 2.25 106.50 4.78 101.23 C 56.24 152.80 107.67 204.39 159.06 256.02 C 107.63 307.60 56.24 359.22 4.78 410.77 C 2.29 405.58 0.68 400.00 0.00 394.28 L 0.00 118.01 Z" />
<path fill="#2563EB" opacity="1.00" d=" M 352.97 256.02 C 404.35 204.39 455.80 152.82 507.22 101.23 C 509.71 106.43 511.31 112.02 512.00 117.75 L 512.00 393.19 C 511.56 399.29 509.84 405.25 507.22 410.77 C 455.79 359.20 404.39 307.60 352.97 256.02 Z" />
<path fill="#2563EB" opacity="1.00" d=" M 26.24 431.75 C 77.59 380.27 128.90 328.75 180.25 277.26 C 194.86 291.81 209.31 306.53 223.97 321.03 C 241.40 337.98 272.16 337.45 289.10 320.05 C 303.33 305.80 317.54 291.53 331.76 277.26 C 383.11 328.76 434.49 380.24 485.77 431.81 C 479.57 434.55 472.82 436.07 466.02 435.99 C 328.03 436.01 190.03 436.00 52.03 436.00 C 43.26 436.33 34.25 435.64 26.24 431.75 Z" />
</g>
</svg>
