<?xml version="1.0" encoding="UTF-8" ?>
<!DOCTYPE svg PUBLIC "-//W3C//DTD SVG 1.1//EN" "http://www.w3.org/Graphics/SVG/1.1/DTD/svg11.dtd">
<svg width="512pt" height="512pt" viewBox="0 0 512 512" version="1.1" xmlns="http://www.w3.org/2000/svg">
<g id="#2563EBff">
<path fill="#2563EB" opacity="1.00" d=" M 251.56 0.00 L 260.37 0.00 C 299.29 0.83 338.04 10.39 372.58 28.42 C 427.28 56.53 471.28 104.87 493.93 162.07 C 505.36 190.46 511.24 220.96 512.00 251.53 L 512.00 258.44 C 511.41 277.81 509.39 297.17 504.78 316.03 C 492.23 369.13 463.17 418.23 422.60 454.73 C 392.50 482.08 355.71 502.04 316.25 512.00 L 316.03 512.00 C 315.96 481.34 316.02 450.68 316.00 420.02 C 316.00 405.44 316.94 389.78 309.26 376.72 C 305.72 370.65 301.27 365.19 297.26 359.45 C 322.50 355.52 347.76 347.30 368.01 331.26 C 402.71 304.00 417.45 254.23 403.47 212.41 C 399.27 199.94 392.83 188.33 385.52 177.42 C 384.18 175.35 382.64 173.35 381.88 170.98 C 382.21 167.56 383.42 164.32 384.18 160.99 C 388.25 142.30 385.48 122.70 378.88 104.92 C 371.91 106.76 364.49 106.12 357.67 108.65 C 342.38 113.95 328.61 122.65 314.64 130.63 C 312.50 132.14 309.90 131.10 307.60 130.66 C 290.77 126.24 273.39 123.88 255.99 123.64 C 241.48 123.84 227.00 125.52 212.83 128.59 C 208.49 129.51 204.26 130.96 199.85 131.47 C 196.58 130.71 193.91 128.49 191.02 126.88 C 179.29 120.04 167.57 112.82 154.57 108.59 C 147.66 106.24 140.24 106.59 133.17 104.94 C 127.50 120.18 124.42 136.66 126.51 152.91 C 126.84 158.79 128.92 164.33 130.04 170.06 C 130.47 171.50 129.61 172.83 128.83 173.95 C 106.06 202.04 99.09 241.22 107.75 275.99 C 114.79 302.50 132.59 325.95 156.31 339.74 C 174.11 350.41 194.36 356.23 214.74 359.44 C 209.49 367.06 203.22 374.21 200.10 383.06 C 198.60 387.10 197.85 391.35 197.07 395.57 C 188.23 398.55 178.25 400.46 169.33 396.69 C 161.54 393.68 156.15 386.90 151.88 380.01 C 143.79 367.07 132.39 355.58 117.92 350.07 C 111.41 347.47 104.34 346.76 97.38 347.00 C 98.26 356.93 99.12 366.86 100.03 376.79 C 107.67 376.77 114.37 381.17 119.28 386.69 C 125.52 393.02 129.14 401.36 135.11 407.91 C 143.36 417.52 154.61 424.67 167.06 427.32 C 176.54 429.73 186.48 429.25 196.00 427.32 C 196.00 455.54 196.01 483.77 195.99 512.00 L 195.81 512.00 C 145.26 499.39 99.44 470.00 65.70 430.45 C 30.59 389.75 7.76 338.42 1.82 284.94 C 0.44 276.19 0.73 267.30 0.00 258.49 L 0.00 251.54 C 0.92 204.83 14.79 158.44 40.10 119.14 C 62.61 83.78 93.88 54.05 130.33 33.35 C 167.09 12.25 209.21 0.88 251.56 0.00 Z" />
</g>
</svg>
