<?xml version="1.0" encoding="UTF-8" ?>
<!DOCTYPE svg PUBLIC "-//W3C//DTD SVG 1.1//EN" "http://www.w3.org/Graphics/SVG/1.1/DTD/svg11.dtd">
<svg width="512pt" height="512pt" viewBox="0 0 512 512" version="1.1" xmlns="http://www.w3.org/2000/svg">
<g id="#2563EB">
<path fill="#2563EB" opacity="1.00" d=" M 264.21 0.00 L 264.78 0.00 C 270.20 1.13 275.65 2.09 281.10 3.05 C 341.89 14.88 398.41 47.09 439.82 93.11 C 477.42 133.85 502.37 185.73 511.98 240.26 C 498.88 242.47 485.78 244.76 472.68 246.95 C 470.62 237.58 469.03 228.10 466.04 218.96 C 444.31 142.25 383.49 78.01 308.22 51.84 C 292.23 45.81 275.44 42.31 258.62 39.51 C 260.50 26.34 262.30 13.16 264.21 0.00 Z" />
<path fill="#2563EB" opacity="1.00" d=" M 74.33 51.05 C 82.93 48.04 92.70 48.98 100.72 53.23 C 107.36 56.61 112.69 61.94 117.85 67.19 C 134.03 83.36 150.19 99.54 166.33 115.75 C 172.94 122.30 179.88 129.08 183.18 138.00 C 186.22 145.61 186.15 154.35 183.00 161.91 C 179.72 170.30 173.27 176.82 166.94 183.00 C 156.46 193.46 145.94 203.89 135.47 214.36 C 133.05 216.62 131.27 220.06 132.67 223.37 C 144.56 252.49 164.52 277.36 185.47 300.47 C 199.49 315.82 214.50 330.29 230.78 343.24 C 248.68 357.73 268.19 370.40 289.37 379.53 C 292.46 380.60 295.33 378.50 297.41 376.42 C 309.93 363.95 322.31 351.33 334.88 338.91 C 342.53 331.32 352.93 325.73 363.97 326.50 C 374.15 327.00 383.21 332.69 390.26 339.72 C 410.12 359.54 430.02 379.33 449.82 399.22 C 457.85 407.24 463.84 418.28 462.56 429.94 C 461.58 441.29 454.36 450.78 446.34 458.33 C 434.20 469.83 422.80 482.07 411.02 493.91 C 399.02 505.68 382.27 511.56 365.64 512.00 L 357.02 512.00 C 342.93 510.68 328.86 508.72 315.25 504.75 C 296.09 499.56 277.89 491.46 260.06 482.83 C 223.20 464.40 188.44 441.70 157.09 414.92 C 124.12 386.85 94.85 354.51 69.51 319.42 C 47.85 289.27 29.42 256.68 16.04 222.01 C 7.63 200.39 0.87 177.76 0.00 154.43 L 0.00 147.63 C 0.59 135.42 2.60 122.84 9.25 112.33 C 13.69 104.66 20.42 98.77 26.62 92.57 C 36.19 83.17 45.68 73.68 55.13 64.14 C 60.61 58.63 66.82 53.49 74.33 51.05 Z" />
<path fill="#2563EB" opacity="1.00" d=" M 258.97 102.29 C 283.53 105.91 307.42 114.39 328.38 127.74 C 355.82 145.12 378.42 170.13 392.69 199.32 C 400.15 214.37 405.23 230.53 408.21 247.06 C 395.11 249.31 382.01 251.55 368.90 253.77 C 364.89 231.09 355.32 209.33 340.72 191.46 C 319.33 164.60 287.43 146.52 253.42 141.83 C 255.24 128.64 257.12 115.47 258.97 102.29 Z" />
</g>
</svg>
