<?xml version="1.0" encoding="UTF-8" ?>
<!DOCTYPE svg PUBLIC "-//W3C//DTD SVG 1.1//EN" "http://www.w3.org/Graphics/SVG/1.1/DTD/svg11.dtd">
<svg width="1280pt" height="767pt" viewBox="0 0 1280 767" version="1.1" xmlns="http://www.w3.org/2000/svg">
<g id="#252f3eff">
<path fill="#252f3e" opacity="1.00" d=" M 1063.59 5.76 C 1094.45 2.54 1125.77 6.32 1155.56 14.66 C 1168.09 18.32 1181.01 22.35 1191.24 30.80 C 1196.21 34.83 1199.40 40.94 1199.50 47.39 C 1199.61 55.61 1199.68 63.84 1199.45 72.05 C 1199.28 76.66 1196.91 82.09 1191.81 82.79 C 1185.77 83.42 1180.11 80.55 1174.70 78.26 C 1145.28 64.64 1112.28 60.02 1080.09 61.88 C 1065.30 62.92 1050.08 65.48 1037.18 73.20 C 1028.55 78.27 1021.79 86.56 1019.15 96.28 C 1015.98 108.07 1016.45 121.42 1022.94 132.04 C 1027.60 139.91 1035.14 145.52 1042.99 149.93 C 1056.03 157.21 1070.27 161.97 1084.49 166.39 C 1099.65 171.23 1114.84 176.02 1130.01 180.83 C 1147.44 186.14 1164.68 192.83 1179.80 203.17 C 1190.02 210.09 1199.03 218.91 1205.61 229.40 C 1215.89 245.22 1220.87 264.19 1220.62 283.00 C 1220.50 302.10 1215.98 321.48 1205.78 337.78 C 1196.07 353.93 1182.10 367.32 1165.99 377.01 C 1151.81 385.50 1136.04 390.96 1120.06 394.90 C 1093.92 401.26 1066.66 401.56 1040.04 398.59 C 1023.78 396.79 1007.74 393.35 992.02 388.88 C 980.90 385.68 969.81 382.04 959.62 376.49 C 954.83 373.78 949.99 370.69 946.78 366.12 C 943.78 361.35 943.02 355.53 943.14 349.99 C 943.26 342.68 942.96 335.36 943.30 328.05 C 943.54 323.90 945.63 319.14 950.09 318.21 C 957.66 316.79 964.59 320.96 971.40 323.57 C 1002.65 337.26 1036.92 343.57 1070.98 343.12 C 1086.43 342.82 1102.11 341.08 1116.61 335.46 C 1127.09 331.35 1136.99 324.80 1143.29 315.30 C 1150.28 304.86 1152.14 291.51 1149.73 279.31 C 1147.53 268.39 1140.37 258.85 1131.00 252.98 C 1118.94 245.26 1105.26 240.56 1091.68 236.29 C 1075.14 231.16 1058.61 226.02 1042.08 220.90 C 1017.50 213.63 992.89 202.93 975.05 183.95 C 960.49 168.01 950.39 147.66 948.01 126.09 C 946.02 107.18 948.65 87.42 957.53 70.45 C 969.99 46.36 991.96 28.19 1016.68 17.64 C 1031.58 11.29 1047.48 7.41 1063.59 5.76 Z" />
<path fill="#252f3e" opacity="1.00" d=" M 154.06 12.97 C 178.47 6.73 203.83 4.82 228.96 5.69 C 246.95 6.37 264.99 8.57 282.25 13.84 C 296.28 18.11 309.79 24.52 321.29 33.70 C 333.77 43.58 343.30 56.85 349.76 71.32 C 359.91 94.06 362.94 119.28 362.94 143.99 C 362.94 188.01 362.98 232.04 362.93 276.07 C 362.94 278.39 363.78 280.61 363.84 282.93 C 364.14 296.33 365.27 310.06 370.50 322.54 C 373.80 330.96 377.48 339.26 381.84 347.19 C 384.14 351.16 385.76 356.00 384.24 360.54 C 382.61 365.04 378.86 368.35 374.99 370.94 C 366.77 376.37 358.60 381.87 350.40 387.31 C 346.07 390.20 340.58 392.20 335.41 390.54 C 329.29 388.68 325.01 383.66 321.16 378.86 C 311.62 367.41 305.03 353.95 298.53 340.65 C 280.82 361.58 258.39 378.93 232.58 388.59 C 212.05 396.40 189.88 399.42 167.98 398.59 C 145.92 397.81 123.51 392.45 104.97 380.08 C 82.59 365.41 66.98 341.29 62.01 315.05 C 57.02 288.58 58.65 260.11 70.47 235.59 C 83.72 208.13 109.32 187.95 137.75 177.87 C 170.59 166.24 206.27 166.40 240.44 170.72 C 258.45 172.88 276.20 176.67 293.89 180.63 C 293.53 158.69 295.39 136.41 290.38 114.85 C 287.50 102.45 282.30 90.00 272.72 81.27 C 261.36 71.18 246.18 66.90 231.45 64.80 C 210.77 62.12 189.64 62.69 169.16 66.64 C 152.59 70.03 136.29 74.79 120.43 80.67 C 111.96 83.76 103.80 87.99 94.84 89.53 C 91.30 90.26 87.19 88.78 85.74 85.28 C 83.39 79.82 84.46 73.70 84.21 67.94 C 84.45 60.33 83.49 52.56 85.40 45.11 C 86.80 39.87 91.57 36.59 96.00 34.00 C 114.19 24.18 134.03 17.84 154.06 12.97 M 186.01 220.80 C 171.50 223.63 157.08 229.86 147.19 241.19 C 137.23 252.24 133.13 267.39 133.07 282.01 C 132.97 291.62 133.96 301.38 137.31 310.44 C 141.45 321.88 150.18 331.55 161.00 337.06 C 176.26 344.58 193.99 344.49 210.49 342.24 C 224.86 339.88 239.30 336.18 252.01 328.87 C 268.21 319.29 282.73 305.22 289.01 287.10 C 295.23 267.99 294.86 247.65 294.74 227.80 C 276.77 223.46 258.49 220.43 240.06 219.02 C 222.07 217.78 203.79 217.30 186.01 220.80 Z" />
<path fill="#252f3e" opacity="1.00" d=" M 404.48 20.39 C 406.08 16.71 410.36 15.39 414.08 15.57 C 428.04 15.58 442.01 15.53 455.97 15.60 C 461.66 15.75 468.15 16.27 472.22 20.77 C 476.31 25.37 478.04 31.51 479.84 37.26 C 503.33 129.85 526.86 222.42 550.31 315.02 C 571.43 225.27 592.60 135.53 613.75 45.78 C 615.71 38.06 616.82 29.86 621.11 22.99 C 626.35 15.44 636.74 15.58 644.97 15.56 C 655.32 15.60 665.68 15.51 676.04 15.60 C 681.50 15.78 687.55 16.33 691.81 20.16 C 695.92 23.97 697.70 29.55 699.04 34.83 C 721.33 129.31 743.60 223.80 765.89 318.28 C 788.93 229.15 811.93 140.01 834.95 50.87 C 837.64 41.32 839.09 31.10 844.66 22.66 C 848.16 17.27 855.15 16.05 861.09 15.66 C 874.40 15.43 887.72 15.65 901.04 15.55 C 904.38 15.54 908.20 15.72 910.67 18.31 C 913.62 21.41 913.51 26.10 912.89 30.06 C 912.07 36.74 909.49 42.99 907.59 49.40 C 874.30 156.18 841.01 262.97 807.71 369.75 C 805.91 375.11 803.99 380.81 799.74 384.76 C 795.08 388.57 788.76 389.40 782.93 389.47 C 770.29 389.44 757.65 389.51 745.00 389.43 C 739.54 389.22 733.41 388.62 729.35 384.53 C 724.57 379.58 723.00 372.61 721.55 366.12 C 699.98 276.37 678.42 186.61 656.84 96.87 C 635.80 184.81 614.78 272.75 593.75 360.69 C 591.76 368.47 590.51 376.91 585.40 383.39 C 580.37 389.09 571.99 388.95 565.01 389.07 C 553.36 389.04 541.70 389.11 530.05 389.04 C 524.20 388.97 517.68 388.09 513.53 383.53 C 509.65 379.14 507.77 373.43 505.97 367.96 C 477.77 275.24 449.59 182.52 421.40 89.80 C 416.16 72.39 410.72 55.04 405.62 37.59 C 404.28 32.03 402.03 25.96 404.48 20.39 Z" />
</g>
<g id="#ff9900ff">
<path fill="#ff9900" opacity="1.00" d=" M 1156.58 477.83 C 1178.34 475.97 1200.32 476.16 1221.99 478.92 C 1233.91 480.51 1245.87 482.70 1257.11 487.07 C 1262.02 489.17 1267.72 491.52 1269.91 496.81 C 1272.84 504.13 1272.93 512.21 1272.98 519.98 C 1272.51 541.79 1268.18 563.35 1262.23 584.28 C 1252.52 617.40 1237.95 649.44 1216.84 676.90 C 1209.35 686.60 1200.98 695.64 1191.73 703.69 C 1188.37 706.66 1184.57 709.55 1180.00 710.20 C 1177.29 710.63 1174.14 709.91 1172.58 707.50 C 1170.56 704.44 1171.38 700.55 1172.60 697.37 C 1186.26 663.20 1199.85 628.82 1208.74 593.03 C 1211.70 580.25 1214.41 567.17 1213.74 553.98 C 1213.38 547.39 1211.60 540.09 1205.88 536.12 C 1198.40 530.84 1189.11 529.16 1180.24 527.78 C 1159.90 525.11 1139.30 525.76 1118.88 526.92 C 1095.01 528.31 1071.25 530.97 1047.53 533.85 C 1043.89 534.27 1039.51 534.17 1037.03 531.07 C 1034.83 528.27 1035.75 524.34 1037.47 521.55 C 1040.76 516.15 1046.54 513.13 1051.67 509.76 C 1083.20 490.35 1119.99 481.13 1156.58 477.83 Z" />
<path fill="#ff9900" opacity="1.00" d=" M 13.39 502.49 C 17.82 500.70 22.81 502.00 26.78 504.32 C 99.12 546.25 175.97 580.30 255.36 606.50 C 341.78 634.99 431.26 654.23 521.76 663.76 C 611.48 673.29 702.27 673.17 791.88 662.43 C 908.87 648.53 1023.99 618.42 1132.55 572.57 C 1139.13 569.79 1147.12 569.80 1153.27 573.68 C 1158.76 576.99 1162.37 583.49 1161.50 589.96 C 1160.72 596.62 1155.96 601.99 1150.68 605.71 C 1094.12 647.19 1030.77 678.78 965.05 702.93 C 919.76 719.52 873.18 732.54 825.93 742.19 C 768.51 753.85 710.05 760.67 651.44 761.58 C 556.58 762.87 461.48 750.20 370.46 723.36 C 240.06 685.10 118.43 617.45 17.09 526.92 C 13.27 523.48 8.70 520.14 7.40 514.87 C 5.91 509.99 8.57 504.27 13.39 502.49 Z" />
</g>
</svg>
