<?xml version="1.0" encoding="UTF-8" ?>
<!DOCTYPE svg PUBLIC "-//W3C//DTD SVG 1.1//EN" "http://www.w3.org/Graphics/SVG/1.1/DTD/svg11.dtd">
<svg width="346pt" height="146pt" viewBox="0 0 346 146" version="1.1" xmlns="http://www.w3.org/2000/svg">
<g id="#ffffffff">
<path fill="#ffffff" opacity="1.00" d=" M 0.00 0.00 L 346.00 0.00 L 346.00 146.00 L 0.00 146.00 L 0.00 102.21 C 1.18 107.68 3.92 113.11 8.95 115.95 C 24.21 125.06 39.49 134.12 54.76 143.20 C 60.75 146.86 68.63 146.26 74.30 142.29 C 88.90 133.53 103.57 124.91 118.18 116.18 C 123.87 112.92 127.46 106.50 127.24 99.93 C 127.25 81.95 127.25 63.96 127.23 45.98 C 127.44 39.45 123.87 33.04 118.19 29.81 C 104.21 21.46 90.18 13.17 76.20 4.82 C 69.94 0.07 60.93 -1.48 54.14 3.11 C 39.12 12.13 24.01 21.01 8.98 30.00 C 3.74 32.98 0.89 38.67 0.00 44.45 L 0.00 0.00 M 268.55 40.77 C 261.67 41.51 254.61 44.94 251.18 51.18 C 247.82 57.16 248.92 65.29 254.06 69.93 C 260.60 76.65 270.43 77.47 278.41 81.58 C 282.63 83.46 283.48 89.92 279.57 92.55 C 273.56 96.57 263.01 95.16 260.66 87.52 C 259.95 86.06 260.09 83.34 257.92 83.30 C 254.76 83.13 251.55 82.96 248.42 83.50 C 248.19 83.84 247.73 84.53 247.50 84.87 C 247.14 91.59 251.36 97.73 256.88 101.18 C 263.99 105.56 273.03 106.44 280.96 104.00 C 286.55 102.34 291.85 98.53 293.95 92.92 C 296.52 86.43 293.96 78.66 288.58 74.39 C 282.83 69.53 275.32 67.94 268.41 65.46 C 264.94 64.24 260.93 61.16 262.17 56.97 C 265.12 48.85 279.34 49.53 281.40 58.06 C 282.16 59.56 281.81 62.34 283.96 62.55 C 287.13 62.82 290.37 62.91 293.53 62.44 C 295.88 60.61 294.19 57.31 293.81 54.93 C 290.44 44.68 278.75 39.49 268.55 40.77 M 145.74 41.75 C 145.28 49.81 145.63 57.88 145.52 65.95 C 145.68 78.70 145.19 91.48 145.79 104.22 C 152.18 104.87 158.61 104.40 165.02 104.55 C 170.99 104.69 177.22 103.73 182.25 100.32 C 187.03 97.21 190.34 91.73 190.21 85.95 C 190.59 79.99 187.17 74.29 182.13 71.25 C 189.11 66.51 190.68 56.05 185.54 49.42 C 180.83 43.14 172.48 41.39 165.05 41.40 C 158.62 41.52 152.15 41.04 145.74 41.75 M 214.15 41.79 C 207.66 61.03 201.16 80.26 194.59 99.47 C 194.19 100.90 193.45 102.45 194.13 103.93 C 196.59 104.98 199.37 104.47 201.97 104.57 C 203.17 104.41 204.70 104.77 205.63 103.77 C 207.91 99.18 208.38 93.76 210.92 89.36 C 216.56 89.16 222.20 89.26 227.84 89.38 C 229.58 94.29 230.49 99.63 232.99 104.18 C 236.71 104.97 240.60 104.52 244.36 104.17 C 244.19 99.54 242.03 95.35 240.75 90.98 C 235.25 74.79 230.13 58.45 224.38 42.36 C 221.58 40.30 217.44 41.64 214.15 41.79 M 300.80 41.74 C 300.32 48.83 300.67 55.95 300.57 63.05 C 300.71 76.77 300.27 90.51 300.79 104.22 C 304.58 104.67 308.42 104.68 312.21 104.22 C 312.72 95.27 312.35 86.30 312.42 77.34 C 319.31 77.31 326.19 77.38 333.08 77.29 C 333.41 85.79 332.90 94.31 333.32 102.80 C 333.47 103.13 333.79 103.81 333.95 104.14 C 337.52 104.95 341.24 104.55 344.84 104.18 C 346.24 97.19 345.66 90.05 345.77 82.98 C 345.54 74.32 345.58 65.65 345.46 56.99 C 345.79 51.93 346.12 46.83 345.04 41.82 C 341.57 41.34 338.00 41.08 334.53 41.62 C 333.12 42.15 333.20 43.76 333.17 45.00 C 333.11 52.26 333.27 59.53 333.10 66.80 C 326.21 66.69 319.31 66.83 312.41 66.71 C 312.37 58.39 312.70 50.06 312.21 41.75 C 308.43 41.23 304.58 41.24 300.80 41.74 M 144.70 114.28 C 145.58 114.48 147.33 114.86 148.21 115.06 C 148.23 117.74 148.23 120.43 148.59 123.09 C 150.65 120.94 149.54 117.71 149.80 115.06 C 150.68 114.86 152.44 114.47 153.32 114.27 C 150.56 113.30 147.45 113.28 144.70 114.28 M 164.63 113.71 C 164.61 116.57 164.61 119.44 164.65 122.30 C 166.77 122.14 169.17 122.75 171.02 121.41 C 169.32 121.15 167.62 121.03 165.91 120.90 C 165.16 117.63 168.69 118.70 170.52 117.52 C 169.01 117.33 167.51 117.18 166.00 117.08 C 166.00 116.53 166.00 115.42 166.00 114.86 C 167.62 114.83 169.24 114.81 170.87 114.77 C 170.54 114.47 169.90 113.87 169.58 113.57 C 167.92 113.63 166.28 113.67 164.63 113.71 M 183.10 113.37 C 182.83 116.40 182.85 119.45 183.07 122.49 C 184.98 122.06 187.52 122.73 188.89 121.02 C 189.43 119.83 188.61 118.67 188.40 117.51 C 190.53 113.77 185.56 113.42 183.10 113.37 M 194.54 113.51 C 190.49 114.20 190.61 122.37 194.97 122.37 C 199.72 122.42 199.44 112.92 194.54 113.51 M 201.24 120.04 C 201.50 122.83 205.62 123.15 206.93 120.98 C 207.38 118.26 207.63 115.26 206.27 112.76 C 205.70 115.48 205.89 118.28 205.42 121.02 C 204.82 121.02 203.62 121.02 203.02 121.02 C 202.49 118.35 202.65 115.60 202.40 112.90 C 200.31 114.65 201.13 117.68 201.24 120.04 M 210.60 113.48 C 210.99 116.54 209.33 120.44 211.83 122.82 C 211.93 121.74 212.12 119.57 212.22 118.48 C 213.94 119.75 215.14 121.55 216.64 123.04 C 216.27 121.67 215.79 120.34 215.46 118.97 C 216.01 117.39 217.25 115.67 215.80 114.14 C 214.12 113.61 212.34 113.63 210.60 113.48 M 220.91 122.86 C 221.00 120.86 221.06 118.86 221.07 116.86 C 222.36 119.00 223.55 121.23 225.30 123.04 C 225.63 119.66 225.63 116.26 225.37 112.89 C 223.27 114.24 224.20 116.96 223.89 119.02 C 222.77 116.98 221.69 114.92 220.42 112.96 C 219.43 116.02 218.51 120.29 220.91 122.86 M 229.01 113.52 C 228.97 116.47 228.97 119.42 229.01 122.37 C 231.19 122.14 233.68 122.79 235.58 121.38 C 233.45 120.79 229.65 122.07 230.15 118.57 C 231.67 118.36 233.33 118.42 234.69 117.57 C 233.66 117.41 231.62 117.11 230.60 116.95 C 229.09 113.91 233.95 115.09 235.51 114.41 C 233.52 113.31 231.18 113.68 229.01 113.52 M 248.53 115.63 C 248.99 116.32 249.46 117.00 249.94 117.68 L 250.96 115.81 C 250.98 116.66 251.02 118.36 251.05 119.21 C 249.97 118.70 248.93 118.18 247.86 117.68 C 247.55 119.45 247.19 121.21 247.02 123.00 C 247.79 122.02 248.53 121.01 249.24 119.99 C 251.08 120.24 252.40 121.50 253.78 122.64 C 252.94 119.39 251.89 116.21 250.63 113.10 C 249.92 113.94 249.22 114.78 248.53 115.63 M 258.59 113.59 C 255.68 114.60 255.25 118.74 256.89 121.03 C 257.96 122.97 260.43 122.04 262.18 122.17 C 262.39 120.79 262.59 119.41 262.78 118.03 C 261.49 118.00 260.21 117.97 258.93 117.95 C 259.88 118.79 261.31 119.40 261.13 120.93 C 260.35 120.97 258.80 121.04 258.02 121.07 C 257.78 119.10 257.24 117.02 258.15 115.13 C 259.48 114.49 260.61 114.82 261.56 116.13 C 261.93 115.92 262.68 115.51 263.05 115.30 C 261.71 114.46 260.34 113.05 258.59 113.59 M 268.37 113.12 C 267.05 116.25 265.88 119.45 265.26 122.80 C 265.86 122.16 267.08 120.87 267.69 120.23 C 268.18 120.22 269.15 120.21 269.64 120.20 C 270.39 121.13 271.16 122.06 271.95 122.96 C 271.73 121.22 271.41 119.49 271.15 117.75 C 270.09 118.34 269.02 118.90 267.93 119.39 C 267.96 118.50 268.03 116.70 268.06 115.80 L 269.09 117.71 C 269.55 117.02 270.00 116.33 270.45 115.63 C 269.76 114.79 269.07 113.96 268.37 113.12 M 274.42 114.39 C 275.07 114.54 276.36 114.84 277.00 114.99 C 276.99 116.86 276.99 118.72 276.99 120.58 C 276.35 120.97 275.06 121.74 274.41 122.13 C 276.69 122.26 278.99 122.21 281.25 121.89 C 280.56 121.61 279.16 121.06 278.47 120.79 C 278.22 117.99 278.04 115.08 280.89 113.62 C 278.73 113.72 276.39 113.25 274.42 114.39 M 283.97 113.76 C 284.14 116.89 283.44 120.18 284.63 123.17 C 285.48 120.80 285.20 118.24 285.80 115.82 C 285.77 115.21 285.71 113.99 285.68 113.38 C 285.25 113.48 284.40 113.66 283.97 113.76 M 302.47 115.57 C 302.38 118.68 307.34 118.01 307.49 121.24 C 305.46 121.22 303.71 120.32 302.05 119.27 C 302.29 122.57 305.66 122.44 308.19 122.20 C 308.17 121.10 309.09 119.80 308.30 118.81 C 306.78 117.36 304.17 117.15 303.52 114.87 C 305.22 114.58 306.68 115.04 307.91 116.25 C 308.13 115.99 308.58 115.48 308.81 115.22 C 307.44 113.07 303.07 112.69 302.47 115.57 M 311.52 114.30 C 311.58 117.08 311.58 119.86 311.57 122.64 C 311.94 122.49 312.68 122.19 313.05 122.04 C 313.03 121.14 313.00 119.34 312.99 118.44 C 313.69 118.41 315.10 118.35 315.81 118.32 C 315.99 119.97 315.82 121.91 317.32 123.02 C 317.63 119.65 317.63 116.25 317.33 112.87 C 316.02 113.95 315.94 115.64 315.76 117.21 C 315.09 117.20 313.77 117.20 313.10 117.20 C 313.03 115.85 312.94 114.50 312.86 113.15 C 312.52 113.44 311.85 114.01 311.52 114.30 M 321.00 113.59 C 320.98 116.48 320.98 119.37 320.96 122.26 C 323.17 122.17 325.60 122.72 327.57 121.44 C 325.85 121.23 324.14 121.03 322.43 120.84 C 321.28 117.73 324.94 118.65 326.67 117.56 C 325.63 117.41 323.54 117.11 322.50 116.95 C 321.14 113.96 325.31 115.04 326.93 114.71 C 326.87 114.44 326.75 113.90 326.69 113.63 C 324.79 113.63 322.89 113.62 321.00 113.59 M 330.13 122.26 C 332.33 122.13 334.80 122.75 336.69 121.26 C 335.03 121.13 333.38 121.03 331.72 120.98 C 331.72 118.28 331.72 115.57 331.44 112.88 C 328.99 115.28 330.61 119.21 330.13 122.26 M 339.68 112.85 C 339.38 116.00 339.45 119.16 339.45 122.32 C 341.52 122.09 344.03 122.88 345.67 121.20 C 344.10 121.10 342.53 121.04 340.96 121.02 C 340.67 118.31 341.85 115.00 339.68 112.85 M 155.21 113.18 C 155.08 116.19 155.11 119.20 155.08 122.21 L 156.63 122.26 C 156.60 120.98 156.57 119.70 156.54 118.42 C 157.61 118.37 158.67 118.32 159.74 118.27 C 159.78 119.58 159.82 120.89 159.86 122.20 L 161.10 122.26 C 160.79 119.21 162.04 115.64 160.09 112.99 C 160.01 114.06 159.87 116.21 159.79 117.28 C 158.76 117.15 157.73 117.01 156.70 116.87 C 156.85 115.31 156.36 114.07 155.21 113.18 M 288.84 118.56 C 288.42 118.47 287.60 118.30 287.18 118.21 C 286.67 120.01 287.99 121.92 289.56 122.74 C 290.42 119.62 289.94 116.32 289.91 113.13 C 287.56 114.08 288.74 116.74 288.84 118.56 M 239.11 118.29 C 239.56 119.78 242.46 119.27 243.64 118.68 C 243.09 117.28 240.30 117.70 239.11 118.29 Z" />
<path fill="#ffffff" opacity="1.00" d=" M 55.10 6.23 C 59.64 3.07 65.87 2.34 70.72 5.29 C 86.01 14.33 101.27 23.42 116.54 32.51 C 120.47 34.65 122.75 38.64 124.11 42.75 C 122.55 41.65 121.10 39.99 119.03 40.04 C 116.01 40.45 113.53 42.39 110.99 43.90 C 97.18 52.49 83.32 61.00 69.51 69.58 C 65.16 72.12 61.90 76.74 62.12 81.93 C 62.10 99.64 62.08 117.35 62.14 135.05 C 62.01 138.13 63.63 140.80 65.84 142.80 C 62.62 142.55 59.24 142.27 56.43 140.49 C 41.13 131.43 25.86 122.34 10.58 113.24 C 6.01 110.57 3.25 105.34 3.29 100.08 C 3.25 83.06 3.32 66.04 3.26 49.01 C 2.71 43.04 4.68 36.44 9.99 33.11 C 24.98 24.08 40.10 15.25 55.10 6.23 Z" />
<path fill="#ffffff" opacity="1.00" d=" M 158.00 52.13 C 163.05 52.34 168.56 51.21 173.18 53.81 C 176.80 55.75 177.12 61.40 173.95 63.91 C 169.52 67.66 163.31 66.22 158.00 66.49 C 158.00 61.70 158.00 56.92 158.00 52.13 Z" />
<path fill="#ffffff" opacity="1.00" d=" M 214.07 78.56 C 215.79 73.29 217.28 67.93 219.39 62.80 C 220.84 68.10 222.83 73.24 224.15 78.57 C 220.79 78.52 217.43 78.51 214.07 78.56 Z" />
<path fill="#ffffff" opacity="1.00" d=" M 158.00 77.00 C 163.35 77.39 169.24 75.89 174.13 78.70 C 178.76 81.31 179.01 88.70 174.62 91.67 C 169.81 95.17 163.52 93.50 158.00 93.91 C 158.01 88.27 158.00 82.64 158.00 77.00 Z" />
<path fill="#ffffff" opacity="1.00" d=" M 79.23 82.08 C 80.44 81.41 81.66 80.74 82.88 80.10 C 82.90 81.60 82.91 83.11 82.93 84.61 C 84.49 84.35 86.06 84.12 87.63 83.91 C 87.29 85.71 87.14 87.61 86.34 89.28 C 84.08 89.88 81.33 89.67 79.67 91.63 C 78.12 93.01 78.45 95.17 78.70 96.99 C 81.62 97.51 85.30 96.89 87.47 99.34 C 90.46 104.82 87.14 111.35 83.00 115.23 C 82.99 116.81 82.98 118.38 82.96 119.96 C 81.73 120.58 80.50 121.20 79.26 121.82 C 79.27 120.37 79.29 118.92 79.32 117.48 C 77.42 117.76 75.51 117.94 73.59 118.08 C 73.97 116.18 74.38 114.28 74.91 112.41 C 79.40 113.48 85.03 110.06 83.93 105.00 C 82.36 102.92 79.30 103.74 77.08 102.98 C 73.95 102.38 73.52 98.58 73.96 95.98 C 74.24 92.35 76.84 89.64 78.86 86.85 C 79.40 85.33 79.10 83.66 79.23 82.08 Z" />
<path fill="#ffffff" opacity="1.00" d=" M 184.40 115.27 C 185.34 113.97 188.25 115.22 186.97 116.76 C 186.01 118.03 183.21 116.82 184.40 115.27 Z" />
<path fill="#ffffff" opacity="1.00" d=" M 193.77 114.99 C 197.46 113.50 197.36 118.96 196.12 121.00 C 192.45 122.22 192.78 117.12 193.77 114.99 Z" />
<path fill="#ffffff" opacity="1.00" d=" M 211.97 114.74 C 212.78 114.84 214.40 115.02 215.21 115.11 C 215.37 117.10 213.86 117.81 212.22 118.26 C 212.16 117.38 212.03 115.62 211.97 114.74 Z" />
<path fill="#ffffff" opacity="1.00" d=" M 184.40 118.02 C 185.98 118.52 188.90 118.47 187.34 120.83 C 186.56 120.90 185.01 121.02 184.24 121.08 C 184.28 120.32 184.36 118.79 184.40 118.02 Z" />
</g>
<g id="#3e474aff">
<path fill="#3e474a" opacity="1.00" d=" M 54.14 3.11 C 60.93 -1.48 69.94 0.07 76.20 4.82 C 90.18 13.17 104.21 21.46 118.19 29.81 C 123.87 33.04 127.44 39.45 127.23 45.98 C 127.25 63.96 127.25 81.95 127.24 99.93 C 127.46 106.50 123.87 112.92 118.18 116.18 C 103.57 124.91 88.90 133.53 74.30 142.29 C 68.63 146.26 60.75 146.86 54.76 143.20 C 39.49 134.12 24.21 125.06 8.95 115.95 C 3.92 113.11 1.18 107.68 0.00 102.21 L 0.00 44.45 C 0.89 38.67 3.74 32.98 8.98 30.00 C 24.01 21.01 39.12 12.13 54.14 3.11 M 55.10 6.23 C 40.10 15.25 24.98 24.08 9.99 33.11 C 4.68 36.44 2.71 43.04 3.26 49.01 C 3.32 66.04 3.25 83.06 3.29 100.08 C 3.25 105.34 6.01 110.57 10.58 113.24 C 25.86 122.34 41.13 131.43 56.43 140.49 C 59.24 142.27 62.62 142.55 65.84 142.80 C 63.63 140.80 62.01 138.13 62.14 135.05 C 62.08 117.35 62.10 99.64 62.12 81.93 C 61.90 76.74 65.16 72.12 69.51 69.58 C 83.32 61.00 97.18 52.49 110.99 43.90 C 113.53 42.39 116.01 40.45 119.03 40.04 C 121.10 39.99 122.55 41.65 124.11 42.75 C 122.75 38.64 120.47 34.65 116.54 32.51 C 101.27 23.42 86.01 14.33 70.72 5.29 C 65.87 2.34 59.64 3.07 55.10 6.23 M 79.23 82.08 C 79.10 83.66 79.40 85.33 78.86 86.85 C 76.84 89.64 74.24 92.35 73.96 95.98 C 73.52 98.58 73.95 102.38 77.08 102.98 C 79.30 103.74 82.36 102.92 83.93 105.00 C 85.03 110.06 79.40 113.48 74.91 112.41 C 74.38 114.28 73.97 116.18 73.59 118.08 C 75.51 117.94 77.42 117.76 79.32 117.48 C 79.29 118.92 79.27 120.37 79.26 121.82 C 80.50 121.20 81.73 120.58 82.96 119.96 C 82.98 118.38 82.99 116.81 83.00 115.23 C 87.14 111.35 90.46 104.82 87.47 99.34 C 85.30 96.89 81.62 97.51 78.70 96.99 C 78.45 95.17 78.12 93.01 79.67 91.63 C 81.33 89.67 84.08 89.88 86.34 89.28 C 87.14 87.61 87.29 85.71 87.63 83.91 C 86.06 84.12 84.49 84.35 82.93 84.61 C 82.91 83.11 82.90 81.60 82.88 80.10 C 81.66 80.74 80.44 81.41 79.23 82.08 Z" />
<path fill="#3e474a" opacity="1.00" d=" M 268.55 40.77 C 278.75 39.49 290.44 44.68 293.81 54.93 C 294.19 57.31 295.88 60.61 293.53 62.44 C 290.37 62.91 287.13 62.82 283.96 62.55 C 281.81 62.34 282.16 59.56 281.40 58.06 C 279.34 49.53 265.12 48.85 262.17 56.97 C 260.93 61.16 264.94 64.24 268.41 65.46 C 275.32 67.94 282.83 69.53 288.58 74.39 C 293.96 78.66 296.52 86.43 293.95 92.92 C 291.85 98.53 286.55 102.34 280.96 104.00 C 273.03 106.44 263.99 105.56 256.88 101.18 C 251.36 97.73 247.14 91.59 247.50 84.87 C 247.73 84.53 248.19 83.84 248.42 83.50 C 251.55 82.96 254.76 83.13 257.92 83.30 C 260.09 83.34 259.95 86.06 260.66 87.52 C 263.01 95.16 273.56 96.57 279.57 92.55 C 283.48 89.92 282.63 83.46 278.41 81.58 C 270.43 77.47 260.60 76.65 254.06 69.93 C 248.92 65.29 247.82 57.16 251.18 51.18 C 254.61 44.94 261.67 41.51 268.55 40.77 Z" />
<path fill="#3e474a" opacity="1.00" d=" M 145.74 41.75 C 152.15 41.04 158.62 41.52 165.05 41.40 C 172.48 41.39 180.83 43.14 185.54 49.42 C 190.68 56.05 189.11 66.51 182.13 71.25 C 187.17 74.29 190.59 79.99 190.21 85.95 C 190.34 91.73 187.03 97.21 182.25 100.32 C 177.22 103.73 170.99 104.69 165.02 104.55 C 158.61 104.40 152.18 104.87 145.79 104.22 C 145.19 91.48 145.68 78.70 145.52 65.95 C 145.63 57.88 145.28 49.81 145.74 41.75 M 158.00 52.13 C 158.00 56.92 158.00 61.70 158.00 66.49 C 163.31 66.22 169.52 67.66 173.95 63.91 C 177.12 61.40 176.80 55.75 173.18 53.81 C 168.56 51.21 163.05 52.34 158.00 52.13 M 158.00 77.00 C 158.00 82.64 158.01 88.27 158.00 93.91 C 163.52 93.50 169.81 95.17 174.62 91.67 C 179.01 88.70 178.76 81.31 174.13 78.70 C 169.24 75.89 163.35 77.39 158.00 77.00 Z" />
<path fill="#3e474a" opacity="1.00" d=" M 214.15 41.79 C 217.44 41.64 221.58 40.30 224.38 42.36 C 230.13 58.45 235.25 74.79 240.75 90.98 C 242.03 95.35 244.19 99.54 244.36 104.17 C 240.60 104.52 236.71 104.97 232.99 104.18 C 230.49 99.63 229.58 94.29 227.84 89.38 C 222.20 89.26 216.56 89.16 210.92 89.36 C 208.38 93.76 207.91 99.18 205.63 103.77 C 204.70 104.77 203.17 104.41 201.97 104.57 C 199.37 104.47 196.59 104.98 194.13 103.93 C 193.45 102.45 194.19 100.90 194.59 99.47 C 201.16 80.26 207.66 61.03 214.15 41.79 M 214.07 78.56 C 217.43 78.51 220.79 78.52 224.15 78.57 C 222.83 73.24 220.84 68.10 219.39 62.80 C 217.28 67.93 215.79 73.29 214.07 78.56 Z" />
<path fill="#3e474a" opacity="1.00" d=" M 300.80 41.74 C 304.58 41.24 308.43 41.23 312.21 41.75 C 312.70 50.06 312.37 58.39 312.41 66.71 C 319.31 66.83 326.21 66.69 333.10 66.80 C 333.27 59.53 333.11 52.26 333.17 45.00 C 333.20 43.76 333.12 42.15 334.53 41.62 C 338.00 41.08 341.57 41.34 345.04 41.82 C 346.12 46.83 345.79 51.93 345.46 56.99 C 345.58 65.65 345.54 74.32 345.77 82.98 C 345.66 90.05 346.24 97.19 344.84 104.18 C 341.24 104.55 337.52 104.95 333.95 104.14 C 333.79 103.81 333.47 103.13 333.32 102.80 C 332.90 94.31 333.41 85.79 333.08 77.29 C 326.19 77.38 319.31 77.31 312.42 77.34 C 312.35 86.30 312.72 95.27 312.21 104.22 C 308.42 104.68 304.58 104.67 300.79 104.22 C 300.27 90.51 300.71 76.77 300.57 63.05 C 300.67 55.95 300.32 48.83 300.80 41.74 Z" />
<path fill="#3e474a" opacity="1.00" d=" M 144.70 114.28 C 147.45 113.28 150.56 113.30 153.32 114.27 C 152.44 114.47 150.68 114.86 149.80 115.06 C 149.54 117.71 150.65 120.94 148.59 123.09 C 148.23 120.43 148.23 117.74 148.21 115.06 C 147.33 114.86 145.58 114.48 144.70 114.28 Z" />
<path fill="#3e474a" opacity="1.00" d=" M 164.63 113.71 C 166.28 113.67 167.92 113.63 169.58 113.57 C 169.90 113.87 170.54 114.47 170.87 114.77 C 169.24 114.81 167.62 114.83 166.00 114.86 C 166.00 115.42 166.00 116.53 166.00 117.08 C 167.51 117.18 169.01 117.33 170.52 117.52 C 168.69 118.70 165.16 117.63 165.91 120.90 C 167.62 121.03 169.32 121.15 171.02 121.41 C 169.17 122.75 166.77 122.14 164.65 122.30 C 164.61 119.44 164.61 116.57 164.63 113.71 Z" />
<path fill="#3e474a" opacity="1.00" d=" M 183.10 113.37 C 185.56 113.42 190.53 113.77 188.40 117.51 C 188.61 118.67 189.43 119.83 188.89 121.02 C 187.52 122.73 184.98 122.06 183.07 122.49 C 182.85 119.45 182.83 116.40 183.10 113.37 M 184.40 115.27 C 183.21 116.82 186.01 118.03 186.97 116.76 C 188.25 115.22 185.34 113.97 184.40 115.27 M 184.40 118.02 C 184.36 118.79 184.28 120.32 184.24 121.08 C 185.01 121.02 186.56 120.90 187.34 120.83 C 188.90 118.47 185.98 118.52 184.40 118.02 Z" />
<path fill="#3e474a" opacity="1.00" d=" M 194.54 113.51 C 199.44 112.92 199.72 122.42 194.97 122.37 C 190.61 122.37 190.49 114.20 194.54 113.51 M 193.77 114.99 C 192.78 117.12 192.45 122.22 196.12 121.00 C 197.36 118.96 197.46 113.50 193.77 114.99 Z" />
<path fill="#3e474a" opacity="1.00" d=" M 201.24 120.04 C 201.13 117.68 200.31 114.65 202.40 112.90 C 202.65 115.60 202.49 118.35 203.02 121.02 C 203.62 121.02 204.82 121.02 205.42 121.02 C 205.89 118.28 205.70 115.48 206.27 112.76 C 207.63 115.26 207.38 118.26 206.93 120.98 C 205.62 123.15 201.50 122.83 201.24 120.04 Z" />
<path fill="#3e474a" opacity="1.00" d=" M 210.60 113.48 C 212.34 113.63 214.12 113.61 215.80 114.14 C 217.25 115.67 216.01 117.39 215.46 118.97 C 215.79 120.34 216.27 121.67 216.64 123.04 C 215.14 121.55 213.94 119.75 212.22 118.48 C 212.12 119.57 211.93 121.74 211.83 122.82 C 209.33 120.44 210.99 116.54 210.60 113.48 M 211.97 114.74 C 212.03 115.62 212.16 117.38 212.22 118.26 C 213.86 117.81 215.37 117.10 215.21 115.11 C 214.40 115.02 212.78 114.84 211.97 114.74 Z" />
<path fill="#3e474a" opacity="1.00" d=" M 220.91 122.86 C 218.51 120.29 219.43 116.02 220.42 112.96 C 221.69 114.92 222.77 116.98 223.89 119.02 C 224.20 116.96 223.27 114.24 225.37 112.89 C 225.63 116.26 225.63 119.66 225.30 123.04 C 223.55 121.23 222.36 119.00 221.07 116.86 C 221.06 118.86 221.00 120.86 220.91 122.86 Z" />
<path fill="#3e474a" opacity="1.00" d=" M 229.01 113.52 C 231.18 113.68 233.52 113.31 235.51 114.41 C 233.95 115.09 229.09 113.91 230.60 116.95 C 231.62 117.11 233.66 117.41 234.69 117.57 C 233.33 118.42 231.67 118.36 230.15 118.57 C 229.65 122.07 233.45 120.79 235.58 121.38 C 233.68 122.79 231.19 122.14 229.01 122.37 C 228.97 119.42 228.97 116.47 229.01 113.52 Z" />
<path fill="#3e474a" opacity="1.00" d=" M 248.53 115.63 C 249.22 114.78 249.92 113.94 250.63 113.10 C 251.89 116.21 252.94 119.39 253.78 122.64 C 252.40 121.50 251.08 120.24 249.24 119.99 C 248.53 121.01 247.79 122.02 247.02 123.00 C 247.19 121.21 247.55 119.45 247.86 117.68 C 248.93 118.18 249.97 118.70 251.05 119.21 C 251.02 118.36 250.98 116.66 250.96 115.81 L 249.94 117.68 C 249.46 117.00 248.99 116.32 248.53 115.63 Z" />
<path fill="#3e474a" opacity="1.00" d=" M 258.59 113.59 C 260.34 113.05 261.71 114.46 263.05 115.30 C 262.68 115.51 261.93 115.92 261.56 116.13 C 260.61 114.82 259.48 114.49 258.15 115.13 C 257.24 117.02 257.78 119.10 258.02 121.07 C 258.80 121.04 260.35 120.97 261.13 120.93 C 261.31 119.40 259.88 118.79 258.93 117.95 C 260.21 117.97 261.49 118.00 262.78 118.03 C 262.59 119.41 262.39 120.79 262.18 122.17 C 260.43 122.04 257.96 122.97 256.89 121.03 C 255.25 118.74 255.68 114.60 258.59 113.59 Z" />
<path fill="#3e474a" opacity="1.00" d=" M 268.37 113.12 C 269.07 113.96 269.76 114.79 270.45 115.63 C 270.00 116.33 269.55 117.02 269.09 117.71 L 268.06 115.80 C 268.03 116.70 267.96 118.50 267.93 119.39 C 269.02 118.90 270.09 118.34 271.15 117.75 C 271.41 119.49 271.73 121.22 271.95 122.96 C 271.16 122.06 270.39 121.13 269.64 120.20 C 269.15 120.21 268.18 120.22 267.69 120.23 C 267.08 120.87 265.86 122.16 265.26 122.80 C 265.88 119.45 267.05 116.25 268.37 113.12 Z" />
<path fill="#3e474a" opacity="1.00" d=" M 274.42 114.39 C 276.39 113.25 278.73 113.72 280.89 113.62 C 278.04 115.08 278.22 117.99 278.47 120.79 C 279.16 121.06 280.56 121.61 281.25 121.89 C 278.99 122.21 276.69 122.26 274.41 122.13 C 275.06 121.74 276.35 120.97 276.99 120.58 C 276.99 118.72 276.99 116.86 277.00 114.99 C 276.36 114.84 275.07 114.54 274.42 114.39 Z" />
<path fill="#3e474a" opacity="1.00" d=" M 283.97 113.76 C 284.40 113.66 285.25 113.48 285.68 113.38 C 285.71 113.99 285.77 115.21 285.80 115.82 C 285.20 118.24 285.48 120.80 284.63 123.17 C 283.44 120.18 284.14 116.89 283.97 113.76 Z" />
<path fill="#3e474a" opacity="1.00" d=" M 302.47 115.57 C 303.07 112.69 307.44 113.07 308.81 115.22 C 308.58 115.48 308.13 115.99 307.91 116.25 C 306.68 115.04 305.22 114.58 303.52 114.87 C 304.17 117.15 306.78 117.36 308.30 118.81 C 309.09 119.80 308.17 121.10 308.19 122.20 C 305.66 122.44 302.29 122.57 302.05 119.27 C 303.71 120.32 305.46 121.22 307.49 121.24 C 307.34 118.01 302.38 118.68 302.47 115.57 Z" />
<path fill="#3e474a" opacity="1.00" d=" M 311.52 114.30 C 311.85 114.01 312.52 113.44 312.86 113.15 C 312.94 114.50 313.03 115.85 313.10 117.20 C 313.77 117.20 315.09 117.20 315.76 117.21 C 315.94 115.64 316.02 113.95 317.33 112.87 C 317.63 116.25 317.63 119.65 317.32 123.02 C 315.82 121.91 315.99 119.97 315.81 118.32 C 315.10 118.35 313.69 118.41 312.99 118.44 C 313.00 119.34 313.03 121.14 313.05 122.04 C 312.68 122.19 311.94 122.49 311.57 122.64 C 311.58 119.86 311.58 117.08 311.52 114.30 Z" />
<path fill="#3e474a" opacity="1.00" d=" M 321.00 113.59 C 322.89 113.62 324.79 113.63 326.69 113.63 C 326.75 113.90 326.87 114.44 326.93 114.71 C 325.31 115.04 321.14 113.96 322.50 116.95 C 323.54 117.11 325.63 117.41 326.67 117.56 C 324.94 118.65 321.28 117.73 322.43 120.84 C 324.14 121.03 325.85 121.23 327.57 121.44 C 325.60 122.72 323.17 122.17 320.96 122.26 C 320.98 119.37 320.98 116.48 321.00 113.59 Z" />
<path fill="#3e474a" opacity="1.00" d=" M 330.13 122.26 C 330.61 119.21 328.99 115.28 331.44 112.88 C 331.72 115.57 331.72 118.28 331.72 120.98 C 333.38 121.03 335.03 121.13 336.69 121.26 C 334.80 122.75 332.33 122.13 330.13 122.26 Z" />
<path fill="#3e474a" opacity="1.00" d=" M 339.68 112.85 C 341.85 115.00 340.67 118.31 340.96 121.02 C 342.53 121.04 344.10 121.10 345.67 121.20 C 344.03 122.88 341.52 122.09 339.45 122.32 C 339.45 119.16 339.38 116.00 339.68 112.85 Z" />
<path fill="#3e474a" opacity="1.00" d=" M 155.21 113.18 C 156.36 114.07 156.85 115.31 156.70 116.87 C 157.73 117.01 158.76 117.15 159.79 117.28 C 159.87 116.21 160.01 114.06 160.09 112.99 C 162.04 115.64 160.79 119.21 161.10 122.26 L 159.86 122.20 C 159.82 120.89 159.78 119.58 159.74 118.27 C 158.67 118.32 157.61 118.37 156.54 118.42 C 156.57 119.70 156.60 120.98 156.63 122.26 L 155.08 122.21 C 155.11 119.20 155.08 116.19 155.21 113.18 Z" />
<path fill="#3e474a" opacity="1.00" d=" M 288.84 118.56 C 288.74 116.74 287.56 114.08 289.91 113.13 C 289.94 116.32 290.42 119.62 289.56 122.74 C 287.99 121.92 286.67 120.01 287.18 118.21 C 287.60 118.30 288.42 118.47 288.84 118.56 Z" />
<path fill="#3e474a" opacity="1.00" d=" M 239.11 118.29 C 240.30 117.70 243.09 117.28 243.64 118.68 C 242.46 119.27 239.56 119.78 239.11 118.29 Z" />
</g>
</svg>
