<?xml version="1.0" encoding="UTF-8" ?>
<!DOCTYPE svg PUBLIC "-//W3C//DTD SVG 1.1//EN" "http://www.w3.org/Graphics/SVG/1.1/DTD/svg11.dtd">
<svg width="390pt" height="431pt" viewBox="0 0 390 431" version="1.1" xmlns="http://www.w3.org/2000/svg">
<g id="#f3f3f3ff">
</g>
<g id="#659ad2ff">
<path fill="#659ad2" opacity="1.00" d=" M 190.42 9.26 C 192.23 10.42 194.06 8.66 195.98 8.93 C 199.25 9.01 202.46 9.83 205.61 10.62 C 205.90 10.45 206.49 10.10 206.78 9.93 C 207.17 10.44 207.97 11.46 208.36 11.97 C 208.70 11.68 209.38 11.11 209.72 10.82 C 210.09 13.83 214.06 13.47 215.51 15.85 C 215.81 15.60 216.43 15.10 216.74 14.85 C 216.87 17.02 219.16 17.29 220.63 18.30 C 225.14 21.30 230.31 23.31 234.49 26.79 C 234.79 26.57 235.40 26.12 235.71 25.90 C 235.80 27.77 237.63 28.15 238.96 28.92 C 248.41 34.67 258.32 39.62 267.60 45.68 C 267.92 45.48 268.56 45.08 268.88 44.87 C 269.10 47.77 272.93 47.71 274.58 49.68 C 274.90 49.49 275.54 49.10 275.86 48.90 C 276.13 51.86 280.10 51.49 281.50 53.83 C 281.82 53.58 282.46 53.08 282.78 52.83 C 282.92 53.25 283.20 54.10 283.34 54.52 C 289.75 58.21 296.32 61.64 302.43 65.82 C 302.75 65.61 303.38 65.17 303.69 64.95 C 304.38 66.69 306.99 69.65 308.88 67.91 C 308.99 68.32 309.21 69.12 309.33 69.53 C 317.82 74.36 326.39 79.06 334.70 84.22 C 336.76 85.21 338.90 86.13 340.51 87.82 C 340.83 87.57 341.46 87.07 341.78 86.82 C 342.07 89.86 346.08 89.47 347.51 91.85 C 347.83 91.59 348.47 91.06 348.79 90.79 C 348.92 91.23 349.19 92.09 349.32 92.52 C 352.84 94.51 356.55 96.30 359.66 98.90 C 359.94 98.61 360.49 98.04 360.77 97.75 C 360.83 100.64 364.40 100.29 365.86 102.19 C 368.87 105.33 372.51 108.07 374.38 112.12 C 350.70 125.88 327.02 139.63 303.19 153.12 C 297.74 145.30 293.21 136.39 285.40 130.60 C 286.09 128.08 282.80 126.07 280.58 126.73 C 280.95 126.47 281.69 125.96 282.06 125.70 C 278.67 123.95 276.45 120.71 273.32 118.60 C 270.98 116.95 268.69 115.24 266.58 113.32 C 266.25 113.48 265.58 113.80 265.24 113.96 C 264.79 113.00 264.34 112.05 263.89 111.09 C 263.54 111.28 262.85 111.64 262.50 111.82 C 261.31 110.54 260.02 109.37 258.66 108.27 C 258.39 108.39 257.83 108.64 257.56 108.76 C 255.76 106.58 253.06 105.59 250.59 104.40 C 250.19 104.55 249.40 104.85 249.00 105.00 C 249.00 104.49 249.00 103.47 249.00 102.96 C 248.50 103.26 247.49 103.86 246.99 104.15 C 246.99 103.62 247.00 102.54 247.00 102.00 C 246.50 102.28 245.49 102.82 244.99 103.09 C 244.99 102.56 245.00 101.49 245.00 100.95 C 244.56 101.22 243.69 101.75 243.25 102.01 C 242.86 101.56 242.08 100.64 241.69 100.19 C 241.27 100.41 240.42 100.85 240.00 101.07 C 240.00 100.56 239.99 99.54 239.99 99.03 C 239.56 99.25 238.70 99.70 238.26 99.92 C 237.85 99.52 237.02 98.73 236.60 98.33 C 226.89 95.67 217.08 93.25 207.02 92.46 C 191.11 91.27 174.81 92.43 159.66 97.62 C 159.30 97.56 158.59 97.43 158.24 97.36 C 157.87 97.75 157.14 98.52 156.77 98.91 C 156.40 98.74 155.67 98.41 155.30 98.24 C 154.93 98.65 154.18 99.46 153.80 99.87 C 153.42 99.73 152.64 99.44 152.26 99.30 C 151.03 100.14 149.81 100.98 148.60 101.84 C 148.20 101.63 147.40 101.23 147.00 101.03 C 147.00 101.51 147.01 102.47 147.01 102.96 C 146.59 102.82 145.76 102.54 145.34 102.40 C 139.02 105.60 132.56 108.59 126.88 112.89 C 116.59 118.98 108.81 128.13 100.27 136.29 C 100.40 136.60 100.66 137.21 100.79 137.51 C 99.62 138.39 98.37 139.22 97.50 140.43 C 92.88 146.38 89.02 152.90 85.78 159.70 C 83.75 163.94 81.05 167.98 80.43 172.73 C 79.34 174.62 78.66 176.70 78.53 178.87 C 78.25 179.23 77.70 179.94 77.42 180.30 C 77.47 180.65 77.56 181.34 77.61 181.68 C 75.11 187.92 74.06 194.66 73.78 201.35 C 72.73 209.51 72.97 217.79 73.12 226.00 C 75.07 237.41 76.36 249.16 81.22 259.82 C 81.48 260.53 81.56 261.29 81.44 262.07 C 81.83 262.04 82.61 261.99 83.00 261.96 C 82.86 262.35 82.57 263.13 82.43 263.52 C 85.64 268.12 86.49 274.05 90.74 277.99 C 90.35 277.64 89.56 276.95 89.17 276.60 C 70.28 288.00 50.91 298.62 31.91 309.85 C 27.46 312.35 23.13 315.07 18.49 317.24 L 17.22 317.16 C 15.27 312.28 12.58 307.37 12.87 301.96 C 12.91 242.97 12.86 183.98 12.89 124.99 C 12.98 124.03 13.25 123.12 13.71 122.26 C 13.51 122.01 13.09 121.51 12.88 121.26 C 13.39 120.86 14.41 120.07 14.92 119.67 C 14.70 119.35 14.27 118.73 14.05 118.41 C 15.07 117.19 16.00 115.90 16.85 114.57 C 16.58 114.18 16.05 113.39 15.78 113.00 C 16.29 112.97 17.32 112.92 17.84 112.89 C 17.90 112.26 18.02 111.00 18.08 110.38 C 20.52 109.11 21.45 106.20 23.66 104.59 C 26.48 102.39 28.81 99.22 32.55 98.61 C 34.16 97.45 35.78 96.31 37.40 95.16 C 37.94 95.04 39.02 94.80 39.56 94.68 C 41.07 92.51 44.89 92.80 45.22 89.86 C 45.54 90.10 46.18 90.58 46.50 90.82 C 47.96 88.49 51.92 88.84 52.23 85.82 C 52.54 86.07 53.17 86.58 53.49 86.84 C 57.09 83.79 61.51 81.84 65.54 79.49 C 65.76 79.18 66.19 78.57 66.40 78.27 C 73.40 75.88 79.19 70.99 85.90 67.93 C 87.36 66.16 89.36 65.23 91.48 64.47 C 94.32 62.55 97.55 61.31 100.35 59.32 C 101.82 58.28 104.16 58.02 104.32 55.83 C 104.61 56.08 105.19 56.60 105.48 56.86 C 106.94 54.47 110.89 54.83 111.30 51.82 C 111.60 52.08 112.20 52.59 112.50 52.85 C 113.92 50.46 117.95 50.86 118.21 47.81 C 118.53 48.07 119.18 48.58 119.50 48.84 C 122.69 46.44 125.85 43.97 129.65 42.62 C 134.22 39.75 138.96 37.19 143.66 34.53 C 143.80 34.09 144.09 33.20 144.24 32.76 C 144.51 33.05 145.07 33.62 145.35 33.91 C 147.01 32.21 149.17 31.23 151.29 30.22 C 155.08 27.97 158.77 25.54 162.68 23.51 C 162.84 23.07 163.15 22.19 163.30 21.75 C 163.57 22.04 164.09 22.62 164.36 22.91 C 168.05 19.86 172.60 18.07 176.66 15.52 C 176.82 15.12 177.14 14.30 177.30 13.89 C 177.62 14.15 178.25 14.65 178.57 14.90 C 179.44 13.99 180.31 13.09 181.20 12.19 C 182.28 11.88 183.37 11.57 184.45 11.24 C 186.44 10.58 188.42 9.90 190.42 9.26 Z" />
<path fill="#659ad2" opacity="1.00" d=" M 178.60 157.42 C 189.74 153.69 202.36 153.26 213.40 157.48 C 213.76 157.40 214.48 157.25 214.84 157.17 C 215.20 157.56 215.94 158.35 216.30 158.74 C 216.62 158.62 217.27 158.37 217.59 158.25 C 219.23 159.33 220.90 160.37 222.67 161.23 C 230.55 164.90 237.02 170.91 242.83 177.24 C 245.03 179.71 246.09 183.27 249.22 184.82 C 248.15 185.20 247.10 185.63 246.07 186.11 C 211.83 205.57 178.14 225.98 143.78 245.23 C 142.72 242.15 141.08 239.31 139.27 236.62 C 139.38 236.29 139.60 235.62 139.71 235.28 C 139.30 234.90 138.49 234.15 138.08 233.78 C 138.25 233.42 138.57 232.70 138.73 232.35 C 138.40 231.98 137.72 231.26 137.39 230.90 C 137.10 226.57 135.79 222.37 135.81 218.01 C 134.37 205.69 138.96 193.58 145.06 183.10 C 148.62 177.55 153.68 173.19 157.65 167.96 C 157.92 168.23 158.47 168.78 158.74 169.05 C 159.26 168.15 159.78 167.25 160.30 166.36 C 164.12 165.08 166.94 161.97 170.71 160.60 C 173.02 159.74 175.31 158.76 177.35 157.35 C 177.66 157.37 178.29 157.40 178.60 157.42 Z" />
</g>
<g id="#004b8cff">
<path fill="#004b8c" opacity="1.00" d=" M 374.38 112.12 L 375.07 111.70 C 376.03 113.57 376.88 115.49 377.78 117.39 C 378.94 120.80 379.91 124.34 379.97 127.96 C 379.95 185.94 379.94 243.93 379.98 301.91 C 379.97 304.52 379.04 306.99 378.77 309.57 C 378.28 310.50 377.93 311.48 377.73 312.52 C 374.99 319.74 370.18 326.46 363.37 330.30 C 360.96 331.50 358.77 333.09 356.36 334.29 C 354.36 335.32 352.44 336.49 350.57 337.73 C 346.09 340.11 341.81 342.85 337.36 345.28 C 334.72 346.66 332.27 348.37 329.62 349.74 C 327.19 350.90 325.03 352.54 322.63 353.74 C 318.19 356.19 313.95 358.97 309.44 361.29 C 307.80 362.38 306.12 363.40 304.36 364.28 C 301.72 365.66 299.26 367.36 296.63 368.74 C 294.47 369.77 292.53 371.20 290.41 372.29 C 286.42 374.68 282.38 376.97 278.36 379.28 C 275.97 380.51 273.77 382.09 271.36 383.28 C 268.72 384.66 266.26 386.36 263.62 387.75 C 261.86 388.59 260.18 389.61 258.58 390.73 C 254.11 393.14 249.80 395.83 245.36 398.28 C 242.72 399.66 240.27 401.36 237.63 402.74 C 235.45 403.77 233.53 405.24 231.36 406.28 C 224.79 410.13 218.17 413.90 211.62 417.79 C 209.95 418.44 208.26 419.08 206.59 419.74 C 200.49 421.55 193.76 421.61 187.60 420.14 C 187.08 420.06 186.04 419.91 185.52 419.83 C 184.56 419.29 183.54 418.94 182.46 418.77 C 179.80 417.37 177.30 415.69 174.64 414.28 C 172.49 413.22 170.52 411.83 168.41 410.70 C 166.09 409.36 163.80 407.97 161.42 406.74 C 159.19 405.23 156.89 403.82 154.42 402.75 C 152.20 401.21 149.88 399.83 147.42 398.74 C 145.56 397.48 143.63 396.33 141.64 395.28 C 137.60 392.99 133.58 390.67 129.59 388.29 C 127.22 387.05 125.01 385.51 122.65 384.26 C 119.82 382.91 117.34 380.93 114.42 379.74 C 112.56 378.48 110.63 377.34 108.64 376.28 C 104.22 373.79 99.89 371.14 95.43 368.72 C 93.19 367.23 90.89 365.83 88.42 364.75 C 86.21 363.21 83.89 361.84 81.42 360.75 C 75.63 357.03 69.51 353.86 63.65 350.26 C 60.81 348.92 58.34 346.93 55.42 345.75 C 53.56 344.47 51.63 343.33 49.63 342.28 C 45.19 339.83 40.90 337.11 36.41 334.74 C 34.56 333.47 32.62 332.33 30.64 331.28 C 24.83 328.57 20.70 323.38 16.86 318.43 C 17.27 318.13 18.09 317.53 18.49 317.24 C 23.13 315.07 27.46 312.35 31.91 309.85 C 50.91 298.62 70.28 288.00 89.17 276.60 C 89.56 276.95 90.35 277.64 90.74 277.99 C 103.38 299.37 122.88 316.47 145.47 326.71 C 174.16 339.71 208.05 341.20 237.61 330.22 C 238.06 330.12 238.95 329.91 239.39 329.80 C 242.07 328.62 244.84 327.63 247.45 326.30 C 270.50 315.81 290.04 297.99 302.72 276.08 C 285.03 265.44 266.91 255.52 249.20 244.93 C 242.65 256.38 232.25 265.20 220.42 270.86 C 219.96 270.94 219.06 271.10 218.60 271.18 C 212.25 274.49 204.98 274.90 198.03 275.95 C 181.78 276.02 165.09 270.20 153.72 258.29 C 149.86 254.43 145.70 250.47 143.78 245.23 C 178.14 225.98 211.83 205.57 246.07 186.11 C 247.10 185.63 248.15 185.20 249.22 184.82 L 249.48 184.72 C 266.24 175.17 282.90 165.46 299.61 155.83 C 300.96 155.14 302.06 154.10 303.19 153.12 C 327.02 139.63 350.70 125.88 374.38 112.12 M 291.01 194.02 C 290.98 198.68 291.01 203.33 291.00 207.99 C 286.35 207.92 281.71 207.99 277.06 207.93 C 278.07 212.56 277.31 217.35 277.55 222.05 C 282.03 222.03 286.51 222.06 291.00 222.00 C 291.00 226.64 291.00 231.28 291.00 235.92 C 295.68 235.99 300.36 236.02 305.04 236.00 C 305.04 231.33 305.07 226.67 305.00 222.00 C 309.67 222.07 314.33 222.04 319.00 222.04 C 319.00 217.34 319.00 212.65 319.00 207.96 C 314.33 207.96 309.67 207.93 305.00 208.00 C 305.07 203.33 305.04 198.66 305.04 194.00 C 300.36 194.17 295.69 193.94 291.01 194.02 M 342.01 194.03 C 341.99 198.68 342.00 203.34 342.00 207.99 C 337.35 207.92 332.71 207.99 328.06 207.93 C 329.07 212.56 328.31 217.35 328.55 222.05 C 333.03 222.03 337.51 222.06 342.00 222.01 C 342.00 226.65 342.00 231.29 342.00 235.93 C 346.82 235.94 351.64 235.89 356.46 236.01 C 356.44 231.37 356.52 226.74 356.37 222.11 C 360.91 221.95 365.46 222.08 370.00 222.04 C 370.00 217.34 370.00 212.65 370.00 207.96 C 365.47 207.94 360.94 207.99 356.42 207.95 C 356.47 203.30 356.52 198.65 356.38 194.00 C 351.59 194.01 346.80 193.97 342.01 194.03 Z" />
</g>
</svg>
