<?xml version="1.0" encoding="UTF-8" ?>
<!DOCTYPE svg PUBLIC "-//W3C//DTD SVG 1.1//EN" "http://www.w3.org/Graphics/SVG/1.1/DTD/svg11.dtd">
<svg width="1102pt" height="362pt" viewBox="0 0 1102 362" version="1.1" xmlns="http://www.w3.org/2000/svg">
<g id="#ffffffff">
<path fill="#ffffff" opacity="1.00" d=" M 0.00 0.00 L 1102.00 0.00 L 1102.00 362.00 L 0.00 362.00 L 0.00 0.00 M 753.88 20.98 C 753.87 127.66 753.87 234.34 753.88 341.02 C 860.73 341.03 967.58 341.03 1074.44 341.02 C 1074.45 234.34 1074.46 127.66 1074.43 20.98 C 967.58 20.98 860.73 20.96 753.88 20.98 M 24.17 141.55 C 24.36 185.97 24.25 230.41 24.22 274.83 C 26.80 274.67 29.41 274.63 31.96 275.13 C 36.91 274.26 41.98 274.96 46.98 274.74 C 50.98 274.99 55.10 274.16 59.00 275.25 C 63.87 274.43 69.15 274.36 74.00 275.28 C 74.49 275.15 75.46 274.88 75.95 274.75 C 88.96 274.70 101.97 274.78 114.98 274.73 C 117.11 275.17 117.86 272.91 118.63 271.43 L 119.26 271.53 C 123.08 265.71 127.73 260.49 131.72 254.79 C 132.99 253.33 134.21 251.82 135.33 250.25 C 136.28 248.87 137.26 247.52 138.23 246.16 C 138.50 245.93 139.04 245.47 139.31 245.23 C 142.33 241.00 145.72 237.03 148.73 232.78 C 149.85 231.39 151.02 230.02 151.92 228.47 C 152.63 228.46 153.35 228.45 154.07 228.45 C 154.88 231.14 157.11 232.95 158.71 235.15 C 161.33 238.24 163.64 241.58 166.25 244.69 C 166.50 244.97 166.99 245.53 167.24 245.81 C 169.94 249.71 172.82 253.47 175.74 257.20 C 179.97 262.64 184.36 267.95 188.37 273.56 C 189.13 275.17 191.18 274.51 192.55 274.76 C 190.30 270.99 187.56 267.53 184.74 264.17 C 181.33 259.32 177.38 254.86 173.76 250.15 C 169.75 244.57 165.43 239.24 161.28 233.78 C 159.73 232.19 158.38 230.42 157.26 228.51 L 156.79 228.40 C 156.25 227.50 155.67 226.63 155.05 225.79 C 155.35 224.55 155.94 223.44 156.78 222.49 C 160.81 217.30 165.09 212.29 168.72 206.82 C 169.97 205.32 171.13 203.75 172.25 202.16 C 173.12 201.06 173.97 199.94 174.74 198.78 C 177.28 195.86 179.45 192.65 181.86 189.62 L 182.31 189.47 C 184.24 186.10 186.74 183.09 189.30 180.18 C 189.37 179.80 189.51 179.04 189.58 178.66 C 189.04 178.70 187.96 178.77 187.42 178.80 C 185.93 179.58 184.98 180.97 184.14 182.38 L 183.71 182.53 C 180.61 186.79 177.50 191.06 174.24 195.20 C 168.29 202.70 162.89 210.60 156.79 217.99 C 155.25 219.66 154.59 222.61 151.90 222.65 C 151.35 221.40 150.60 220.26 149.76 219.19 C 143.76 211.18 137.94 203.04 131.71 195.20 C 130.89 193.97 130.07 192.75 129.27 191.51 L 128.76 191.45 C 127.38 188.82 125.47 186.53 123.72 184.15 C 122.67 182.54 121.58 180.97 120.48 179.40 C 119.03 179.35 117.58 179.31 116.13 179.28 C 117.05 180.56 118.05 181.80 119.20 182.89 C 120.68 185.01 122.38 186.98 123.69 189.22 C 127.10 193.11 129.74 197.61 133.21 201.45 C 135.43 204.66 137.70 207.85 140.24 210.82 C 141.04 211.97 141.86 213.11 142.70 214.24 C 143.97 215.70 145.12 217.26 146.23 218.84 C 147.43 220.39 148.58 221.98 149.64 223.63 L 150.70 223.63 C 150.48 224.71 150.75 226.00 149.96 226.89 C 141.54 238.15 132.64 249.01 124.28 260.31 C 121.75 263.46 119.32 266.69 116.73 269.80 C 116.19 270.67 115.66 271.54 115.12 272.42 C 85.90 272.01 56.67 272.28 27.45 272.28 C 27.14 250.40 27.21 228.51 27.41 206.63 C 54.12 206.74 80.83 206.66 107.53 206.67 C 107.54 206.08 107.56 204.91 107.57 204.32 C 106.03 204.28 104.50 204.15 103.01 203.77 C 101.65 203.70 100.32 203.85 99.01 204.21 C 96.32 204.38 93.66 203.94 90.98 203.74 C 85.76 205.37 80.22 202.45 75.00 204.28 C 69.82 202.62 64.40 204.90 59.16 203.91 C 50.77 203.06 42.32 204.84 34.04 203.78 C 32.21 203.66 30.34 203.65 28.67 204.52 C 27.37 203.76 27.12 202.41 27.26 201.02 C 27.33 182.18 27.20 163.34 27.33 144.51 C 55.74 144.56 84.16 144.50 112.57 144.54 C 112.58 143.54 112.59 142.53 112.60 141.53 C 83.12 141.62 53.64 141.59 24.17 141.55 M 217.94 186.90 C 213.07 191.80 208.32 197.56 207.01 204.53 C 206.42 204.53 205.24 204.54 204.65 204.54 C 204.83 196.12 204.61 187.69 204.77 179.27 C 204.14 179.27 202.87 179.28 202.24 179.29 C 202.34 218.48 202.31 257.68 202.25 296.88 C 202.88 296.87 204.13 296.87 204.76 296.86 C 204.68 281.87 204.70 266.87 204.76 251.87 C 205.03 251.07 205.58 249.48 205.86 248.68 C 207.25 251.56 208.14 254.65 209.61 257.49 C 212.44 262.46 216.20 266.82 220.74 270.30 C 223.91 272.40 227.36 273.96 230.94 275.24 C 232.26 275.51 233.60 275.81 234.91 276.21 C 240.93 277.04 247.08 276.92 253.12 276.25 C 255.81 275.39 258.52 274.54 261.10 273.38 C 262.02 272.85 262.94 272.34 263.87 271.83 C 269.66 268.20 274.97 262.97 277.74 256.61 L 278.35 256.51 C 278.83 255.31 279.31 254.11 279.77 252.90 C 282.13 248.61 282.81 243.69 284.27 239.08 C 284.53 236.71 284.58 234.31 285.16 231.99 C 285.85 225.95 284.68 219.97 284.22 213.96 C 282.54 208.62 281.61 202.96 278.69 198.07 C 273.68 188.74 265.32 180.79 254.81 178.27 C 248.43 176.66 241.68 177.31 235.18 177.77 C 229.04 179.89 222.49 182.01 217.94 186.90 M 378.19 178.33 C 374.34 179.65 370.18 180.66 367.07 183.45 C 366.72 183.44 366.03 183.42 365.68 183.42 L 365.53 184.22 C 359.21 188.68 354.40 195.12 351.24 202.14 C 350.71 203.38 350.17 204.61 349.61 205.85 C 345.18 218.30 345.37 232.09 348.06 244.90 C 348.36 246.26 348.67 247.63 349.08 248.97 C 349.35 250.00 349.69 251.01 350.12 251.99 C 351.91 256.80 354.48 261.26 357.72 265.24 C 361.69 269.55 366.57 272.86 372.11 274.81 C 373.40 275.22 374.72 275.55 376.04 275.90 C 383.24 277.27 390.72 276.88 397.99 276.20 C 403.10 274.91 407.94 272.85 412.57 270.34 L 412.51 269.78 C 414.67 268.60 416.40 266.83 418.19 265.18 C 419.47 263.79 420.72 262.38 421.86 260.87 C 423.64 258.14 424.88 255.12 426.28 252.19 C 427.23 248.92 428.26 245.67 428.77 242.30 C 427.65 242.33 426.54 242.36 425.43 242.40 C 425.42 242.85 425.39 243.76 425.38 244.22 C 424.34 247.84 423.70 251.62 421.86 254.95 C 421.34 256.03 420.82 257.10 420.31 258.18 C 415.99 264.77 409.52 269.51 402.18 272.22 C 393.99 274.49 385.35 274.13 376.99 273.28 C 375.75 272.69 374.39 272.44 373.08 272.14 C 370.32 270.91 367.75 269.32 365.13 267.83 C 363.63 266.67 362.20 265.41 360.84 264.10 C 359.64 262.68 358.44 261.27 357.28 259.82 C 355.83 257.74 354.79 255.42 353.68 253.16 C 352.59 250.46 351.86 247.64 350.94 244.89 C 350.89 240.90 351.13 236.86 349.96 233.00 C 350.00 231.43 348.98 228.65 350.98 227.97 C 360.64 227.43 370.35 227.13 380.01 227.82 C 396.89 228.12 413.79 227.52 430.65 228.09 C 429.72 225.78 430.20 223.27 430.14 220.86 C 430.28 217.18 428.98 213.65 428.84 209.99 C 428.97 208.38 427.91 207.12 426.83 206.09 C 426.70 205.53 426.46 204.40 426.34 203.84 C 425.73 202.99 425.31 202.05 425.08 201.03 C 423.86 198.33 422.41 195.74 420.83 193.23 C 418.05 189.66 414.85 186.41 411.30 183.61 C 406.95 180.77 402.03 179.13 397.07 177.75 C 390.82 177.37 384.28 176.60 378.19 178.33 M 466.95 177.76 C 462.49 179.11 457.96 180.45 454.11 183.20 C 449.96 186.45 446.31 190.80 445.34 196.13 C 444.01 200.49 444.81 205.10 445.83 209.44 C 447.05 214.12 450.95 217.65 455.13 219.78 C 456.77 220.52 458.44 221.18 460.13 221.83 C 465.92 224.14 472.13 225.07 478.09 226.84 C 479.41 227.19 480.76 227.51 482.10 227.83 C 483.68 228.31 485.32 228.58 486.97 228.84 C 489.17 229.92 491.60 230.39 493.94 231.12 C 494.94 231.44 495.93 231.80 496.91 232.21 C 498.92 233.07 500.89 234.06 502.77 235.21 C 505.65 237.39 508.65 239.95 509.69 243.55 L 510.38 243.50 C 511.49 248.47 512.48 254.32 509.76 258.92 C 507.70 263.88 503.64 267.61 498.98 270.13 C 498.50 270.39 497.53 270.90 497.05 271.16 C 496.04 271.48 495.05 271.81 494.06 272.17 C 485.31 274.82 475.95 273.87 466.96 273.29 C 458.21 271.05 449.70 265.58 446.24 256.91 C 445.70 255.30 445.22 253.67 444.67 252.07 C 444.42 249.28 444.18 246.49 444.34 243.69 C 443.54 242.57 440.60 241.57 441.23 244.02 C 441.06 248.10 441.65 252.15 442.73 256.08 C 443.20 257.33 443.68 258.59 444.22 259.83 C 445.88 263.86 448.73 267.21 452.29 269.69 C 454.44 271.79 457.32 272.85 460.07 273.92 C 461.34 274.36 462.63 274.78 463.91 275.24 C 465.25 275.51 466.58 275.83 467.91 276.20 C 475.24 276.91 482.69 277.11 490.00 276.14 C 491.33 275.76 492.68 275.50 494.05 275.25 C 495.72 274.58 497.41 273.96 499.12 273.37 C 500.87 272.40 502.60 271.39 504.34 270.37 C 508.92 266.68 512.87 261.85 513.82 255.87 C 515.04 251.32 514.36 246.46 512.86 242.06 C 510.57 236.85 505.82 233.49 501.08 230.72 C 499.73 230.16 498.40 229.62 497.06 229.08 C 496.05 228.70 495.03 228.39 493.99 228.14 C 485.36 225.59 476.60 223.47 467.88 221.22 C 461.98 219.28 455.33 217.75 451.20 212.71 C 447.80 208.63 447.31 203.10 447.75 198.01 C 449.18 191.66 453.47 186.18 459.31 183.29 C 460.50 182.78 461.71 182.28 462.90 181.74 C 463.44 181.61 464.51 181.35 465.05 181.23 C 469.90 180.01 475.04 179.70 480.05 179.81 C 485.78 180.78 492.12 180.88 496.98 184.49 C 497.34 184.48 498.05 184.47 498.41 184.47 L 498.46 185.27 C 502.55 187.94 505.43 192.24 507.18 196.76 C 507.47 198.18 507.82 199.59 508.24 201.00 C 508.35 202.90 508.42 204.80 508.46 206.71 C 509.55 206.68 510.64 206.66 511.75 206.64 C 511.57 204.41 511.40 202.19 511.20 199.96 C 510.39 196.89 509.49 193.80 507.87 191.05 C 505.01 185.49 499.62 181.52 493.75 179.61 C 485.19 176.44 475.88 177.18 466.95 177.76 M 541.10 183.22 C 539.24 184.63 537.57 186.27 536.22 188.18 C 534.87 189.95 533.94 191.97 533.04 193.99 C 532.39 195.98 532.55 198.15 531.71 200.09 C 532.01 203.92 532.51 207.75 533.57 211.46 L 534.22 211.60 C 535.31 215.78 539.37 218.31 542.96 220.23 C 544.34 220.74 545.73 221.28 547.12 221.81 C 552.94 224.01 559.08 225.21 565.09 226.80 C 566.39 227.24 567.72 227.50 569.08 227.80 C 570.68 228.38 572.37 228.58 574.06 228.83 C 576.26 229.86 578.69 230.23 580.96 231.12 C 581.95 231.45 582.92 231.82 583.90 232.22 C 587.82 233.54 591.07 236.17 594.18 238.82 C 598.25 243.25 598.87 249.46 598.28 255.19 C 597.58 257.65 596.57 260.00 595.35 262.24 C 592.49 266.22 588.27 268.75 584.12 271.16 C 583.08 271.45 582.04 271.78 581.03 272.12 C 578.13 273.25 575.00 273.35 572.05 274.24 C 568.34 274.45 564.63 274.47 560.92 274.28 C 558.75 273.30 556.29 273.59 554.00 273.27 C 551.98 272.53 549.92 271.91 547.87 271.25 C 541.24 268.27 535.43 263.05 533.17 255.97 C 532.62 254.36 532.15 252.71 531.63 251.10 C 530.75 248.18 533.23 241.96 528.26 242.42 C 528.09 247.05 528.47 251.67 529.76 256.14 C 530.22 257.06 530.67 257.98 531.13 258.91 C 531.41 260.51 532.32 261.82 533.53 262.89 C 533.50 263.26 533.45 264.00 533.42 264.37 L 534.51 264.42 L 534.48 265.23 C 537.33 268.16 540.36 271.06 544.13 272.78 C 547.60 274.32 551.25 275.34 554.95 276.20 C 564.62 277.00 574.71 277.62 584.01 274.32 C 584.98 273.82 585.94 273.33 586.91 272.84 C 588.65 271.98 590.54 271.29 591.88 269.82 C 595.84 267.24 598.22 263.14 600.28 259.01 C 600.44 257.53 600.59 256.06 600.70 254.59 L 601.42 254.45 C 601.44 251.94 601.46 249.44 601.27 246.95 C 600.60 245.68 600.37 244.26 600.28 242.85 C 598.12 237.52 593.84 233.39 588.50 231.27 L 588.39 230.74 C 586.91 230.25 585.46 229.70 584.05 229.08 C 583.02 228.71 581.98 228.39 580.93 228.13 C 572.10 225.28 562.90 223.70 554.10 220.78 C 551.22 220.36 548.60 219.09 545.85 218.22 C 543.62 217.08 541.51 215.74 539.45 214.33 L 539.42 213.85 C 535.18 210.32 534.77 204.17 534.80 199.04 C 535.20 197.63 535.54 196.20 535.82 194.76 C 537.78 189.47 541.98 185.43 547.01 183.04 C 547.99 182.61 548.97 182.18 549.96 181.76 C 553.52 180.50 557.30 180.48 560.98 179.83 C 565.69 179.37 570.34 180.39 575.02 180.77 C 577.77 181.64 580.53 182.46 583.14 183.73 C 583.62 184.01 584.58 184.57 585.06 184.85 C 588.62 187.03 590.85 190.58 593.18 193.92 C 593.43 194.44 593.92 195.47 594.17 195.98 C 595.27 199.42 595.73 203.01 595.67 206.61 C 596.65 206.66 597.64 206.70 598.64 206.75 C 598.73 200.70 597.32 194.69 594.40 189.38 L 593.74 189.49 C 592.90 186.57 590.00 185.05 587.86 183.17 C 584.09 180.28 579.40 179.26 574.99 177.80 C 563.55 176.87 550.93 176.18 541.10 183.22 M 329.87 178.78 C 326.26 180.01 322.76 181.54 319.53 183.58 C 314.02 187.74 310.23 193.55 307.70 199.90 C 307.39 200.75 307.04 201.58 306.63 202.39 C 306.43 199.26 305.58 196.12 306.13 192.99 C 305.68 190.67 305.68 188.31 305.86 185.96 C 306.27 183.81 306.26 181.61 306.28 179.43 C 305.40 179.40 303.63 179.33 302.75 179.29 C 302.78 208.20 302.79 237.11 302.77 266.02 C 302.80 268.97 302.57 271.95 303.10 274.88 C 303.78 274.84 305.14 274.78 305.82 274.75 C 305.78 272.83 305.78 270.91 305.84 268.99 C 306.40 266.37 306.42 263.64 305.79 261.02 C 306.37 255.99 305.98 251.00 305.82 245.96 C 306.94 241.35 305.30 236.66 305.78 231.99 C 306.53 224.51 306.01 216.97 306.66 209.48 L 307.40 209.44 C 307.50 208.26 307.62 207.08 307.76 205.90 C 309.12 201.99 310.99 198.33 312.75 194.60 L 313.26 194.51 C 315.79 190.98 318.76 187.53 322.52 185.27 L 322.55 184.43 C 323.00 184.47 323.92 184.55 324.37 184.59 L 324.45 183.70 C 329.12 181.77 333.89 180.25 338.94 179.78 C 340.73 179.71 342.51 179.70 344.30 179.71 C 344.31 179.10 344.34 177.90 344.35 177.29 C 339.48 177.22 334.56 177.30 329.87 178.78 Z" />
<path fill="#ffffff" opacity="1.00" d=" M 231.87 181.73 C 238.76 179.73 246.06 179.83 253.13 180.72 C 254.72 181.22 256.33 181.67 257.93 182.18 C 259.78 183.00 261.50 184.10 263.43 184.76 L 263.48 185.23 C 265.23 186.15 266.84 187.32 268.19 188.78 C 268.81 189.51 269.48 190.20 270.19 190.85 C 271.44 192.26 272.61 193.72 273.78 195.20 C 275.55 197.94 276.83 200.95 278.22 203.90 C 278.90 205.91 279.45 207.97 280.17 209.97 C 282.19 217.81 282.04 225.97 281.71 233.99 C 281.62 238.48 280.14 242.76 279.19 247.11 C 277.89 250.10 276.82 253.20 275.26 256.07 C 271.07 263.12 264.82 269.17 257.13 272.21 C 256.05 272.41 255.03 272.77 254.08 273.30 C 252.37 273.47 250.65 273.60 249.05 274.25 C 243.83 274.94 238.70 273.79 233.53 273.39 L 233.48 272.59 C 232.85 272.53 231.59 272.41 230.96 272.35 C 229.96 271.93 228.95 271.53 227.94 271.14 C 227.45 270.89 226.49 270.38 226.00 270.12 C 223.41 268.66 221.07 266.81 218.55 265.23 L 218.52 264.80 C 218.19 264.47 217.52 263.83 217.19 263.50 L 216.48 263.51 L 216.47 262.78 C 214.21 260.52 212.44 257.86 210.83 255.11 C 210.59 254.61 210.11 253.60 209.87 253.09 C 209.59 252.57 209.02 251.54 208.74 251.02 C 208.65 250.50 208.46 249.45 208.37 248.93 C 207.61 247.76 207.41 246.37 207.08 245.05 C 205.28 239.87 205.77 234.33 204.79 229.02 C 204.70 227.35 204.66 225.65 205.17 224.04 C 205.34 221.31 205.50 218.57 205.78 215.85 C 206.52 213.22 207.17 210.56 207.76 207.89 C 208.51 206.15 209.21 204.37 209.72 202.54 L 210.57 202.42 C 210.56 202.05 210.54 201.30 210.54 200.93 C 212.79 197.43 214.93 193.85 217.86 190.85 C 219.95 189.28 221.69 187.29 223.83 185.78 C 224.71 185.36 225.56 184.88 226.37 184.33 C 228.11 183.26 230.08 182.69 231.87 181.73 Z" />
<path fill="#ffffff" opacity="1.00" d=" M 370.43 184.25 C 379.74 179.26 391.08 179.02 401.09 181.82 C 402.01 182.17 402.94 182.52 403.87 182.86 C 405.21 183.59 406.58 184.28 408.01 184.86 C 412.00 187.36 415.14 190.97 418.27 194.45 C 419.06 195.75 419.91 197.04 420.73 198.34 C 422.75 202.01 424.00 206.03 425.17 210.04 C 424.83 214.10 425.78 218.08 426.15 222.08 C 426.38 224.38 423.54 224.37 422.01 224.24 C 401.67 223.61 381.33 224.86 361.00 224.08 C 357.48 223.83 353.71 224.92 350.36 223.63 C 349.32 221.30 350.04 218.58 349.81 216.09 C 350.97 211.35 352.10 206.56 354.22 202.13 C 355.40 199.50 357.12 197.18 358.71 194.79 C 362.01 190.67 365.76 186.82 370.43 184.25 Z" />
</g>
<g id="#f3df1dff">
<path fill="#f3df1d" opacity="1.00" d=" M 753.88 20.98 C 860.73 20.96 967.58 20.98 1074.43 20.98 C 1074.46 127.66 1074.45 234.34 1074.44 341.02 C 967.58 341.03 860.73 341.03 753.88 341.02 C 753.87 234.34 753.87 127.66 753.88 20.98 M 965.26 178.25 C 949.45 193.32 950.16 221.42 965.69 236.42 C 974.69 245.25 986.64 249.91 998.02 254.82 C 1004.22 257.68 1010.98 260.01 1015.89 264.98 C 1021.11 270.34 1020.69 280.06 1014.63 284.64 C 1007.02 290.53 996.22 290.70 987.46 287.46 C 979.41 284.80 973.67 278.08 969.24 271.16 C 961.14 275.85 953.11 280.65 944.92 285.17 C 953.37 303.45 973.16 314.83 992.92 315.70 C 999.43 316.48 1005.97 315.83 1012.47 315.17 C 1023.59 313.04 1034.81 308.14 1041.81 298.88 C 1048.76 290.10 1050.62 278.38 1049.24 267.50 C 1048.52 257.65 1043.41 248.38 1035.93 242.01 C 1024.94 232.62 1011.10 227.76 998.12 221.89 C 992.97 219.51 987.37 216.73 984.65 211.48 C 983.15 206.71 982.99 200.63 986.85 196.89 C 991.78 191.88 999.89 191.37 1006.13 194.05 C 1011.21 196.00 1014.62 200.56 1017.18 205.16 C 1025.43 200.86 1032.82 195.06 1040.96 190.54 C 1038.15 185.69 1034.82 181.06 1030.62 177.32 C 1022.40 169.67 1010.96 166.43 999.94 166.22 C 987.50 165.80 974.35 169.42 965.26 178.25 M 898.41 168.15 C 898.44 202.43 898.44 236.72 898.42 271.01 C 898.20 276.54 897.42 283.02 892.65 286.59 C 886.67 290.40 878.42 290.31 872.54 286.34 C 868.24 283.45 866.01 278.66 863.18 274.52 C 862.93 274.44 862.44 274.28 862.19 274.19 C 854.16 278.90 846.22 283.82 838.24 288.64 C 842.84 297.91 849.95 306.20 859.39 310.76 C 870.42 316.56 883.32 316.58 895.41 315.12 C 904.09 313.31 912.68 309.41 918.52 302.53 C 925.73 294.16 928.47 282.86 928.46 272.01 C 928.51 237.38 928.49 202.75 928.47 168.12 C 918.45 168.15 908.43 168.09 898.41 168.15 Z" />
<path fill="#f3df1d" opacity="1.00" d=" M 426.83 206.09 C 427.91 207.12 428.97 208.38 428.84 209.99 C 428.98 213.65 430.28 217.18 430.14 220.86 C 430.20 223.27 429.72 225.78 430.65 228.09 C 413.79 227.52 396.89 228.12 380.01 227.82 C 370.35 227.13 360.64 227.43 350.98 227.97 C 348.98 228.65 350.00 231.43 349.96 233.00 C 351.13 236.86 350.89 240.90 350.94 244.89 C 349.15 239.20 349.28 233.15 348.54 227.28 C 361.36 226.94 374.19 227.23 387.01 227.14 C 400.03 227.67 413.05 226.87 426.07 227.14 C 427.84 227.45 429.50 226.43 429.64 224.57 C 430.03 218.28 428.19 212.16 426.83 206.09 Z" />
<path fill="#f3df1d" opacity="1.00" d=" M 425.17 210.04 C 426.90 214.78 427.09 219.83 426.85 224.82 C 400.95 224.52 375.03 225.00 349.11 224.78 C 348.97 221.86 349.03 218.92 349.81 216.09 C 350.04 218.58 349.32 221.30 350.36 223.63 C 353.71 224.92 357.48 223.83 361.00 224.08 C 381.33 224.86 401.67 223.61 422.01 224.24 C 423.54 224.37 426.38 224.38 426.15 222.08 C 425.78 218.08 424.83 214.10 425.17 210.04 Z" />
</g>
<g id="#030304ff">
<path fill="#030304" opacity="1.00" d=" M 24.17 141.55 C 53.64 141.59 83.12 141.62 112.60 141.53 C 112.59 142.53 112.58 143.54 112.57 144.54 C 84.16 144.50 55.74 144.56 27.33 144.51 C 27.20 163.34 27.33 182.18 27.26 201.02 C 27.12 202.41 27.37 203.76 28.67 204.52 C 30.34 203.65 32.21 203.66 34.04 203.78 C 42.32 204.84 50.77 203.06 59.16 203.91 C 64.40 204.90 69.82 202.62 75.00 204.28 C 80.22 202.45 85.76 205.37 90.98 203.74 C 93.66 203.94 96.32 204.38 99.01 204.21 C 100.32 203.85 101.65 203.70 103.01 203.77 C 104.50 204.15 106.03 204.28 107.57 204.32 C 107.56 204.91 107.54 206.08 107.53 206.67 C 80.83 206.66 54.12 206.74 27.41 206.63 C 27.21 228.51 27.14 250.40 27.45 272.28 C 56.67 272.28 85.90 272.01 115.12 272.42 C 115.66 271.54 116.19 270.67 116.73 269.80 C 119.32 266.69 121.75 263.46 124.28 260.31 C 132.64 249.01 141.54 238.15 149.96 226.89 C 150.75 226.00 150.48 224.71 150.70 223.63 L 149.64 223.63 C 148.58 221.98 147.43 220.39 146.23 218.84 C 145.12 217.26 143.97 215.70 142.70 214.24 C 141.86 213.11 141.04 211.97 140.24 210.82 C 137.70 207.85 135.43 204.66 133.21 201.45 C 129.74 197.61 127.10 193.11 123.69 189.22 C 122.38 186.98 120.68 185.01 119.20 182.89 C 118.05 181.80 117.05 180.56 116.13 179.28 C 117.58 179.31 119.03 179.35 120.48 179.40 C 121.58 180.97 122.67 182.54 123.72 184.15 C 125.47 186.53 127.38 188.82 128.76 191.45 L 129.27 191.51 C 130.07 192.75 130.89 193.97 131.71 195.20 C 137.94 203.04 143.76 211.18 149.76 219.19 C 150.60 220.26 151.35 221.40 151.90 222.65 C 154.59 222.61 155.25 219.66 156.79 217.99 C 162.89 210.60 168.29 202.70 174.24 195.20 C 177.50 191.06 180.61 186.79 183.71 182.53 L 184.14 182.38 C 184.98 180.97 185.93 179.58 187.42 178.80 C 187.96 178.77 189.04 178.70 189.58 178.66 C 189.51 179.04 189.37 179.80 189.30 180.18 C 186.74 183.09 184.24 186.10 182.31 189.47 L 181.86 189.62 C 179.45 192.65 177.28 195.86 174.74 198.78 C 173.97 199.94 173.12 201.06 172.25 202.16 C 171.13 203.75 169.97 205.32 168.72 206.82 C 165.09 212.29 160.81 217.30 156.78 222.49 C 155.94 223.44 155.35 224.55 155.05 225.79 C 155.67 226.63 156.25 227.50 156.79 228.40 L 157.26 228.51 C 158.38 230.42 159.73 232.19 161.28 233.78 C 165.43 239.24 169.75 244.57 173.76 250.15 C 177.38 254.86 181.33 259.32 184.74 264.17 C 187.56 267.53 190.30 270.99 192.55 274.76 C 191.18 274.51 189.13 275.17 188.37 273.56 C 184.36 267.95 179.97 262.64 175.74 257.20 C 172.82 253.47 169.94 249.71 167.24 245.81 C 166.99 245.53 166.50 244.97 166.25 244.69 C 163.64 241.58 161.33 238.24 158.71 235.15 C 157.11 232.95 154.88 231.14 154.07 228.45 C 153.35 228.45 152.63 228.46 151.92 228.47 C 151.02 230.02 149.85 231.39 148.73 232.78 C 145.72 237.03 142.33 241.00 139.31 245.23 C 139.04 245.47 138.50 245.93 138.23 246.16 C 137.26 247.52 136.28 248.87 135.33 250.25 C 134.21 251.82 132.99 253.33 131.72 254.79 C 127.73 260.49 123.08 265.71 119.26 271.53 L 118.63 271.43 C 117.86 272.91 117.11 275.17 114.98 274.73 C 101.97 274.78 88.96 274.70 75.95 274.75 C 75.46 274.88 74.49 275.15 74.00 275.28 C 69.15 274.36 63.87 274.43 59.00 275.25 C 55.10 274.16 50.98 274.99 46.98 274.74 C 41.98 274.96 36.91 274.26 31.96 275.13 C 29.41 274.63 26.80 274.67 24.22 274.83 C 24.25 230.41 24.36 185.97 24.17 141.55 Z" />
<path fill="#030304" opacity="1.00" d=" M 965.26 178.25 C 974.35 169.42 987.50 165.80 999.94 166.22 C 1010.96 166.43 1022.40 169.67 1030.62 177.32 C 1034.82 181.06 1038.15 185.69 1040.96 190.54 C 1032.82 195.06 1025.43 200.86 1017.18 205.16 C 1014.62 200.56 1011.21 196.00 1006.13 194.05 C 999.89 191.37 991.78 191.88 986.85 196.89 C 982.99 200.63 983.15 206.71 984.65 211.48 C 987.37 216.73 992.97 219.51 998.12 221.89 C 1011.10 227.76 1024.94 232.62 1035.93 242.01 C 1043.41 248.38 1048.52 257.65 1049.24 267.50 C 1050.62 278.38 1048.76 290.10 1041.81 298.88 C 1034.81 308.14 1023.59 313.04 1012.47 315.17 C 1005.97 315.83 999.43 316.48 992.92 315.70 C 973.16 314.83 953.37 303.45 944.92 285.17 C 953.11 280.65 961.14 275.85 969.24 271.16 C 973.67 278.08 979.41 284.80 987.46 287.46 C 996.22 290.70 1007.02 290.53 1014.63 284.64 C 1020.69 280.06 1021.11 270.34 1015.89 264.98 C 1010.98 260.01 1004.22 257.68 998.02 254.82 C 986.64 249.91 974.69 245.25 965.69 236.42 C 950.16 221.42 949.45 193.32 965.26 178.25 Z" />
<path fill="#030304" opacity="1.00" d=" M 898.41 168.15 C 908.43 168.09 918.45 168.15 928.47 168.12 C 928.49 202.75 928.51 237.38 928.46 272.01 C 928.47 282.86 925.73 294.16 918.52 302.53 C 912.68 309.41 904.09 313.31 895.41 315.12 C 883.32 316.58 870.42 316.56 859.39 310.76 C 849.95 306.20 842.84 297.91 838.24 288.64 C 846.22 283.82 854.16 278.90 862.19 274.19 C 862.44 274.28 862.93 274.44 863.18 274.52 C 866.01 278.66 868.24 283.45 872.54 286.34 C 878.42 290.31 886.67 290.40 892.65 286.59 C 897.42 283.02 898.20 276.54 898.42 271.01 C 898.44 236.72 898.44 202.43 898.41 168.15 Z" />
<path fill="#030304" opacity="1.00" d=" M 217.94 186.90 C 222.49 182.01 229.04 179.89 235.18 177.77 C 241.68 177.31 248.43 176.66 254.81 178.27 C 265.32 180.79 273.68 188.74 278.69 198.07 C 281.61 202.96 282.54 208.62 284.22 213.96 C 284.68 219.97 285.85 225.95 285.16 231.99 C 284.58 234.31 284.53 236.71 284.27 239.08 C 282.81 243.69 282.13 248.61 279.77 252.90 C 279.31 254.11 278.83 255.31 278.35 256.51 L 277.74 256.61 C 274.97 262.97 269.66 268.20 263.87 271.83 C 262.94 272.34 262.02 272.85 261.10 273.38 C 258.52 274.54 255.81 275.39 253.12 276.25 C 247.08 276.92 240.93 277.04 234.91 276.21 C 233.60 275.81 232.26 275.51 230.94 275.24 C 227.36 273.96 223.91 272.40 220.74 270.30 C 216.20 266.82 212.44 262.46 209.61 257.49 C 208.14 254.65 207.25 251.56 205.86 248.68 C 205.58 249.48 205.03 251.07 204.76 251.87 C 204.70 266.87 204.68 281.87 204.76 296.86 C 204.13 296.87 202.88 296.87 202.25 296.88 C 202.31 257.68 202.34 218.48 202.24 179.29 C 202.87 179.28 204.14 179.27 204.77 179.27 C 204.61 187.69 204.83 196.12 204.65 204.54 C 205.24 204.54 206.42 204.53 207.01 204.53 C 208.32 197.56 213.07 191.80 217.94 186.90 M 231.87 181.73 C 230.08 182.69 228.11 183.26 226.37 184.33 C 225.56 184.88 224.71 185.36 223.83 185.78 C 221.69 187.29 219.95 189.28 217.86 190.85 C 214.93 193.85 212.79 197.43 210.54 200.93 C 210.54 201.30 210.56 202.05 210.57 202.42 L 209.72 202.54 C 209.21 204.37 208.51 206.15 207.76 207.89 C 207.17 210.56 206.52 213.22 205.78 215.85 C 205.50 218.57 205.34 221.31 205.17 224.04 C 204.66 225.65 204.70 227.35 204.79 229.02 C 205.77 234.33 205.28 239.87 207.08 245.05 C 207.41 246.37 207.61 247.76 208.37 248.93 C 208.46 249.45 208.65 250.50 208.74 251.02 C 209.02 251.54 209.59 252.57 209.87 253.09 C 210.11 253.60 210.59 254.61 210.83 255.11 C 212.44 257.86 214.21 260.52 216.47 262.78 L 216.48 263.51 L 217.19 263.50 C 217.52 263.83 218.19 264.47 218.52 264.80 L 218.55 265.23 C 221.07 266.81 223.41 268.66 226.00 270.12 C 226.49 270.38 227.45 270.89 227.94 271.14 C 228.95 271.53 229.96 271.93 230.96 272.35 C 231.59 272.41 232.85 272.53 233.48 272.59 L 233.53 273.39 C 238.70 273.79 243.83 274.94 249.05 274.25 C 250.65 273.60 252.37 273.47 254.08 273.30 C 255.03 272.77 256.05 272.41 257.13 272.21 C 264.82 269.17 271.07 263.12 275.26 256.07 C 276.82 253.20 277.89 250.10 279.19 247.11 C 280.14 242.76 281.62 238.48 281.71 233.99 C 282.04 225.97 282.19 217.81 280.17 209.97 C 279.45 207.97 278.90 205.91 278.22 203.90 C 276.83 200.95 275.55 197.94 273.78 195.20 C 272.61 193.72 271.44 192.26 270.19 190.85 C 269.48 190.20 268.81 189.51 268.19 188.78 C 266.84 187.32 265.23 186.15 263.48 185.23 L 263.43 184.76 C 261.50 184.10 259.78 183.00 257.93 182.18 C 256.33 181.67 254.72 181.22 253.13 180.72 C 246.06 179.83 238.76 179.73 231.87 181.73 Z" />
<path fill="#030304" opacity="1.00" d=" M 378.19 178.33 C 384.28 176.60 390.82 177.37 397.07 177.75 C 402.03 179.13 406.95 180.77 411.30 183.61 C 414.85 186.41 418.05 189.66 420.83 193.23 C 422.41 195.74 423.86 198.33 425.08 201.03 C 425.31 202.05 425.73 202.99 426.34 203.84 C 426.46 204.40 426.70 205.53 426.83 206.09 C 428.19 212.16 430.03 218.28 429.64 224.57 C 429.50 226.43 427.84 227.45 426.07 227.14 C 413.05 226.87 400.03 227.67 387.01 227.14 C 374.19 227.23 361.36 226.94 348.54 227.28 C 349.28 233.15 349.15 239.20 350.94 244.89 C 351.86 247.64 352.59 250.46 353.68 253.16 C 354.79 255.42 355.83 257.74 357.28 259.82 C 358.44 261.27 359.64 262.68 360.84 264.10 C 362.20 265.41 363.63 266.67 365.13 267.83 C 367.75 269.32 370.32 270.91 373.08 272.14 C 374.39 272.44 375.75 272.69 376.99 273.28 C 385.35 274.13 393.99 274.49 402.18 272.22 C 409.52 269.51 415.99 264.77 420.31 258.18 C 420.82 257.10 421.34 256.03 421.86 254.95 C 423.70 251.62 424.34 247.84 425.38 244.22 C 425.39 243.76 425.42 242.85 425.43 242.40 C 426.54 242.36 427.65 242.33 428.77 242.30 C 428.26 245.67 427.23 248.92 426.28 252.19 C 424.88 255.12 423.64 258.14 421.86 260.87 C 420.72 262.38 419.47 263.79 418.19 265.18 C 416.40 266.83 414.67 268.60 412.51 269.78 L 412.57 270.34 C 407.94 272.85 403.10 274.91 397.99 276.20 C 390.72 276.88 383.24 277.27 376.04 275.90 C 374.72 275.55 373.40 275.22 372.11 274.81 C 366.57 272.86 361.69 269.55 357.72 265.24 C 354.48 261.26 351.91 256.80 350.12 251.99 C 349.69 251.01 349.35 250.00 349.08 248.97 C 348.67 247.63 348.36 246.26 348.06 244.90 C 345.37 232.09 345.18 218.30 349.61 205.85 C 350.17 204.61 350.71 203.38 351.24 202.14 C 354.40 195.12 359.21 188.68 365.53 184.22 L 365.68 183.42 C 366.03 183.42 366.72 183.44 367.07 183.45 C 370.18 180.66 374.34 179.65 378.19 178.33 M 370.43 184.25 C 365.76 186.82 362.01 190.67 358.71 194.79 C 357.12 197.18 355.40 199.50 354.22 202.13 C 352.10 206.56 350.97 211.35 349.81 216.09 C 349.03 218.92 348.97 221.86 349.11 224.78 C 375.03 225.00 400.95 224.52 426.85 224.82 C 427.09 219.83 426.90 214.78 425.17 210.04 C 424.00 206.03 422.75 202.01 420.73 198.34 C 419.91 197.04 419.06 195.75 418.27 194.45 C 415.14 190.97 412.00 187.36 408.01 184.86 C 406.58 184.28 405.21 183.59 403.87 182.86 C 402.94 182.52 402.01 182.17 401.09 181.82 C 391.08 179.02 379.74 179.26 370.43 184.25 Z" />
<path fill="#030304" opacity="1.00" d=" M 466.95 177.76 C 475.88 177.18 485.19 176.44 493.75 179.61 C 499.62 181.52 505.01 185.49 507.87 191.05 C 509.49 193.80 510.39 196.89 511.20 199.96 C 511.40 202.19 511.57 204.41 511.75 206.64 C 510.64 206.66 509.55 206.68 508.46 206.71 C 508.42 204.80 508.35 202.90 508.24 201.00 C 507.82 199.59 507.47 198.18 507.18 196.76 C 505.43 192.24 502.55 187.94 498.46 185.27 L 498.41 184.47 C 498.05 184.47 497.34 184.48 496.98 184.49 C 492.12 180.88 485.78 180.78 480.05 179.81 C 475.04 179.70 469.90 180.01 465.05 181.23 C 464.51 181.35 463.44 181.61 462.90 181.74 C 461.71 182.28 460.50 182.78 459.31 183.29 C 453.47 186.18 449.18 191.66 447.75 198.01 C 447.31 203.10 447.80 208.63 451.20 212.71 C 455.33 217.75 461.98 219.28 467.88 221.22 C 476.60 223.47 485.36 225.59 493.99 228.14 C 495.03 228.39 496.05 228.70 497.06 229.08 C 498.40 229.62 499.73 230.16 501.08 230.72 C 505.82 233.49 510.57 236.85 512.86 242.06 C 514.36 246.46 515.04 251.32 513.82 255.87 C 512.87 261.85 508.92 266.68 504.34 270.37 C 502.60 271.39 500.87 272.40 499.12 273.37 C 497.41 273.96 495.72 274.58 494.05 275.25 C 492.68 275.50 491.33 275.76 490.00 276.14 C 482.69 277.11 475.24 276.91 467.91 276.20 C 466.58 275.83 465.25 275.51 463.91 275.24 C 462.63 274.78 461.34 274.36 460.07 273.92 C 457.32 272.85 454.44 271.79 452.29 269.69 C 448.73 267.21 445.88 263.86 444.22 259.83 C 443.68 258.59 443.20 257.33 442.73 256.08 C 441.65 252.15 441.06 248.10 441.23 244.02 C 440.60 241.57 443.54 242.57 444.34 243.69 C 444.18 246.49 444.42 249.28 444.67 252.07 C 445.22 253.67 445.70 255.30 446.24 256.91 C 449.70 265.58 458.21 271.05 466.96 273.29 C 475.95 273.87 485.31 274.82 494.06 272.17 C 495.05 271.81 496.04 271.48 497.05 271.16 C 497.53 270.90 498.50 270.39 498.98 270.13 C 503.64 267.61 507.70 263.88 509.76 258.92 C 512.48 254.32 511.49 248.47 510.38 243.50 L 509.69 243.55 C 508.65 239.95 505.65 237.39 502.77 235.21 C 500.89 234.06 498.92 233.07 496.91 232.21 C 495.93 231.80 494.94 231.44 493.94 231.12 C 491.60 230.39 489.17 229.92 486.97 228.84 C 485.32 228.58 483.68 228.31 482.10 227.83 C 480.76 227.51 479.41 227.19 478.09 226.84 C 472.13 225.07 465.92 224.14 460.13 221.83 C 458.44 221.18 456.77 220.52 455.13 219.78 C 450.95 217.65 447.05 214.12 445.83 209.44 C 444.81 205.10 444.01 200.49 445.34 196.13 C 446.31 190.80 449.96 186.45 454.11 183.20 C 457.96 180.45 462.49 179.11 466.95 177.76 Z" />
<path fill="#030304" opacity="1.00" d=" M 541.10 183.22 C 550.93 176.18 563.55 176.87 574.99 177.80 C 579.40 179.26 584.09 180.28 587.86 183.17 C 590.00 185.05 592.90 186.57 593.74 189.49 L 594.40 189.38 C 597.32 194.69 598.73 200.70 598.64 206.75 C 597.64 206.70 596.65 206.66 595.67 206.61 C 595.73 203.01 595.27 199.42 594.17 195.98 C 593.92 195.47 593.43 194.44 593.18 193.92 C 590.85 190.58 588.62 187.03 585.06 184.85 C 584.58 184.57 583.62 184.01 583.14 183.73 C 580.53 182.46 577.77 181.64 575.02 180.77 C 570.34 180.39 565.69 179.37 560.98 179.83 C 557.30 180.48 553.52 180.50 549.96 181.76 C 548.97 182.18 547.99 182.61 547.01 183.04 C 541.98 185.43 537.78 189.47 535.82 194.76 C 535.54 196.20 535.20 197.63 534.80 199.04 C 534.77 204.17 535.18 210.32 539.42 213.85 L 539.45 214.33 C 541.51 215.74 543.62 217.08 545.85 218.22 C 548.60 219.09 551.22 220.36 554.10 220.78 C 562.90 223.70 572.10 225.28 580.93 228.13 C 581.98 228.39 583.02 228.71 584.05 229.08 C 585.46 229.70 586.91 230.25 588.39 230.74 L 588.50 231.27 C 593.84 233.39 598.12 237.52 600.28 242.85 C 600.37 244.26 600.60 245.68 601.27 246.95 C 601.46 249.44 601.44 251.94 601.42 254.45 L 600.70 254.59 C 600.59 256.06 600.44 257.53 600.28 259.01 C 598.22 263.14 595.84 267.24 591.88 269.82 C 590.54 271.29 588.65 271.98 586.91 272.84 C 585.94 273.33 584.98 273.82 584.01 274.32 C 574.71 277.62 564.62 277.00 554.95 276.20 C 551.25 275.34 547.60 274.32 544.13 272.78 C 540.36 271.06 537.33 268.16 534.48 265.23 L 534.51 264.42 L 533.42 264.37 C 533.45 264.00 533.50 263.26 533.53 262.89 C 532.32 261.82 531.41 260.51 531.13 258.91 C 530.67 257.98 530.22 257.06 529.76 256.14 C 528.47 251.67 528.09 247.05 528.26 242.42 C 533.23 241.96 530.75 248.18 531.63 251.10 C 532.15 252.71 532.62 254.36 533.17 255.97 C 535.43 263.05 541.24 268.27 547.87 271.25 C 549.92 271.91 551.98 272.53 554.00 273.27 C 556.29 273.59 558.75 273.30 560.92 274.28 C 564.63 274.47 568.34 274.45 572.05 274.24 C 575.00 273.35 578.13 273.25 581.03 272.12 C 582.04 271.78 583.08 271.45 584.12 271.16 C 588.27 268.75 592.49 266.22 595.35 262.24 C 596.57 260.00 597.58 257.65 598.28 255.19 C 598.87 249.46 598.25 243.25 594.18 238.82 C 591.07 236.17 587.82 233.54 583.90 232.22 C 582.92 231.82 581.95 231.45 580.96 231.12 C 578.69 230.23 576.26 229.86 574.06 228.83 C 572.37 228.58 570.68 228.38 569.08 227.80 C 567.72 227.50 566.39 227.24 565.09 226.80 C 559.08 225.21 552.94 224.01 547.12 221.81 C 545.73 221.28 544.34 220.74 542.96 220.23 C 539.37 218.31 535.31 215.78 534.22 211.60 L 533.57 211.46 C 532.51 207.75 532.01 203.92 531.71 200.09 C 532.55 198.15 532.39 195.98 533.04 193.99 C 533.94 191.97 534.87 189.95 536.22 188.18 C 537.57 186.27 539.24 184.63 541.10 183.22 Z" />
<path fill="#030304" opacity="1.00" d=" M 329.87 178.78 C 334.56 177.30 339.48 177.22 344.35 177.29 C 344.34 177.90 344.31 179.10 344.30 179.71 C 342.51 179.70 340.73 179.71 338.94 179.78 C 333.89 180.25 329.12 181.77 324.45 183.70 L 324.37 184.59 C 323.92 184.55 323.00 184.47 322.55 184.43 L 322.52 185.27 C 318.76 187.53 315.79 190.98 313.26 194.51 L 312.75 194.60 C 310.99 198.33 309.12 201.99 307.76 205.90 C 307.62 207.08 307.50 208.26 307.40 209.44 L 306.66 209.48 C 306.01 216.97 306.53 224.51 305.78 231.99 C 305.30 236.66 306.94 241.35 305.82 245.96 C 305.98 251.00 306.37 255.99 305.79 261.02 C 306.42 263.64 306.40 266.37 305.84 268.99 C 305.78 270.91 305.78 272.83 305.82 274.75 C 305.14 274.78 303.78 274.84 303.10 274.88 C 302.57 271.95 302.80 268.97 302.77 266.02 C 302.79 237.11 302.78 208.20 302.75 179.29 C 303.63 179.33 305.40 179.40 306.28 179.43 C 306.26 181.61 306.27 183.81 305.86 185.96 C 305.68 188.31 305.68 190.67 306.13 192.99 C 305.58 196.12 306.43 199.26 306.63 202.39 C 307.04 201.58 307.39 200.75 307.70 199.90 C 310.23 193.55 314.02 187.74 319.53 183.58 C 322.76 181.54 326.26 180.01 329.87 178.78 Z" />
</g>
</svg>
