<?xml version="1.0" encoding="UTF-8" ?>
<!DOCTYPE svg PUBLIC "-//W3C//DTD SVG 1.1//EN" "http://www.w3.org/Graphics/SVG/1.1/DTD/svg11.dtd">
<svg width="900pt" height="500pt" viewBox="0 0 900 500" version="1.1" xmlns="http://www.w3.org/2000/svg">
<g id="#ffffffff">
<path fill="#ffffff" opacity="1.00" d=" M 0.00 0.00 L 900.00 0.00 L 900.00 500.00 L 0.00 500.00 L 0.00 0.00 M 69.05 160.05 C 52.10 170.78 38.02 186.21 29.31 204.32 C 16.26 230.38 14.47 261.77 24.29 289.19 C 35.21 320.52 61.21 346.28 92.87 356.38 C 96.47 357.58 100.58 354.83 100.48 350.97 C 100.34 344.32 100.36 337.68 100.41 331.04 C 93.26 331.99 85.89 332.96 78.80 331.08 C 72.62 329.79 66.74 325.78 64.23 319.84 C 62.04 314.68 59.22 309.74 55.56 305.49 C 52.91 302.32 48.29 301.14 46.71 297.05 C 51.23 293.95 57.30 295.45 61.47 298.45 C 66.54 301.61 69.11 307.18 72.71 311.72 C 75.34 313.99 78.15 316.17 81.50 317.27 C 87.81 319.45 94.71 318.19 100.74 315.72 C 101.89 310.32 103.75 304.90 107.69 300.86 C 97.47 299.68 87.02 297.31 78.25 291.70 C 68.02 285.43 61.68 274.20 59.57 262.60 C 57.49 251.44 57.21 239.41 61.85 228.83 C 63.66 224.54 66.72 221.00 69.33 217.20 C 65.91 208.84 66.68 199.30 69.59 190.92 C 70.01 189.79 70.35 187.73 72.04 188.11 C 82.58 188.46 91.88 194.19 100.59 199.57 C 112.52 196.78 124.85 195.01 137.09 196.50 C 143.23 196.47 149.03 198.66 155.05 199.49 C 161.32 195.90 167.46 191.84 174.45 189.67 C 177.85 188.71 181.74 187.40 185.16 188.56 C 189.26 197.68 189.33 208.25 186.55 217.76 C 193.27 225.17 197.26 235.04 197.46 245.05 C 198.01 259.65 194.86 275.52 184.28 286.27 C 174.68 295.78 161.04 299.39 147.99 300.87 C 149.26 302.95 151.03 304.71 152.04 306.96 C 154.59 311.89 154.90 317.55 155.16 322.99 C 154.89 332.33 155.03 341.68 154.96 351.02 C 154.56 354.77 158.58 357.47 162.00 356.45 C 191.26 346.85 215.85 324.22 227.92 295.90 C 241.88 264.28 239.43 226.00 221.43 196.48 C 210.11 177.55 192.92 162.16 172.87 152.98 C 139.97 137.82 99.55 140.45 69.05 160.05 M 355.81 181.41 C 349.82 182.55 344.18 185.00 338.85 187.91 C 328.13 194.19 320.49 204.77 316.27 216.32 C 310.30 232.47 309.23 249.99 310.24 267.05 C 311.03 283.67 314.96 301.01 325.90 314.02 C 335.39 325.66 350.17 331.79 364.86 333.19 C 383.49 335.50 403.25 333.40 419.79 324.02 C 421.00 323.30 422.79 322.58 422.50 320.83 C 422.44 296.03 422.69 271.22 422.37 246.42 C 420.96 245.99 419.51 245.63 418.02 245.73 C 402.99 245.80 387.97 245.71 372.94 245.77 C 371.57 245.59 369.71 246.29 369.84 247.95 C 369.69 255.92 369.68 263.90 369.85 271.86 C 370.05 272.20 370.47 272.88 370.68 273.22 C 377.30 274.54 384.25 273.33 391.00 273.81 C 391.00 283.58 391.00 293.35 391.00 303.12 C 384.78 304.34 378.40 304.67 372.07 304.43 C 364.25 304.01 356.39 300.75 351.46 294.51 C 345.24 286.44 343.25 276.05 342.52 266.12 C 341.80 253.33 341.87 239.94 347.06 227.99 C 350.66 219.60 358.21 213.05 367.15 211.01 C 378.47 208.34 390.37 209.34 401.68 211.57 C 404.75 211.92 407.87 214.58 410.86 213.06 C 412.99 206.44 413.92 199.49 415.73 192.77 C 416.07 190.81 417.48 188.10 415.36 186.68 C 410.80 184.00 405.54 182.86 400.43 181.69 C 385.74 179.00 370.51 178.51 355.81 181.41 M 560.64 187.88 C 560.58 234.27 560.65 280.66 560.60 327.05 C 560.50 328.72 560.65 331.36 563.00 331.16 C 571.68 331.35 580.38 331.22 589.06 331.23 C 590.99 331.62 592.46 329.86 592.10 328.02 C 592.13 308.17 592.12 288.33 592.11 268.48 C 606.18 268.56 620.27 268.50 634.35 268.51 C 634.20 288.37 634.23 308.23 634.01 328.09 C 633.99 329.32 634.47 331.29 636.10 331.13 C 645.04 331.39 654.01 331.20 662.96 331.23 C 664.82 331.56 665.65 329.57 665.51 328.05 C 665.52 281.35 665.52 234.65 665.51 187.96 C 665.74 186.54 664.76 184.70 663.11 185.02 C 654.02 184.96 644.94 185.03 635.86 185.00 C 635.48 185.36 634.74 186.08 634.37 186.44 C 634.31 204.12 634.35 221.80 634.35 239.49 C 620.27 239.50 606.18 239.44 592.10 239.52 C 592.14 222.65 592.10 205.78 592.13 188.91 C 592.14 187.42 591.99 185.01 589.97 185.09 C 581.01 184.88 572.04 185.03 563.07 185.02 C 561.54 184.88 560.31 186.40 560.64 187.88 M 785.18 189.82 C 785.33 236.46 784.78 283.11 785.07 329.74 C 785.37 330.04 785.96 330.63 786.25 330.93 C 793.18 331.05 800.14 331.09 807.08 330.90 C 809.32 329.38 808.61 325.88 809.24 323.53 C 816.50 329.33 825.56 332.89 834.79 333.81 C 844.31 334.49 854.53 334.09 862.86 328.90 C 870.43 324.46 874.64 316.14 876.98 307.99 C 879.87 297.29 880.52 286.11 880.25 275.08 C 879.78 263.77 878.33 251.85 871.78 242.28 C 866.50 233.81 856.60 229.06 846.85 228.36 C 836.42 227.86 825.86 230.16 816.67 235.16 C 816.62 218.91 816.70 202.67 816.63 186.42 C 816.25 186.07 815.50 185.35 815.12 184.99 C 805.79 185.09 796.45 184.84 787.13 185.10 C 784.68 185.33 785.33 188.13 785.18 189.82 M 452.38 188.26 C 446.73 188.27 441.20 191.36 438.13 196.08 C 433.44 202.85 434.44 212.92 440.39 218.62 C 446.25 224.50 456.43 225.08 463.10 220.24 C 469.35 215.76 471.76 206.98 469.09 199.84 C 466.71 192.97 459.65 188.04 452.38 188.26 M 495.09 203.17 C 494.42 212.84 494.97 222.57 494.79 232.27 C 489.46 233.37 484.28 235.07 478.92 235.99 C 477.87 241.28 478.65 246.71 478.39 252.07 C 478.60 253.93 477.73 257.01 480.26 257.60 C 485.02 258.05 489.84 257.61 494.63 257.76 C 494.60 270.20 494.63 282.63 494.61 295.07 C 494.65 302.26 494.66 309.68 497.47 316.44 C 500.42 324.33 507.53 330.13 515.56 332.30 C 526.28 334.87 537.79 334.82 548.22 331.06 C 548.81 323.54 548.50 315.96 548.37 308.43 C 543.54 306.88 538.28 309.50 533.43 307.59 C 529.50 306.65 526.04 303.25 526.08 299.04 C 525.88 285.30 526.07 271.55 525.99 257.81 C 533.34 257.30 540.88 258.64 548.11 257.05 C 548.37 249.36 548.23 241.65 548.22 233.96 C 548.51 232.11 546.52 231.36 545.03 231.49 C 538.69 231.45 532.34 231.51 526.00 231.48 C 525.93 222.37 526.13 213.24 525.92 204.13 C 525.66 203.87 525.14 203.34 524.88 203.08 C 514.96 202.98 505.01 202.86 495.09 203.17 M 437.38 232.00 C 437.01 234.64 436.93 237.31 436.98 239.97 C 437.05 269.04 436.94 298.11 437.03 327.18 C 436.62 329.47 438.42 331.41 440.75 331.20 C 449.19 331.25 457.64 331.34 466.08 331.16 C 468.37 331.24 468.70 328.66 468.65 326.94 C 468.68 296.60 468.64 266.27 468.66 235.93 C 468.66 234.54 468.35 233.19 468.08 231.84 C 463.10 231.18 458.06 231.59 453.06 231.48 C 447.84 231.72 442.53 230.93 437.38 232.00 M 679.28 232.99 C 679.42 252.65 679.30 272.32 679.34 291.99 C 679.27 301.04 678.99 310.58 683.17 318.89 C 686.60 326.80 694.87 331.32 702.97 333.05 C 718.61 336.44 735.15 332.80 748.75 324.65 C 749.04 326.80 749.40 328.95 749.92 331.07 C 756.65 331.47 763.39 331.08 770.13 331.31 C 770.86 330.00 771.11 328.51 771.02 327.03 C 771.00 295.72 771.40 264.41 771.16 233.11 C 770.87 232.83 770.28 232.26 769.98 231.98 C 761.68 231.43 753.33 231.93 745.02 231.73 C 743.31 231.89 741.04 231.23 740.08 233.12 C 739.82 256.63 740.19 280.16 739.90 303.68 C 734.20 306.80 727.69 308.73 721.15 308.24 C 718.67 308.23 716.12 307.44 714.34 305.66 C 711.37 303.01 711.04 298.71 710.99 294.99 C 710.99 274.95 711.03 254.90 710.98 234.86 C 710.99 233.64 710.47 231.69 708.89 231.87 C 700.26 231.58 691.62 231.84 682.99 231.74 C 681.57 231.54 680.39 232.26 679.28 232.99 Z" />
<path fill="#ffffff" opacity="1.00" d=" M 816.33 259.20 C 821.55 255.78 827.91 254.49 834.09 254.50 C 838.27 254.55 842.64 256.38 844.90 260.05 C 848.96 266.19 849.15 273.90 849.34 281.02 C 849.10 288.10 849.19 295.52 846.22 302.11 C 844.70 305.85 840.73 307.84 836.91 308.29 C 829.86 309.08 822.57 307.70 816.38 304.21 C 816.35 289.21 816.45 274.20 816.33 259.20 Z" />
</g>
<g id="#24292eff">
<path fill="#24292e" opacity="1.00" d=" M 69.05 160.05 C 99.55 140.45 139.97 137.82 172.87 152.98 C 192.92 162.16 210.11 177.55 221.43 196.48 C 239.43 226.00 241.88 264.28 227.92 295.90 C 215.85 324.22 191.26 346.85 162.00 356.45 C 158.58 357.47 154.56 354.77 154.96 351.02 C 155.03 341.68 154.89 332.33 155.16 322.99 C 154.90 317.55 154.59 311.89 152.04 306.96 C 151.03 304.71 149.26 302.95 147.99 300.87 C 161.04 299.39 174.68 295.78 184.28 286.27 C 194.86 275.52 198.01 259.65 197.46 245.05 C 197.26 235.04 193.27 225.17 186.55 217.76 C 189.33 208.25 189.26 197.68 185.16 188.56 C 181.74 187.40 177.85 188.71 174.45 189.67 C 167.46 191.84 161.32 195.90 155.05 199.49 C 149.03 198.66 143.23 196.47 137.09 196.50 C 124.85 195.01 112.52 196.78 100.59 199.57 C 91.88 194.19 82.58 188.46 72.04 188.11 C 70.35 187.73 70.01 189.79 69.59 190.92 C 66.68 199.30 65.91 208.84 69.33 217.20 C 66.72 221.00 63.66 224.54 61.85 228.83 C 57.21 239.41 57.49 251.44 59.57 262.60 C 61.68 274.20 68.02 285.43 78.25 291.70 C 87.02 297.31 97.47 299.68 107.69 300.86 C 103.75 304.90 101.89 310.32 100.74 315.72 C 94.71 318.19 87.81 319.45 81.50 317.27 C 78.15 316.17 75.34 313.99 72.71 311.72 C 69.11 307.18 66.54 301.61 61.47 298.45 C 57.30 295.45 51.23 293.95 46.71 297.05 C 48.29 301.14 52.91 302.32 55.56 305.49 C 59.22 309.74 62.04 314.68 64.23 319.84 C 66.74 325.78 72.62 329.79 78.80 331.08 C 85.89 332.96 93.26 331.99 100.41 331.04 C 100.36 337.68 100.34 344.32 100.48 350.97 C 100.58 354.83 96.47 357.58 92.87 356.38 C 61.21 346.28 35.21 320.52 24.29 289.19 C 14.47 261.77 16.26 230.38 29.31 204.32 C 38.02 186.21 52.10 170.78 69.05 160.05 Z" />
<path fill="#24292e" opacity="1.00" d=" M 355.81 181.41 C 370.51 178.51 385.74 179.00 400.43 181.69 C 405.54 182.86 410.80 184.00 415.36 186.68 C 417.48 188.10 416.07 190.81 415.73 192.77 C 413.92 199.49 412.99 206.44 410.86 213.06 C 407.87 214.58 404.75 211.92 401.68 211.57 C 390.37 209.34 378.47 208.34 367.15 211.01 C 358.21 213.05 350.66 219.60 347.06 227.99 C 341.87 239.94 341.80 253.33 342.52 266.12 C 343.25 276.05 345.24 286.44 351.46 294.51 C 356.39 300.75 364.25 304.01 372.07 304.43 C 378.40 304.67 384.78 304.34 391.00 303.12 C 391.00 293.35 391.00 283.58 391.00 273.81 C 384.25 273.33 377.30 274.54 370.68 273.22 C 370.47 272.88 370.05 272.20 369.85 271.86 C 369.68 263.90 369.69 255.92 369.84 247.95 C 369.71 246.29 371.57 245.59 372.94 245.77 C 387.97 245.71 402.99 245.80 418.02 245.73 C 419.51 245.63 420.96 245.99 422.37 246.42 C 422.69 271.22 422.44 296.03 422.50 320.83 C 422.79 322.58 421.00 323.30 419.79 324.02 C 403.25 333.40 383.49 335.50 364.86 333.19 C 350.17 331.79 335.39 325.66 325.90 314.02 C 314.96 301.01 311.03 283.67 310.24 267.05 C 309.23 249.99 310.30 232.47 316.27 216.32 C 320.49 204.77 328.13 194.19 338.85 187.91 C 344.18 185.00 349.82 182.55 355.81 181.41 Z" />
<path fill="#24292e" opacity="1.00" d=" M 560.64 187.88 C 560.31 186.40 561.54 184.88 563.07 185.02 C 572.04 185.03 581.01 184.88 589.97 185.09 C 591.99 185.01 592.14 187.42 592.13 188.91 C 592.10 205.78 592.14 222.65 592.10 239.52 C 606.18 239.44 620.27 239.50 634.35 239.49 C 634.35 221.80 634.31 204.12 634.37 186.44 C 634.74 186.08 635.48 185.36 635.86 185.00 C 644.94 185.03 654.02 184.96 663.11 185.02 C 664.76 184.70 665.74 186.54 665.51 187.96 C 665.52 234.65 665.52 281.35 665.51 328.05 C 665.65 329.57 664.82 331.56 662.96 331.23 C 654.01 331.20 645.04 331.39 636.10 331.13 C 634.47 331.29 633.99 329.32 634.01 328.09 C 634.23 308.23 634.20 288.37 634.35 268.51 C 620.27 268.50 606.18 268.56 592.11 268.48 C 592.12 288.33 592.13 308.17 592.10 328.02 C 592.46 329.86 590.99 331.62 589.06 331.23 C 580.38 331.22 571.68 331.35 563.00 331.16 C 560.65 331.36 560.50 328.72 560.60 327.05 C 560.65 280.66 560.58 234.27 560.64 187.88 Z" />
<path fill="#24292e" opacity="1.00" d=" M 785.18 189.82 C 785.33 188.13 784.68 185.33 787.13 185.10 C 796.45 184.84 805.79 185.09 815.12 184.99 C 815.50 185.35 816.25 186.07 816.63 186.42 C 816.70 202.67 816.62 218.91 816.67 235.16 C 825.86 230.16 836.42 227.86 846.85 228.36 C 856.60 229.06 866.50 233.81 871.78 242.28 C 878.33 251.85 879.78 263.77 880.25 275.08 C 880.52 286.11 879.87 297.29 876.98 307.99 C 874.64 316.14 870.43 324.46 862.86 328.90 C 854.53 334.09 844.31 334.49 834.79 333.81 C 825.56 332.89 816.50 329.33 809.24 323.53 C 808.61 325.88 809.32 329.38 807.08 330.90 C 800.14 331.09 793.18 331.05 786.25 330.93 C 785.96 330.63 785.37 330.04 785.07 329.74 C 784.78 283.11 785.33 236.46 785.18 189.82 M 816.33 259.20 C 816.45 274.20 816.35 289.21 816.38 304.21 C 822.57 307.70 829.86 309.08 836.91 308.29 C 840.73 307.84 844.70 305.85 846.22 302.11 C 849.19 295.52 849.10 288.10 849.34 281.02 C 849.15 273.90 848.96 266.19 844.90 260.05 C 842.64 256.38 838.27 254.55 834.09 254.50 C 827.91 254.49 821.55 255.78 816.33 259.20 Z" />
<path fill="#24292e" opacity="1.00" d=" M 452.38 188.26 C 459.65 188.04 466.71 192.97 469.09 199.84 C 471.76 206.98 469.35 215.76 463.10 220.24 C 456.43 225.08 446.25 224.50 440.39 218.62 C 434.44 212.92 433.44 202.85 438.13 196.08 C 441.20 191.36 446.73 188.27 452.38 188.26 Z" />
<path fill="#24292e" opacity="1.00" d=" M 495.09 203.17 C 505.01 202.86 514.96 202.98 524.88 203.08 C 525.14 203.34 525.66 203.87 525.92 204.13 C 526.13 213.24 525.93 222.37 526.00 231.48 C 532.34 231.51 538.69 231.45 545.03 231.49 C 546.52 231.36 548.51 232.11 548.22 233.96 C 548.23 241.65 548.37 249.36 548.11 257.05 C 540.88 258.64 533.34 257.30 525.99 257.81 C 526.07 271.55 525.88 285.30 526.08 299.04 C 526.04 303.25 529.50 306.65 533.43 307.59 C 538.28 309.50 543.54 306.88 548.37 308.43 C 548.50 315.96 548.81 323.54 548.22 331.06 C 537.79 334.82 526.28 334.87 515.56 332.30 C 507.53 330.13 500.42 324.33 497.47 316.44 C 494.66 309.68 494.65 302.26 494.61 295.07 C 494.63 282.63 494.60 270.20 494.63 257.76 C 489.84 257.61 485.02 258.05 480.26 257.60 C 477.73 257.01 478.60 253.93 478.39 252.07 C 478.65 246.71 477.87 241.28 478.92 235.99 C 484.28 235.07 489.46 233.37 494.79 232.27 C 494.97 222.57 494.42 212.84 495.09 203.17 Z" />
<path fill="#24292e" opacity="1.00" d=" M 437.38 232.00 C 442.53 230.93 447.84 231.72 453.06 231.48 C 458.06 231.59 463.10 231.18 468.08 231.84 C 468.35 233.19 468.66 234.54 468.66 235.93 C 468.64 266.27 468.68 296.60 468.65 326.94 C 468.70 328.66 468.37 331.24 466.08 331.16 C 457.64 331.34 449.19 331.25 440.75 331.20 C 438.42 331.41 436.62 329.47 437.03 327.18 C 436.94 298.11 437.05 269.04 436.98 239.97 C 436.93 237.31 437.01 234.64 437.38 232.00 Z" />
<path fill="#24292e" opacity="1.00" d=" M 679.28 232.99 C 680.39 232.26 681.57 231.54 682.99 231.74 C 691.62 231.84 700.26 231.58 708.89 231.87 C 710.47 231.69 710.99 233.64 710.98 234.86 C 711.03 254.90 710.99 274.95 710.99 294.99 C 711.04 298.71 711.37 303.01 714.34 305.66 C 716.12 307.44 718.67 308.23 721.15 308.24 C 727.69 308.73 734.20 306.80 739.90 303.68 C 740.19 280.16 739.82 256.63 740.08 233.12 C 741.04 231.23 743.31 231.89 745.02 231.73 C 753.33 231.93 761.68 231.43 769.98 231.98 C 770.28 232.26 770.87 232.83 771.16 233.11 C 771.40 264.41 771.00 295.72 771.02 327.03 C 771.11 328.51 770.86 330.00 770.13 331.31 C 763.39 331.08 756.65 331.47 749.92 331.07 C 749.40 328.95 749.04 326.80 748.75 324.65 C 735.15 332.80 718.61 336.44 702.97 333.05 C 694.87 331.32 686.60 326.80 683.17 318.89 C 678.99 310.58 679.27 301.04 679.34 291.99 C 679.30 272.32 679.42 252.65 679.28 232.99 Z" />
</g>
</svg>
