<?xml version="1.0" encoding="UTF-8" ?>
<!DOCTYPE svg PUBLIC "-//W3C//DTD SVG 1.1//EN" "http://www.w3.org/Graphics/SVG/1.1/DTD/svg11.dtd">
<svg width="407pt" height="124pt" viewBox="0 0 407 124" version="1.1" xmlns="http://www.w3.org/2000/svg">
<g id="#ffffffff">
<path fill="#ffffff" opacity="1.00" d=" M 0.00 0.00 L 24.25 0.00 C 23.41 1.58 22.65 3.20 22.12 4.91 C 17.60 19.25 12.83 33.51 8.27 47.84 C 5.87 55.25 3.28 62.61 0.97 70.05 C -0.15 72.79 0.98 75.87 3.52 77.31 C 23.99 92.11 44.33 107.08 64.90 121.73 C 65.76 122.29 66.62 122.84 67.49 123.39 L 66.87 124.00 L 0.00 124.00 L 0.00 0.00 Z" />
<path fill="#ffffff" opacity="1.00" d=" M 26.91 0.00 L 108.91 0.00 C 107.98 1.22 107.27 2.60 106.83 4.08 C 102.21 18.70 97.28 33.22 92.66 47.84 L 92.21 47.84 C 75.90 48.00 59.59 47.62 43.29 48.03 C 43.21 47.85 43.06 47.47 42.98 47.29 C 38.74 35.61 35.23 23.67 31.30 11.89 C 29.86 7.92 29.15 3.63 26.91 0.00 Z" />
<path fill="#ffffff" opacity="1.00" d=" M 111.08 0.00 L 407.00 0.00 L 407.00 124.00 L 67.85 124.00 C 89.40 108.15 111.16 92.58 132.75 76.78 C 134.62 75.55 135.71 73.16 134.86 70.97 C 132.52 63.34 129.95 55.78 127.43 48.20 L 127.34 47.89 C 122.70 33.22 117.86 18.61 113.18 3.96 C 112.76 2.51 112.01 1.18 111.08 0.00 M 165.50 41.46 C 159.92 50.55 159.40 61.85 161.19 72.13 C 162.66 80.81 168.02 89.12 176.24 92.76 C 186.77 97.45 198.90 95.72 209.47 92.07 C 209.72 80.91 209.16 69.75 209.48 58.60 C 201.70 57.89 193.85 58.67 186.04 58.20 C 185.47 60.88 185.65 63.63 185.76 66.34 C 190.76 66.53 195.77 66.44 200.78 66.37 C 201.10 72.92 200.99 79.48 200.97 86.04 C 194.87 87.92 188.10 88.23 182.04 86.02 C 175.65 83.68 171.65 77.32 170.32 70.88 C 169.00 64.04 169.01 56.77 171.30 50.13 C 173.20 44.58 177.48 39.86 183.06 37.90 C 191.07 35.30 200.37 36.46 207.15 41.58 C 208.74 39.66 209.84 37.42 211.01 35.23 C 197.83 24.28 174.87 26.63 165.50 41.46 M 222.65 29.72 C 222.52 32.51 222.50 35.32 222.64 38.11 C 225.42 38.14 228.22 38.14 231.01 38.11 C 231.01 35.31 231.00 32.52 231.00 29.73 C 228.22 29.67 225.43 29.67 222.65 29.72 M 244.12 29.77 C 244.30 46.20 244.08 62.63 244.22 79.06 C 244.29 84.17 245.84 89.77 250.27 92.79 C 255.21 95.91 261.37 95.81 266.98 95.17 C 266.95 92.71 266.95 90.25 266.99 87.79 C 263.13 87.73 258.61 88.36 255.52 85.48 C 252.72 83.20 252.68 79.32 252.69 76.02 C 252.82 68.04 252.51 60.06 252.86 52.09 C 257.55 52.11 262.24 52.20 266.93 52.04 C 266.94 49.67 266.93 47.30 266.91 44.93 C 262.21 44.85 257.52 44.85 252.83 44.95 C 252.63 39.95 252.61 34.95 252.79 29.95 C 249.92 29.36 247.00 29.63 244.12 29.77 M 277.31 30.02 C 277.70 51.48 277.14 72.96 277.63 94.41 C 289.36 94.19 301.10 94.63 312.82 94.18 C 312.73 91.57 312.70 88.97 312.71 86.37 C 303.84 86.41 294.97 86.60 286.11 86.28 C 286.25 67.43 286.09 48.57 286.12 29.71 C 283.18 29.62 280.21 29.39 277.31 30.02 M 366.04 29.78 C 366.16 50.83 366.13 71.89 366.07 92.94 C 375.02 95.87 385.33 97.01 394.18 93.21 C 401.78 89.82 404.92 81.51 406.57 73.94 C 405.52 70.05 405.83 66.04 406.39 62.10 C 405.07 54.42 400.39 46.41 392.28 44.57 C 386.10 42.53 379.56 44.58 374.62 48.48 C 374.43 42.20 374.75 35.91 374.39 29.64 C 371.60 29.61 368.82 29.57 366.04 29.78 M 318.81 50.18 C 319.60 52.13 320.58 54.01 321.88 55.68 C 327.60 52.25 334.87 50.30 341.34 52.56 C 346.02 54.44 346.50 60.08 346.23 64.42 C 339.13 63.89 331.58 63.80 325.03 66.99 C 314.87 71.65 314.41 88.58 324.21 93.80 C 331.52 97.13 341.44 95.83 346.52 89.21 C 348.62 89.31 347.84 92.85 348.70 94.38 C 350.76 94.42 352.82 94.41 354.86 94.15 C 354.57 82.49 355.01 70.83 354.63 59.18 C 354.47 53.67 351.95 47.75 346.62 45.45 C 337.39 41.87 326.49 44.12 318.81 50.18 M 222.65 44.89 C 222.51 61.34 222.50 77.81 222.66 94.27 C 225.44 94.42 228.23 94.43 231.02 94.29 C 230.96 77.84 231.05 61.38 230.98 44.92 C 228.20 44.87 225.42 44.86 222.65 44.89 Z" />
<path fill="#ffffff" opacity="1.00" d=" M 381.04 52.91 C 385.28 51.77 390.55 51.72 393.79 55.14 C 397.50 59.07 397.53 64.85 397.47 69.93 C 397.25 75.68 395.89 82.31 390.77 85.73 C 386.02 88.83 380.07 88.02 374.81 86.93 C 374.30 77.00 374.61 67.01 374.64 57.06 C 375.78 54.72 378.67 53.67 381.04 52.91 Z" />
<path fill="#ffffff" opacity="1.00" d=" M 330.28 72.38 C 335.18 69.91 340.90 70.44 346.19 70.86 C 346.27 74.88 346.48 78.93 346.15 82.95 C 342.50 87.51 335.58 88.65 330.26 86.62 C 324.50 84.23 324.91 74.99 330.28 72.38 Z" />
</g>
<g id="#e24329ff">
<path fill="#e24329" opacity="1.00" d=" M 24.25 0.00 L 26.91 0.00 C 29.15 3.63 29.86 7.92 31.30 11.89 C 35.23 23.67 38.74 35.61 42.98 47.29 C 31.47 48.39 19.83 47.56 8.27 47.84 C 12.83 33.51 17.60 19.25 22.12 4.91 C 22.65 3.20 23.41 1.58 24.25 0.00 Z" />
<path fill="#e24329" opacity="1.00" d=" M 108.91 0.00 L 111.08 0.00 C 112.01 1.18 112.76 2.51 113.18 3.96 C 117.86 18.61 122.70 33.22 127.34 47.89 C 115.78 47.72 104.22 47.83 92.66 47.84 C 97.28 33.22 102.21 18.70 106.83 4.08 C 107.27 2.60 107.98 1.22 108.91 0.00 Z" />
<path fill="#e24329" opacity="1.00" d=" M 43.29 48.03 C 59.59 47.62 75.90 48.00 92.21 47.84 C 85.77 68.15 79.03 88.35 72.57 108.66 C 71.29 112.88 69.21 116.95 69.22 121.46 C 68.64 122.11 68.07 122.75 67.49 123.39 C 66.22 116.84 63.54 110.70 61.63 104.33 C 58.59 94.25 55.26 84.26 51.74 74.33 C 49.20 65.48 46.15 56.78 43.29 48.03 Z" />
</g>
<g id="#8c929dff">
<path fill="#8c929d" opacity="1.00" d=" M 165.50 41.46 C 174.87 26.63 197.83 24.28 211.01 35.23 C 209.84 37.42 208.74 39.66 207.15 41.58 C 200.37 36.46 191.07 35.30 183.06 37.90 C 177.48 39.86 173.20 44.58 171.30 50.13 C 169.01 56.77 169.00 64.04 170.32 70.88 C 171.65 77.32 175.65 83.68 182.04 86.02 C 188.10 88.23 194.87 87.92 200.97 86.04 C 200.99 79.48 201.10 72.92 200.78 66.37 C 195.77 66.44 190.76 66.53 185.76 66.34 C 185.65 63.63 185.47 60.88 186.04 58.20 C 193.85 58.67 201.70 57.89 209.48 58.60 C 209.16 69.75 209.72 80.91 209.47 92.07 C 198.90 95.72 186.77 97.45 176.24 92.76 C 168.02 89.12 162.66 80.81 161.19 72.13 C 159.40 61.85 159.92 50.55 165.50 41.46 Z" />
<path fill="#8c929d" opacity="1.00" d=" M 222.65 29.72 C 225.43 29.67 228.22 29.67 231.00 29.73 C 231.00 32.52 231.01 35.31 231.01 38.11 C 228.22 38.14 225.42 38.14 222.64 38.11 C 222.50 35.32 222.52 32.51 222.65 29.72 Z" />
<path fill="#8c929d" opacity="1.00" d=" M 244.12 29.77 C 247.00 29.63 249.92 29.36 252.79 29.95 C 252.61 34.95 252.63 39.95 252.83 44.95 C 257.52 44.85 262.21 44.85 266.91 44.93 C 266.93 47.30 266.94 49.67 266.93 52.04 C 262.24 52.20 257.55 52.11 252.86 52.09 C 252.51 60.06 252.82 68.04 252.69 76.02 C 252.68 79.32 252.72 83.20 255.52 85.48 C 258.61 88.36 263.13 87.73 266.99 87.79 C 266.95 90.25 266.95 92.71 266.98 95.17 C 261.37 95.81 255.21 95.91 250.27 92.79 C 245.84 89.77 244.29 84.17 244.22 79.06 C 244.08 62.63 244.30 46.20 244.12 29.77 Z" />
<path fill="#8c929d" opacity="1.00" d=" M 277.31 30.02 C 280.21 29.39 283.18 29.62 286.12 29.71 C 286.09 48.57 286.25 67.43 286.11 86.28 C 294.97 86.60 303.84 86.41 312.71 86.37 C 312.70 88.97 312.73 91.57 312.82 94.18 C 301.10 94.63 289.36 94.19 277.63 94.41 C 277.14 72.96 277.70 51.48 277.31 30.02 Z" />
<path fill="#8c929d" opacity="1.00" d=" M 366.04 29.78 C 368.82 29.57 371.60 29.61 374.39 29.64 C 374.75 35.91 374.43 42.20 374.62 48.48 C 379.56 44.58 386.10 42.53 392.28 44.57 C 400.39 46.41 405.07 54.42 406.39 62.10 C 405.83 66.04 405.52 70.05 406.57 73.94 C 404.92 81.51 401.78 89.82 394.18 93.21 C 385.33 97.01 375.02 95.87 366.07 92.94 C 366.13 71.89 366.16 50.83 366.04 29.78 M 381.04 52.91 C 378.67 53.67 375.78 54.72 374.64 57.06 C 374.61 67.01 374.30 77.00 374.81 86.93 C 380.07 88.02 386.02 88.83 390.77 85.73 C 395.89 82.31 397.25 75.68 397.47 69.93 C 397.53 64.85 397.50 59.07 393.79 55.14 C 390.55 51.72 385.28 51.77 381.04 52.91 Z" />
<path fill="#8c929d" opacity="1.00" d=" M 318.81 50.18 C 326.49 44.12 337.39 41.87 346.62 45.45 C 351.95 47.75 354.47 53.67 354.63 59.18 C 355.01 70.83 354.57 82.49 354.86 94.15 C 352.82 94.41 350.76 94.42 348.70 94.38 C 347.84 92.85 348.62 89.31 346.52 89.21 C 341.44 95.83 331.52 97.13 324.21 93.80 C 314.41 88.58 314.87 71.65 325.03 66.99 C 331.58 63.80 339.13 63.89 346.23 64.42 C 346.50 60.08 346.02 54.44 341.34 52.56 C 334.87 50.30 327.60 52.25 321.88 55.68 C 320.58 54.01 319.60 52.13 318.81 50.18 M 330.28 72.38 C 324.91 74.99 324.50 84.23 330.26 86.62 C 335.58 88.65 342.50 87.51 346.15 82.95 C 346.48 78.93 346.27 74.88 346.19 70.86 C 340.90 70.44 335.18 69.91 330.28 72.38 Z" />
<path fill="#8c929d" opacity="1.00" d=" M 222.65 44.89 C 225.42 44.86 228.20 44.87 230.98 44.92 C 231.05 61.38 230.96 77.84 231.02 94.29 C 228.23 94.43 225.44 94.42 222.66 94.27 C 222.50 77.81 222.51 61.34 222.65 44.89 Z" />
</g>
<g id="#fc6d26ff">
<path fill="#fc6d26" opacity="1.00" d=" M 8.27 47.84 C 19.83 47.56 31.47 48.39 42.98 47.29 C 43.06 47.47 43.21 47.85 43.29 48.03 C 46.15 56.78 49.20 65.48 51.74 74.33 C 55.26 84.26 58.59 94.25 61.63 104.33 C 63.54 110.70 66.22 116.84 67.49 123.39 C 66.62 122.84 65.76 122.29 64.90 121.73 C 64.34 118.85 62.40 116.63 60.57 114.46 C 43.08 92.30 25.95 69.84 8.27 47.84 Z" />
<path fill="#fc6d26" opacity="1.00" d=" M 92.21 47.84 L 92.66 47.84 C 104.22 47.83 115.78 47.72 127.34 47.89 L 127.43 48.20 C 124.95 50.50 122.79 53.09 120.85 55.85 C 106.72 74.03 92.47 92.12 78.33 110.30 C 75.32 114.05 72.56 118.00 69.22 121.46 C 69.21 116.95 71.29 112.88 72.57 108.66 C 79.03 88.35 85.77 68.15 92.21 47.84 Z" />
</g>
<g id="#fca326ff">
<path fill="#fca326" opacity="1.00" d=" M 0.97 70.05 C 3.28 62.61 5.87 55.25 8.27 47.84 C 25.95 69.84 43.08 92.30 60.57 114.46 C 62.40 116.63 64.34 118.85 64.90 121.73 C 44.33 107.08 23.99 92.11 3.52 77.31 C 0.98 75.87 -0.15 72.79 0.97 70.05 Z" />
<path fill="#fca326" opacity="1.00" d=" M 120.85 55.85 C 122.79 53.09 124.95 50.50 127.43 48.20 C 129.95 55.78 132.52 63.34 134.86 70.97 C 135.71 73.16 134.62 75.55 132.75 76.78 C 111.16 92.58 89.40 108.15 67.85 124.00 L 66.87 124.00 L 67.49 123.39 C 68.07 122.75 68.64 122.11 69.22 121.46 C 72.56 118.00 75.32 114.05 78.33 110.30 C 92.47 92.12 106.72 74.03 120.85 55.85 Z" />
</g>
</svg>
