<?xml version="1.0" encoding="UTF-8" ?>
<!DOCTYPE svg PUBLIC "-//W3C//DTD SVG 1.1//EN" "http://www.w3.org/Graphics/SVG/1.1/DTD/svg11.dtd">
<svg width="1280pt" height="356pt" viewBox="0 0 1280 356" version="1.1" xmlns="http://www.w3.org/2000/svg">
<g id="#02303aff">
<path fill="#02303a" opacity="1.00" d=" M 396.58 0.00 L 404.26 0.00 C 422.51 1.14 440.36 8.71 453.42 21.58 C 467.73 35.78 476.84 54.97 479.47 74.91 C 482.68 98.67 476.12 122.82 464.55 143.52 C 447.04 174.75 420.25 199.55 391.93 220.90 C 378.69 230.94 368.75 244.79 361.71 259.73 C 349.27 286.31 344.68 315.89 343.96 345.03 C 344.16 348.90 340.93 352.56 337.00 352.53 C 326.31 352.69 315.60 352.57 304.90 352.59 C 301.64 352.80 298.21 350.81 297.40 347.53 C 296.45 343.48 295.93 339.30 294.36 335.42 C 289.21 321.29 277.26 309.89 262.90 305.42 C 249.26 301.02 233.75 302.95 221.64 310.61 C 209.54 318.09 200.96 330.99 198.91 345.08 C 198.72 348.77 196.00 352.43 192.09 352.51 C 182.09 352.76 172.07 352.49 162.06 352.63 C 159.34 352.57 156.24 352.88 154.03 350.95 C 151.82 349.34 151.44 346.48 151.00 343.99 C 148.59 328.79 138.39 315.20 124.67 308.31 C 111.43 301.49 95.08 301.18 81.59 307.47 C 67.71 313.77 57.07 326.82 53.95 341.76 C 53.45 343.96 53.24 346.24 52.49 348.39 C 51.29 351.26 48.11 352.78 45.10 352.60 C 34.36 352.60 23.62 352.62 12.88 352.59 C 9.39 352.83 5.81 350.48 5.16 346.95 C 2.20 332.55 0.91 317.87 0.00 303.22 L 0.00 289.38 C 0.69 261.44 5.86 233.45 16.82 207.66 C 29.70 177.00 50.82 149.62 78.09 130.43 C 87.94 147.42 97.75 164.43 107.59 181.42 C 111.06 187.41 116.07 192.51 122.05 196.00 C 133.03 202.51 147.23 203.37 158.80 197.88 C 164.97 194.81 170.83 191.17 176.96 188.02 C 192.66 178.46 207.40 167.34 221.25 155.26 C 223.41 153.53 224.99 150.85 224.50 147.99 C 223.94 142.99 217.67 139.83 213.32 142.37 C 210.49 144.12 208.20 146.60 205.62 148.68 C 191.09 160.82 175.70 172.07 159.03 181.10 C 154.93 183.40 150.77 185.88 146.05 186.65 C 138.45 188.02 130.30 185.57 124.71 180.24 C 121.33 177.13 119.30 172.94 117.01 169.04 C 108.08 153.61 99.18 138.15 90.23 122.74 C 88.06 119.13 86.20 115.23 85.78 110.99 C 84.42 100.97 89.94 90.47 98.99 85.95 C 133.13 69.39 170.86 58.96 209.01 60.06 C 241.17 60.75 272.57 69.99 301.64 83.36 C 321.42 92.21 340.26 103.01 360.06 111.81 C 371.98 116.91 384.77 121.54 397.96 120.37 C 410.14 119.35 421.03 112.00 428.34 102.47 C 436.75 91.41 439.29 76.23 434.97 63.03 C 431.38 51.66 422.88 41.97 412.07 36.93 C 399.39 30.87 383.73 31.41 371.59 38.55 C 369.54 39.74 367.67 41.23 365.55 42.29 C 362.84 43.59 359.48 42.70 357.48 40.55 C 354.18 37.16 350.77 33.84 347.67 30.26 C 345.22 27.47 345.65 22.87 348.44 20.46 C 361.39 8.19 378.82 1.07 396.58 0.00 M 306.16 148.80 C 314.03 152.78 321.88 156.79 329.82 160.64 C 333.91 157.08 336.45 151.52 335.26 146.07 C 333.99 138.34 325.73 132.75 318.06 134.47 C 311.30 135.67 306.32 142.04 306.16 148.80 Z" />
<path fill="#02303a" opacity="1.00" d=" M 1033.46 157.21 C 1044.31 157.19 1055.16 157.20 1066.01 157.20 C 1066.03 222.45 1066.02 287.69 1066.01 352.93 C 1058.98 352.89 1051.95 353.02 1044.93 352.88 C 1041.65 352.79 1038.65 350.23 1038.01 347.02 C 1036.96 342.71 1036.16 338.33 1035.20 334.00 C 1025.04 345.57 1010.77 354.41 995.00 354.61 C 980.82 355.66 966.23 349.84 957.22 338.74 C 946.64 325.98 942.85 309.13 941.83 292.94 C 940.80 274.50 943.94 255.05 954.59 239.58 C 962.62 227.50 975.55 218.66 989.90 216.14 C 999.14 214.56 1008.90 214.91 1017.73 218.28 C 1023.61 220.51 1028.86 224.11 1033.48 228.35 C 1033.45 204.63 1033.48 180.92 1033.46 157.21 M 986.81 247.90 C 977.54 257.37 975.54 271.34 975.28 284.04 C 975.32 296.68 975.99 310.53 983.98 320.99 C 990.04 328.68 1000.89 330.17 1009.99 328.51 C 1019.64 326.89 1027.46 320.24 1033.52 312.93 C 1033.48 292.68 1033.51 272.43 1033.44 252.18 C 1022.76 238.24 999.64 235.49 986.81 247.90 Z" />
<path fill="#02303a" opacity="1.00" d=" M 1098.54 157.20 C 1109.36 157.21 1120.19 157.19 1131.01 157.20 C 1131.03 222.45 1131.03 287.69 1131.02 352.93 C 1120.18 352.94 1109.35 352.93 1098.53 352.93 C 1098.52 287.69 1098.51 222.44 1098.54 157.20 Z" />
<path fill="#02303a" opacity="1.00" d=" M 602.05 161.90 C 621.99 158.78 642.84 160.25 661.89 167.10 C 672.84 170.99 682.73 177.43 691.27 185.25 C 687.62 190.98 684.11 196.81 680.34 202.46 C 677.65 206.31 672.05 207.20 668.06 204.92 C 660.66 200.75 653.48 195.90 645.13 193.79 C 627.56 188.89 607.82 188.90 591.27 197.23 C 576.80 204.47 566.56 218.59 562.42 234.05 C 557.82 251.00 558.21 269.37 563.71 286.07 C 568.78 301.61 580.41 315.09 595.63 321.37 C 615.97 329.71 640.00 328.61 659.49 318.39 C 659.25 306.94 659.45 295.49 659.38 284.04 C 651.23 284.01 643.09 284.07 634.94 284.02 C 631.57 284.21 628.18 281.56 628.02 278.10 C 627.77 271.25 628.08 264.40 627.87 257.55 C 649.03 257.29 670.21 257.49 691.38 257.45 C 691.34 283.16 691.46 308.86 691.32 334.57 C 673.13 348.05 650.50 354.74 627.98 354.96 C 610.30 355.44 592.42 352.23 576.30 344.85 C 560.17 337.39 546.09 325.32 536.92 310.04 C 524.83 290.12 521.16 265.92 523.96 243.00 C 526.41 223.45 534.22 204.28 547.75 189.76 C 561.81 174.36 581.64 165.17 602.05 161.90 Z" />
<path fill="#02303a" opacity="1.00" d=" M 768.30 219.30 C 777.84 214.17 790.22 213.59 799.70 219.19 C 799.13 227.18 798.39 235.17 797.67 243.16 C 797.56 246.00 795.01 248.52 792.08 248.08 C 785.46 247.53 778.75 245.79 772.14 247.51 C 764.23 249.23 758.12 255.40 754.48 262.40 C 753.01 265.45 750.80 268.46 751.03 272.02 C 751.08 298.97 751.05 325.91 751.05 352.86 C 740.19 352.86 729.34 352.89 718.48 352.85 C 718.56 307.83 718.38 262.81 718.57 217.79 C 725.38 217.82 732.20 217.94 739.01 217.69 C 742.78 217.32 746.53 220.27 747.03 224.02 C 747.70 229.73 748.43 235.43 749.14 241.13 C 753.72 232.56 759.78 224.28 768.30 219.30 Z" />
<path fill="#02303a" opacity="1.00" d=" M 811.89 236.47 C 826.58 223.16 846.13 215.30 866.00 215.32 C 878.84 214.87 892.25 218.40 901.96 227.13 C 912.95 236.76 917.81 251.70 918.03 265.99 C 918.07 294.97 918.04 323.95 918.04 352.93 C 911.07 352.50 903.81 353.96 897.06 351.87 C 891.34 348.95 891.59 341.51 889.43 336.25 C 881.62 343.13 873.07 349.65 862.93 352.57 C 852.54 355.57 841.28 355.98 830.80 353.23 C 821.31 350.80 812.73 344.23 808.79 335.15 C 805.34 326.99 804.46 317.57 807.04 309.05 C 810.53 297.97 820.42 290.26 830.71 285.77 C 848.27 278.41 867.51 276.29 886.39 275.76 C 886.25 267.88 887.44 259.53 883.64 252.25 C 881.01 245.58 874.02 241.49 867.07 241.00 C 856.53 240.03 846.28 243.81 837.57 249.50 C 832.81 252.87 825.49 254.77 820.86 250.19 C 817.08 246.21 814.71 241.13 811.89 236.47 M 849.28 301.36 C 844.36 303.13 839.66 306.44 837.51 311.36 C 835.14 317.40 836.46 325.29 842.01 329.17 C 848.15 333.34 856.06 333.12 863.09 331.92 C 872.29 330.38 880.13 324.61 886.39 317.95 C 886.37 310.39 886.39 302.82 886.38 295.26 C 873.88 295.96 861.08 296.85 849.28 301.36 Z" />
<path fill="#02303a" opacity="1.00" d=" M 1193.37 221.28 C 1207.34 215.36 1223.22 214.16 1237.95 217.75 C 1247.25 219.85 1256.01 224.45 1262.81 231.17 C 1273.94 241.94 1279.09 257.43 1280.00 272.60 L 1280.00 280.44 C 1279.59 282.71 1279.27 285.10 1278.10 287.13 C 1276.71 289.00 1274.26 289.53 1272.07 289.45 C 1244.23 289.43 1216.39 289.42 1188.55 289.46 C 1189.38 298.77 1191.36 308.38 1196.85 316.15 C 1200.85 321.97 1206.92 326.32 1213.74 328.18 C 1223.91 330.97 1235.01 330.02 1244.66 325.82 C 1249.32 323.95 1253.55 321.24 1258.03 319.01 C 1261.16 317.54 1265.54 317.10 1268.05 319.97 C 1271.64 324.16 1274.89 328.64 1278.35 332.94 C 1270.19 342.42 1258.88 348.80 1246.88 352.01 C 1228.08 356.83 1207.16 356.56 1189.74 347.26 C 1174.21 339.10 1163.42 323.55 1159.25 306.70 C 1154.60 288.44 1155.01 268.36 1163.02 251.07 C 1169.08 237.89 1180.04 227.05 1193.37 221.28 M 1199.68 246.79 C 1193.58 252.87 1190.02 261.23 1189.02 269.73 C 1209.51 269.82 1230.00 269.63 1250.48 269.89 C 1250.79 261.32 1247.96 252.38 1241.65 246.38 C 1230.29 235.84 1211.19 237.09 1199.68 246.79 Z" />
</g>
</svg>
