<?xml version="1.0" encoding="UTF-8" ?>
<!DOCTYPE svg PUBLIC "-//W3C//DTD SVG 1.1//EN" "http://www.w3.org/Graphics/SVG/1.1/DTD/svg11.dtd">
<svg width="200pt" height="200pt" viewBox="0 0 200 200" version="1.1" xmlns="http://www.w3.org/2000/svg">
<g id="#ffffffff">
<path fill="#ffffff" opacity="1.00" d=" M 0.00 0.00 L 200.00 0.00 L 200.00 200.00 L 0.00 200.00 L 0.00 0.00 M 62.50 10.67 L 62.73 11.04 C 54.96 24.21 47.45 37.54 39.71 50.72 C 39.08 52.11 37.56 53.69 38.81 55.17 C 46.65 68.96 54.71 82.63 62.51 96.44 C 62.93 96.22 63.78 95.80 64.20 95.59 C 65.60 91.79 67.89 88.43 69.87 84.93 C 75.78 74.62 81.78 64.36 87.65 54.03 C 104.13 53.58 120.62 54.08 137.10 53.79 C 128.80 68.03 120.58 82.32 112.39 96.63 C 97.26 96.69 82.11 96.66 66.98 96.63 C 65.40 96.56 63.86 96.89 62.51 97.72 C 65.55 100.81 67.32 104.80 69.49 108.48 C 75.49 118.86 81.49 129.25 87.49 139.63 C 104.20 139.74 120.91 139.47 137.61 139.77 L 137.38 139.40 C 144.80 127.06 151.77 114.45 159.10 102.06 C 160.07 100.37 161.14 98.71 161.82 96.88 C 161.04 94.37 159.47 92.21 158.20 89.93 C 151.23 77.88 144.29 65.82 137.34 53.76 C 129.03 39.39 120.85 24.93 112.36 10.67 C 95.74 10.73 79.12 10.72 62.50 10.67 M 3.16 162.36 C 3.17 171.17 3.16 179.99 3.17 188.80 C 4.65 188.79 6.14 188.78 7.62 188.77 C 7.61 184.78 7.61 180.78 7.66 176.79 C 11.63 176.79 15.60 176.79 19.57 176.78 C 19.67 180.77 19.66 184.76 19.65 188.75 C 21.18 188.76 22.70 188.78 24.23 188.80 C 24.25 179.99 24.23 171.18 24.24 162.37 C 22.71 162.38 21.18 162.39 19.64 162.41 C 19.66 166.05 19.66 169.69 19.62 173.33 C 15.62 173.32 11.63 173.32 7.64 173.32 C 7.61 169.67 7.61 166.03 7.63 162.38 C 6.14 162.37 4.65 162.36 3.16 162.36 M 31.76 162.41 C 31.77 171.19 31.77 179.97 31.76 188.75 C 33.30 188.76 34.84 188.77 36.38 188.78 C 36.39 179.98 36.37 171.19 36.39 162.39 C 34.85 162.39 33.30 162.40 31.76 162.41 M 44.26 162.38 C 44.27 171.18 44.26 179.98 44.26 188.79 C 48.22 188.68 52.29 189.20 56.18 188.23 C 60.07 187.25 62.53 182.99 61.58 179.11 C 61.27 176.96 59.24 175.84 57.64 174.70 C 60.89 172.47 62.78 167.57 59.62 164.45 C 55.43 160.79 49.30 162.92 44.26 162.38 M 67.72 162.40 C 67.71 171.15 67.79 179.91 67.67 188.66 C 72.39 188.85 77.13 188.80 81.86 188.76 C 81.77 187.44 81.68 186.12 81.59 184.80 C 78.50 184.82 75.41 184.83 72.32 184.83 C 72.34 182.14 72.36 179.46 72.42 176.78 C 75.36 176.78 78.30 176.94 81.23 176.63 C 81.35 175.85 81.58 174.27 81.70 173.49 C 78.58 173.43 75.46 173.43 72.34 173.44 C 72.34 171.04 72.34 168.64 72.32 166.24 C 73.88 166.20 75.44 166.18 77.00 166.14 C 78.53 166.18 80.06 166.22 81.59 166.26 C 81.68 164.96 81.77 163.67 81.86 162.39 C 77.14 162.36 72.43 162.36 67.72 162.40 M 88.28 162.39 C 88.31 171.19 88.29 179.99 88.30 188.80 C 89.77 188.79 91.25 188.78 92.73 188.78 C 92.72 185.09 92.71 181.40 92.80 177.71 C 95.71 181.25 97.91 185.35 101.09 188.65 C 102.90 188.86 104.73 188.80 106.56 188.83 C 103.61 184.89 100.66 180.94 97.58 177.10 C 99.49 176.24 101.68 175.66 103.08 174.00 C 106.19 170.58 104.84 164.05 100.17 162.76 C 96.28 161.88 92.24 162.34 88.28 162.39 M 146.50 162.38 C 143.37 171.17 140.18 179.95 137.07 188.75 C 138.56 188.76 140.05 188.77 141.55 188.78 C 142.23 186.91 142.90 185.03 143.58 183.16 C 147.16 183.13 150.74 183.15 154.32 183.32 C 154.86 185.13 155.43 186.95 155.98 188.78 C 157.65 188.76 159.32 188.78 160.99 188.76 C 157.84 179.95 154.68 171.13 151.40 162.36 C 149.77 162.37 148.13 162.37 146.50 162.38 M 159.76 162.41 C 160.09 163.62 160.13 164.95 160.77 166.05 C 162.87 166.27 165.00 166.26 167.11 166.31 C 167.02 173.71 166.29 181.21 167.22 188.56 C 168.63 188.76 170.04 188.91 171.47 189.02 C 171.51 181.42 171.51 173.83 171.46 166.24 C 173.88 166.05 176.30 165.85 178.72 165.68 C 178.71 164.58 178.70 163.48 178.69 162.38 C 172.38 162.38 166.07 162.34 159.76 162.41 M 183.15 162.37 C 183.43 171.18 182.52 179.97 182.98 188.77 C 187.61 188.79 192.24 188.79 196.87 188.78 C 196.83 187.45 196.79 186.13 196.75 184.80 C 193.65 184.78 190.55 184.88 187.46 185.13 C 187.40 182.33 187.41 179.52 187.51 176.72 C 190.46 176.77 193.41 176.80 196.37 176.85 C 196.41 176.00 196.51 174.31 196.55 173.46 C 193.49 173.44 190.44 173.44 187.38 173.44 C 187.37 170.99 187.36 168.54 187.35 166.10 C 190.32 166.10 193.29 166.24 196.27 166.08 C 196.65 164.88 196.90 163.64 197.19 162.41 C 192.51 162.35 187.83 162.37 183.15 162.37 M 111.53 162.40 C 111.55 171.20 111.52 180.00 111.55 188.81 C 112.94 188.80 114.33 188.79 115.72 188.79 C 115.76 182.32 115.66 175.86 115.67 169.39 C 119.40 175.90 123.37 182.27 127.18 188.73 C 129.05 188.76 130.91 188.79 132.78 188.82 C 133.35 180.04 132.95 171.24 133.18 162.46 C 131.62 162.41 130.06 162.38 128.50 162.34 C 128.42 168.80 128.74 175.25 128.64 181.70 C 125.13 175.08 121.06 168.79 117.22 162.36 C 115.32 162.37 113.42 162.39 111.53 162.40 Z" />
<path fill="#ffffff" opacity="1.00" d=" M 48.45 173.61 C 48.44 170.93 48.45 168.25 48.49 165.57 C 51.45 165.64 57.31 165.43 56.48 169.97 C 55.87 173.66 51.31 173.47 48.45 173.61 Z" />
<path fill="#ffffff" opacity="1.00" d=" M 92.76 165.52 C 95.27 165.93 99.58 165.55 99.90 169.02 C 101.05 172.82 95.16 175.75 92.83 173.30 C 92.59 170.71 92.73 168.11 92.76 165.52 Z" />
<path fill="#ffffff" opacity="1.00" d=" M 144.83 179.41 C 146.16 175.59 147.55 171.79 148.89 167.98 C 150.11 171.86 151.47 175.69 152.82 179.53 C 150.16 179.51 147.49 179.47 144.83 179.41 Z" />
<path fill="#ffffff" opacity="1.00" d=" M 48.47 185.39 C 48.43 182.42 48.44 179.45 48.54 176.49 C 51.18 176.92 54.39 176.60 56.42 178.68 C 57.36 180.41 56.51 182.41 56.35 184.23 C 53.76 184.80 51.12 185.17 48.47 185.39 Z" />
</g>
<g id="#bcae79ff">
<path fill="#bcae79" opacity="1.00" d=" M 62.50 10.67 C 79.12 10.72 95.74 10.73 112.36 10.67 C 120.85 24.93 129.03 39.39 137.34 53.76 L 137.10 53.79 C 120.62 54.08 104.13 53.58 87.65 54.03 C 79.34 39.70 71.21 25.26 62.73 11.04 L 62.50 10.67 Z" />
<path fill="#bcae79" opacity="1.00" d=" M 66.98 96.63 C 82.11 96.66 97.26 96.69 112.39 96.63 C 120.92 110.77 128.76 125.32 137.38 139.40 L 137.61 139.77 C 120.91 139.47 104.20 139.74 87.49 139.63 C 81.49 129.25 75.49 118.86 69.49 108.48 C 67.32 104.80 65.55 100.81 62.51 97.72 C 63.86 96.89 65.40 96.56 66.98 96.63 Z" />
<path fill="#bcae79" opacity="1.00" d=" M 146.50 162.38 C 148.13 162.37 149.77 162.37 151.40 162.36 C 154.68 171.13 157.84 179.95 160.99 188.76 C 159.32 188.78 157.65 188.76 155.98 188.78 C 155.43 186.95 154.86 185.13 154.32 183.32 C 150.74 183.15 147.16 183.13 143.58 183.16 C 142.90 185.03 142.23 186.91 141.55 188.78 C 140.05 188.77 138.56 188.76 137.07 188.75 C 140.18 179.95 143.37 171.17 146.50 162.38 M 144.83 179.41 C 147.49 179.47 150.16 179.51 152.82 179.53 C 151.47 175.69 150.11 171.86 148.89 167.98 C 147.55 171.79 146.16 175.59 144.83 179.41 Z" />
<path fill="#bcae79" opacity="1.00" d=" M 159.76 162.41 C 166.07 162.34 172.38 162.38 178.69 162.38 C 178.70 163.48 178.71 164.58 178.72 165.68 C 176.30 165.85 173.88 166.05 171.46 166.24 C 171.51 173.83 171.51 181.42 171.47 189.02 C 170.04 188.91 168.63 188.76 167.22 188.56 C 166.29 181.21 167.02 173.71 167.11 166.31 C 165.00 166.26 162.87 166.27 160.77 166.05 C 160.13 164.95 160.09 163.62 159.76 162.41 Z" />
<path fill="#bcae79" opacity="1.00" d=" M 183.15 162.37 C 187.83 162.37 192.51 162.35 197.19 162.41 C 196.90 163.64 196.65 164.88 196.27 166.08 C 193.29 166.24 190.32 166.10 187.35 166.10 C 187.36 168.54 187.37 170.99 187.38 173.44 C 190.44 173.44 193.49 173.44 196.55 173.46 C 196.51 174.31 196.41 176.00 196.37 176.85 C 193.41 176.80 190.46 176.77 187.51 176.72 C 187.41 179.52 187.40 182.33 187.46 185.13 C 190.55 184.88 193.65 184.78 196.75 184.80 C 196.79 186.13 196.83 187.45 196.87 188.78 C 192.24 188.79 187.61 188.79 182.98 188.77 C 182.52 179.97 183.43 171.18 183.15 162.37 Z" />
<path fill="#bcae79" opacity="1.00" d=" M 111.53 162.40 C 113.42 162.39 115.32 162.37 117.22 162.36 C 121.06 168.79 125.13 175.08 128.64 181.70 C 128.74 175.25 128.42 168.80 128.50 162.34 C 130.06 162.38 131.62 162.41 133.18 162.46 C 132.95 171.24 133.35 180.04 132.78 188.82 C 130.91 188.79 129.05 188.76 127.18 188.73 C 123.37 182.27 119.40 175.90 115.67 169.39 C 115.66 175.86 115.76 182.32 115.72 188.79 C 114.33 188.79 112.94 188.80 111.55 188.81 C 111.52 180.00 111.55 171.20 111.53 162.40 Z" />
</g>
<g id="#5a676dff">
<path fill="#5a676d" opacity="1.00" d=" M 62.73 11.04 C 71.21 25.26 79.34 39.70 87.65 54.03 C 81.78 64.36 75.78 74.62 69.87 84.93 C 67.89 88.43 65.60 91.79 64.20 95.59 C 63.78 95.80 62.93 96.22 62.51 96.44 C 54.71 82.63 46.65 68.96 38.81 55.17 C 37.56 53.69 39.08 52.11 39.71 50.72 C 47.45 37.54 54.96 24.21 62.73 11.04 Z" />
<path fill="#5a676d" opacity="1.00" d=" M 137.10 53.79 L 137.34 53.76 C 144.29 65.82 151.23 77.88 158.20 89.93 C 159.47 92.21 161.04 94.37 161.82 96.88 C 161.14 98.71 160.07 100.37 159.10 102.06 C 151.77 114.45 144.80 127.06 137.38 139.40 C 128.76 125.32 120.92 110.77 112.39 96.63 C 120.58 82.32 128.80 68.03 137.10 53.79 Z" />
<path fill="#5a676d" opacity="1.00" d=" M 3.16 162.36 C 4.65 162.36 6.14 162.37 7.63 162.38 C 7.61 166.03 7.61 169.67 7.64 173.32 C 11.63 173.32 15.62 173.32 19.62 173.33 C 19.66 169.69 19.66 166.05 19.64 162.41 C 21.18 162.39 22.71 162.38 24.24 162.37 C 24.23 171.18 24.25 179.99 24.23 188.80 C 22.70 188.78 21.18 188.76 19.65 188.75 C 19.66 184.76 19.67 180.77 19.57 176.78 C 15.60 176.79 11.63 176.79 7.66 176.79 C 7.61 180.78 7.61 184.78 7.62 188.77 C 6.14 188.78 4.65 188.79 3.17 188.80 C 3.16 179.99 3.17 171.17 3.16 162.36 Z" />
<path fill="#5a676d" opacity="1.00" d=" M 31.76 162.41 C 33.30 162.40 34.85 162.39 36.39 162.39 C 36.37 171.19 36.39 179.98 36.38 188.78 C 34.84 188.77 33.30 188.76 31.76 188.75 C 31.77 179.97 31.77 171.19 31.76 162.41 Z" />
<path fill="#5a676d" opacity="1.00" d=" M 44.26 162.38 C 49.30 162.92 55.43 160.79 59.62 164.45 C 62.78 167.57 60.89 172.47 57.64 174.70 C 59.24 175.84 61.27 176.96 61.58 179.11 C 62.53 182.99 60.07 187.25 56.18 188.23 C 52.29 189.20 48.22 188.68 44.26 188.79 C 44.26 179.98 44.27 171.18 44.26 162.38 M 48.45 173.61 C 51.31 173.47 55.87 173.66 56.48 169.97 C 57.31 165.43 51.45 165.64 48.49 165.57 C 48.45 168.25 48.44 170.93 48.45 173.61 M 48.47 185.39 C 51.12 185.17 53.76 184.80 56.35 184.23 C 56.51 182.41 57.36 180.41 56.42 178.68 C 54.39 176.60 51.18 176.92 48.54 176.49 C 48.44 179.45 48.43 182.42 48.47 185.39 Z" />
<path fill="#5a676d" opacity="1.00" d=" M 67.72 162.40 C 72.43 162.36 77.14 162.36 81.86 162.39 C 81.77 163.67 81.68 164.96 81.59 166.26 C 80.06 166.22 78.53 166.18 77.00 166.14 C 75.44 166.18 73.88 166.20 72.32 166.24 C 72.34 168.64 72.34 171.04 72.34 173.44 C 75.46 173.43 78.58 173.43 81.70 173.49 C 81.58 174.27 81.35 175.85 81.23 176.63 C 78.30 176.94 75.36 176.78 72.42 176.78 C 72.36 179.46 72.34 182.14 72.32 184.83 C 75.41 184.83 78.50 184.82 81.59 184.80 C 81.68 186.12 81.77 187.44 81.86 188.76 C 77.13 188.80 72.39 188.85 67.67 188.66 C 67.79 179.91 67.71 171.15 67.72 162.40 Z" />
<path fill="#5a676d" opacity="1.00" d=" M 88.28 162.39 C 92.24 162.34 96.28 161.88 100.17 162.76 C 104.84 164.05 106.19 170.58 103.08 174.00 C 101.68 175.66 99.49 176.24 97.58 177.10 C 100.66 180.94 103.61 184.89 106.56 188.83 C 104.73 188.80 102.90 188.86 101.09 188.65 C 97.91 185.35 95.71 181.25 92.80 177.71 C 92.71 181.40 92.72 185.09 92.73 188.78 C 91.25 188.78 89.77 188.79 88.30 188.80 C 88.29 179.99 88.31 171.19 88.28 162.39 M 92.76 165.52 C 92.73 168.11 92.59 170.71 92.83 173.30 C 95.16 175.75 101.05 172.82 99.90 169.02 C 99.58 165.55 95.27 165.93 92.76 165.52 Z" />
</g>
</svg>
