<?xml version="1.0" encoding="UTF-8" ?>
<!DOCTYPE svg PUBLIC "-//W3C//DTD SVG 1.1//EN" "http://www.w3.org/Graphics/SVG/1.1/DTD/svg11.dtd">
<svg width="1280pt" height="829pt" viewBox="0 0 1280 829" version="1.1" xmlns="http://www.w3.org/2000/svg">
<g id="#000000ff">
<path fill="#000000" opacity="1.00" d=" M 138.08 0.00 L 227.06 0.00 C 227.05 12.40 227.07 24.80 227.05 37.20 C 209.79 37.22 192.54 37.19 175.29 37.22 C 175.40 49.65 175.09 62.09 175.45 74.52 C 192.61 74.24 209.78 74.53 226.95 74.37 C 227.10 86.81 227.17 99.25 226.92 111.69 C 197.32 111.54 167.73 111.63 138.13 111.64 C 138.03 74.43 138.12 37.21 138.08 0.00 Z" />
<path fill="#000000" opacity="1.00" d=" M 244.85 0.00 L 333.81 0.00 C 333.84 10.76 333.77 21.52 333.86 32.28 C 316.60 32.43 299.34 32.34 282.09 32.33 C 282.07 34.49 282.06 36.66 282.06 38.83 C 299.31 38.82 316.56 38.79 333.82 38.85 C 333.83 63.63 333.79 88.41 333.83 113.19 C 304.18 113.29 274.52 113.21 244.86 113.22 C 244.88 101.89 244.76 90.56 244.92 79.23 C 262.10 79.33 279.29 79.16 296.47 79.32 C 296.56 77.20 296.65 75.09 296.74 72.97 C 279.47 72.56 262.17 72.90 244.89 72.80 C 244.79 48.54 244.87 24.27 244.85 0.00 Z" />
<path fill="#000000" opacity="1.00" d=" M 351.63 0.00 L 440.57 0.00 C 440.50 10.80 440.73 21.61 440.46 32.41 C 423.29 32.23 406.11 32.47 388.94 32.29 C 388.87 34.46 388.82 36.64 388.77 38.82 C 406.07 38.93 423.37 38.61 440.66 38.97 C 440.39 63.75 440.79 88.52 440.46 113.29 C 410.85 113.15 381.24 113.28 351.63 113.23 C 351.63 101.89 351.52 90.55 351.69 79.21 C 368.91 79.31 386.14 79.24 403.36 79.25 C 403.36 77.10 403.37 74.95 403.37 72.80 C 386.14 72.81 368.91 72.74 351.68 72.84 C 351.53 48.56 351.62 24.28 351.63 0.00 Z" />
<path fill="#000000" opacity="1.00" d=" M 747.84 0.00 L 785.17 0.00 C 785.17 12.29 785.18 24.58 785.17 36.87 C 796.54 36.89 807.92 36.87 819.30 36.88 C 819.33 24.59 819.32 12.29 819.31 0.00 L 856.65 0.00 C 856.65 37.23 856.65 74.45 856.65 111.68 C 844.20 111.69 831.76 111.68 819.33 111.69 C 819.25 99.20 819.43 86.72 819.23 74.24 C 807.88 74.34 796.54 74.27 785.19 74.28 C 785.09 86.76 785.30 99.24 785.08 111.72 C 772.70 111.67 760.32 111.65 747.94 111.73 C 747.70 74.49 747.90 37.24 747.84 0.00 Z" />
<path fill="#000000" opacity="1.00" d=" M 872.87 0.00 L 975.95 0.00 C 975.94 12.34 975.96 24.69 975.94 37.03 C 964.98 37.05 954.03 37.03 943.07 37.04 C 942.99 61.94 943.23 86.84 942.95 111.73 C 930.60 111.67 918.24 111.62 905.88 111.77 C 905.55 86.87 905.80 61.97 905.76 37.07 C 894.80 36.99 883.84 37.07 872.88 37.03 C 872.86 24.69 872.87 12.34 872.87 0.00 Z" />
<path fill="#000000" opacity="1.00" d=" M 992.29 0.00 L 1031.18 0.00 C 1039.26 13.00 1047.11 26.15 1055.16 39.17 C 1063.26 26.18 1071.04 12.98 1079.16 0.00 L 1118.03 0.00 C 1117.99 37.24 1118.11 74.48 1117.97 111.72 C 1105.62 111.69 1093.27 111.68 1080.92 111.73 C 1080.72 93.38 1080.96 75.03 1080.80 56.69 C 1071.71 69.65 1063.95 83.54 1054.58 96.29 C 1046.14 83.06 1037.75 69.80 1028.94 56.82 C 1028.67 75.11 1028.92 93.41 1028.82 111.71 C 1016.64 111.69 1004.47 111.71 992.30 111.69 C 992.29 74.46 992.31 37.23 992.29 0.00 Z" />
<path fill="#000000" opacity="1.00" d=" M 1136.63 0.00 L 1173.95 0.00 C 1173.98 24.93 1173.89 49.85 1174.00 74.78 C 1191.47 74.76 1208.95 74.76 1226.43 74.77 C 1226.51 87.03 1226.33 99.30 1226.53 111.56 C 1196.52 111.74 1166.49 111.84 1136.49 111.51 C 1136.77 74.34 1136.50 37.17 1136.63 0.00 Z" />
</g>
<g id="#264de4ff">
<path fill="#264de4" opacity="1.00" d=" M 0.00 162.77 C 195.60 162.82 391.20 162.66 586.80 162.85 C 568.82 362.44 551.21 562.06 533.24 761.64 C 453.15 783.80 373.07 806.01 293.00 828.24 C 213.15 805.88 133.17 783.95 53.32 761.57 C 48.83 709.39 44.04 657.23 39.43 605.06 C 26.26 457.96 13.32 310.83 0.00 163.74 L 0.00 162.77 M 293.31 212.12 C 293.00 236.47 293.38 260.84 293.16 285.20 C 231.83 285.20 170.51 285.18 109.19 285.21 C 111.52 309.70 113.43 334.24 116.02 358.70 C 175.08 358.55 234.13 358.67 293.18 358.64 C 293.19 383.71 293.30 408.79 293.14 433.86 C 236.24 433.87 179.33 433.86 122.43 433.87 C 124.58 458.35 126.81 482.81 129.00 507.29 C 183.70 507.32 238.40 507.29 293.10 507.30 C 293.30 546.39 293.23 585.49 293.14 624.58 C 265.78 617.57 238.59 609.84 211.28 602.66 C 209.47 583.12 207.78 563.58 206.01 544.04 C 181.42 544.07 156.83 543.95 132.24 544.09 C 135.78 582.52 139.08 620.96 142.59 659.39 C 192.78 673.27 242.93 687.29 293.13 701.13 C 293.34 726.39 293.09 751.66 293.20 776.93 C 300.95 775.64 308.40 772.93 316.02 771.01 C 372.15 755.58 428.18 739.79 484.33 724.44 C 485.45 723.99 486.96 723.91 487.62 722.75 C 502.57 555.05 517.53 387.35 532.52 219.65 C 532.93 217.10 533.09 214.52 532.92 211.95 C 454.97 211.65 377.01 211.96 299.06 211.78 C 297.13 211.78 295.22 211.94 293.31 212.12 Z" />
</g>
<g id="#e44d26ff">
<path fill="#e44d26" opacity="1.00" d=" M 693.21 162.85 C 888.80 162.66 1084.40 162.82 1280.00 162.77 L 1280.00 163.73 C 1271.06 261.52 1262.51 359.34 1253.72 457.15 C 1244.68 558.61 1235.56 660.07 1226.58 761.54 C 1149.75 782.97 1072.85 804.17 995.99 825.52 C 992.92 826.63 989.18 826.58 986.76 829.00 L 986.27 829.00 C 984.71 827.95 982.97 827.21 981.18 826.74 C 903.01 805.19 824.94 783.24 746.74 761.80 C 745.82 753.68 745.26 745.52 744.48 737.39 C 727.37 545.87 710.40 354.35 693.21 162.85 M 987.01 212.05 C 986.85 214.05 986.74 216.06 986.79 218.08 C 986.94 240.45 986.53 262.83 986.98 285.20 L 986.15 285.20 C 924.88 285.32 863.60 284.96 802.35 285.37 C 809.16 359.31 815.61 433.28 822.21 507.24 C 876.91 507.37 931.61 507.27 986.31 507.29 C 987.20 512.82 986.63 518.43 986.81 524.00 C 986.69 556.33 986.88 588.67 986.76 621.00 C 986.68 622.21 987.01 623.32 987.73 624.33 C 987.34 624.42 986.55 624.62 986.16 624.71 C 958.96 617.24 931.69 610.00 904.48 602.60 C 902.76 583.07 901.01 563.55 899.26 544.03 C 874.69 544.02 850.13 544.06 825.57 544.01 C 828.85 582.44 832.48 620.84 835.75 659.27 C 885.89 673.37 936.12 687.17 986.31 701.13 C 987.26 709.04 986.51 717.05 986.83 725.00 C 986.87 742.32 986.53 759.66 986.97 776.97 C 1009.83 771.23 1032.41 764.38 1055.20 758.35 C 1096.87 746.49 1138.81 735.48 1180.38 723.34 C 1181.93 716.93 1181.69 710.17 1182.55 703.62 C 1196.33 549.45 1210.05 395.27 1223.88 241.09 C 1224.47 231.38 1226.16 221.74 1226.10 212.01 C 1223.39 211.82 1220.69 211.75 1217.99 211.83 C 1157.67 211.86 1097.35 211.82 1037.03 211.85 C 1020.36 211.98 1003.67 211.53 987.01 212.05 Z" />
<path fill="#e44d26" opacity="1.00" d=" M 882.72 358.65 C 917.17 358.62 951.61 358.64 986.05 358.64 L 986.82 358.64 C 986.76 379.77 986.77 400.90 986.77 422.02 C 986.84 425.98 986.90 429.95 986.29 433.87 C 954.00 433.83 921.70 433.91 889.40 433.83 C 887.22 408.77 884.92 383.71 882.72 358.65 Z" />
</g>
<g id="#2965f1ff">
<path fill="#2965f1" opacity="1.00" d=" M 293.31 212.12 C 295.22 211.94 297.13 211.78 299.06 211.78 C 377.01 211.96 454.97 211.65 532.92 211.95 C 533.09 214.52 532.93 217.10 532.52 219.65 C 517.53 387.35 502.57 555.05 487.62 722.75 C 486.96 723.91 485.45 723.99 484.33 724.44 C 428.18 739.79 372.15 755.58 316.02 771.01 C 308.40 772.93 300.95 775.64 293.20 776.93 C 293.09 751.66 293.34 726.39 293.13 701.13 C 343.30 687.25 393.44 673.26 443.64 659.46 C 454.84 534.71 466.06 409.96 477.06 285.19 C 415.76 285.21 354.46 285.20 293.16 285.20 C 293.38 260.84 293.00 236.47 293.31 212.12 Z" />
<path fill="#2965f1" opacity="1.00" d=" M 293.18 358.64 C 327.66 358.63 362.13 358.63 396.61 358.64 C 394.41 383.72 392.18 408.80 389.93 433.87 C 357.66 433.85 325.40 433.87 293.14 433.86 C 293.30 408.79 293.19 383.71 293.18 358.64 Z" />
<path fill="#2965f1" opacity="1.00" d=" M 293.10 507.30 C 323.28 507.37 353.46 507.15 383.63 507.41 C 380.54 539.16 378.09 570.97 374.91 602.72 C 348.26 609.78 321.63 616.95 295.05 624.28 C 294.58 624.35 293.62 624.50 293.14 624.58 C 293.23 585.49 293.30 546.39 293.10 507.30 Z" />
</g>
<g id="#f16529ff">
<path fill="#f16529" opacity="1.00" d=" M 987.01 212.05 C 1003.67 211.53 1020.36 211.98 1037.03 211.85 C 1097.35 211.82 1157.67 211.86 1217.99 211.83 C 1220.69 211.75 1223.39 211.82 1226.10 212.01 C 1226.16 221.74 1224.47 231.38 1223.88 241.09 C 1210.05 395.27 1196.33 549.45 1182.55 703.62 C 1181.69 710.17 1181.93 716.93 1180.38 723.34 C 1138.81 735.48 1096.87 746.49 1055.20 758.35 C 1032.41 764.38 1009.83 771.23 986.97 776.97 C 986.53 759.66 986.87 742.32 986.83 725.00 C 986.51 717.05 987.26 709.04 986.31 701.13 C 1036.49 687.33 1086.59 673.20 1136.81 659.54 C 1143.84 584.35 1150.25 509.09 1157.10 433.87 C 1100.17 433.86 1043.23 433.86 986.29 433.87 C 986.90 429.95 986.84 425.98 986.77 422.02 C 986.77 400.90 986.76 379.77 986.82 358.64 C 1045.80 358.65 1104.78 358.61 1163.77 358.65 C 1165.95 334.15 1168.32 309.66 1170.27 285.13 C 1109.18 285.29 1048.08 285.16 986.98 285.20 C 986.53 262.83 986.94 240.45 986.79 218.08 C 986.74 216.06 986.85 214.05 987.01 212.05 Z" />
<path fill="#f16529" opacity="1.00" d=" M 986.31 507.29 C 1016.48 507.30 1046.65 507.30 1076.81 507.29 C 1073.92 539.09 1071.26 570.91 1068.18 602.69 C 1041.33 609.77 1014.56 617.17 987.73 624.33 C 987.01 623.32 986.68 622.21 986.76 621.00 C 986.88 588.67 986.69 556.33 986.81 524.00 C 986.63 518.43 987.20 512.82 986.31 507.29 Z" />
</g>
<g id="#ebebebff">
<path fill="#ebebeb" opacity="1.00" d=" M 109.19 285.21 C 170.51 285.18 231.83 285.20 293.16 285.20 C 293.23 309.68 293.20 334.16 293.18 358.64 C 234.13 358.67 175.08 358.55 116.02 358.70 C 113.43 334.24 111.52 309.70 109.19 285.21 Z" />
<path fill="#ebebeb" opacity="1.00" d=" M 802.35 285.37 C 863.60 284.96 924.88 285.32 986.15 285.20 C 986.21 309.67 986.47 334.16 986.05 358.64 C 951.61 358.64 917.17 358.62 882.72 358.65 C 884.92 383.71 887.22 408.77 889.40 433.83 C 921.70 433.91 954.00 433.83 986.29 433.87 C 986.22 458.35 986.22 482.82 986.31 507.29 C 931.61 507.27 876.91 507.37 822.21 507.24 C 815.61 433.28 809.16 359.31 802.35 285.37 Z" />
<path fill="#ebebeb" opacity="1.00" d=" M 122.43 433.87 C 179.33 433.86 236.24 433.87 293.14 433.86 C 293.22 458.34 293.31 482.82 293.10 507.30 C 238.40 507.29 183.70 507.32 129.00 507.29 C 126.81 482.81 124.58 458.35 122.43 433.87 Z" />
<path fill="#ebebeb" opacity="1.00" d=" M 132.24 544.09 C 156.83 543.95 181.42 544.07 206.01 544.04 C 207.78 563.58 209.47 583.12 211.28 602.66 C 238.59 609.84 265.78 617.57 293.14 624.58 C 293.62 624.50 294.58 624.35 295.05 624.28 C 294.61 624.51 293.71 624.98 293.26 625.22 C 293.14 650.52 293.29 675.83 293.13 701.13 C 242.93 687.29 192.78 673.27 142.59 659.39 C 139.08 620.96 135.78 582.52 132.24 544.09 Z" />
<path fill="#ebebeb" opacity="1.00" d=" M 825.57 544.01 C 850.13 544.06 874.69 544.02 899.26 544.03 C 901.01 563.55 902.76 583.07 904.48 602.60 C 931.69 610.00 958.96 617.24 986.16 624.71 C 986.39 650.18 986.12 675.66 986.31 701.13 C 936.12 687.17 885.89 673.37 835.75 659.27 C 832.48 620.84 828.85 582.44 825.57 544.01 Z" />
</g>
<g id="#ffffffff">
<path fill="#ffffff" opacity="1.00" d=" M 293.16 285.20 C 354.46 285.20 415.76 285.21 477.06 285.19 C 466.06 409.96 454.84 534.71 443.64 659.46 C 393.44 673.26 343.30 687.25 293.13 701.13 C 293.29 675.83 293.14 650.52 293.26 625.22 C 293.71 624.98 294.61 624.51 295.05 624.28 C 321.63 616.95 348.26 609.78 374.91 602.72 C 378.09 570.97 380.54 539.16 383.63 507.41 C 353.46 507.15 323.28 507.37 293.10 507.30 C 293.31 482.82 293.22 458.34 293.14 433.86 C 325.40 433.87 357.66 433.85 389.93 433.87 C 392.18 408.80 394.41 383.72 396.61 358.64 C 362.13 358.63 327.66 358.63 293.18 358.64 C 293.20 334.16 293.23 309.68 293.16 285.20 Z" />
<path fill="#ffffff" opacity="1.00" d=" M 986.15 285.20 L 986.98 285.20 C 1048.08 285.16 1109.18 285.29 1170.27 285.13 C 1168.32 309.66 1165.95 334.15 1163.77 358.65 C 1104.78 358.61 1045.80 358.65 986.82 358.64 L 986.05 358.64 C 986.47 334.16 986.21 309.67 986.15 285.20 Z" />
<path fill="#ffffff" opacity="1.00" d=" M 986.29 433.87 C 1043.23 433.86 1100.17 433.86 1157.10 433.87 C 1150.25 509.09 1143.84 584.35 1136.81 659.54 C 1086.59 673.20 1036.49 687.33 986.31 701.13 C 986.12 675.66 986.39 650.18 986.16 624.71 C 986.55 624.62 987.34 624.42 987.73 624.33 C 1014.56 617.17 1041.33 609.77 1068.18 602.69 C 1071.26 570.91 1073.92 539.09 1076.81 507.29 C 1046.65 507.30 1016.48 507.30 986.31 507.29 C 986.22 482.82 986.22 458.35 986.29 433.87 Z" />
</g>
</svg>
