<?xml version="1.0" encoding="UTF-8" ?>
<!DOCTYPE svg PUBLIC "-//W3C//DTD SVG 1.1//EN" "http://www.w3.org/Graphics/SVG/1.1/DTD/svg11.dtd">
<svg width="1280pt" height="539pt" viewBox="0 0 1280 539" version="1.1" xmlns="http://www.w3.org/2000/svg">
<g id="#2684ffff">
<path fill="#2684ff" opacity="1.00" d=" M 206.46 50.54 C 276.29 50.55 346.11 50.49 415.93 50.57 C 425.26 50.38 433.76 58.57 433.49 67.98 C 433.54 135.08 433.49 202.19 433.51 269.29 C 410.78 269.27 388.11 261.03 370.95 246.07 C 352.08 229.93 340.11 205.84 339.39 180.95 C 339.22 167.97 339.36 154.98 339.32 142.00 C 325.87 141.98 312.41 142.04 298.96 141.97 C 274.70 141.65 250.70 131.68 233.49 114.54 C 216.47 97.90 206.42 74.38 206.46 50.54 Z" />
<path fill="#2684ff" opacity="1.00" d=" M 103.22 151.41 C 120.98 151.41 138.74 151.37 156.51 151.43 C 159.03 154.60 161.92 157.48 165.10 160.00 C 170.27 164.09 174.35 169.33 179.37 173.58 C 182.97 176.64 186.53 179.76 189.73 183.24 C 195.01 189.02 201.54 193.46 206.80 199.26 C 212.34 205.41 219.26 210.11 224.79 216.27 C 229.88 221.86 236.19 226.17 241.28 231.78 C 246.70 237.71 253.37 242.34 258.79 248.28 C 263.88 253.87 270.12 258.23 275.26 263.75 C 280.86 269.84 287.71 274.62 293.26 280.77 C 298.18 286.20 304.18 290.48 309.29 295.72 C 315.86 302.73 323.48 308.63 330.25 315.43 C 330.27 333.87 330.26 352.30 330.26 370.74 C 307.45 370.72 284.70 362.42 267.52 347.36 C 248.66 331.15 236.75 306.98 236.14 282.04 C 235.99 268.98 236.11 255.92 236.08 242.86 C 222.71 242.85 209.33 242.91 195.96 242.84 C 171.71 242.59 147.69 232.68 130.44 215.59 C 113.30 198.94 103.17 175.33 103.22 151.41 Z" />
<path fill="#2684ff" opacity="1.00" d=" M 0.00 252.83 C 13.23 252.83 26.46 252.83 39.69 252.83 C 47.92 261.75 56.73 270.11 65.26 278.74 C 81.75 295.26 98.26 311.76 114.78 328.24 C 120.00 333.57 125.49 338.64 130.34 344.33 C 116.93 344.26 103.51 344.49 90.10 344.21 C 63.33 343.26 37.22 330.38 20.36 309.54 C 8.06 294.65 0.91 275.73 0.00 256.46 L 0.00 252.83 Z" />
<path fill="#2684ff" opacity="1.00" d=" M 132.83 346.63 C 148.28 361.35 163.07 376.77 178.26 391.77 C 194.57 407.87 210.52 424.34 227.02 440.25 C 227.02 450.71 227.01 461.16 227.02 471.62 C 201.97 471.59 177.02 461.53 159.39 443.67 C 143.36 427.74 133.50 405.65 132.90 383.01 C 132.72 370.89 132.88 358.75 132.83 346.63 Z" />
</g>
<g id="#253858ff">
<path fill="#253858" opacity="1.00" d=" M 783.46 85.70 C 792.81 84.25 803.06 85.50 810.89 91.15 C 816.99 95.50 820.78 102.57 821.85 109.91 C 823.24 118.88 821.79 128.73 816.07 136.02 C 811.05 142.53 803.05 146.19 795.00 147.01 C 785.60 148.02 775.37 146.17 768.04 139.86 C 762.01 134.73 758.87 126.85 758.44 119.06 C 757.85 110.96 759.68 102.38 764.92 96.00 C 769.47 90.31 776.36 86.89 783.46 85.70 Z" />
<path fill="#253858" opacity="1.00" d=" M 655.09 103.29 C 670.99 103.30 686.89 103.30 702.79 103.29 C 702.75 183.20 702.87 263.10 702.73 343.00 C 702.26 365.44 698.04 388.61 685.73 407.77 C 676.63 422.11 662.51 433.06 646.48 438.62 C 626.52 445.71 604.85 445.46 584.06 443.17 C 572.91 441.85 561.87 439.45 551.24 435.80 C 551.25 420.77 551.25 405.73 551.24 390.69 C 568.27 397.33 586.73 399.84 604.95 399.35 C 617.64 398.87 631.01 395.48 640.35 386.39 C 651.88 375.23 654.98 358.37 655.08 342.96 C 655.11 263.07 655.08 183.18 655.09 103.29 Z" />
<path fill="#253858" opacity="1.00" d=" M 1126.26 181.28 C 1150.69 176.63 1177.25 178.50 1199.33 190.65 C 1215.00 199.19 1227.15 213.27 1234.74 229.31 C 1234.68 214.28 1234.73 199.26 1234.71 184.23 C 1249.81 184.24 1264.90 184.23 1280.00 184.24 L 1280.00 442.27 C 1264.90 442.27 1249.81 442.26 1234.71 442.27 C 1234.73 426.85 1234.68 411.43 1234.74 396.02 C 1226.08 413.33 1212.14 428.13 1194.67 436.67 C 1173.57 447.10 1149.08 449.51 1125.99 446.05 C 1102.99 442.60 1081.51 430.17 1067.27 411.76 C 1047.61 386.64 1040.01 354.24 1038.70 322.91 C 1037.25 288.17 1043.65 251.74 1063.71 222.68 C 1078.12 201.41 1100.99 186.10 1126.26 181.28 M 1145.54 221.79 C 1134.37 223.54 1123.40 227.51 1114.28 234.29 C 1103.91 241.87 1096.36 252.83 1091.72 264.72 C 1085.83 279.74 1083.90 296.00 1083.79 312.03 C 1083.83 325.82 1085.06 339.70 1088.57 353.06 C 1092.00 366.11 1097.94 378.85 1107.60 388.46 C 1117.72 398.71 1131.75 404.38 1145.93 405.87 C 1167.20 408.26 1190.07 403.84 1206.96 390.10 C 1220.76 379.06 1229.13 362.38 1232.22 345.18 C 1234.80 331.95 1233.97 318.42 1234.11 305.03 C 1234.21 289.25 1232.06 273.12 1225.24 258.74 C 1219.35 246.10 1209.46 235.25 1197.04 228.81 C 1181.35 220.49 1162.85 219.19 1145.54 221.79 Z" />
<path fill="#253858" opacity="1.00" d=" M 959.42 192.40 C 977.64 181.53 999.52 178.96 1020.37 180.11 C 1020.38 194.57 1020.37 209.04 1020.38 223.51 C 999.99 221.66 978.54 221.35 959.37 229.51 C 946.41 234.95 935.88 245.80 931.14 259.06 C 925.43 273.67 926.16 289.60 926.19 304.99 C 926.19 350.75 926.19 396.51 926.19 442.27 C 911.29 442.26 896.40 442.27 881.51 442.27 C 881.51 356.25 881.50 270.24 881.51 184.23 C 896.40 184.24 911.29 184.24 926.19 184.23 C 926.19 199.24 926.19 214.26 926.19 229.27 C 933.88 214.44 944.83 200.89 959.42 192.40 Z" />
<path fill="#253858" opacity="1.00" d=" M 766.79 184.23 C 782.09 184.24 797.39 184.23 812.69 184.23 C 812.67 270.25 812.69 356.26 812.68 442.27 C 797.38 442.26 782.09 442.27 766.79 442.27 C 766.79 356.25 766.79 270.24 766.79 184.23 Z" />
</g>
<g id="#1e79f4ff">
<path fill="#1e79f4" opacity="1.00" d=" M 156.51 151.43 C 169.50 151.36 182.49 151.41 195.48 151.42 C 200.19 157.75 207.03 161.91 212.26 167.75 C 217.51 173.51 223.96 178.01 229.23 183.75 C 234.69 189.65 241.32 194.32 246.75 200.26 C 252.33 206.37 259.16 211.16 264.75 217.26 C 269.86 222.85 276.14 227.19 281.25 232.79 C 286.64 238.74 293.32 243.31 298.74 249.21 C 303.90 254.75 310.12 259.17 315.23 264.75 C 319.78 269.72 325.01 273.99 330.27 278.18 C 330.24 290.60 330.28 303.01 330.25 315.43 C 323.48 308.63 315.86 302.73 309.29 295.72 C 304.18 290.48 298.18 286.20 293.26 280.77 C 287.71 274.62 280.86 269.84 275.26 263.75 C 270.12 258.23 263.88 253.87 258.79 248.28 C 253.37 242.34 246.70 237.71 241.28 231.78 C 236.19 226.17 229.88 221.86 224.79 216.27 C 219.26 210.11 212.34 205.41 206.80 199.26 C 201.54 193.46 195.01 189.02 189.73 183.24 C 186.53 179.76 182.97 176.64 179.37 173.58 C 174.35 169.33 170.27 164.09 165.10 160.00 C 161.92 157.48 159.03 154.60 156.51 151.43 Z" />
</g>
<g id="#146ce7ff">
<path fill="#146ce7" opacity="1.00" d=" M 195.48 151.42 C 208.89 151.35 222.30 151.44 235.71 151.40 C 239.44 154.98 243.17 158.57 246.74 162.31 C 251.63 167.45 257.49 171.55 262.29 176.77 C 265.80 180.59 269.63 184.10 273.61 187.43 C 278.69 191.65 282.80 196.90 287.91 201.10 C 295.23 207.05 301.24 214.43 308.65 220.30 C 315.63 227.21 322.61 234.12 330.27 240.30 C 330.25 252.93 330.27 265.55 330.27 278.18 C 325.01 273.99 319.78 269.72 315.23 264.75 C 310.12 259.17 303.90 254.75 298.74 249.21 C 293.32 243.31 286.64 238.74 281.25 232.79 C 276.14 227.19 269.86 222.85 264.75 217.26 C 259.16 211.16 252.33 206.37 246.75 200.26 C 241.32 194.32 234.69 189.65 229.23 183.75 C 223.96 178.01 217.51 173.51 212.26 167.75 C 207.03 161.91 200.19 157.75 195.48 151.42 Z" />
</g>
<g id="#0a5fd9ff">
<path fill="#0a5fd9" opacity="1.00" d=" M 235.71 151.40 C 248.91 151.40 262.12 151.38 275.32 151.43 C 279.78 156.10 284.91 160.06 289.26 164.84 C 293.94 169.84 299.60 173.80 304.30 178.79 C 307.37 182.06 310.60 185.19 314.07 188.05 C 319.80 192.79 324.55 198.57 330.26 203.34 C 330.26 215.66 330.27 227.98 330.27 240.30 C 322.61 234.12 315.63 227.21 308.65 220.30 C 301.24 214.43 295.23 207.05 287.91 201.10 C 282.80 196.90 278.69 191.65 273.61 187.43 C 269.63 184.10 265.80 180.59 262.29 176.77 C 257.49 171.55 251.63 167.45 246.74 162.31 C 243.17 158.57 239.44 154.98 235.71 151.40 Z" />
</g>
<g id="#0053cdff">
<path fill="#0053cd" opacity="1.00" d=" M 275.32 151.43 C 287.55 151.36 299.78 151.40 312.00 151.41 C 319.74 151.19 327.21 156.48 329.47 163.89 C 330.55 167.47 330.23 171.25 330.28 174.94 C 330.24 184.41 330.28 193.87 330.26 203.34 C 324.55 198.57 319.80 192.79 314.07 188.05 C 310.60 185.19 307.37 182.06 304.30 178.79 C 299.60 173.80 293.94 169.84 289.26 164.84 C 284.91 160.06 279.78 156.10 275.32 151.43 Z" />
</g>
<g id="#207bf6ff">
<path fill="#207bf6" opacity="1.00" d=" M 39.69 252.83 C 51.35 252.82 63.02 252.83 74.68 252.84 C 80.43 259.24 86.73 265.12 92.77 271.24 C 127.55 306.10 162.42 340.87 197.20 375.73 C 199.99 378.64 202.93 381.40 206.01 384.01 C 213.45 390.29 219.78 397.74 227.02 404.25 C 227.02 416.25 227.02 428.25 227.02 440.25 C 210.52 424.34 194.57 407.87 178.26 391.77 C 163.07 376.77 148.28 361.35 132.83 346.63 C 132.83 346.05 132.83 344.90 132.83 344.33 C 132.21 344.33 130.96 344.33 130.34 344.33 C 125.49 338.64 120.00 333.57 114.78 328.24 C 98.26 311.76 81.75 295.26 65.26 278.74 C 56.73 270.11 47.92 261.75 39.69 252.83 Z" />
</g>
<g id="#1770ebff">
<path fill="#1770eb" opacity="1.00" d=" M 74.68 252.84 C 88.69 252.82 102.71 252.84 116.72 252.84 C 122.28 259.09 128.37 264.83 134.25 270.78 C 160.40 296.94 186.55 323.09 212.70 349.24 C 217.43 353.97 222.07 358.78 227.02 363.27 C 227.01 376.93 227.02 390.59 227.02 404.25 C 219.78 397.74 213.45 390.29 206.01 384.01 C 202.93 381.40 199.99 378.64 197.20 375.73 C 162.42 340.87 127.55 306.10 92.77 271.24 C 86.73 265.12 80.43 259.24 74.68 252.84 Z" />
</g>
<g id="#0e64dfff">
<path fill="#0e64df" opacity="1.00" d=" M 116.72 252.84 C 128.39 252.82 140.05 252.83 151.72 252.84 C 158.76 260.61 166.46 267.76 173.78 275.27 C 191.58 292.88 209.02 310.85 227.02 328.25 C 227.02 339.93 227.01 351.60 227.02 363.27 C 222.07 358.78 217.43 353.97 212.70 349.24 C 186.55 323.09 160.40 296.94 134.25 270.78 C 128.37 264.83 122.28 259.09 116.72 252.84 Z" />
</g>
<g id="#0458d2ff">
<path fill="#0458d2" opacity="1.00" d=" M 151.72 252.84 C 170.81 252.86 189.90 252.77 208.99 252.88 C 218.25 252.68 226.99 260.59 226.95 270.00 C 227.12 289.41 226.97 308.83 227.02 328.25 C 209.02 310.85 191.58 292.88 173.78 275.27 C 166.46 267.76 158.76 260.61 151.72 252.84 Z" />
</g>
</svg>
