<?xml version="1.0" encoding="UTF-8" ?>
<!DOCTYPE svg PUBLIC "-//W3C//DTD SVG 1.1//EN" "http://www.w3.org/Graphics/SVG/1.1/DTD/svg11.dtd">
<svg width="982pt" height="300pt" viewBox="0 0 982 300" version="1.1" xmlns="http://www.w3.org/2000/svg">
<g id="#dc524aff">
<path fill="#dc524a" opacity="1.00" d=" M 829.41 0.00 L 838.29 0.00 C 853.79 0.88 869.12 3.92 883.75 9.11 C 883.88 17.13 883.76 25.16 883.81 33.19 C 883.74 37.17 883.77 41.15 883.84 45.13 C 848.67 45.15 813.49 45.11 778.32 45.15 C 775.73 78.17 773.14 111.20 770.55 144.23 C 775.38 147.14 780.25 149.98 785.10 152.87 C 801.50 149.66 818.52 146.72 835.14 150.14 C 844.04 151.88 853.04 155.92 858.40 163.52 C 864.55 172.20 865.24 183.53 863.70 193.74 C 862.32 202.82 857.29 211.46 849.42 216.39 C 838.72 223.18 825.50 224.15 813.15 223.46 C 796.93 222.24 780.73 218.21 766.40 210.37 C 766.37 220.17 766.39 229.98 766.40 239.78 C 766.41 253.98 766.47 268.17 766.36 282.37 C 740.92 269.77 719.28 249.65 704.81 225.22 C 686.50 194.71 679.83 157.53 686.22 122.55 C 692.08 89.29 709.84 58.37 735.41 36.34 C 761.28 13.79 795.12 0.79 829.41 0.00 Z" />
</g>
<g id="#419269ff">
<path fill="#419269" opacity="1.00" d=" M 884.01 9.28 C 908.58 18.00 930.56 33.65 947.28 53.61 C 968.23 78.46 980.29 110.30 982.00 142.70 L 982.00 151.64 C 981.44 181.51 971.82 211.16 954.39 235.45 C 935.44 262.20 907.43 282.41 876.00 291.80 C 840.01 302.75 799.95 299.30 766.36 282.37 C 766.47 268.17 766.41 253.98 766.40 239.78 C 776.91 245.84 788.99 248.51 800.94 249.87 C 820.90 251.79 841.86 251.51 860.57 243.49 C 876.02 237.00 888.65 223.90 893.95 207.93 C 898.80 193.13 899.45 176.78 895.23 161.75 C 890.47 144.89 876.62 131.44 860.18 125.86 C 841.63 119.49 821.48 120.83 802.50 124.40 C 803.94 107.62 805.48 90.84 807.09 74.08 C 832.68 74.06 858.26 74.10 883.85 74.06 C 883.84 64.41 883.87 54.77 883.84 45.13 C 883.77 41.15 883.74 37.17 883.81 33.19 C 884.12 25.23 883.82 17.25 884.01 9.28 Z" />
<path fill="#419269" opacity="1.00" d=" M 496.32 43.51 C 499.60 41.81 504.16 42.40 506.49 45.43 C 509.67 49.49 509.80 55.06 509.13 59.96 C 508.56 64.57 505.25 69.75 500.02 69.33 C 494.52 69.52 491.80 63.64 491.71 58.93 C 491.44 53.64 491.26 46.73 496.32 43.51 Z" />
<path fill="#419269" opacity="1.00" d=" M 54.28 45.73 C 59.00 45.74 63.73 45.73 68.45 45.74 C 68.47 113.48 68.48 181.22 68.44 248.96 C 68.38 262.68 65.83 277.62 55.90 287.84 C 47.13 296.97 33.96 299.86 21.73 300.00 L 18.44 300.00 C 12.17 299.64 5.79 298.82 0.00 296.26 L 0.00 283.99 C 8.79 286.24 17.98 287.42 27.04 286.42 C 34.44 285.59 41.94 282.59 46.70 276.66 C 52.76 269.26 54.24 259.31 54.28 250.03 C 54.30 181.93 54.29 113.83 54.28 45.73 Z" />
<path fill="#419269" opacity="1.00" d=" M 122.50 177.97 C 122.46 133.90 122.47 89.82 122.49 45.75 C 127.25 45.72 132.01 45.74 136.77 45.74 C 136.79 89.18 136.76 132.61 136.78 176.05 C 136.79 186.95 138.20 198.09 142.84 208.07 C 147.84 219.06 156.89 228.14 167.93 233.06 C 180.15 238.56 193.91 239.65 207.13 238.66 C 219.77 237.66 232.54 233.52 242.05 224.88 C 249.67 218.06 254.92 208.81 257.43 198.94 C 259.82 190.18 260.05 181.03 259.95 172.01 C 259.95 129.92 259.94 87.83 259.95 45.74 C 264.67 45.73 269.39 45.72 274.11 45.75 C 274.11 89.16 274.11 132.57 274.11 175.99 C 274.17 187.92 272.58 200.05 267.90 211.11 C 261.92 225.58 250.27 237.52 236.02 243.99 C 219.87 251.33 201.56 252.61 184.10 250.77 C 167.00 248.91 149.98 241.54 138.82 228.12 C 127.04 214.33 122.57 195.77 122.50 177.97 Z" />
<path fill="#419269" opacity="1.00" d=" M 565.43 61.34 C 567.79 61.33 570.15 61.33 572.52 61.34 C 572.53 73.50 572.51 85.65 572.53 97.81 C 587.29 97.79 602.05 97.81 616.82 97.80 C 616.82 101.80 616.82 105.80 616.82 109.80 C 602.06 109.80 587.30 109.81 572.54 109.80 C 572.50 140.55 572.54 171.29 572.52 202.03 C 572.49 211.51 572.79 221.68 577.96 229.97 C 581.56 235.82 588.41 238.88 595.11 239.20 C 603.63 239.54 612.21 238.83 620.57 237.11 C 620.55 240.82 620.63 244.54 620.51 248.26 C 609.39 251.55 597.47 252.49 586.03 250.46 C 577.91 248.94 570.00 244.68 565.50 237.58 C 559.73 228.55 558.59 217.50 558.51 207.03 C 558.47 174.62 558.51 142.22 558.49 109.81 C 551.04 109.79 543.59 109.81 536.15 109.80 C 536.14 107.11 536.13 104.42 536.14 101.72 C 543.59 99.62 551.05 97.56 558.50 95.46 C 560.80 84.09 563.13 72.71 565.43 61.34 Z" />
<path fill="#419269" opacity="1.00" d=" M 346.38 111.39 C 357.44 99.47 374.28 95.30 390.01 94.97 C 404.29 94.52 419.97 97.05 430.54 107.48 C 441.23 117.95 444.35 133.61 444.58 148.04 C 444.70 181.60 444.59 215.16 444.63 248.73 C 440.09 248.74 435.56 248.73 431.03 248.74 C 430.99 215.81 431.06 182.87 431.00 149.94 C 430.80 139.14 429.37 127.43 422.26 118.80 C 415.67 110.81 404.95 107.88 394.98 107.50 C 382.05 107.11 368.28 108.76 357.42 116.37 C 349.67 121.75 344.97 130.45 342.57 139.39 C 340.10 148.38 339.52 157.75 339.52 167.04 C 339.51 194.27 339.52 221.50 339.52 248.72 C 334.90 248.67 330.28 248.91 325.68 248.58 C 325.89 198.33 325.70 148.07 325.77 97.81 C 329.65 97.79 333.53 97.80 337.41 97.80 C 338.35 104.78 339.19 111.76 340.11 118.74 C 342.70 116.79 343.98 113.57 346.38 111.39 Z" />
<path fill="#419269" opacity="1.00" d=" M 493.52 97.80 C 498.10 97.80 502.67 97.79 507.25 97.81 C 507.27 148.12 507.27 198.43 507.25 248.74 C 502.66 248.71 498.07 248.77 493.49 248.70 C 493.55 198.40 493.48 148.10 493.52 97.80 Z" />
</g>
<g id="#ffffffff">
<path fill="#ffffff" opacity="1.00" d=" M 778.32 45.15 C 813.49 45.11 848.67 45.15 883.84 45.13 C 883.87 54.77 883.84 64.41 883.85 74.06 C 858.26 74.10 832.68 74.06 807.09 74.08 C 805.48 90.84 803.94 107.62 802.50 124.40 C 821.48 120.83 841.63 119.49 860.18 125.86 C 876.62 131.44 890.47 144.89 895.23 161.75 C 899.45 176.78 898.80 193.13 893.95 207.93 C 888.65 223.90 876.02 237.00 860.57 243.49 C 841.86 251.51 820.90 251.79 800.94 249.87 C 788.99 248.51 776.91 245.84 766.40 239.78 C 766.39 229.98 766.37 220.17 766.40 210.37 C 780.73 218.21 796.93 222.24 813.15 223.46 C 825.50 224.15 838.72 223.18 849.42 216.39 C 857.29 211.46 862.32 202.82 863.70 193.74 C 865.24 183.53 864.55 172.20 858.40 163.52 C 853.04 155.92 844.04 151.88 835.14 150.14 C 818.52 146.72 801.50 149.66 785.10 152.87 C 780.25 149.98 775.38 147.14 770.55 144.23 C 773.14 111.20 775.73 78.17 778.32 45.15 Z" />
</g>
</svg>
