<?xml version="1.0" encoding="UTF-8" ?>
<!DOCTYPE svg PUBLIC "-//W3C//DTD SVG 1.1//EN" "http://www.w3.org/Graphics/SVG/1.1/DTD/svg11.dtd">
<svg width="600pt" height="704pt" viewBox="0 0 600 704" version="1.1" xmlns="http://www.w3.org/2000/svg">
<g id="#000000ff">
<path fill="#000000" opacity="1.00" d=" M 252.72 18.80 C 269.57 13.40 287.43 12.05 305.03 12.43 C 308.88 12.48 312.72 12.95 316.48 13.85 C 321.18 14.99 326.09 14.92 330.77 16.22 C 346.44 20.18 361.34 27.79 373.20 38.82 C 380.10 44.75 385.11 52.47 389.87 60.13 C 391.51 62.79 393.30 65.40 394.36 68.36 C 398.97 81.90 402.93 95.73 404.80 109.95 C 407.16 122.85 407.63 136.00 409.37 148.99 C 409.99 162.36 411.15 175.74 413.76 188.88 C 415.44 203.82 418.01 219.21 425.84 232.31 C 436.12 253.65 450.85 272.36 464.16 291.83 C 466.96 295.96 470.53 299.46 473.63 303.35 C 486.41 318.85 497.58 335.78 505.91 354.09 C 508.51 359.64 510.42 365.50 513.11 371.02 C 522.55 391.72 527.29 414.35 528.69 436.99 C 530.01 456.50 528.17 476.28 522.39 495.00 C 526.66 495.27 530.44 497.84 532.26 501.72 C 537.10 511.79 538.56 523.03 539.87 534.01 C 540.64 541.91 546.52 548.02 552.81 552.25 C 561.23 560.24 573.14 562.62 582.07 569.87 C 587.40 574.20 590.91 581.09 589.86 588.06 C 589.58 594.98 585.60 601.09 580.20 605.20 C 575.04 610.04 567.96 611.56 561.89 614.85 C 554.99 618.36 547.95 621.58 541.01 624.99 C 523.27 634.94 507.88 648.38 492.51 661.56 C 482.81 669.52 474.09 678.73 463.30 685.28 C 454.46 691.35 443.60 694.40 432.90 693.68 C 425.41 692.76 417.66 692.60 410.63 689.52 C 398.45 685.19 388.03 676.21 382.41 664.52 C 356.38 661.47 330.27 658.70 304.05 658.06 C 280.30 657.91 255.79 659.22 233.67 668.70 C 229.01 670.33 226.69 675.11 222.82 677.90 C 212.33 687.21 197.76 691.02 183.96 689.39 C 167.57 687.36 151.91 681.80 136.41 676.35 C 117.91 670.06 99.24 664.21 80.24 659.64 C 63.73 655.38 46.42 654.66 30.31 648.76 C 23.06 646.23 14.23 643.12 11.54 635.12 C 10.41 629.72 11.65 623.90 14.11 619.03 C 20.49 608.64 28.36 597.77 28.02 585.02 C 26.87 573.36 24.65 561.82 23.28 550.19 C 22.02 540.25 22.67 529.19 28.87 520.90 C 32.85 515.96 38.22 510.96 44.99 511.05 C 53.34 510.93 61.69 511.14 70.04 511.00 C 73.84 510.96 77.13 508.88 80.42 507.26 C 84.55 499.53 85.57 490.34 91.05 483.35 C 87.17 477.03 88.75 469.35 89.62 462.45 C 92.55 447.70 100.45 434.65 107.63 421.65 C 114.76 408.44 122.23 395.29 127.08 381.01 C 131.33 368.85 134.31 356.31 137.62 343.87 C 141.98 328.85 150.37 315.30 160.30 303.34 C 167.91 294.26 175.44 285.12 183.08 276.06 C 190.41 267.13 197.42 257.78 202.52 247.36 C 207.95 235.77 210.15 222.68 208.83 209.95 C 206.88 186.29 203.69 162.73 202.89 138.98 C 202.09 115.00 200.62 90.27 208.37 67.16 C 212.75 53.45 221.28 41.43 231.44 31.39 C 237.46 25.66 244.76 21.25 252.72 18.80 M 303.65 120.57 C 300.10 125.30 297.25 130.92 297.05 136.93 C 296.65 147.42 298.96 157.95 303.60 167.36 C 305.86 168.18 308.07 169.13 310.27 170.10 C 309.08 167.57 308.24 164.85 308.31 162.02 C 308.23 154.08 307.58 145.20 312.71 138.52 C 316.86 133.69 323.57 130.19 330.02 131.99 C 334.72 133.37 338.62 136.74 341.76 140.38 C 346.11 149.52 348.77 160.66 344.27 170.27 C 342.21 174.94 337.57 177.54 332.97 179.17 C 334.86 180.30 336.92 181.07 339.11 181.33 C 342.71 181.82 345.74 183.97 348.86 185.66 C 350.68 174.50 353.35 163.39 353.36 152.03 C 353.26 141.90 352.44 130.96 346.44 122.42 C 335.66 110.55 315.73 110.95 303.65 120.57 M 224.88 124.83 C 217.96 135.82 216.09 149.30 217.59 162.02 C 218.79 170.24 223.48 177.43 229.13 183.31 C 231.46 181.89 233.79 180.48 236.12 179.06 C 232.86 177.08 229.54 174.84 227.71 171.39 C 224.50 165.51 224.76 158.57 224.87 152.09 C 224.74 145.34 229.00 139.10 234.33 135.34 C 240.81 131.33 248.98 135.45 252.20 141.64 C 255.03 149.20 256.81 157.22 256.41 165.33 C 256.93 165.34 257.98 165.35 258.50 165.36 C 258.58 164.94 258.74 164.09 258.82 163.67 C 261.30 160.67 260.74 156.61 260.89 153.01 C 260.91 145.46 261.26 137.35 257.23 130.63 C 253.97 125.20 249.46 119.66 242.90 118.41 C 236.30 116.81 228.88 119.29 224.88 124.83 M 238.91 138.12 C 238.00 139.11 237.07 140.07 236.11 141.00 C 236.10 142.35 236.09 143.69 236.08 145.04 C 238.26 145.02 240.45 145.02 242.64 145.01 C 243.44 148.81 244.51 152.55 245.32 156.34 C 246.78 156.33 248.25 156.33 249.72 156.32 C 249.66 149.10 247.45 139.32 238.91 138.12 M 326.15 140.99 C 327.00 142.21 327.86 143.45 328.71 144.69 C 334.18 145.93 335.93 151.69 337.64 156.30 C 338.67 156.33 340.73 156.40 341.75 156.44 C 339.56 153.29 340.07 149.43 339.44 145.86 C 338.06 142.24 334.66 139.76 331.26 138.15 C 329.58 139.14 327.88 140.09 326.15 140.99 M 261.37 169.48 C 248.78 175.00 236.34 181.73 226.93 191.95 C 223.39 195.77 220.58 200.48 220.23 205.79 C 222.71 208.73 224.17 212.53 227.35 214.84 C 235.38 221.05 244.18 226.60 254.07 229.23 C 265.16 232.31 276.95 230.35 287.65 226.74 C 305.13 220.69 320.68 210.31 335.32 199.21 C 335.32 200.56 335.33 201.90 335.36 203.25 C 335.90 203.73 336.98 204.69 337.52 205.17 C 337.40 206.57 335.75 207.04 334.85 207.88 C 321.49 216.76 307.59 225.12 292.41 230.53 C 282.02 234.22 270.82 236.36 259.82 234.73 C 245.98 232.85 233.30 226.04 222.57 217.35 C 224.98 222.10 227.36 227.04 231.41 230.65 C 239.48 238.27 246.56 247.55 257.11 251.91 C 268.88 257.38 282.62 256.22 294.42 251.47 C 313.42 244.17 329.41 231.27 346.41 220.42 C 351.88 217.07 356.83 212.34 359.30 206.32 C 360.06 203.64 360.86 200.36 359.38 197.82 C 349.46 187.04 334.70 183.31 321.36 178.64 C 308.28 173.18 294.99 167.59 280.85 165.61 C 274.10 164.54 267.50 166.91 261.37 169.48 M 323.88 244.88 C 309.96 253.78 294.60 261.61 277.85 262.81 C 268.43 263.12 258.41 262.80 249.97 258.11 C 245.90 255.97 243.28 252.06 239.76 249.23 C 236.22 246.31 232.67 243.40 229.19 240.41 C 228.77 248.85 226.31 257.08 222.58 264.63 C 217.89 273.89 212.84 282.97 208.21 292.25 C 204.94 300.11 201.77 308.03 199.33 316.19 C 197.66 321.57 197.62 327.32 195.75 332.63 C 187.49 349.89 178.45 366.78 170.15 384.02 C 157.48 411.97 147.87 443.00 152.55 473.97 C 144.28 468.26 138.41 459.06 137.73 448.92 C 136.73 433.37 140.41 417.92 145.46 403.32 C 152.55 383.63 161.11 364.07 174.54 347.80 C 173.21 347.21 171.88 346.64 170.54 346.10 C 169.80 345.45 169.06 344.81 168.33 344.17 C 158.96 355.42 153.44 369.21 147.45 382.41 C 139.41 400.44 131.31 419.05 130.15 439.02 C 129.55 451.83 132.85 465.61 142.12 474.93 C 149.77 483.03 158.55 489.95 167.41 496.67 C 177.11 504.15 187.96 509.98 197.82 517.24 C 209.14 527.18 220.53 537.27 229.72 549.28 C 233.11 554.05 236.95 559.67 235.52 565.84 C 234.12 572.16 228.45 575.94 224.10 580.20 C 220.36 583.78 215.27 585.43 210.19 585.82 C 211.90 591.30 214.95 596.26 217.81 601.20 C 226.37 612.22 240.68 616.46 253.92 618.52 C 288.76 623.13 325.98 616.50 354.92 595.85 C 369.19 585.86 381.30 573.05 391.50 558.99 C 391.44 553.99 391.61 548.97 391.08 543.99 C 390.72 540.58 388.92 537.43 389.20 533.94 C 389.27 522.06 389.41 509.59 394.76 498.70 C 397.67 493.33 401.76 487.67 408.07 486.26 C 414.21 484.83 420.37 487.28 425.38 490.71 C 427.98 470.23 427.64 449.55 427.49 428.95 C 427.27 416.86 426.56 404.66 423.46 392.91 C 420.50 378.16 416.20 363.19 407.24 350.87 C 402.06 342.93 396.32 335.29 392.33 326.64 C 390.27 322.08 386.90 318.09 385.91 313.09 C 384.46 307.12 382.91 301.12 382.70 294.95 C 382.51 292.77 382.74 290.43 381.59 288.47 C 375.56 277.96 370.63 266.87 364.63 256.35 C 360.06 245.76 356.06 234.91 350.90 224.58 C 341.89 231.34 333.40 238.81 323.88 244.88 M 425.17 336.15 C 434.63 340.06 443.15 346.34 449.32 354.55 C 455.73 362.70 458.78 372.85 461.24 382.76 C 467.30 409.84 462.37 438.13 452.68 463.75 C 442.00 468.35 433.95 477.48 428.54 487.56 C 427.75 488.83 427.57 490.39 428.32 491.74 C 430.25 492.92 431.26 490.65 432.33 489.44 C 434.87 485.69 438.30 482.71 441.25 479.32 C 445.80 473.62 452.85 470.37 459.90 469.13 C 474.70 467.99 489.94 470.71 503.05 477.81 C 508.45 480.79 511.06 486.67 514.70 491.37 C 516.21 493.25 516.44 498.11 519.78 496.75 C 521.51 490.68 518.03 484.45 514.21 479.89 C 507.89 472.01 498.26 467.74 488.63 465.53 C 479.81 463.24 470.60 463.58 461.65 462.11 C 469.25 438.29 472.64 412.84 469.47 387.95 C 467.26 370.50 459.23 353.74 446.46 341.57 C 441.27 336.58 434.66 333.39 427.71 331.68 C 426.66 333.05 425.85 334.57 425.17 336.15 M 112.47 481.60 C 107.36 482.84 102.15 484.50 98.01 487.86 C 93.34 491.97 90.95 498.11 90.15 504.16 C 89.55 507.81 88.80 512.23 85.25 514.19 C 80.62 516.39 75.49 517.57 70.36 517.64 C 60.91 517.83 51.27 517.31 42.06 519.79 C 36.50 520.72 34.21 526.56 31.96 531.00 C 26.48 543.47 31.84 556.88 33.70 569.53 C 35.88 580.42 35.02 592.00 30.21 602.11 C 25.85 611.57 18.65 620.29 18.03 631.06 C 19.16 635.93 23.78 638.90 27.95 641.04 C 39.24 646.42 51.80 648.06 64.03 649.99 C 84.07 653.14 103.66 658.66 122.85 665.18 C 140.53 671.27 157.95 678.19 176.04 683.00 C 190.89 687.34 207.22 681.54 218.09 671.05 C 221.53 667.63 225.66 664.12 226.22 658.98 C 229.33 638.48 221.20 618.40 211.17 600.94 C 201.11 583.16 187.92 567.48 175.90 551.03 C 165.68 537.99 159.24 522.54 149.85 508.95 C 143.37 498.46 134.24 489.19 122.96 483.95 C 119.64 482.70 116.13 480.67 112.47 481.60 M 410.54 493.70 C 406.22 494.86 403.38 498.79 401.86 502.78 C 399.09 510.16 398.71 518.15 398.52 525.96 C 398.42 549.96 398.57 573.96 398.45 597.95 C 396.78 608.57 394.01 619.11 394.04 629.93 C 394.36 640.74 390.53 651.13 389.64 661.81 C 398.29 679.90 419.58 689.95 439.15 686.70 C 446.17 685.27 453.70 684.07 459.37 679.34 C 463.24 676.03 468.21 674.40 472.00 670.98 C 481.67 662.64 491.32 654.26 500.99 645.91 C 511.84 636.14 523.67 627.34 536.76 620.80 C 545.03 616.19 553.47 611.80 562.38 608.53 C 567.55 606.83 572.68 604.46 576.66 600.66 C 581.22 594.79 583.08 585.85 578.57 579.41 C 573.69 572.43 566.09 567.78 558.25 564.77 C 553.50 562.92 549.61 559.54 545.77 556.29 C 540.65 552.07 537.61 545.96 534.97 540.01 C 529.67 527.98 530.87 513.93 524.53 502.31 C 521.23 501.29 517.79 503.24 515.50 505.52 C 509.99 511.65 503.08 516.42 498.12 523.07 C 490.36 531.05 480.45 537.99 468.99 538.73 C 459.02 538.91 448.15 537.46 440.38 530.65 C 432.50 523.95 429.24 513.65 426.81 503.96 C 426.15 496.55 417.43 491.61 410.54 493.70 Z" />
<path fill="#000000" opacity="1.00" d=" M 260.50 172.59 C 263.17 171.75 265.96 171.20 268.35 169.65 C 269.05 170.59 270.32 171.55 269.82 172.89 C 268.56 176.30 265.53 178.58 263.13 181.16 C 261.64 181.14 260.16 181.10 258.67 181.06 C 258.75 178.21 258.25 174.78 260.50 172.59 Z" />
<path fill="#000000" opacity="1.00" d=" M 278.90 169.68 C 283.80 170.10 288.43 173.41 290.09 178.06 C 290.90 180.06 288.86 181.46 287.04 181.19 C 283.85 181.67 282.52 178.17 280.81 176.19 C 279.18 174.40 278.89 171.99 278.90 169.68 Z" />
</g>
</svg>
