<?xml version="1.0" encoding="UTF-8" ?>
<!DOCTYPE svg PUBLIC "-//W3C//DTD SVG 1.1//EN" "http://www.w3.org/Graphics/SVG/1.1/DTD/svg11.dtd">
<svg width="312pt" height="161pt" viewBox="0 0 312 161" version="1.1" xmlns="http://www.w3.org/2000/svg">
<g id="#ffffffff">
<path fill="#ffffff" opacity="1.00" d=" M 0.00 0.00 L 312.00 0.00 L 312.00 161.00 L 115.39 161.00 C 119.48 160.12 124.01 159.16 126.84 155.80 C 128.75 153.67 128.87 150.68 128.91 147.98 C 128.94 136.60 128.84 125.22 128.95 113.84 C 125.55 113.82 122.15 113.82 118.75 113.82 C 118.71 122.65 118.66 131.48 118.78 140.31 C 111.19 140.38 103.59 140.60 96.00 140.32 C 93.74 140.30 90.58 139.51 90.35 136.81 C 90.07 129.19 90.36 121.55 90.25 113.92 C 86.89 113.91 83.52 113.92 80.16 113.93 C 80.48 121.30 80.09 128.67 80.14 136.05 C 80.05 138.60 81.34 141.04 83.35 142.57 C 87.22 145.54 92.26 146.34 97.02 146.37 C 104.25 146.40 111.49 146.34 118.72 146.39 C 118.56 148.28 118.96 150.35 118.07 152.09 C 116.37 154.15 113.44 154.18 111.00 154.30 C 100.80 154.35 90.59 154.22 80.39 154.35 C 80.39 156.57 80.40 158.78 80.41 161.00 L 0.00 161.00 L 0.00 0.00 M 197.38 1.28 C 194.53 3.00 193.70 6.97 194.97 9.93 C 197.31 15.38 202.71 19.03 204.38 24.84 C 206.64 31.94 208.83 39.42 214.07 44.97 C 211.16 52.71 209.66 61.22 211.40 69.41 C 212.44 73.81 214.15 78.37 217.73 81.34 C 219.79 83.26 223.93 82.78 224.91 79.95 C 225.99 76.73 226.09 73.28 226.85 69.98 C 228.26 72.68 229.40 75.54 231.12 78.07 C 235.12 83.64 240.81 87.62 245.85 92.15 C 237.21 83.41 231.00 72.41 226.87 60.89 C 221.85 65.28 221.27 72.21 220.80 78.42 C 219.30 77.99 217.93 77.11 217.28 75.64 C 213.97 69.41 213.37 62.03 214.49 55.15 C 215.11 51.34 217.39 47.93 217.48 44.02 C 216.80 42.07 215.06 40.78 213.91 39.13 C 209.27 32.63 209.22 24.01 204.50 17.55 C 202.42 14.31 199.31 11.65 198.04 7.95 C 197.38 6.08 198.76 4.01 200.80 4.41 C 206.12 5.63 211.05 8.39 215.17 11.94 C 219.72 12.35 224.47 12.24 228.69 14.26 C 241.23 19.83 251.64 29.66 258.70 41.35 C 261.73 46.00 263.07 51.47 265.69 56.33 C 268.57 61.81 270.34 67.95 274.17 72.87 C 278.84 75.95 284.96 76.11 289.50 79.57 C 293.22 82.47 297.62 84.53 300.90 87.98 C 294.45 88.12 287.73 88.62 281.98 91.84 C 284.87 99.08 291.93 103.24 298.74 106.20 C 302.75 107.93 305.90 111.02 309.49 113.42 C 307.98 109.89 304.85 107.46 302.38 104.64 C 298.37 100.23 292.17 98.61 288.54 93.82 C 294.21 91.72 300.57 92.24 306.06 89.63 C 298.99 81.05 289.50 74.48 279.12 70.55 C 277.46 70.02 276.73 68.35 275.99 66.93 C 273.27 61.32 270.44 55.77 267.99 50.05 C 261.95 33.07 248.32 19.68 232.72 11.19 C 227.90 8.86 222.50 8.26 217.22 7.89 C 211.85 3.15 204.69 -0.41 197.38 1.28 M 217.34 19.94 C 219.07 22.21 220.52 24.67 221.99 27.12 C 225.83 24.15 221.54 18.41 217.34 19.94 M 4.72 99.85 C 2.07 100.65 0.41 103.33 0.62 106.05 C 0.47 114.71 0.91 123.37 0.65 132.03 C 0.29 136.96 0.25 141.92 1.11 146.81 C 4.34 146.74 7.57 146.74 10.80 146.79 C 10.78 135.86 10.80 124.92 10.79 113.98 C 10.84 111.62 10.39 109.16 11.29 106.90 C 16.44 118.89 21.87 130.77 27.28 142.64 C 29.38 147.51 35.46 147.91 39.97 146.91 C 42.43 146.35 44.21 144.35 45.18 142.12 C 50.59 130.29 55.78 118.37 61.24 106.57 C 61.61 119.87 61.54 133.22 61.25 146.53 C 64.60 146.99 67.99 146.62 71.35 146.89 C 71.71 133.93 71.37 120.95 71.52 107.98 C 71.49 105.47 71.60 102.32 69.24 100.75 C 63.82 97.62 54.98 97.32 51.85 103.76 C 46.42 115.56 41.25 127.49 35.88 139.33 C 30.49 127.53 25.66 115.48 20.28 103.67 C 17.57 97.88 9.91 97.76 4.72 99.85 M 138.66 104.61 C 136.21 107.88 137.03 112.24 136.95 116.05 C 136.70 119.83 139.97 122.58 143.12 123.96 C 149.66 126.94 157.00 125.86 163.96 126.03 C 166.60 126.02 169.69 126.27 171.52 128.43 C 172.35 130.52 171.98 132.88 172.00 135.08 C 172.39 138.32 168.76 140.05 166.01 139.96 C 156.30 140.07 146.58 139.97 136.87 139.99 C 136.85 142.26 136.88 144.53 136.93 146.80 C 145.62 146.68 154.32 146.75 163.02 146.76 C 168.92 146.92 175.49 146.24 179.92 141.91 C 183.36 138.57 182.01 133.31 182.15 129.03 C 182.22 125.19 178.54 122.84 175.38 121.58 C 167.41 118.37 158.65 120.98 150.43 119.52 C 146.19 118.39 146.93 113.32 147.09 109.96 C 146.94 107.32 149.81 106.37 151.96 106.31 C 162.20 105.86 172.49 106.67 182.70 105.92 C 182.62 103.78 182.50 101.65 182.44 99.51 C 171.97 99.75 161.50 99.47 151.03 99.65 C 146.54 99.76 141.66 101.04 138.66 104.61 M 194.12 102.11 C 190.80 103.66 188.72 107.31 188.89 110.95 C 188.88 118.63 188.92 126.31 188.87 134.00 C 188.83 136.78 189.12 139.84 191.12 141.97 C 193.93 145.07 198.22 146.20 202.21 146.82 C 209.12 147.31 216.07 146.96 222.98 146.44 C 226.56 147.91 228.68 151.84 232.13 153.72 C 235.91 153.95 239.72 153.70 243.51 153.95 C 240.61 150.48 236.46 148.22 233.89 144.48 C 237.20 143.30 239.60 140.23 239.55 136.65 C 239.69 127.77 239.67 118.89 239.56 110.01 C 239.58 105.93 236.33 102.55 232.64 101.26 C 226.72 98.88 220.24 99.87 214.04 99.68 C 207.37 99.84 200.23 98.78 194.12 102.11 M 246.13 99.68 C 246.46 112.00 245.94 124.34 246.39 136.65 C 246.97 142.85 253.60 145.73 259.06 146.27 C 269.77 147.35 280.57 146.33 291.31 146.87 C 291.50 144.58 291.52 142.28 291.44 139.99 C 282.28 140.00 273.13 140.02 263.97 139.99 C 261.62 139.91 258.75 139.90 257.19 137.82 C 256.08 136.46 256.37 134.59 256.27 132.97 C 256.32 121.86 256.28 110.75 256.29 99.64 C 252.90 99.58 249.51 99.54 246.13 99.68 M 301.54 132.65 C 298.48 133.62 296.18 136.69 296.49 139.96 C 296.36 143.97 300.01 147.52 304.02 147.24 C 308.24 147.49 312.11 143.24 311.15 139.03 C 311.30 134.28 305.79 131.11 301.54 132.65 Z" />
<path fill="#ffffff" opacity="1.00" d=" M 199.93 111.00 C 200.04 107.90 203.51 106.55 206.15 106.37 C 211.43 106.17 216.72 106.34 222.00 106.28 C 224.78 106.26 228.09 106.76 229.68 109.34 C 230.41 111.11 230.13 113.10 230.22 114.98 C 230.11 121.65 230.32 128.32 230.14 134.99 C 230.31 136.93 228.97 138.45 227.33 139.25 C 224.04 136.87 221.66 131.86 217.01 132.51 C 214.07 132.56 211.13 132.55 208.20 132.42 C 210.97 134.96 213.94 137.30 216.44 140.13 C 212.61 140.15 208.76 140.37 204.94 139.96 C 202.01 139.65 199.50 137.05 199.86 134.00 C 199.84 126.33 199.70 118.66 199.93 111.00 Z" />
<path fill="#ffffff" opacity="1.00" d=" M 301.30 134.25 C 304.85 132.62 309.44 134.97 309.84 138.92 C 310.79 143.56 305.08 147.72 301.03 145.11 C 296.82 142.95 297.12 136.28 301.30 134.25 M 300.98 135.63 C 300.99 138.42 301.01 141.22 301.00 144.01 L 302.07 144.01 C 302.20 142.48 302.41 140.96 302.86 139.49 C 304.31 141.12 305.12 143.60 307.42 144.26 C 306.74 143.02 306.04 141.79 305.32 140.59 C 305.88 140.18 306.99 139.36 307.55 138.95 C 307.98 134.94 303.69 135.51 300.98 135.63 Z" />
<path fill="#ffffff" opacity="1.00" d=" M 302.00 139.11 C 302.17 138.38 302.50 136.92 302.67 136.19 C 304.27 136.67 306.55 136.71 306.04 139.02 C 304.69 139.02 303.34 139.05 302.00 139.11 Z" />
</g>
<g id="#00618aff">
<path fill="#00618a" opacity="1.00" d=" M 197.38 1.28 C 204.69 -0.41 211.85 3.15 217.22 7.89 C 222.50 8.26 227.90 8.86 232.72 11.19 C 248.32 19.68 261.95 33.07 267.99 50.05 C 270.44 55.77 273.27 61.32 275.99 66.93 C 276.73 68.35 277.46 70.02 279.12 70.55 C 289.50 74.48 298.99 81.05 306.06 89.63 C 300.57 92.24 294.21 91.72 288.54 93.82 C 292.17 98.61 298.37 100.23 302.38 104.64 C 304.85 107.46 307.98 109.89 309.49 113.42 C 305.90 111.02 302.75 107.93 298.74 106.20 C 291.93 103.24 284.87 99.08 281.98 91.84 C 287.73 88.62 294.45 88.12 300.90 87.98 C 297.62 84.53 293.22 82.47 289.50 79.57 C 284.96 76.11 278.84 75.95 274.17 72.87 C 270.34 67.95 268.57 61.81 265.69 56.33 C 263.07 51.47 261.73 46.00 258.70 41.35 C 251.64 29.66 241.23 19.83 228.69 14.26 C 224.47 12.24 219.72 12.35 215.17 11.94 C 211.05 8.39 206.12 5.63 200.80 4.41 C 198.76 4.01 197.38 6.08 198.04 7.95 C 199.31 11.65 202.42 14.31 204.50 17.55 C 209.22 24.01 209.27 32.63 213.91 39.13 C 215.06 40.78 216.80 42.07 217.48 44.02 C 217.39 47.93 215.11 51.34 214.49 55.15 C 213.37 62.03 213.97 69.41 217.28 75.64 C 217.93 77.11 219.30 77.99 220.80 78.42 C 221.27 72.21 221.85 65.28 226.87 60.89 C 231.00 72.41 237.21 83.41 245.85 92.15 C 240.81 87.62 235.12 83.64 231.12 78.07 C 229.40 75.54 228.26 72.68 226.85 69.98 C 226.09 73.28 225.99 76.73 224.91 79.95 C 223.93 82.78 219.79 83.26 217.73 81.34 C 214.15 78.37 212.44 73.81 211.40 69.41 C 209.66 61.22 211.16 52.71 214.07 44.97 C 208.83 39.42 206.64 31.94 204.38 24.84 C 202.71 19.03 197.31 15.38 194.97 9.93 C 193.70 6.97 194.53 3.00 197.38 1.28 Z" />
<path fill="#00618a" opacity="1.00" d=" M 217.34 19.94 C 221.54 18.41 225.83 24.15 221.99 27.12 C 220.52 24.67 219.07 22.21 217.34 19.94 Z" />
<path fill="#00618a" opacity="1.00" d=" M 4.72 99.85 C 9.91 97.76 17.57 97.88 20.28 103.67 C 25.66 115.48 30.49 127.53 35.88 139.33 C 41.25 127.49 46.42 115.56 51.85 103.76 C 54.98 97.32 63.82 97.62 69.24 100.75 C 71.60 102.32 71.49 105.47 71.52 107.98 C 71.37 120.95 71.71 133.93 71.35 146.89 C 67.99 146.62 64.60 146.99 61.25 146.53 C 61.54 133.22 61.61 119.87 61.24 106.57 C 55.78 118.37 50.59 130.29 45.18 142.12 C 44.21 144.35 42.43 146.35 39.97 146.91 C 35.46 147.91 29.38 147.51 27.28 142.64 C 21.87 130.77 16.44 118.89 11.29 106.90 C 10.39 109.16 10.84 111.62 10.79 113.98 C 10.80 124.92 10.78 135.86 10.80 146.79 C 7.57 146.74 4.34 146.74 1.11 146.81 C 0.25 141.92 0.29 136.96 0.65 132.03 C 0.91 123.37 0.47 114.71 0.62 106.05 C 0.41 103.33 2.07 100.65 4.72 99.85 Z" />
<path fill="#00618a" opacity="1.00" d=" M 80.16 113.93 C 83.52 113.92 86.89 113.91 90.25 113.92 C 90.36 121.55 90.07 129.19 90.35 136.81 C 90.58 139.51 93.74 140.30 96.00 140.32 C 103.59 140.60 111.19 140.38 118.78 140.31 C 118.66 131.48 118.71 122.65 118.75 113.82 C 122.15 113.82 125.55 113.82 128.95 113.84 C 128.84 125.22 128.94 136.60 128.91 147.98 C 128.87 150.68 128.75 153.67 126.84 155.80 C 124.01 159.16 119.48 160.12 115.39 161.00 L 80.41 161.00 C 80.40 158.78 80.39 156.57 80.39 154.35 C 90.59 154.22 100.80 154.35 111.00 154.30 C 113.44 154.18 116.37 154.15 118.07 152.09 C 118.96 150.35 118.56 148.28 118.72 146.39 C 111.49 146.34 104.25 146.40 97.02 146.37 C 92.26 146.34 87.22 145.54 83.35 142.57 C 81.34 141.04 80.05 138.60 80.14 136.05 C 80.09 128.67 80.48 121.30 80.16 113.93 Z" />
</g>
<g id="#e48e00ff">
<path fill="#e48e00" opacity="1.00" d=" M 138.66 104.61 C 141.66 101.04 146.54 99.76 151.03 99.65 C 161.50 99.47 171.97 99.75 182.44 99.51 C 182.50 101.65 182.62 103.78 182.70 105.92 C 172.49 106.67 162.20 105.86 151.96 106.31 C 149.81 106.37 146.94 107.32 147.09 109.96 C 146.93 113.32 146.19 118.39 150.43 119.52 C 158.65 120.98 167.41 118.37 175.38 121.58 C 178.54 122.84 182.22 125.19 182.15 129.03 C 182.01 133.31 183.36 138.57 179.92 141.91 C 175.49 146.24 168.92 146.92 163.02 146.76 C 154.32 146.75 145.62 146.68 136.93 146.80 C 136.88 144.53 136.85 142.26 136.87 139.99 C 146.58 139.97 156.30 140.07 166.01 139.96 C 168.76 140.05 172.39 138.32 172.00 135.08 C 171.98 132.88 172.35 130.52 171.52 128.43 C 169.69 126.27 166.60 126.02 163.96 126.03 C 157.00 125.86 149.66 126.94 143.12 123.96 C 139.97 122.58 136.70 119.83 136.95 116.05 C 137.03 112.24 136.21 107.88 138.66 104.61 Z" />
<path fill="#e48e00" opacity="1.00" d=" M 194.12 102.11 C 200.23 98.78 207.37 99.84 214.04 99.68 C 220.24 99.87 226.72 98.88 232.64 101.26 C 236.33 102.55 239.58 105.93 239.56 110.01 C 239.67 118.89 239.69 127.77 239.55 136.65 C 239.60 140.23 237.20 143.30 233.89 144.48 C 236.46 148.22 240.61 150.48 243.51 153.95 C 239.72 153.70 235.91 153.95 232.13 153.72 C 228.68 151.84 226.56 147.91 222.98 146.44 C 216.07 146.96 209.12 147.31 202.21 146.82 C 198.22 146.20 193.93 145.07 191.12 141.97 C 189.12 139.84 188.83 136.78 188.87 134.00 C 188.92 126.31 188.88 118.63 188.89 110.95 C 188.72 107.31 190.80 103.66 194.12 102.11 M 199.93 111.00 C 199.70 118.66 199.84 126.33 199.86 134.00 C 199.50 137.05 202.01 139.65 204.94 139.96 C 208.76 140.37 212.61 140.15 216.44 140.13 C 213.94 137.30 210.97 134.96 208.20 132.42 C 211.13 132.55 214.07 132.56 217.01 132.51 C 221.66 131.86 224.04 136.87 227.33 139.25 C 228.97 138.45 230.31 136.93 230.14 134.99 C 230.32 128.32 230.11 121.65 230.22 114.98 C 230.13 113.10 230.41 111.11 229.68 109.34 C 228.09 106.76 224.78 106.26 222.00 106.28 C 216.72 106.34 211.43 106.17 206.15 106.37 C 203.51 106.55 200.04 107.90 199.93 111.00 Z" />
<path fill="#e48e00" opacity="1.00" d=" M 246.13 99.68 C 249.51 99.54 252.90 99.58 256.29 99.64 C 256.28 110.75 256.32 121.86 256.27 132.97 C 256.37 134.59 256.08 136.46 257.19 137.82 C 258.75 139.90 261.62 139.91 263.97 139.99 C 273.13 140.02 282.28 140.00 291.44 139.99 C 291.52 142.28 291.50 144.58 291.31 146.87 C 280.57 146.33 269.77 147.35 259.06 146.27 C 253.60 145.73 246.97 142.85 246.39 136.65 C 245.94 124.34 246.46 112.00 246.13 99.68 Z" />
<path fill="#e48e00" opacity="1.00" d=" M 301.54 132.65 C 305.79 131.11 311.30 134.28 311.15 139.03 C 312.11 143.24 308.24 147.49 304.02 147.24 C 300.01 147.52 296.36 143.97 296.49 139.96 C 296.18 136.69 298.48 133.62 301.54 132.65 M 301.30 134.25 C 297.12 136.28 296.82 142.95 301.03 145.11 C 305.08 147.72 310.79 143.56 309.84 138.92 C 309.44 134.97 304.85 132.62 301.30 134.25 Z" />
<path fill="#e48e00" opacity="1.00" d=" M 300.98 135.63 C 303.69 135.51 307.98 134.94 307.55 138.95 C 306.99 139.36 305.88 140.18 305.32 140.59 C 306.04 141.79 306.74 143.02 307.42 144.26 C 305.12 143.60 304.31 141.12 302.86 139.49 C 302.41 140.96 302.20 142.48 302.07 144.01 L 301.00 144.01 C 301.01 141.22 300.99 138.42 300.98 135.63 M 302.00 139.11 C 303.34 139.05 304.69 139.02 306.04 139.02 C 306.55 136.71 304.27 136.67 302.67 136.19 C 302.50 136.92 302.17 138.38 302.00 139.11 Z" />
</g>
</svg>
