<?xml version="1.0" encoding="UTF-8" ?>
<!DOCTYPE svg PUBLIC "-//W3C//DTD SVG 1.1//EN" "http://www.w3.org/Graphics/SVG/1.1/DTD/svg11.dtd">
<svg width="2048pt" height="685pt" viewBox="0 0 2048 685" version="1.1" xmlns="http://www.w3.org/2000/svg">
<g id="#df234fff">
<path fill="#df234f" opacity="1.00" d=" M 406.23 0.00 L 413.27 0.00 C 418.59 1.17 423.82 2.89 428.50 5.74 C 436.46 10.26 444.10 16.90 446.42 26.12 C 446.80 28.41 448.13 31.20 446.21 33.17 C 442.57 37.61 437.60 40.66 433.07 44.08 C 424.47 50.31 416.22 57.76 411.91 67.69 C 407.58 77.07 407.51 87.74 408.81 97.79 C 404.06 90.51 400.69 81.86 401.26 72.99 C 400.87 64.25 404.81 56.21 408.73 48.67 C 412.44 41.38 411.86 32.94 411.53 25.04 C 408.51 15.99 401.83 8.91 394.63 2.95 C 398.44 1.78 402.27 0.56 406.23 0.00 Z" />
<path fill="#df234f" opacity="1.00" d=" M 464.77 13.10 C 470.29 13.77 474.91 17.09 479.84 19.39 C 488.50 23.63 496.82 28.59 504.39 34.60 C 513.14 40.79 520.17 49.04 526.26 57.79 C 531.54 65.19 536.29 73.04 539.58 81.55 C 542.28 86.91 542.23 93.19 545.23 98.45 C 548.19 103.46 548.03 109.40 549.07 114.95 C 550.12 121.23 549.52 127.63 549.69 133.97 C 550.03 143.28 548.16 152.53 545.53 161.43 C 543.86 166.22 541.64 170.80 539.79 175.53 C 536.84 183.89 532.19 191.64 526.42 198.35 C 516.16 211.86 502.56 222.51 487.99 231.04 C 479.49 235.69 470.48 239.55 461.01 241.66 C 454.06 245.19 446.22 246.20 438.56 246.98 C 443.03 250.34 448.81 249.95 454.05 250.71 C 461.94 252.25 470.01 251.34 477.98 251.60 C 490.31 252.08 502.08 247.91 513.93 245.21 C 521.93 241.49 530.58 238.97 537.83 233.79 C 547.38 228.51 556.62 222.09 563.24 213.26 C 566.82 208.28 571.91 204.55 575.03 199.21 C 577.58 194.77 581.26 191.00 583.08 186.14 C 585.86 179.01 589.29 172.15 591.91 164.96 C 594.46 156.16 596.56 147.07 596.18 137.84 C 609.09 150.88 620.13 165.62 630.33 180.84 C 651.98 213.60 669.14 249.40 680.49 287.02 C 694.08 332.09 698.89 380.26 691.04 426.85 C 684.57 466.73 668.72 504.83 646.29 538.35 C 644.24 541.25 642.62 544.59 639.64 546.67 C 641.08 533.20 640.99 519.62 640.59 506.09 C 640.09 491.30 637.66 476.67 634.84 462.17 C 633.71 466.38 633.04 470.70 632.09 474.95 C 623.87 513.90 607.85 551.28 584.57 583.61 C 574.78 597.55 563.26 610.12 551.44 622.33 C 539.30 634.32 525.79 644.88 511.38 653.99 C 534.94 619.49 551.10 580.18 559.31 539.25 C 555.58 544.57 552.44 550.28 548.75 555.63 C 516.95 603.18 471.16 641.51 418.15 663.27 C 406.11 668.42 393.53 672.15 381.02 675.95 C 364.57 680.48 347.65 683.13 330.65 684.31 C 332.54 682.06 335.47 681.25 337.94 679.84 C 377.38 658.95 412.04 629.18 438.82 593.50 C 424.17 600.28 408.76 605.19 393.19 609.34 C 390.57 609.94 388.10 611.00 385.70 612.16 C 383.51 612.75 381.19 612.42 378.95 612.59 C 373.93 614.95 368.41 616.20 362.94 617.04 C 359.41 617.64 356.00 619.06 352.35 618.79 C 352.42 618.25 352.55 617.15 352.62 616.61 C 355.45 613.71 358.77 611.39 362.16 609.20 C 382.48 593.62 399.53 573.55 410.78 550.50 C 414.66 538.28 418.41 525.97 423.16 514.05 C 424.27 510.05 426.50 506.25 426.35 502.00 C 426.25 485.99 426.38 469.98 426.29 453.97 C 425.73 449.50 425.30 444.73 422.73 440.89 C 417.78 471.26 404.67 500.27 385.16 524.06 C 360.58 554.11 325.41 575.50 287.15 582.51 C 269.33 585.75 250.96 586.93 233.00 584.15 C 221.30 582.58 210.14 578.58 198.72 575.75 C 191.98 574.19 185.68 571.28 179.39 568.51 C 175.67 566.65 171.59 565.23 168.57 562.26 C 176.11 559.22 184.14 557.73 192.08 556.18 C 182.16 549.36 174.87 539.39 169.39 528.81 C 163.29 516.54 159.47 502.80 160.38 489.01 C 161.07 476.37 167.02 463.96 177.12 456.18 C 182.18 451.84 188.61 449.70 193.95 445.80 C 199.55 445.38 205.19 445.67 210.80 445.72 C 212.90 447.77 215.87 447.20 218.51 447.63 C 221.95 448.85 225.36 451.30 226.06 455.13 C 227.82 462.77 223.53 469.78 219.64 475.97 C 219.70 479.35 218.91 483.01 220.63 486.11 C 222.85 491.28 226.89 495.33 230.88 499.17 C 240.68 508.24 254.37 512.44 267.59 511.49 C 278.69 498.82 286.19 483.34 290.22 467.04 C 291.62 478.53 293.22 490.19 291.60 501.75 C 305.64 492.23 314.46 476.95 320.67 461.52 C 335.29 459.70 349.90 469.11 356.11 482.17 C 356.41 483.56 355.80 485.53 356.74 486.63 C 357.90 485.99 357.34 484.46 357.53 483.40 C 356.86 482.38 356.48 481.26 356.38 480.04 C 354.10 462.79 349.71 445.81 343.23 429.65 C 327.60 390.30 299.36 356.11 263.65 333.34 C 236.51 315.84 205.16 305.00 173.05 301.69 C 149.51 299.63 125.38 300.49 102.47 306.52 C 97.14 314.67 92.08 323.15 85.24 330.18 C 83.98 331.60 82.26 332.43 80.46 332.93 C 77.30 323.10 79.60 312.77 79.68 302.71 C 74.91 308.52 71.57 315.65 65.46 320.27 C 63.84 321.56 61.09 322.44 59.46 320.74 C 59.00 313.26 59.43 305.74 59.27 298.24 C 54.59 298.54 49.75 297.78 45.62 295.50 C 42.14 292.65 39.33 289.06 35.90 286.14 C 33.39 284.03 30.87 281.56 30.39 278.14 C 29.28 272.94 25.55 268.50 25.56 263.04 C 18.55 259.58 12.47 254.57 7.01 249.02 C 3.87 246.08 2.64 241.81 0.00 238.48 L 0.00 224.61 C 1.62 222.01 1.83 218.90 2.75 216.03 C 5.81 205.33 13.87 197.13 21.59 189.52 C 24.10 186.99 27.69 186.15 31.05 185.43 C 32.77 183.33 35.30 182.40 37.99 182.73 C 44.77 183.14 51.28 181.12 57.76 179.47 C 65.62 177.89 72.68 173.95 80.15 171.22 C 84.90 168.90 90.03 167.33 94.51 164.50 C 99.13 160.86 103.47 156.85 108.22 153.36 C 112.96 150.14 117.02 146.03 120.84 141.80 C 122.75 138.57 124.91 135.42 128.12 133.34 C 128.50 134.02 129.27 135.37 129.66 136.05 C 131.99 134.22 133.95 131.98 136.17 130.02 C 137.96 128.45 140.47 128.37 142.58 127.45 C 144.30 126.57 145.42 124.94 146.74 123.59 C 149.92 120.07 154.25 117.97 158.03 115.20 C 166.32 107.93 177.14 104.87 186.75 99.88 C 197.92 95.32 210.14 94.77 221.73 91.78 C 233.05 89.61 244.54 88.38 256.06 88.14 C 267.94 86.12 280.04 86.34 292.05 86.59 C 307.86 86.89 323.48 89.53 339.07 91.90 C 346.56 92.73 353.75 95.06 361.00 97.00 C 367.90 98.82 375.12 99.54 381.76 102.27 C 394.48 107.20 407.21 112.05 419.92 116.99 C 417.97 112.15 414.70 107.44 415.16 102.00 C 415.37 97.04 414.83 92.04 415.46 87.11 C 416.81 83.00 417.86 78.75 419.65 74.81 C 423.32 69.49 428.63 65.57 432.70 60.57 C 437.21 55.24 444.21 52.99 448.89 47.87 C 452.26 44.26 456.35 41.32 459.33 37.35 C 461.24 34.28 461.69 30.57 463.31 27.36 C 465.75 22.99 464.54 17.85 464.77 13.10 Z" />
<path fill="#df234f" opacity="1.00" d=" M 1867.18 254.84 C 1906.40 239.97 1941.67 211.53 1959.89 173.21 C 1966.82 173.17 1973.75 173.18 1980.70 173.20 C 1980.61 196.00 1980.82 218.81 1980.59 241.61 C 1985.31 242.68 1990.17 242.04 1994.98 242.19 C 2011.57 242.20 2028.16 242.18 2044.75 242.20 C 2044.75 252.79 2044.72 263.38 2044.76 273.98 C 2022.39 274.03 2000.03 273.98 1977.66 274.00 C 1977.67 330.33 1977.63 386.66 1977.68 442.99 C 1978.82 451.44 1983.27 459.80 1990.23 464.89 C 1996.69 469.61 2005.48 469.59 2012.75 466.87 C 2021.81 463.80 2029.53 457.99 2036.97 452.15 C 2040.61 457.94 2044.28 463.71 2048.00 469.45 L 2048.00 469.84 C 2043.34 476.16 2037.74 481.72 2031.90 486.93 C 2020.61 496.65 2007.04 504.53 1992.03 506.35 C 1978.33 507.90 1964.34 507.15 1950.93 503.91 C 1941.06 501.42 1931.21 497.44 1923.91 490.12 C 1912.92 480.04 1906.61 465.67 1904.60 451.06 C 1902.76 427.08 1903.72 403.00 1903.55 378.97 C 1903.41 371.61 1904.62 364.27 1903.92 356.91 C 1903.26 349.59 1904.57 342.31 1904.32 335.00 C 1904.28 315.21 1905.19 295.45 1905.45 275.67 C 1894.95 275.64 1884.45 275.70 1873.96 275.66 C 1870.71 275.93 1867.66 273.20 1867.38 270.00 C 1866.89 264.97 1867.26 259.89 1867.18 254.84 Z" />
<path fill="#df234f" opacity="1.00" d=" M 952.86 245.58 C 968.10 237.72 981.98 226.45 990.61 211.43 C 996.49 211.63 1002.38 211.39 1008.26 211.59 C 1008.33 233.81 1008.20 256.03 1008.33 278.25 C 1028.84 260.28 1051.59 244.19 1077.36 234.72 C 1088.73 230.27 1100.82 227.75 1112.99 226.93 C 1134.77 225.71 1156.73 233.59 1173.07 247.99 C 1181.99 255.77 1189.64 264.92 1196.10 274.82 C 1197.77 277.46 1199.77 279.99 1200.46 283.10 C 1203.10 293.22 1204.15 303.67 1205.04 314.07 C 1206.51 331.99 1206.76 350.00 1206.69 367.99 C 1206.48 372.33 1207.65 376.65 1206.78 380.97 C 1206.51 403.66 1206.76 426.39 1205.52 449.05 C 1205.22 457.40 1204.95 465.99 1207.56 474.03 C 1209.37 479.01 1214.62 481.26 1219.40 482.42 C 1225.28 483.95 1231.32 484.65 1237.30 485.73 C 1237.35 492.06 1237.26 498.39 1237.35 504.72 C 1223.55 504.05 1209.87 501.79 1196.12 500.52 C 1189.08 499.91 1182.09 498.55 1175.02 498.71 C 1146.91 500.88 1118.72 502.76 1090.63 505.12 C 1088.91 504.39 1089.75 502.15 1089.33 500.73 C 1088.39 495.78 1088.80 490.65 1088.35 485.64 C 1097.16 486.67 1106.16 486.07 1114.81 484.13 C 1121.90 482.35 1129.46 478.74 1132.65 471.73 C 1135.64 465.93 1134.52 459.17 1133.06 453.11 C 1132.58 409.53 1132.01 365.93 1131.56 322.34 C 1131.12 315.85 1132.17 309.24 1130.61 302.85 C 1127.91 288.71 1120.26 274.66 1107.37 267.48 C 1094.15 260.39 1077.93 260.94 1064.05 265.70 C 1043.65 274.22 1024.68 286.34 1008.38 301.24 C 1008.15 354.14 1008.31 407.06 1008.30 459.97 C 1009.25 467.31 1015.05 473.03 1020.77 477.22 C 1027.90 481.96 1036.26 484.48 1044.68 485.64 C 1044.70 492.06 1043.69 498.41 1043.37 504.81 C 1014.94 503.16 986.51 500.97 958.02 500.69 C 937.81 500.66 917.37 500.50 897.52 504.81 C 897.51 498.44 897.50 492.07 897.53 485.71 C 907.03 483.91 916.43 481.69 925.91 479.77 C 928.02 479.33 930.24 479.88 932.34 479.33 C 935.94 476.71 937.12 472.10 937.99 467.97 C 939.90 455.06 938.96 441.97 939.22 428.97 C 938.29 414.01 938.83 398.99 938.47 384.01 C 938.32 364.69 938.29 345.37 938.02 326.06 C 937.12 319.45 937.98 312.76 937.39 306.14 C 935.79 299.60 930.77 294.48 925.25 290.95 C 916.87 285.51 907.11 282.77 897.49 280.49 C 897.58 274.59 897.41 268.69 897.60 262.80 C 916.77 260.09 935.61 254.42 952.86 245.58 Z" />
<path fill="#df234f" opacity="1.00" d=" M 1408.97 221.34 C 1412.28 221.15 1415.58 220.61 1418.90 221.20 C 1443.28 221.89 1468.10 227.11 1489.14 239.88 C 1504.92 249.33 1518.01 262.99 1527.30 278.83 C 1538.03 296.93 1543.77 317.56 1546.38 338.32 C 1482.90 338.29 1419.43 338.37 1355.95 338.28 C 1357.61 359.90 1361.58 381.42 1368.65 401.95 C 1374.86 419.17 1383.81 436.03 1397.93 448.08 C 1407.49 456.47 1419.54 461.80 1432.06 463.85 C 1451.70 466.64 1471.66 462.49 1489.88 455.11 C 1502.54 450.15 1514.47 443.51 1525.87 436.12 C 1531.79 441.91 1538.12 447.26 1544.10 452.99 C 1545.34 453.79 1544.03 455.04 1543.63 455.89 C 1534.77 469.13 1522.41 479.70 1508.86 487.93 C 1490.13 499.30 1468.81 505.89 1447.21 509.04 C 1425.64 511.86 1403.62 512.51 1382.12 508.74 C 1363.64 505.55 1345.61 498.63 1330.50 487.40 C 1315.59 476.51 1303.90 461.58 1295.79 445.07 C 1285.48 424.20 1280.42 401.09 1278.52 377.99 C 1276.86 356.61 1277.44 334.77 1283.04 313.96 C 1288.62 294.19 1298.19 275.33 1312.23 260.21 C 1326.11 245.04 1344.33 234.18 1363.92 228.15 C 1378.52 223.84 1393.73 221.37 1408.97 221.34 M 1390.10 251.23 C 1374.25 258.56 1362.00 272.97 1356.94 289.65 C 1354.22 298.07 1354.02 307.00 1354.21 315.77 C 1393.73 315.76 1433.24 315.78 1472.76 315.76 C 1472.69 309.80 1472.89 303.84 1472.64 297.88 C 1471.51 278.75 1459.61 260.97 1442.82 251.93 C 1426.75 243.05 1406.49 243.34 1390.10 251.23 Z" />
<path fill="#df234f" opacity="1.00" d=" M 1664.94 228.53 C 1668.82 227.09 1673.03 227.44 1677.09 226.90 C 1685.70 226.04 1694.43 226.84 1703.01 225.83 C 1714.02 226.60 1725.13 225.95 1736.12 227.33 C 1747.52 228.49 1758.96 230.13 1769.96 233.44 C 1778.23 236.03 1786.65 239.14 1793.23 244.98 C 1795.98 258.94 1798.22 273.01 1800.19 287.11 C 1801.05 295.51 1802.85 304.05 1801.48 312.48 C 1794.73 318.08 1785.29 318.69 1776.99 317.19 C 1771.11 302.43 1762.49 288.77 1752.44 276.49 C 1741.57 263.73 1727.77 252.22 1710.94 248.81 C 1699.90 246.23 1688.28 248.24 1677.96 252.56 C 1671.35 255.26 1665.88 260.00 1660.68 264.76 C 1654.74 270.46 1649.45 277.63 1648.75 286.09 C 1648.28 294.30 1652.65 301.98 1658.47 307.49 C 1665.17 313.90 1673.22 318.89 1681.78 322.42 C 1703.13 330.22 1725.21 335.88 1747.47 340.33 C 1773.85 344.15 1797.36 361.36 1811.00 383.98 C 1820.81 400.31 1823.85 420.69 1818.13 438.98 C 1812.26 458.70 1798.88 475.26 1783.79 488.82 C 1769.10 499.83 1751.90 507.42 1733.96 511.24 C 1708.25 517.00 1681.37 514.97 1655.91 508.92 C 1637.56 504.29 1619.54 497.97 1602.82 489.04 C 1601.39 481.07 1601.01 472.94 1600.00 464.92 C 1598.26 447.78 1596.34 430.66 1594.55 413.55 C 1601.57 413.50 1608.65 411.84 1615.63 412.47 C 1625.20 428.70 1635.79 444.50 1648.87 458.16 C 1660.08 469.72 1673.19 480.41 1688.95 484.83 C 1697.53 486.22 1706.14 488.17 1714.90 487.33 C 1733.12 486.13 1750.48 475.32 1759.20 459.22 C 1764.37 449.92 1763.72 437.88 1757.84 429.05 C 1754.15 422.37 1747.20 418.69 1740.80 415.11 C 1731.38 410.19 1721.25 406.76 1710.95 404.23 C 1696.16 400.61 1680.75 400.48 1666.03 396.54 C 1651.13 392.50 1635.97 386.23 1625.64 374.29 C 1610.58 358.85 1601.64 337.57 1601.11 316.02 C 1600.18 311.72 1601.05 307.37 1601.34 303.06 C 1602.53 284.82 1610.01 266.93 1622.88 253.85 C 1634.41 241.95 1649.21 233.53 1664.94 228.53 Z" />
</g>
</svg>
