<?xml version="1.0" encoding="UTF-8" ?>
<!DOCTYPE svg PUBLIC "-//W3C//DTD SVG 1.1//EN" "http://www.w3.org/Graphics/SVG/1.1/DTD/svg11.dtd">
<svg width="289pt" height="174pt" viewBox="0 0 289 174" version="1.1" xmlns="http://www.w3.org/2000/svg">
<g id="#ffffffff">
<path fill="#ffffff" opacity="1.00" d=" M 0.00 0.00 L 289.00 0.00 L 289.00 106.46 C 286.47 102.85 280.99 101.46 277.56 104.59 C 275.27 106.47 275.57 110.36 278.17 111.82 C 280.60 112.97 283.38 113.20 285.75 114.51 C 287.48 116.48 285.15 119.02 282.96 118.87 C 279.85 119.43 278.27 115.81 275.29 115.63 C 276.15 122.44 286.95 123.17 289.00 116.76 L 289.00 174.00 L 0.00 174.00 L 0.00 126.46 C 1.67 126.46 3.33 126.47 5.00 126.48 C 4.96 101.45 5.12 76.42 5.09 51.39 C 22.61 76.44 39.70 101.78 57.11 126.89 C 68.11 141.57 79.13 156.23 90.12 170.91 C 87.16 165.98 83.82 161.30 80.62 156.53 C 57.32 121.77 34.01 87.03 10.75 52.24 C 9.19 50.03 7.93 47.56 6.02 45.63 C 4.02 45.45 2.01 45.51 0.00 45.50 L 0.00 0.00 M 185.81 44.84 C 177.60 55.97 169.40 67.09 161.27 78.27 C 160.49 79.17 159.99 80.41 158.92 81.00 C 150.26 69.32 142.06 57.29 133.34 45.67 C 131.51 45.43 129.66 45.51 127.82 45.46 C 137.04 58.73 146.80 71.63 155.99 84.92 C 145.98 98.84 135.76 112.61 125.73 126.50 C 127.63 126.48 129.54 126.46 131.44 126.45 C 140.66 113.82 149.80 101.13 159.04 88.52 C 168.22 101.15 177.36 113.81 186.51 126.46 C 188.42 126.47 190.33 126.48 192.24 126.49 C 182.37 112.52 172.26 98.71 162.18 84.89 C 181.02 57.58 200.06 30.39 218.73 2.97 C 207.71 16.89 196.82 30.92 185.81 44.84 M 68.23 45.55 C 68.33 72.51 68.34 99.48 68.22 126.44 C 86.53 126.51 104.83 126.42 123.14 126.48 C 123.17 125.47 123.22 123.44 123.24 122.43 C 106.52 122.34 89.79 122.43 73.07 122.38 C 73.14 110.39 73.06 98.40 73.11 86.41 C 88.62 86.48 104.12 86.36 119.63 86.47 C 119.64 85.09 119.66 83.70 119.68 82.32 C 104.15 82.38 88.61 82.34 73.07 82.35 C 73.11 71.44 73.12 60.53 73.07 49.62 C 89.59 49.61 106.10 49.58 122.62 49.64 C 122.61 48.26 122.60 46.88 122.60 45.50 C 104.48 45.59 86.35 45.50 68.23 45.55 M 194.83 45.52 C 194.81 46.54 194.78 48.59 194.76 49.61 C 204.27 49.60 213.79 49.63 223.31 49.59 C 223.28 75.23 223.29 100.88 223.30 126.52 C 224.90 126.49 226.50 126.47 228.11 126.45 C 228.07 100.84 228.14 75.23 228.07 49.62 C 237.63 49.63 247.18 49.55 256.73 49.66 C 256.75 48.29 256.77 46.91 256.80 45.54 C 236.14 45.53 215.48 45.56 194.83 45.52 M 269.33 103.38 C 269.15 108.13 269.96 113.04 268.88 117.69 C 267.14 119.82 264.28 118.53 263.46 116.28 C 262.85 116.32 261.62 116.41 261.01 116.45 C 261.72 120.16 265.31 121.71 268.80 121.12 C 270.32 119.82 271.96 118.29 271.96 116.12 C 272.09 111.83 271.99 107.54 271.95 103.25 C 271.29 103.28 269.98 103.34 269.33 103.38 M 255.51 117.66 C 253.21 118.54 255.86 122.64 257.43 120.42 C 259.22 119.08 257.21 116.68 255.51 117.66 Z" />
<path fill="#ffffff" opacity="1.00" d=" M 279.42 109.46 C 277.45 107.63 279.71 104.84 281.98 105.11 C 284.01 104.72 285.42 106.33 286.60 107.70 C 287.20 107.74 288.40 107.81 289.00 107.84 L 289.00 115.06 C 287.62 110.79 282.81 111.09 279.42 109.46 Z" />
</g>
<g id="#000000ff">
<path fill="#000000" opacity="1.00" d=" M 185.81 44.84 C 196.82 30.92 207.71 16.89 218.73 2.97 C 200.06 30.39 181.02 57.58 162.18 84.89 C 172.26 98.71 182.37 112.52 192.24 126.49 C 190.33 126.48 188.42 126.47 186.51 126.46 C 177.36 113.81 168.22 101.15 159.04 88.52 C 149.80 101.13 140.66 113.82 131.44 126.45 C 129.54 126.46 127.63 126.48 125.73 126.50 C 135.76 112.61 145.98 98.84 155.99 84.92 C 146.80 71.63 137.04 58.73 127.82 45.46 C 129.66 45.51 131.51 45.43 133.34 45.67 C 142.06 57.29 150.26 69.32 158.92 81.00 C 159.99 80.41 160.49 79.17 161.27 78.27 C 169.40 67.09 177.60 55.97 185.81 44.84 Z" />
<path fill="#000000" opacity="1.00" d=" M 0.00 45.50 C 2.01 45.51 4.02 45.45 6.02 45.63 C 7.93 47.56 9.19 50.03 10.75 52.24 C 34.01 87.03 57.32 121.77 80.62 156.53 C 83.82 161.30 87.16 165.98 90.12 170.91 C 79.13 156.23 68.11 141.57 57.11 126.89 C 39.70 101.78 22.61 76.44 5.09 51.39 C 5.12 76.42 4.96 101.45 5.00 126.48 C 3.33 126.47 1.67 126.46 0.00 126.46 L 0.00 45.50 Z" />
<path fill="#000000" opacity="1.00" d=" M 68.23 45.55 C 86.35 45.50 104.48 45.59 122.60 45.50 C 122.60 46.88 122.61 48.26 122.62 49.64 C 106.10 49.58 89.59 49.61 73.07 49.62 C 73.12 60.53 73.11 71.44 73.07 82.35 C 88.61 82.34 104.15 82.38 119.68 82.32 C 119.66 83.70 119.64 85.09 119.63 86.47 C 104.12 86.36 88.62 86.48 73.11 86.41 C 73.06 98.40 73.14 110.39 73.07 122.38 C 89.79 122.43 106.52 122.34 123.24 122.43 C 123.22 123.44 123.17 125.47 123.14 126.48 C 104.83 126.42 86.53 126.51 68.22 126.44 C 68.34 99.48 68.33 72.51 68.23 45.55 Z" />
<path fill="#000000" opacity="1.00" d=" M 194.83 45.52 C 215.48 45.56 236.14 45.53 256.80 45.54 C 256.77 46.91 256.75 48.29 256.73 49.66 C 247.18 49.55 237.63 49.63 228.07 49.62 C 228.14 75.23 228.07 100.84 228.11 126.45 C 226.50 126.47 224.90 126.49 223.30 126.52 C 223.29 100.88 223.28 75.23 223.31 49.59 C 213.79 49.63 204.27 49.60 194.76 49.61 C 194.78 48.59 194.81 46.54 194.83 45.52 Z" />
<path fill="#000000" opacity="1.00" d=" M 269.33 103.38 C 269.98 103.34 271.29 103.28 271.95 103.25 C 271.99 107.54 272.09 111.83 271.96 116.12 C 271.96 118.29 270.32 119.82 268.80 121.12 C 265.31 121.71 261.72 120.16 261.01 116.45 C 261.62 116.41 262.85 116.32 263.46 116.28 C 264.28 118.53 267.14 119.82 268.88 117.69 C 269.96 113.04 269.15 108.13 269.33 103.38 Z" />
<path fill="#000000" opacity="1.00" d=" M 277.56 104.59 C 280.99 101.46 286.47 102.85 289.00 106.46 L 289.00 107.84 C 288.40 107.81 287.20 107.74 286.60 107.70 C 285.42 106.33 284.01 104.72 281.98 105.11 C 279.71 104.84 277.45 107.63 279.42 109.46 C 282.81 111.09 287.62 110.79 289.00 115.06 L 289.00 116.76 C 286.95 123.17 276.15 122.44 275.29 115.63 C 278.27 115.81 279.85 119.43 282.96 118.87 C 285.15 119.02 287.48 116.48 285.75 114.51 C 283.38 113.20 280.60 112.97 278.17 111.82 C 275.57 110.36 275.27 106.47 277.56 104.59 Z" />
<path fill="#000000" opacity="1.00" d=" M 255.51 117.66 C 257.21 116.68 259.22 119.08 257.43 120.42 C 255.86 122.64 253.21 118.54 255.51 117.66 Z" />
</g>
</svg>
