<?xml version="1.0" encoding="UTF-8" ?>
<!DOCTYPE svg PUBLIC "-//W3C//DTD SVG 1.1//EN" "http://www.w3.org/Graphics/SVG/1.1/DTD/svg11.dtd">
<svg width="590pt" height="362pt" viewBox="0 0 590 362" version="1.1" xmlns="http://www.w3.org/2000/svg">
<g id="#333333ff">
<path fill="#333333" opacity="1.00" d=" M 395.23 0.00 L 397.44 0.00 C 408.81 6.04 419.97 12.48 431.23 18.73 C 433.95 20.05 435.77 22.84 435.53 25.91 C 435.57 79.63 435.57 133.36 435.53 187.08 C 435.82 190.45 433.49 193.19 430.62 194.58 C 412.37 205.01 394.25 215.68 375.99 226.08 C 373.30 227.83 369.97 227.22 367.42 225.55 C 349.14 214.83 330.67 204.43 312.41 193.68 C 309.59 192.23 308.68 189.00 308.86 186.04 C 308.93 165.01 308.81 143.97 308.92 122.95 C 308.72 120.01 310.58 117.48 313.10 116.17 C 331.31 105.71 349.49 95.19 367.67 84.68 C 369.72 83.47 372.26 82.54 374.58 83.63 C 380.32 86.12 385.24 90.19 391.02 92.57 C 393.37 92.33 393.39 89.86 393.38 88.04 C 393.31 61.70 393.40 35.36 393.32 9.02 C 393.37 5.93 392.74 2.38 395.23 0.00 M 351.14 143.17 C 350.73 150.45 351.06 157.77 350.97 165.06 C 350.72 166.49 351.31 167.71 352.66 168.27 C 359.09 172.02 365.56 175.71 372.03 179.41 C 379.07 175.39 386.42 171.72 393.04 167.05 C 393.37 159.05 393.14 151.02 393.11 143.01 C 386.13 138.87 379.16 134.71 372.03 130.85 C 365.10 135.01 357.79 138.59 351.14 143.17 Z" />
<path fill="#333333" opacity="1.00" d=" M 59.53 82.59 C 62.16 80.83 65.45 81.40 67.97 83.04 C 86.16 93.54 104.41 103.94 122.56 114.48 C 125.36 115.88 126.87 118.88 126.61 121.96 C 126.60 148.30 126.52 174.64 126.53 200.98 C 126.49 203.77 126.74 206.60 126.26 209.37 C 125.72 211.66 122.78 212.30 121.01 210.98 C 110.35 205.01 99.82 198.79 89.17 192.80 C 86.59 191.49 84.33 189.09 84.48 186.01 C 84.32 173.00 84.48 159.97 84.44 146.95 C 84.44 144.49 84.16 141.62 81.96 140.08 C 78.23 137.34 74.00 135.39 70.08 132.95 C 67.32 131.39 64.03 129.14 60.77 130.75 C 56.14 132.99 51.86 135.87 47.33 138.29 C 44.76 139.62 42.19 141.80 42.29 144.96 C 42.00 158.64 42.39 172.34 42.13 186.02 C 42.29 189.03 40.14 191.38 37.65 192.70 C 28.16 198.21 18.57 203.54 9.11 209.08 C 7.41 210.03 5.74 211.11 3.87 211.68 C 2.15 212.04 1.07 210.39 0.00 209.38 L 0.00 119.65 C 0.69 117.35 2.19 115.39 4.35 114.31 C 22.76 103.78 41.11 93.12 59.53 82.59 Z" />
<path fill="#333333" opacity="1.00" d=" M 523.33 83.36 C 525.81 81.74 528.96 82.11 531.37 83.67 C 549.29 94.06 567.21 104.47 585.13 114.86 C 587.61 116.11 589.59 118.28 590.00 121.11 L 590.00 138.50 C 589.32 141.04 587.52 143.02 585.22 144.21 C 574.62 150.29 564.10 156.54 553.48 162.57 C 551.60 164.08 548.20 163.64 547.80 160.94 C 547.11 155.10 548.03 149.19 547.42 143.35 C 547.25 141.54 545.29 140.89 544.04 139.96 C 539.36 137.30 534.72 134.58 530.05 131.90 C 528.53 131.21 526.79 129.77 525.10 130.83 C 519.81 133.51 514.82 136.77 509.60 139.59 C 507.90 140.70 505.29 141.63 505.46 144.10 C 505.29 150.76 505.35 157.43 505.44 164.10 C 505.17 166.24 507.07 167.43 508.69 168.35 C 526.53 178.46 544.23 188.82 562.08 198.91 C 563.58 199.89 565.63 200.82 565.70 202.91 C 565.80 205.10 563.64 206.09 562.08 207.06 C 552.40 212.38 542.75 217.77 533.11 223.17 C 530.19 224.90 526.52 226.80 523.25 224.74 C 504.74 214.28 486.28 203.72 467.81 193.18 C 465.08 191.86 463.49 189.00 463.72 185.99 C 463.67 164.98 463.71 143.98 463.70 122.97 C 463.47 119.97 464.76 116.94 467.53 115.55 C 486.13 104.82 504.71 94.04 523.33 83.36 Z" />
</g>
<g id="#6ca75eff">
<path fill="#6ca75e" opacity="1.00" d=" M 214.40 83.34 C 217.86 81.08 221.62 83.53 224.66 85.31 C 242.76 95.97 261.23 106.03 279.12 117.03 C 272.20 128.31 266.27 140.16 259.70 151.65 C 258.67 150.05 257.63 148.46 256.56 146.89 C 255.64 149.17 255.18 151.59 255.31 154.05 C 255.60 171.13 255.14 188.22 255.55 205.30 L 255.55 205.38 C 243.33 212.22 231.42 219.64 219.06 226.22 C 206.04 203.03 193.44 179.62 180.67 156.30 C 172.63 143.08 165.66 129.25 158.14 115.73 C 176.93 105.00 195.61 94.06 214.40 83.34 Z" />
<path fill="#6ca75e" opacity="1.00" d=" M 514.76 146.96 C 518.76 144.61 522.79 142.30 526.83 139.99 C 530.93 142.21 534.97 144.55 538.95 146.98 C 539.01 151.64 539.04 156.31 538.93 160.98 C 534.96 163.36 530.94 165.66 526.91 167.92 C 522.82 165.68 518.82 163.30 514.78 160.99 C 514.66 156.31 514.68 151.63 514.76 146.96 Z" />
<path fill="#6ca75e" opacity="1.00" d=" M 154.78 162.75 C 159.32 164.57 163.77 166.65 167.96 169.19 C 164.38 176.62 159.90 183.58 155.71 190.67 C 155.23 188.82 154.73 186.94 154.77 185.01 C 154.77 177.59 154.80 170.17 154.78 162.75 Z" />
<path fill="#6ca75e" opacity="1.00" d=" M 285.65 217.60 C 289.38 215.31 294.28 215.47 297.96 217.78 C 314.95 227.58 331.92 237.41 348.92 247.21 C 353.05 249.19 356.25 253.30 356.06 258.05 C 356.12 278.01 356.05 297.98 356.09 317.94 C 356.25 321.43 355.20 325.09 352.54 327.48 C 350.32 329.39 347.65 330.66 345.15 332.14 C 329.52 341.16 313.90 350.20 298.27 359.23 C 295.80 360.71 292.90 361.68 290.00 361.21 C 286.63 360.68 283.91 358.46 281.00 356.86 C 276.12 353.81 270.98 351.18 266.25 347.88 C 269.59 346.37 272.90 344.81 276.23 343.27 C 281.81 345.34 286.30 349.85 291.94 351.70 C 309.37 342.01 326.50 331.75 343.84 321.91 C 344.91 321.10 346.77 320.60 346.50 318.93 C 346.61 299.29 346.48 279.63 346.56 259.98 C 346.50 258.51 346.78 256.55 345.00 255.99 C 327.32 245.71 309.57 235.54 291.87 225.29 C 273.35 235.52 255.12 246.33 236.78 256.90 C 236.61 277.99 236.73 299.08 236.72 320.17 C 241.28 323.04 246.01 325.62 250.65 328.35 C 253.48 330.01 256.95 331.41 260.24 330.26 C 262.88 329.42 264.80 326.81 264.83 324.05 C 265.09 303.30 264.64 282.53 265.05 261.79 C 268.12 261.80 271.87 260.66 274.52 262.30 C 274.99 281.19 274.57 300.13 274.72 319.04 C 274.76 324.54 274.97 330.70 271.30 335.23 C 266.86 340.77 258.69 341.41 252.32 339.46 C 245.56 337.11 239.71 332.86 233.45 329.50 C 229.59 327.53 226.93 323.40 227.12 319.02 C 227.10 298.64 227.09 278.27 227.13 257.90 C 227.05 253.82 229.41 249.88 233.01 247.98 C 250.56 237.85 268.11 227.74 285.65 217.60 Z" />
<path fill="#6ca75e" opacity="1.00" d=" M 372.43 244.54 C 379.97 242.57 387.28 251.07 384.10 258.22 C 381.71 265.32 371.29 267.07 366.73 261.13 C 361.68 255.66 365.12 245.77 372.43 244.54 M 371.33 246.56 C 367.99 247.86 365.67 251.42 365.98 255.01 C 366.12 259.59 370.42 263.51 375.01 263.15 C 380.02 263.00 384.10 257.84 383.01 252.93 C 382.20 247.77 376.12 244.46 371.33 246.56 Z" />
<path fill="#6ca75e" opacity="1.00" d=" M 370.73 248.76 C 373.06 248.88 375.54 248.48 377.75 249.44 C 379.31 250.85 378.66 253.12 377.41 254.49 C 378.19 256.40 378.71 258.42 379.01 260.47 C 375.82 261.20 376.44 257.84 375.97 255.84 C 375.21 255.80 373.69 255.73 372.93 255.70 C 372.93 257.24 372.93 258.78 372.94 260.33 C 372.39 260.32 371.28 260.31 370.73 260.31 C 370.73 256.46 370.72 252.61 370.73 248.76 M 372.89 250.44 C 372.89 251.35 372.90 253.18 372.90 254.09 C 374.15 253.98 375.32 253.65 376.41 253.08 C 377.06 250.49 374.74 250.61 372.89 250.44 Z" />
<path fill="#6ca75e" opacity="1.00" d=" M 283.84 268.97 C 287.66 262.88 295.20 260.65 301.99 260.14 C 309.49 259.82 317.54 259.99 324.20 263.90 C 329.78 267.15 332.74 273.84 332.32 280.17 C 329.20 280.29 326.08 280.30 322.97 280.17 C 321.89 276.41 320.30 272.13 316.22 270.78 C 310.70 268.95 304.65 269.05 298.97 270.01 C 295.50 270.50 291.76 273.11 292.19 277.02 C 291.91 279.80 294.72 281.14 296.99 281.69 C 305.87 283.88 315.18 284.02 323.94 286.81 C 327.94 288.05 331.96 290.50 333.52 294.60 C 335.69 300.67 334.53 308.21 329.60 312.63 C 324.32 317.39 316.93 318.73 310.05 318.96 C 302.39 319.00 294.21 318.49 287.57 314.28 C 282.28 310.98 279.00 304.26 280.28 298.12 C 283.13 297.39 286.16 297.69 289.08 297.89 C 290.39 300.12 290.36 302.97 292.00 305.06 C 294.66 308.46 299.34 309.03 303.34 309.44 C 309.06 309.65 315.19 310.05 320.47 307.46 C 324.34 305.64 325.76 298.79 321.39 296.77 C 310.80 292.17 298.28 294.78 288.01 289.11 C 281.02 285.29 279.97 275.36 283.84 268.97 Z" />
</g>
<g id="#478d43ff">
<path fill="#478d43" opacity="1.00" d=" M 154.81 121.96 C 154.59 119.35 156.37 117.37 158.14 115.73 C 165.66 129.25 172.63 143.08 180.67 156.30 C 193.44 179.62 206.04 203.03 219.06 226.22 C 217.09 226.00 215.06 225.77 213.38 224.64 C 195.41 214.25 177.44 203.87 159.46 193.51 C 158.11 192.69 156.90 191.69 155.71 190.67 C 159.90 183.58 164.38 176.62 167.96 169.19 C 163.77 166.65 159.32 164.57 154.78 162.75 C 154.79 149.15 154.71 135.56 154.81 121.96 Z" />
<path fill="#478d43" opacity="1.00" d=" M 259.70 151.65 C 266.27 140.16 272.20 128.31 279.12 117.03 C 280.02 118.87 280.86 120.81 280.71 122.91 C 280.70 144.28 280.73 165.66 280.75 187.04 C 280.96 190.56 277.74 192.72 275.00 194.16 C 268.48 197.82 262.11 201.73 255.55 205.30 C 255.14 188.22 255.60 171.13 255.31 154.05 C 255.18 151.59 255.64 149.17 256.56 146.89 C 257.63 148.46 258.67 150.05 259.70 151.65 Z" />
</g>
</svg>
