<?xml version="1.0" encoding="UTF-8" ?>
<!DOCTYPE svg PUBLIC "-//W3C//DTD SVG 1.1//EN" "http://www.w3.org/Graphics/SVG/1.1/DTD/svg11.dtd">
<svg width="2560pt" height="333pt" viewBox="0 0 2560 333" version="1.1" xmlns="http://www.w3.org/2000/svg">
<g id="#c74634ff">
<path fill="#c74634" opacity="1.00" d=" M 1179.86 0.00 L 1186.12 0.00 C 1197.88 0.79 1209.32 5.98 1217.47 14.53 C 1221.56 18.63 1224.31 23.77 1227.47 28.56 C 1292.25 129.87 1357.07 231.14 1421.82 332.46 C 1396.97 332.47 1372.12 332.47 1347.27 332.46 C 1335.63 313.08 1323.81 293.82 1312.29 274.38 C 1255.28 274.12 1198.26 274.34 1141.24 274.26 C 1128.84 254.95 1116.42 235.65 1104.03 216.33 C 1160.21 216.33 1216.39 216.34 1272.57 216.32 C 1242.85 168.30 1213.10 120.29 1183.37 72.26 C 1128.67 158.98 1074.03 245.74 1019.33 332.47 C 994.48 332.46 969.63 332.47 944.78 332.46 C 1011.01 228.77 1077.27 125.12 1143.50 21.44 C 1151.38 9.09 1165.31 1.12 1179.86 0.00 Z" />
<path fill="#c74634" opacity="1.00" d=" M 67.71 31.73 C 95.27 12.90 128.67 2.75 162.05 3.19 C 223.70 3.22 285.35 3.19 347.00 3.20 C 389.95 1.86 433.10 18.08 464.33 47.63 C 485.84 67.73 501.83 93.69 509.97 121.99 C 518.45 151.24 518.60 182.84 510.40 212.16 C 501.99 242.50 484.56 270.23 460.99 291.08 C 431.83 317.12 393.14 332.10 354.05 332.47 C 291.68 332.46 229.32 332.47 166.96 332.46 C 156.48 332.68 145.96 332.25 135.59 330.62 C 101.09 325.43 68.44 308.89 43.85 284.14 C 22.24 262.58 6.90 234.85 0.00 205.12 L 0.00 130.49 C 9.19 90.65 33.82 54.63 67.71 31.73 M 167.32 61.47 C 135.73 62.71 105.26 79.07 86.62 104.56 C 70.83 125.69 63.48 152.83 66.31 179.05 C 68.97 205.90 82.44 231.42 102.98 248.90 C 121.72 265.08 146.26 274.32 171.02 274.53 C 231.96 274.52 292.91 274.56 353.85 274.52 C 373.81 274.78 393.80 269.31 410.81 258.85 C 430.80 246.68 446.55 227.72 454.80 205.82 C 462.39 185.99 463.81 163.88 458.86 143.25 C 453.38 120.00 439.79 98.76 420.94 84.08 C 402.32 69.41 378.67 61.22 354.95 61.39 C 292.41 61.46 229.86 61.30 167.32 61.47 Z" />
<path fill="#c74634" opacity="1.00" d=" M 553.90 3.14 C 646.93 3.14 739.96 3.12 833.00 3.15 C 866.92 3.47 900.06 20.59 920.19 47.86 C 934.21 66.52 942.07 89.69 942.29 113.04 C 942.93 145.21 928.60 177.20 904.29 198.27 C 889.82 210.96 872.01 219.82 853.13 223.62 C 836.47 227.11 819.37 225.49 802.49 225.87 C 844.80 261.40 887.14 296.91 929.45 332.46 C 898.84 332.48 868.23 332.45 837.63 332.47 C 774.59 277.66 711.57 222.83 648.55 168.01 C 708.37 167.96 768.18 168.06 828.00 167.96 C 847.41 167.85 866.07 156.05 874.64 138.66 C 882.48 123.36 882.18 104.24 873.84 89.20 C 864.95 72.58 846.72 61.50 827.85 61.44 C 757.63 61.35 687.40 61.43 617.18 61.40 C 617.16 151.75 617.18 242.10 617.16 332.46 C 596.07 332.47 574.99 332.47 553.90 332.46 C 553.89 222.68 553.89 112.91 553.90 3.14 Z" />
<path fill="#c74634" opacity="1.00" d=" M 1462.97 27.93 C 1488.04 12.29 1517.41 3.65 1546.95 3.19 C 1625.12 3.21 1703.30 3.19 1781.47 3.21 C 1768.99 22.61 1756.50 42.01 1744.00 61.40 C 1679.38 61.46 1614.74 61.29 1550.12 61.48 C 1528.08 62.43 1506.42 70.48 1489.11 84.14 C 1475.71 94.63 1464.92 108.41 1457.90 123.91 C 1449.11 143.15 1446.28 165.06 1449.89 185.91 C 1453.31 206.12 1462.75 225.25 1476.68 240.29 C 1496.50 261.91 1525.59 274.68 1554.93 274.50 C 1632.10 274.58 1709.27 274.50 1786.44 274.54 C 1774.09 293.84 1761.79 313.18 1749.42 332.47 C 1681.61 332.45 1613.79 332.47 1545.98 332.46 C 1508.47 331.68 1471.42 317.55 1442.94 293.12 C 1417.04 271.15 1398.31 240.92 1390.09 207.97 C 1381.19 172.95 1384.34 135.03 1398.87 101.94 C 1412.10 71.54 1434.74 45.33 1462.97 27.93 Z" />
<path fill="#c74634" opacity="1.00" d=" M 1815.61 3.14 C 1836.74 3.13 1857.87 3.14 1879.00 3.14 C 1879.00 93.63 1878.97 184.12 1879.01 274.60 C 1977.27 274.60 2075.52 274.59 2173.78 274.61 C 2161.21 294.08 2148.67 313.57 2136.05 333.00 L 1848.34 333.00 C 1836.72 332.84 1825.50 326.40 1819.71 316.33 C 1816.82 311.40 1815.50 305.67 1815.60 299.98 C 1815.62 201.03 1815.59 102.09 1815.61 3.14 Z" />
<path fill="#c74634" opacity="1.00" d=" M 2302.96 5.03 C 2317.82 2.47 2332.94 3.24 2347.95 3.14 C 2415.71 3.14 2483.46 3.14 2551.21 3.14 C 2538.85 22.52 2526.50 41.91 2514.12 61.27 C 2460.08 61.27 2406.05 61.27 2352.02 61.27 C 2334.64 61.45 2316.88 60.06 2299.99 65.10 C 2264.62 74.52 2235.38 103.53 2225.76 138.86 C 2328.38 138.88 2431.00 138.86 2533.62 138.87 C 2521.23 158.21 2508.79 177.52 2496.45 196.89 C 2406.22 197.00 2316.00 196.89 2225.77 196.94 C 2233.62 225.22 2253.81 249.76 2280.05 262.91 C 2296.00 271.08 2314.06 275.07 2331.97 274.40 C 2406.84 274.41 2481.70 274.38 2556.56 274.42 C 2544.16 293.72 2531.84 313.06 2519.42 332.34 C 2465.29 332.32 2411.16 332.34 2357.03 332.33 C 2339.08 332.03 2320.99 333.37 2303.19 330.45 C 2269.30 325.35 2237.24 309.18 2212.89 285.10 C 2190.17 262.89 2174.14 233.93 2167.44 202.87 C 2158.24 161.19 2166.01 116.02 2188.98 79.99 C 2213.85 40.17 2256.47 11.94 2302.96 5.03 Z" />
</g>
</svg>
