<?xml version="1.0" encoding="UTF-8" ?>
<!DOCTYPE svg PUBLIC "-//W3C//DTD SVG 1.1//EN" "http://www.w3.org/Graphics/SVG/1.1/DTD/svg11.dtd">
<svg width="225pt" height="225pt" viewBox="0 0 225 225" version="1.1" xmlns="http://www.w3.org/2000/svg">
<g id="#ffffffff">
<path fill="#ffffff" opacity="1.00" d=" M 0.00 0.00 L 225.00 0.00 L 225.00 225.00 L 0.00 225.00 L 0.00 0.00 M 123.97 9.74 C 115.73 9.05 107.20 7.97 99.11 10.34 C 95.90 11.11 93.01 12.75 89.94 13.87 C 85.07 13.20 80.47 11.23 75.60 10.50 C 63.92 8.77 51.09 8.45 40.62 14.75 C 32.41 19.44 27.25 28.16 25.23 37.22 C 24.23 42.75 24.79 48.40 24.64 53.99 C 24.51 58.20 24.79 62.42 25.63 66.55 C 28.70 82.91 32.90 99.15 39.48 114.46 C 43.03 121.96 47.12 130.04 54.65 134.23 C 60.10 137.27 66.89 136.02 71.64 132.25 C 79.47 139.29 91.51 139.66 100.98 136.10 C 101.37 146.93 101.25 158.21 105.76 168.31 C 107.83 173.65 112.44 178.03 118.05 179.41 C 123.92 181.04 130.02 179.37 135.68 177.68 C 141.99 175.74 147.42 171.25 150.37 165.33 C 155.57 154.83 156.02 142.86 156.46 131.38 C 168.32 131.74 181.56 129.09 189.34 119.35 C 193.08 115.18 191.85 107.49 186.35 105.50 C 180.90 103.83 175.26 106.18 169.76 106.47 C 179.13 89.86 186.83 72.03 189.82 53.09 C 190.60 46.47 191.06 39.67 189.73 33.09 C 188.32 26.80 183.31 22.33 178.65 18.30 C 168.55 9.87 154.97 6.30 141.99 6.97 C 135.85 6.70 129.96 8.74 123.97 9.74 M 5.04 181.28 C 4.91 191.48 5.01 201.68 4.99 211.88 C 6.32 211.88 7.66 211.88 9.00 211.88 C 9.00 207.79 9.00 203.70 9.00 199.61 C 12.88 199.81 17.16 199.81 20.42 197.37 C 25.06 193.98 25.24 185.94 20.35 182.69 C 15.79 179.80 10.10 181.03 5.04 181.28 M 152.59 181.65 C 149.77 182.92 147.76 185.94 147.95 189.07 C 147.93 192.21 150.23 194.89 152.96 196.18 C 155.73 197.71 159.28 198.25 161.19 201.00 C 162.97 203.58 161.50 207.44 158.59 208.43 C 155.11 209.79 151.42 208.53 148.18 207.14 C 147.96 207.98 147.53 209.65 147.32 210.49 C 152.01 212.48 157.86 213.18 162.34 210.31 C 166.16 207.83 167.20 202.08 164.37 198.48 C 161.63 194.84 156.58 194.59 153.26 191.73 C 151.26 189.90 151.50 186.28 153.85 184.84 C 156.86 182.86 160.65 184.15 163.82 185.07 C 164.11 184.00 164.41 182.93 164.71 181.86 C 160.85 180.51 156.42 179.82 152.59 181.65 M 173.78 184.77 C 169.53 189.30 168.89 196.11 170.24 201.94 C 171.47 206.97 175.72 211.28 180.94 211.97 C 186.39 212.81 191.48 215.03 196.81 216.34 C 197.19 215.24 197.57 214.14 197.96 213.04 C 194.98 212.42 192.00 211.79 189.03 211.11 C 198.31 206.93 200.00 194.06 194.83 186.11 C 190.37 179.11 179.18 178.71 173.78 184.77 M 202.91 180.99 C 202.91 191.29 202.91 201.58 202.91 211.88 C 208.61 211.84 214.32 211.84 220.02 211.88 C 220.02 211.04 220.01 209.36 220.01 208.52 C 215.67 208.53 211.33 208.52 207.00 208.56 C 206.78 199.37 206.95 190.17 206.90 180.98 C 205.57 180.98 204.24 180.98 202.91 180.99 M 72.09 184.33 C 72.07 186.15 72.05 187.98 72.04 189.80 C 71.22 189.78 69.57 189.74 68.75 189.73 C 68.75 190.49 68.76 192.02 68.76 192.79 C 69.55 192.74 71.13 192.64 71.92 192.59 C 72.44 198.02 71.34 203.62 72.74 208.94 C 73.87 212.67 78.33 212.25 81.40 212.10 C 81.41 211.34 81.43 209.82 81.44 209.06 C 79.57 208.97 76.77 209.32 76.25 206.90 C 75.75 202.19 76.17 197.44 76.02 192.72 C 77.96 192.71 79.90 192.71 81.84 192.70 C 81.82 191.70 81.81 190.71 81.80 189.71 C 79.87 189.73 77.94 189.75 76.01 189.77 C 76.03 187.65 76.04 185.54 76.06 183.43 C 74.73 183.73 73.41 184.03 72.09 184.33 M 34.49 189.59 C 25.18 191.59 23.62 205.99 31.38 210.77 C 35.78 213.45 42.19 212.58 45.45 208.49 C 48.86 204.22 48.86 197.67 45.76 193.23 C 43.29 189.72 38.51 188.61 34.49 189.59 M 56.08 189.98 C 52.94 191.10 51.13 195.19 52.86 198.16 C 54.75 201.56 59.31 201.59 61.83 204.30 C 62.47 205.85 62.22 207.90 60.61 208.75 C 57.89 210.07 54.97 208.70 52.26 208.04 C 52.10 208.80 51.79 210.31 51.63 211.07 C 55.80 212.44 61.38 213.29 64.65 209.63 C 67.39 206.50 65.89 201.25 62.01 199.88 C 59.69 198.52 55.07 197.83 56.09 194.13 C 57.88 191.07 61.65 192.42 64.33 193.21 C 64.63 192.20 64.92 191.20 65.21 190.19 C 62.24 189.52 58.99 188.59 56.08 189.98 M 92.35 189.48 C 82.98 191.63 81.59 206.75 90.07 210.89 C 93.90 212.80 98.47 211.38 101.08 208.16 C 100.95 211.14 101.27 214.72 98.61 216.78 C 95.25 219.38 90.71 217.95 87.09 216.71 C 86.96 217.53 86.70 219.17 86.56 219.99 C 91.08 221.32 96.39 222.26 100.62 219.62 C 103.87 217.63 104.70 213.58 104.91 210.04 C 105.10 203.28 104.84 196.51 105.06 189.74 C 104.19 189.75 102.44 189.76 101.57 189.76 C 101.61 190.56 101.68 192.15 101.72 192.94 C 99.36 190.36 95.95 188.42 92.35 189.48 M 126.07 193.98 C 123.27 198.88 123.43 206.09 127.96 209.91 C 132.01 213.25 137.68 212.34 142.36 211.06 C 142.25 210.36 142.04 208.95 141.93 208.25 C 138.36 209.03 134.24 210.07 130.95 207.91 C 128.73 206.55 128.34 203.80 127.84 201.48 C 133.12 201.45 138.40 201.44 143.68 201.53 C 143.76 197.96 143.33 193.99 140.59 191.40 C 136.37 187.54 128.80 189.03 126.07 193.98 M 111.12 189.77 C 111.56 197.12 111.33 204.48 111.36 211.83 C 112.65 211.86 113.94 211.88 115.24 211.91 C 115.36 207.18 114.81 202.39 115.56 197.71 C 116.07 194.47 119.14 192.73 122.21 192.82 C 122.20 191.85 122.18 189.91 122.17 188.94 C 118.79 189.13 116.24 191.19 114.69 194.09 C 114.70 192.63 114.69 191.17 114.69 189.72 C 113.80 189.73 112.01 189.76 111.12 189.77 Z" />
<path fill="#ffffff" opacity="1.00" d=" M 130.97 12.98 C 144.25 10.22 158.86 11.13 170.67 18.29 C 175.06 21.05 179.11 24.47 182.31 28.56 C 185.53 32.64 185.78 38.08 185.80 43.05 C 185.26 56.85 181.08 70.22 175.91 82.93 C 172.13 92.35 167.21 101.25 161.82 109.84 C 167.82 111.89 174.10 110.51 180.16 109.57 C 182.15 109.23 184.76 109.06 186.00 111.00 C 187.82 113.41 185.66 116.22 183.88 117.89 C 175.89 125.77 163.74 127.36 153.06 125.81 C 151.96 136.26 150.80 146.72 148.94 157.06 C 147.81 163.87 143.47 170.29 136.90 172.83 C 130.01 175.56 121.53 177.39 114.84 173.18 C 109.26 169.39 106.29 162.67 105.84 156.08 C 104.75 146.76 104.93 137.35 104.77 127.97 C 101.15 130.17 97.47 132.82 93.07 132.99 C 87.18 133.48 80.48 133.35 75.78 129.26 C 74.02 127.82 73.42 124.97 75.20 123.30 C 78.33 120.28 83.04 120.32 86.95 118.95 C 90.13 118.36 91.98 115.53 93.92 113.22 C 90.56 112.99 87.39 111.32 84.15 111.02 C 78.89 116.14 74.41 122.01 69.36 127.34 C 67.44 129.35 64.87 130.93 62.02 130.98 C 57.56 131.24 53.77 128.19 51.10 124.94 C 44.48 116.55 41.06 106.25 37.71 96.25 C 34.07 84.39 31.02 72.31 29.14 60.04 C 27.69 51.76 28.35 43.19 30.48 35.10 C 33.24 25.48 41.14 17.60 50.90 15.19 C 64.13 11.97 77.93 14.75 90.59 19.02 C 99.40 13.09 110.63 12.33 120.80 14.41 C 124.27 15.33 127.60 13.54 130.97 12.98 M 132.73 17.74 C 135.65 19.62 138.73 21.25 141.53 23.31 C 147.98 27.96 153.02 34.31 157.16 41.04 C 159.42 45.12 161.71 49.38 162.36 54.07 C 162.54 59.42 161.46 64.71 160.97 70.02 C 160.40 77.07 162.34 84.02 161.99 91.06 C 161.98 95.91 160.36 100.61 157.80 104.69 C 158.76 104.59 159.51 103.91 159.94 103.06 C 165.54 94.14 169.80 84.46 173.61 74.67 C 177.72 62.97 181.39 50.61 180.41 38.08 C 180.38 31.91 174.92 27.90 170.50 24.49 C 159.84 16.33 145.51 15.57 132.73 17.74 M 51.37 20.48 C 44.27 22.43 38.40 28.02 36.00 34.97 C 31.73 46.52 33.74 59.11 36.32 70.80 C 39.84 86.19 43.87 101.68 51.19 115.76 C 53.67 120.00 56.61 125.23 61.95 126.03 C 64.79 125.16 66.71 122.73 68.62 120.60 C 72.36 116.19 76.25 111.91 80.07 107.57 C 74.70 102.59 71.30 95.40 71.69 88.01 C 72.09 81.35 73.03 74.70 72.49 68.03 C 71.43 52.14 74.77 34.98 85.73 22.85 C 74.74 19.45 62.66 17.16 51.37 20.48 M 90.15 26.10 C 81.86 34.03 78.88 45.75 77.60 56.78 C 83.30 54.11 89.61 51.67 96.00 52.94 C 100.45 53.59 104.23 57.04 105.38 61.38 C 107.74 70.65 108.72 80.52 106.56 89.92 C 104.54 96.33 101.52 102.38 99.41 108.76 C 104.62 108.51 109.64 112.56 109.90 117.86 C 109.98 127.57 109.80 137.30 110.12 147.02 C 110.87 153.27 110.34 160.23 114.34 165.55 C 116.94 169.71 122.31 171.20 126.94 170.27 C 131.07 169.50 135.36 168.45 138.73 165.81 C 142.43 162.82 143.64 157.96 144.39 153.49 C 146.32 141.04 147.73 128.52 148.91 115.99 C 149.14 112.30 152.40 110.07 155.42 108.62 C 151.21 103.80 148.70 97.87 145.65 92.32 C 141.39 84.03 136.58 75.53 136.19 65.99 C 135.92 61.83 137.42 57.36 140.90 54.85 C 145.35 51.41 151.29 51.73 156.60 51.76 C 154.19 46.63 151.81 41.39 148.19 36.97 C 140.20 26.71 128.02 19.52 114.91 18.71 C 106.16 17.80 96.58 19.73 90.15 26.10 M 143.90 59.07 C 140.68 61.65 141.13 66.39 141.86 70.01 C 144.34 80.46 150.36 89.53 155.00 99.08 C 158.40 92.12 156.39 84.32 155.89 76.98 C 155.20 70.29 156.75 63.69 157.22 57.05 C 152.76 57.06 147.73 56.20 143.90 59.07 M 77.70 63.09 C 77.60 67.73 78.04 72.38 77.74 77.02 C 77.63 83.55 75.43 90.46 78.49 96.66 C 81.02 103.16 87.44 107.20 94.15 108.23 C 95.77 103.29 97.64 98.43 99.76 93.68 C 104.02 84.19 102.76 73.39 100.61 63.53 C 100.11 60.76 97.93 58.37 95.08 57.98 C 88.92 57.20 82.63 59.49 77.70 63.09 M 91.60 122.65 C 87.91 124.46 83.73 124.84 79.95 126.41 C 87.85 129.55 98.16 128.79 103.53 121.49 C 106.23 119.08 104.17 114.60 100.98 113.94 C 97.04 115.85 95.54 120.67 91.60 122.65 M 156.13 114.08 C 153.61 115.12 153.92 118.16 153.45 120.37 C 162.34 122.43 172.39 120.88 179.53 114.94 C 173.46 115.43 167.02 117.14 161.14 114.72 C 159.53 114.19 157.82 113.11 156.13 114.08 Z" />
<path fill="#ffffff" opacity="1.00" d=" M 146.41 59.50 C 148.50 58.81 151.28 58.34 153.09 59.92 C 153.26 63.86 147.47 65.75 145.17 62.65 C 143.71 61.57 145.21 59.89 146.41 59.50 Z" />
<path fill="#ffffff" opacity="1.00" d=" M 89.09 61.83 C 91.71 59.17 96.49 59.58 98.87 62.32 C 99.47 64.94 96.11 66.53 93.91 66.13 C 91.37 66.22 90.35 63.52 89.09 61.83 Z" />
<path fill="#ffffff" opacity="1.00" d=" M 9.03 184.01 C 11.91 184.17 15.18 183.40 17.70 185.18 C 21.06 187.51 20.71 193.19 17.31 195.32 C 14.84 196.88 11.79 196.52 9.02 196.48 C 8.99 192.33 8.99 188.17 9.03 184.01 Z" />
<path fill="#ffffff" opacity="1.00" d=" M 180.27 184.35 C 184.17 182.82 189.01 184.11 191.19 187.80 C 194.66 193.48 194.53 201.87 189.70 206.75 C 185.51 210.98 177.60 209.15 175.35 203.72 C 172.39 197.40 173.24 187.59 180.27 184.35 Z" />
<path fill="#ffffff" opacity="1.00" d=" M 35.34 192.46 C 40.49 190.65 44.42 196.34 43.98 200.99 C 44.06 204.90 41.35 209.53 36.98 209.36 C 28.90 208.64 28.09 195.07 35.34 192.46 Z" />
<path fill="#ffffff" opacity="1.00" d=" M 93.44 192.56 C 96.93 191.36 100.94 194.30 100.94 197.97 C 100.94 200.85 101.56 204.21 99.52 206.60 C 97.11 209.62 91.92 209.41 89.88 206.06 C 87.28 201.76 88.03 194.24 93.44 192.56 Z" />
<path fill="#ffffff" opacity="1.00" d=" M 127.76 198.64 C 128.71 195.32 131.00 191.37 135.07 192.05 C 138.46 192.28 139.62 195.85 140.18 198.66 C 136.04 198.74 131.90 198.75 127.76 198.64 Z" />
</g>
<g id="#336791ff">
<path fill="#336791" opacity="1.00" d=" M 123.97 9.74 C 129.96 8.74 135.85 6.70 141.99 6.97 C 154.97 6.30 168.55 9.87 178.65 18.30 C 183.31 22.33 188.32 26.80 189.73 33.09 C 191.06 39.67 190.60 46.47 189.82 53.09 C 186.83 72.03 179.13 89.86 169.76 106.47 C 175.26 106.18 180.90 103.83 186.35 105.50 C 191.85 107.49 193.08 115.18 189.34 119.35 C 181.56 129.09 168.32 131.74 156.46 131.38 C 156.02 142.86 155.57 154.83 150.37 165.33 C 147.42 171.25 141.99 175.74 135.68 177.68 C 130.02 179.37 123.92 181.04 118.05 179.41 C 112.44 178.03 107.83 173.65 105.76 168.31 C 101.25 158.21 101.37 146.93 100.98 136.10 C 91.51 139.66 79.47 139.29 71.64 132.25 C 66.89 136.02 60.10 137.27 54.65 134.23 C 47.12 130.04 43.03 121.96 39.48 114.46 C 32.90 99.15 28.70 82.91 25.63 66.55 C 24.79 62.42 24.51 58.20 24.64 53.99 C 24.79 48.40 24.23 42.75 25.23 37.22 C 27.25 28.16 32.41 19.44 40.62 14.75 C 51.09 8.45 63.92 8.77 75.60 10.50 C 80.47 11.23 85.07 13.20 89.94 13.87 C 93.01 12.75 95.90 11.11 99.11 10.34 C 107.20 7.97 115.73 9.05 123.97 9.74 M 130.97 12.98 C 127.60 13.54 124.27 15.33 120.80 14.41 C 110.63 12.33 99.40 13.09 90.59 19.02 C 77.93 14.75 64.13 11.97 50.90 15.19 C 41.14 17.60 33.24 25.48 30.48 35.10 C 28.35 43.19 27.69 51.76 29.14 60.04 C 31.02 72.31 34.07 84.39 37.71 96.25 C 41.06 106.25 44.48 116.55 51.10 124.94 C 53.77 128.19 57.56 131.24 62.02 130.98 C 64.87 130.93 67.44 129.35 69.36 127.34 C 74.41 122.01 78.89 116.14 84.15 111.02 C 87.39 111.32 90.56 112.99 93.92 113.22 C 91.98 115.53 90.13 118.36 86.95 118.95 C 83.04 120.32 78.33 120.28 75.20 123.30 C 73.42 124.97 74.02 127.82 75.78 129.26 C 80.48 133.35 87.18 133.48 93.07 132.99 C 97.47 132.82 101.15 130.17 104.77 127.97 C 104.93 137.35 104.75 146.76 105.84 156.08 C 106.29 162.67 109.26 169.39 114.84 173.18 C 121.53 177.39 130.01 175.56 136.90 172.83 C 143.47 170.29 147.81 163.87 148.94 157.06 C 150.80 146.72 151.96 136.26 153.06 125.81 C 163.74 127.36 175.89 125.77 183.88 117.89 C 185.66 116.22 187.82 113.41 186.00 111.00 C 184.76 109.06 182.15 109.23 180.16 109.57 C 174.10 110.51 167.82 111.89 161.82 109.84 C 167.21 101.25 172.13 92.35 175.91 82.93 C 181.08 70.22 185.26 56.85 185.80 43.05 C 185.78 38.08 185.53 32.64 182.31 28.56 C 179.11 24.47 175.06 21.05 170.67 18.29 C 158.86 11.13 144.25 10.22 130.97 12.98 Z" />
<path fill="#336791" opacity="1.00" d=" M 132.73 17.74 C 145.51 15.57 159.84 16.33 170.50 24.49 C 174.92 27.90 180.38 31.91 180.41 38.08 C 181.39 50.61 177.72 62.97 173.61 74.67 C 169.80 84.46 165.54 94.14 159.94 103.06 C 159.51 103.91 158.76 104.59 157.80 104.69 C 160.36 100.61 161.98 95.91 161.99 91.06 C 162.34 84.02 160.40 77.07 160.97 70.02 C 161.46 64.71 162.54 59.42 162.36 54.07 C 161.71 49.38 159.42 45.12 157.16 41.04 C 153.02 34.31 147.98 27.96 141.53 23.31 C 138.73 21.25 135.65 19.62 132.73 17.74 Z" />
<path fill="#336791" opacity="1.00" d=" M 51.37 20.48 C 62.66 17.16 74.74 19.45 85.73 22.85 C 74.77 34.98 71.43 52.14 72.49 68.03 C 73.03 74.70 72.09 81.35 71.69 88.01 C 71.30 95.40 74.70 102.59 80.07 107.57 C 76.25 111.91 72.36 116.19 68.62 120.60 C 66.71 122.73 64.79 125.16 61.95 126.03 C 56.61 125.23 53.67 120.00 51.19 115.76 C 43.87 101.68 39.84 86.19 36.32 70.80 C 33.74 59.11 31.73 46.52 36.00 34.97 C 38.40 28.02 44.27 22.43 51.37 20.48 Z" />
<path fill="#336791" opacity="1.00" d=" M 90.15 26.10 C 96.58 19.73 106.16 17.80 114.91 18.71 C 128.02 19.52 140.20 26.71 148.19 36.97 C 151.81 41.39 154.19 46.63 156.60 51.76 C 151.29 51.73 145.35 51.41 140.90 54.85 C 137.42 57.36 135.92 61.83 136.19 65.99 C 136.58 75.53 141.39 84.03 145.65 92.32 C 148.70 97.87 151.21 103.80 155.42 108.62 C 152.40 110.07 149.14 112.30 148.91 115.99 C 147.73 128.52 146.32 141.04 144.39 153.49 C 143.64 157.96 142.43 162.82 138.73 165.81 C 135.36 168.45 131.07 169.50 126.94 170.27 C 122.31 171.20 116.94 169.71 114.34 165.55 C 110.34 160.23 110.87 153.27 110.12 147.02 C 109.80 137.30 109.98 127.57 109.90 117.86 C 109.64 112.56 104.62 108.51 99.41 108.76 C 101.52 102.38 104.54 96.33 106.56 89.92 C 108.72 80.52 107.74 70.65 105.38 61.38 C 104.23 57.04 100.45 53.59 96.00 52.94 C 89.61 51.67 83.30 54.11 77.60 56.78 C 78.88 45.75 81.86 34.03 90.15 26.10 Z" />
<path fill="#336791" opacity="1.00" d=" M 143.90 59.07 C 147.73 56.20 152.76 57.06 157.22 57.05 C 156.75 63.69 155.20 70.29 155.89 76.98 C 156.39 84.32 158.40 92.12 155.00 99.08 C 150.36 89.53 144.34 80.46 141.86 70.01 C 141.13 66.39 140.68 61.65 143.90 59.07 M 146.41 59.50 C 145.21 59.89 143.71 61.57 145.17 62.65 C 147.47 65.75 153.26 63.86 153.09 59.92 C 151.28 58.34 148.50 58.81 146.41 59.50 Z" />
<path fill="#336791" opacity="1.00" d=" M 77.70 63.09 C 82.63 59.49 88.92 57.20 95.08 57.98 C 97.93 58.37 100.11 60.76 100.61 63.53 C 102.76 73.39 104.02 84.19 99.76 93.68 C 97.64 98.43 95.77 103.29 94.15 108.23 C 87.44 107.20 81.02 103.16 78.49 96.66 C 75.43 90.46 77.63 83.55 77.74 77.02 C 78.04 72.38 77.60 67.73 77.70 63.09 M 89.09 61.83 C 90.35 63.52 91.37 66.22 93.91 66.13 C 96.11 66.53 99.47 64.94 98.87 62.32 C 96.49 59.58 91.71 59.17 89.09 61.83 Z" />
<path fill="#336791" opacity="1.00" d=" M 91.60 122.65 C 95.54 120.67 97.04 115.85 100.98 113.94 C 104.17 114.60 106.23 119.08 103.53 121.49 C 98.16 128.79 87.85 129.55 79.95 126.41 C 83.73 124.84 87.91 124.46 91.60 122.65 Z" />
<path fill="#336791" opacity="1.00" d=" M 156.13 114.08 C 157.82 113.11 159.53 114.19 161.14 114.72 C 167.02 117.14 173.46 115.43 179.53 114.94 C 172.39 120.88 162.34 122.43 153.45 120.37 C 153.92 118.16 153.61 115.12 156.13 114.08 Z" />
<path fill="#336791" opacity="1.00" d=" M 5.04 181.28 C 10.10 181.03 15.79 179.80 20.35 182.69 C 25.24 185.94 25.06 193.98 20.42 197.37 C 17.16 199.81 12.88 199.81 9.00 199.61 C 9.00 203.70 9.00 207.79 9.00 211.88 C 7.66 211.88 6.32 211.88 4.99 211.88 C 5.01 201.68 4.91 191.48 5.04 181.28 M 9.03 184.01 C 8.99 188.17 8.99 192.33 9.02 196.48 C 11.79 196.52 14.84 196.88 17.31 195.32 C 20.71 193.19 21.06 187.51 17.70 185.18 C 15.18 183.40 11.91 184.17 9.03 184.01 Z" />
<path fill="#336791" opacity="1.00" d=" M 152.59 181.65 C 156.42 179.82 160.85 180.51 164.71 181.86 C 164.41 182.93 164.11 184.00 163.82 185.07 C 160.65 184.15 156.86 182.86 153.85 184.84 C 151.50 186.28 151.26 189.90 153.26 191.73 C 156.58 194.59 161.63 194.84 164.37 198.48 C 167.20 202.08 166.16 207.83 162.34 210.31 C 157.86 213.18 152.01 212.48 147.32 210.49 C 147.53 209.65 147.96 207.98 148.18 207.14 C 151.42 208.53 155.11 209.79 158.59 208.43 C 161.50 207.44 162.97 203.58 161.19 201.00 C 159.28 198.25 155.73 197.71 152.96 196.18 C 150.23 194.89 147.93 192.21 147.95 189.07 C 147.76 185.94 149.77 182.92 152.59 181.65 Z" />
<path fill="#336791" opacity="1.00" d=" M 173.78 184.77 C 179.18 178.71 190.37 179.11 194.83 186.11 C 200.00 194.06 198.31 206.93 189.03 211.11 C 192.00 211.79 194.98 212.42 197.96 213.04 C 197.57 214.14 197.19 215.24 196.81 216.34 C 191.48 215.03 186.39 212.81 180.94 211.97 C 175.72 211.28 171.47 206.97 170.24 201.94 C 168.89 196.11 169.53 189.30 173.78 184.77 M 180.27 184.35 C 173.24 187.59 172.39 197.40 175.35 203.72 C 177.60 209.15 185.51 210.98 189.70 206.75 C 194.53 201.87 194.66 193.48 191.19 187.80 C 189.01 184.11 184.17 182.82 180.27 184.35 Z" />
<path fill="#336791" opacity="1.00" d=" M 202.91 180.99 C 204.24 180.98 205.57 180.98 206.90 180.98 C 206.95 190.17 206.78 199.37 207.00 208.56 C 211.33 208.52 215.67 208.53 220.01 208.52 C 220.01 209.36 220.02 211.04 220.02 211.88 C 214.32 211.84 208.61 211.84 202.91 211.88 C 202.91 201.58 202.91 191.29 202.91 180.99 Z" />
<path fill="#336791" opacity="1.00" d=" M 72.09 184.33 C 73.41 184.03 74.73 183.73 76.06 183.43 C 76.04 185.54 76.03 187.65 76.01 189.77 C 77.94 189.75 79.87 189.73 81.80 189.71 C 81.81 190.71 81.82 191.70 81.84 192.70 C 79.90 192.71 77.96 192.71 76.02 192.72 C 76.17 197.44 75.75 202.19 76.25 206.90 C 76.77 209.32 79.57 208.97 81.44 209.06 C 81.43 209.82 81.41 211.34 81.40 212.10 C 78.33 212.25 73.87 212.67 72.74 208.94 C 71.34 203.62 72.44 198.02 71.92 192.59 C 71.13 192.64 69.55 192.74 68.76 192.79 C 68.76 192.02 68.75 190.49 68.75 189.73 C 69.57 189.74 71.22 189.78 72.04 189.80 C 72.05 187.98 72.07 186.15 72.09 184.33 Z" />
<path fill="#336791" opacity="1.00" d=" M 34.49 189.59 C 38.51 188.61 43.29 189.72 45.76 193.23 C 48.86 197.67 48.86 204.22 45.45 208.49 C 42.19 212.58 35.78 213.45 31.38 210.77 C 23.62 205.99 25.18 191.59 34.49 189.59 M 35.34 192.46 C 28.09 195.07 28.90 208.64 36.98 209.36 C 41.35 209.53 44.06 204.90 43.98 200.99 C 44.42 196.34 40.49 190.65 35.34 192.46 Z" />
<path fill="#336791" opacity="1.00" d=" M 56.08 189.98 C 58.99 188.59 62.24 189.52 65.21 190.19 C 64.92 191.20 64.63 192.20 64.33 193.21 C 61.65 192.42 57.88 191.07 56.09 194.13 C 55.07 197.83 59.69 198.52 62.01 199.88 C 65.89 201.25 67.39 206.50 64.65 209.63 C 61.38 213.29 55.80 212.44 51.63 211.07 C 51.79 210.31 52.10 208.80 52.26 208.04 C 54.97 208.70 57.89 210.07 60.61 208.75 C 62.22 207.90 62.47 205.85 61.83 204.30 C 59.31 201.59 54.75 201.56 52.86 198.16 C 51.13 195.19 52.94 191.10 56.08 189.98 Z" />
<path fill="#336791" opacity="1.00" d=" M 92.35 189.48 C 95.95 188.42 99.36 190.36 101.72 192.94 C 101.68 192.15 101.61 190.56 101.57 189.76 C 102.44 189.76 104.19 189.75 105.06 189.74 C 104.84 196.51 105.10 203.28 104.91 210.04 C 104.70 213.58 103.87 217.63 100.62 219.62 C 96.39 222.26 91.08 221.32 86.56 219.99 C 86.70 219.17 86.96 217.53 87.09 216.71 C 90.71 217.95 95.25 219.38 98.61 216.78 C 101.27 214.72 100.95 211.14 101.08 208.16 C 98.47 211.38 93.90 212.80 90.07 210.89 C 81.59 206.75 82.98 191.63 92.35 189.48 M 93.44 192.56 C 88.03 194.24 87.28 201.76 89.88 206.06 C 91.92 209.41 97.11 209.62 99.52 206.60 C 101.56 204.21 100.94 200.85 100.94 197.97 C 100.94 194.30 96.93 191.36 93.44 192.56 Z" />
<path fill="#336791" opacity="1.00" d=" M 126.07 193.98 C 128.80 189.03 136.37 187.54 140.59 191.40 C 143.33 193.99 143.76 197.96 143.68 201.53 C 138.40 201.44 133.12 201.45 127.84 201.48 C 128.34 203.80 128.73 206.55 130.95 207.91 C 134.24 210.07 138.36 209.03 141.93 208.25 C 142.04 208.95 142.25 210.36 142.36 211.06 C 137.68 212.34 132.01 213.25 127.96 209.91 C 123.43 206.09 123.27 198.88 126.07 193.98 M 127.76 198.64 C 131.90 198.75 136.04 198.74 140.18 198.66 C 139.62 195.85 138.46 192.28 135.07 192.05 C 131.00 191.37 128.71 195.32 127.76 198.64 Z" />
<path fill="#336791" opacity="1.00" d=" M 111.12 189.77 C 112.01 189.76 113.80 189.73 114.69 189.72 C 114.69 191.17 114.70 192.63 114.69 194.09 C 116.24 191.19 118.79 189.13 122.17 188.94 C 122.18 189.91 122.20 191.85 122.21 192.82 C 119.14 192.73 116.07 194.47 115.56 197.71 C 114.81 202.39 115.36 207.18 115.24 211.91 C 113.94 211.88 112.65 211.86 111.36 211.83 C 111.33 204.48 111.56 197.12 111.12 189.77 Z" />
</g>
</svg>
