<?xml version="1.0" encoding="UTF-8" ?>
<!DOCTYPE svg PUBLIC "-//W3C//DTD SVG 1.1//EN" "http://www.w3.org/Graphics/SVG/1.1/DTD/svg11.dtd">
<svg width="241pt" height="209pt" viewBox="0 0 241 209" version="1.1" xmlns="http://www.w3.org/2000/svg">
<g id="#ffffffff">
<path fill="#ffffff" opacity="1.00" d=" M 0.00 0.00 L 69.56 0.00 C 60.05 1.33 52.68 9.12 50.17 18.13 C 45.69 33.51 48.47 49.84 52.08 65.10 C 38.86 69.01 25.56 73.96 14.75 82.76 C 8.38 88.01 2.87 95.41 2.79 104.00 C 2.46 112.19 7.25 119.59 13.16 124.86 C 24.15 134.56 38.22 139.77 52.08 143.90 C 48.46 159.17 45.69 175.49 50.17 190.88 C 52.68 199.88 60.05 207.67 69.56 209.00 L 0.00 209.00 L 0.00 0.00 Z" />
<path fill="#ffffff" opacity="1.00" d=" M 78.29 0.00 L 162.96 0.00 C 146.26 3.22 132.51 14.30 120.51 25.75 C 108.54 14.35 94.88 3.38 78.29 0.00 Z" />
<path fill="#ffffff" opacity="1.00" d=" M 171.48 0.00 L 241.00 0.00 L 241.00 209.00 L 171.47 209.00 C 180.98 207.65 188.34 199.85 190.84 190.84 C 195.30 175.46 192.53 159.15 188.92 143.90 C 202.56 139.85 216.37 134.72 227.31 125.33 C 233.47 120.01 238.51 112.45 238.21 104.02 C 238.13 95.16 232.31 87.60 225.68 82.28 C 214.95 73.80 201.92 68.92 188.92 65.10 C 192.52 49.87 195.29 33.58 190.86 18.23 C 188.37 9.19 181.01 1.36 171.48 0.00 Z" />
<path fill="#ffffff" opacity="1.00" d=" M 64.91 12.87 C 69.73 8.72 76.78 9.59 82.33 11.62 C 94.27 16.02 104.27 24.32 113.36 33.02 C 106.74 40.29 100.46 47.87 94.79 55.91 C 94.10 56.76 93.52 58.09 92.18 57.88 C 82.03 58.85 71.93 60.37 61.99 62.64 C 59.38 51.97 57.39 40.94 58.24 29.91 C 58.85 23.83 60.20 17.17 64.91 12.87 Z" />
<path fill="#ffffff" opacity="1.00" d=" M 154.32 13.39 C 159.84 10.86 166.23 8.76 172.26 10.67 C 177.89 12.57 180.67 18.51 181.84 23.92 C 184.48 36.79 182.05 50.03 178.99 62.60 C 168.70 60.42 158.30 58.56 147.80 57.89 C 141.46 49.30 134.89 40.86 127.65 32.99 C 135.61 25.34 144.29 18.17 154.32 13.39 Z" />
<path fill="#ffffff" opacity="1.00" d=" M 106.75 56.88 C 111.03 51.10 115.69 45.61 120.55 40.30 C 125.27 45.70 130.01 51.10 134.25 56.89 C 125.09 56.45 115.91 56.45 106.75 56.88 Z" />
<path fill="#ffffff" opacity="1.00" d=" M 99.27 67.36 C 113.42 66.54 127.60 66.53 141.75 67.37 C 149.61 78.49 156.32 90.40 162.45 102.56 C 163.25 103.78 163.41 105.21 162.47 106.42 C 156.31 118.58 149.63 130.53 141.72 141.64 C 127.59 142.46 113.42 142.46 99.28 141.65 C 91.23 130.30 84.38 118.13 78.20 105.68 C 77.26 104.44 78.36 103.12 78.83 101.98 C 84.92 90.03 91.50 78.29 99.27 67.36 M 114.37 84.50 C 105.27 87.10 98.71 96.46 99.62 105.93 C 100.01 116.44 109.57 125.48 120.08 125.36 C 130.17 125.88 139.76 117.93 141.17 107.94 C 142.70 99.44 138.35 90.29 130.71 86.22 C 125.80 83.44 119.76 82.94 114.37 84.50 Z" />
<path fill="#ffffff" opacity="1.00" d=" M 64.80 72.37 C 71.81 70.94 78.86 69.57 85.99 68.84 C 80.95 76.42 76.65 84.45 72.18 92.37 C 69.40 85.83 66.85 79.18 64.80 72.37 Z" />
<path fill="#ffffff" opacity="1.00" d=" M 154.98 68.79 C 162.11 69.61 169.18 70.90 176.20 72.37 C 174.08 79.20 171.69 85.97 168.67 92.46 C 164.53 84.33 159.94 76.44 154.98 68.79 Z" />
<path fill="#ffffff" opacity="1.00" d=" M 21.52 90.36 C 31.23 82.67 43.09 78.39 54.83 74.90 C 57.94 84.59 61.62 94.10 65.85 103.36 C 66.70 104.62 65.61 105.94 65.20 107.13 C 61.19 115.89 57.79 124.93 54.83 134.09 C 43.49 130.74 32.11 126.61 22.56 119.46 C 18.27 116.07 13.94 111.76 13.05 106.13 C 12.16 99.64 16.87 94.21 21.52 90.36 Z" />
<path fill="#ffffff" opacity="1.00" d=" M 186.18 74.89 C 197.71 78.34 209.34 82.51 218.96 89.95 C 223.05 93.26 227.11 97.47 227.95 102.88 C 228.84 109.35 224.14 114.77 219.51 118.61 C 209.80 126.32 197.93 130.60 186.17 134.10 C 183.07 124.43 179.39 114.94 175.18 105.70 C 174.30 104.40 175.34 103.06 175.81 101.85 C 179.82 93.09 183.19 84.05 186.18 74.89 Z" />
<path fill="#ffffff" opacity="1.00" d=" M 64.81 136.63 C 66.97 129.86 69.16 123.00 72.41 116.66 C 76.48 124.75 81.09 132.55 85.99 140.16 C 78.86 139.44 71.82 138.06 64.81 136.63 Z" />
<path fill="#ffffff" opacity="1.00" d=" M 168.65 116.57 C 171.71 123.03 174.09 129.81 176.18 136.64 C 169.20 137.94 162.23 139.66 155.12 139.97 C 160.03 132.41 164.56 124.61 168.65 116.57 Z" />
<path fill="#ffffff" opacity="1.00" d=" M 61.99 146.36 C 72.37 148.76 82.94 150.22 93.53 151.29 C 99.51 160.00 106.26 168.16 113.36 175.98 C 105.76 183.34 97.47 190.17 88.00 194.98 C 82.28 197.76 75.77 200.14 69.37 198.55 C 63.71 196.98 60.64 191.28 59.35 185.95 C 56.38 172.82 58.92 159.23 61.99 146.36 Z" />
<path fill="#ffffff" opacity="1.00" d=" M 151.05 150.90 C 160.43 149.93 169.78 148.46 178.98 146.37 C 181.65 157.00 183.57 167.99 182.77 178.98 C 182.16 185.09 180.84 191.81 176.09 196.12 C 171.27 200.28 164.21 199.41 158.66 197.38 C 146.73 192.97 136.73 184.67 127.64 175.98 C 134.60 168.36 141.12 160.35 147.08 151.93 C 147.92 150.65 149.78 151.26 151.05 150.90 Z" />
<path fill="#ffffff" opacity="1.00" d=" M 106.75 152.12 C 115.91 152.54 125.09 152.54 134.25 152.12 C 129.88 157.84 125.42 163.57 120.30 168.64 C 115.74 163.17 110.93 157.89 106.75 152.12 Z" />
<path fill="#ffffff" opacity="1.00" d=" M 120.49 183.25 C 132.46 194.65 146.13 205.62 162.73 209.00 L 78.04 209.00 C 94.74 205.79 108.48 194.69 120.49 183.25 Z" />
</g>
<g id="#61dafbff">
<path fill="#61dafb" opacity="1.00" d=" M 69.56 0.00 L 78.29 0.00 C 94.88 3.38 108.54 14.35 120.51 25.75 C 132.51 14.30 146.26 3.22 162.96 0.00 L 171.48 0.00 C 181.01 1.36 188.37 9.19 190.86 18.23 C 195.29 33.58 192.52 49.87 188.92 65.10 C 201.92 68.92 214.95 73.80 225.68 82.28 C 232.31 87.60 238.13 95.16 238.21 104.02 C 238.51 112.45 233.47 120.01 227.31 125.33 C 216.37 134.72 202.56 139.85 188.92 143.90 C 192.53 159.15 195.30 175.46 190.84 190.84 C 188.34 199.85 180.98 207.65 171.47 209.00 L 162.73 209.00 C 146.13 205.62 132.46 194.65 120.49 183.25 C 108.48 194.69 94.74 205.79 78.04 209.00 L 69.56 209.00 C 60.05 207.67 52.68 199.88 50.17 190.88 C 45.69 175.49 48.46 159.17 52.08 143.90 C 38.22 139.77 24.15 134.56 13.16 124.86 C 7.25 119.59 2.46 112.19 2.79 104.00 C 2.87 95.41 8.38 88.01 14.75 82.76 C 25.56 73.96 38.86 69.01 52.08 65.10 C 48.47 49.84 45.69 33.51 50.17 18.13 C 52.68 9.12 60.05 1.33 69.56 0.00 M 64.91 12.87 C 60.20 17.17 58.85 23.83 58.24 29.91 C 57.39 40.94 59.38 51.97 61.99 62.64 C 71.93 60.37 82.03 58.85 92.18 57.88 C 93.52 58.09 94.10 56.76 94.79 55.91 C 100.46 47.87 106.74 40.29 113.36 33.02 C 104.27 24.32 94.27 16.02 82.33 11.62 C 76.78 9.59 69.73 8.72 64.91 12.87 M 154.32 13.39 C 144.29 18.17 135.61 25.34 127.65 32.99 C 134.89 40.86 141.46 49.30 147.80 57.89 C 158.30 58.56 168.70 60.42 178.99 62.60 C 182.05 50.03 184.48 36.79 181.84 23.92 C 180.67 18.51 177.89 12.57 172.26 10.67 C 166.23 8.76 159.84 10.86 154.32 13.39 M 106.75 56.88 C 115.91 56.45 125.09 56.45 134.25 56.89 C 130.01 51.10 125.27 45.70 120.55 40.30 C 115.69 45.61 111.03 51.10 106.75 56.88 M 99.27 67.36 C 91.50 78.29 84.92 90.03 78.83 101.98 C 78.36 103.12 77.26 104.44 78.20 105.68 C 84.38 118.13 91.23 130.30 99.28 141.65 C 113.42 142.46 127.59 142.46 141.72 141.64 C 149.63 130.53 156.31 118.58 162.47 106.42 C 163.41 105.21 163.25 103.78 162.45 102.56 C 156.32 90.40 149.61 78.49 141.75 67.37 C 127.60 66.53 113.42 66.54 99.27 67.36 M 64.80 72.37 C 66.85 79.18 69.40 85.83 72.18 92.37 C 76.65 84.45 80.95 76.42 85.99 68.84 C 78.86 69.57 71.81 70.94 64.80 72.37 M 154.98 68.79 C 159.94 76.44 164.53 84.33 168.67 92.46 C 171.69 85.97 174.08 79.20 176.20 72.37 C 169.18 70.90 162.11 69.61 154.98 68.79 M 21.52 90.36 C 16.87 94.21 12.16 99.64 13.05 106.13 C 13.94 111.76 18.27 116.07 22.56 119.46 C 32.11 126.61 43.49 130.74 54.83 134.09 C 57.79 124.93 61.19 115.89 65.20 107.13 C 65.61 105.94 66.70 104.62 65.85 103.36 C 61.62 94.10 57.94 84.59 54.83 74.90 C 43.09 78.39 31.23 82.67 21.52 90.36 M 186.18 74.89 C 183.19 84.05 179.82 93.09 175.81 101.85 C 175.34 103.06 174.30 104.40 175.18 105.70 C 179.39 114.94 183.07 124.43 186.17 134.10 C 197.93 130.60 209.80 126.32 219.51 118.61 C 224.14 114.77 228.84 109.35 227.95 102.88 C 227.11 97.47 223.05 93.26 218.96 89.95 C 209.34 82.51 197.71 78.34 186.18 74.89 M 64.81 136.63 C 71.82 138.06 78.86 139.44 85.99 140.16 C 81.09 132.55 76.48 124.75 72.41 116.66 C 69.16 123.00 66.97 129.86 64.81 136.63 M 168.65 116.57 C 164.56 124.61 160.03 132.41 155.12 139.97 C 162.23 139.66 169.20 137.94 176.18 136.64 C 174.09 129.81 171.71 123.03 168.65 116.57 M 61.99 146.36 C 58.92 159.23 56.38 172.82 59.35 185.95 C 60.64 191.28 63.71 196.98 69.37 198.55 C 75.77 200.14 82.28 197.76 88.00 194.98 C 97.47 190.17 105.76 183.34 113.36 175.98 C 106.26 168.16 99.51 160.00 93.53 151.29 C 82.94 150.22 72.37 148.76 61.99 146.36 M 151.05 150.90 C 149.78 151.26 147.92 150.65 147.08 151.93 C 141.12 160.35 134.60 168.36 127.64 175.98 C 136.73 184.67 146.73 192.97 158.66 197.38 C 164.21 199.41 171.27 200.28 176.09 196.12 C 180.84 191.81 182.16 185.09 182.77 178.98 C 183.57 167.99 181.65 157.00 178.98 146.37 C 169.78 148.46 160.43 149.93 151.05 150.90 M 106.75 152.12 C 110.93 157.89 115.74 163.17 120.30 168.64 C 125.42 163.57 129.88 157.84 134.25 152.12 C 125.09 152.54 115.91 152.54 106.75 152.12 Z" />
<path fill="#61dafb" opacity="1.00" d=" M 114.37 84.50 C 119.76 82.94 125.80 83.44 130.71 86.22 C 138.35 90.29 142.70 99.44 141.17 107.94 C 139.76 117.93 130.17 125.88 120.08 125.36 C 109.57 125.48 100.01 116.44 99.62 105.93 C 98.71 96.46 105.27 87.10 114.37 84.50 Z" />
</g>
</svg>
