<?xml version="1.0" encoding="UTF-8" ?>
<!DOCTYPE svg PUBLIC "-//W3C//DTD SVG 1.1//EN" "http://www.w3.org/Graphics/SVG/1.1/DTD/svg11.dtd">
<svg width="510pt" height="134pt" viewBox="0 0 510 134" version="1.1" xmlns="http://www.w3.org/2000/svg">
<g id="#499cd2ff">
<path fill="#499cd2" opacity="1.00" d=" M 464.69 7.51 C 465.41 6.33 466.14 5.15 466.86 3.98 C 483.27 14.14 496.77 28.99 504.91 46.52 C 503.68 47.11 502.46 47.69 501.24 48.28 C 493.39 31.49 480.49 17.18 464.69 7.51 Z" />
<path fill="#499cd2" opacity="1.00" d=" M 431.54 6.40 C 464.22 15.70 491.34 43.02 499.25 76.22 C 497.58 76.61 495.92 77.00 494.27 77.40 C 486.78 45.97 461.07 20.13 430.15 11.33 C 430.61 9.69 431.07 8.04 431.54 6.40 Z" />
<path fill="#499cd2" opacity="1.00" d=" M 392.77 14.45 C 418.41 14.37 443.88 24.83 461.94 43.05 C 479.72 60.65 490.11 85.43 490.03 110.47 C 487.98 110.46 485.93 110.46 483.89 110.46 C 483.91 88.71 475.60 67.12 461.00 51.00 C 443.93 31.77 418.46 20.49 392.76 20.60 C 392.76 18.55 392.76 16.50 392.77 14.45 Z" />
</g>
<g id="#070707ff">
<path fill="#070707" opacity="1.00" d=" M 338.04 110.61 C 338.87 86.95 338.20 63.26 338.44 39.60 C 341.36 39.59 344.29 39.60 347.22 39.61 C 347.20 49.76 347.28 59.92 347.18 70.07 C 353.12 59.62 369.25 58.06 377.43 66.64 C 384.72 74.23 385.67 86.04 382.87 95.77 C 380.42 104.52 372.29 111.63 363.02 111.66 C 356.10 112.18 349.52 108.37 346.07 102.45 C 345.96 105.17 345.80 107.88 345.62 110.60 C 343.09 110.60 340.56 110.60 338.04 110.61 M 357.41 68.53 C 351.21 70.26 347.05 76.61 347.23 82.93 C 347.36 88.59 346.13 95.14 350.31 99.75 C 355.53 106.54 367.25 106.26 371.95 99.01 C 376.42 91.79 376.57 81.98 372.52 74.54 C 369.64 69.34 363.06 66.78 357.41 68.53 Z" />
<path fill="#070707" opacity="1.00" d=" M 64.47 60.61 C 71.00 59.77 77.99 60.76 83.52 64.51 C 97.93 74.17 97.16 99.34 81.94 107.87 C 73.12 112.82 61.45 112.68 52.94 107.10 C 41.80 99.70 39.99 83.30 46.19 72.15 C 49.89 65.55 57.06 61.45 64.47 60.61 M 66.37 71.44 C 61.95 72.36 59.60 76.93 58.87 81.02 C 57.95 86.47 58.21 92.69 61.67 97.26 C 64.36 100.95 70.20 101.64 73.62 98.58 C 77.15 95.47 78.00 90.44 78.08 85.97 C 78.04 81.67 77.27 76.97 74.23 73.72 C 72.29 71.55 69.16 70.80 66.37 71.44 Z" />
<path fill="#070707" opacity="1.00" d=" M 111.72 68.34 C 116.93 60.56 128.25 57.91 136.30 62.74 C 142.17 66.27 144.42 73.47 144.55 79.98 C 144.66 90.10 144.59 100.22 144.58 110.34 C 139.52 110.33 134.47 110.33 129.42 110.34 C 129.37 101.55 129.41 92.76 129.40 83.98 C 129.35 81.06 129.20 77.91 127.49 75.42 C 125.52 72.50 121.29 71.96 118.26 73.39 C 115.09 74.90 113.26 78.49 113.41 81.93 C 113.36 91.40 113.43 100.86 113.39 110.33 C 108.33 110.34 103.26 110.34 98.20 110.33 C 98.09 94.02 98.50 77.71 97.80 61.42 C 102.19 61.38 106.58 61.41 110.97 61.39 C 111.23 63.71 111.48 66.02 111.72 68.34 Z" />
<path fill="#070707" opacity="1.00" d=" M 212.96 70.59 C 215.43 63.90 222.32 59.04 229.58 60.49 C 229.62 65.27 229.57 70.04 229.63 74.82 C 226.11 74.48 222.25 74.16 219.15 76.20 C 216.16 78.02 214.78 81.62 214.83 85.01 C 214.74 93.45 214.83 101.89 214.80 110.32 C 209.74 110.34 204.67 110.33 199.61 110.33 C 199.45 94.02 199.95 77.70 199.20 61.40 C 203.51 61.39 207.82 61.43 212.13 61.36 C 212.40 64.44 212.53 67.53 212.96 70.59 Z" />
<path fill="#070707" opacity="1.00" d=" M 11.45 64.51 C 19.41 58.71 30.40 59.57 39.11 63.16 C 38.25 66.63 37.39 70.09 36.52 73.55 C 32.56 71.93 28.29 70.50 23.95 71.09 C 22.01 71.32 19.86 72.81 20.12 75.00 C 20.10 76.89 21.97 77.91 23.46 78.61 C 27.97 80.65 33.05 81.78 36.79 85.22 C 42.53 90.23 42.58 100.03 37.37 105.44 C 34.18 108.81 29.57 110.41 25.06 110.99 C 18.04 111.87 10.74 110.89 4.30 107.90 C 5.17 104.29 6.08 100.69 6.99 97.09 C 12.18 99.49 18.11 101.56 23.86 100.12 C 27.15 99.49 27.55 94.55 24.59 93.18 C 19.18 90.43 12.63 89.33 8.54 84.43 C 3.26 78.65 5.31 68.84 11.45 64.51 Z" />
<path fill="#070707" opacity="1.00" d=" M 152.09 64.68 C 159.74 60.90 168.56 59.49 176.98 60.83 C 182.18 61.65 187.27 64.52 189.78 69.27 C 192.82 74.65 192.49 81.04 192.51 87.00 C 192.58 94.78 192.19 102.60 193.22 110.33 C 188.69 110.33 184.15 110.33 179.61 110.34 C 179.31 108.65 179.00 106.97 178.70 105.29 C 172.68 112.10 161.25 113.66 154.01 107.95 C 146.77 102.17 146.91 89.86 154.06 84.07 C 160.55 78.67 169.39 77.94 177.48 77.67 C 177.24 75.00 175.96 72.22 173.12 71.53 C 166.99 69.80 160.45 71.64 154.88 74.35 C 153.94 71.13 153.01 67.91 152.09 64.68 M 165.95 90.03 C 162.86 92.31 162.71 97.91 166.19 99.89 C 170.47 102.22 176.48 99.41 177.57 94.70 C 177.96 92.21 177.78 89.68 177.78 87.18 C 173.76 87.42 169.30 87.45 165.95 90.03 Z" />
<path fill="#070707" opacity="1.00" d=" M 231.89 82.96 C 233.17 71.29 243.40 61.49 255.09 60.64 C 266.64 59.37 278.27 67.04 281.79 78.09 C 284.97 87.20 282.26 97.70 275.59 104.56 C 278.91 109.92 282.23 115.28 285.50 120.67 C 282.88 122.47 280.24 124.25 277.58 125.99 C 274.31 120.62 271.00 115.27 267.70 109.92 C 260.90 112.63 253.02 112.71 246.38 109.49 C 236.52 104.95 230.32 93.72 231.89 82.96 M 253.46 68.67 C 246.86 70.08 241.35 75.51 239.88 82.10 C 238.25 88.61 240.70 95.88 245.90 100.11 C 251.03 104.43 258.65 105.49 264.75 102.69 C 270.27 100.27 274.33 94.90 275.19 88.95 C 276.11 83.23 274.02 77.16 269.80 73.20 C 265.56 69.09 259.21 67.36 253.46 68.67 Z" />
<path fill="#070707" opacity="1.00" d=" M 394.77 66.76 C 402.49 59.41 416.60 58.83 423.90 67.07 C 428.79 72.76 430.00 80.72 429.31 87.99 C 417.95 88.02 406.60 87.98 395.25 88.01 C 395.38 93.80 397.75 100.09 403.25 102.76 C 410.15 105.98 418.30 104.77 425.24 102.27 C 425.76 104.34 426.30 106.42 426.85 108.49 C 419.20 111.56 410.47 112.64 402.45 110.43 C 395.23 108.40 389.54 102.23 387.80 94.97 C 385.42 85.27 387.31 73.84 394.77 66.76 M 400.07 71.13 C 397.31 73.97 396.08 77.84 395.33 81.63 C 403.91 81.70 412.50 81.65 421.09 81.66 C 420.87 77.99 420.20 74.13 417.79 71.22 C 413.47 66.03 404.51 66.18 400.07 71.13 Z" />
<path fill="#070707" opacity="1.00" d=" M 288.03 62.20 C 290.96 62.20 293.89 62.20 296.82 62.20 C 296.89 71.80 296.70 81.40 296.91 91.00 C 297.11 95.75 298.50 101.53 303.32 103.60 C 310.57 106.67 319.45 100.82 319.91 93.08 C 320.19 82.79 319.93 72.49 320.03 62.20 C 322.96 62.20 325.89 62.20 328.82 62.20 C 329.01 78.31 328.39 94.43 329.25 110.52 C 326.64 110.61 324.03 110.63 321.43 110.59 C 321.24 107.91 321.07 105.23 320.96 102.55 C 316.17 110.79 304.80 114.25 296.39 109.61 C 290.26 106.12 288.19 98.59 288.07 91.98 C 287.96 82.05 288.05 72.12 288.03 62.20 Z" />
</g>
</svg>
