<?xml version="1.0" encoding="UTF-8" ?>
<!DOCTYPE svg PUBLIC "-//W3C//DTD SVG 1.1//EN" "http://www.w3.org/Graphics/SVG/1.1/DTD/svg11.dtd">
<svg width="1817pt" height="555pt" viewBox="0 0 1817 555" version="1.1" xmlns="http://www.w3.org/2000/svg">
<g id="#aac5deff">
<path fill="#aac5de" opacity="1.00" d=" M 1193.21 84.58 C 1220.46 84.20 1247.70 84.94 1274.96 84.75 C 1329.66 85.50 1384.38 85.46 1439.03 88.31 C 1489.29 91.14 1539.60 96.12 1588.85 106.86 C 1609.90 111.57 1630.77 117.27 1650.96 124.92 C 1668.42 131.66 1685.50 140.01 1700.21 151.72 C 1712.79 161.65 1723.64 175.27 1726.14 191.50 C 1728.62 207.24 1722.51 222.95 1713.80 235.82 C 1701.59 253.66 1685.01 268.01 1667.54 280.52 C 1633.67 304.34 1596.48 323.06 1558.48 339.31 C 1480.02 372.42 1397.98 396.29 1315.13 415.56 C 1186.66 445.25 1055.52 463.13 923.86 469.87 C 892.94 471.25 861.98 472.68 831.02 471.99 C 802.02 471.21 773.03 469.67 744.04 468.62 C 734.48 468.19 724.90 468.35 715.38 467.45 C 843.79 461.57 971.41 442.36 1096.56 413.26 C 1141.94 402.75 1186.98 390.71 1231.37 376.57 C 1288.18 358.34 1344.37 337.33 1397.06 309.12 C 1416.26 298.81 1435.09 287.64 1452.47 274.43 C 1467.81 262.66 1482.42 249.44 1493.32 233.33 C 1502.20 220.19 1507.99 203.85 1504.70 187.91 C 1501.76 172.61 1491.43 159.89 1479.40 150.52 C 1465.13 139.28 1448.69 131.15 1431.90 124.40 C 1407.54 114.81 1382.04 108.47 1356.42 103.29 C 1331.83 98.21 1307.02 93.99 1281.99 91.89 C 1252.39 89.48 1222.75 87.52 1193.21 84.58 Z" />
</g>
<g id="#1c5b8dff">
<path fill="#1c5b8d" opacity="1.00" d=" M 1198.86 116.00 C 1215.13 116.00 1231.39 115.98 1247.66 116.01 C 1239.79 142.10 1231.74 168.13 1223.78 194.19 C 1233.93 182.50 1248.96 176.32 1263.89 173.50 C 1279.11 170.75 1294.71 170.47 1310.11 171.57 C 1320.33 172.43 1330.84 173.98 1339.95 179.01 C 1345.41 182.00 1349.93 187.01 1351.48 193.13 C 1353.31 200.20 1351.78 207.55 1349.64 214.36 C 1339.48 249.16 1329.36 283.97 1319.16 318.75 C 1302.89 318.73 1286.63 318.78 1270.37 318.72 C 1279.93 285.55 1289.53 252.39 1299.11 219.22 C 1300.18 214.85 1301.54 210.16 1300.14 205.71 C 1298.95 202.17 1295.53 199.97 1292.09 198.99 C 1283.60 196.52 1274.65 197.01 1265.92 197.03 C 1254.30 197.55 1242.24 199.02 1232.00 204.93 C 1222.70 210.10 1216.54 219.48 1213.27 229.40 C 1203.91 259.22 1195.27 289.27 1185.69 319.03 C 1169.43 318.48 1153.16 318.85 1136.89 318.76 C 1157.50 251.16 1178.23 183.60 1198.86 116.00 Z" />
<path fill="#1c5b8d" opacity="1.00" d=" M 793.41 177.54 C 814.02 173.53 835.12 174.06 856.00 173.51 C 868.40 173.86 880.88 173.78 893.14 175.89 C 901.48 177.37 910.22 179.55 916.70 185.33 C 922.00 189.95 924.52 197.08 924.52 203.99 C 924.94 215.36 921.21 226.25 918.15 237.03 C 910.56 263.43 903.01 289.85 895.40 316.24 C 879.00 316.46 862.59 316.85 846.19 317.00 C 848.58 310.89 851.21 304.86 853.28 298.64 C 849.76 302.02 846.49 305.76 842.24 308.27 C 829.36 316.34 813.81 318.28 798.94 319.17 C 782.58 319.84 766.09 320.35 749.82 318.13 C 740.50 316.71 730.52 314.30 723.78 307.25 C 718.68 301.88 717.39 294.10 718.07 286.97 C 719.71 271.00 727.02 254.86 740.54 245.56 C 754.97 235.65 772.84 232.90 789.92 231.44 C 804.57 230.48 819.29 230.07 833.95 230.93 C 843.23 231.72 853.30 233.06 860.61 239.36 C 863.07 241.19 863.92 244.48 866.49 246.17 C 868.60 239.28 870.48 232.32 872.49 225.40 C 873.95 220.06 875.53 214.55 874.89 208.96 C 874.47 205.48 872.11 202.42 868.95 200.97 C 862.77 198.00 855.75 197.72 849.02 197.31 C 838.71 197.15 828.34 197.03 818.12 198.53 C 811.46 199.63 804.58 201.76 799.71 206.67 C 796.64 209.70 794.81 213.69 793.49 217.74 C 777.09 217.80 760.71 218.13 744.32 218.47 C 747.00 209.22 751.59 200.33 758.68 193.68 C 768.08 184.62 780.81 180.02 793.41 177.54 M 798.51 254.79 C 791.48 255.58 784.21 257.05 778.39 261.30 C 771.31 266.49 768.16 275.60 768.00 284.11 C 767.94 288.82 771.75 292.57 776.09 293.74 C 784.16 296.11 792.68 295.79 801.01 296.01 C 814.13 295.51 827.62 296.16 840.30 292.12 C 847.67 289.81 854.32 284.62 857.30 277.36 C 859.19 272.72 860.97 267.20 858.68 262.38 C 856.21 257.44 850.40 255.78 845.38 254.86 C 835.01 253.27 824.47 253.71 814.02 253.99 C 808.83 254.00 803.66 254.28 798.51 254.79 Z" />
<path fill="#1c5b8d" opacity="1.00" d=" M 453.82 175.25 C 470.06 175.37 486.31 174.97 502.54 175.54 C 482.03 243.28 461.47 311.01 440.97 378.75 C 424.68 378.73 408.39 378.78 392.10 378.72 C 400.15 352.04 408.62 325.48 416.41 298.72 C 413.01 300.44 410.74 303.62 407.58 305.68 C 394.97 314.69 379.24 317.74 364.07 318.91 C 347.73 319.96 331.14 319.83 315.04 316.60 C 305.51 314.44 295.35 310.80 289.45 302.53 C 283.96 294.89 283.89 284.94 284.97 275.97 C 287.01 261.90 291.70 248.40 296.15 234.95 C 300.62 222.26 306.26 209.55 315.66 199.70 C 324.49 190.03 336.54 183.86 349.06 180.45 C 363.01 176.67 377.56 175.55 391.97 175.75 C 403.22 175.64 414.64 176.25 425.52 179.36 C 433.02 181.55 440.40 185.57 444.77 192.25 C 446.30 194.43 446.96 197.20 449.06 198.96 C 450.78 191.08 452.11 183.13 453.82 175.25 M 378.50 202.82 C 370.60 204.06 362.68 207.17 357.17 213.16 C 348.84 222.06 345.09 234.03 341.53 245.42 C 338.69 255.44 334.68 265.46 335.00 276.04 C 335.04 281.45 338.29 286.56 343.08 289.03 C 350.43 292.77 358.89 293.33 367.00 293.51 C 381.72 293.56 397.47 293.30 410.54 285.64 C 421.90 278.78 426.63 265.58 430.39 253.56 C 433.09 244.53 436.39 235.59 437.55 226.18 C 438.14 220.90 437.92 214.92 434.29 210.69 C 429.76 205.29 422.42 203.72 415.79 202.66 C 403.43 201.16 390.84 201.08 378.50 202.82 Z" />
<path fill="#1c5b8d" opacity="1.00" d=" M 540.65 175.25 C 556.91 175.17 573.17 175.31 589.43 175.50 C 580.13 206.74 570.74 237.96 561.40 269.18 C 560.03 274.16 558.43 279.43 559.63 284.60 C 560.65 288.58 564.52 290.88 568.25 291.88 C 576.94 294.22 586.05 293.79 594.96 293.68 C 607.42 293.05 620.55 291.22 630.98 283.85 C 639.34 278.07 644.41 268.73 647.37 259.22 C 655.68 231.31 664.03 203.42 672.33 175.51 C 688.60 175.61 704.88 175.22 721.14 175.80 C 706.78 223.28 692.46 270.76 678.13 318.24 C 662.37 318.24 646.60 318.26 630.84 318.23 C 632.88 310.74 635.72 303.47 637.35 295.87 C 633.66 299.00 630.37 302.61 626.31 305.28 C 612.78 314.62 596.18 318.07 580.04 319.21 C 565.05 320.15 549.85 320.04 535.07 317.09 C 526.37 315.19 517.12 311.94 511.65 304.48 C 506.41 297.30 507.06 287.63 509.36 279.49 C 519.76 244.74 530.26 210.01 540.65 175.25 Z" />
<path fill="#1c5b8d" opacity="1.00" d=" M 1002.83 176.46 C 1020.47 174.34 1038.27 174.86 1055.99 174.99 C 1073.02 175.46 1090.31 175.37 1106.94 179.56 C 1115.30 181.77 1124.17 185.51 1128.75 193.30 C 1132.82 200.31 1131.72 208.88 1129.43 216.29 C 1113.19 215.86 1096.95 215.81 1080.71 215.48 C 1081.83 211.14 1083.08 205.26 1078.73 202.26 C 1072.32 198.26 1064.38 198.86 1057.14 198.31 C 1044.39 198.31 1031.54 197.19 1018.88 199.27 C 1012.37 200.40 1005.61 203.13 1001.79 208.80 C 999.00 212.99 997.08 217.99 997.06 223.05 C 997.80 227.72 1003.21 228.73 1007.06 229.52 C 1020.30 231.51 1033.73 231.59 1047.07 232.32 C 1063.67 233.21 1080.51 233.16 1096.75 237.15 C 1105.17 239.35 1114.33 243.51 1117.88 252.07 C 1121.80 261.83 1119.00 272.73 1115.43 282.16 C 1110.32 295.25 1098.91 305.02 1085.93 309.86 C 1069.11 316.40 1050.85 317.57 1033.01 318.21 C 1013.42 318.31 993.82 318.36 974.26 317.18 C 963.65 316.35 952.80 315.32 942.94 311.04 C 936.67 308.35 931.16 303.27 929.37 296.52 C 927.24 288.04 929.00 279.16 931.63 271.00 C 947.87 271.45 964.13 271.62 980.38 271.77 C 979.32 276.36 977.69 281.17 978.95 285.89 C 979.86 289.41 983.26 291.51 986.55 292.47 C 993.47 294.48 1000.74 294.57 1007.89 294.92 C 1019.97 295.03 1032.11 295.86 1044.17 294.61 C 1050.92 293.86 1058.11 291.99 1062.85 286.78 C 1066.92 282.17 1069.04 276.04 1069.77 270.01 C 1070.16 264.65 1064.39 262.27 1060.11 261.16 C 1045.69 257.75 1030.75 258.11 1016.05 257.50 C 999.74 256.82 983.27 256.39 967.30 252.71 C 959.82 250.86 951.27 247.82 947.92 240.22 C 944.85 232.23 947.14 223.50 949.39 215.60 C 952.18 205.40 957.63 195.63 966.21 189.22 C 976.70 181.20 989.95 178.04 1002.83 176.46 Z" />
<path fill="#1c5b8d" opacity="1.00" d=" M 143.87 178.51 C 166.38 174.70 189.31 175.66 212.05 175.50 C 227.01 175.87 242.21 176.06 256.72 180.14 C 264.39 182.40 272.36 186.30 276.31 193.63 C 279.89 200.49 278.92 208.60 276.83 215.76 C 260.55 215.75 244.27 215.72 227.99 215.78 C 228.73 212.47 229.78 208.87 228.49 205.57 C 226.79 201.69 222.28 200.42 218.47 199.74 C 209.69 198.44 200.78 198.79 191.93 198.75 C 180.70 198.85 169.00 198.28 158.36 202.50 C 151.69 205.09 147.13 211.37 145.40 218.16 C 144.55 221.18 143.51 225.26 146.39 227.55 C 149.99 230.46 154.89 230.59 159.28 231.21 C 184.05 233.44 209.02 232.26 233.74 235.12 C 243.89 236.62 255.09 238.69 262.40 246.55 C 268.59 253.40 268.54 263.44 266.62 271.94 C 264.85 280.27 261.46 288.39 255.93 294.93 C 249.70 302.47 240.99 307.57 231.92 310.96 C 218.20 315.93 203.57 317.68 189.08 318.57 C 172.74 319.61 156.35 319.14 139.99 319.25 C 125.63 318.82 111.01 318.82 97.06 314.94 C 89.61 312.84 81.98 308.63 78.78 301.20 C 74.96 292.26 77.05 282.22 79.63 273.24 C 95.91 273.27 112.19 273.24 128.47 273.25 C 127.40 278.33 125.40 284.02 127.95 288.97 C 130.41 293.10 135.56 294.21 139.96 294.91 C 153.20 296.65 166.59 295.79 179.91 296.01 C 189.01 295.70 198.76 295.59 206.82 290.77 C 212.85 287.22 215.80 280.36 217.36 273.83 C 218.12 270.71 218.20 266.76 215.29 264.69 C 210.30 261.17 203.91 260.69 198.05 259.87 C 178.04 257.90 157.89 259.03 137.86 257.36 C 128.19 256.60 118.41 255.69 109.16 252.61 C 104.22 250.87 99.12 248.29 96.42 243.57 C 93.49 238.56 93.66 232.46 94.60 226.92 C 96.75 214.87 100.80 202.47 109.85 193.78 C 119.02 184.92 131.56 180.69 143.87 178.51 Z" />
</g>
</svg>
