<?xml version="1.0" encoding="UTF-8" ?>
<!DOCTYPE svg PUBLIC "-//W3C//DTD SVG 1.1//EN" "http://www.w3.org/Graphics/SVG/1.1/DTD/svg11.dtd">
<svg width="563pt" height="678pt" viewBox="0 0 563 678" version="1.1" xmlns="http://www.w3.org/2000/svg">
<g id="#000000ff">
<path fill="#000000" opacity="1.00" d=" M 265.64 0.00 L 286.16 0.00 C 303.36 0.96 320.50 3.44 337.13 8.00 C 374.53 18.12 409.31 37.79 437.25 64.64 C 467.93 93.83 490.43 131.53 501.43 172.43 C 512.82 214.55 512.16 259.84 499.51 301.60 C 489.00 336.43 470.10 368.66 445.01 395.00 C 422.15 418.98 394.16 438.09 363.43 450.49 C 321.19 467.71 273.84 471.90 229.16 462.87 C 174.31 452.04 124.04 420.41 90.13 376.01 C 65.58 344.17 49.54 305.85 44.08 266.02 C 39.28 230.49 42.37 193.83 53.76 159.80 C 69.94 110.79 102.99 67.57 146.02 39.06 C 181.29 15.32 223.21 1.87 265.64 0.00 M 351.46 92.34 C 332.89 100.49 318.42 115.59 307.15 132.11 C 295.85 148.43 287.68 166.70 281.19 185.40 C 272.92 178.50 265.56 170.56 256.98 164.04 C 244.03 154.02 227.70 148.12 211.26 148.72 C 200.40 149.20 189.78 152.76 180.72 158.73 C 168.50 166.26 160.23 179.66 158.49 193.85 C 156.86 209.43 163.74 224.73 173.75 236.34 C 179.28 242.45 185.11 248.30 190.57 254.48 C 193.38 257.71 195.29 261.72 195.92 265.97 C 196.74 272.15 194.01 278.32 189.90 282.83 C 182.66 290.25 171.11 292.75 161.36 289.36 C 155.40 287.30 148.45 284.19 146.85 277.44 C 148.27 272.68 151.79 268.93 153.15 264.15 C 155.40 257.65 154.40 250.09 150.33 244.52 C 145.94 238.60 137.58 237.02 130.74 238.75 C 124.83 240.43 121.10 246.17 119.93 251.94 C 117.56 262.95 121.92 274.51 129.53 282.52 C 138.58 292.04 151.14 297.42 163.80 300.14 C 180.20 303.75 198.18 301.65 212.55 292.67 C 223.85 285.67 232.79 274.19 235.02 260.91 C 236.82 251.55 235.06 241.71 230.54 233.36 C 223.27 219.90 212.15 209.19 202.13 197.83 C 197.69 192.44 195.49 184.84 197.62 178.05 C 200.42 168.50 209.97 161.49 219.95 161.80 C 232.06 162.33 243.66 167.41 253.13 174.84 C 261.65 181.58 269.13 189.54 277.72 196.20 C 272.87 212.45 269.06 228.98 265.71 245.59 C 262.61 259.53 260.85 273.71 257.86 287.67 C 253.23 309.99 248.70 332.56 239.81 353.66 C 233.91 367.27 225.40 380.66 212.34 388.36 C 207.32 391.35 201.48 393.28 195.59 392.98 C 192.60 392.45 189.31 389.25 191.05 386.09 C 193.46 381.50 199.80 380.60 201.69 375.56 C 205.50 365.99 200.08 354.18 190.46 350.62 C 181.44 346.92 170.70 350.27 164.37 357.40 C 158.45 363.58 156.77 373.03 159.24 381.09 C 161.73 389.88 169.19 396.50 177.56 399.65 C 189.04 404.07 201.87 403.41 213.58 400.25 C 233.34 394.74 250.44 381.99 263.66 366.57 C 280.53 347.50 292.66 324.58 300.59 300.47 C 310.15 271.92 314.67 242.06 320.03 212.53 C 334.46 214.03 349.39 213.93 363.28 209.22 C 373.78 205.76 383.91 199.46 389.76 189.84 C 393.01 184.73 393.80 178.36 392.48 172.50 C 390.90 166.77 386.30 161.35 380.12 160.65 C 371.72 159.88 363.08 166.40 362.35 174.98 C 362.46 181.03 368.51 185.20 368.23 191.30 C 367.18 195.28 363.10 197.10 359.75 198.79 C 347.91 204.01 334.48 204.26 321.88 202.34 C 326.49 178.03 330.06 153.28 338.91 130.05 C 343.63 118.27 350.26 106.21 361.66 99.74 C 368.03 96.10 375.67 94.77 382.90 95.98 C 385.84 96.55 389.18 98.65 389.04 102.02 C 388.05 106.66 384.40 110.25 383.30 114.86 C 382.48 119.67 382.93 125.07 386.08 129.01 C 391.31 135.74 401.40 137.10 408.96 133.91 C 418.67 129.25 422.44 116.57 419.16 106.74 C 416.39 98.29 408.72 92.50 400.63 89.56 C 384.72 83.90 366.77 85.61 351.46 92.34 Z" />
<path fill="#000000" opacity="1.00" d=" M 292.61 535.51 C 300.18 527.85 312.02 528.43 321.87 529.79 C 321.57 533.42 322.02 538.27 318.11 540.18 C 313.24 541.38 307.04 540.19 303.63 544.79 C 299.23 551.00 300.79 559.11 300.52 566.25 C 307.36 566.24 314.20 566.25 321.04 566.24 C 321.02 568.49 321.11 570.75 320.83 573.00 C 320.46 575.80 317.84 578.04 315.04 578.13 C 310.20 578.47 305.35 578.16 300.50 578.24 C 300.49 597.85 300.51 617.45 300.51 637.05 C 300.77 640.05 298.87 643.16 295.90 643.94 C 292.64 644.51 289.30 644.23 286.00 644.24 C 286.00 622.24 286.01 600.24 286.00 578.24 C 281.11 578.02 276.06 578.92 271.31 577.57 C 266.87 575.69 267.46 570.19 267.43 566.26 C 273.62 566.24 279.81 566.25 286.01 566.25 C 285.97 555.84 285.17 543.84 292.61 535.51 Z" />
<path fill="#000000" opacity="1.00" d=" M 13.79 536.86 C 25.69 530.43 39.92 531.33 52.71 534.19 C 52.34 537.83 52.59 542.78 48.48 544.39 C 45.32 545.02 42.10 544.10 38.93 543.91 C 32.23 543.32 24.86 544.18 19.44 548.50 C 13.36 553.37 12.77 563.34 17.87 569.12 C 21.87 573.76 27.61 576.30 32.97 578.99 C 41.56 583.22 50.78 587.29 56.87 594.98 C 62.06 601.41 63.43 610.08 62.57 618.11 C 61.91 625.54 58.48 632.84 52.55 637.50 C 44.82 643.62 34.69 645.54 25.07 645.92 C 16.86 646.32 8.86 644.07 1.10 641.66 C 1.76 637.93 1.62 632.30 6.27 631.27 C 10.28 631.27 14.03 633.02 17.98 633.59 C 26.29 635.20 35.60 633.75 42.18 628.13 C 47.66 623.50 49.70 615.42 47.24 608.70 C 45.55 603.88 41.60 600.29 37.35 597.68 C 29.11 592.67 19.78 589.66 11.83 584.13 C 5.50 580.00 1.09 573.23 0.00 565.74 L 0.00 557.67 C 0.85 549.00 6.05 540.93 13.79 536.86 Z" />
<path fill="#000000" opacity="1.00" d=" M 164.29 577.30 C 171.37 565.05 188.40 561.10 200.69 567.36 C 205.49 569.78 208.76 574.27 211.10 578.99 C 215.69 570.71 224.54 565.05 234.01 564.53 C 241.58 564.22 249.85 566.10 255.15 571.87 C 260.64 577.79 262.13 586.18 262.24 593.98 C 262.26 608.32 262.25 622.67 262.26 637.01 C 262.55 639.94 260.94 643.11 257.96 643.90 C 254.60 644.56 251.15 644.22 247.75 644.24 C 247.71 628.82 247.83 613.41 247.69 598.00 C 247.42 591.64 246.99 584.51 242.34 579.67 C 237.55 574.83 229.47 575.75 224.13 579.16 C 217.04 583.95 214.41 592.89 213.81 601.03 C 213.13 613.35 213.71 625.71 213.48 638.04 C 213.63 640.78 211.63 643.38 208.95 643.97 C 205.66 644.51 202.31 644.22 199.00 644.24 C 198.98 628.17 199.03 612.10 198.99 596.02 C 198.77 589.82 197.73 582.62 192.51 578.55 C 185.94 574.11 176.41 576.71 171.65 582.66 C 166.62 588.88 165.17 597.16 165.02 604.96 C 164.93 615.65 165.07 626.34 164.99 637.03 C 165.25 640.13 163.26 643.43 160.08 644.01 C 156.91 644.49 153.69 644.23 150.50 644.24 C 150.49 618.24 150.50 592.23 150.50 566.23 C 154.28 566.49 158.76 565.36 161.93 567.97 C 164.71 570.23 164.11 574.12 164.29 577.30 Z" />
<path fill="#000000" opacity="1.00" d=" M 352.40 565.59 C 364.09 563.01 377.12 564.87 386.83 572.17 C 408.02 588.10 406.89 624.97 384.65 639.51 C 368.94 650.24 345.30 647.72 332.83 633.10 C 319.60 618.07 319.28 593.41 331.89 577.92 C 337.07 571.64 344.47 567.32 352.40 565.59 M 359.40 576.55 C 352.98 577.38 347.18 581.30 343.67 586.68 C 337.79 595.45 336.80 606.97 340.06 616.90 C 341.86 622.44 345.21 627.69 350.22 630.84 C 359.27 636.68 372.63 635.02 379.47 626.50 C 388.59 615.07 388.88 597.48 380.35 585.64 C 375.74 579.05 367.38 575.34 359.40 576.55 Z" />
<path fill="#000000" opacity="1.00" d=" M 428.71 578.50 C 432.98 570.71 441.28 565.74 450.01 564.80 C 458.79 563.76 468.70 565.37 475.16 571.87 C 481.34 578.19 483.34 587.39 483.49 595.96 C 483.51 609.64 483.51 623.32 483.50 637.00 C 483.77 640.00 481.92 643.15 478.93 643.93 C 475.65 644.51 472.30 644.23 469.00 644.24 C 468.97 630.16 469.04 616.07 468.97 601.99 C 468.63 594.91 468.40 587.04 463.74 581.26 C 456.38 573.21 442.14 575.70 435.85 583.92 C 431.19 589.85 429.61 597.57 429.28 604.95 C 429.16 615.62 429.34 626.30 429.23 636.98 C 429.43 639.92 427.77 642.94 424.89 643.88 C 421.47 644.57 417.96 644.21 414.50 644.24 C 414.49 618.24 414.51 592.24 414.49 566.25 C 418.38 566.47 422.84 565.37 426.25 567.76 C 429.58 570.27 428.61 574.91 428.71 578.50 Z" />
<path fill="#000000" opacity="1.00" d=" M 66.18 566.26 C 70.52 566.33 74.99 565.74 79.23 566.90 C 82.15 567.78 83.65 570.68 84.53 573.38 C 90.66 592.49 96.91 611.56 103.09 630.66 C 109.03 612.51 115.28 594.45 121.10 576.26 C 122.25 572.81 123.30 568.49 127.09 567.04 C 131.01 565.73 135.24 566.34 139.30 566.23 C 129.67 593.00 119.97 619.74 110.35 646.52 C 107.34 654.71 104.57 663.31 98.76 670.03 C 94.97 674.61 89.33 677.33 83.47 678.00 L 76.74 678.00 C 74.66 677.73 72.60 677.36 70.53 677.03 C 71.15 673.62 70.55 669.02 74.04 667.03 C 78.12 665.71 82.97 666.45 86.41 663.43 C 91.25 659.37 94.50 653.20 95.16 646.94 C 94.28 641.98 91.82 637.48 90.29 632.71 C 82.25 610.56 74.21 588.41 66.18 566.26 Z" />
<path fill="#000000" opacity="1.00" d=" M 489.89 566.24 C 494.10 566.29 498.39 565.85 502.54 566.76 C 505.86 567.56 507.51 570.88 508.44 573.87 C 514.48 592.80 520.69 611.69 526.81 630.60 C 532.57 613.38 538.41 596.18 543.96 578.90 C 545.32 575.22 545.93 570.88 548.97 568.13 C 553.02 565.23 558.35 566.49 563.00 566.23 L 563.00 566.44 C 552.44 595.47 542.05 624.55 531.50 653.58 C 528.45 661.40 524.70 669.69 517.44 674.48 C 514.45 676.44 510.93 677.40 507.44 678.00 L 500.63 678.00 C 498.50 677.74 496.37 677.36 494.26 677.03 C 494.89 673.73 494.33 669.51 497.35 667.26 C 501.06 665.60 505.60 666.59 509.07 664.20 C 513.89 660.98 516.70 655.55 518.44 650.17 C 519.89 645.94 517.30 641.88 516.01 637.98 C 507.24 614.09 498.59 590.15 489.89 566.24 Z" />
</g>
<g id="#ffffffff">
<path fill="#ffffff" opacity="1.00" d=" M 351.46 92.34 C 366.77 85.61 384.72 83.90 400.63 89.56 C 408.72 92.50 416.39 98.29 419.16 106.74 C 422.44 116.57 418.67 129.25 408.96 133.91 C 401.40 137.10 391.31 135.74 386.08 129.01 C 382.93 125.07 382.48 119.67 383.30 114.86 C 384.40 110.25 388.05 106.66 389.04 102.02 C 389.18 98.65 385.84 96.55 382.90 95.98 C 375.67 94.77 368.03 96.10 361.66 99.74 C 350.26 106.21 343.63 118.27 338.91 130.05 C 330.06 153.28 326.49 178.03 321.88 202.34 C 334.48 204.26 347.91 204.01 359.75 198.79 C 363.10 197.10 367.18 195.28 368.23 191.30 C 368.51 185.20 362.46 181.03 362.35 174.98 C 363.08 166.40 371.72 159.88 380.12 160.65 C 386.30 161.35 390.90 166.77 392.48 172.50 C 393.80 178.36 393.01 184.73 389.76 189.84 C 383.91 199.46 373.78 205.76 363.28 209.22 C 349.39 213.93 334.46 214.03 320.03 212.53 C 314.67 242.06 310.15 271.92 300.59 300.47 C 292.66 324.58 280.53 347.50 263.66 366.57 C 250.44 381.99 233.34 394.74 213.58 400.25 C 201.87 403.41 189.04 404.07 177.56 399.65 C 169.19 396.50 161.73 389.88 159.24 381.09 C 156.77 373.03 158.45 363.58 164.37 357.40 C 170.70 350.27 181.44 346.92 190.46 350.62 C 200.08 354.18 205.50 365.99 201.69 375.56 C 199.80 380.60 193.46 381.50 191.05 386.09 C 189.31 389.25 192.60 392.45 195.59 392.98 C 201.48 393.28 207.32 391.35 212.34 388.36 C 225.40 380.66 233.91 367.27 239.81 353.66 C 248.70 332.56 253.23 309.99 257.86 287.67 C 260.85 273.71 262.61 259.53 265.71 245.59 C 269.06 228.98 272.87 212.45 277.72 196.20 C 269.13 189.54 261.65 181.58 253.13 174.84 C 243.66 167.41 232.06 162.33 219.95 161.80 C 209.97 161.49 200.42 168.50 197.62 178.05 C 195.49 184.84 197.69 192.44 202.13 197.83 C 212.15 209.19 223.27 219.90 230.54 233.36 C 235.06 241.71 236.82 251.55 235.02 260.91 C 232.79 274.19 223.85 285.67 212.55 292.67 C 198.18 301.65 180.20 303.75 163.80 300.14 C 151.14 297.42 138.58 292.04 129.53 282.52 C 121.92 274.51 117.56 262.95 119.93 251.94 C 121.10 246.17 124.83 240.43 130.74 238.75 C 137.58 237.02 145.94 238.60 150.33 244.52 C 154.40 250.09 155.40 257.65 153.15 264.15 C 151.79 268.93 148.27 272.68 146.85 277.44 C 148.45 284.19 155.40 287.30 161.36 289.36 C 171.11 292.75 182.66 290.25 189.90 282.83 C 194.01 278.32 196.74 272.15 195.92 265.97 C 195.29 261.72 193.38 257.71 190.57 254.48 C 185.11 248.30 179.28 242.45 173.75 236.34 C 163.74 224.73 156.86 209.43 158.49 193.85 C 160.23 179.66 168.50 166.26 180.72 158.73 C 189.78 152.76 200.40 149.20 211.26 148.72 C 227.70 148.12 244.03 154.02 256.98 164.04 C 265.56 170.56 272.92 178.50 281.19 185.40 C 287.68 166.70 295.85 148.43 307.15 132.11 C 318.42 115.59 332.89 100.49 351.46 92.34 Z" />
</g>
</svg>
