<?xml version="1.0" encoding="UTF-8" ?>
<!DOCTYPE svg PUBLIC "-//W3C//DTD SVG 1.1//EN" "http://www.w3.org/Graphics/SVG/1.1/DTD/svg11.dtd">
<svg width="1024pt" height="1024pt" viewBox="0 0 1024 1024" version="1.1" xmlns="http://www.w3.org/2000/svg">
<g id="#3178c6ff">
<path fill="#3178c6" opacity="1.00" d=" M 93.74 0.00 L 929.53 0.00 C 950.58 1.25 971.20 9.15 987.46 22.62 C 1008.98 40.08 1022.45 66.79 1024.00 94.44 L 1024.00 929.57 C 1022.71 950.37 1015.01 970.76 1001.80 986.93 C 984.35 1008.74 957.45 1022.46 929.57 1024.00 L 93.90 1024.00 C 73.07 1022.53 52.66 1014.74 36.55 1001.37 C 15.02 983.93 1.55 957.23 0.00 929.59 L 0.00 94.44 C 1.41 70.10 11.89 46.40 29.25 29.24 C 46.24 12.03 69.66 1.68 93.74 0.00 M 688.17 505.18 C 661.46 521.64 640.88 548.79 634.84 579.84 C 630.14 604.21 630.92 630.05 639.45 653.51 C 645.11 669.07 654.48 683.16 666.16 694.85 C 680.37 709.20 697.48 720.36 715.40 729.52 C 736.24 739.97 758.32 747.67 779.29 757.84 C 793.97 765.03 808.73 772.97 820.26 784.79 C 826.75 791.40 831.96 799.69 833.12 809.05 C 835.01 820.53 831.26 832.84 822.87 840.99 C 812.44 851.26 797.94 855.98 783.84 858.51 C 754.98 863.02 725.13 859.83 697.49 850.63 C 674.21 843.01 652.64 830.58 633.89 814.87 C 633.87 848.23 633.88 881.59 633.88 914.96 C 655.41 925.92 679.07 931.98 702.85 935.64 C 747.49 942.14 793.55 941.94 837.57 931.43 C 856.50 926.69 874.85 919.06 890.90 907.86 C 904.17 898.61 915.41 886.50 923.72 872.62 C 933.77 856.25 938.40 837.10 939.61 818.07 C 940.77 798.95 939.42 779.36 932.93 761.21 C 926.94 744.72 916.94 729.79 904.20 717.75 C 886.78 700.86 865.36 688.92 843.65 678.47 C 819.63 667.09 794.30 658.34 771.43 644.62 C 761.51 638.57 751.80 631.57 745.03 621.96 C 737.17 611.04 736.14 595.48 742.83 583.76 C 748.84 573.31 759.50 566.45 770.57 562.33 C 791.05 554.87 813.36 554.41 834.82 556.69 C 865.02 560.15 895.01 569.54 920.28 586.71 C 920.28 555.54 920.30 524.36 920.27 493.18 C 880.78 478.15 837.91 475.21 796.03 476.24 C 758.68 477.92 720.26 485.01 688.17 505.18 M 236.00 486.00 C 236.00 513.39 235.99 540.78 236.01 568.17 C 278.61 568.17 321.21 568.16 363.81 568.17 C 363.82 690.11 363.81 812.05 363.82 934.00 C 397.73 933.99 431.65 934.04 465.57 933.97 C 465.54 812.04 465.55 690.10 465.57 568.17 C 508.38 568.17 551.19 568.17 593.99 568.17 C 594.01 540.78 594.00 513.39 594.00 486.00 C 474.67 486.00 355.33 486.00 236.00 486.00 Z" />
</g>
<g id="#ffffffff">
<path fill="#ffffff" opacity="1.00" d=" M 688.17 505.18 C 720.26 485.01 758.68 477.92 796.03 476.24 C 837.91 475.21 880.78 478.15 920.27 493.18 C 920.30 524.36 920.28 555.54 920.28 586.71 C 895.01 569.54 865.02 560.15 834.82 556.69 C 813.36 554.41 791.05 554.87 770.57 562.33 C 759.50 566.45 748.84 573.31 742.83 583.76 C 736.14 595.48 737.17 611.04 745.03 621.96 C 751.80 631.57 761.51 638.57 771.43 644.62 C 794.30 658.34 819.63 667.09 843.65 678.47 C 865.36 688.92 886.78 700.86 904.20 717.75 C 916.94 729.79 926.94 744.72 932.93 761.21 C 939.42 779.36 940.77 798.95 939.61 818.07 C 938.40 837.10 933.77 856.25 923.72 872.62 C 915.41 886.50 904.17 898.61 890.90 907.86 C 874.85 919.06 856.50 926.69 837.57 931.43 C 793.55 941.94 747.49 942.14 702.85 935.64 C 679.07 931.98 655.41 925.92 633.88 914.96 C 633.88 881.59 633.87 848.23 633.89 814.87 C 652.64 830.58 674.21 843.01 697.49 850.63 C 725.13 859.83 754.98 863.02 783.84 858.51 C 797.94 855.98 812.44 851.26 822.87 840.99 C 831.26 832.84 835.01 820.53 833.12 809.05 C 831.96 799.69 826.75 791.40 820.26 784.79 C 808.73 772.97 793.97 765.03 779.29 757.84 C 758.32 747.67 736.24 739.97 715.40 729.52 C 697.48 720.36 680.37 709.20 666.16 694.85 C 654.48 683.16 645.11 669.07 639.45 653.51 C 630.92 630.05 630.14 604.21 634.84 579.84 C 640.88 548.79 661.46 521.64 688.17 505.18 Z" />
<path fill="#ffffff" opacity="1.00" d=" M 236.00 486.00 C 355.33 486.00 474.67 486.00 594.00 486.00 C 594.00 513.39 594.01 540.78 593.99 568.17 C 551.19 568.17 508.38 568.17 465.57 568.17 C 465.55 690.10 465.54 812.04 465.57 933.97 C 431.65 934.04 397.73 933.99 363.82 934.00 C 363.81 812.05 363.82 690.11 363.81 568.17 C 321.21 568.16 278.61 568.17 236.01 568.17 C 235.99 540.78 236.00 513.39 236.00 486.00 Z" />
</g>
</svg>
