<?xml version="1.0" encoding="UTF-8" ?>
<!DOCTYPE svg PUBLIC "-//W3C//DTD SVG 1.1//EN" "http://www.w3.org/Graphics/SVG/1.1/DTD/svg11.dtd">
<svg width="952pt" height="1086pt" viewBox="0 0 952 1086" version="1.1" xmlns="http://www.w3.org/2000/svg">
<g id="#ffffffff">
<path fill="#ffffff" opacity="1.00" d=" M 0.00 0.00 L 952.00 0.00 L 952.00 1086.00 L 0.00 1086.00 L 0.00 0.00 M 99.94 100.23 C 100.09 373.82 99.95 647.41 100.01 921.00 C 99.82 942.58 100.36 964.17 99.74 985.73 C 107.82 986.37 115.93 985.89 124.02 986.04 C 366.57 986.05 609.13 986.02 851.68 986.06 C 851.75 690.74 851.67 395.41 851.71 100.09 C 775.45 99.88 699.19 100.06 622.92 100.00 C 449.93 99.99 276.95 100.02 103.96 99.99 C 102.61 100.00 101.27 100.08 99.94 100.23 Z" />
<path fill="#ffffff" opacity="1.00" d=" M 116.63 116.59 C 356.02 116.35 595.41 116.58 834.80 116.47 C 835.20 170.96 834.86 225.46 834.97 279.95 C 834.98 505.96 834.97 731.97 834.99 957.98 C 835.05 961.76 835.04 965.55 834.73 969.34 C 602.47 969.19 370.21 969.31 137.95 969.27 C 130.85 969.14 123.73 969.57 116.64 969.01 C 116.82 857.34 116.66 745.67 116.71 634.00 C 116.71 466.33 116.71 298.66 116.72 130.99 C 116.73 126.19 116.72 121.39 116.63 116.59 M 246.81 166.51 C 240.63 183.72 234.28 200.87 228.12 218.09 C 225.60 224.68 223.47 231.42 220.85 237.98 C 217.78 247.52 213.47 256.68 211.06 266.41 C 219.51 266.22 227.96 266.21 236.41 266.39 C 238.15 261.98 239.23 257.35 240.98 252.95 C 241.17 252.45 241.36 251.96 241.55 251.48 C 251.64 251.49 261.73 251.50 271.82 251.45 C 272.48 253.76 273.21 256.04 273.87 258.35 C 274.71 261.04 275.59 263.72 276.54 266.39 C 285.20 266.03 293.88 266.59 302.54 266.09 C 297.53 254.22 293.64 241.90 289.09 229.84 C 288.34 227.87 287.64 225.88 286.91 223.90 C 282.52 211.96 278.23 199.99 273.87 188.04 C 271.32 180.86 268.49 173.77 266.17 166.51 C 259.71 166.50 253.26 166.51 246.81 166.51 M 329.63 166.55 C 329.73 199.80 329.76 233.05 329.61 266.29 C 342.75 266.25 355.88 266.33 369.02 266.23 C 379.40 266.03 389.98 261.88 396.42 253.47 C 404.21 244.60 404.21 232.13 404.19 221.00 C 403.84 209.71 405.33 197.90 401.22 187.11 C 396.26 174.87 383.59 167.02 370.58 166.58 C 356.93 166.43 343.28 166.51 329.63 166.55 M 437.29 166.43 C 436.59 175.61 437.12 184.82 436.96 194.01 C 437.11 218.13 436.65 242.26 437.20 266.37 C 459.72 266.20 482.24 266.23 504.76 266.36 C 505.22 259.02 505.06 251.65 504.86 244.30 C 490.63 244.39 476.40 244.15 462.18 244.43 C 461.19 238.77 462.02 232.99 461.59 227.28 C 473.93 226.75 486.29 227.15 498.63 227.06 C 498.75 219.69 498.75 212.31 498.63 204.94 C 486.28 204.84 473.92 205.26 461.59 204.71 C 461.76 199.32 461.78 193.92 461.63 188.53 C 476.02 188.52 490.42 188.47 504.81 188.55 C 505.16 181.20 505.09 173.82 504.85 166.46 C 482.33 166.52 459.81 166.58 437.29 166.43 M 607.36 166.63 C 599.84 181.04 592.59 195.59 585.13 210.04 C 579.73 199.68 574.60 189.19 569.18 178.85 C 566.98 174.72 565.27 170.33 562.68 166.42 C 554.62 166.61 546.56 166.46 538.50 166.51 C 538.54 199.79 538.50 233.07 538.51 266.35 C 546.81 265.99 555.18 266.81 563.44 265.86 C 563.28 250.24 563.10 234.61 563.52 219.00 C 567.59 227.30 573.04 234.86 576.90 243.27 C 582.18 243.35 587.46 243.29 592.75 243.43 C 594.74 240.43 596.53 237.31 598.26 234.14 C 601.12 229.10 604.25 224.19 606.64 218.90 C 607.53 234.70 606.48 250.56 607.23 266.37 C 615.45 266.16 623.67 266.34 631.90 266.26 C 631.67 233.01 631.70 199.75 631.88 166.51 C 623.70 166.62 615.52 166.30 607.36 166.63 M 667.63 166.55 C 667.75 195.69 667.64 224.84 667.68 253.99 C 667.72 258.14 667.38 262.33 668.12 266.45 C 690.62 266.04 713.12 266.40 735.62 266.26 C 735.44 258.96 735.41 251.66 735.68 244.36 C 721.30 244.27 706.92 244.28 692.54 244.35 C 692.46 238.52 692.50 232.69 692.48 226.87 C 704.78 227.03 717.10 227.35 729.38 226.71 C 729.26 219.57 729.26 212.43 729.38 205.30 C 717.09 204.52 704.76 205.24 692.45 204.89 C 692.53 199.44 692.46 193.99 692.51 188.54 C 706.89 188.46 721.27 188.57 735.66 188.48 C 735.47 181.17 735.35 173.86 735.66 166.56 C 712.99 166.47 690.31 166.49 667.63 166.55 M 444.52 324.31 C 426.11 327.44 408.56 334.23 391.93 342.60 C 378.73 350.05 366.33 358.92 355.18 369.20 C 349.60 373.97 345.05 379.75 340.01 385.04 C 339.49 385.86 338.67 386.58 338.47 387.57 C 318.68 411.24 305.96 440.54 300.96 470.92 C 300.07 476.66 298.32 482.38 299.08 488.27 C 296.27 526.72 306.89 565.83 328.10 597.97 C 331.20 602.45 334.41 606.85 337.86 611.08 C 359.35 638.20 389.09 658.61 422.00 669.24 C 462.19 682.18 507.06 680.49 545.97 663.96 C 582.39 648.75 613.45 621.00 632.58 586.46 C 652.18 551.93 659.05 510.69 652.98 471.54 C 651.17 458.69 647.50 446.16 642.87 434.07 C 639.21 424.88 634.78 416.00 629.69 407.53 C 623.11 396.69 615.43 386.53 606.74 377.29 C 604.04 374.63 601.37 371.94 598.71 369.24 C 591.40 362.41 583.34 356.49 575.29 350.60 C 575.05 350.49 574.57 350.28 574.33 350.17 C 573.38 349.31 572.42 348.45 571.28 347.86 C 562.10 343.27 553.27 337.93 543.64 334.28 C 512.47 321.53 477.60 318.25 444.52 324.31 M 230.10 733.66 C 225.61 748.48 219.40 762.71 214.81 777.49 C 218.28 777.48 221.74 777.49 225.21 777.49 C 226.01 775.18 226.83 772.88 227.67 770.59 C 232.26 770.69 236.85 770.73 241.43 770.58 C 242.29 772.84 243.06 775.15 243.78 777.48 C 247.19 777.50 250.60 777.50 254.01 777.48 C 253.07 773.14 251.39 769.02 249.85 764.87 C 246.08 754.38 242.36 743.87 238.40 733.45 C 235.63 733.48 232.86 733.50 230.10 733.66 M 274.76 734.54 C 270.57 736.99 266.98 740.99 266.38 745.96 C 265.73 752.90 265.67 759.95 266.76 766.85 C 268.65 773.78 275.95 778.35 283.01 777.66 C 289.67 778.24 296.35 773.92 298.51 767.60 C 299.92 762.63 299.47 757.40 299.46 752.31 C 293.86 752.57 288.26 752.44 282.66 752.44 C 282.66 755.16 282.67 757.89 282.65 760.63 C 284.88 760.66 287.12 760.62 289.35 760.77 C 289.95 764.00 288.05 767.76 284.69 768.48 C 282.31 769.13 279.95 768.30 277.77 767.42 C 275.21 760.49 276.19 753.00 276.68 745.82 C 277.63 744.64 278.64 743.53 279.68 742.45 C 281.56 742.46 283.43 742.46 285.32 742.49 C 286.22 743.02 287.13 743.56 288.05 744.10 C 288.16 744.79 288.39 746.16 288.51 746.85 C 291.70 747.46 294.96 747.39 298.19 747.42 C 298.54 747.09 299.25 746.43 299.60 746.11 C 298.07 742.39 296.46 738.38 292.96 736.09 C 287.71 732.28 280.68 732.89 274.76 734.54 M 315.86 733.51 C 316.39 748.19 315.60 762.89 316.23 777.56 C 325.99 777.41 335.74 777.52 345.50 777.50 C 345.50 774.42 345.49 771.34 345.44 768.27 C 339.07 768.64 332.68 768.49 326.30 768.38 C 326.30 765.53 326.30 762.68 326.30 759.84 C 331.76 759.72 337.22 759.79 342.68 759.84 C 342.71 756.77 342.69 753.72 342.56 750.67 C 337.12 750.72 331.67 750.79 326.22 750.60 C 326.28 747.89 326.33 745.18 326.42 742.48 C 332.78 742.53 339.14 742.50 345.49 742.50 C 345.50 739.50 345.50 736.50 345.50 733.51 C 335.62 733.47 325.74 733.46 315.86 733.51 M 362.41 733.47 C 362.20 748.14 362.27 762.82 362.37 777.50 C 365.74 777.49 369.12 777.48 372.49 777.47 C 372.48 770.05 372.51 762.62 372.48 755.19 C 372.84 755.37 373.56 755.71 373.93 755.89 C 376.52 760.87 379.74 765.48 382.75 770.22 C 383.56 771.51 384.35 772.83 385.14 774.15 C 385.92 775.20 386.45 776.52 387.50 777.35 C 390.44 777.66 393.40 777.46 396.35 777.45 C 396.29 762.81 396.32 748.16 396.33 733.52 C 393.02 733.48 389.71 733.49 386.41 733.47 C 386.15 740.86 386.42 748.25 386.25 755.64 C 384.88 754.42 383.76 752.98 382.67 751.52 C 381.27 749.14 379.78 746.82 378.29 744.49 C 375.91 740.83 373.59 737.14 371.18 733.51 C 368.25 733.49 365.33 733.48 362.41 733.47 M 424.44 733.61 C 419.35 735.13 414.83 739.12 413.61 744.43 C 412.33 751.96 412.35 759.73 413.82 767.24 C 414.61 770.05 416.58 772.29 418.51 774.41 C 423.50 778.00 430.02 778.51 435.81 776.76 C 440.27 775.33 443.43 771.45 445.07 767.20 C 445.53 766.19 446.02 765.21 446.54 764.25 C 442.59 763.98 438.61 763.80 434.68 764.39 C 434.59 765.09 434.41 766.49 434.33 767.19 C 431.97 768.35 429.25 769.34 426.69 768.20 C 423.82 767.15 423.53 763.68 423.23 761.10 C 422.84 756.10 422.66 750.96 423.86 746.07 C 424.18 744.44 425.64 743.52 426.69 742.40 C 428.53 742.41 430.38 742.43 432.23 742.41 C 433.56 743.52 434.57 744.91 435.02 746.63 C 438.83 747.22 442.70 747.09 446.53 746.71 C 444.18 742.12 442.26 736.92 437.25 734.56 C 433.11 733.27 428.72 733.02 424.44 733.61 M 460.47 733.51 C 460.57 748.17 460.51 762.83 460.50 777.49 C 470.28 777.51 480.07 777.43 489.86 777.54 C 489.93 774.42 489.93 771.31 489.86 768.21 C 483.48 768.70 477.07 768.46 470.68 768.40 C 470.69 765.60 470.68 762.80 470.66 760.01 C 476.16 759.56 481.68 759.85 487.19 759.81 C 487.28 756.81 487.29 753.81 487.45 750.83 C 481.87 750.56 476.29 750.87 470.72 750.56 C 470.69 747.87 470.68 745.19 470.64 742.52 C 477.06 742.51 483.48 742.48 489.90 742.53 C 489.94 739.50 489.93 736.47 489.83 733.45 C 480.04 733.53 470.25 733.44 460.47 733.51 M 535.35 733.46 C 535.25 748.14 535.16 762.83 535.40 777.52 C 543.29 777.01 551.55 778.69 559.16 775.99 C 564.02 773.68 567.62 768.61 567.62 763.13 C 567.74 755.95 568.50 748.55 566.30 741.59 C 565.57 740.67 564.84 739.76 564.12 738.86 C 563.45 738.11 562.80 737.36 562.15 736.62 C 554.10 731.52 544.28 734.13 535.35 733.46 M 659.16 733.45 C 658.98 748.15 658.80 762.88 659.25 777.57 C 668.82 777.41 678.40 777.51 687.98 777.51 C 688.00 774.49 688.00 771.47 687.97 768.46 C 681.76 768.48 675.55 768.52 669.35 768.42 C 669.27 756.79 669.26 745.17 669.37 733.54 C 665.96 733.49 662.56 733.50 659.16 733.45 M 712.85 733.59 C 708.22 748.40 702.25 762.76 697.21 777.44 C 700.70 777.48 704.20 777.63 707.70 777.42 C 709.14 775.42 708.74 772.34 710.65 770.73 C 715.22 770.53 719.81 770.74 724.40 770.64 C 724.99 772.86 725.55 775.10 726.02 777.37 C 729.62 777.52 733.23 777.51 736.84 777.48 C 732.87 765.53 728.34 753.78 724.16 741.91 C 723.13 739.12 722.15 736.33 721.20 733.53 C 718.41 733.48 715.63 733.49 712.85 733.59 M 584.11 733.53 C 584.32 748.18 584.30 762.84 584.12 777.49 C 593.96 777.49 603.80 777.49 613.64 777.50 C 613.72 774.45 613.73 771.40 613.70 768.37 C 607.30 768.52 600.89 768.51 594.48 768.41 C 594.51 765.53 594.51 762.67 594.55 759.81 C 600.02 759.77 605.51 759.69 610.98 759.96 C 611.07 756.83 611.02 753.71 610.72 750.60 C 605.30 750.80 599.89 750.68 594.48 750.63 C 594.51 747.92 594.50 745.21 594.48 742.51 C 600.89 742.51 607.29 742.48 613.70 742.54 C 613.68 739.51 613.64 736.49 613.59 733.48 C 603.76 733.51 593.94 733.45 584.11 733.53 M 216.15 804.53 C 216.15 807.50 216.15 810.48 216.12 813.46 C 219.87 813.49 223.61 813.46 227.36 813.53 C 227.24 825.15 227.32 836.76 227.31 848.38 C 230.70 848.46 234.10 848.46 237.50 848.46 C 237.49 836.80 237.46 825.14 237.51 813.49 C 241.15 813.49 244.79 813.48 248.44 813.50 C 248.47 810.50 248.45 807.50 248.41 804.51 C 237.65 804.53 226.90 804.52 216.15 804.53 M 274.09 804.48 C 273.72 819.11 274.09 833.75 273.90 848.38 C 277.38 848.47 280.86 848.47 284.34 848.39 C 284.31 842.88 284.33 837.37 284.30 831.86 C 285.88 831.86 287.45 831.88 289.04 831.92 C 289.18 832.50 289.46 833.65 289.60 834.23 C 292.03 838.89 294.44 843.59 296.37 848.49 C 300.41 848.46 304.46 848.48 308.51 848.44 C 305.37 842.81 302.68 836.95 299.47 831.37 C 299.46 830.87 299.45 829.89 299.44 829.39 C 300.30 829.01 301.16 828.63 302.03 828.27 C 303.74 826.13 305.65 823.92 306.00 821.09 C 307.11 816.80 305.20 812.60 303.04 809.00 C 301.36 807.94 299.73 806.81 298.16 805.61 C 290.32 803.53 282.10 804.94 274.09 804.48 M 344.69 804.61 C 343.52 809.21 341.70 813.60 340.13 818.08 C 336.49 828.20 332.59 838.22 329.18 848.42 C 332.66 848.49 336.14 848.48 339.63 848.46 C 340.45 846.21 341.20 843.94 341.93 841.67 C 346.68 841.74 351.43 841.69 356.18 841.63 C 356.87 843.90 357.60 846.18 358.38 848.45 C 361.83 848.49 365.28 848.50 368.73 848.43 C 367.72 844.86 366.47 841.38 365.15 837.92 C 361.08 826.81 357.13 815.65 353.06 804.53 C 350.27 804.51 347.48 804.53 344.69 804.61 M 392.56 804.59 C 392.87 819.21 392.74 833.85 392.64 848.48 C 396.12 848.49 399.60 848.48 403.09 848.37 C 403.05 840.53 402.84 832.67 403.34 824.85 C 404.60 827.46 406.05 830.00 407.72 832.39 C 411.00 837.77 414.55 842.97 417.81 848.36 C 420.84 848.44 423.89 848.46 426.93 848.45 C 427.05 833.79 427.24 819.11 426.83 804.45 C 423.40 804.50 419.98 804.50 416.56 804.59 C 416.85 812.40 416.74 820.23 416.62 828.05 C 414.34 823.65 411.61 819.51 408.79 815.45 C 406.42 811.82 404.49 807.86 401.58 804.63 C 398.58 804.31 395.56 804.53 392.56 804.59 M 458.81 806.73 C 457.39 808.06 456.02 809.46 454.66 810.87 C 452.94 814.81 453.28 819.14 453.58 823.32 C 455.15 825.70 457.07 827.81 459.54 829.29 C 464.14 830.53 468.93 830.83 473.55 832.01 C 474.58 834.54 474.81 837.84 471.84 839.17 C 467.58 840.49 462.89 839.74 459.00 837.65 C 458.13 837.54 457.27 837.43 456.41 837.34 C 456.15 837.82 455.61 838.78 455.35 839.26 C 454.08 840.33 452.83 841.41 451.57 842.50 C 451.58 842.91 451.61 843.74 451.62 844.15 C 459.04 849.36 469.45 850.38 477.62 846.42 C 485.74 842.72 486.78 830.32 480.36 824.64 C 475.42 821.63 469.38 821.93 463.94 820.47 C 463.03 818.06 462.59 814.03 465.97 813.55 C 470.04 812.05 473.92 814.18 477.88 814.69 C 480.06 813.00 481.82 810.85 483.70 808.86 C 482.19 807.84 480.69 806.82 479.19 805.81 C 472.58 803.80 465.05 803.30 458.81 806.73 M 510.64 804.54 C 510.75 819.15 510.69 833.76 510.68 848.38 C 513.28 848.45 515.87 848.48 518.47 848.58 C 519.36 848.93 520.74 850.34 521.36 848.87 C 520.45 834.09 521.49 819.24 520.82 804.45 C 517.43 804.52 514.03 804.52 510.64 804.54 M 546.61 804.54 C 546.65 807.50 546.65 810.47 546.62 813.44 C 550.28 813.48 553.93 813.49 557.60 813.50 C 557.82 825.11 557.66 836.74 557.69 848.36 C 561.05 848.46 564.41 848.46 567.78 848.54 C 567.78 836.85 567.69 825.17 567.84 813.49 C 571.42 813.48 575.00 813.48 578.58 813.53 C 578.66 810.51 578.66 807.49 578.62 804.47 C 567.95 804.59 557.28 804.46 546.61 804.54 M 604.50 804.55 C 604.52 819.17 604.54 833.80 604.50 848.43 C 607.89 848.48 611.28 848.49 614.68 848.45 C 614.68 833.79 614.76 819.13 614.63 804.48 C 611.25 804.49 607.87 804.50 604.50 804.55 M 648.56 806.69 C 647.67 807.39 646.77 808.08 645.88 808.78 C 643.72 811.78 641.64 815.13 641.67 818.97 C 641.50 824.70 641.10 830.52 641.96 836.22 C 643.09 844.16 651.26 849.62 659.04 848.73 C 665.29 848.96 670.68 844.72 673.50 839.40 C 675.27 831.42 674.84 823.16 674.12 815.08 C 672.97 812.85 671.75 810.67 670.24 808.67 C 664.44 803.29 655.31 802.92 648.56 806.69 M 701.51 804.49 C 701.48 819.11 701.51 833.75 701.49 848.38 C 704.92 848.46 708.35 848.46 711.79 848.53 C 711.80 841.13 711.61 833.72 711.96 826.33 C 713.34 827.93 714.64 829.62 715.78 831.43 C 719.46 837.02 722.80 842.87 726.78 848.25 C 729.68 848.63 732.62 848.44 735.55 848.49 C 735.52 833.85 735.34 819.20 735.67 804.56 C 732.27 804.50 728.89 804.48 725.51 804.49 C 725.49 811.98 725.46 819.48 725.55 826.97 C 725.18 826.76 724.44 826.34 724.07 826.14 C 720.74 820.15 716.82 814.52 713.15 808.74 C 712.42 807.39 711.75 806.03 711.06 804.68 C 707.87 804.50 704.69 804.48 701.51 804.49 M 228.09 870.40 C 229.77 870.38 231.44 870.37 233.13 870.37 C 235.42 866.80 238.12 863.50 240.04 859.71 C 236.91 859.64 233.77 859.67 230.64 859.64 C 229.48 863.15 228.43 866.70 228.09 870.40 M 216.15 875.49 C 216.30 890.15 216.24 904.80 216.20 919.46 C 226.15 919.63 236.11 919.39 246.06 919.63 C 246.06 916.61 246.08 913.59 246.28 910.59 C 239.68 910.42 233.09 910.55 226.50 910.49 C 226.50 907.54 226.50 904.58 226.53 901.64 C 232.16 901.67 237.79 901.82 243.42 901.59 C 243.36 898.65 243.46 895.71 243.19 892.80 C 237.64 892.40 232.06 892.80 226.50 892.61 C 226.52 889.91 226.52 887.20 226.51 884.51 C 232.93 884.56 239.35 884.44 245.77 884.57 C 245.99 881.53 245.99 878.48 245.81 875.45 C 235.93 875.54 226.04 875.45 216.15 875.49 M 280.80 875.72 C 277.82 877.62 274.60 879.51 272.74 882.64 C 269.77 887.60 270.64 893.51 270.51 899.02 C 270.41 904.55 270.41 911.08 274.91 915.07 C 279.50 920.20 287.28 920.76 293.51 918.86 C 299.09 917.06 302.34 911.64 303.81 906.28 C 300.18 905.95 296.50 905.60 292.91 906.35 C 292.04 907.74 291.15 909.12 290.26 910.51 C 288.18 910.52 286.10 910.52 284.03 910.47 C 283.24 909.64 282.45 908.82 281.66 908.01 C 280.36 901.48 280.32 894.65 281.34 888.10 C 282.51 884.46 286.41 884.07 289.66 884.33 C 290.98 885.60 292.14 887.01 292.97 888.67 C 296.60 889.15 300.27 889.12 303.92 888.86 C 302.77 885.95 301.50 883.09 300.03 880.34 C 298.49 879.15 296.98 877.96 295.48 876.75 C 290.75 875.13 285.72 875.04 280.80 875.72 M 331.62 878.58 C 327.49 882.19 325.93 887.69 326.00 893.02 C 326.01 900.02 325.31 907.58 329.00 913.88 C 331.79 916.04 334.48 918.72 338.09 919.41 C 343.95 920.48 350.85 919.69 354.98 914.94 C 359.18 910.84 359.27 904.52 359.30 899.05 C 359.18 893.43 359.85 887.28 356.71 882.29 C 355.47 879.95 353.18 878.49 351.20 876.85 C 344.85 874.51 337.21 874.33 331.62 878.58 M 385.15 875.46 C 384.82 890.17 385.18 904.89 384.93 919.60 C 394.64 919.48 404.35 919.45 414.06 919.63 C 414.06 916.61 414.08 913.59 414.28 910.58 C 407.97 910.43 401.65 910.51 395.34 910.54 C 395.30 898.86 395.24 887.18 395.39 875.50 C 391.97 875.51 388.56 875.52 385.15 875.46 M 443.69 877.06 C 438.49 879.53 435.41 885.34 435.52 890.99 C 435.65 897.76 434.86 904.65 436.75 911.26 C 438.80 913.78 440.81 916.55 443.82 918.01 C 450.00 921.15 457.80 920.27 463.33 916.15 C 464.62 914.51 465.92 912.89 467.22 911.27 C 469.40 904.10 468.63 896.54 468.43 889.17 C 467.93 882.45 462.62 876.72 456.05 875.48 C 451.90 875.22 447.40 874.80 443.69 877.06 M 504.33 875.61 C 499.79 877.27 495.76 880.46 493.94 885.05 C 492.34 893.21 492.73 901.74 493.88 909.95 C 494.76 911.36 495.62 912.80 496.38 914.30 C 498.45 916.10 500.75 917.61 503.01 919.16 C 508.65 920.22 514.69 920.24 519.82 917.35 C 521.68 915.41 523.51 913.45 525.20 911.37 C 526.81 905.88 526.74 900.16 526.61 894.51 C 521.12 894.55 515.64 894.51 510.16 894.47 C 510.08 897.19 509.97 899.92 509.89 902.66 C 512.21 902.86 514.52 903.10 516.84 903.36 C 516.21 905.86 515.69 908.82 513.19 910.18 C 509.98 911.28 504.96 911.14 503.95 907.13 C 502.72 901.50 503.12 895.63 503.50 889.92 C 503.55 887.71 505.09 886.04 506.40 884.44 C 509.50 884.25 513.06 883.85 515.05 886.80 C 515.52 887.65 516.06 888.48 516.66 889.27 C 520.01 889.51 523.37 889.28 526.72 889.23 C 525.96 886.74 525.03 884.32 523.99 881.95 C 522.56 880.46 521.12 879.00 519.69 877.53 C 514.94 875.07 509.52 874.94 504.33 875.61 M 596.95 876.85 C 591.62 879.37 588.19 885.14 588.35 891.01 C 588.45 897.77 587.65 904.71 589.75 911.26 C 590.71 912.57 591.65 913.90 592.57 915.25 C 594.76 916.78 596.97 918.36 599.52 919.25 C 604.34 920.56 609.32 919.42 614.05 918.29 C 614.94 919.02 615.81 919.81 616.66 920.64 C 617.01 920.52 617.71 920.28 618.06 920.17 C 619.15 919.07 620.23 917.97 621.33 916.89 C 621.37 916.25 621.42 915.63 621.48 915.01 C 620.67 914.37 619.88 913.74 619.10 913.12 C 622.30 906.19 621.46 898.41 621.42 891.01 C 621.36 886.26 619.34 881.59 615.66 878.54 C 613.24 877.25 610.88 875.43 608.01 875.43 C 604.31 875.34 600.26 874.75 596.95 876.85 M 646.53 875.50 C 646.50 885.01 646.52 894.52 646.51 904.03 C 646.38 907.67 647.34 911.53 649.96 914.20 C 656.46 922.09 670.40 921.74 676.55 913.60 C 678.71 910.93 679.60 907.41 679.53 904.04 C 679.54 894.53 679.37 885.02 679.66 875.52 C 676.24 875.47 672.82 875.50 669.40 875.49 C 669.23 885.68 669.31 895.87 669.34 906.06 C 668.86 907.01 668.40 907.98 667.94 908.95 C 667.47 909.33 666.53 910.09 666.06 910.47 C 663.79 910.43 661.24 911.12 659.24 909.76 C 657.31 908.61 656.91 906.10 656.74 904.07 C 656.64 894.53 656.89 884.99 656.62 875.46 C 653.25 875.48 649.89 875.48 646.53 875.50 M 706.21 875.45 C 705.63 890.16 706.11 904.90 705.91 919.63 C 715.76 919.42 725.62 919.55 735.47 919.54 C 735.52 916.54 735.54 913.54 735.66 910.55 C 729.21 910.47 722.76 910.50 716.31 910.54 C 716.31 907.57 716.31 904.61 716.37 901.66 C 721.79 901.76 727.22 901.70 732.65 901.66 C 732.66 898.63 732.65 895.62 732.57 892.61 C 727.15 892.70 721.73 892.63 716.31 892.64 C 716.32 889.92 716.33 887.20 716.38 884.49 C 722.79 884.52 729.21 884.53 735.63 884.48 C 735.59 881.48 735.59 878.49 735.63 875.51 C 725.82 875.44 716.01 875.54 706.21 875.45 M 552.14 875.50 C 552.34 890.16 552.18 904.82 552.24 919.49 C 555.64 919.50 559.04 919.52 562.44 919.72 C 562.58 904.98 562.48 890.25 562.50 875.51 C 559.04 875.48 555.59 875.48 552.14 875.50 Z" />
<path fill="#ffffff" opacity="1.00" d=" M 354.51 188.51 C 360.75 189.00 367.66 187.08 373.28 190.64 C 375.02 191.63 376.22 193.25 377.45 194.78 C 380.20 203.22 379.27 212.26 379.44 221.00 C 379.00 227.68 380.22 235.70 374.95 240.87 C 369.34 245.80 361.38 243.95 354.58 244.32 C 354.42 225.72 354.55 207.12 354.51 188.51 Z" />
<path fill="#ffffff" opacity="1.00" d=" M 248.25 230.66 C 251.43 222.19 254.08 213.54 257.05 205.00 C 259.79 213.52 262.74 221.99 265.03 230.64 C 259.44 230.76 253.84 230.74 248.25 230.66 Z" />
<path fill="#ffffff" opacity="1.00" d=" M 545.50 742.48 C 549.24 742.32 553.13 742.36 556.34 744.57 C 558.14 750.85 557.69 757.57 557.11 763.99 C 555.79 769.19 549.62 768.47 545.49 768.44 C 545.49 759.78 545.47 751.13 545.50 742.48 Z" />
<path fill="#ffffff" opacity="1.00" d=" M 234.92 749.07 C 236.16 753.57 237.75 757.97 238.92 762.50 C 236.03 762.53 233.15 762.54 230.27 762.51 C 231.67 757.98 233.16 753.48 234.92 749.07 Z" />
<path fill="#ffffff" opacity="1.00" d=" M 713.05 762.48 C 714.31 757.90 715.98 753.44 717.28 748.88 C 717.83 750.59 718.41 752.32 719.00 754.04 C 719.96 756.83 720.81 759.66 721.64 762.50 C 718.77 762.54 715.91 762.53 713.05 762.48 Z" />
<path fill="#ffffff" opacity="1.00" d=" M 284.37 813.43 C 287.18 813.49 289.99 813.58 292.80 813.74 C 293.80 814.59 294.80 815.43 295.83 816.28 C 296.12 818.47 295.74 820.66 294.65 822.60 C 291.30 823.53 287.83 823.66 284.38 823.73 C 284.30 820.29 284.31 816.86 284.37 813.43 Z" />
<path fill="#ffffff" opacity="1.00" d=" M 652.49 815.92 C 654.69 813.40 657.83 812.95 660.99 813.60 C 661.85 814.45 662.73 815.31 663.63 816.16 C 664.56 823.52 665.66 831.58 662.47 838.55 C 660.29 839.52 657.93 839.84 655.57 839.61 C 654.57 838.59 653.56 837.61 652.56 836.63 C 651.08 829.81 651.51 822.77 652.49 815.92 Z" />
<path fill="#ffffff" opacity="1.00" d=" M 345.80 830.03 C 347.16 826.75 348.22 823.36 349.12 819.93 C 350.78 824.38 352.15 828.92 353.68 833.41 C 350.82 833.48 347.96 833.49 345.10 833.51 C 345.33 832.34 345.56 831.17 345.80 830.03 Z" />
<path fill="#ffffff" opacity="1.00" d=" M 339.96 884.49 C 341.74 884.46 343.56 884.26 345.33 884.66 C 346.79 885.44 347.65 886.96 348.73 888.17 C 348.87 894.52 349.31 900.91 348.45 907.23 C 347.41 908.35 346.36 909.48 345.32 910.61 C 343.47 910.61 341.63 910.59 339.78 910.58 C 338.72 909.42 337.69 908.26 336.70 907.06 C 336.18 900.03 335.39 892.68 337.80 885.91 C 338.34 885.56 339.42 884.85 339.96 884.49 Z" />
<path fill="#ffffff" opacity="1.00" d=" M 448.64 884.56 C 450.87 884.47 453.11 884.47 455.36 884.55 C 456.94 886.76 458.64 889.10 458.35 892.00 C 458.22 897.39 459.51 903.26 456.93 908.27 C 455.41 911.48 451.41 910.61 448.57 910.37 C 444.04 904.91 445.82 897.45 445.80 890.97 C 445.58 888.44 447.39 886.53 448.64 884.56 Z" />
<path fill="#ffffff" opacity="1.00" d=" M 598.70 888.74 C 599.78 886.60 601.22 884.19 604.01 884.41 C 607.51 883.53 610.85 886.53 610.96 890.00 C 611.49 894.67 611.21 899.38 611.25 904.07 C 610.31 903.56 609.38 903.03 608.48 902.50 C 606.75 904.14 605.12 905.87 603.62 907.72 C 604.32 908.46 605.72 909.94 606.42 910.68 C 604.09 910.85 601.94 910.16 599.88 909.18 C 597.66 902.58 598.69 895.56 598.70 888.74 Z" />
</g>
<g id="#01499dff">
<path fill="#01499d" opacity="1.00" d=" M 99.94 100.23 C 101.27 100.08 102.61 100.00 103.96 99.99 C 276.95 100.02 449.93 99.99 622.92 100.00 C 699.19 100.06 775.45 99.88 851.71 100.09 C 851.67 395.41 851.75 690.74 851.68 986.06 C 609.13 986.02 366.57 986.05 124.02 986.04 C 115.93 985.89 107.82 986.37 99.74 985.73 C 100.36 964.17 99.82 942.58 100.01 921.00 C 99.95 647.41 100.09 373.82 99.94 100.23 M 116.63 116.59 C 116.72 121.39 116.73 126.19 116.72 130.99 C 116.71 298.66 116.71 466.33 116.71 634.00 C 116.66 745.67 116.82 857.34 116.64 969.01 C 123.73 969.57 130.85 969.14 137.95 969.27 C 370.21 969.31 602.47 969.19 834.73 969.34 C 835.04 965.55 835.05 961.76 834.99 957.98 C 834.97 731.97 834.98 505.96 834.97 279.95 C 834.86 225.46 835.20 170.96 834.80 116.47 C 595.41 116.58 356.02 116.35 116.63 116.59 Z" />
<path fill="#01499d" opacity="1.00" d=" M 456.96 352.07 C 470.47 352.87 484.10 348.93 495.27 341.30 C 496.03 341.58 496.80 341.88 497.58 342.18 C 495.61 343.70 493.60 345.20 491.84 346.97 C 493.14 347.88 494.55 348.62 495.93 349.43 C 497.53 353.64 498.33 358.42 496.68 362.74 C 489.19 369.15 480.10 373.32 471.26 377.54 C 465.08 381.84 460.31 387.85 454.62 392.77 C 455.65 394.10 456.69 395.43 457.74 396.77 C 455.96 400.10 454.18 403.43 452.34 406.72 C 450.37 406.47 448.40 406.23 446.44 405.98 C 446.14 404.80 445.84 403.63 445.55 402.46 C 442.49 400.77 439.72 397.88 436.22 397.42 C 432.67 400.05 429.62 403.43 427.27 407.17 C 431.26 408.24 435.36 408.84 439.43 409.55 C 440.05 410.71 440.67 411.87 441.30 413.03 C 438.54 416.44 435.36 419.55 433.08 423.33 C 434.79 425.59 438.05 425.89 440.51 427.04 C 437.43 431.29 434.31 435.52 431.34 439.86 C 427.24 439.65 423.14 438.96 419.03 439.28 C 416.96 440.08 415.66 442.15 413.84 443.39 C 409.67 442.29 406.28 439.44 402.50 437.51 C 396.64 434.03 389.95 432.53 383.61 430.24 C 380.47 429.17 377.36 427.77 374.02 427.63 C 371.73 430.59 370.17 434.03 368.33 437.27 C 366.70 435.94 363.47 435.11 364.33 432.39 C 364.98 427.35 369.01 423.95 372.86 421.15 C 370.31 415.86 368.32 410.31 365.66 405.09 C 362.61 400.52 356.52 397.51 351.08 399.28 C 348.16 400.09 346.27 402.64 344.20 404.67 C 344.52 406.96 344.55 409.34 345.33 411.55 C 346.86 413.42 348.88 414.82 350.48 416.63 C 351.97 417.85 350.94 419.86 350.99 421.47 C 347.73 421.93 342.60 420.18 341.24 424.27 C 337.72 432.42 334.61 440.75 331.27 448.97 C 336.65 457.56 342.58 465.80 348.02 474.36 C 350.58 478.35 351.49 483.07 352.48 487.63 C 355.01 499.42 358.95 510.94 360.17 522.99 C 360.77 527.28 360.63 531.99 363.26 535.67 C 367.85 542.37 372.67 548.92 377.16 555.69 C 379.65 559.14 378.83 563.66 378.30 567.59 C 378.02 570.17 375.65 571.58 373.83 573.06 C 366.97 578.08 360.25 583.28 353.45 588.38 C 349.39 591.98 344.10 586.92 339.67 588.78 C 335.61 591.57 332.15 595.15 328.10 597.97 C 306.89 565.83 296.27 526.72 299.08 488.27 C 299.52 484.76 299.43 481.07 300.88 477.80 C 302.89 474.64 305.82 472.22 308.19 469.33 C 310.23 467.13 311.90 464.44 314.54 462.90 C 318.88 461.57 323.49 461.55 327.97 461.02 C 326.82 456.92 324.71 452.60 326.30 448.32 C 328.80 440.11 331.01 431.82 333.44 423.59 C 334.88 418.40 337.48 413.50 337.92 408.06 C 338.45 401.24 338.36 394.40 338.47 387.57 C 338.67 386.58 339.49 385.86 340.01 385.04 C 345.05 379.75 349.60 373.97 355.18 369.20 C 366.33 358.92 378.73 350.05 391.93 342.60 C 399.10 342.66 406.05 344.68 413.14 345.46 C 427.80 347.35 442.18 351.16 456.96 352.07 Z" />
<path fill="#01499d" opacity="1.00" d=" M 548.96 349.54 C 557.40 350.60 566.36 345.78 574.33 350.17 C 574.57 350.28 575.05 350.49 575.29 350.60 C 583.34 356.49 591.40 362.41 598.71 369.24 C 601.37 371.94 604.04 374.63 606.74 377.29 C 615.43 386.53 623.11 396.69 629.69 407.53 C 634.78 416.00 639.21 424.88 642.87 434.07 C 647.50 446.16 651.17 458.69 652.98 471.54 C 648.37 475.51 643.69 479.40 639.12 483.44 C 636.08 482.77 633.04 482.11 630.01 481.44 C 628.72 482.46 627.44 483.49 626.16 484.51 C 626.57 491.51 629.04 498.16 629.81 505.11 C 630.91 513.57 630.88 522.26 628.58 530.54 C 625.21 530.26 621.34 530.83 618.59 528.44 C 612.34 523.33 606.12 518.16 599.82 513.12 C 595.15 513.88 590.59 515.13 585.95 516.00 C 580.76 517.02 575.57 514.39 570.39 515.64 C 566.90 516.47 563.57 517.79 560.19 518.96 C 562.06 520.56 563.93 522.17 565.80 523.80 C 569.30 522.94 572.79 521.11 576.44 521.42 C 579.78 523.14 582.43 525.90 585.34 528.23 C 582.46 534.71 578.14 540.36 574.10 546.14 C 570.36 551.42 564.70 554.80 559.85 558.94 C 552.44 551.75 545.40 544.19 538.12 536.88 C 536.46 535.04 533.78 535.76 531.62 535.50 C 537.58 543.98 545.12 551.18 551.62 559.23 C 552.95 560.58 554.02 562.54 555.92 563.14 C 559.14 563.00 562.26 562.09 565.40 561.40 C 566.10 563.20 567.20 564.92 567.35 566.89 C 565.55 571.26 562.62 575.04 560.28 579.13 C 556.96 584.99 551.45 589.03 546.71 593.64 C 543.45 596.83 539.43 599.54 537.57 603.86 C 534.85 609.85 533.00 616.20 530.30 622.19 C 529.26 624.87 526.39 625.92 524.21 627.46 C 519.97 630.01 516.51 633.58 512.96 636.97 C 507.28 642.45 500.84 647.06 494.34 651.50 C 483.60 658.54 471.96 664.83 459.07 666.65 C 449.42 668.46 439.57 666.73 430.30 663.91 C 431.50 658.73 432.73 653.36 435.91 648.97 C 439.91 643.60 445.47 639.49 448.76 633.58 C 452.25 627.29 453.53 620.09 456.53 613.59 C 458.55 609.02 461.69 604.84 462.42 599.78 C 454.67 590.25 444.77 582.62 436.97 573.10 C 433.29 567.87 430.88 561.90 427.63 556.41 C 425.33 552.90 427.00 548.69 428.37 545.17 C 430.98 538.97 433.95 532.92 437.28 527.08 C 440.98 520.42 448.99 518.79 455.06 515.09 C 458.94 512.43 463.73 513.42 468.05 514.12 C 475.09 515.27 482.16 516.29 489.23 517.33 C 494.43 518.05 498.32 521.85 502.68 524.40 C 511.26 523.59 519.11 527.69 527.42 529.00 C 528.90 524.83 530.42 520.67 531.97 516.53 C 524.98 514.25 517.85 512.44 510.78 510.43 C 504.87 508.98 501.42 503.61 496.97 499.95 C 498.29 503.83 499.61 507.72 501.00 511.58 C 498.96 511.75 496.93 511.93 494.90 512.10 C 495.49 511.03 496.08 509.97 496.68 508.91 C 494.63 505.27 491.84 500.66 486.96 501.23 C 480.24 502.19 476.73 509.08 470.99 512.01 C 466.99 510.00 463.71 506.86 460.08 504.29 C 461.17 501.00 462.41 497.77 463.81 494.60 C 467.36 494.93 471.01 494.74 474.17 492.91 C 473.62 490.32 473.01 487.75 472.36 485.20 C 476.21 485.48 480.09 486.10 483.94 485.61 C 486.32 484.87 487.26 482.21 488.66 480.40 C 490.03 480.06 491.40 479.74 492.78 479.42 C 493.13 477.26 493.48 475.10 493.85 472.95 C 496.28 473.69 497.86 475.60 498.93 477.83 C 501.19 477.46 503.46 477.11 505.73 476.78 C 506.69 473.30 507.18 469.73 507.87 466.21 C 508.36 463.59 509.82 460.85 508.07 458.35 C 505.83 462.68 504.29 467.32 502.75 471.94 C 502.02 472.05 500.58 472.28 499.86 472.39 C 499.35 471.40 498.84 470.43 498.34 469.45 C 496.17 469.53 494.01 469.62 491.84 469.70 C 490.65 467.70 489.46 465.71 488.28 463.72 C 494.39 458.17 499.41 451.60 504.11 444.85 C 507.98 445.94 511.83 447.09 515.67 448.32 C 516.57 450.12 517.49 451.92 518.41 453.72 C 519.40 453.61 520.39 453.51 521.39 453.42 C 520.99 450.96 520.32 448.54 520.34 446.05 C 522.62 442.54 526.66 440.56 528.77 436.93 C 528.05 428.14 524.71 419.76 523.65 411.01 C 523.58 407.59 525.60 404.60 526.89 401.55 C 528.47 401.45 530.07 401.35 531.66 401.26 C 531.54 398.47 532.42 395.15 530.18 392.97 C 522.07 383.70 513.55 374.79 505.33 365.62 C 502.04 362.69 503.94 358.08 504.08 354.33 C 513.47 352.75 522.60 348.81 532.26 349.56 C 537.83 349.42 543.40 348.68 548.96 349.54 M 542.94 359.18 C 548.37 362.75 554.05 365.95 559.73 369.11 C 562.22 370.73 563.51 367.29 564.95 365.90 C 567.23 362.42 570.93 360.39 574.52 358.52 C 574.51 358.10 574.49 357.27 574.48 356.85 C 573.00 355.74 571.53 354.62 570.07 353.50 C 561.01 355.32 552.02 357.46 542.94 359.18 Z" />
<path fill="#01499d" opacity="1.00" d=" M 459.27 392.61 C 464.91 388.47 469.92 383.42 476.07 380.03 C 476.70 381.36 477.34 382.69 477.99 384.02 C 474.01 388.11 469.81 392.00 466.20 396.42 C 465.68 396.51 464.63 396.67 464.11 396.75 C 462.49 395.36 460.88 393.99 459.27 392.61 Z" />
<path fill="#01499d" opacity="1.00" d=" M 454.51 409.65 C 456.57 407.02 457.06 403.08 460.20 401.40 C 462.39 403.19 462.64 406.32 462.57 408.95 C 458.17 416.01 451.23 420.88 443.97 424.68 C 442.60 423.82 441.19 423.00 439.94 421.98 C 442.10 418.01 444.83 414.36 447.52 410.75 C 449.80 410.15 452.23 410.34 454.51 409.65 Z" />
<path fill="#01499d" opacity="1.00" d=" M 449.42 427.39 C 457.52 420.00 466.91 414.28 476.14 408.47 C 479.73 408.41 483.04 410.47 486.47 411.43 C 486.86 413.77 487.24 416.10 487.64 418.44 C 479.60 424.42 470.98 429.60 463.00 435.66 C 458.31 435.34 453.81 433.98 449.31 432.72 C 449.34 430.94 449.37 429.16 449.42 427.39 Z" />
<path fill="#01499d" opacity="1.00" d=" M 351.44 451.64 C 352.88 444.49 352.95 436.96 355.53 430.10 C 356.27 430.52 357.76 431.35 358.50 431.77 C 359.68 438.73 357.94 445.64 357.28 452.55 C 355.33 452.25 353.38 451.95 351.44 451.64 Z" />
<path fill="#01499d" opacity="1.00" d=" M 417.31 445.15 C 417.81 443.96 418.33 442.77 418.84 441.59 C 422.15 442.04 425.54 442.19 428.73 443.27 C 427.94 445.56 426.56 447.58 425.25 449.60 C 422.62 448.08 419.97 446.60 417.31 445.15 Z" />
<path fill="#01499d" opacity="1.00" d=" M 354.10 461.36 C 354.60 459.37 355.07 457.39 355.49 455.39 C 357.33 455.71 359.18 456.04 361.04 456.37 C 360.65 458.96 360.21 461.53 359.70 464.10 C 357.63 463.64 355.67 462.82 354.10 461.36 Z" />
<path fill="#01499d" opacity="1.00" d=" M 358.05 466.47 C 359.18 466.53 360.31 466.59 361.45 466.66 C 361.53 467.98 361.61 469.30 361.70 470.63 C 360.39 470.65 359.09 470.67 357.79 470.70 C 357.99 469.29 358.15 467.88 358.05 466.47 Z" />
<path fill="#01499d" opacity="1.00" d=" M 479.50 468.28 C 480.76 468.43 482.03 468.59 483.31 468.75 C 483.83 473.52 483.72 478.35 482.58 483.03 C 480.09 482.83 477.60 482.64 475.11 482.46 C 476.67 477.75 479.37 473.36 479.50 468.28 Z" />
<path fill="#01499d" opacity="1.00" d=" M 359.52 476.95 C 360.04 475.57 360.45 473.91 362.04 473.39 C 363.24 473.88 363.31 475.32 363.86 476.33 C 362.41 476.54 360.96 476.75 359.52 476.95 Z" />
<path fill="#01499d" opacity="1.00" d=" M 471.63 475.57 C 472.12 475.56 473.08 475.56 473.57 475.55 C 473.62 476.98 473.68 478.42 473.74 479.86 C 472.32 479.71 470.91 479.57 469.50 479.44 C 469.54 478.98 469.60 478.07 469.64 477.62 C 470.30 476.93 470.96 476.24 471.63 475.57 Z" />
<path fill="#01499d" opacity="1.00" d=" M 361.33 479.21 C 361.94 479.20 363.15 479.17 363.75 479.16 C 363.69 479.73 363.56 480.85 363.50 481.42 C 362.99 481.47 361.96 481.57 361.45 481.62 C 361.42 481.02 361.36 479.81 361.33 479.21 Z" />
<path fill="#01499d" opacity="1.00" d=" M 356.29 482.39 C 357.42 482.38 358.56 482.38 359.70 482.39 C 359.74 483.59 359.79 484.80 359.85 486.02 C 359.04 486.14 357.43 486.39 356.63 486.51 C 356.51 485.13 356.39 483.76 356.29 482.39 Z" />
<path fill="#01499d" opacity="1.00" d=" M 486.74 505.79 C 488.02 505.72 489.30 505.65 490.59 505.59 C 489.99 507.29 489.41 509.01 488.83 510.73 C 488.23 510.68 487.04 510.58 486.44 510.53 C 486.53 508.94 486.64 507.37 486.74 505.79 Z" />
<path fill="#01499d" opacity="1.00" d=" M 550.30 620.31 C 552.33 618.95 554.79 619.29 557.09 619.36 C 552.92 629.25 543.59 635.86 533.96 639.87 C 531.14 640.93 528.41 642.80 525.28 642.59 C 524.82 641.43 524.44 640.25 524.15 639.05 C 529.42 634.04 534.29 628.56 539.94 623.98 C 543.36 622.71 547.09 622.19 550.30 620.31 Z" />
<path fill="#01499d" opacity="1.00" d=" M 545.60 638.54 C 546.42 638.63 547.25 638.73 548.09 638.83 C 548.24 639.62 548.41 640.41 548.57 641.21 C 547.91 641.57 546.58 642.29 545.91 642.65 C 545.21 641.92 544.53 641.20 543.84 640.49 C 544.28 640.00 545.16 639.02 545.60 638.54 Z" />
</g>
<g id="#e4211bff">
<path fill="#e4211b" opacity="1.00" d=" M 246.81 166.51 C 253.26 166.51 259.71 166.50 266.17 166.51 C 268.49 173.77 271.32 180.86 273.87 188.04 C 278.23 199.99 282.52 211.96 286.91 223.90 C 287.64 225.88 288.34 227.87 289.09 229.84 C 293.64 241.90 297.53 254.22 302.54 266.09 C 293.88 266.59 285.20 266.03 276.54 266.39 C 275.59 263.72 274.71 261.04 273.87 258.35 C 273.21 256.04 272.48 253.76 271.82 251.45 C 261.73 251.50 251.64 251.49 241.55 251.48 C 241.36 251.96 241.17 252.45 240.98 252.95 C 239.23 257.35 238.15 261.98 236.41 266.39 C 227.96 266.21 219.51 266.22 211.06 266.41 C 213.47 256.68 217.78 247.52 220.85 237.98 C 223.47 231.42 225.60 224.68 228.12 218.09 C 234.28 200.87 240.63 183.72 246.81 166.51 M 248.25 230.66 C 253.84 230.74 259.44 230.76 265.03 230.64 C 262.74 221.99 259.79 213.52 257.05 205.00 C 254.08 213.54 251.43 222.19 248.25 230.66 Z" />
<path fill="#e4211b" opacity="1.00" d=" M 329.63 166.55 C 343.28 166.51 356.93 166.43 370.58 166.58 C 383.59 167.02 396.26 174.87 401.22 187.11 C 405.33 197.90 403.84 209.71 404.19 221.00 C 404.21 232.13 404.21 244.60 396.42 253.47 C 389.98 261.88 379.40 266.03 369.02 266.23 C 355.88 266.33 342.75 266.25 329.61 266.29 C 329.76 233.05 329.73 199.80 329.63 166.55 M 354.51 188.51 C 354.55 207.12 354.42 225.72 354.58 244.32 C 361.38 243.95 369.34 245.80 374.95 240.87 C 380.22 235.70 379.00 227.68 379.44 221.00 C 379.27 212.26 380.20 203.22 377.45 194.78 C 376.22 193.25 375.02 191.63 373.28 190.64 C 367.66 187.08 360.75 189.00 354.51 188.51 Z" />
<path fill="#e4211b" opacity="1.00" d=" M 437.29 166.43 C 459.81 166.58 482.33 166.52 504.85 166.46 C 505.09 173.82 505.16 181.20 504.81 188.55 C 490.42 188.47 476.02 188.52 461.63 188.53 C 461.78 193.92 461.76 199.32 461.59 204.71 C 473.92 205.26 486.28 204.84 498.63 204.94 C 498.75 212.31 498.75 219.69 498.63 227.06 C 486.29 227.15 473.93 226.75 461.59 227.28 C 462.02 232.99 461.19 238.77 462.18 244.43 C 476.40 244.15 490.63 244.39 504.86 244.30 C 505.06 251.65 505.22 259.02 504.76 266.36 C 482.24 266.23 459.72 266.20 437.20 266.37 C 436.65 242.26 437.11 218.13 436.96 194.01 C 437.12 184.82 436.59 175.61 437.29 166.43 Z" />
<path fill="#e4211b" opacity="1.00" d=" M 607.36 166.63 C 615.52 166.30 623.70 166.62 631.88 166.51 C 631.70 199.75 631.67 233.01 631.90 266.26 C 623.67 266.34 615.45 266.16 607.23 266.37 C 606.48 250.56 607.53 234.70 606.64 218.90 C 604.25 224.19 601.12 229.10 598.26 234.14 C 596.53 237.31 594.74 240.43 592.75 243.43 C 587.46 243.29 582.18 243.35 576.90 243.27 C 573.04 234.86 567.59 227.30 563.52 219.00 C 563.10 234.61 563.28 250.24 563.44 265.86 C 555.18 266.81 546.81 265.99 538.51 266.35 C 538.50 233.07 538.54 199.79 538.50 166.51 C 546.56 166.46 554.62 166.61 562.68 166.42 C 565.27 170.33 566.98 174.72 569.18 178.85 C 574.60 189.19 579.73 199.68 585.13 210.04 C 592.59 195.59 599.84 181.04 607.36 166.63 Z" />
<path fill="#e4211b" opacity="1.00" d=" M 667.63 166.55 C 690.31 166.49 712.99 166.47 735.66 166.56 C 735.35 173.86 735.47 181.17 735.66 188.48 C 721.27 188.57 706.89 188.46 692.51 188.54 C 692.46 193.99 692.53 199.44 692.45 204.89 C 704.76 205.24 717.09 204.52 729.38 205.30 C 729.26 212.43 729.26 219.57 729.38 226.71 C 717.10 227.35 704.78 227.03 692.48 226.87 C 692.50 232.69 692.46 238.52 692.54 244.35 C 706.92 244.28 721.30 244.27 735.68 244.36 C 735.41 251.66 735.44 258.96 735.62 266.26 C 713.12 266.40 690.62 266.04 668.12 266.45 C 667.38 262.33 667.72 258.14 667.68 253.99 C 667.64 224.84 667.75 195.69 667.63 166.55 Z" />
<path fill="#e4211b" opacity="1.00" d=" M 230.10 733.66 C 232.86 733.50 235.63 733.48 238.40 733.45 C 242.36 743.87 246.08 754.38 249.85 764.87 C 251.39 769.02 253.07 773.14 254.01 777.48 C 250.60 777.50 247.19 777.50 243.78 777.48 C 243.06 775.15 242.29 772.84 241.43 770.58 C 236.85 770.73 232.26 770.69 227.67 770.59 C 226.83 772.88 226.01 775.18 225.21 777.49 C 221.74 777.49 218.28 777.48 214.81 777.49 C 219.40 762.71 225.61 748.48 230.10 733.66 M 234.92 749.07 C 233.16 753.48 231.67 757.98 230.27 762.51 C 233.15 762.54 236.03 762.53 238.92 762.50 C 237.75 757.97 236.16 753.57 234.92 749.07 Z" />
<path fill="#e4211b" opacity="1.00" d=" M 274.76 734.54 C 280.68 732.89 287.71 732.28 292.96 736.09 C 296.46 738.38 298.07 742.39 299.60 746.11 C 299.25 746.43 298.54 747.09 298.19 747.42 C 294.96 747.39 291.70 747.46 288.51 746.85 C 288.39 746.16 288.16 744.79 288.05 744.10 C 287.13 743.56 286.22 743.02 285.32 742.49 C 283.43 742.46 281.56 742.46 279.68 742.45 C 278.64 743.53 277.63 744.64 276.68 745.82 C 276.19 753.00 275.21 760.49 277.77 767.42 C 279.95 768.30 282.31 769.13 284.69 768.48 C 288.05 767.76 289.95 764.00 289.35 760.77 C 287.12 760.62 284.88 760.66 282.65 760.63 C 282.67 757.89 282.66 755.16 282.66 752.44 C 288.26 752.44 293.86 752.57 299.46 752.31 C 299.47 757.40 299.92 762.63 298.51 767.60 C 296.35 773.92 289.67 778.24 283.01 777.66 C 275.95 778.35 268.65 773.78 266.76 766.85 C 265.67 759.95 265.73 752.90 266.38 745.96 C 266.98 740.99 270.57 736.99 274.76 734.54 Z" />
<path fill="#e4211b" opacity="1.00" d=" M 315.86 733.51 C 325.74 733.46 335.62 733.47 345.50 733.51 C 345.50 736.50 345.50 739.50 345.49 742.50 C 339.14 742.50 332.78 742.53 326.42 742.48 C 326.33 745.18 326.28 747.89 326.22 750.60 C 331.67 750.79 337.12 750.72 342.56 750.67 C 342.69 753.72 342.71 756.77 342.68 759.84 C 337.22 759.79 331.76 759.72 326.30 759.84 C 326.30 762.68 326.30 765.53 326.30 768.38 C 332.68 768.49 339.07 768.64 345.44 768.27 C 345.49 771.34 345.50 774.42 345.50 777.50 C 335.74 777.52 325.99 777.41 316.23 777.56 C 315.60 762.89 316.39 748.19 315.86 733.51 Z" />
<path fill="#e4211b" opacity="1.00" d=" M 362.41 733.47 C 365.33 733.48 368.25 733.49 371.18 733.51 C 373.59 737.14 375.91 740.83 378.29 744.49 C 379.78 746.82 381.27 749.14 382.67 751.52 C 383.76 752.98 384.88 754.42 386.25 755.64 C 386.42 748.25 386.15 740.86 386.41 733.47 C 389.71 733.49 393.02 733.48 396.33 733.52 C 396.32 748.16 396.29 762.81 396.35 777.45 C 393.40 777.46 390.44 777.66 387.50 777.35 C 386.45 776.52 385.92 775.20 385.14 774.15 C 384.35 772.83 383.56 771.51 382.75 770.22 C 379.74 765.48 376.52 760.87 373.93 755.89 C 373.56 755.71 372.84 755.37 372.48 755.19 C 372.51 762.62 372.48 770.05 372.49 777.47 C 369.12 777.48 365.74 777.49 362.37 777.50 C 362.27 762.82 362.20 748.14 362.41 733.47 Z" />
<path fill="#e4211b" opacity="1.00" d=" M 424.44 733.61 C 428.72 733.02 433.11 733.27 437.25 734.56 C 442.26 736.92 444.18 742.12 446.53 746.71 C 442.70 747.09 438.83 747.22 435.02 746.63 C 434.57 744.91 433.56 743.52 432.23 742.41 C 430.38 742.43 428.53 742.41 426.69 742.40 C 425.64 743.52 424.18 744.44 423.86 746.07 C 422.66 750.96 422.84 756.10 423.23 761.10 C 423.53 763.68 423.82 767.15 426.69 768.20 C 429.25 769.34 431.97 768.35 434.33 767.19 C 434.41 766.49 434.59 765.09 434.68 764.39 C 438.61 763.80 442.59 763.98 446.54 764.25 C 446.02 765.21 445.53 766.19 445.07 767.20 C 443.43 771.45 440.27 775.33 435.81 776.76 C 430.02 778.51 423.50 778.00 418.51 774.41 C 416.58 772.29 414.61 770.05 413.82 767.24 C 412.35 759.73 412.33 751.96 413.61 744.43 C 414.83 739.12 419.35 735.13 424.44 733.61 Z" />
<path fill="#e4211b" opacity="1.00" d=" M 460.47 733.51 C 470.25 733.44 480.04 733.53 489.83 733.45 C 489.93 736.47 489.94 739.50 489.90 742.53 C 483.48 742.48 477.06 742.51 470.64 742.52 C 470.68 745.19 470.69 747.87 470.72 750.56 C 476.29 750.87 481.87 750.56 487.45 750.83 C 487.29 753.81 487.28 756.81 487.19 759.81 C 481.68 759.85 476.16 759.56 470.66 760.01 C 470.68 762.80 470.69 765.60 470.68 768.40 C 477.07 768.46 483.48 768.70 489.86 768.21 C 489.93 771.31 489.93 774.42 489.86 777.54 C 480.07 777.43 470.28 777.51 460.50 777.49 C 460.51 762.83 460.57 748.17 460.47 733.51 Z" />
<path fill="#e4211b" opacity="1.00" d=" M 535.35 733.46 C 544.28 734.13 554.10 731.52 562.15 736.62 C 562.80 737.36 563.45 738.11 564.12 738.86 C 564.84 739.76 565.57 740.67 566.30 741.59 C 568.50 748.55 567.74 755.95 567.62 763.13 C 567.62 768.61 564.02 773.68 559.16 775.99 C 551.55 778.69 543.29 777.01 535.40 777.52 C 535.16 762.83 535.25 748.14 535.35 733.46 M 545.50 742.48 C 545.47 751.13 545.49 759.78 545.49 768.44 C 549.62 768.47 555.79 769.19 557.11 763.99 C 557.69 757.57 558.14 750.85 556.34 744.57 C 553.13 742.36 549.24 742.32 545.50 742.48 Z" />
<path fill="#e4211b" opacity="1.00" d=" M 659.16 733.45 C 662.56 733.50 665.96 733.49 669.37 733.54 C 669.26 745.17 669.27 756.79 669.35 768.42 C 675.55 768.52 681.76 768.48 687.97 768.46 C 688.00 771.47 688.00 774.49 687.98 777.51 C 678.40 777.51 668.82 777.41 659.25 777.57 C 658.80 762.88 658.98 748.15 659.16 733.45 Z" />
<path fill="#e4211b" opacity="1.00" d=" M 712.85 733.59 C 715.63 733.49 718.41 733.48 721.20 733.53 C 722.15 736.33 723.13 739.12 724.16 741.91 C 728.34 753.78 732.87 765.53 736.84 777.48 C 733.23 777.51 729.62 777.52 726.02 777.37 C 725.55 775.10 724.99 772.86 724.40 770.64 C 719.81 770.74 715.22 770.53 710.65 770.73 C 708.74 772.34 709.14 775.42 707.70 777.42 C 704.20 777.63 700.70 777.48 697.21 777.44 C 702.25 762.76 708.22 748.40 712.85 733.59 M 713.05 762.48 C 715.91 762.53 718.77 762.54 721.64 762.50 C 720.81 759.66 719.96 756.83 719.00 754.04 C 718.41 752.32 717.83 750.59 717.28 748.88 C 715.98 753.44 714.31 757.90 713.05 762.48 Z" />
<path fill="#e4211b" opacity="1.00" d=" M 584.11 733.53 C 593.94 733.45 603.76 733.51 613.59 733.48 C 613.64 736.49 613.68 739.51 613.70 742.54 C 607.29 742.48 600.89 742.51 594.48 742.51 C 594.50 745.21 594.51 747.92 594.48 750.63 C 599.89 750.68 605.30 750.80 610.72 750.60 C 611.02 753.71 611.07 756.83 610.98 759.96 C 605.51 759.69 600.02 759.77 594.55 759.81 C 594.51 762.67 594.51 765.53 594.48 768.41 C 600.89 768.51 607.30 768.52 613.70 768.37 C 613.73 771.40 613.72 774.45 613.64 777.50 C 603.80 777.49 593.96 777.49 584.12 777.49 C 584.30 762.84 584.32 748.18 584.11 733.53 Z" />
<path fill="#e4211b" opacity="1.00" d=" M 216.15 804.53 C 226.90 804.52 237.65 804.53 248.41 804.51 C 248.45 807.50 248.47 810.50 248.44 813.50 C 244.79 813.48 241.15 813.49 237.51 813.49 C 237.46 825.14 237.49 836.80 237.50 848.46 C 234.10 848.46 230.70 848.46 227.31 848.38 C 227.32 836.76 227.24 825.15 227.36 813.53 C 223.61 813.46 219.87 813.49 216.12 813.46 C 216.15 810.48 216.15 807.50 216.15 804.53 Z" />
<path fill="#e4211b" opacity="1.00" d=" M 274.09 804.48 C 282.10 804.94 290.32 803.53 298.16 805.61 C 299.73 806.81 301.36 807.94 303.04 809.00 C 305.20 812.60 307.11 816.80 306.00 821.09 C 305.65 823.92 303.74 826.13 302.03 828.27 C 301.16 828.63 300.30 829.01 299.44 829.39 C 299.45 829.89 299.46 830.87 299.47 831.37 C 302.68 836.95 305.37 842.81 308.51 848.44 C 304.46 848.48 300.41 848.46 296.37 848.49 C 294.44 843.59 292.03 838.89 289.60 834.23 C 289.46 833.65 289.18 832.50 289.04 831.92 C 287.45 831.88 285.88 831.86 284.30 831.86 C 284.33 837.37 284.31 842.88 284.34 848.39 C 280.86 848.47 277.38 848.47 273.90 848.38 C 274.09 833.75 273.72 819.11 274.09 804.48 M 284.37 813.43 C 284.31 816.86 284.30 820.29 284.38 823.73 C 287.83 823.66 291.30 823.53 294.65 822.60 C 295.74 820.66 296.12 818.47 295.83 816.28 C 294.80 815.43 293.80 814.59 292.80 813.74 C 289.99 813.58 287.18 813.49 284.37 813.43 Z" />
<path fill="#e4211b" opacity="1.00" d=" M 344.69 804.61 C 347.48 804.53 350.27 804.51 353.06 804.53 C 357.13 815.65 361.08 826.81 365.15 837.92 C 366.47 841.38 367.72 844.86 368.73 848.43 C 365.28 848.50 361.83 848.49 358.38 848.45 C 357.60 846.18 356.87 843.90 356.18 841.63 C 351.43 841.69 346.68 841.74 341.93 841.67 C 341.20 843.94 340.45 846.21 339.63 848.46 C 336.14 848.48 332.66 848.49 329.18 848.42 C 332.59 838.22 336.49 828.20 340.13 818.08 C 341.70 813.60 343.52 809.21 344.69 804.61 M 345.80 830.03 C 345.56 831.17 345.33 832.34 345.10 833.51 C 347.96 833.49 350.82 833.48 353.68 833.41 C 352.15 828.92 350.78 824.38 349.12 819.93 C 348.22 823.36 347.16 826.75 345.80 830.03 Z" />
<path fill="#e4211b" opacity="1.00" d=" M 392.56 804.59 C 395.56 804.53 398.58 804.31 401.58 804.63 C 404.49 807.86 406.42 811.82 408.79 815.45 C 411.61 819.51 414.34 823.65 416.62 828.05 C 416.74 820.23 416.85 812.40 416.56 804.59 C 419.98 804.50 423.40 804.50 426.83 804.45 C 427.24 819.11 427.05 833.79 426.93 848.45 C 423.89 848.46 420.84 848.44 417.81 848.36 C 414.55 842.97 411.00 837.77 407.72 832.39 C 406.05 830.00 404.60 827.46 403.34 824.85 C 402.84 832.67 403.05 840.53 403.09 848.37 C 399.60 848.48 396.12 848.49 392.64 848.48 C 392.74 833.85 392.87 819.21 392.56 804.59 Z" />
<path fill="#e4211b" opacity="1.00" d=" M 458.81 806.73 C 465.05 803.30 472.58 803.80 479.19 805.81 C 480.69 806.82 482.19 807.84 483.70 808.86 C 481.82 810.85 480.06 813.00 477.88 814.69 C 473.92 814.18 470.04 812.05 465.97 813.55 C 462.59 814.03 463.03 818.06 463.94 820.47 C 469.38 821.93 475.42 821.63 480.36 824.64 C 486.78 830.32 485.74 842.72 477.62 846.42 C 469.45 850.38 459.04 849.36 451.62 844.15 C 451.61 843.74 451.58 842.91 451.57 842.50 C 452.83 841.41 454.08 840.33 455.35 839.26 C 455.61 838.78 456.15 837.82 456.41 837.34 C 457.27 837.43 458.13 837.54 459.00 837.65 C 462.89 839.74 467.58 840.49 471.84 839.17 C 474.81 837.84 474.58 834.54 473.55 832.01 C 468.93 830.83 464.14 830.53 459.54 829.29 C 457.07 827.81 455.15 825.70 453.58 823.32 C 453.28 819.14 452.94 814.81 454.66 810.87 C 456.02 809.46 457.39 808.06 458.81 806.73 Z" />
<path fill="#e4211b" opacity="1.00" d=" M 510.64 804.54 C 514.03 804.52 517.43 804.52 520.82 804.45 C 521.49 819.24 520.45 834.09 521.36 848.87 C 520.74 850.34 519.36 848.93 518.47 848.58 C 515.87 848.48 513.28 848.45 510.68 848.38 C 510.69 833.76 510.75 819.15 510.64 804.54 Z" />
<path fill="#e4211b" opacity="1.00" d=" M 546.61 804.54 C 557.28 804.46 567.95 804.59 578.62 804.47 C 578.66 807.49 578.66 810.51 578.58 813.53 C 575.00 813.48 571.42 813.48 567.84 813.49 C 567.69 825.17 567.78 836.85 567.78 848.54 C 564.41 848.46 561.05 848.46 557.69 848.36 C 557.66 836.74 557.82 825.11 557.60 813.50 C 553.93 813.49 550.28 813.48 546.62 813.44 C 546.65 810.47 546.65 807.50 546.61 804.54 Z" />
<path fill="#e4211b" opacity="1.00" d=" M 604.50 804.55 C 607.87 804.50 611.25 804.49 614.63 804.48 C 614.76 819.13 614.68 833.79 614.68 848.45 C 611.28 848.49 607.89 848.48 604.50 848.43 C 604.54 833.80 604.52 819.17 604.50 804.55 Z" />
<path fill="#e4211b" opacity="1.00" d=" M 648.56 806.69 C 655.31 802.92 664.44 803.29 670.24 808.67 C 671.75 810.67 672.97 812.85 674.12 815.08 C 674.84 823.16 675.27 831.42 673.50 839.40 C 670.68 844.72 665.29 848.96 659.04 848.73 C 651.26 849.62 643.09 844.16 641.96 836.22 C 641.10 830.52 641.50 824.70 641.67 818.97 C 641.64 815.13 643.72 811.78 645.88 808.78 C 646.77 808.08 647.67 807.39 648.56 806.69 M 652.49 815.92 C 651.51 822.77 651.08 829.81 652.56 836.63 C 653.56 837.61 654.57 838.59 655.57 839.61 C 657.93 839.84 660.29 839.52 662.47 838.55 C 665.66 831.58 664.56 823.52 663.63 816.16 C 662.73 815.31 661.85 814.45 660.99 813.60 C 657.83 812.95 654.69 813.40 652.49 815.92 Z" />
<path fill="#e4211b" opacity="1.00" d=" M 701.51 804.49 C 704.69 804.48 707.87 804.50 711.06 804.68 C 711.75 806.03 712.42 807.39 713.15 808.74 C 716.82 814.52 720.74 820.15 724.07 826.14 C 724.44 826.34 725.18 826.76 725.55 826.97 C 725.46 819.48 725.49 811.98 725.51 804.49 C 728.89 804.48 732.27 804.50 735.67 804.56 C 735.34 819.20 735.52 833.85 735.55 848.49 C 732.62 848.44 729.68 848.63 726.78 848.25 C 722.80 842.87 719.46 837.02 715.78 831.43 C 714.64 829.62 713.34 827.93 711.96 826.33 C 711.61 833.72 711.80 841.13 711.79 848.53 C 708.35 848.46 704.92 848.46 701.49 848.38 C 701.51 833.75 701.48 819.11 701.51 804.49 Z" />
<path fill="#e4211b" opacity="1.00" d=" M 228.09 870.40 C 228.43 866.70 229.48 863.15 230.64 859.64 C 233.77 859.67 236.91 859.64 240.04 859.71 C 238.12 863.50 235.42 866.80 233.13 870.37 C 231.44 870.37 229.77 870.38 228.09 870.40 Z" />
<path fill="#e4211b" opacity="1.00" d=" M 216.15 875.49 C 226.04 875.45 235.93 875.54 245.81 875.45 C 245.99 878.48 245.99 881.53 245.77 884.57 C 239.35 884.44 232.93 884.56 226.51 884.51 C 226.52 887.20 226.52 889.91 226.50 892.61 C 232.06 892.80 237.64 892.40 243.19 892.80 C 243.46 895.71 243.36 898.65 243.42 901.59 C 237.79 901.82 232.16 901.67 226.53 901.64 C 226.50 904.58 226.50 907.54 226.50 910.49 C 233.09 910.55 239.68 910.42 246.28 910.59 C 246.08 913.59 246.06 916.61 246.06 919.63 C 236.11 919.39 226.15 919.63 216.20 919.46 C 216.24 904.80 216.30 890.15 216.15 875.49 Z" />
<path fill="#e4211b" opacity="1.00" d=" M 280.80 875.72 C 285.72 875.04 290.75 875.13 295.48 876.75 C 296.98 877.96 298.49 879.15 300.03 880.34 C 301.50 883.09 302.77 885.95 303.92 888.86 C 300.27 889.12 296.60 889.15 292.97 888.67 C 292.14 887.01 290.98 885.60 289.66 884.33 C 286.41 884.07 282.51 884.46 281.34 888.10 C 280.32 894.65 280.36 901.48 281.66 908.01 C 282.45 908.82 283.24 909.64 284.03 910.47 C 286.10 910.52 288.18 910.52 290.26 910.51 C 291.15 909.12 292.04 907.74 292.91 906.35 C 296.50 905.60 300.18 905.95 303.81 906.28 C 302.34 911.64 299.09 917.06 293.51 918.86 C 287.28 920.76 279.50 920.20 274.91 915.07 C 270.41 911.08 270.41 904.55 270.51 899.02 C 270.64 893.51 269.77 887.60 272.74 882.64 C 274.60 879.51 277.82 877.62 280.80 875.72 Z" />
<path fill="#e4211b" opacity="1.00" d=" M 331.62 878.58 C 337.21 874.33 344.85 874.51 351.20 876.85 C 353.18 878.49 355.47 879.95 356.71 882.29 C 359.85 887.28 359.18 893.43 359.30 899.05 C 359.27 904.52 359.18 910.84 354.98 914.94 C 350.85 919.69 343.95 920.48 338.09 919.41 C 334.48 918.72 331.79 916.04 329.00 913.88 C 325.31 907.58 326.01 900.02 326.00 893.02 C 325.93 887.69 327.49 882.19 331.62 878.58 M 339.96 884.49 C 339.42 884.85 338.34 885.56 337.80 885.91 C 335.39 892.68 336.18 900.03 336.70 907.06 C 337.69 908.26 338.72 909.42 339.78 910.58 C 341.63 910.59 343.47 910.61 345.32 910.61 C 346.36 909.48 347.41 908.35 348.45 907.23 C 349.31 900.91 348.87 894.52 348.73 888.17 C 347.65 886.96 346.79 885.44 345.33 884.66 C 343.56 884.26 341.74 884.46 339.96 884.49 Z" />
<path fill="#e4211b" opacity="1.00" d=" M 385.15 875.46 C 388.56 875.52 391.97 875.51 395.39 875.50 C 395.24 887.18 395.30 898.86 395.34 910.54 C 401.65 910.51 407.97 910.43 414.28 910.58 C 414.08 913.59 414.06 916.61 414.06 919.63 C 404.35 919.45 394.64 919.48 384.93 919.60 C 385.18 904.89 384.82 890.17 385.15 875.46 Z" />
<path fill="#e4211b" opacity="1.00" d=" M 443.69 877.06 C 447.40 874.80 451.90 875.22 456.05 875.48 C 462.62 876.72 467.93 882.45 468.43 889.17 C 468.63 896.54 469.40 904.10 467.22 911.27 C 465.92 912.89 464.62 914.51 463.33 916.15 C 457.80 920.27 450.00 921.15 443.82 918.01 C 440.81 916.55 438.80 913.78 436.75 911.26 C 434.86 904.65 435.65 897.76 435.52 890.99 C 435.41 885.34 438.49 879.53 443.69 877.06 M 448.64 884.56 C 447.39 886.53 445.58 888.44 445.80 890.97 C 445.82 897.45 444.04 904.91 448.57 910.37 C 451.41 910.61 455.41 911.48 456.93 908.27 C 459.51 903.26 458.22 897.39 458.35 892.00 C 458.64 889.10 456.94 886.76 455.36 884.55 C 453.11 884.47 450.87 884.47 448.64 884.56 Z" />
<path fill="#e4211b" opacity="1.00" d=" M 504.33 875.61 C 509.52 874.94 514.94 875.07 519.69 877.53 C 521.12 879.00 522.56 880.46 523.99 881.95 C 525.03 884.32 525.96 886.74 526.72 889.23 C 523.37 889.28 520.01 889.51 516.66 889.27 C 516.06 888.48 515.52 887.65 515.05 886.80 C 513.06 883.85 509.50 884.25 506.40 884.44 C 505.09 886.04 503.55 887.71 503.50 889.92 C 503.12 895.63 502.72 901.50 503.95 907.13 C 504.96 911.14 509.98 911.28 513.19 910.18 C 515.69 908.82 516.21 905.86 516.84 903.36 C 514.52 903.10 512.21 902.86 509.89 902.66 C 509.97 899.92 510.08 897.19 510.16 894.47 C 515.64 894.51 521.12 894.55 526.61 894.51 C 526.74 900.16 526.81 905.88 525.20 911.37 C 523.51 913.45 521.68 915.41 519.82 917.35 C 514.69 920.24 508.65 920.22 503.01 919.16 C 500.75 917.61 498.45 916.10 496.38 914.30 C 495.62 912.80 494.76 911.36 493.88 909.95 C 492.73 901.74 492.34 893.21 493.94 885.05 C 495.76 880.46 499.79 877.27 504.33 875.61 Z" />
<path fill="#e4211b" opacity="1.00" d=" M 596.95 876.85 C 600.26 874.75 604.31 875.34 608.01 875.43 C 610.88 875.43 613.24 877.25 615.66 878.54 C 619.34 881.59 621.36 886.26 621.42 891.01 C 621.46 898.41 622.30 906.19 619.10 913.12 C 619.88 913.74 620.67 914.37 621.48 915.01 C 621.42 915.63 621.37 916.25 621.33 916.89 C 620.23 917.97 619.15 919.07 618.06 920.17 C 617.71 920.28 617.01 920.52 616.66 920.64 C 615.81 919.81 614.94 919.02 614.05 918.29 C 609.32 919.42 604.34 920.56 599.52 919.25 C 596.97 918.36 594.76 916.78 592.57 915.25 C 591.65 913.90 590.71 912.57 589.75 911.26 C 587.65 904.71 588.45 897.77 588.35 891.01 C 588.19 885.14 591.62 879.37 596.95 876.85 M 598.70 888.74 C 598.69 895.56 597.66 902.58 599.88 909.18 C 601.94 910.16 604.09 910.85 606.42 910.68 C 605.72 909.94 604.32 908.46 603.62 907.72 C 605.12 905.87 606.75 904.14 608.48 902.50 C 609.38 903.03 610.31 903.56 611.25 904.07 C 611.21 899.38 611.49 894.67 610.96 890.00 C 610.85 886.53 607.51 883.53 604.01 884.41 C 601.22 884.19 599.78 886.60 598.70 888.74 Z" />
<path fill="#e4211b" opacity="1.00" d=" M 646.53 875.50 C 649.89 875.48 653.25 875.48 656.62 875.46 C 656.89 884.99 656.64 894.53 656.74 904.07 C 656.91 906.10 657.31 908.61 659.24 909.76 C 661.24 911.12 663.79 910.43 666.06 910.47 C 666.53 910.09 667.47 909.33 667.94 908.95 C 668.40 907.98 668.86 907.01 669.34 906.06 C 669.31 895.87 669.23 885.68 669.40 875.49 C 672.82 875.50 676.24 875.47 679.66 875.52 C 679.37 885.02 679.54 894.53 679.53 904.04 C 679.60 907.41 678.71 910.93 676.55 913.60 C 670.40 921.74 656.46 922.09 649.96 914.20 C 647.34 911.53 646.38 907.67 646.51 904.03 C 646.52 894.52 646.50 885.01 646.53 875.50 Z" />
<path fill="#e4211b" opacity="1.00" d=" M 706.21 875.45 C 716.01 875.54 725.82 875.44 735.63 875.51 C 735.59 878.49 735.59 881.48 735.63 884.48 C 729.21 884.53 722.79 884.52 716.38 884.49 C 716.33 887.20 716.32 889.92 716.31 892.64 C 721.73 892.63 727.15 892.70 732.57 892.61 C 732.65 895.62 732.66 898.63 732.65 901.66 C 727.22 901.70 721.79 901.76 716.37 901.66 C 716.31 904.61 716.31 907.57 716.31 910.54 C 722.76 910.50 729.21 910.47 735.66 910.55 C 735.54 913.54 735.52 916.54 735.47 919.54 C 725.62 919.55 715.76 919.42 705.91 919.63 C 706.11 904.90 705.63 890.16 706.21 875.45 Z" />
<path fill="#e4211b" opacity="1.00" d=" M 552.14 875.50 C 555.59 875.48 559.04 875.48 562.50 875.51 C 562.48 890.25 562.58 904.98 562.44 919.72 C 559.04 919.52 555.64 919.50 552.24 919.49 C 552.18 904.82 552.34 890.16 552.14 875.50 Z" />
</g>
<g id="#81a4ccff">
<path fill="#81a4cc" opacity="1.00" d=" M 444.52 324.31 C 477.60 318.25 512.47 321.53 543.64 334.28 C 553.27 337.93 562.10 343.27 571.28 347.86 C 572.42 348.45 573.38 349.31 574.33 350.17 C 566.36 345.78 557.40 350.60 548.96 349.54 C 543.40 348.68 537.83 349.42 532.26 349.56 C 522.60 348.81 513.47 352.75 504.08 354.33 C 503.94 358.08 502.04 362.69 505.33 365.62 C 513.55 374.79 522.07 383.70 530.18 392.97 C 532.42 395.15 531.54 398.47 531.66 401.26 C 530.07 401.35 528.47 401.45 526.89 401.55 C 525.60 404.60 523.58 407.59 523.65 411.01 C 524.71 419.76 528.05 428.14 528.77 436.93 C 526.66 440.56 522.62 442.54 520.34 446.05 C 520.32 448.54 520.99 450.96 521.39 453.42 C 520.39 453.51 519.40 453.61 518.41 453.72 C 517.49 451.92 516.57 450.12 515.67 448.32 C 511.83 447.09 507.98 445.94 504.11 444.85 C 499.41 451.60 494.39 458.17 488.28 463.72 C 489.46 465.71 490.65 467.70 491.84 469.70 C 494.01 469.62 496.17 469.53 498.34 469.45 C 498.84 470.43 499.35 471.40 499.86 472.39 C 500.58 472.28 502.02 472.05 502.75 471.94 C 504.29 467.32 505.83 462.68 508.07 458.35 C 509.82 460.85 508.36 463.59 507.87 466.21 C 507.18 469.73 506.69 473.30 505.73 476.78 C 503.46 477.11 501.19 477.46 498.93 477.83 C 497.86 475.60 496.28 473.69 493.85 472.95 C 493.48 475.10 493.13 477.26 492.78 479.42 C 491.40 479.74 490.03 480.06 488.66 480.40 C 487.26 482.21 486.32 484.87 483.94 485.61 C 480.09 486.10 476.21 485.48 472.36 485.20 C 473.01 487.75 473.62 490.32 474.17 492.91 C 471.01 494.74 467.36 494.93 463.81 494.60 C 462.41 497.77 461.17 501.00 460.08 504.29 C 463.71 506.86 466.99 510.00 470.99 512.01 C 476.73 509.08 480.24 502.19 486.96 501.23 C 491.84 500.66 494.63 505.27 496.68 508.91 C 496.08 509.97 495.49 511.03 494.90 512.10 C 496.93 511.93 498.96 511.75 501.00 511.58 C 499.61 507.72 498.29 503.83 496.97 499.95 C 501.42 503.61 504.87 508.98 510.78 510.43 C 517.85 512.44 524.98 514.25 531.97 516.53 C 530.42 520.67 528.90 524.83 527.42 529.00 C 519.11 527.69 511.26 523.59 502.68 524.40 C 498.32 521.85 494.43 518.05 489.23 517.33 C 482.16 516.29 475.09 515.27 468.05 514.12 C 463.73 513.42 458.94 512.43 455.06 515.09 C 448.99 518.79 440.98 520.42 437.28 527.08 C 433.95 532.92 430.98 538.97 428.37 545.17 C 427.00 548.69 425.33 552.90 427.63 556.41 C 430.88 561.90 433.29 567.87 436.97 573.10 C 444.77 582.62 454.67 590.25 462.42 599.78 C 461.69 604.84 458.55 609.02 456.53 613.59 C 453.53 620.09 452.25 627.29 448.76 633.58 C 445.47 639.49 439.91 643.60 435.91 648.97 C 432.73 653.36 431.50 658.73 430.30 663.91 C 439.57 666.73 449.42 668.46 459.07 666.65 C 471.96 664.83 483.60 658.54 494.34 651.50 C 500.84 647.06 507.28 642.45 512.96 636.97 C 516.51 633.58 519.97 630.01 524.21 627.46 C 526.39 625.92 529.26 624.87 530.30 622.19 C 533.00 616.20 534.85 609.85 537.57 603.86 C 539.43 599.54 543.45 596.83 546.71 593.64 C 551.45 589.03 556.96 584.99 560.28 579.13 C 562.62 575.04 565.55 571.26 567.35 566.89 C 567.20 564.92 566.10 563.20 565.40 561.40 C 562.26 562.09 559.14 563.00 555.92 563.14 C 554.02 562.54 552.95 560.58 551.62 559.23 C 545.12 551.18 537.58 543.98 531.62 535.50 C 533.78 535.76 536.46 535.04 538.12 536.88 C 545.40 544.19 552.44 551.75 559.85 558.94 C 564.70 554.80 570.36 551.42 574.10 546.14 C 578.14 540.36 582.46 534.71 585.34 528.23 C 582.43 525.90 579.78 523.14 576.44 521.42 C 572.79 521.11 569.30 522.94 565.80 523.80 C 563.93 522.17 562.06 520.56 560.19 518.96 C 563.57 517.79 566.90 516.47 570.39 515.64 C 575.57 514.39 580.76 517.02 585.95 516.00 C 590.59 515.13 595.15 513.88 599.82 513.12 C 606.12 518.16 612.34 523.33 618.59 528.44 C 621.34 530.83 625.21 530.26 628.58 530.54 C 630.88 522.26 630.91 513.57 629.81 505.11 C 629.04 498.16 626.57 491.51 626.16 484.51 C 627.44 483.49 628.72 482.46 630.01 481.44 C 633.04 482.11 636.08 482.77 639.12 483.44 C 643.69 479.40 648.37 475.51 652.98 471.54 C 659.05 510.69 652.18 551.93 632.58 586.46 C 613.45 621.00 582.39 648.75 545.97 663.96 C 507.06 680.49 462.19 682.18 422.00 669.24 C 389.09 658.61 359.35 638.20 337.86 611.08 C 334.41 606.85 331.20 602.45 328.10 597.97 C 332.15 595.15 335.61 591.57 339.67 588.78 C 344.10 586.92 349.39 591.98 353.45 588.38 C 360.25 583.28 366.97 578.08 373.83 573.06 C 375.65 571.58 378.02 570.17 378.30 567.59 C 378.83 563.66 379.65 559.14 377.16 555.69 C 372.67 548.92 367.85 542.37 363.26 535.67 C 360.63 531.99 360.77 527.28 360.17 522.99 C 358.95 510.94 355.01 499.42 352.48 487.63 C 351.49 483.07 350.58 478.35 348.02 474.36 C 342.58 465.80 336.65 457.56 331.27 448.97 C 334.61 440.75 337.72 432.42 341.24 424.27 C 342.60 420.18 347.73 421.93 350.99 421.47 C 350.94 419.86 351.97 417.85 350.48 416.63 C 348.88 414.82 346.86 413.42 345.33 411.55 C 344.55 409.34 344.52 406.96 344.20 404.67 C 346.27 402.64 348.16 400.09 351.08 399.28 C 356.52 397.51 362.61 400.52 365.66 405.09 C 368.32 410.31 370.31 415.86 372.86 421.15 C 369.01 423.95 364.98 427.35 364.33 432.39 C 363.47 435.11 366.70 435.94 368.33 437.27 C 370.17 434.03 371.73 430.59 374.02 427.63 C 377.36 427.77 380.47 429.17 383.61 430.24 C 389.95 432.53 396.64 434.03 402.50 437.51 C 406.28 439.44 409.67 442.29 413.84 443.39 C 415.66 442.15 416.96 440.08 419.03 439.28 C 423.14 438.96 427.24 439.65 431.34 439.86 C 434.31 435.52 437.43 431.29 440.51 427.04 C 438.05 425.89 434.79 425.59 433.08 423.33 C 435.36 419.55 438.54 416.44 441.30 413.03 C 440.67 411.87 440.05 410.71 439.43 409.55 C 435.36 408.84 431.26 408.24 427.27 407.17 C 429.62 403.43 432.67 400.05 436.22 397.42 C 439.72 397.88 442.49 400.77 445.55 402.46 C 445.84 403.63 446.14 404.80 446.44 405.98 C 448.40 406.23 450.37 406.47 452.34 406.72 C 454.18 403.43 455.96 400.10 457.74 396.77 C 456.69 395.43 455.65 394.10 454.62 392.77 C 460.31 387.85 465.08 381.84 471.26 377.54 C 480.10 373.32 489.19 369.15 496.68 362.74 C 498.33 358.42 497.53 353.64 495.93 349.43 C 494.55 348.62 493.14 347.88 491.84 346.97 C 493.60 345.20 495.61 343.70 497.58 342.18 C 496.80 341.88 496.03 341.58 495.27 341.30 C 484.10 348.93 470.47 352.87 456.96 352.07 C 442.18 351.16 427.80 347.35 413.14 345.46 C 406.05 344.68 399.10 342.66 391.93 342.60 C 408.56 334.23 426.11 327.44 444.52 324.31 M 459.27 392.61 C 460.88 393.99 462.49 395.36 464.11 396.75 C 464.63 396.67 465.68 396.51 466.20 396.42 C 469.81 392.00 474.01 388.11 477.99 384.02 C 477.34 382.69 476.70 381.36 476.07 380.03 C 469.92 383.42 464.91 388.47 459.27 392.61 M 454.51 409.65 C 452.23 410.34 449.80 410.15 447.52 410.75 C 444.83 414.36 442.10 418.01 439.94 421.98 C 441.19 423.00 442.60 423.82 443.97 424.68 C 451.23 420.88 458.17 416.01 462.57 408.95 C 462.64 406.32 462.39 403.19 460.20 401.40 C 457.06 403.08 456.57 407.02 454.51 409.65 M 449.42 427.39 C 449.37 429.16 449.34 430.94 449.31 432.72 C 453.81 433.98 458.31 435.34 463.00 435.66 C 470.98 429.60 479.60 424.42 487.64 418.44 C 487.24 416.10 486.86 413.77 486.47 411.43 C 483.04 410.47 479.73 408.41 476.14 408.47 C 466.91 414.28 457.52 420.00 449.42 427.39 M 351.44 451.64 C 353.38 451.95 355.33 452.25 357.28 452.55 C 357.94 445.64 359.68 438.73 358.50 431.77 C 357.76 431.35 356.27 430.52 355.53 430.10 C 352.95 436.96 352.88 444.49 351.44 451.64 M 417.31 445.15 C 419.97 446.60 422.62 448.08 425.25 449.60 C 426.56 447.58 427.94 445.56 428.73 443.27 C 425.54 442.19 422.15 442.04 418.84 441.59 C 418.33 442.77 417.81 443.96 417.31 445.15 M 354.10 461.36 C 355.67 462.82 357.63 463.64 359.70 464.10 C 360.21 461.53 360.65 458.96 361.04 456.37 C 359.18 456.04 357.33 455.71 355.49 455.39 C 355.07 457.39 354.60 459.37 354.10 461.36 M 358.05 466.47 C 358.15 467.88 357.99 469.29 357.79 470.70 C 359.09 470.67 360.39 470.65 361.70 470.63 C 361.61 469.30 361.53 467.98 361.45 466.66 C 360.31 466.59 359.18 466.53 358.05 466.47 M 479.50 468.28 C 479.37 473.36 476.67 477.75 475.11 482.46 C 477.60 482.64 480.09 482.83 482.58 483.03 C 483.72 478.35 483.83 473.52 483.31 468.75 C 482.03 468.59 480.76 468.43 479.50 468.28 M 359.52 476.95 C 360.96 476.75 362.41 476.54 363.86 476.33 C 363.31 475.32 363.24 473.88 362.04 473.39 C 360.45 473.91 360.04 475.57 359.52 476.95 M 471.63 475.57 C 470.96 476.24 470.30 476.93 469.64 477.62 C 469.60 478.07 469.54 478.98 469.50 479.44 C 470.91 479.57 472.32 479.71 473.74 479.86 C 473.68 478.42 473.62 476.98 473.57 475.55 C 473.08 475.56 472.12 475.56 471.63 475.57 M 361.33 479.21 C 361.36 479.81 361.42 481.02 361.45 481.62 C 361.96 481.57 362.99 481.47 363.50 481.42 C 363.56 480.85 363.69 479.73 363.75 479.16 C 363.15 479.17 361.94 479.20 361.33 479.21 M 356.29 482.39 C 356.39 483.76 356.51 485.13 356.63 486.51 C 357.43 486.39 359.04 486.14 359.85 486.02 C 359.79 484.80 359.74 483.59 359.70 482.39 C 358.56 482.38 357.42 482.38 356.29 482.39 M 486.74 505.79 C 486.64 507.37 486.53 508.94 486.44 510.53 C 487.04 510.58 488.23 510.68 488.83 510.73 C 489.41 509.01 489.99 507.29 490.59 505.59 C 489.30 505.65 488.02 505.72 486.74 505.79 M 550.30 620.31 C 547.09 622.19 543.36 622.71 539.94 623.98 C 534.29 628.56 529.42 634.04 524.15 639.05 C 524.44 640.25 524.82 641.43 525.28 642.59 C 528.41 642.80 531.14 640.93 533.96 639.87 C 543.59 635.86 552.92 629.25 557.09 619.36 C 554.79 619.29 552.33 618.95 550.30 620.31 M 545.60 638.54 C 545.16 639.02 544.28 640.00 543.84 640.49 C 544.53 641.20 545.21 641.92 545.91 642.65 C 546.58 642.29 547.91 641.57 548.57 641.21 C 548.41 640.41 548.24 639.62 548.09 638.83 C 547.25 638.73 546.42 638.63 545.60 638.54 Z" />
<path fill="#81a4cc" opacity="1.00" d=" M 542.94 359.18 C 552.02 357.46 561.01 355.32 570.07 353.50 C 571.53 354.62 573.00 355.74 574.48 356.85 C 574.49 357.27 574.51 358.10 574.52 358.52 C 570.93 360.39 567.23 362.42 564.95 365.90 C 563.51 367.29 562.22 370.73 559.73 369.11 C 554.05 365.95 548.37 362.75 542.94 359.18 Z" />
<path fill="#81a4cc" opacity="1.00" d=" M 300.96 470.92 C 305.96 440.54 318.68 411.24 338.47 387.57 C 338.36 394.40 338.45 401.24 337.92 408.06 C 337.48 413.50 334.88 418.40 333.44 423.59 C 331.01 431.82 328.80 440.11 326.30 448.32 C 324.71 452.60 326.82 456.92 327.97 461.02 C 323.49 461.55 318.88 461.57 314.54 462.90 C 311.90 464.44 310.23 467.13 308.19 469.33 C 305.82 472.22 302.89 474.64 300.88 477.80 C 299.43 481.07 299.52 484.76 299.08 488.27 C 298.32 482.38 300.07 476.66 300.96 470.92 Z" />
</g>
</svg>
