<?xml version="1.0" encoding="UTF-8" ?>
<!DOCTYPE svg PUBLIC "-//W3C//DTD SVG 1.1//EN" "http://www.w3.org/Graphics/SVG/1.1/DTD/svg11.dtd">
<svg width="960pt" height="540pt" viewBox="0 0 960 540" version="1.1" xmlns="http://www.w3.org/2000/svg">
<g id="#ebebebff">
</g>
<g id="#3db56bff">
<path fill="#3db56b" opacity="1.00" d=" M 131.14 142.88 C 141.93 157.24 151.21 173.30 154.95 191.04 C 157.84 204.48 156.45 219.66 147.82 230.82 C 141.71 238.63 133.53 245.26 123.89 248.05 C 128.75 237.60 131.79 226.46 133.68 215.11 C 134.76 208.06 136.37 201.01 136.27 193.83 C 134.80 202.05 132.50 210.08 130.50 218.18 C 127.60 227.80 124.51 237.82 117.91 245.63 C 110.39 239.86 106.38 230.37 106.63 220.98 C 107.14 209.91 111.62 199.49 117.12 190.03 C 122.70 180.65 130.04 171.95 132.42 161.04 C 134.02 155.03 133.50 148.62 131.14 142.88 Z" />
<path fill="#3db56b" opacity="1.00" d=" M 0.00 209.80 C 11.71 206.32 23.82 203.86 36.07 203.58 C 51.37 203.20 67.82 206.85 78.85 218.15 C 87.06 226.99 92.05 239.04 91.96 251.15 C 82.31 241.22 70.07 234.40 57.78 228.31 C 53.67 226.15 49.34 224.43 44.94 222.93 C 55.29 228.72 65.60 234.73 74.88 242.16 C 79.65 246.12 84.47 250.29 87.40 255.87 C 83.48 257.85 79.43 259.78 75.02 260.31 C 67.62 261.26 60.21 258.84 53.79 255.31 C 42.87 249.28 34.79 239.55 27.13 229.96 C 20.28 221.22 11.19 213.62 0.00 211.55 L 0.00 209.80 Z" />
<path fill="#3db56b" opacity="1.00" d=" M 159.07 252.91 C 174.84 249.03 190.67 254.32 205.96 257.83 C 216.97 260.37 229.98 259.88 238.74 251.90 C 227.04 268.26 212.94 283.91 194.40 292.52 C 182.60 298.18 168.29 299.33 156.24 293.74 C 148.30 289.96 140.69 284.75 135.61 277.43 C 152.86 280.15 170.29 277.01 187.23 273.71 C 185.47 273.60 183.70 273.53 181.94 273.69 C 172.66 274.77 163.30 275.11 153.97 274.73 C 148.21 274.44 142.42 273.79 136.97 271.81 C 139.82 261.84 149.26 255.06 159.07 252.91 Z" />
<path fill="#3db56b" opacity="1.00" d=" M 54.53 282.47 C 61.72 279.87 69.50 279.86 77.03 280.43 C 79.98 280.65 82.70 281.85 85.38 282.99 C 69.90 290.48 58.05 303.35 46.40 315.65 C 57.61 305.94 68.64 295.53 82.27 289.25 C 84.17 288.41 86.18 287.90 88.18 287.36 C 90.24 294.95 89.10 303.23 84.92 309.91 C 78.32 320.73 66.99 327.51 55.66 332.50 C 44.93 336.85 33.36 340.65 25.20 349.30 C 21.62 352.87 19.51 357.52 17.75 362.19 C 17.48 344.38 19.46 326.07 26.73 309.65 C 32.00 297.49 41.68 286.66 54.53 282.47 Z" />
<path fill="#3db56b" opacity="1.00" d=" M 118.48 297.31 C 125.98 297.86 133.25 301.13 138.31 306.74 C 145.72 314.89 149.13 325.84 150.61 336.57 C 152.61 349.46 151.14 363.12 156.61 375.32 C 158.82 380.31 162.28 384.75 166.85 387.80 C 159.14 386.60 152.21 382.82 145.08 379.90 C 129.32 372.20 113.64 361.42 106.09 345.03 C 99.12 330.20 101.81 311.87 111.40 298.87 C 114.18 317.51 123.77 334.14 133.00 350.25 C 130.06 341.35 125.69 333.01 123.00 324.02 C 120.10 315.45 117.59 306.46 118.48 297.31 Z" />
</g>
<g id="#00263eff">
<path fill="#00263e" opacity="1.00" d=" M 539.46 209.48 C 542.01 207.10 546.24 206.87 548.95 209.12 C 551.35 210.61 551.42 213.67 551.50 216.17 C 550.21 217.81 549.07 219.92 546.93 220.54 C 544.13 221.20 540.61 220.91 538.79 218.40 C 536.96 215.79 536.78 211.58 539.46 209.48 Z" />
<path fill="#00263e" opacity="1.00" d=" M 738.72 207.81 C 743.07 206.45 748.66 210.16 747.63 215.02 C 747.43 221.88 736.52 223.02 734.31 216.90 C 732.56 213.22 734.81 208.75 738.72 207.81 Z" />
<path fill="#00263e" opacity="1.00" d=" M 760.61 207.77 C 765.41 206.32 770.99 211.03 769.15 216.09 C 767.85 222.19 758.05 222.46 755.94 216.82 C 754.20 213.08 756.69 208.64 760.61 207.77 Z" />
<path fill="#00263e" opacity="1.00" d=" M 575.65 207.57 C 578.89 207.54 582.14 207.54 585.40 207.56 C 585.49 230.13 585.28 252.69 585.50 275.26 C 599.44 262.28 613.46 249.40 627.43 236.46 C 631.45 236.42 635.48 236.42 639.51 236.50 C 630.13 245.81 620.28 254.64 610.94 263.99 C 609.38 264.91 610.56 266.39 611.35 267.38 C 621.90 280.68 632.40 294.03 642.89 307.38 C 639.02 307.44 635.16 307.43 631.31 307.40 C 621.66 295.55 611.69 283.97 601.97 272.18 C 596.54 277.36 590.88 282.31 585.43 287.47 C 585.40 294.21 585.40 300.96 585.43 307.71 C 582.16 308.27 578.85 308.26 575.61 307.66 C 575.68 274.30 575.60 240.93 575.65 207.57 Z" />
<path fill="#00263e" opacity="1.00" d=" M 837.74 208.36 C 840.99 208.25 844.26 208.26 847.52 208.27 C 847.53 241.45 847.48 274.64 847.55 307.82 C 844.54 308.32 841.51 308.14 838.52 307.71 C 838.54 303.17 838.56 298.64 838.48 294.11 C 834.44 299.58 829.38 304.57 822.76 306.72 C 811.75 310.45 798.69 308.95 789.47 301.61 C 782.17 296.28 777.39 287.83 776.34 278.88 C 775.27 270.13 776.19 260.70 781.06 253.14 C 785.91 244.93 794.63 239.23 803.97 237.58 C 810.50 237.07 817.46 236.60 823.57 239.47 C 829.07 242.08 834.00 245.94 837.71 250.78 C 837.80 236.64 837.75 222.50 837.74 208.36 M 808.64 244.89 C 799.29 246.01 790.99 252.66 787.60 261.39 C 784.93 270.76 786.00 281.30 790.98 289.73 C 799.07 300.87 815.98 302.41 827.20 295.34 C 831.73 291.80 836.08 287.35 837.50 281.61 C 839.64 272.52 838.60 262.50 833.60 254.51 C 827.96 246.82 817.85 243.67 808.64 244.89 Z" />
<path fill="#00263e" opacity="1.00" d=" M 321.78 236.74 C 331.27 234.48 341.38 236.22 349.72 241.21 C 353.12 243.42 355.74 246.58 358.40 249.60 C 358.39 245.21 358.40 240.83 358.40 236.44 C 361.57 236.44 364.73 236.44 367.91 236.44 C 367.92 259.87 367.91 283.31 367.91 306.75 C 364.85 306.74 361.79 306.74 358.74 306.61 C 358.77 302.08 358.79 297.56 358.71 293.03 C 355.36 296.80 352.17 300.93 347.63 303.36 C 337.52 308.88 324.61 308.68 314.46 303.34 C 305.64 298.88 299.11 290.20 297.18 280.51 C 295.58 271.98 296.07 262.80 299.84 254.88 C 304.03 245.99 312.44 239.49 321.78 236.74 M 324.58 244.02 C 318.28 245.48 312.43 249.49 309.15 255.12 C 305.17 262.67 304.48 271.57 306.15 279.85 C 307.24 284.69 310.46 288.67 314.02 291.97 C 319.98 297.70 328.95 299.21 336.88 297.91 C 345.63 296.93 352.91 290.21 356.11 282.22 C 358.58 276.79 357.62 270.70 357.28 264.96 C 356.71 258.31 352.52 252.60 347.56 248.41 C 340.98 243.70 332.42 242.51 324.58 244.02 Z" />
<path fill="#00263e" opacity="1.00" d=" M 387.80 261.86 C 390.84 247.79 403.88 237.30 417.96 235.83 C 430.03 234.84 443.51 239.00 450.36 249.58 C 450.38 245.20 450.39 240.82 450.37 236.45 C 453.50 236.44 456.62 236.44 459.75 236.40 C 460.04 238.58 460.24 240.79 460.11 243.00 C 460.43 247.68 459.60 252.35 460.09 257.02 C 459.84 265.66 459.73 274.31 459.86 282.97 C 459.72 287.66 460.48 292.34 460.13 297.04 C 459.76 306.26 458.68 316.17 452.48 323.52 C 446.34 331.06 436.32 333.56 427.03 334.17 C 419.06 334.59 411.12 332.88 403.62 330.28 C 399.11 328.71 394.98 326.19 391.56 322.86 C 393.31 320.69 394.47 317.54 396.94 316.22 C 400.64 318.82 404.43 321.45 408.92 322.50 C 419.49 325.90 432.02 327.07 441.86 321.01 C 451.75 314.29 451.56 300.73 450.64 290.11 C 446.20 297.15 438.34 302.20 430.02 303.09 C 421.35 304.18 412.05 303.30 404.60 298.40 C 398.24 294.87 394.00 288.79 389.88 283.00 C 386.29 276.59 387.17 268.88 387.80 261.86 M 418.97 245.04 C 413.17 246.36 406.82 248.04 402.94 252.90 C 393.53 263.56 394.77 282.17 406.45 290.71 C 414.12 296.01 424.07 296.75 432.99 294.82 C 440.15 293.37 445.60 287.56 448.79 281.28 C 450.59 275.32 450.83 268.85 449.28 262.79 C 445.56 250.40 431.55 242.48 418.97 245.04 Z" />
<path fill="#00263e" opacity="1.00" d=" M 486.77 236.48 C 489.75 236.44 492.73 236.44 495.72 236.43 C 495.73 240.73 495.66 245.03 495.82 249.32 C 498.49 246.20 500.90 242.70 504.52 240.56 C 509.77 236.83 516.34 236.06 522.59 235.59 C 522.62 238.80 522.62 242.02 522.61 245.24 C 516.31 245.27 509.51 246.21 504.67 250.61 C 499.05 255.35 496.45 262.82 496.52 270.03 C 496.44 282.59 496.48 295.14 496.50 307.70 C 493.23 307.87 489.93 308.44 486.70 307.64 C 486.86 283.92 486.73 260.20 486.77 236.48 Z" />
<path fill="#00263e" opacity="1.00" d=" M 539.76 236.51 C 543.02 236.43 546.29 236.43 549.56 236.44 C 549.53 260.11 549.59 283.77 549.53 307.43 C 546.28 307.42 543.02 307.42 539.77 307.38 C 539.76 283.76 539.79 260.13 539.76 236.51 Z" />
<path fill="#00263e" opacity="1.00" d=" M 662.37 243.30 C 676.70 231.89 700.46 234.76 710.64 250.38 C 710.67 246.02 710.68 241.66 710.67 237.31 C 712.10 237.23 713.55 237.12 715.00 236.99 C 716.74 237.13 718.49 237.23 720.26 237.30 C 720.25 260.68 720.28 284.05 720.25 307.42 C 717.30 307.42 714.36 307.42 711.42 307.43 C 711.37 302.76 711.41 298.10 711.37 293.43 C 707.59 297.53 704.06 302.17 698.88 304.58 C 692.17 308.22 684.27 308.21 676.87 307.45 C 665.78 305.59 655.82 297.91 651.50 287.46 C 645.37 272.57 648.73 252.95 662.37 243.30 M 665.01 251.00 C 660.49 255.06 659.21 261.28 657.74 266.91 C 657.59 273.17 657.40 279.92 660.49 285.58 C 664.50 291.75 670.43 297.20 677.94 298.38 C 684.52 299.28 691.80 299.26 697.63 295.66 C 704.49 291.62 709.51 284.13 709.71 276.06 C 710.21 268.60 710.12 260.14 704.79 254.26 C 699.59 247.20 690.71 243.36 682.00 244.25 C 675.66 243.95 669.67 246.90 665.01 251.00 Z" />
<path fill="#00263e" opacity="1.00" d=" M 746.50 236.44 C 749.73 236.43 752.97 236.43 756.21 236.51 C 756.17 260.14 756.21 283.76 756.19 307.39 C 752.96 307.42 749.74 307.42 746.52 307.43 C 746.46 283.77 746.51 260.10 746.50 236.44 Z" />
<path fill="#00263e" opacity="1.00" d=" M 885.55 240.75 C 893.14 236.33 902.27 235.83 910.80 236.87 C 921.35 238.55 931.21 245.26 935.80 255.04 C 939.74 262.69 940.31 271.64 938.99 280.03 C 937.01 291.84 928.08 301.93 916.92 306.01 C 911.20 308.16 904.99 307.89 899.00 307.71 C 887.19 307.04 876.45 299.16 871.41 288.60 C 867.32 280.68 868.01 271.48 868.71 262.89 C 870.99 253.58 877.44 245.67 885.55 240.75 M 900.53 244.83 C 888.93 246.06 878.15 256.02 877.88 268.01 C 876.99 275.65 878.69 283.70 882.76 290.23 C 890.83 300.67 906.80 302.24 917.88 295.92 C 923.62 291.64 929.19 285.67 929.49 278.11 C 930.50 269.29 929.40 259.54 923.45 252.56 C 917.74 246.27 908.78 243.98 900.53 244.83 Z" />
</g>
</svg>
