<?xml version="1.0" encoding="UTF-8" ?>
<!DOCTYPE svg PUBLIC "-//W3C//DTD SVG 1.1//EN" "http://www.w3.org/Graphics/SVG/1.1/DTD/svg11.dtd">
<svg width="725pt" height="299pt" viewBox="0 0 725 299" version="1.1" xmlns="http://www.w3.org/2000/svg">
<g id="#ffffffff">
<path fill="#ffffff" opacity="1.00" d=" M 0.00 0.00 L 725.00 0.00 L 725.00 299.00 L 0.00 299.00 L 0.00 0.00 M 348.00 43.00 C 348.00 49.67 347.99 56.33 348.00 63.00 C 373.67 63.00 399.33 63.00 425.00 63.00 C 425.00 56.33 425.00 49.67 425.00 43.00 C 399.33 43.00 373.66 43.00 348.00 43.00 M 84.27 73.38 C 68.14 77.29 53.63 87.80 45.21 102.15 C 38.81 112.86 35.98 125.57 36.93 137.98 C 38.10 155.48 47.29 172.20 61.26 182.74 C 71.74 190.75 84.81 195.28 98.01 195.38 C 118.81 195.51 139.62 195.39 160.42 195.43 C 160.43 174.28 160.45 153.13 160.42 131.98 C 160.31 111.17 148.46 91.04 130.61 80.47 C 116.93 72.02 99.85 69.74 84.27 73.38 M 167.60 96.60 C 167.61 110.40 167.60 124.20 167.60 138.00 C 167.62 144.34 167.38 150.79 168.91 157.01 C 172.24 171.61 182.48 184.53 196.12 190.81 C 210.23 197.46 227.57 196.91 241.14 189.17 C 252.28 182.98 260.80 172.37 264.48 160.18 C 266.41 154.34 266.57 148.13 266.65 142.03 C 266.64 126.88 266.66 111.74 266.64 96.59 C 260.03 96.63 253.42 96.60 246.81 96.61 C 246.83 113.06 246.80 129.52 246.83 145.97 C 246.98 156.22 241.28 166.31 232.41 171.45 C 222.78 177.35 209.70 177.10 200.43 170.58 C 192.34 165.24 187.32 155.65 187.38 145.97 C 187.41 129.52 187.38 113.06 187.40 96.61 C 180.80 96.61 174.20 96.61 167.60 96.60 M 307.41 98.57 C 293.92 102.59 282.26 112.54 276.50 125.43 C 272.98 132.76 272.04 140.99 271.99 149.04 C 272.01 164.49 271.99 179.94 272.00 195.39 C 278.73 195.39 285.46 195.40 292.19 195.39 C 292.18 178.57 292.19 161.76 292.17 144.94 C 292.15 132.23 301.73 120.43 313.92 117.22 C 319.67 115.56 325.70 116.31 331.59 116.24 C 331.72 109.69 331.62 103.14 331.65 96.59 C 323.55 96.73 315.23 95.89 307.41 98.57 M 374.07 98.62 C 359.67 102.27 347.26 112.93 341.49 126.61 C 335.62 140.27 336.32 156.53 343.18 169.69 C 350.56 183.79 365.21 193.85 381.07 195.48 C 393.39 197.00 406.26 193.64 416.23 186.22 C 420.86 182.86 424.60 178.48 428.76 174.59 C 424.18 169.80 419.41 165.19 414.75 160.48 C 410.44 164.60 406.62 169.38 401.36 172.36 C 393.09 177.16 382.47 177.24 373.89 173.15 C 392.15 154.82 410.48 136.56 428.76 118.24 C 422.96 112.34 417.17 106.14 409.64 102.42 C 398.77 96.89 385.85 95.32 374.07 98.62 M 476.14 97.15 C 460.23 99.81 445.98 110.68 439.29 125.37 C 433.02 139.16 433.52 155.90 440.82 169.21 C 447.48 181.83 459.85 191.24 473.81 194.26 C 479.77 195.67 485.93 195.38 492.00 195.39 C 506.00 195.39 520.00 195.39 534.00 195.39 C 534.02 179.94 533.98 164.48 534.02 149.02 C 534.04 144.40 533.67 139.77 532.79 135.23 C 529.67 120.51 519.32 107.57 505.71 101.18 C 496.61 96.66 486.10 95.72 476.14 97.15 M 529.26 219.48 C 527.97 220.96 528.88 222.98 528.99 224.69 C 530.64 224.69 532.30 224.70 533.97 224.70 C 534.15 223.18 534.66 221.62 534.27 220.09 C 533.15 218.59 530.78 218.73 529.26 219.48 M 371.91 224.00 C 367.35 231.24 362.85 238.51 358.25 245.72 C 360.48 245.73 362.71 245.73 364.95 245.76 C 366.15 243.90 367.30 242.00 368.45 240.10 C 374.19 239.93 379.94 239.98 385.69 240.05 C 386.86 241.95 388.04 243.85 389.24 245.73 C 391.49 245.73 393.74 245.73 396.00 245.74 C 391.59 238.59 387.08 231.50 382.69 224.34 C 381.34 222.33 379.75 219.62 376.92 219.96 C 374.42 219.83 373.15 222.27 371.91 224.00 M 470.48 229.03 C 470.37 231.50 471.52 234.30 474.12 234.97 C 479.93 236.39 486.10 234.42 491.83 236.07 C 492.41 237.58 492.00 239.18 491.86 240.73 C 484.77 240.83 477.69 240.75 470.60 240.79 C 470.53 242.38 470.46 243.98 470.40 245.57 C 477.28 245.83 484.17 245.73 491.06 245.70 C 494.00 245.87 497.30 244.08 497.55 240.88 C 497.96 237.60 498.09 232.95 494.42 231.46 C 488.87 229.87 482.98 231.46 477.33 230.52 C 475.25 230.03 476.44 227.43 476.09 225.93 C 479.27 225.46 482.49 225.35 485.71 225.42 C 485.70 223.80 485.70 222.17 485.70 220.55 C 481.85 220.63 477.88 220.09 474.12 221.15 C 470.86 222.17 470.38 226.11 470.48 229.03 M 397.42 227.46 C 395.16 230.05 395.81 233.87 395.75 237.05 C 395.68 239.65 397.17 242.66 399.97 243.10 C 405.50 243.91 411.13 243.24 416.71 243.50 C 416.48 244.61 416.24 245.72 416.01 246.84 C 412.92 246.97 409.83 247.02 406.74 247.03 C 406.78 248.60 406.84 250.17 406.89 251.74 C 410.93 251.56 415.12 252.24 419.05 251.08 C 422.71 249.63 421.92 245.12 422.04 241.99 C 421.75 237.63 422.72 233.03 421.19 228.86 C 418.94 224.94 413.77 225.93 409.99 225.74 C 405.84 226.06 401.01 224.78 397.42 227.46 M 426.70 229.69 C 425.26 234.89 426.26 240.40 426.02 245.73 C 427.92 245.72 429.82 245.72 431.72 245.72 C 431.82 241.15 431.45 236.56 431.90 232.01 C 433.53 229.74 436.64 230.67 439.01 230.35 C 439.00 228.82 438.99 227.29 438.99 225.76 C 434.76 225.82 428.82 225.00 426.70 229.69 M 445.33 226.48 C 443.43 227.09 442.07 228.79 441.74 230.74 C 441.06 234.19 441.06 237.81 441.83 241.24 C 442.40 244.03 445.35 245.46 447.97 245.59 C 452.50 245.82 457.08 245.94 461.60 245.48 C 464.41 245.22 466.94 242.96 467.08 240.06 C 467.33 236.51 467.63 232.78 466.54 229.34 C 465.07 226.10 461.11 225.73 458.01 225.75 C 453.79 225.87 449.43 225.28 445.33 226.48 M 501.27 230.07 C 500.50 233.81 500.42 237.79 501.31 241.52 C 502.07 244.42 505.19 245.59 507.92 245.65 C 513.60 245.87 519.28 245.63 524.97 245.74 C 524.98 244.16 524.99 242.58 525.01 241.01 C 519.24 240.67 513.27 241.73 507.62 240.35 C 505.83 237.87 505.56 233.11 508.01 231.00 C 513.54 230.32 519.14 230.89 524.70 230.72 C 524.72 229.10 524.73 227.48 524.76 225.87 C 519.20 225.79 513.63 225.63 508.08 225.85 C 505.29 225.86 502.01 227.08 501.27 230.07 M 528.62 226.20 C 528.44 232.66 528.60 239.13 528.50 245.60 C 530.45 245.67 532.41 245.74 534.37 245.81 C 534.56 239.35 534.35 232.88 534.52 226.42 C 532.55 226.34 530.58 226.27 528.62 226.20 M 538.31 232.95 C 538.30 236.56 537.61 240.87 540.18 243.83 C 543.98 246.87 549.25 245.41 553.74 245.70 C 553.72 244.31 553.70 242.93 553.69 241.56 C 551.13 241.55 548.54 241.70 546.01 241.28 C 544.18 241.31 544.21 239.26 543.68 238.05 C 550.60 237.95 557.53 238.03 564.46 238.00 C 564.44 235.04 564.67 232.04 564.09 229.12 C 563.10 226.22 559.62 225.70 556.97 225.76 C 552.33 225.85 547.65 225.45 543.04 226.10 C 539.77 226.52 538.29 230.00 538.31 232.95 M 568.73 229.83 C 567.37 235.00 568.19 240.45 568.03 245.74 C 569.93 245.73 571.83 245.72 573.73 245.71 C 574.02 241.03 572.88 236.02 574.58 231.56 C 578.58 230.08 583.49 230.27 587.56 231.47 C 589.10 236.01 587.95 240.98 588.28 245.70 C 590.17 245.71 592.07 245.72 593.97 245.74 C 593.90 240.90 594.30 236.03 593.78 231.21 C 593.57 228.55 591.37 226.50 588.81 226.11 C 584.56 225.49 580.25 225.76 575.98 225.82 C 573.15 225.84 569.54 226.67 568.73 229.83 M 598.61 229.46 C 597.40 233.15 597.54 237.20 598.27 240.99 C 598.72 244.09 602.04 245.59 604.88 245.64 C 610.58 245.87 616.28 245.63 621.98 245.73 C 621.99 244.15 621.99 242.58 622.01 241.01 C 616.69 240.85 611.34 241.33 606.04 240.75 C 603.69 240.61 603.44 237.86 603.42 236.05 C 603.50 234.29 603.42 232.14 604.98 230.96 C 610.62 230.36 616.32 230.87 621.99 230.72 C 621.99 229.07 621.99 227.43 622.00 225.78 C 616.65 225.82 611.31 225.69 605.96 225.79 C 603.19 225.83 599.76 226.60 598.61 229.46 M 625.65 232.05 C 625.52 235.72 624.90 239.87 626.86 243.18 C 630.40 247.11 636.30 245.33 640.96 245.72 C 640.97 244.33 640.99 242.95 641.01 241.57 C 638.05 241.47 634.96 241.90 632.10 240.96 C 631.60 240.04 631.15 239.10 630.74 238.15 C 637.74 237.84 644.74 238.08 651.75 237.98 C 651.43 233.96 653.17 227.51 647.87 226.14 C 642.31 225.42 636.60 225.71 631.01 225.97 C 627.84 226.09 625.66 229.03 625.65 232.05 M 654.97 230.96 C 654.90 233.32 655.16 236.68 658.07 237.19 C 662.96 237.81 667.92 237.31 672.84 237.45 C 672.95 238.67 673.09 239.88 673.24 241.09 C 667.18 241.44 661.11 241.25 655.04 241.26 C 655.02 242.74 655.00 244.23 655.01 245.73 C 661.01 245.67 667.01 245.77 673.02 245.72 C 675.07 245.66 678.09 245.46 678.63 242.98 C 679.33 239.92 679.70 235.01 675.90 233.91 C 671.08 233.01 666.14 233.97 661.29 233.37 C 661.07 233.06 660.61 232.43 660.38 232.12 C 660.96 228.54 665.66 230.52 668.22 229.94 C 668.21 228.56 668.21 227.18 668.21 225.80 C 664.81 225.81 661.38 225.52 658.01 225.99 C 655.65 226.29 654.90 228.95 654.97 230.96 Z" />
<path fill="#ffffff" opacity="1.00" d=" M 80.26 101.22 C 89.44 95.93 100.93 94.93 110.92 98.39 C 124.98 103.17 135.43 117.05 135.77 131.95 C 135.85 144.90 135.77 157.85 135.80 170.79 C 125.88 170.80 115.96 170.79 106.04 170.80 C 101.02 170.79 95.95 171.01 91.02 169.92 C 80.89 167.87 71.78 161.36 66.59 152.43 C 62.34 145.14 60.52 136.39 61.83 128.03 C 63.39 116.89 70.41 106.66 80.26 101.22 Z" />
<path fill="#ffffff" opacity="1.00" d=" M 465.72 122.77 C 472.97 116.92 483.03 114.67 492.04 117.14 C 504.35 120.29 514.21 132.15 514.01 145.02 C 514.00 155.20 513.96 165.38 514.03 175.56 C 504.02 175.67 494.02 175.57 484.01 175.62 C 471.53 175.74 459.66 166.93 456.07 154.99 C 452.25 143.60 456.25 130.17 465.72 122.77 Z" />
<path fill="#ffffff" opacity="1.00" d=" M 358.85 135.72 C 363.17 124.39 374.74 116.12 386.99 116.47 C 391.39 116.58 395.66 117.83 399.68 119.57 C 386.45 132.76 373.27 146.00 360.03 159.19 C 356.47 151.94 355.98 143.27 358.85 135.72 Z" />
<path fill="#ffffff" opacity="1.00" d=" M 371.32 235.51 C 373.20 232.34 375.13 229.20 377.09 226.08 C 379.03 229.21 380.95 232.35 382.85 235.51 C 379.00 235.56 375.16 235.56 371.32 235.51 Z" />
<path fill="#ffffff" opacity="1.00" d=" M 545.28 230.40 C 549.68 229.94 554.13 230.25 558.54 230.40 C 558.66 231.68 558.76 232.96 558.85 234.25 C 553.79 234.29 548.73 234.31 543.68 234.23 C 544.18 232.98 544.07 231.26 545.28 230.40 Z" />
<path fill="#ffffff" opacity="1.00" d=" M 632.36 230.46 C 636.77 229.90 641.23 230.29 645.66 230.31 C 645.80 231.63 645.95 232.95 646.10 234.27 C 641.02 234.28 635.94 234.32 630.86 234.21 C 631.33 232.98 631.30 231.39 632.36 230.46 Z" />
<path fill="#ffffff" opacity="1.00" d=" M 401.84 230.85 C 406.44 230.57 411.32 229.68 415.76 231.23 C 417.22 233.50 416.35 236.48 416.48 239.05 C 411.73 238.82 406.94 239.38 402.23 238.70 C 400.41 236.46 401.45 233.40 401.84 230.85 Z" />
<path fill="#ffffff" opacity="1.00" d=" M 448.28 231.29 C 450.67 230.26 453.43 230.77 455.99 230.66 C 457.95 230.74 461.14 230.40 461.46 233.06 C 461.51 235.44 462.35 238.55 460.34 240.37 C 456.69 241.38 452.77 241.18 449.07 240.61 C 447.01 240.23 447.07 237.63 446.98 236.03 C 447.08 234.43 446.81 232.38 448.28 231.29 Z" />
</g>
<g id="#73c26fff">
<path fill="#73c26f" opacity="1.00" d=" M 348.00 43.00 C 373.66 43.00 399.33 43.00 425.00 43.00 C 425.00 49.67 425.00 56.33 425.00 63.00 C 399.33 63.00 373.67 63.00 348.00 63.00 C 347.99 56.33 348.00 49.67 348.00 43.00 Z" />
<path fill="#73c26f" opacity="1.00" d=" M 84.27 73.38 C 99.85 69.74 116.93 72.02 130.61 80.47 C 148.46 91.04 160.31 111.17 160.42 131.98 C 160.45 153.13 160.43 174.28 160.42 195.43 C 139.62 195.39 118.81 195.51 98.01 195.38 C 84.81 195.28 71.74 190.75 61.26 182.74 C 47.29 172.20 38.10 155.48 36.93 137.98 C 35.98 125.57 38.81 112.86 45.21 102.15 C 53.63 87.80 68.14 77.29 84.27 73.38 M 80.26 101.22 C 70.41 106.66 63.39 116.89 61.83 128.03 C 60.52 136.39 62.34 145.14 66.59 152.43 C 71.78 161.36 80.89 167.87 91.02 169.92 C 95.95 171.01 101.02 170.79 106.04 170.80 C 115.96 170.79 125.88 170.80 135.80 170.79 C 135.77 157.85 135.85 144.90 135.77 131.95 C 135.43 117.05 124.98 103.17 110.92 98.39 C 100.93 94.93 89.44 95.93 80.26 101.22 Z" />
</g>
<g id="#48474dff">
<path fill="#48474d" opacity="1.00" d=" M 167.60 96.60 C 174.20 96.61 180.80 96.61 187.40 96.61 C 187.38 113.06 187.41 129.52 187.38 145.97 C 187.32 155.65 192.34 165.24 200.43 170.58 C 209.70 177.10 222.78 177.35 232.41 171.45 C 241.28 166.31 246.98 156.22 246.83 145.97 C 246.80 129.52 246.83 113.06 246.81 96.61 C 253.42 96.60 260.03 96.63 266.64 96.59 C 266.66 111.74 266.64 126.88 266.65 142.03 C 266.57 148.13 266.41 154.34 264.48 160.18 C 260.80 172.37 252.28 182.98 241.14 189.17 C 227.57 196.91 210.23 197.46 196.12 190.81 C 182.48 184.53 172.24 171.61 168.91 157.01 C 167.38 150.79 167.62 144.34 167.60 138.00 C 167.60 124.20 167.61 110.40 167.60 96.60 Z" />
<path fill="#48474d" opacity="1.00" d=" M 307.41 98.57 C 315.23 95.89 323.55 96.73 331.65 96.59 C 331.62 103.14 331.72 109.69 331.59 116.24 C 325.70 116.31 319.67 115.56 313.92 117.22 C 301.73 120.43 292.15 132.23 292.17 144.94 C 292.19 161.76 292.18 178.57 292.19 195.39 C 285.46 195.40 278.73 195.39 272.00 195.39 C 271.99 179.94 272.01 164.49 271.99 149.04 C 272.04 140.99 272.98 132.76 276.50 125.43 C 282.26 112.54 293.92 102.59 307.41 98.57 Z" />
<path fill="#48474d" opacity="1.00" d=" M 374.07 98.62 C 385.85 95.32 398.77 96.89 409.64 102.42 C 417.17 106.14 422.96 112.34 428.76 118.24 C 410.48 136.56 392.15 154.82 373.89 173.15 C 382.47 177.24 393.09 177.16 401.36 172.36 C 406.62 169.38 410.44 164.60 414.75 160.48 C 419.41 165.19 424.18 169.80 428.76 174.59 C 424.60 178.48 420.86 182.86 416.23 186.22 C 406.26 193.64 393.39 197.00 381.07 195.48 C 365.21 193.85 350.56 183.79 343.18 169.69 C 336.32 156.53 335.62 140.27 341.49 126.61 C 347.26 112.93 359.67 102.27 374.07 98.62 M 358.85 135.72 C 355.98 143.27 356.47 151.94 360.03 159.19 C 373.27 146.00 386.45 132.76 399.68 119.57 C 395.66 117.83 391.39 116.58 386.99 116.47 C 374.74 116.12 363.17 124.39 358.85 135.72 Z" />
<path fill="#48474d" opacity="1.00" d=" M 476.14 97.15 C 486.10 95.72 496.61 96.66 505.71 101.18 C 519.32 107.57 529.67 120.51 532.79 135.23 C 533.67 139.77 534.04 144.40 534.02 149.02 C 533.98 164.48 534.02 179.94 534.00 195.39 C 520.00 195.39 506.00 195.39 492.00 195.39 C 485.93 195.38 479.77 195.67 473.81 194.26 C 459.85 191.24 447.48 181.83 440.82 169.21 C 433.52 155.90 433.02 139.16 439.29 125.37 C 445.98 110.68 460.23 99.81 476.14 97.15 M 465.72 122.77 C 456.25 130.17 452.25 143.60 456.07 154.99 C 459.66 166.93 471.53 175.74 484.01 175.62 C 494.02 175.57 504.02 175.67 514.03 175.56 C 513.96 165.38 514.00 155.20 514.01 145.02 C 514.21 132.15 504.35 120.29 492.04 117.14 C 483.03 114.67 472.97 116.92 465.72 122.77 Z" />
</g>
<g id="#a2a5aaff">
<path fill="#a2a5aa" opacity="1.00" d=" M 529.26 219.48 C 530.78 218.73 533.15 218.59 534.27 220.09 C 534.66 221.62 534.15 223.18 533.97 224.70 C 532.30 224.70 530.64 224.69 528.99 224.69 C 528.88 222.98 527.97 220.96 529.26 219.48 Z" />
<path fill="#a2a5aa" opacity="1.00" d=" M 371.91 224.00 C 373.15 222.27 374.42 219.83 376.92 219.96 C 379.75 219.62 381.34 222.33 382.69 224.34 C 387.08 231.50 391.59 238.59 396.00 245.74 C 393.74 245.73 391.49 245.73 389.24 245.73 C 388.04 243.85 386.86 241.95 385.69 240.05 C 379.94 239.98 374.19 239.93 368.45 240.10 C 367.30 242.00 366.15 243.90 364.95 245.76 C 362.71 245.73 360.48 245.73 358.25 245.72 C 362.85 238.51 367.35 231.24 371.91 224.00 M 371.32 235.51 C 375.16 235.56 379.00 235.56 382.85 235.51 C 380.95 232.35 379.03 229.21 377.09 226.08 C 375.13 229.20 373.20 232.34 371.32 235.51 Z" />
<path fill="#a2a5aa" opacity="1.00" d=" M 470.48 229.03 C 470.38 226.11 470.86 222.17 474.12 221.15 C 477.88 220.09 481.85 220.63 485.70 220.55 C 485.70 222.17 485.70 223.80 485.71 225.42 C 482.49 225.35 479.27 225.46 476.09 225.93 C 476.44 227.43 475.25 230.03 477.33 230.52 C 482.98 231.46 488.87 229.87 494.42 231.46 C 498.09 232.95 497.96 237.60 497.55 240.88 C 497.30 244.08 494.00 245.87 491.06 245.70 C 484.17 245.73 477.28 245.83 470.40 245.57 C 470.46 243.98 470.53 242.38 470.60 240.79 C 477.69 240.75 484.77 240.83 491.86 240.73 C 492.00 239.18 492.41 237.58 491.83 236.07 C 486.10 234.42 479.93 236.39 474.12 234.97 C 471.52 234.30 470.37 231.50 470.48 229.03 Z" />
<path fill="#a2a5aa" opacity="1.00" d=" M 397.42 227.46 C 401.01 224.78 405.84 226.06 409.99 225.74 C 413.77 225.93 418.94 224.94 421.19 228.86 C 422.72 233.03 421.75 237.63 422.04 241.99 C 421.92 245.12 422.71 249.63 419.05 251.08 C 415.12 252.24 410.93 251.56 406.89 251.74 C 406.84 250.17 406.78 248.60 406.74 247.03 C 409.83 247.02 412.92 246.97 416.01 246.84 C 416.24 245.72 416.48 244.61 416.71 243.50 C 411.13 243.24 405.50 243.91 399.97 243.10 C 397.17 242.66 395.68 239.65 395.75 237.05 C 395.81 233.87 395.16 230.05 397.42 227.46 M 401.84 230.85 C 401.45 233.40 400.41 236.46 402.23 238.70 C 406.94 239.38 411.73 238.82 416.48 239.05 C 416.35 236.48 417.22 233.50 415.76 231.23 C 411.32 229.68 406.44 230.57 401.84 230.85 Z" />
<path fill="#a2a5aa" opacity="1.00" d=" M 426.70 229.69 C 428.82 225.00 434.76 225.82 438.99 225.76 C 438.99 227.29 439.00 228.82 439.01 230.35 C 436.64 230.67 433.53 229.74 431.90 232.01 C 431.45 236.56 431.82 241.15 431.72 245.72 C 429.82 245.72 427.92 245.72 426.02 245.73 C 426.26 240.40 425.26 234.89 426.70 229.69 Z" />
<path fill="#a2a5aa" opacity="1.00" d=" M 445.33 226.48 C 449.43 225.28 453.79 225.87 458.01 225.75 C 461.11 225.73 465.07 226.10 466.54 229.34 C 467.63 232.78 467.33 236.51 467.08 240.06 C 466.94 242.96 464.41 245.22 461.60 245.48 C 457.08 245.94 452.50 245.82 447.97 245.59 C 445.35 245.46 442.40 244.03 441.83 241.24 C 441.06 237.81 441.06 234.19 441.74 230.74 C 442.07 228.79 443.43 227.09 445.33 226.48 M 448.28 231.29 C 446.81 232.38 447.08 234.43 446.98 236.03 C 447.07 237.63 447.01 240.23 449.07 240.61 C 452.77 241.18 456.69 241.38 460.34 240.37 C 462.35 238.55 461.51 235.44 461.46 233.06 C 461.14 230.40 457.95 230.74 455.99 230.66 C 453.43 230.77 450.67 230.26 448.28 231.29 Z" />
<path fill="#a2a5aa" opacity="1.00" d=" M 501.27 230.07 C 502.01 227.08 505.29 225.86 508.08 225.85 C 513.63 225.63 519.20 225.79 524.76 225.87 C 524.73 227.48 524.72 229.10 524.70 230.72 C 519.14 230.89 513.54 230.32 508.01 231.00 C 505.56 233.11 505.83 237.87 507.62 240.35 C 513.27 241.73 519.24 240.67 525.01 241.01 C 524.99 242.58 524.98 244.16 524.97 245.74 C 519.28 245.63 513.60 245.87 507.92 245.65 C 505.19 245.59 502.07 244.42 501.31 241.52 C 500.42 237.79 500.50 233.81 501.27 230.07 Z" />
<path fill="#a2a5aa" opacity="1.00" d=" M 528.62 226.20 C 530.58 226.27 532.55 226.34 534.52 226.42 C 534.35 232.88 534.56 239.35 534.37 245.81 C 532.41 245.74 530.45 245.67 528.50 245.60 C 528.60 239.13 528.44 232.66 528.62 226.20 Z" />
<path fill="#a2a5aa" opacity="1.00" d=" M 538.31 232.95 C 538.29 230.00 539.77 226.52 543.04 226.10 C 547.65 225.45 552.33 225.85 556.97 225.76 C 559.62 225.70 563.10 226.22 564.09 229.12 C 564.67 232.04 564.44 235.04 564.46 238.00 C 557.53 238.03 550.60 237.95 543.68 238.05 C 544.21 239.26 544.18 241.31 546.01 241.28 C 548.54 241.70 551.13 241.55 553.69 241.56 C 553.70 242.93 553.72 244.31 553.74 245.70 C 549.25 245.41 543.98 246.87 540.18 243.83 C 537.61 240.87 538.30 236.56 538.31 232.95 M 545.28 230.40 C 544.07 231.26 544.18 232.98 543.68 234.23 C 548.73 234.31 553.79 234.29 558.85 234.25 C 558.76 232.96 558.66 231.68 558.54 230.40 C 554.13 230.25 549.68 229.94 545.28 230.40 Z" />
<path fill="#a2a5aa" opacity="1.00" d=" M 568.73 229.83 C 569.54 226.67 573.15 225.84 575.98 225.82 C 580.25 225.76 584.56 225.49 588.81 226.11 C 591.37 226.50 593.57 228.55 593.78 231.21 C 594.30 236.03 593.90 240.90 593.97 245.74 C 592.07 245.72 590.17 245.71 588.28 245.70 C 587.95 240.98 589.10 236.01 587.56 231.47 C 583.49 230.27 578.58 230.08 574.58 231.56 C 572.88 236.02 574.02 241.03 573.73 245.71 C 571.83 245.72 569.93 245.73 568.03 245.74 C 568.19 240.45 567.37 235.00 568.73 229.83 Z" />
<path fill="#a2a5aa" opacity="1.00" d=" M 598.61 229.46 C 599.76 226.60 603.19 225.83 605.96 225.79 C 611.31 225.69 616.65 225.82 622.00 225.78 C 621.99 227.43 621.99 229.07 621.99 230.72 C 616.32 230.87 610.62 230.36 604.98 230.96 C 603.42 232.14 603.50 234.29 603.42 236.05 C 603.44 237.86 603.69 240.61 606.04 240.75 C 611.34 241.33 616.69 240.85 622.01 241.01 C 621.99 242.58 621.99 244.15 621.98 245.73 C 616.28 245.63 610.58 245.87 604.88 245.64 C 602.04 245.59 598.72 244.09 598.27 240.99 C 597.54 237.20 597.40 233.15 598.61 229.46 Z" />
<path fill="#a2a5aa" opacity="1.00" d=" M 625.65 232.05 C 625.66 229.03 627.84 226.09 631.01 225.97 C 636.60 225.71 642.31 225.42 647.87 226.14 C 653.17 227.51 651.43 233.96 651.75 237.98 C 644.74 238.08 637.74 237.84 630.74 238.15 C 631.15 239.10 631.60 240.04 632.10 240.96 C 634.96 241.90 638.05 241.47 641.01 241.57 C 640.99 242.95 640.97 244.33 640.96 245.72 C 636.30 245.33 630.40 247.11 626.86 243.18 C 624.90 239.87 625.52 235.72 625.65 232.05 M 632.36 230.46 C 631.30 231.39 631.33 232.98 630.86 234.21 C 635.94 234.32 641.02 234.28 646.10 234.27 C 645.95 232.95 645.80 231.63 645.66 230.31 C 641.23 230.29 636.77 229.90 632.36 230.46 Z" />
<path fill="#a2a5aa" opacity="1.00" d=" M 654.97 230.96 C 654.90 228.95 655.65 226.29 658.01 225.99 C 661.38 225.52 664.81 225.81 668.21 225.80 C 668.21 227.18 668.21 228.56 668.22 229.94 C 665.66 230.52 660.96 228.54 660.38 232.12 C 660.61 232.43 661.07 233.06 661.29 233.37 C 666.14 233.97 671.08 233.01 675.90 233.91 C 679.70 235.01 679.33 239.92 678.63 242.98 C 678.09 245.46 675.07 245.66 673.02 245.72 C 667.01 245.77 661.01 245.67 655.01 245.73 C 655.00 244.23 655.02 242.74 655.04 241.26 C 661.11 241.25 667.18 241.44 673.24 241.09 C 673.09 239.88 672.95 238.67 672.84 237.45 C 667.92 237.31 662.96 237.81 658.07 237.19 C 655.16 236.68 654.90 233.32 654.97 230.96 Z" />
</g>
</svg>
