<?xml version="1.0" encoding="UTF-8" ?>
<!DOCTYPE svg PUBLIC "-//W3C//DTD SVG 1.1//EN" "http://www.w3.org/Graphics/SVG/1.1/DTD/svg11.dtd">
<svg width="270pt" height="75pt" viewBox="0 0 270 75" version="1.1" xmlns="http://www.w3.org/2000/svg">
<g id="#1c3c36ff">
<path fill="#1c3c36" opacity="1.00" d=" M 130.27 8.27 C 134.24 6.41 139.52 7.08 142.33 10.65 C 145.86 15.09 145.97 21.09 146.30 26.49 C 144.34 26.49 142.39 26.50 140.43 26.51 C 140.18 22.55 140.40 18.26 138.30 14.73 C 136.75 12.14 132.50 12.67 131.37 15.39 C 128.94 20.87 131.37 27.48 135.96 31.05 C 140.38 34.58 144.96 38.70 146.25 44.47 C 147.33 49.32 147.42 55.06 144.14 59.11 C 140.45 63.77 132.93 64.43 128.39 60.69 C 123.97 56.20 123.49 49.46 123.37 43.49 C 125.30 43.50 127.24 43.51 129.18 43.51 C 129.55 48.22 129.04 54.79 134.02 57.28 C 138.77 58.52 141.42 52.89 140.75 48.94 C 140.56 42.71 135.31 38.68 131.23 34.70 C 127.13 30.96 124.20 25.66 124.34 19.99 C 124.09 15.45 125.98 10.36 130.27 8.27 Z" />
<path fill="#1c3c36" opacity="1.00" d=" M 74.95 8.47 C 77.93 8.50 80.92 8.50 83.91 8.49 C 87.64 24.49 91.10 40.55 94.36 56.65 C 94.26 48.44 93.27 40.25 93.32 32.03 C 93.36 24.18 93.29 16.33 93.36 8.48 C 95.35 8.49 97.35 8.50 99.35 8.51 C 99.38 26.32 99.32 44.12 99.37 61.93 C 96.37 62.11 93.37 62.09 90.37 61.90 C 86.70 45.50 82.79 29.16 79.73 12.65 C 81.25 29.09 80.88 45.60 80.85 62.10 C 78.85 62.05 76.85 61.98 74.85 61.90 C 74.93 44.09 74.74 26.28 74.95 8.47 Z" />
<path fill="#1c3c36" opacity="1.00" d=" M 103.44 8.39 C 105.53 8.39 107.62 8.38 109.72 8.38 C 109.73 26.27 109.73 44.17 109.72 62.07 C 107.61 62.05 105.50 61.98 103.40 61.90 C 103.50 44.06 103.41 26.23 103.44 8.39 Z" />
<path fill="#1c3c36" opacity="1.00" d=" M 19.09 8.50 C 24.68 8.72 30.66 7.66 35.89 10.17 C 45.41 14.35 45.61 30.44 36.03 34.66 C 47.04 37.69 47.20 55.56 37.35 60.20 C 31.67 63.01 25.17 61.51 19.11 62.06 C 19.05 44.21 19.10 26.35 19.09 8.50 M 25.42 32.31 C 28.68 32.27 32.63 32.72 34.97 29.91 C 37.71 26.38 37.76 21.12 35.85 17.20 C 33.74 13.51 29.06 13.84 25.41 13.65 C 25.31 19.87 25.29 26.09 25.42 32.31 M 25.37 56.52 C 29.01 56.49 33.42 57.05 36.12 54.03 C 39.02 50.47 38.90 45.06 36.92 41.09 C 34.47 37.13 29.41 37.54 25.37 37.44 C 25.33 43.80 25.34 50.16 25.37 56.52 Z" />
<path fill="#1c3c36" opacity="1.00" d=" M 54.45 8.49 C 57.61 8.49 60.77 8.50 63.93 8.52 C 66.74 26.38 69.66 44.22 72.49 62.08 C 70.28 62.06 68.07 62.00 65.87 61.91 C 65.21 56.93 64.49 51.96 63.76 46.98 C 60.56 46.91 57.35 46.91 54.15 46.97 C 53.30 51.93 52.60 56.92 51.93 61.90 C 49.81 61.92 47.70 61.93 45.59 61.93 C 48.58 44.12 51.43 26.29 54.45 8.49 M 55.00 41.52 C 57.66 41.49 60.31 41.50 62.97 41.53 C 61.93 31.57 60.41 21.67 59.01 11.76 C 57.64 21.67 55.94 31.55 55.00 41.52 Z" />
<path fill="#1c3c36" opacity="1.00" d=" M 146.92 8.51 C 154.51 8.48 162.11 8.51 169.71 8.50 C 169.70 10.42 169.70 12.34 169.70 14.26 C 166.96 14.26 164.22 14.26 161.48 14.27 C 161.48 30.20 161.50 46.13 161.47 62.06 C 159.38 62.06 157.30 62.05 155.21 62.05 C 155.17 46.12 155.22 30.19 155.18 14.27 C 152.43 14.26 149.67 14.26 146.92 14.25 C 146.92 12.34 146.92 10.42 146.92 8.51 Z" />
<path fill="#1c3c36" opacity="1.00" d=" M 173.09 8.50 C 179.70 8.76 187.54 7.20 192.85 12.17 C 199.37 18.64 199.00 32.42 189.97 36.48 C 192.23 37.60 194.67 38.90 195.64 41.40 C 198.46 47.90 196.50 55.16 197.74 61.95 C 195.68 61.94 193.63 61.93 191.58 61.93 C 190.52 55.80 192.03 49.44 190.35 43.42 C 188.63 39.09 183.21 39.34 179.36 39.48 C 179.31 46.97 179.35 54.46 179.37 61.95 C 177.28 62.01 175.20 62.06 173.12 62.08 C 173.05 44.22 173.10 26.36 173.09 8.50 M 179.33 33.98 C 182.69 33.92 186.93 34.24 189.09 31.07 C 191.76 27.05 191.77 21.47 189.75 17.19 C 187.81 13.39 183.03 13.92 179.46 13.61 C 179.22 20.39 179.44 27.19 179.33 33.98 Z" />
<path fill="#1c3c36" opacity="1.00" d=" M 200.92 8.51 C 206.86 8.48 212.79 8.52 218.73 8.49 C 218.74 10.41 218.75 12.33 218.77 14.25 C 214.93 14.26 211.09 14.26 207.26 14.26 C 207.27 20.20 207.25 26.13 207.28 32.07 C 210.74 32.04 214.20 31.97 217.67 32.04 C 217.65 33.94 217.64 35.84 217.63 37.73 C 214.17 37.74 210.71 37.75 207.25 37.75 C 207.24 43.92 207.25 50.09 207.26 56.25 C 211.22 56.26 215.18 56.26 219.15 56.27 C 219.15 58.15 219.15 60.03 219.16 61.91 C 213.08 61.94 206.99 61.95 200.91 61.91 C 200.92 44.11 200.90 26.31 200.92 8.51 Z" />
<path fill="#1c3c36" opacity="1.00" d=" M 226.30 9.50 C 233.90 9.51 241.51 9.48 249.11 9.51 C 249.08 11.43 249.04 13.36 248.96 15.28 C 246.24 15.26 243.53 15.25 240.82 15.27 C 240.80 31.19 240.83 47.12 240.80 63.05 C 238.71 63.05 236.62 63.06 234.54 63.06 C 234.50 47.13 234.52 31.20 234.53 15.27 C 231.79 15.26 229.05 15.25 226.31 15.26 C 226.31 13.34 226.30 11.42 226.30 9.50 Z" />
<path fill="#1c3c36" opacity="1.00" d=" M 211.08 20.46 C 217.10 20.45 223.12 20.30 229.14 20.26 C 229.40 38.09 229.69 55.92 229.90 73.74 C 223.98 73.83 218.05 73.89 212.12 73.94 C 212.11 72.04 212.11 70.14 212.10 68.25 C 215.91 68.17 219.72 68.10 223.54 68.05 C 223.43 62.09 223.49 56.14 223.19 50.19 C 219.75 50.39 216.31 50.42 212.87 50.49 C 212.85 48.57 212.84 46.65 212.82 44.73 C 216.30 44.67 219.79 44.62 223.27 44.41 C 223.10 38.35 223.11 32.30 222.87 26.24 C 218.94 26.27 215.00 26.26 211.07 26.26 C 211.07 24.33 211.08 22.40 211.08 20.46 Z" />
</g>
</svg>
