<?xml version="1.0" encoding="UTF-8" ?>
<!DOCTYPE svg PUBLIC "-//W3C//DTD SVG 1.1//EN" "http://www.w3.org/Graphics/SVG/1.1/DTD/svg11.dtd">
<svg width="550pt" height="373pt" viewBox="0 0 550 373" version="1.1" xmlns="http://www.w3.org/2000/svg">
<g id="#a10d59ff">
<path fill="#a10d59" opacity="1.00" d=" M 157.96 101.02 C 174.62 92.85 196.06 95.76 209.75 108.35 C 210.57 109.02 211.48 110.52 210.52 111.44 C 208.22 114.12 205.76 116.73 202.96 118.89 C 200.35 118.91 198.73 116.47 196.59 115.33 C 184.27 106.92 166.50 108.55 155.63 118.66 C 146.78 126.60 142.55 139.40 145.31 151.02 C 148.37 166.02 162.74 177.70 178.07 177.49 C 188.36 177.79 197.94 172.59 204.94 165.34 C 208.03 167.45 211.16 169.59 213.76 172.31 C 214.86 173.77 213.61 175.47 212.56 176.52 C 203.75 185.83 190.89 191.38 178.02 190.81 C 162.54 191.28 147.49 182.74 138.96 169.98 C 131.27 158.70 129.09 143.99 132.76 130.89 C 136.35 117.91 145.78 106.74 157.96 101.02 Z" />
<path fill="#a10d59" opacity="1.00" d=" M 0.00 118.01 C 2.44 116.10 8.70 115.58 8.34 119.99 C 8.43 134.51 8.32 149.03 8.38 163.56 C 19.60 163.63 30.84 163.42 42.06 163.63 C 45.51 163.70 45.51 170.77 41.88 170.51 C 28.33 170.65 14.77 170.47 1.22 170.58 C 0.91 170.17 0.30 169.34 0.00 168.93 L 0.00 118.01 Z" />
<path fill="#a10d59" opacity="1.00" d=" M 55.54 168.03 C 64.06 151.00 71.86 133.60 80.77 116.78 C 83.92 116.82 87.08 116.63 90.23 116.88 C 91.59 117.10 91.94 118.62 92.55 119.62 C 99.23 133.52 106.07 147.34 112.75 161.24 C 114.01 164.16 116.47 167.04 115.41 170.42 C 112.80 170.59 110.19 170.63 107.57 170.56 C 105.60 167.07 104.02 163.38 102.24 159.78 C 91.36 159.77 80.48 159.90 69.61 159.72 C 67.44 163.11 66.00 166.89 64.20 170.47 C 61.71 170.60 59.23 170.62 56.75 170.52 C 56.45 169.90 55.84 168.65 55.54 168.03 M 72.15 153.50 C 81.23 153.48 90.32 153.52 99.40 153.47 C 94.87 143.65 90.25 133.86 85.88 123.96 C 81.23 133.77 76.68 143.64 72.15 153.50 Z" />
<path fill="#a10d59" opacity="1.00" d=" M 230.79 120.94 C 230.83 119.49 231.00 117.23 232.77 116.88 C 236.28 116.61 239.81 116.85 243.34 116.76 C 244.78 119.26 244.42 122.20 244.44 124.96 C 244.40 138.63 244.42 152.29 244.44 165.95 C 244.50 167.52 244.06 169.04 243.63 170.53 C 239.64 170.56 235.64 170.58 231.65 170.47 C 231.17 168.67 230.67 166.86 230.76 164.99 C 230.82 150.31 230.75 135.62 230.79 120.94 Z" />
<path fill="#a10d59" opacity="1.00" d=" M 269.09 119.88 C 268.86 118.17 270.12 116.57 271.94 116.81 C 281.30 116.74 290.66 116.78 300.02 116.80 C 307.54 116.79 314.63 121.40 318.09 128.00 C 321.00 133.45 321.25 140.21 318.83 145.89 C 315.89 152.97 308.76 158.27 301.03 158.55 C 294.87 158.79 288.70 158.57 282.53 158.65 C 282.55 162.53 282.63 166.43 282.29 170.31 C 278.08 170.69 273.85 170.62 269.63 170.39 C 269.18 168.29 268.97 166.14 269.02 163.99 C 269.13 149.29 268.97 134.58 269.09 119.88 M 282.53 129.27 C 282.55 134.92 282.51 140.58 282.56 146.24 C 288.37 146.17 294.18 146.32 299.99 146.20 C 305.36 146.21 309.70 139.95 307.57 134.97 C 306.52 131.71 303.35 129.25 299.89 129.31 C 294.11 129.16 288.32 129.32 282.53 129.27 Z" />
<path fill="#a10d59" opacity="1.00" d=" M 327.79 165.96 C 335.85 149.59 343.60 133.06 351.86 116.80 C 356.32 116.77 360.79 116.81 365.25 116.75 C 366.04 117.99 366.78 119.25 367.46 120.56 C 375.15 136.34 382.78 152.15 390.49 167.92 C 390.20 168.57 389.61 169.89 389.31 170.54 C 385.13 170.66 380.94 170.70 376.77 170.47 C 375.42 167.89 374.14 165.28 372.99 162.62 C 363.48 162.55 353.97 162.66 344.47 162.56 C 343.19 165.26 341.87 167.96 340.38 170.55 C 336.08 170.65 331.78 170.71 327.49 170.43 C 327.23 168.94 326.91 167.33 327.79 165.96 M 349.45 151.68 C 355.59 151.68 361.73 151.70 367.87 151.67 C 364.86 145.06 361.68 138.52 358.83 131.84 C 355.35 138.28 352.63 145.09 349.45 151.68 Z" />
<path fill="#a10d59" opacity="1.00" d=" M 393.94 121.11 C 392.99 119.68 392.99 117.44 394.97 116.91 C 398.34 116.64 401.74 116.72 405.12 116.82 C 406.89 116.67 407.70 118.48 408.36 119.79 C 413.88 131.34 419.46 142.85 425.00 154.38 C 430.46 142.82 436.07 131.32 441.59 119.79 C 442.27 118.46 443.08 116.53 444.94 116.81 C 448.75 117.09 453.10 115.77 456.51 117.88 C 456.51 118.38 456.50 119.40 456.49 119.90 C 448.52 136.80 440.15 153.52 432.07 170.37 C 427.40 170.55 422.55 171.14 417.97 170.18 C 409.69 153.98 401.97 137.45 393.94 121.11 Z" />
</g>
<g id="#00a4c4ff">
<path fill="#00a4c4" opacity="1.00" d=" M 85.36 192.42 C 86.99 192.18 88.32 193.50 89.72 194.14 C 140.65 223.41 206.05 225.03 258.51 198.71 C 262.77 196.77 266.64 194.03 270.96 192.24 C 274.12 193.91 275.24 197.92 277.21 200.78 C 278.36 202.24 277.35 204.12 275.80 204.73 C 246.27 221.81 212.15 231.22 177.99 230.70 C 144.15 231.11 110.42 221.68 81.13 204.84 C 79.46 204.19 78.34 202.13 79.65 200.58 C 81.41 197.84 82.70 194.27 85.36 192.42 Z" />
</g>
<g id="#5b5c5ee9">
<path fill="#5b5c5e" opacity="0.91" d=" M 482.38 254.60 C 483.94 254.70 485.51 254.78 487.09 254.87 C 487.19 255.33 487.40 256.23 487.51 256.69 C 485.98 256.85 484.45 257.00 482.93 257.15 C 482.63 258.57 482.36 260.00 482.10 261.43 C 483.64 261.46 485.19 261.48 486.74 261.50 L 486.78 263.48 C 485.26 263.48 483.76 263.49 482.26 263.50 C 482.25 267.87 482.28 272.23 482.23 276.60 C 481.72 276.47 480.71 276.21 480.20 276.07 C 479.80 272.01 480.39 267.91 479.85 263.86 C 479.47 263.67 478.70 263.28 478.32 263.09 C 478.32 262.79 478.32 262.20 478.32 261.90 C 481.34 260.70 479.27 256.13 482.38 254.60 Z" />
<path fill="#5b5c5e" opacity="0.91" d=" M 489.25 255.36 C 489.78 255.44 490.84 255.59 491.37 255.66 C 491.36 256.54 491.35 257.42 491.35 258.31 C 490.82 258.37 489.76 258.50 489.22 258.56 C 489.21 257.49 489.22 256.42 489.25 255.36 Z" />
</g>
<g id="#565658db">
<path fill="#565658" opacity="0.86" d=" M 230.76 255.20 C 231.38 255.19 232.63 255.17 233.25 255.17 C 233.27 262.22 233.27 269.28 233.25 276.34 C 232.62 276.33 231.38 276.32 230.75 276.31 C 230.75 269.27 230.73 262.23 230.76 255.20 Z" />
</g>
<g id="#5b5c5eeb">
<path fill="#5b5c5e" opacity="0.92" d=" M 302.64 255.64 C 303.18 255.58 304.25 255.45 304.78 255.39 C 304.75 256.45 304.74 257.51 304.76 258.57 C 304.23 258.50 303.17 258.37 302.64 258.30 C 302.64 257.41 302.64 256.52 302.64 255.64 Z" />
<path fill="#5b5c5e" opacity="0.92" d=" M 286.80 261.56 C 290.51 262.45 296.26 259.24 298.21 263.80 C 298.91 267.94 298.45 272.17 298.51 276.35 C 297.96 276.36 296.85 276.38 296.30 276.39 C 296.11 272.35 296.64 268.20 295.60 264.25 C 294.11 262.32 291.40 263.69 289.43 263.89 C 289.12 268.01 289.22 272.15 289.23 276.28 C 288.42 276.30 287.61 276.33 286.81 276.37 C 286.79 271.43 286.80 266.49 286.80 261.56 Z" />
</g>
<g id="#626366fd">
<path fill="#626366" opacity="1.00" d=" M 237.32 256.12 C 237.90 256.13 239.06 256.14 239.64 256.14 C 239.62 258.23 239.60 260.32 239.58 262.42 C 239.02 262.42 237.90 262.43 237.34 262.44 C 237.33 260.33 237.32 258.22 237.32 256.12 Z" />
<path fill="#626366" opacity="1.00" d=" M 257.03 261.33 C 257.57 261.39 258.64 261.52 259.17 261.58 C 260.48 265.82 261.47 270.14 262.71 274.40 C 265.86 270.96 265.07 265.51 267.59 261.61 L 269.57 261.32 C 268.20 266.35 266.79 271.36 265.34 276.36 C 263.86 276.33 262.39 276.31 260.92 276.29 C 259.68 271.29 257.83 266.43 257.03 261.33 Z" />
<path fill="#626366" opacity="1.00" d=" M 309.40 261.31 C 310.57 260.99 310.95 262.40 311.67 263.03 C 313.29 262.35 314.92 261.69 316.59 261.13 C 317.86 265.37 310.71 263.18 311.20 266.93 C 310.53 270.24 312.57 274.59 309.68 277.09 C 308.45 271.97 308.63 266.49 309.40 261.31 Z" />
<path fill="#626366" opacity="1.00" d=" M 463.73 261.61 C 466.91 261.86 470.11 261.12 473.28 261.60 C 477.12 265.39 474.79 271.51 475.39 276.31 C 474.87 276.33 473.84 276.38 473.32 276.41 C 473.12 272.09 473.70 267.66 472.38 263.47 C 470.36 263.22 468.25 263.07 466.41 264.13 C 466.00 264.30 465.19 264.64 464.78 264.81 C 464.89 268.57 464.64 272.34 463.96 276.06 C 463.52 271.25 463.78 266.43 463.73 261.61 Z" />
</g>
<g id="#636466ff">
<path fill="#636466" opacity="1.00" d=" M 363.42 257.08 C 363.95 257.08 365.01 257.08 365.54 257.08 C 365.54 258.54 365.54 260.01 365.55 261.49 C 367.14 261.50 368.74 261.52 370.35 261.55 C 370.35 262.02 370.34 262.96 370.34 263.43 C 368.74 263.45 367.14 263.46 365.54 263.48 C 365.69 267.00 365.08 270.64 366.06 274.07 C 367.49 274.52 369.03 274.31 370.52 274.39 C 370.53 274.92 370.55 275.99 370.57 276.52 C 368.61 276.47 366.65 276.46 364.70 276.36 C 362.72 272.36 363.55 267.80 363.44 263.51 C 362.94 263.48 361.94 263.43 361.44 263.40 C 361.43 262.95 361.39 262.05 361.37 261.60 C 361.88 261.56 362.91 261.49 363.42 261.46 C 363.41 259.99 363.41 258.53 363.42 257.08 Z" />
<path fill="#636466" opacity="1.00" d=" M 302.65 261.62 C 303.18 261.56 304.23 261.44 304.76 261.38 C 304.93 266.33 304.77 271.29 304.91 276.24 C 304.16 276.28 303.42 276.32 302.68 276.37 C 302.64 271.45 302.66 266.53 302.65 261.62 Z" />
<path fill="#636466" opacity="1.00" d=" M 340.57 261.52 C 344.13 262.49 349.33 259.51 351.53 263.40 C 352.25 267.89 353.18 273.07 350.90 277.24 C 349.65 273.08 350.31 268.65 349.37 264.44 C 347.81 261.99 344.69 263.65 342.60 264.39 C 342.71 268.38 342.69 272.37 342.61 276.36 C 342.11 276.36 341.09 276.34 340.58 276.34 C 340.53 271.40 340.55 266.46 340.57 261.52 Z" />
<path fill="#636466" opacity="1.00" d=" M 489.22 261.40 C 489.76 261.45 490.82 261.55 491.35 261.60 C 491.34 266.57 491.38 271.54 491.32 276.51 L 489.52 276.29 C 488.66 271.40 489.31 266.35 489.22 261.40 Z" />
<path fill="#636466" opacity="1.00" d=" M 538.42 265.50 C 539.50 260.04 547.99 259.84 550.00 264.75 L 550.00 269.75 C 546.70 269.75 543.41 269.74 540.12 269.76 C 540.58 271.29 541.07 272.81 541.58 274.33 C 544.38 274.37 547.18 274.34 549.99 274.44 C 549.18 277.54 545.26 276.31 542.91 276.51 C 537.77 276.09 537.26 269.38 538.42 265.50 M 541.55 263.45 C 540.99 265.00 540.51 266.58 540.13 268.18 C 542.71 268.21 545.30 268.21 547.90 268.20 C 547.54 266.66 547.75 264.79 546.50 263.61 C 544.96 262.73 543.18 263.36 541.55 263.45 Z" />
</g>
<g id="#606163f7">
<path fill="#606163" opacity="0.97" d=" M 404.66 261.45 C 404.80 259.51 403.88 256.59 406.86 256.79 C 406.88 258.34 406.89 259.90 406.91 261.46 C 408.51 261.48 410.11 261.51 411.72 261.53 C 411.71 262.01 411.70 262.97 411.69 263.45 C 410.09 263.46 408.49 263.48 406.91 263.50 C 406.80 267.10 406.78 270.72 407.53 274.26 C 409.34 274.47 412.63 273.53 411.93 276.56 C 409.71 276.29 406.37 277.45 405.29 274.76 C 404.15 271.15 404.87 267.25 404.73 263.53 C 404.20 263.49 403.15 263.41 402.63 263.38 L 402.62 261.60 C 403.13 261.56 404.15 261.49 404.66 261.45 Z" />
<path fill="#606163" opacity="0.97" d=" M 448.63 263.55 C 450.34 260.37 454.40 261.65 457.30 261.43 C 460.66 264.29 460.86 269.22 459.63 273.17 C 458.26 277.39 451.91 277.64 449.07 274.91 C 446.87 271.67 446.94 266.98 448.63 263.55 M 450.66 264.54 C 449.41 267.41 450.10 270.54 450.47 273.52 C 452.54 274.38 455.53 275.30 457.12 273.12 C 458.09 270.68 458.07 267.88 457.39 265.37 C 456.57 262.56 452.27 262.34 450.66 264.54 Z" />
</g>
<g id="#646466ff">
<path fill="#646466" opacity="1.00" d=" M 272.62 263.51 C 274.27 260.76 277.84 261.20 280.53 261.66 C 283.48 263.22 283.57 266.80 283.52 269.72 C 280.14 269.76 276.76 269.74 273.39 269.79 C 274.01 271.32 273.89 273.63 275.76 274.28 C 278.13 274.54 280.51 274.36 282.89 274.28 C 282.81 274.81 282.64 275.86 282.56 276.39 C 279.24 276.21 274.85 277.73 272.57 274.49 C 270.82 271.14 270.79 266.83 272.62 263.51 M 276.25 263.25 C 274.27 263.69 274.08 266.06 273.14 267.49 C 275.71 268.33 278.41 268.29 281.09 268.23 C 280.88 266.69 280.68 265.17 280.45 263.64 C 279.06 263.48 277.64 262.84 276.25 263.25 Z" />
</g>
<g id="#646567ff">
<path fill="#646567" opacity="1.00" d=" M 375.52 261.66 C 378.26 261.27 381.95 260.64 383.74 263.38 C 385.35 265.94 384.94 269.25 384.64 272.12 C 384.01 278.01 373.81 278.28 372.68 272.55 C 372.01 268.89 371.63 263.69 375.52 261.66 M 375.67 263.62 C 374.24 267.07 374.23 270.91 375.80 274.33 C 377.56 274.36 379.34 274.52 381.10 274.20 C 383.51 271.15 382.79 266.87 381.46 263.51 C 379.54 263.13 377.58 263.20 375.67 263.62 Z" />
</g>
<g id="#646566ff">
<path fill="#646566" opacity="1.00" d=" M 388.33 261.49 C 388.87 261.50 389.95 261.51 390.49 261.52 C 390.62 265.86 389.93 270.37 391.57 274.52 C 393.63 274.38 395.69 274.07 397.70 273.56 C 397.66 269.49 397.67 265.43 397.67 261.36 C 398.11 261.41 399.00 261.51 399.44 261.56 C 400.24 266.54 399.78 271.77 399.54 276.84 C 398.80 276.43 398.09 276.00 397.41 275.53 C 394.69 276.68 390.54 277.54 388.88 274.33 C 387.99 270.12 388.34 265.77 388.33 261.49 Z" />
</g>
<g id="#626365fb">
<path fill="#626365" opacity="1.00" d=" M 416.68 261.49 C 419.19 261.64 422.43 260.57 424.28 262.85 C 426.14 264.75 425.55 267.62 425.71 270.03 L 425.11 269.75 C 424.68 269.55 423.83 269.15 423.40 268.95 C 423.58 267.74 423.91 266.47 423.47 265.29 C 422.24 262.48 418.14 262.37 416.43 264.75 C 415.86 266.49 415.75 268.32 415.82 270.14 C 416.17 271.65 416.29 273.58 418.05 274.15 C 420.63 274.61 423.27 274.30 425.88 274.44 C 424.88 277.32 421.39 276.42 419.01 276.54 C 415.02 276.83 413.30 272.33 413.57 269.02 C 413.29 266.13 414.73 263.51 416.68 261.49 Z" />
<path fill="#626365" opacity="1.00" d=" M 437.79 261.53 C 440.46 261.71 444.17 260.25 445.80 263.15 C 443.50 263.37 441.00 262.78 438.85 263.82 C 436.42 266.35 437.59 270.19 437.78 273.31 C 439.96 274.50 442.45 274.38 444.86 274.29 C 444.86 274.82 444.87 275.87 444.87 276.40 C 441.70 276.48 437.54 277.35 435.69 273.97 C 434.84 270.68 435.20 267.26 435.48 263.93 C 436.24 263.13 437.01 262.33 437.79 261.53 Z" />
<path fill="#626365" opacity="1.00" d=" M 495.55 261.61 C 498.81 261.91 503.64 259.81 505.56 263.40 C 507.22 267.69 505.00 272.74 507.87 276.73 C 506.55 276.35 505.24 275.97 503.93 275.58 C 501.67 276.21 499.32 276.93 496.97 276.38 C 494.38 275.10 494.23 271.62 495.30 269.29 C 497.42 267.00 500.87 267.60 503.69 267.26 C 503.59 266.01 503.49 264.77 503.40 263.54 C 500.77 263.02 498.09 263.22 495.46 263.55 L 495.55 261.61 M 497.43 269.67 C 497.25 271.32 497.30 272.99 497.55 274.64 C 499.59 274.48 501.62 274.23 503.65 273.91 C 503.66 272.23 503.68 270.56 503.69 268.90 C 501.60 269.13 499.51 269.40 497.43 269.67 Z" />
<path fill="#626365" opacity="1.00" d=" M 243.56 261.60 C 246.40 261.49 249.27 261.15 252.10 261.62 C 256.36 264.88 251.56 271.72 255.60 275.07 C 255.59 275.51 255.57 276.38 255.56 276.82 C 254.38 276.42 253.21 276.02 252.04 275.62 C 249.75 276.23 247.36 276.90 244.98 276.38 C 242.40 274.93 241.51 270.83 243.87 268.83 C 246.07 267.03 249.12 267.58 251.75 267.29 C 251.41 265.83 252.09 263.36 249.96 263.23 C 247.82 262.96 245.67 263.39 243.53 263.55 L 243.56 261.60 M 245.47 269.65 C 245.31 271.25 245.32 272.87 245.45 274.48 C 247.45 274.47 249.45 274.33 251.46 274.23 C 251.62 272.45 251.66 270.67 251.79 268.90 C 249.68 269.12 247.57 269.39 245.47 269.65 Z" />
<path fill="#626365" opacity="1.00" d=" M 526.47 263.49 C 528.36 260.27 532.54 261.68 535.56 261.50 L 535.61 263.34 C 533.37 263.32 530.97 262.83 528.90 263.94 C 527.29 266.75 527.47 270.30 528.54 273.26 C 530.47 275.05 533.33 274.11 535.72 274.33 C 535.67 274.85 535.57 275.88 535.52 276.40 C 532.51 276.34 528.60 277.48 526.58 274.53 C 524.97 271.16 524.89 266.88 526.47 263.49 Z" />
</g>
<g id="#616365fb">
<path fill="#616365" opacity="1.00" d=" M 510.35 261.53 C 514.02 262.13 518.23 260.19 521.39 262.79 C 521.95 267.53 523.13 272.69 521.07 277.22 C 518.21 273.26 521.27 267.89 518.86 263.79 C 516.81 262.39 514.52 263.72 512.48 264.36 C 512.54 268.38 512.54 272.39 512.46 276.41 C 511.93 276.39 510.88 276.35 510.35 276.33 C 510.25 271.40 510.25 266.46 510.35 261.53 Z" />
</g>
<g id="#616163f9">
<path fill="#616163" opacity="0.98" d=" M 326.27 274.64 C 323.89 270.54 324.44 264.85 327.91 261.50 C 330.37 261.65 333.42 260.63 335.39 262.58 C 337.38 264.40 336.68 267.35 336.91 269.75 C 333.68 269.78 330.45 269.77 327.23 269.74 C 327.44 271.32 327.53 273.16 329.05 274.11 C 331.59 274.65 334.21 274.30 336.78 274.29 C 336.72 274.79 336.58 275.80 336.52 276.31 C 333.14 276.19 328.71 277.80 326.27 274.64 M 329.40 263.45 C 327.49 264.26 327.37 266.45 327.31 268.23 C 329.71 268.20 332.11 268.20 334.52 268.23 C 334.53 267.01 334.53 265.79 334.54 264.58 C 333.07 263.52 331.20 262.38 329.40 263.45 Z" />
</g>
<g id="#4f4f51cb">
<path fill="#4f4f51" opacity="0.80" d=" M 464.78 264.81 C 465.19 264.64 466.00 264.30 466.41 264.13 C 466.13 268.23 466.22 272.34 466.21 276.45 C 465.56 276.26 464.29 276.56 463.96 276.06 C 464.64 272.34 464.89 268.57 464.78 264.81 Z" />
<path fill="#4f4f51" opacity="0.80" d=" M 415.82 270.14 C 415.75 268.32 415.86 266.49 416.43 264.75 C 416.29 265.51 416.01 267.02 415.87 267.78 C 417.92 267.84 419.97 267.89 422.02 267.95 C 422.52 267.07 423.00 266.18 423.47 265.29 C 423.91 266.47 423.58 267.74 423.40 268.95 C 423.83 269.15 424.68 269.55 425.11 269.75 C 422.01 270.02 418.92 270.10 415.82 270.14 Z" />
</g>
</svg>
