<?xml version="1.0" encoding="UTF-8" ?>
<!DOCTYPE svg PUBLIC "-//W3C//DTD SVG 1.1//EN" "http://www.w3.org/Graphics/SVG/1.1/DTD/svg11.dtd">
<svg width="930pt" height="519pt" viewBox="0 0 930 519" version="1.1" xmlns="http://www.w3.org/2000/svg">
<g id="#ffffffff">
<path fill="#ffffff" opacity="1.00" d=" M 0.00 0.00 L 930.00 0.00 L 930.00 519.00 L 0.00 519.00 L 0.00 0.00 M 246.22 73.87 C 244.44 79.46 242.37 84.96 240.77 90.61 C 243.67 90.21 243.84 87.04 244.79 84.88 C 246.64 84.96 248.51 85.05 250.37 85.14 C 251.26 87.27 251.46 90.38 254.42 90.55 C 252.71 84.94 250.63 79.47 248.81 73.90 C 248.16 73.89 246.87 73.88 246.22 73.87 M 232.35 74.28 C 232.78 79.98 233.44 85.67 234.21 91.34 C 234.67 91.10 235.57 90.60 236.02 90.36 C 235.67 85.22 235.20 80.05 234.25 75.00 L 232.35 74.28 M 260.52 74.48 C 259.89 79.83 259.21 85.18 258.53 90.53 C 261.84 90.94 265.16 91.41 268.51 91.38 C 266.73 88.90 263.45 89.55 260.86 89.00 C 261.48 84.20 262.07 79.39 262.65 74.58 L 260.52 74.48 M 219.26 77.24 C 213.45 80.33 214.43 90.15 220.43 92.43 C 223.70 93.43 227.74 92.72 229.81 89.80 C 227.50 90.15 225.24 90.83 222.90 90.92 C 217.97 90.47 215.99 83.46 218.91 79.90 C 220.74 77.64 223.94 77.90 226.51 77.31 C 224.93 74.70 221.40 76.22 219.26 77.24 M 275.20 76.67 C 274.01 81.93 272.70 87.17 271.38 92.40 C 274.55 93.18 277.70 93.99 280.91 94.58 C 280.25 91.48 276.28 92.15 273.94 91.20 C 274.35 89.34 274.77 87.48 275.17 85.62 C 277.60 85.86 280.37 87.64 282.49 85.75 C 280.26 84.99 277.98 84.36 275.69 83.80 C 276.10 82.16 276.51 80.52 276.92 78.88 C 279.25 79.46 281.59 80.01 283.95 80.47 C 283.02 76.87 277.99 77.94 275.20 76.67 M 201.21 82.23 C 194.80 85.06 196.34 95.16 202.21 97.71 C 206.01 99.45 210.97 96.94 211.97 92.91 C 213.69 86.92 207.68 78.95 201.21 82.23 M 183.72 95.27 C 185.73 99.98 193.36 94.60 194.40 100.02 C 193.93 103.11 190.27 103.25 188.03 104.31 C 191.69 107.54 198.63 101.58 195.62 97.35 C 193.52 93.45 188.25 97.02 185.55 94.31 C 184.05 90.63 189.64 90.66 190.57 87.81 C 186.88 87.93 181.72 90.98 183.72 95.27 M 163.07 105.77 L 161.20 105.91 C 164.56 110.42 168.26 114.67 171.86 118.99 C 174.32 116.90 176.84 114.87 179.24 112.71 C 176.36 111.28 174.48 115.03 172.26 116.23 C 171.07 114.77 169.87 113.31 168.67 111.87 C 170.54 110.24 172.43 108.61 173.89 106.59 C 171.27 106.95 169.39 108.79 167.45 110.39 C 166.38 109.08 165.32 107.78 164.24 106.48 C 166.21 104.80 168.76 103.38 169.36 100.63 C 167.91 101.35 166.64 102.29 165.54 103.47 C 164.91 101.83 164.88 100.05 164.74 98.33 C 163.02 100.44 163.24 103.22 163.07 105.77 M 149.68 118.44 C 149.72 118.91 149.80 119.86 149.84 120.34 C 151.25 119.07 152.61 117.76 153.96 116.43 C 157.34 119.52 160.42 122.98 164.04 125.80 C 164.56 125.67 165.62 125.41 166.14 125.28 C 162.68 121.65 158.94 118.29 155.33 114.81 C 156.43 113.70 157.53 112.59 158.65 111.49 C 158.44 111.08 158.04 110.24 157.84 109.83 C 155.08 112.66 152.05 115.27 149.68 118.44 M 144.20 124.12 C 148.46 127.65 152.74 131.19 157.22 134.43 C 157.56 134.08 158.23 133.39 158.57 133.05 C 154.86 129.82 150.96 126.80 147.04 123.83 C 146.18 122.82 145.12 123.79 144.20 124.12 M 207.13 133.14 C 196.60 132.84 186.04 132.87 175.51 133.18 C 176.42 135.50 179.03 134.86 180.99 134.99 C 189.87 134.90 198.75 134.98 207.63 134.94 C 207.98 135.96 208.26 137.10 209.13 137.82 C 213.20 140.67 218.28 141.66 223.15 140.70 C 222.78 142.56 222.41 144.43 222.00 146.28 C 217.40 145.17 212.84 142.94 208.01 143.80 C 206.06 144.09 203.97 145.30 203.61 147.39 C 202.90 152.65 204.01 158.14 202.20 163.25 C 201.47 165.79 199.67 167.77 198.16 169.88 C 196.75 171.36 195.60 173.06 194.19 174.54 C 195.53 174.53 196.85 174.72 198.16 174.99 C 202.69 177.54 206.03 172.04 209.23 169.64 C 218.23 170.00 227.23 169.54 236.23 169.93 C 236.18 173.20 236.09 176.50 236.46 179.75 C 237.51 183.06 241.52 183.18 244.23 184.38 C 241.70 185.69 239.22 187.15 237.23 189.21 C 231.86 194.58 226.09 199.63 219.62 203.64 C 217.98 204.81 215.89 204.46 214.00 204.55 C 204.34 204.40 194.68 204.70 185.04 204.37 C 186.03 203.30 186.77 201.90 188.11 201.20 C 195.31 197.43 203.37 195.85 210.92 192.98 C 213.30 192.22 213.10 189.31 213.61 187.36 C 209.10 188.10 205.62 191.48 201.05 192.01 C 194.70 193.25 187.18 194.10 181.91 189.48 C 184.43 185.44 186.26 180.28 184.24 175.65 C 180.78 172.21 173.14 172.00 171.19 177.18 C 169.44 181.07 173.07 184.38 173.53 188.07 C 170.66 192.39 164.93 192.94 161.20 196.22 C 159.74 197.51 159.12 199.98 160.56 201.53 C 162.47 203.70 165.34 204.63 167.65 206.30 C 168.00 208.89 166.81 211.46 167.16 214.07 C 167.49 216.15 168.36 218.08 169.06 220.06 C 167.17 220.82 163.64 220.19 163.82 223.07 C 163.55 225.54 163.10 228.53 164.91 230.56 C 167.03 231.12 167.37 229.11 168.03 227.66 C 169.77 227.63 171.93 228.80 173.36 227.32 C 174.88 225.56 175.83 223.41 177.09 221.48 C 178.24 226.46 175.19 230.74 173.38 235.09 C 173.98 238.40 176.80 240.68 179.00 243.02 C 179.49 242.51 180.49 241.48 180.99 240.97 C 185.97 241.55 191.00 241.08 196.00 241.21 C 206.11 241.10 216.23 241.43 226.33 241.08 C 224.69 242.53 223.18 244.24 221.14 245.14 C 217.69 246.59 213.78 246.62 210.45 248.39 C 204.20 251.56 199.75 257.44 193.29 260.25 C 191.12 261.47 187.55 261.16 186.72 263.97 C 187.30 268.22 189.57 272.00 191.78 275.60 C 186.37 275.54 180.94 275.19 175.56 275.87 C 177.35 276.23 179.18 276.44 181.02 276.42 C 219.68 276.44 258.37 276.32 297.05 276.39 C 303.39 276.65 309.74 276.86 316.08 276.60 C 317.27 276.53 318.20 275.97 318.89 274.91 C 315.28 273.19 311.07 272.72 307.94 270.06 C 303.74 266.86 302.14 261.59 300.01 256.99 C 297.88 251.54 295.57 246.11 294.18 240.41 C 290.57 234.93 285.78 230.39 280.87 226.11 C 276.62 222.44 272.14 218.97 267.05 216.54 C 267.75 211.15 268.52 205.73 268.17 200.28 C 269.31 198.69 271.28 197.20 270.83 194.99 C 270.47 193.50 269.81 192.11 269.23 190.70 C 274.02 192.01 278.88 193.50 283.88 193.54 C 291.98 191.81 298.09 185.69 305.47 182.30 C 307.95 181.38 306.82 178.65 306.34 176.80 C 304.86 176.85 303.37 176.90 301.89 176.94 C 300.76 178.76 299.98 181.17 297.63 181.70 C 292.75 183.39 287.90 185.23 282.98 186.80 C 277.17 185.19 272.11 181.39 266.11 180.29 C 263.56 179.90 261.03 180.72 258.48 180.51 C 256.12 178.08 259.91 176.64 261.33 175.13 C 261.43 173.38 261.34 171.63 261.37 169.88 C 263.54 170.47 265.84 170.22 268.07 170.27 C 282.96 170.10 297.86 170.48 312.75 170.07 C 315.61 172.48 315.78 176.59 316.07 180.04 C 316.14 188.45 313.64 196.59 312.83 204.92 C 313.70 211.98 315.24 218.95 316.29 225.99 C 313.35 227.47 310.30 228.84 307.82 231.05 C 312.14 231.75 316.57 231.50 320.90 231.00 C 322.30 229.72 322.09 227.68 322.25 225.97 C 322.51 218.10 322.66 210.07 325.11 202.51 C 326.43 211.19 326.53 220.01 327.98 228.68 C 325.90 230.18 323.85 231.71 321.87 233.33 C 325.87 236.06 331.48 234.07 334.37 230.66 C 336.34 218.87 337.52 206.92 338.11 194.97 C 338.48 189.99 337.05 184.45 340.11 180.05 C 343.10 174.78 348.93 171.11 350.22 164.95 C 348.44 162.30 345.43 160.87 343.08 158.81 C 338.89 155.60 334.67 151.41 329.06 151.29 C 327.64 151.02 325.80 151.52 324.81 150.17 C 324.59 147.79 325.59 145.07 324.01 142.99 C 321.99 139.51 317.31 140.37 314.00 140.87 C 309.86 141.60 310.33 146.71 308.83 149.71 C 309.35 151.53 309.51 153.42 309.59 155.31 C 310.15 155.63 311.26 156.28 311.81 156.61 C 302.40 162.00 290.29 161.98 280.74 156.93 C 278.50 155.62 275.84 156.00 273.38 156.06 C 275.06 157.36 277.00 158.46 277.96 160.45 C 281.10 161.33 284.19 162.39 287.12 163.82 C 294.08 166.95 301.80 167.33 309.18 168.84 C 293.00 168.48 276.80 168.69 260.61 168.73 C 258.43 165.80 259.85 160.66 255.92 159.13 C 251.07 156.68 246.30 160.28 241.83 161.87 C 240.37 164.44 239.41 167.32 237.30 169.48 C 227.88 168.86 218.44 169.44 209.01 169.09 C 206.79 163.32 213.35 159.99 215.48 155.37 C 218.60 157.53 222.01 159.61 225.90 159.86 C 229.96 160.31 234.15 157.42 235.12 153.43 C 236.40 148.98 235.94 144.27 236.89 139.77 C 237.46 137.00 240.33 135.49 243.01 135.78 C 248.52 136.10 253.90 137.53 259.26 138.82 C 261.80 139.39 264.24 140.39 266.41 141.85 C 267.91 141.80 269.41 141.76 270.92 141.72 C 271.34 140.75 271.77 139.79 272.20 138.82 C 267.98 137.13 263.26 136.91 259.30 134.53 C 279.47 134.29 299.64 134.49 319.81 134.43 C 319.79 134.20 319.76 133.74 319.74 133.51 C 299.51 133.56 279.28 133.50 259.05 133.54 C 254.67 133.68 250.65 131.73 246.56 130.48 C 239.34 127.87 231.00 126.46 223.96 130.39 C 221.13 127.77 218.46 123.64 214.01 124.42 C 209.67 124.75 207.15 129.15 207.13 133.14 M 134.57 139.17 C 137.85 141.31 141.15 143.39 144.45 145.50 C 146.12 146.51 147.86 147.83 149.99 147.25 C 148.07 145.10 145.59 143.62 143.21 142.07 C 144.14 141.11 145.05 140.11 146.11 139.29 C 148.57 139.13 150.87 140.34 153.22 140.91 C 153.27 140.42 153.36 139.45 153.41 138.96 C 151.05 137.76 148.41 137.29 145.78 137.23 C 145.37 134.88 143.99 132.28 141.24 132.33 C 137.64 132.63 136.32 136.59 134.57 139.17 M 129.99 148.56 C 133.53 150.15 137.32 151.32 140.56 153.51 C 143.52 155.36 141.54 160.78 138.02 160.02 C 133.81 159.16 130.24 156.48 126.04 155.54 C 126.10 156.03 126.22 157.01 126.28 157.50 C 130.05 159.31 133.84 161.34 137.96 162.18 C 143.04 162.67 145.96 155.02 141.96 151.93 C 138.50 149.43 134.30 148.22 130.49 146.36 C 130.37 146.91 130.12 148.01 129.99 148.56 M 122.09 171.98 C 123.60 178.49 134.06 180.66 137.32 174.43 C 138.27 172.30 139.82 169.04 137.46 167.29 C 136.71 169.95 136.73 173.39 134.10 175.04 C 130.24 177.36 123.80 174.83 123.63 170.00 C 123.84 167.76 124.70 165.66 125.21 163.49 C 122.00 164.85 121.44 168.96 122.09 171.98 M 114.87 181.90 C 114.74 184.31 115.62 186.84 118.43 186.83 C 118.23 187.75 117.82 189.59 117.62 190.52 C 123.01 191.32 128.41 192.03 133.79 192.84 C 134.22 189.88 134.63 186.91 135.05 183.95 C 134.65 183.78 133.84 183.43 133.44 183.25 C 133.04 185.65 132.68 188.05 132.34 190.46 C 130.42 190.19 128.50 189.92 126.59 189.65 C 126.91 187.33 127.19 184.99 127.34 182.66 C 124.74 183.87 125.44 187.14 124.78 189.41 C 123.12 189.17 121.46 188.93 119.81 188.70 C 120.15 186.27 120.49 183.84 120.64 181.40 C 118.36 182.01 118.82 184.64 118.14 186.30 C 117.07 184.81 116.00 183.33 114.87 181.90 M 356.56 192.11 C 356.63 214.06 356.57 236.02 356.59 257.98 C 356.51 263.58 358.01 269.73 362.58 273.38 C 366.94 276.99 372.82 277.47 378.25 277.64 C 378.24 274.07 378.24 270.50 378.25 266.94 C 376.04 266.57 373.53 266.81 371.69 265.33 C 369.54 263.57 369.79 260.50 369.67 258.01 C 369.70 236.05 369.65 214.09 369.70 192.13 C 365.31 192.11 360.94 192.12 356.56 192.11 M 383.08 192.11 C 383.09 196.10 383.09 200.09 383.08 204.09 C 384.35 204.12 385.61 204.16 386.89 204.20 C 385.57 207.34 384.32 210.51 383.06 213.68 C 385.21 213.67 387.36 213.67 389.51 213.66 C 391.27 210.42 393.50 207.41 394.87 203.98 C 395.34 200.04 395.00 196.06 395.08 192.11 C 391.08 192.12 387.08 192.12 383.08 192.11 M 411.85 192.12 C 406.68 220.31 401.47 248.49 396.29 276.68 C 400.98 276.67 405.67 276.68 410.36 276.68 C 411.23 270.22 412.23 263.78 413.11 257.32 C 418.31 257.30 423.51 257.31 428.72 257.30 C 429.65 263.76 430.52 270.22 431.43 276.69 C 436.12 276.67 440.82 276.67 445.52 276.69 C 440.30 248.51 435.08 220.34 429.96 192.14 C 423.92 192.09 417.89 192.12 411.85 192.12 M 125.95 199.02 C 124.27 201.27 123.21 203.98 121.03 205.85 C 118.40 204.31 118.31 201.55 118.92 198.88 L 117.36 198.31 C 116.36 201.62 116.49 206.99 121.01 207.28 C 125.70 207.59 125.00 200.68 129.03 199.97 C 132.80 200.47 131.59 204.86 130.98 207.40 C 131.41 207.53 132.28 207.80 132.71 207.93 C 133.17 205.42 134.15 202.63 132.77 200.23 C 131.55 197.78 127.92 197.10 125.95 199.02 M 604.97 219.07 C 605.03 217.26 605.07 215.46 605.12 213.66 C 600.91 213.68 596.70 213.67 592.49 213.64 C 592.50 234.65 592.52 255.67 592.48 276.68 C 596.86 276.68 601.25 276.68 605.64 276.68 C 605.64 262.46 605.64 248.23 605.64 234.01 C 605.46 231.02 606.65 227.82 609.36 226.29 C 613.45 223.76 618.45 225.23 622.83 226.11 C 622.80 221.53 622.82 216.96 622.81 212.39 C 616.32 212.22 609.02 213.43 604.97 219.07 M 453.66 218.65 C 448.87 224.02 448.51 232.62 452.60 238.49 C 457.35 245.48 465.38 248.96 471.56 254.44 C 474.18 256.70 476.55 260.34 475.06 263.89 C 473.36 267.57 468.25 267.80 465.06 266.06 C 461.79 264.31 461.07 260.39 460.17 257.14 C 456.14 257.78 452.11 258.45 448.07 259.03 C 448.87 263.76 450.34 268.65 453.86 272.10 C 458.50 276.96 465.65 278.34 472.11 277.72 C 477.79 277.25 483.73 274.60 486.51 269.37 C 489.77 263.11 488.93 255.00 484.61 249.44 C 479.84 243.04 472.39 239.63 466.42 234.57 C 464.27 232.72 462.10 230.02 462.87 226.98 C 463.86 223.14 468.93 222.48 472.05 223.92 C 474.77 225.25 475.14 228.54 475.97 231.12 C 479.85 230.74 483.73 230.43 487.61 230.10 C 486.53 224.12 484.04 217.67 478.31 214.74 C 470.45 210.81 459.62 211.79 453.66 218.65 M 497.95 219.00 C 493.39 224.44 493.16 232.93 497.31 238.67 C 502.22 245.86 510.65 249.25 516.81 255.13 C 519.28 257.39 521.03 261.16 519.35 264.39 C 517.29 267.74 512.31 267.71 509.26 265.82 C 506.31 263.95 505.64 260.28 504.77 257.17 C 500.72 257.77 496.67 258.43 492.62 259.04 C 493.48 263.87 495.02 268.85 498.66 272.32 C 503.66 277.34 511.29 278.49 518.05 277.55 C 523.37 276.83 528.74 274.01 531.19 269.04 C 534.17 262.93 533.42 255.16 529.34 249.72 C 524.67 243.25 517.25 239.78 511.25 234.79 C 508.84 232.80 506.42 229.69 507.63 226.40 C 509.00 223.15 513.31 222.65 516.27 223.77 C 519.20 224.92 519.66 228.39 520.47 231.04 C 524.36 230.77 528.24 230.45 532.13 230.09 C 531.04 224.46 528.92 218.39 523.74 215.27 C 515.72 210.58 504.04 211.62 497.95 219.00 M 632.50 217.55 C 628.34 221.24 626.82 226.84 626.23 232.17 C 630.60 232.18 634.97 232.17 639.35 232.19 C 639.61 230.51 639.82 228.81 640.34 227.19 C 642.01 221.98 651.08 221.73 652.77 227.07 C 653.69 230.01 653.34 233.15 653.46 236.19 C 644.02 237.62 633.78 240.90 628.24 249.25 C 623.54 256.47 623.41 267.05 629.34 273.61 C 633.11 277.85 639.31 278.53 644.59 277.45 C 648.23 276.68 651.15 274.21 654.09 272.08 C 654.29 273.60 654.50 275.12 654.71 276.64 C 658.91 276.70 663.11 276.68 667.32 276.68 C 665.92 267.88 666.81 258.93 666.56 250.06 C 666.44 242.28 666.81 234.50 666.38 226.74 C 666.03 220.74 661.83 215.24 655.98 213.66 C 648.20 211.48 638.78 211.95 632.50 217.55 M 682.23 218.23 C 677.92 223.01 676.94 229.75 676.86 235.96 C 676.84 249.54 676.87 263.11 676.85 276.68 C 681.21 276.68 685.58 276.67 689.95 276.69 C 690.02 262.14 689.86 247.58 690.02 233.03 C 689.80 228.83 692.11 223.55 697.01 223.72 C 701.81 223.24 704.61 228.17 704.46 232.41 C 704.60 247.16 704.51 261.92 704.50 276.68 C 708.88 276.68 713.26 276.68 717.64 276.68 C 717.63 263.11 717.66 249.55 717.64 235.98 C 717.58 229.86 716.61 223.28 712.49 218.48 C 708.99 214.24 703.32 212.54 698.00 212.47 C 692.31 212.31 686.10 213.77 682.23 218.23 M 728.84 223.79 C 726.10 231.21 727.11 239.27 726.91 247.01 C 726.95 254.60 726.32 262.81 730.34 269.61 C 733.07 274.46 738.49 277.21 743.91 277.66 C 750.38 278.38 757.74 277.27 762.33 272.23 C 766.49 267.85 767.39 261.58 767.75 255.80 C 763.40 255.80 759.05 255.81 754.71 255.79 C 754.40 259.20 754.53 263.32 751.64 265.73 C 747.82 268.78 741.23 266.64 740.57 261.59 C 739.50 253.80 740.35 245.88 740.06 238.03 C 740.18 234.16 739.59 229.97 741.49 226.42 C 743.75 222.04 751.18 222.18 753.29 226.63 C 754.70 229.49 754.52 232.78 754.68 235.89 C 759.04 235.88 763.41 235.90 767.78 235.87 C 767.53 230.02 766.84 223.74 763.10 218.98 C 758.23 212.65 749.31 211.65 741.95 212.95 C 736.01 213.84 730.83 218.13 728.84 223.79 M 778.70 220.60 C 774.29 227.91 775.36 236.79 775.23 244.94 C 775.39 252.69 774.37 260.92 777.83 268.15 C 780.17 273.29 785.35 276.77 790.90 277.50 C 797.45 278.42 804.96 277.76 809.96 272.96 C 814.37 268.72 815.53 262.42 816.02 256.59 C 811.67 256.55 807.33 256.58 803.00 256.55 C 802.62 259.35 802.67 262.50 800.82 264.83 C 797.78 268.59 790.64 267.60 789.23 262.79 C 787.67 257.89 788.52 252.65 788.36 247.61 C 797.55 247.65 806.75 247.59 815.95 247.64 C 815.61 238.41 817.40 228.22 812.14 220.00 C 808.34 214.00 800.73 212.06 794.04 212.51 C 788.06 212.64 781.75 215.22 778.70 220.60 M 540.19 213.67 C 540.24 227.12 540.20 240.58 540.21 254.03 C 540.23 259.74 540.92 265.80 544.26 270.61 C 547.09 274.77 551.97 277.14 556.89 277.63 C 563.14 278.33 570.21 277.53 574.93 272.95 C 579.65 268.34 580.88 261.39 580.91 255.05 C 580.96 241.25 580.90 227.45 580.94 213.66 C 576.56 213.68 572.18 213.67 567.81 213.67 C 567.84 227.45 567.80 241.24 567.84 255.03 C 567.80 258.14 567.90 261.50 566.22 264.26 C 563.76 268.14 557.08 268.07 554.81 264.04 C 553.28 261.28 553.35 258.02 553.31 254.96 C 553.36 241.20 553.27 227.43 553.36 213.67 C 548.97 213.67 544.58 213.67 540.19 213.67 M 492.41 288.73 C 487.18 291.13 486.91 299.36 492.00 302.09 C 496.62 305.19 503.51 301.49 503.60 295.95 C 504.16 290.27 497.36 285.85 492.41 288.73 M 235.30 288.88 C 235.32 317.09 235.27 345.30 235.32 373.52 C 239.67 373.50 244.02 373.50 248.38 373.51 C 248.36 351.36 248.31 329.21 248.40 307.07 C 253.10 329.16 257.24 351.38 261.73 373.52 C 264.08 373.51 266.43 373.50 268.78 373.49 C 273.22 351.79 277.09 329.95 281.94 308.35 C 282.42 330.05 282.03 351.79 282.14 373.50 C 286.49 373.50 290.85 373.50 295.21 373.52 C 295.20 345.31 295.17 317.10 295.22 288.89 C 288.71 288.88 282.19 288.89 275.68 288.88 C 272.20 305.39 268.84 321.91 265.29 338.40 C 261.53 321.96 258.36 305.38 254.80 288.89 C 248.30 288.89 241.80 288.90 235.30 288.88 M 356.57 288.87 C 356.62 310.90 356.57 332.92 356.59 354.95 C 356.55 360.31 357.91 366.16 362.14 369.80 C 366.50 373.74 372.65 374.33 378.26 374.44 C 378.24 370.88 378.24 367.31 378.25 363.75 C 374.57 363.79 369.68 362.61 369.82 358.01 C 369.48 334.98 369.78 311.92 369.68 288.88 C 365.31 288.89 360.94 288.89 356.57 288.87 M 464.05 288.89 C 464.08 296.26 464.03 303.64 464.08 311.02 C 455.84 307.39 444.42 309.47 439.70 317.65 C 435.42 325.02 436.51 333.86 436.36 342.02 C 436.50 349.91 435.49 358.37 439.31 365.62 C 441.86 370.80 447.39 373.95 453.03 374.46 C 459.50 375.18 466.74 374.26 471.75 369.75 C 475.83 366.03 477.29 360.31 477.25 354.96 C 477.26 332.93 477.21 310.91 477.27 288.88 C 472.86 288.89 468.45 288.89 464.05 288.89 M 312.24 314.21 C 307.95 317.89 306.27 323.59 305.78 329.04 C 310.13 328.93 314.48 328.93 318.84 328.95 C 319.37 326.21 319.41 322.71 322.11 321.09 C 325.20 319.45 330.06 319.54 331.89 322.99 C 333.38 326.10 332.77 329.69 332.95 333.02 C 326.04 334.14 319.00 335.99 313.31 340.25 C 307.12 344.65 303.56 352.40 304.44 359.97 C 304.85 366.32 308.92 372.83 315.43 374.28 C 322.02 376.01 328.73 373.35 333.56 368.86 C 333.79 370.39 334.03 371.94 334.27 373.48 C 338.44 373.51 342.61 373.49 346.79 373.53 C 345.58 366.08 346.22 358.52 346.07 351.01 C 345.95 341.99 346.30 332.96 345.90 323.95 C 345.71 317.85 341.51 312.11 335.55 310.51 C 327.83 308.32 318.55 308.76 312.24 314.21 M 391.39 314.33 C 387.19 317.98 385.63 323.57 385.02 328.90 C 389.39 328.97 393.77 328.94 398.15 328.95 C 398.66 326.23 398.68 322.81 401.31 321.18 C 404.36 319.40 409.27 319.51 411.14 322.93 C 412.67 326.05 412.12 329.67 412.25 333.03 C 405.04 334.18 397.67 336.15 391.88 340.81 C 385.51 345.65 382.42 354.17 384.00 361.99 C 385.00 368.77 390.83 374.81 397.93 374.71 C 403.62 375.36 408.69 372.42 412.87 368.89 C 413.09 370.43 413.32 371.97 413.56 373.51 C 417.72 373.50 421.88 373.49 426.04 373.53 C 425.68 370.70 425.32 367.86 425.33 365.00 C 425.27 351.67 425.41 338.34 425.27 325.01 C 425.34 318.77 421.47 312.55 415.37 310.70 C 407.49 308.26 397.83 308.65 391.39 314.33 M 524.20 311.10 C 519.63 312.99 516.33 317.21 514.95 321.90 C 512.83 328.73 513.67 335.97 513.50 343.01 C 513.60 350.79 512.73 359.17 516.74 366.21 C 519.39 371.03 524.67 373.90 530.04 374.45 C 536.43 375.22 543.69 374.32 548.44 369.57 C 552.69 365.33 553.76 359.14 554.34 353.42 C 549.99 353.35 545.65 353.40 541.30 353.34 C 540.92 355.79 540.94 358.41 539.75 360.65 C 537.47 365.24 529.59 364.97 527.72 360.15 C 525.84 355.15 526.89 349.66 526.61 344.45 C 535.83 344.43 545.04 344.43 554.26 344.46 C 554.00 336.29 555.24 327.70 552.06 319.94 C 550.16 315.07 545.83 311.34 540.76 310.12 C 535.32 308.83 529.40 308.93 524.20 311.10 M 489.37 373.52 C 493.75 373.49 498.13 373.50 502.51 373.50 C 502.47 352.48 502.48 331.46 502.51 310.44 C 498.12 310.46 493.74 310.46 489.36 310.44 C 489.35 331.47 489.35 352.49 489.37 373.52 M 357.85 430.97 C 354.24 437.75 354.25 446.81 358.83 453.14 C 362.99 458.77 371.17 459.83 377.35 457.31 C 381.29 455.65 383.36 451.66 384.78 447.86 C 382.59 447.15 380.41 446.45 378.23 445.73 C 377.13 447.96 376.35 450.70 374.00 451.95 C 370.12 454.11 364.56 452.08 363.25 447.76 C 361.90 443.23 361.78 438.06 363.76 433.70 C 365.64 429.59 371.44 428.47 375.01 430.99 C 376.43 432.08 377.14 433.79 378.09 435.26 C 380.28 434.73 382.48 434.19 384.67 433.64 C 383.50 430.92 382.26 427.98 379.65 426.34 C 372.80 421.76 361.91 423.42 357.85 430.97 M 419.19 424.39 C 419.19 426.38 419.18 428.38 419.19 430.38 C 421.34 430.36 423.49 430.36 425.65 430.37 C 425.64 428.37 425.64 426.38 425.65 424.40 C 423.49 424.39 421.34 424.39 419.19 424.39 M 531.07 424.38 C 531.06 435.62 531.04 446.87 531.08 458.11 C 533.16 458.11 535.24 458.10 537.33 458.11 C 537.30 450.69 537.35 443.27 537.30 435.85 C 541.76 443.33 546.38 450.72 550.92 458.15 C 553.17 458.11 555.42 458.08 557.69 458.06 C 557.66 446.83 557.70 435.60 557.66 424.38 C 555.56 424.38 553.46 424.39 551.36 424.40 C 551.37 431.94 551.35 439.48 551.38 447.02 C 546.76 439.50 542.21 431.94 537.61 424.41 C 535.43 424.39 533.25 424.39 531.07 424.38 M 712.75 424.42 C 712.84 435.65 712.79 446.88 712.78 458.11 C 714.93 458.10 717.09 458.09 719.26 458.09 C 719.25 446.86 719.23 435.63 719.28 424.40 C 717.10 424.40 714.92 424.41 712.75 424.42 M 610.60 424.39 C 610.59 426.37 610.59 428.37 610.59 430.36 C 612.74 430.36 614.91 430.36 617.08 430.38 C 617.08 428.38 617.07 426.39 617.08 424.41 C 614.92 424.40 612.75 424.39 610.60 424.39 M 593.85 428.88 C 593.85 430.49 593.86 432.10 593.88 433.71 C 593.12 433.71 591.62 433.70 590.86 433.70 C 590.86 435.40 590.87 437.11 590.88 438.83 C 591.62 438.82 593.11 438.80 593.86 438.79 C 594.12 444.39 593.24 450.13 594.50 455.64 C 596.45 459.72 601.76 458.40 605.33 457.99 C 605.15 456.23 604.93 454.48 604.77 452.73 C 603.40 452.95 602.01 453.14 600.66 453.35 C 600.18 448.52 600.37 443.67 600.36 438.83 C 601.83 438.83 603.30 438.83 604.79 438.84 C 604.75 437.21 604.77 435.58 604.63 433.96 C 603.29 433.56 601.73 433.83 600.33 433.56 C 600.35 430.73 600.35 427.89 600.37 425.06 C 598.19 426.34 596.03 427.62 593.85 428.88 M 396.54 433.75 C 393.58 434.47 391.54 437.04 390.79 439.87 C 392.56 440.42 394.37 440.80 396.18 441.24 C 397.89 436.91 405.57 436.77 405.66 442.18 C 401.66 443.37 397.36 443.61 393.58 445.44 C 389.15 447.52 388.98 454.46 392.92 457.11 C 396.82 459.71 402.13 458.66 405.57 455.75 C 406.25 459.25 410.24 457.78 412.75 458.20 C 410.64 452.02 412.07 445.47 411.41 439.12 C 411.21 437.00 409.86 435.01 407.84 434.24 C 404.28 432.83 400.22 432.87 396.54 433.75 M 436.02 434.84 C 431.94 437.11 431.75 443.88 435.94 446.15 C 439.63 448.84 445.07 447.88 448.42 450.91 C 447.40 455.79 439.33 454.61 438.10 450.16 C 435.96 450.50 433.83 450.84 431.72 451.22 C 434.28 458.71 443.85 460.13 450.32 457.25 C 454.46 455.45 456.42 449.40 453.05 446.01 C 449.26 442.63 443.71 443.09 439.38 440.82 C 439.27 440.22 439.04 439.02 438.93 438.43 C 442.25 437.48 446.27 437.21 448.26 440.61 C 450.25 440.26 452.24 439.89 454.24 439.52 C 452.95 437.33 451.67 434.80 449.04 434.03 C 444.85 432.74 439.93 432.65 436.02 434.84 M 463.69 434.75 C 459.93 436.75 459.21 442.71 462.51 445.46 C 466.25 448.51 471.43 448.20 475.61 450.25 C 476.37 451.65 475.37 453.14 473.98 453.57 C 470.63 454.90 467.02 453.43 465.56 450.19 C 463.47 450.49 461.38 450.81 459.30 451.15 C 461.71 458.86 471.68 460.17 478.11 457.12 C 482.01 455.26 483.81 449.58 480.77 446.21 C 476.82 442.27 470.41 443.44 466.16 440.13 C 467.78 436.19 473.98 437.35 475.87 440.67 C 477.86 440.26 479.86 439.84 481.85 439.39 C 480.40 437.17 478.91 434.58 476.15 433.87 C 472.10 432.80 467.46 432.71 463.69 434.75 M 491.41 435.36 C 486.33 439.66 485.80 447.69 488.72 453.36 C 491.47 458.72 498.64 459.58 503.80 457.68 C 506.65 456.65 508.22 453.93 509.63 451.44 C 507.54 451.07 505.45 450.72 503.37 450.39 C 502.09 452.05 500.58 454.29 498.12 453.65 C 495.02 453.46 494.00 450.22 493.19 447.77 C 498.75 447.66 504.31 447.78 509.88 447.68 C 509.56 444.49 509.40 441.14 507.74 438.31 C 504.75 432.59 496.29 431.57 491.41 435.36 M 564.88 440.00 C 566.75 440.36 568.61 440.71 570.49 441.06 C 571.98 438.96 574.27 437.40 576.96 438.22 C 579.21 438.20 579.39 440.59 579.91 442.22 C 575.80 443.45 571.32 443.61 567.50 445.69 C 563.06 448.22 563.63 455.71 568.29 457.71 C 572.30 459.61 576.91 458.22 580.27 455.63 C 580.41 456.24 580.70 457.48 580.85 458.10 C 582.92 458.10 584.99 458.11 587.08 458.14 C 584.70 451.43 586.87 444.20 585.35 437.40 C 583.09 432.54 576.58 432.94 572.10 433.45 C 568.44 433.77 566.18 436.87 564.88 440.00 M 632.44 433.58 C 624.52 435.36 621.43 445.28 624.81 452.11 C 628.45 459.93 640.87 460.85 645.92 454.00 C 649.95 448.87 649.49 440.69 644.62 436.26 C 641.39 433.27 636.60 432.59 632.44 433.58 M 660.93 437.15 C 661.00 436.29 661.14 434.57 661.21 433.71 C 659.16 433.70 657.13 433.70 655.10 433.70 C 655.12 441.84 655.08 449.99 655.12 458.14 C 657.25 458.11 659.39 458.08 661.54 458.06 C 661.66 452.69 661.13 447.27 661.90 441.94 C 662.38 438.06 669.00 436.35 670.36 440.46 C 671.31 446.27 670.59 452.23 670.78 458.11 C 672.94 458.10 675.10 458.10 677.27 458.10 C 677.07 451.72 677.64 445.29 676.93 438.93 C 676.49 434.72 671.74 432.65 667.96 433.23 C 665.10 433.34 662.99 435.43 660.93 437.15 M 684.18 440.04 C 686.05 440.38 687.93 440.70 689.83 441.03 C 691.80 436.93 699.13 436.89 699.33 442.14 C 695.17 443.46 690.61 443.58 686.74 445.69 C 682.57 448.12 682.78 454.96 686.89 457.35 C 690.91 459.72 695.99 458.42 699.47 455.65 C 699.64 456.26 699.98 457.48 700.14 458.09 C 702.21 458.10 704.28 458.11 706.36 458.14 C 703.90 451.42 706.27 444.14 704.58 437.33 C 702.39 432.69 696.22 432.98 691.90 433.36 C 688.07 433.58 685.38 436.62 684.18 440.04 M 727.42 438.36 C 724.54 443.73 724.76 451.30 729.16 455.81 C 734.92 460.85 745.43 459.04 748.18 451.50 C 746.09 451.10 744.00 450.72 741.91 450.35 C 740.65 451.95 739.34 454.21 736.93 453.68 C 733.75 453.59 732.53 450.34 731.80 447.77 C 737.34 447.68 742.89 447.75 748.44 447.71 C 748.08 444.16 747.88 440.35 745.71 437.37 C 741.52 431.33 730.88 431.77 727.42 438.36 M 419.18 433.72 C 419.22 441.85 419.19 449.98 419.20 458.11 C 421.35 458.09 423.50 458.08 425.65 458.07 C 425.62 449.94 425.67 441.81 425.62 433.68 C 423.47 433.70 421.32 433.71 419.18 433.72 M 610.58 433.71 C 610.61 441.84 610.60 449.97 610.59 458.10 C 612.75 458.09 614.91 458.09 617.08 458.10 C 617.06 449.97 617.06 441.84 617.08 433.71 C 614.91 433.71 612.74 433.71 610.58 433.71 Z" />
<path fill="#ffffff" opacity="1.00" d=" M 201.32 84.15 C 208.08 80.11 213.80 93.29 206.93 96.13 C 200.73 98.13 196.23 87.73 201.32 84.15 Z" />
<path fill="#ffffff" opacity="1.00" d=" M 187.10 223.10 C 187.44 217.12 185.24 211.38 185.11 205.43 C 195.74 205.36 206.36 205.41 216.99 205.40 C 210.96 209.03 204.75 212.85 197.49 213.12 C 197.99 213.61 198.98 214.61 199.48 215.10 C 198.02 215.65 196.57 216.21 195.12 216.79 C 197.28 217.68 199.57 219.13 201.99 218.28 C 205.13 217.19 207.77 215.03 210.87 213.83 C 216.82 211.38 222.73 208.82 228.39 205.74 C 235.21 206.00 242.04 205.99 248.86 205.82 C 246.85 209.16 244.13 212.26 243.39 216.20 C 242.81 218.86 243.38 221.57 243.82 224.21 C 239.66 230.48 233.21 234.58 227.84 239.71 C 212.07 239.53 196.31 239.62 180.54 239.66 C 180.16 238.14 179.17 236.64 179.53 235.05 C 181.20 230.54 186.67 228.17 187.10 223.10 Z" />
<path fill="#ffffff" opacity="1.00" d=" M 414.90 246.22 C 416.91 233.72 418.73 221.18 420.91 208.70 C 423.02 221.20 424.97 233.72 426.99 246.24 C 422.96 246.22 418.93 246.22 414.90 246.22 Z" />
<path fill="#ffffff" opacity="1.00" d=" M 789.66 226.58 C 791.81 222.07 799.35 222.10 801.52 226.59 C 803.14 229.73 802.72 233.40 802.90 236.82 C 798.01 236.83 793.13 236.84 788.26 236.81 C 788.42 233.39 788.05 229.74 789.66 226.58 Z" />
<path fill="#ffffff" opacity="1.00" d=" M 230.81 252.81 C 238.50 249.76 245.90 245.99 252.73 241.33 C 260.85 241.04 268.99 241.31 277.12 241.16 C 279.55 241.69 281.93 242.65 284.03 243.99 C 285.59 246.85 285.16 250.45 286.72 253.37 C 289.99 259.72 295.60 264.41 299.67 270.19 C 299.90 271.97 299.70 273.77 299.69 275.56 C 266.04 275.46 232.40 275.48 198.75 275.55 C 194.45 273.36 193.70 266.61 198.03 264.08 C 207.93 257.83 219.91 256.56 230.81 252.81 Z" />
<path fill="#ffffff" opacity="1.00" d=" M 638.89 253.92 C 641.72 248.71 648.16 247.69 653.36 246.30 C 653.35 251.16 653.35 256.02 653.36 260.88 C 650.43 263.74 647.01 267.66 642.41 266.48 C 637.18 265.00 636.85 258.06 638.89 253.92 Z" />
<path fill="#ffffff" opacity="1.00" d=" M 528.08 323.15 C 530.39 318.97 537.60 319.00 539.74 323.33 C 541.39 326.49 541.01 330.21 541.22 333.66 C 536.33 333.68 531.44 333.68 526.55 333.67 C 526.73 330.16 526.28 326.34 528.08 323.15 Z" />
<path fill="#ffffff" opacity="1.00" d=" M 453.40 321.34 C 456.86 319.62 461.83 320.93 463.09 324.84 C 464.67 330.08 463.83 335.65 464.03 341.04 C 463.83 346.88 464.57 352.82 463.44 358.59 C 462.40 364.04 454.05 365.06 451.19 360.65 C 449.35 357.82 449.50 354.28 449.45 351.05 C 449.52 344.00 449.38 336.95 449.51 329.91 C 449.60 326.74 450.30 322.93 453.40 321.34 Z" />
<path fill="#ffffff" opacity="1.00" d=" M 318.19 351.24 C 320.78 345.64 327.52 344.56 332.86 343.15 C 332.89 348.01 332.88 352.88 332.86 357.75 C 329.95 360.58 326.60 364.42 322.05 363.34 C 316.89 362.06 316.39 355.36 318.19 351.24 Z" />
<path fill="#ffffff" opacity="1.00" d=" M 397.70 350.74 C 400.54 345.53 406.98 344.52 412.19 343.14 C 412.01 347.99 412.61 352.91 411.90 357.72 C 409.36 361.00 405.39 364.52 400.90 363.23 C 395.92 361.50 395.73 354.80 397.70 350.74 Z" />
<path fill="#ffffff" opacity="1.00" d=" M 633.29 439.15 C 636.52 437.10 641.05 439.41 641.68 443.07 C 642.94 447.21 641.17 453.47 635.98 453.36 C 629.17 453.08 628.15 442.36 633.29 439.15 Z" />
<path fill="#ffffff" opacity="1.00" d=" M 396.51 449.94 C 398.52 447.09 402.47 447.36 405.47 446.39 C 405.03 448.70 405.57 451.88 403.07 453.17 C 400.50 455.13 395.92 453.62 396.51 449.94 Z" />
</g>
<g id="#025da8ff">
<path fill="#025da8" opacity="1.00" d=" M 246.22 73.87 C 246.87 73.88 248.16 73.89 248.81 73.90 C 250.63 79.47 252.71 84.94 254.42 90.55 C 251.46 90.38 251.26 87.27 250.37 85.14 C 248.51 85.05 246.64 84.96 244.79 84.88 C 243.84 87.04 243.67 90.21 240.77 90.61 C 242.37 84.96 244.44 79.46 246.22 73.87 M 247.41 75.67 C 246.70 78.26 245.90 80.83 245.08 83.39 C 246.68 83.37 248.29 83.36 249.90 83.35 C 249.02 80.81 248.18 78.25 247.41 75.67 Z" />
<path fill="#025da8" opacity="1.00" d=" M 129.99 148.56 C 130.12 148.01 130.37 146.91 130.49 146.36 C 134.30 148.22 138.50 149.43 141.96 151.93 C 145.96 155.02 143.04 162.67 137.96 162.18 C 133.84 161.34 130.05 159.31 126.28 157.50 C 126.22 157.01 126.10 156.03 126.04 155.54 C 130.24 156.48 133.81 159.16 138.02 160.02 C 141.54 160.78 143.52 155.36 140.56 153.51 C 137.32 151.32 133.53 150.15 129.99 148.56 Z" />
<path fill="#025da8" opacity="1.00" d=" M 122.09 171.98 C 121.44 168.96 122.00 164.85 125.21 163.49 C 124.70 165.66 123.84 167.76 123.63 170.00 C 123.80 174.83 130.24 177.36 134.10 175.04 C 136.73 173.39 136.71 169.95 137.46 167.29 C 139.82 169.04 138.27 172.30 137.32 174.43 C 134.06 180.66 123.60 178.49 122.09 171.98 Z" />
<path fill="#025da8" opacity="1.00" d=" M 463.69 434.75 C 467.46 432.71 472.10 432.80 476.15 433.87 C 478.91 434.58 480.40 437.17 481.85 439.39 C 479.86 439.84 477.86 440.26 475.87 440.67 C 473.98 437.35 467.78 436.19 466.16 440.13 C 470.41 443.44 476.82 442.27 480.77 446.21 C 483.81 449.58 482.01 455.26 478.11 457.12 C 471.68 460.17 461.71 458.86 459.30 451.15 C 461.38 450.81 463.47 450.49 465.56 450.19 C 467.02 453.43 470.63 454.90 473.98 453.57 C 475.37 453.14 476.37 451.65 475.61 450.25 C 471.43 448.20 466.25 448.51 462.51 445.46 C 459.21 442.71 459.93 436.75 463.69 434.75 Z" />
</g>
<g id="#035caaff">
<path fill="#035caa" opacity="1.00" d=" M 232.35 74.28 L 234.25 75.00 C 235.20 80.05 235.67 85.22 236.02 90.36 C 235.57 90.60 234.67 91.10 234.21 91.34 C 233.44 85.67 232.78 79.98 232.35 74.28 Z" />
<path fill="#035caa" opacity="1.00" d=" M 219.26 77.24 C 221.40 76.22 224.93 74.70 226.51 77.31 C 223.94 77.90 220.74 77.64 218.91 79.90 C 215.99 83.46 217.97 90.47 222.90 90.92 C 225.24 90.83 227.50 90.15 229.81 89.80 C 227.74 92.72 223.70 93.43 220.43 92.43 C 214.43 90.15 213.45 80.33 219.26 77.24 Z" />
</g>
<g id="#015eaeff">
<path fill="#015eae" opacity="1.00" d=" M 260.52 74.48 L 262.65 74.58 C 262.07 79.39 261.48 84.20 260.86 89.00 C 263.45 89.55 266.73 88.90 268.51 91.38 C 265.16 91.41 261.84 90.94 258.53 90.53 C 259.21 85.18 259.89 79.83 260.52 74.48 Z" />
</g>
<g id="#fffefaff">
<path fill="#fffefa" opacity="1.00" d=" M 247.41 75.67 C 248.18 78.25 249.02 80.81 249.90 83.35 C 248.29 83.36 246.68 83.37 245.08 83.39 C 245.90 80.83 246.70 78.26 247.41 75.67 Z" />
</g>
<g id="#045da6ff">
<path fill="#045da6" opacity="1.00" d=" M 275.20 76.67 C 277.99 77.94 283.02 76.87 283.95 80.47 C 281.59 80.01 279.25 79.46 276.92 78.88 C 276.51 80.52 276.10 82.16 275.69 83.80 C 277.98 84.36 280.26 84.99 282.49 85.75 C 280.37 87.64 277.60 85.86 275.17 85.62 C 274.77 87.48 274.35 89.34 273.94 91.20 C 276.28 92.15 280.25 91.48 280.91 94.58 C 277.70 93.99 274.55 93.18 271.38 92.40 C 272.70 87.17 274.01 81.93 275.20 76.67 Z" />
<path fill="#045da6" opacity="1.00" d=" M 201.21 82.23 C 207.68 78.95 213.69 86.92 211.97 92.91 C 210.97 96.94 206.01 99.45 202.21 97.71 C 196.34 95.16 194.80 85.06 201.21 82.23 M 201.32 84.15 C 196.23 87.73 200.73 98.13 206.93 96.13 C 213.80 93.29 208.08 80.11 201.32 84.15 Z" />
<path fill="#045da6" opacity="1.00" d=" M 183.72 95.27 C 181.72 90.98 186.88 87.93 190.57 87.81 C 189.64 90.66 184.05 90.63 185.55 94.31 C 188.25 97.02 193.52 93.45 195.62 97.35 C 198.63 101.58 191.69 107.54 188.03 104.31 C 190.27 103.25 193.93 103.11 194.40 100.02 C 193.36 94.60 185.73 99.98 183.72 95.27 Z" />
<path fill="#045da6" opacity="1.00" d=" M 163.07 105.77 C 163.24 103.22 163.02 100.44 164.74 98.33 C 164.88 100.05 164.91 101.83 165.54 103.47 C 166.64 102.29 167.91 101.35 169.36 100.63 C 168.76 103.38 166.21 104.80 164.24 106.48 C 165.32 107.78 166.38 109.08 167.45 110.39 C 169.39 108.79 171.27 106.95 173.89 106.59 C 172.43 108.61 170.54 110.24 168.67 111.87 C 169.87 113.31 171.07 114.77 172.26 116.23 C 174.48 115.03 176.36 111.28 179.24 112.71 C 176.84 114.87 174.32 116.90 171.86 118.99 C 168.26 114.67 164.56 110.42 161.20 105.91 L 163.07 105.77 Z" />
<path fill="#045da6" opacity="1.00" d=" M 149.68 118.44 C 152.05 115.27 155.08 112.66 157.84 109.83 C 158.04 110.24 158.44 111.08 158.65 111.49 C 157.53 112.59 156.43 113.70 155.33 114.81 C 158.94 118.29 162.68 121.65 166.14 125.28 C 165.62 125.41 164.56 125.67 164.04 125.80 C 160.42 122.98 157.34 119.52 153.96 116.43 C 152.61 117.76 151.25 119.07 149.84 120.34 C 149.80 119.86 149.72 118.91 149.68 118.44 Z" />
<path fill="#045da6" opacity="1.00" d=" M 144.20 124.12 C 145.12 123.79 146.18 122.82 147.04 123.83 C 150.96 126.80 154.86 129.82 158.57 133.05 C 158.23 133.39 157.56 134.08 157.22 134.43 C 152.74 131.19 148.46 127.65 144.20 124.12 Z" />
<path fill="#045da6" opacity="1.00" d=" M 114.87 181.90 C 116.00 183.33 117.07 184.81 118.14 186.30 C 118.82 184.64 118.36 182.01 120.64 181.40 C 120.49 183.84 120.15 186.27 119.81 188.70 C 121.46 188.93 123.12 189.17 124.78 189.41 C 125.44 187.14 124.74 183.87 127.34 182.66 C 127.19 184.99 126.91 187.33 126.59 189.65 C 128.50 189.92 130.42 190.19 132.34 190.46 C 132.68 188.05 133.04 185.65 133.44 183.25 C 133.84 183.43 134.65 183.78 135.05 183.95 C 134.63 186.91 134.22 189.88 133.79 192.84 C 128.41 192.03 123.01 191.32 117.62 190.52 C 117.82 189.59 118.23 187.75 118.43 186.83 C 115.62 186.84 114.74 184.31 114.87 181.90 Z" />
<path fill="#045da6" opacity="1.00" d=" M 125.95 199.02 C 127.92 197.10 131.55 197.78 132.77 200.23 C 134.15 202.63 133.17 205.42 132.71 207.93 C 132.28 207.80 131.41 207.53 130.98 207.40 C 131.59 204.86 132.80 200.47 129.03 199.97 C 125.00 200.68 125.70 207.59 121.01 207.28 C 116.49 206.99 116.36 201.62 117.36 198.31 L 118.92 198.88 C 118.31 201.55 118.40 204.31 121.03 205.85 C 123.21 203.98 124.27 201.27 125.95 199.02 Z" />
</g>
<g id="#015da8ff">
<path fill="#015da8" opacity="1.00" d=" M 207.13 133.14 C 207.15 129.15 209.67 124.75 214.01 124.42 C 218.46 123.64 221.13 127.77 223.96 130.39 C 231.00 126.46 239.34 127.87 246.56 130.48 C 250.65 131.73 254.67 133.68 259.05 133.54 C 279.28 133.50 299.51 133.56 319.74 133.51 C 319.76 133.74 319.79 134.20 319.81 134.43 C 299.64 134.49 279.47 134.29 259.30 134.53 C 263.26 136.91 267.98 137.13 272.20 138.82 C 271.77 139.79 271.34 140.75 270.92 141.72 C 269.41 141.76 267.91 141.80 266.41 141.85 C 264.24 140.39 261.80 139.39 259.26 138.82 C 253.90 137.53 248.52 136.10 243.01 135.78 C 240.33 135.49 237.46 137.00 236.89 139.77 C 235.94 144.27 236.40 148.98 235.12 153.43 C 234.15 157.42 229.96 160.31 225.90 159.86 C 222.01 159.61 218.60 157.53 215.48 155.37 C 213.35 159.99 206.79 163.32 209.01 169.09 C 218.44 169.44 227.88 168.86 237.30 169.48 C 239.41 167.32 240.37 164.44 241.83 161.87 C 246.30 160.28 251.07 156.68 255.92 159.13 C 259.85 160.66 258.43 165.80 260.61 168.73 L 261.37 169.88 C 261.34 171.63 261.43 173.38 261.33 175.13 C 259.91 176.64 256.12 178.08 258.48 180.51 C 261.03 180.72 263.56 179.90 266.11 180.29 C 272.11 181.39 277.17 185.19 282.98 186.80 C 287.90 185.23 292.75 183.39 297.63 181.70 C 299.98 181.17 300.76 178.76 301.89 176.94 C 303.37 176.90 304.86 176.85 306.34 176.80 C 306.82 178.65 307.95 181.38 305.47 182.30 C 298.09 185.69 291.98 191.81 283.88 193.54 C 278.88 193.50 274.02 192.01 269.23 190.70 C 269.81 192.11 270.47 193.50 270.83 194.99 C 271.28 197.20 269.31 198.69 268.17 200.28 C 268.52 205.73 267.75 211.15 267.05 216.54 C 272.14 218.97 276.62 222.44 280.87 226.11 C 285.78 230.39 290.57 234.93 294.18 240.41 C 295.57 246.11 297.88 251.54 300.01 256.99 C 302.14 261.59 303.74 266.86 307.94 270.06 C 311.07 272.72 315.28 273.19 318.89 274.91 C 318.20 275.97 317.27 276.53 316.08 276.60 C 309.74 276.86 303.39 276.65 297.05 276.39 C 258.37 276.32 219.68 276.44 181.02 276.42 C 179.18 276.44 177.35 276.23 175.56 275.87 C 180.94 275.19 186.37 275.54 191.78 275.60 C 189.57 272.00 187.30 268.22 186.72 263.97 C 187.55 261.16 191.12 261.47 193.29 260.25 C 199.75 257.44 204.20 251.56 210.45 248.39 C 213.78 246.62 217.69 246.59 221.14 245.14 C 223.18 244.24 224.69 242.53 226.33 241.08 C 226.71 240.73 227.46 240.05 227.84 239.71 C 233.21 234.58 239.66 230.48 243.82 224.21 C 243.38 221.57 242.81 218.86 243.39 216.20 C 244.13 212.26 246.85 209.16 248.86 205.82 C 248.75 205.37 248.53 204.48 248.42 204.04 C 247.70 201.29 246.50 198.70 245.15 196.21 C 241.00 198.32 237.03 200.75 233.19 203.38 C 231.54 204.08 229.97 204.92 228.39 205.74 C 222.73 208.82 216.82 211.38 210.87 213.83 C 207.77 215.03 205.13 217.19 201.99 218.28 C 199.57 219.13 197.28 217.68 195.12 216.79 C 196.57 216.21 198.02 215.65 199.48 215.10 C 198.98 214.61 197.99 213.61 197.49 213.12 C 204.75 212.85 210.96 209.03 216.99 205.40 C 206.36 205.41 195.74 205.36 185.11 205.43 C 185.24 211.38 187.44 217.12 187.10 223.10 C 186.67 228.17 181.20 230.54 179.53 235.05 C 179.17 236.64 180.16 238.14 180.54 239.66 L 180.99 240.97 C 180.49 241.48 179.49 242.51 179.00 243.02 C 176.80 240.68 173.98 238.40 173.38 235.09 C 175.19 230.74 178.24 226.46 177.09 221.48 C 175.83 223.41 174.88 225.56 173.36 227.32 C 171.93 228.80 169.77 227.63 168.03 227.66 C 167.37 229.11 167.03 231.12 164.91 230.56 C 163.10 228.53 163.55 225.54 163.82 223.07 C 163.64 220.19 167.17 220.82 169.06 220.06 C 168.36 218.08 167.49 216.15 167.16 214.07 C 166.81 211.46 168.00 208.89 167.65 206.30 C 165.34 204.63 162.47 203.70 160.56 201.53 C 159.12 199.98 159.74 197.51 161.20 196.22 C 164.93 192.94 170.66 192.39 173.53 188.07 C 173.07 184.38 169.44 181.07 171.19 177.18 C 173.14 172.00 180.78 172.21 184.24 175.65 C 186.26 180.28 184.43 185.44 181.91 189.48 C 187.18 194.10 194.70 193.25 201.05 192.01 C 205.62 191.48 209.10 188.10 213.61 187.36 C 213.10 189.31 213.30 192.22 210.92 192.98 C 203.37 195.85 195.31 197.43 188.11 201.20 C 186.77 201.90 186.03 203.30 185.04 204.37 C 194.68 204.70 204.34 204.40 214.00 204.55 C 215.89 204.46 217.98 204.81 219.62 203.64 C 226.09 199.63 231.86 194.58 237.23 189.21 C 239.22 187.15 241.70 185.69 244.23 184.38 C 241.52 183.18 237.51 183.06 236.46 179.75 C 236.09 176.50 236.18 173.20 236.23 169.93 C 227.23 169.54 218.23 170.00 209.23 169.64 C 206.03 172.04 202.69 177.54 198.16 174.99 C 196.85 174.72 195.53 174.53 194.19 174.54 C 195.60 173.06 196.75 171.36 198.16 169.88 C 199.67 167.77 201.47 165.79 202.20 163.25 C 204.01 158.14 202.90 152.65 203.61 147.39 C 203.97 145.30 206.06 144.09 208.01 143.80 C 212.84 142.94 217.40 145.17 222.00 146.28 C 222.41 144.43 222.78 142.56 223.15 140.70 C 218.28 141.66 213.20 140.67 209.13 137.82 C 208.26 137.10 207.98 135.96 207.63 134.94 C 207.51 134.49 207.25 133.59 207.13 133.14 M 254.26 239.64 C 253.88 240.07 253.11 240.91 252.73 241.33 C 245.90 245.99 238.50 249.76 230.81 252.81 C 219.91 256.56 207.93 257.83 198.03 264.08 C 193.70 266.61 194.45 273.36 198.75 275.55 C 232.40 275.48 266.04 275.46 299.69 275.56 C 299.70 273.77 299.90 271.97 299.67 270.19 C 295.60 264.41 289.99 259.72 286.72 253.37 C 285.16 250.45 285.59 246.85 284.03 243.99 C 281.93 242.65 279.55 241.69 277.12 241.16 C 276.37 240.81 274.86 240.12 274.11 239.77 C 269.36 237.62 264.54 235.63 259.88 233.30 C 258.09 235.48 256.25 237.63 254.26 239.64 Z" />
<path fill="#015da8" opacity="1.00" d=" M 308.83 149.71 C 310.33 146.71 309.86 141.60 314.00 140.87 C 317.31 140.37 321.99 139.51 324.01 142.99 C 325.59 145.07 324.59 147.79 324.81 150.17 C 325.80 151.52 327.64 151.02 329.06 151.29 C 334.67 151.41 338.89 155.60 343.08 158.81 C 345.43 160.87 348.44 162.30 350.22 164.95 C 348.93 171.11 343.10 174.78 340.11 180.05 C 337.05 184.45 338.48 189.99 338.11 194.97 C 337.52 206.92 336.34 218.87 334.37 230.66 C 331.48 234.07 325.87 236.06 321.87 233.33 C 323.85 231.71 325.90 230.18 327.98 228.68 C 326.53 220.01 326.43 211.19 325.11 202.51 C 322.66 210.07 322.51 218.10 322.25 225.97 C 322.09 227.68 322.30 229.72 320.90 231.00 C 316.57 231.50 312.14 231.75 307.82 231.05 C 310.30 228.84 313.35 227.47 316.29 225.99 C 315.24 218.95 313.70 211.98 312.83 204.92 C 313.64 196.59 316.14 188.45 316.07 180.04 C 315.78 176.59 315.61 172.48 312.75 170.07 C 311.58 169.57 310.39 169.16 309.18 168.84 C 301.80 167.33 294.08 166.95 287.12 163.82 C 284.19 162.39 281.10 161.33 277.96 160.45 C 277.00 158.46 275.06 157.36 273.38 156.06 C 275.84 156.00 278.50 155.62 280.74 156.93 C 290.29 161.98 302.40 162.00 311.81 156.61 C 311.26 156.28 310.15 155.63 309.59 155.31 C 309.51 153.42 309.35 151.53 308.83 149.71 M 337.15 164.09 C 337.21 168.35 337.77 172.57 337.94 176.82 C 339.34 173.41 340.96 170.09 342.76 166.87 C 340.89 165.93 339.03 165.00 337.15 164.09 Z" />
<path fill="#015da8" opacity="1.00" d=" M 356.56 192.11 C 360.94 192.12 365.31 192.11 369.70 192.13 C 369.65 214.09 369.70 236.05 369.67 258.01 C 369.79 260.50 369.54 263.57 371.69 265.33 C 373.53 266.81 376.04 266.57 378.25 266.94 C 378.24 270.50 378.24 274.07 378.25 277.64 C 372.82 277.47 366.94 276.99 362.58 273.38 C 358.01 269.73 356.51 263.58 356.59 257.98 C 356.57 236.02 356.63 214.06 356.56 192.11 Z" />
<path fill="#015da8" opacity="1.00" d=" M 383.08 192.11 C 387.08 192.12 391.08 192.12 395.08 192.11 C 395.00 196.06 395.34 200.04 394.87 203.98 C 393.50 207.41 391.27 210.42 389.51 213.66 C 387.36 213.67 385.21 213.67 383.06 213.68 C 384.32 210.51 385.57 207.34 386.89 204.20 C 385.61 204.16 384.35 204.12 383.08 204.09 C 383.09 200.09 383.09 196.10 383.08 192.11 Z" />
<path fill="#015da8" opacity="1.00" d=" M 411.85 192.12 C 417.89 192.12 423.92 192.09 429.96 192.14 C 435.08 220.34 440.30 248.51 445.52 276.69 C 440.82 276.67 436.12 276.67 431.43 276.69 C 430.52 270.22 429.65 263.76 428.72 257.30 C 423.51 257.31 418.31 257.30 413.11 257.32 C 412.23 263.78 411.23 270.22 410.36 276.68 C 405.67 276.68 400.98 276.67 396.29 276.68 C 401.47 248.49 406.68 220.31 411.85 192.12 M 414.90 246.22 C 418.93 246.22 422.96 246.22 426.99 246.24 C 424.97 233.72 423.02 221.20 420.91 208.70 C 418.73 221.18 416.91 233.72 414.90 246.22 Z" />
<path fill="#015da8" opacity="1.00" d=" M 604.97 219.07 C 609.02 213.43 616.32 212.22 622.81 212.39 C 622.82 216.96 622.80 221.53 622.83 226.11 C 618.45 225.23 613.45 223.76 609.36 226.29 C 606.65 227.82 605.46 231.02 605.64 234.01 C 605.64 248.23 605.64 262.46 605.64 276.68 C 601.25 276.68 596.86 276.68 592.48 276.68 C 592.52 255.67 592.50 234.65 592.49 213.64 C 596.70 213.67 600.91 213.68 605.12 213.66 C 605.07 215.46 605.03 217.26 604.97 219.07 Z" />
<path fill="#015da8" opacity="1.00" d=" M 453.66 218.65 C 459.62 211.79 470.45 210.81 478.31 214.74 C 484.04 217.67 486.53 224.12 487.61 230.10 C 483.73 230.43 479.85 230.74 475.97 231.12 C 475.14 228.54 474.77 225.25 472.05 223.92 C 468.93 222.48 463.86 223.14 462.87 226.98 C 462.10 230.02 464.27 232.72 466.42 234.57 C 472.39 239.63 479.84 243.04 484.61 249.44 C 488.93 255.00 489.77 263.11 486.51 269.37 C 483.73 274.60 477.79 277.25 472.11 277.72 C 465.65 278.34 458.50 276.96 453.86 272.10 C 450.34 268.65 448.87 263.76 448.07 259.03 C 452.11 258.45 456.14 257.78 460.17 257.14 C 461.07 260.39 461.79 264.31 465.06 266.06 C 468.25 267.80 473.36 267.57 475.06 263.89 C 476.55 260.34 474.18 256.70 471.56 254.44 C 465.38 248.96 457.35 245.48 452.60 238.49 C 448.51 232.62 448.87 224.02 453.66 218.65 Z" />
<path fill="#015da8" opacity="1.00" d=" M 497.95 219.00 C 504.04 211.62 515.72 210.58 523.74 215.27 C 528.92 218.39 531.04 224.46 532.13 230.09 C 528.24 230.45 524.36 230.77 520.47 231.04 C 519.66 228.39 519.20 224.92 516.27 223.77 C 513.31 222.65 509.00 223.15 507.63 226.40 C 506.42 229.69 508.84 232.80 511.25 234.79 C 517.25 239.78 524.67 243.25 529.34 249.72 C 533.42 255.16 534.17 262.93 531.19 269.04 C 528.74 274.01 523.37 276.83 518.05 277.55 C 511.29 278.49 503.66 277.34 498.66 272.32 C 495.02 268.85 493.48 263.87 492.62 259.04 C 496.67 258.43 500.72 257.77 504.77 257.17 C 505.64 260.28 506.31 263.95 509.26 265.82 C 512.31 267.71 517.29 267.74 519.35 264.39 C 521.03 261.16 519.28 257.39 516.81 255.13 C 510.65 249.25 502.22 245.86 497.31 238.67 C 493.16 232.93 493.39 224.44 497.95 219.00 Z" />
<path fill="#015da8" opacity="1.00" d=" M 632.50 217.55 C 638.78 211.95 648.20 211.48 655.98 213.66 C 661.83 215.24 666.03 220.74 666.38 226.74 C 666.81 234.50 666.44 242.28 666.56 250.06 C 666.81 258.93 665.92 267.88 667.32 276.68 C 663.11 276.68 658.91 276.70 654.71 276.64 C 654.50 275.12 654.29 273.60 654.09 272.08 C 651.15 274.21 648.23 276.68 644.59 277.45 C 639.31 278.53 633.11 277.85 629.34 273.61 C 623.41 267.05 623.54 256.47 628.24 249.25 C 633.78 240.90 644.02 237.62 653.46 236.19 C 653.34 233.15 653.69 230.01 652.77 227.07 C 651.08 221.73 642.01 221.98 640.34 227.19 C 639.82 228.81 639.61 230.51 639.35 232.19 C 634.97 232.17 630.60 232.18 626.23 232.17 C 626.82 226.84 628.34 221.24 632.50 217.55 M 638.89 253.92 C 636.85 258.06 637.18 265.00 642.41 266.48 C 647.01 267.66 650.43 263.74 653.36 260.88 C 653.35 256.02 653.35 251.16 653.36 246.30 C 648.16 247.69 641.72 248.71 638.89 253.92 Z" />
<path fill="#015da8" opacity="1.00" d=" M 682.23 218.23 C 686.10 213.77 692.31 212.31 698.00 212.47 C 703.32 212.54 708.99 214.24 712.49 218.48 C 716.61 223.28 717.58 229.86 717.64 235.98 C 717.66 249.55 717.63 263.11 717.64 276.68 C 713.26 276.68 708.88 276.68 704.50 276.68 C 704.51 261.92 704.60 247.16 704.46 232.41 C 704.61 228.17 701.81 223.24 697.01 223.72 C 692.11 223.55 689.80 228.83 690.02 233.03 C 689.86 247.58 690.02 262.14 689.95 276.69 C 685.58 276.67 681.21 276.68 676.85 276.68 C 676.87 263.11 676.84 249.54 676.86 235.96 C 676.94 229.75 677.92 223.01 682.23 218.23 Z" />
<path fill="#015da8" opacity="1.00" d=" M 728.84 223.79 C 730.83 218.13 736.01 213.84 741.95 212.95 C 749.31 211.65 758.23 212.65 763.10 218.98 C 766.84 223.74 767.53 230.02 767.78 235.87 C 763.41 235.90 759.04 235.88 754.68 235.89 C 754.52 232.78 754.70 229.49 753.29 226.63 C 751.18 222.18 743.75 222.04 741.49 226.42 C 739.59 229.97 740.18 234.16 740.06 238.03 C 740.35 245.88 739.50 253.80 740.57 261.59 C 741.23 266.64 747.82 268.78 751.64 265.73 C 754.53 263.32 754.40 259.20 754.71 255.79 C 759.05 255.81 763.40 255.80 767.75 255.80 C 767.39 261.58 766.49 267.85 762.33 272.23 C 757.74 277.27 750.38 278.38 743.91 277.66 C 738.49 277.21 733.07 274.46 730.34 269.61 C 726.32 262.81 726.95 254.60 726.91 247.01 C 727.11 239.27 726.10 231.21 728.84 223.79 Z" />
<path fill="#015da8" opacity="1.00" d=" M 778.70 220.60 C 781.75 215.22 788.06 212.64 794.04 212.51 C 800.73 212.06 808.34 214.00 812.14 220.00 C 817.40 228.22 815.61 238.41 815.95 247.64 C 806.75 247.59 797.55 247.65 788.36 247.61 C 788.52 252.65 787.67 257.89 789.23 262.79 C 790.64 267.60 797.78 268.59 800.82 264.83 C 802.67 262.50 802.62 259.35 803.00 256.55 C 807.33 256.58 811.67 256.55 816.02 256.59 C 815.53 262.42 814.37 268.72 809.96 272.96 C 804.96 277.76 797.45 278.42 790.90 277.50 C 785.35 276.77 780.17 273.29 777.83 268.15 C 774.37 260.92 775.39 252.69 775.23 244.94 C 775.36 236.79 774.29 227.91 778.70 220.60 M 789.66 226.58 C 788.05 229.74 788.42 233.39 788.26 236.81 C 793.13 236.84 798.01 236.83 802.90 236.82 C 802.72 233.40 803.14 229.73 801.52 226.59 C 799.35 222.10 791.81 222.07 789.66 226.58 Z" />
<path fill="#015da8" opacity="1.00" d=" M 540.19 213.67 C 544.58 213.67 548.97 213.67 553.36 213.67 C 553.27 227.43 553.36 241.20 553.31 254.96 C 553.35 258.02 553.28 261.28 554.81 264.04 C 557.08 268.07 563.76 268.14 566.22 264.26 C 567.90 261.50 567.80 258.14 567.84 255.03 C 567.80 241.24 567.84 227.45 567.81 213.67 C 572.18 213.67 576.56 213.68 580.94 213.66 C 580.90 227.45 580.96 241.25 580.91 255.05 C 580.88 261.39 579.65 268.34 574.93 272.95 C 570.21 277.53 563.14 278.33 556.89 277.63 C 551.97 277.14 547.09 274.77 544.26 270.61 C 540.92 265.80 540.23 259.74 540.21 254.03 C 540.20 240.58 540.24 227.12 540.19 213.67 Z" />
<path fill="#015da8" opacity="1.00" d=" M 492.41 288.73 C 497.36 285.85 504.16 290.27 503.60 295.95 C 503.51 301.49 496.62 305.19 492.00 302.09 C 486.91 299.36 487.18 291.13 492.41 288.73 Z" />
<path fill="#015da8" opacity="1.00" d=" M 235.30 288.88 C 241.80 288.90 248.30 288.89 254.80 288.89 C 258.36 305.38 261.53 321.96 265.29 338.40 C 268.84 321.91 272.20 305.39 275.68 288.88 C 282.19 288.89 288.71 288.88 295.22 288.89 C 295.17 317.10 295.20 345.31 295.21 373.52 C 290.85 373.50 286.49 373.50 282.14 373.50 C 282.03 351.79 282.42 330.05 281.94 308.35 C 277.09 329.95 273.22 351.79 268.78 373.49 C 266.43 373.50 264.08 373.51 261.73 373.52 C 257.24 351.38 253.10 329.16 248.40 307.07 C 248.31 329.21 248.36 351.36 248.38 373.51 C 244.02 373.50 239.67 373.50 235.32 373.52 C 235.27 345.30 235.32 317.09 235.30 288.88 Z" />
<path fill="#015da8" opacity="1.00" d=" M 356.57 288.87 C 360.94 288.89 365.31 288.89 369.68 288.88 C 369.78 311.92 369.48 334.98 369.82 358.01 C 369.68 362.61 374.57 363.79 378.25 363.75 C 378.24 367.31 378.24 370.88 378.26 374.44 C 372.65 374.33 366.50 373.74 362.14 369.80 C 357.91 366.16 356.55 360.31 356.59 354.95 C 356.57 332.92 356.62 310.90 356.57 288.87 Z" />
<path fill="#015da8" opacity="1.00" d=" M 464.05 288.89 C 468.45 288.89 472.86 288.89 477.27 288.88 C 477.21 310.91 477.26 332.93 477.25 354.96 C 477.29 360.31 475.83 366.03 471.75 369.75 C 466.74 374.26 459.50 375.18 453.03 374.46 C 447.39 373.95 441.86 370.80 439.31 365.62 C 435.49 358.37 436.50 349.91 436.36 342.02 C 436.51 333.86 435.42 325.02 439.70 317.65 C 444.42 309.47 455.84 307.39 464.08 311.02 C 464.03 303.64 464.08 296.26 464.05 288.89 M 453.40 321.34 C 450.30 322.93 449.60 326.74 449.51 329.91 C 449.38 336.95 449.52 344.00 449.45 351.05 C 449.50 354.28 449.35 357.82 451.19 360.65 C 454.05 365.06 462.40 364.04 463.44 358.59 C 464.57 352.82 463.83 346.88 464.03 341.04 C 463.83 335.65 464.67 330.08 463.09 324.84 C 461.83 320.93 456.86 319.62 453.40 321.34 Z" />
<path fill="#015da8" opacity="1.00" d=" M 312.24 314.21 C 318.55 308.76 327.83 308.32 335.55 310.51 C 341.51 312.11 345.71 317.85 345.90 323.95 C 346.30 332.96 345.95 341.99 346.07 351.01 C 346.22 358.52 345.58 366.08 346.79 373.53 C 342.61 373.49 338.44 373.51 334.27 373.48 C 334.03 371.94 333.79 370.39 333.56 368.86 C 328.73 373.35 322.02 376.01 315.43 374.28 C 308.92 372.83 304.85 366.32 304.44 359.97 C 303.56 352.40 307.12 344.65 313.31 340.25 C 319.00 335.99 326.04 334.14 332.95 333.02 C 332.77 329.69 333.38 326.10 331.89 322.99 C 330.06 319.54 325.20 319.45 322.11 321.09 C 319.41 322.71 319.37 326.21 318.84 328.95 C 314.48 328.93 310.13 328.93 305.78 329.04 C 306.27 323.59 307.95 317.89 312.24 314.21 M 318.19 351.24 C 316.39 355.36 316.89 362.06 322.05 363.34 C 326.60 364.42 329.95 360.58 332.86 357.75 C 332.88 352.88 332.89 348.01 332.86 343.15 C 327.52 344.56 320.78 345.64 318.19 351.24 Z" />
<path fill="#015da8" opacity="1.00" d=" M 391.39 314.33 C 397.83 308.65 407.49 308.26 415.37 310.70 C 421.47 312.55 425.34 318.77 425.27 325.01 C 425.41 338.34 425.27 351.67 425.33 365.00 C 425.32 367.86 425.68 370.70 426.04 373.53 C 421.88 373.49 417.72 373.50 413.56 373.51 C 413.32 371.97 413.09 370.43 412.87 368.89 C 408.69 372.42 403.62 375.36 397.93 374.71 C 390.83 374.81 385.00 368.77 384.00 361.99 C 382.42 354.17 385.51 345.65 391.88 340.81 C 397.67 336.15 405.04 334.18 412.25 333.03 C 412.12 329.67 412.67 326.05 411.14 322.93 C 409.27 319.51 404.36 319.40 401.31 321.18 C 398.68 322.81 398.66 326.23 398.15 328.95 C 393.77 328.94 389.39 328.97 385.02 328.90 C 385.63 323.57 387.19 317.98 391.39 314.33 M 397.70 350.74 C 395.73 354.80 395.92 361.50 400.90 363.23 C 405.39 364.52 409.36 361.00 411.90 357.72 C 412.61 352.91 412.01 347.99 412.19 343.14 C 406.98 344.52 400.54 345.53 397.70 350.74 Z" />
<path fill="#015da8" opacity="1.00" d=" M 524.20 311.10 C 529.40 308.93 535.32 308.83 540.76 310.12 C 545.83 311.34 550.16 315.07 552.06 319.94 C 555.24 327.70 554.00 336.29 554.26 344.46 C 545.04 344.43 535.83 344.43 526.61 344.45 C 526.89 349.66 525.84 355.15 527.72 360.15 C 529.59 364.97 537.47 365.24 539.75 360.65 C 540.94 358.41 540.92 355.79 541.30 353.34 C 545.65 353.40 549.99 353.35 554.34 353.42 C 553.76 359.14 552.69 365.33 548.44 369.57 C 543.69 374.32 536.43 375.22 530.04 374.45 C 524.67 373.90 519.39 371.03 516.74 366.21 C 512.73 359.17 513.60 350.79 513.50 343.01 C 513.67 335.97 512.83 328.73 514.95 321.90 C 516.33 317.21 519.63 312.99 524.20 311.10 M 528.08 323.15 C 526.28 326.34 526.73 330.16 526.55 333.67 C 531.44 333.68 536.33 333.68 541.22 333.66 C 541.01 330.21 541.39 326.49 539.74 323.33 C 537.60 319.00 530.39 318.97 528.08 323.15 Z" />
<path fill="#015da8" opacity="1.00" d=" M 489.37 373.52 C 489.35 352.49 489.35 331.47 489.36 310.44 C 493.74 310.46 498.12 310.46 502.51 310.44 C 502.48 331.46 502.47 352.48 502.51 373.50 C 498.13 373.50 493.75 373.49 489.37 373.52 Z" />
<path fill="#015da8" opacity="1.00" d=" M 357.85 430.97 C 361.91 423.42 372.80 421.76 379.65 426.34 C 382.26 427.98 383.50 430.92 384.67 433.64 C 382.48 434.19 380.28 434.73 378.09 435.26 C 377.14 433.79 376.43 432.08 375.01 430.99 C 371.44 428.47 365.64 429.59 363.76 433.70 C 361.78 438.06 361.90 443.23 363.25 447.76 C 364.56 452.08 370.12 454.11 374.00 451.95 C 376.35 450.70 377.13 447.96 378.23 445.73 C 380.41 446.45 382.59 447.15 384.78 447.86 C 383.36 451.66 381.29 455.65 377.35 457.31 C 371.17 459.83 362.99 458.77 358.83 453.14 C 354.25 446.81 354.24 437.75 357.85 430.97 Z" />
<path fill="#015da8" opacity="1.00" d=" M 531.07 424.38 C 533.25 424.39 535.43 424.39 537.61 424.41 C 542.21 431.94 546.76 439.50 551.38 447.02 C 551.35 439.48 551.37 431.94 551.36 424.40 C 553.46 424.39 555.56 424.38 557.66 424.38 C 557.70 435.60 557.66 446.83 557.69 458.06 C 555.42 458.08 553.17 458.11 550.92 458.15 C 546.38 450.72 541.76 443.33 537.30 435.85 C 537.35 443.27 537.30 450.69 537.33 458.11 C 535.24 458.10 533.16 458.11 531.08 458.11 C 531.04 446.87 531.06 435.62 531.07 424.38 Z" />
<path fill="#015da8" opacity="1.00" d=" M 593.85 428.88 C 596.03 427.62 598.19 426.34 600.37 425.06 C 600.35 427.89 600.35 430.73 600.33 433.56 C 601.73 433.83 603.29 433.56 604.63 433.96 C 604.77 435.58 604.75 437.21 604.79 438.84 C 603.30 438.83 601.83 438.83 600.36 438.83 C 600.37 443.67 600.18 448.52 600.66 453.35 C 602.01 453.14 603.40 452.95 604.77 452.73 C 604.93 454.48 605.15 456.23 605.33 457.99 C 601.76 458.40 596.45 459.72 594.50 455.64 C 593.24 450.13 594.12 444.39 593.86 438.79 C 593.11 438.80 591.62 438.82 590.88 438.83 C 590.87 437.11 590.86 435.40 590.86 433.70 C 591.62 433.70 593.12 433.71 593.88 433.71 C 593.86 432.10 593.85 430.49 593.85 428.88 Z" />
<path fill="#015da8" opacity="1.00" d=" M 396.54 433.75 C 400.22 432.87 404.28 432.83 407.84 434.24 C 409.86 435.01 411.21 437.00 411.41 439.12 C 412.07 445.47 410.64 452.02 412.75 458.20 C 410.24 457.78 406.25 459.25 405.57 455.75 C 402.13 458.66 396.82 459.71 392.92 457.11 C 388.98 454.46 389.15 447.52 393.58 445.44 C 397.36 443.61 401.66 443.37 405.66 442.18 C 405.57 436.77 397.89 436.91 396.18 441.24 C 394.37 440.80 392.56 440.42 390.79 439.87 C 391.54 437.04 393.58 434.47 396.54 433.75 M 396.51 449.94 C 395.92 453.62 400.50 455.13 403.07 453.17 C 405.57 451.88 405.03 448.70 405.47 446.39 C 402.47 447.36 398.52 447.09 396.51 449.94 Z" />
<path fill="#015da8" opacity="1.00" d=" M 436.02 434.84 C 439.93 432.65 444.85 432.74 449.04 434.03 C 451.67 434.80 452.95 437.33 454.24 439.52 C 452.24 439.89 450.25 440.26 448.26 440.61 C 446.27 437.21 442.25 437.48 438.93 438.43 C 439.04 439.02 439.27 440.22 439.38 440.82 C 443.71 443.09 449.26 442.63 453.05 446.01 C 456.42 449.40 454.46 455.45 450.32 457.25 C 443.85 460.13 434.28 458.71 431.72 451.22 C 433.83 450.84 435.96 450.50 438.10 450.16 C 439.33 454.61 447.40 455.79 448.42 450.91 C 445.07 447.88 439.63 448.84 435.94 446.15 C 431.75 443.88 431.94 437.11 436.02 434.84 Z" />
<path fill="#015da8" opacity="1.00" d=" M 491.41 435.36 C 496.29 431.57 504.75 432.59 507.74 438.31 C 509.40 441.14 509.56 444.49 509.88 447.68 C 504.31 447.78 498.75 447.66 493.19 447.77 C 494.00 450.22 495.02 453.46 498.12 453.65 C 500.58 454.29 502.09 452.05 503.37 450.39 C 505.45 450.72 507.54 451.07 509.63 451.44 C 508.22 453.93 506.65 456.65 503.80 457.68 C 498.64 459.58 491.47 458.72 488.72 453.36 C 485.80 447.69 486.33 439.66 491.41 435.36 M 493.31 443.70 C 496.76 443.80 500.22 443.80 503.67 443.71 C 502.88 441.40 502.06 438.30 499.11 438.13 C 495.63 437.47 494.00 440.94 493.31 443.70 Z" />
<path fill="#015da8" opacity="1.00" d=" M 564.88 440.00 C 566.18 436.87 568.44 433.77 572.10 433.45 C 576.58 432.94 583.09 432.54 585.35 437.40 C 586.87 444.20 584.70 451.43 587.08 458.14 C 584.99 458.11 582.92 458.10 580.85 458.10 C 580.70 457.48 580.41 456.24 580.27 455.63 C 576.91 458.22 572.30 459.61 568.29 457.71 C 563.63 455.71 563.06 448.22 567.50 445.69 C 571.32 443.61 575.80 443.45 579.91 442.22 C 579.39 440.59 579.21 438.20 576.96 438.22 C 574.27 437.40 571.98 438.96 570.49 441.06 C 568.61 440.71 566.75 440.36 564.88 440.00 M 571.32 449.35 C 569.48 452.43 573.94 455.46 576.62 453.59 C 579.75 452.62 579.51 449.02 579.81 446.40 C 577.02 447.31 573.46 447.13 571.32 449.35 Z" />
<path fill="#015da8" opacity="1.00" d=" M 632.44 433.58 C 636.60 432.59 641.39 433.27 644.62 436.26 C 649.49 440.69 649.95 448.87 645.92 454.00 C 640.87 460.85 628.45 459.93 624.81 452.11 C 621.43 445.28 624.52 435.36 632.44 433.58 M 633.29 439.15 C 628.15 442.36 629.17 453.08 635.98 453.36 C 641.17 453.47 642.94 447.21 641.68 443.07 C 641.05 439.41 636.52 437.10 633.29 439.15 Z" />
<path fill="#015da8" opacity="1.00" d=" M 660.93 437.15 C 662.99 435.43 665.10 433.34 667.96 433.23 C 671.74 432.65 676.49 434.72 676.93 438.93 C 677.64 445.29 677.07 451.72 677.27 458.10 C 675.10 458.10 672.94 458.10 670.78 458.11 C 670.59 452.23 671.31 446.27 670.36 440.46 C 669.00 436.35 662.38 438.06 661.90 441.94 C 661.13 447.27 661.66 452.69 661.54 458.06 C 659.39 458.08 657.25 458.11 655.12 458.14 C 655.08 449.99 655.12 441.84 655.10 433.70 C 657.13 433.70 659.16 433.70 661.21 433.71 C 661.14 434.57 661.00 436.29 660.93 437.15 Z" />
<path fill="#015da8" opacity="1.00" d=" M 684.18 440.04 C 685.38 436.62 688.07 433.58 691.90 433.36 C 696.22 432.98 702.39 432.69 704.58 437.33 C 706.27 444.14 703.90 451.42 706.36 458.14 C 704.28 458.11 702.21 458.10 700.14 458.09 C 699.98 457.48 699.64 456.26 699.47 455.65 C 695.99 458.42 690.91 459.72 686.89 457.35 C 682.78 454.96 682.57 448.12 686.74 445.69 C 690.61 443.58 695.17 443.46 699.33 442.14 C 699.13 436.89 691.80 436.93 689.83 441.03 C 687.93 440.70 686.05 440.38 684.18 440.04 M 690.92 448.88 C 688.33 451.76 692.82 455.57 695.72 453.67 C 698.95 452.71 698.84 449.10 699.02 446.38 C 696.29 447.10 693.34 447.34 690.92 448.88 Z" />
<path fill="#015da8" opacity="1.00" d=" M 727.42 438.36 C 730.88 431.77 741.52 431.33 745.71 437.37 C 747.88 440.35 748.08 444.16 748.44 447.71 C 742.89 447.75 737.34 447.68 731.80 447.77 C 732.53 450.34 733.75 453.59 736.93 453.68 C 739.34 454.21 740.65 451.95 741.91 450.35 C 744.00 450.72 746.09 451.10 748.18 451.50 C 745.43 459.04 734.92 460.85 729.16 455.81 C 724.76 451.30 724.54 443.73 727.42 438.36 M 731.83 443.66 C 735.30 443.81 738.78 443.80 742.26 443.69 C 741.51 441.12 740.26 437.81 736.98 438.10 C 733.79 437.91 732.64 441.21 731.83 443.66 Z" />
<path fill="#015da8" opacity="1.00" d=" M 419.18 433.72 C 421.32 433.71 423.47 433.70 425.62 433.68 C 425.67 441.81 425.62 449.94 425.65 458.07 C 423.50 458.08 421.35 458.09 419.20 458.11 C 419.19 449.98 419.22 441.85 419.18 433.72 Z" />
<path fill="#015da8" opacity="1.00" d=" M 610.58 433.71 C 612.74 433.71 614.91 433.71 617.08 433.71 C 617.06 441.84 617.06 449.97 617.08 458.10 C 614.91 458.09 612.75 458.09 610.59 458.10 C 610.60 449.97 610.61 441.84 610.58 433.71 Z" />
</g>
<g id="#025da9ff">
<path fill="#025da9" opacity="1.00" d=" M 134.57 139.17 C 136.32 136.59 137.64 132.63 141.24 132.33 C 143.99 132.28 145.37 134.88 145.78 137.23 C 148.41 137.29 151.05 137.76 153.41 138.96 C 153.36 139.45 153.27 140.42 153.22 140.91 C 150.87 140.34 148.57 139.13 146.11 139.29 C 145.05 140.11 144.14 141.11 143.21 142.07 C 145.59 143.62 148.07 145.10 149.99 147.25 C 147.86 147.83 146.12 146.51 144.45 145.50 C 141.15 143.39 137.85 141.31 134.57 139.17 M 136.84 138.14 C 138.65 139.31 140.46 140.48 142.29 141.64 C 143.12 139.68 145.24 136.76 142.78 135.11 C 140.23 132.95 138.25 136.44 136.84 138.14 Z" />
<path fill="#025da9" opacity="1.00" d=" M 419.19 424.39 C 421.34 424.39 423.49 424.39 425.65 424.40 C 425.64 426.38 425.64 428.37 425.65 430.37 C 423.49 430.36 421.34 430.36 419.19 430.38 C 419.18 428.38 419.19 426.38 419.19 424.39 Z" />
<path fill="#025da9" opacity="1.00" d=" M 610.60 424.39 C 612.75 424.39 614.92 424.40 617.08 424.41 C 617.07 426.39 617.08 428.38 617.08 430.38 C 614.91 430.36 612.74 430.36 610.59 430.36 C 610.59 428.37 610.59 426.37 610.60 424.39 Z" />
</g>
<g id="#adce51ff">
<path fill="#adce51" opacity="1.00" d=" M 175.51 133.18 C 186.04 132.87 196.60 132.84 207.13 133.14 C 207.25 133.59 207.51 134.49 207.63 134.94 C 198.75 134.98 189.87 134.90 180.99 134.99 C 179.03 134.86 176.42 135.50 175.51 133.18 Z" />
</g>
<g id="#fdfdfcff">
<path fill="#fdfdfc" opacity="1.00" d=" M 136.84 138.14 C 138.25 136.44 140.23 132.95 142.78 135.11 C 145.24 136.76 143.12 139.68 142.29 141.64 C 140.46 140.48 138.65 139.31 136.84 138.14 Z" />
</g>
<g id="#fffefbff">
<path fill="#fffefb" opacity="1.00" d=" M 337.15 164.09 C 339.03 165.00 340.89 165.93 342.76 166.87 C 340.96 170.09 339.34 173.41 337.94 176.82 C 337.77 172.57 337.21 168.35 337.15 164.09 Z" />
</g>
<g id="#93c020ff">
<path fill="#93c020" opacity="1.00" d=" M 260.61 168.73 C 276.80 168.69 293.00 168.48 309.18 168.84 C 310.39 169.16 311.58 169.57 312.75 170.07 C 297.86 170.48 282.96 170.10 268.07 170.27 C 265.84 170.22 263.54 170.47 261.37 169.88 L 260.61 168.73 Z" />
</g>
<g id="#fefefeff">
<path fill="#fefefe" opacity="1.00" d=" M 233.19 203.38 C 237.03 200.75 241.00 198.32 245.15 196.21 C 246.50 198.70 247.70 201.29 248.42 204.04 C 243.64 203.88 238.86 204.00 234.09 204.01 C 233.86 203.85 233.41 203.54 233.19 203.38 Z" />
<path fill="#fefefe" opacity="1.00" d=" M 690.92 448.88 C 693.34 447.34 696.29 447.10 699.02 446.38 C 698.84 449.10 698.95 452.71 695.72 453.67 C 692.82 455.57 688.33 451.76 690.92 448.88 Z" />
</g>
<g id="#a9cc58ff">
<path fill="#a9cc58" opacity="1.00" d=" M 228.39 205.74 C 229.97 204.92 231.54 204.08 233.19 203.38 C 233.41 203.54 233.86 203.85 234.09 204.01 C 238.86 204.00 243.64 203.88 248.42 204.04 C 248.53 204.48 248.75 205.37 248.86 205.82 C 242.04 205.99 235.21 206.00 228.39 205.74 Z" />
</g>
<g id="#fefefcff">
<path fill="#fefefc" opacity="1.00" d=" M 254.26 239.64 C 256.25 237.63 258.09 235.48 259.88 233.30 C 264.54 235.63 269.36 237.62 274.11 239.77 C 267.50 239.43 260.88 239.69 254.26 239.64 Z" />
<path fill="#fefefc" opacity="1.00" d=" M 493.31 443.70 C 494.00 440.94 495.63 437.47 499.11 438.13 C 502.06 438.30 502.88 441.40 503.67 443.71 C 500.22 443.80 496.76 443.80 493.31 443.70 Z" />
<path fill="#fefefc" opacity="1.00" d=" M 731.83 443.66 C 732.64 441.21 733.79 437.91 736.98 438.10 C 740.26 437.81 741.51 441.12 742.26 443.69 C 738.78 443.80 735.30 443.81 731.83 443.66 Z" />
</g>
<g id="#95c124ff">
<path fill="#95c124" opacity="1.00" d=" M 180.54 239.66 C 196.31 239.62 212.07 239.53 227.84 239.71 C 227.46 240.05 226.71 240.73 226.33 241.08 C 216.23 241.43 206.11 241.10 196.00 241.21 C 191.00 241.08 185.97 241.55 180.99 240.97 L 180.54 239.66 Z" />
</g>
<g id="#93bf25ff">
<path fill="#93bf25" opacity="1.00" d=" M 252.73 241.33 C 253.11 240.91 253.88 240.07 254.26 239.64 C 260.88 239.69 267.50 239.43 274.11 239.77 C 274.86 240.12 276.37 240.81 277.12 241.16 C 268.99 241.31 260.85 241.04 252.73 241.33 Z" />
</g>
<g id="#025ea9ff">
<path fill="#025ea9" opacity="1.00" d=" M 712.75 424.42 C 714.92 424.41 717.10 424.40 719.28 424.40 C 719.23 435.63 719.25 446.86 719.26 458.09 C 717.09 458.09 714.93 458.10 712.78 458.11 C 712.79 446.88 712.84 435.65 712.75 424.42 Z" />
</g>
<g id="#fefefdff">
<path fill="#fefefd" opacity="1.00" d=" M 571.32 449.35 C 573.46 447.13 577.02 447.31 579.81 446.40 C 579.51 449.02 579.75 452.62 576.62 453.59 C 573.94 455.46 569.48 452.43 571.32 449.35 Z" />
</g>
</svg>
