<?xml version="1.0" encoding="UTF-8" ?>
<!DOCTYPE svg PUBLIC "-//W3C//DTD SVG 1.1//EN" "http://www.w3.org/Graphics/SVG/1.1/DTD/svg11.dtd">
<svg width="300pt" height="143pt" viewBox="0 0 300 143" version="1.1" xmlns="http://www.w3.org/2000/svg">
<g id="#1075bbff">
<path fill="#1075bb" opacity="1.00" d=" M 123.58 30.48 C 133.92 28.32 144.79 30.54 154.13 35.24 C 154.67 35.24 155.76 35.25 156.30 35.25 C 156.75 33.42 157.28 31.61 157.81 29.80 C 162.10 35.96 164.87 43.22 164.60 50.81 C 156.28 41.90 144.35 35.91 132.00 36.16 C 121.89 35.84 112.12 40.10 104.36 46.35 C 101.73 48.70 97.91 47.32 94.74 47.56 C 102.05 38.83 112.25 32.30 123.58 30.48 Z" />
<path fill="#1075bb" opacity="1.00" d=" M 258.68 71.72 C 263.12 70.29 268.50 72.05 270.49 76.45 C 273.39 81.64 269.96 88.78 264.20 89.94 C 258.31 91.69 251.67 86.16 252.51 80.01 C 252.47 76.22 255.30 73.07 258.68 71.72 Z" />
<path fill="#1075bb" opacity="1.00" d=" M 157.36 93.68 C 159.94 93.74 162.51 93.79 165.09 93.87 C 156.42 105.93 141.50 112.23 126.98 113.26 C 119.74 112.83 112.44 111.83 105.85 108.61 C 105.05 109.02 104.25 109.43 103.45 109.84 C 103.40 110.56 103.30 112.02 103.25 112.75 C 102.87 112.67 102.10 112.52 101.72 112.44 C 100.21 110.12 98.89 107.69 97.71 105.20 C 96.79 101.89 96.24 98.49 96.27 95.05 C 104.42 102.17 115.00 107.07 125.99 106.69 C 137.70 106.84 148.99 101.72 157.36 93.68 Z" />
</g>
<g id="#858585ff">
<path fill="#858585" opacity="1.00" d=" M 207.58 40.03 C 210.54 39.70 213.52 39.73 216.50 39.76 C 216.53 42.41 216.55 45.06 216.55 47.72 C 213.55 47.71 210.56 47.71 207.56 47.70 C 207.56 45.14 207.57 42.59 207.58 40.03 Z" />
<path fill="#858585" opacity="1.00" d=" M 104.01 55.71 C 112.20 51.98 123.95 50.30 130.26 58.23 C 133.51 55.23 137.43 52.50 142.05 52.52 C 148.98 51.88 155.89 56.29 158.35 62.78 C 159.99 66.41 159.78 70.48 159.84 74.36 C 151.06 74.39 142.28 74.34 133.50 74.36 C 133.53 74.85 133.58 75.82 133.61 76.31 C 135.06 79.47 137.54 82.01 140.73 83.43 C 142.89 83.45 145.06 83.45 147.23 83.40 C 149.54 82.14 151.79 80.75 153.97 79.28 C 155.33 80.57 156.78 81.80 157.98 83.26 C 157.17 86.03 154.13 87.33 151.82 88.67 C 144.49 92.07 135.22 90.29 129.75 84.32 C 123.30 89.29 114.32 92.48 106.58 88.49 C 99.59 85.26 98.79 74.45 105.02 70.06 C 111.11 65.97 119.04 67.15 125.80 68.61 C 125.53 65.40 124.28 61.93 120.99 60.74 C 116.15 59.73 110.93 60.15 106.49 62.45 C 105.60 60.23 104.79 57.97 104.01 55.71 M 133.09 68.67 C 139.40 68.82 145.72 68.78 152.03 68.70 C 151.45 63.69 147.43 58.53 141.90 59.38 C 136.89 59.39 134.14 64.40 133.09 68.67 M 111.85 73.82 C 108.23 75.36 108.29 81.41 111.82 83.03 C 116.91 85.23 122.63 83.10 126.60 79.63 C 126.07 77.67 125.57 75.71 125.13 73.74 C 120.81 72.80 116.00 71.67 111.85 73.82 Z" />
<path fill="#858585" opacity="1.00" d=" M 224.98 56.90 C 227.16 54.24 230.61 53.11 233.92 52.74 C 238.82 52.30 243.43 54.30 247.90 56.02 C 247.82 58.51 246.62 60.68 245.36 62.75 C 240.84 60.25 235.27 57.90 230.31 60.68 C 230.56 62.29 229.69 64.56 231.51 65.47 C 236.42 68.54 243.01 68.48 247.10 72.95 C 250.42 76.26 249.96 81.80 247.42 85.43 C 245.28 88.55 241.41 89.80 237.82 90.25 C 231.65 90.83 225.66 88.41 220.63 85.03 C 221.78 83.13 222.92 81.24 224.05 79.33 C 228.59 81.99 233.80 84.76 239.23 83.27 C 241.46 82.59 242.34 79.91 241.24 77.94 C 236.51 73.97 229.23 74.81 224.92 70.13 C 221.22 66.77 221.68 60.38 224.98 56.90 Z" />
<path fill="#858585" opacity="1.00" d=" M 38.41 55.28 C 44.62 51.16 53.76 51.53 59.19 56.82 C 63.97 61.16 65.58 68.15 64.90 74.38 C 56.10 74.36 47.30 74.37 38.49 74.37 C 38.51 74.85 38.55 75.82 38.56 76.30 C 40.03 79.46 42.51 82.01 45.71 83.43 C 47.88 83.45 50.05 83.45 52.22 83.40 C 54.53 82.13 56.77 80.75 58.95 79.28 C 60.06 80.95 63.66 82.13 62.55 84.47 C 56.17 91.65 44.12 92.33 36.79 86.23 C 27.25 78.73 28.12 61.75 38.41 55.28 M 38.11 68.70 C 44.38 68.83 50.66 68.77 56.94 68.73 C 56.41 66.33 55.83 63.74 53.97 61.98 C 51.56 59.21 47.34 58.72 44.06 60.01 C 40.62 61.59 39.08 65.28 38.11 68.70 Z" />
<path fill="#858585" opacity="1.00" d=" M 65.45 53.34 C 68.50 53.28 71.54 53.25 74.59 53.31 C 77.32 57.25 79.99 61.23 82.88 65.05 C 85.57 61.13 88.41 57.33 90.98 53.33 C 93.98 53.27 96.99 53.27 99.99 53.36 C 95.69 59.18 91.38 65.00 87.23 70.93 C 91.62 77.08 96.15 83.12 100.36 89.40 C 97.38 89.44 94.40 89.42 91.42 89.43 C 88.70 85.36 85.80 81.42 83.08 77.36 C 82.81 77.40 82.26 77.47 81.99 77.51 C 79.33 81.50 76.52 85.38 73.86 89.36 C 70.90 89.41 67.93 89.41 64.97 89.36 C 69.02 83.63 73.24 78.02 77.30 72.30 C 78.41 71.07 77.28 69.66 76.54 68.62 C 72.79 63.56 69.22 58.38 65.45 53.34 Z" />
<path fill="#858585" opacity="1.00" d=" M 165.53 60.48 C 169.10 54.20 177.17 51.14 184.06 53.08 C 187.27 53.97 189.73 56.33 192.33 58.29 C 192.34 56.65 192.36 55.01 192.37 53.37 C 195.09 53.37 197.81 53.38 200.53 53.40 C 200.47 63.61 200.58 73.82 200.47 84.03 C 200.44 89.76 197.65 95.72 192.33 98.32 C 185.08 101.91 176.53 100.81 168.96 98.92 C 170.26 96.37 172.96 95.12 175.10 93.40 C 179.78 93.62 185.42 94.81 189.18 91.16 C 192.38 88.31 192.56 83.70 192.32 79.73 C 192.09 80.12 191.63 80.91 191.40 81.31 C 188.31 84.21 184.51 86.92 180.04 86.59 C 172.41 87.15 165.07 81.43 163.59 73.95 C 162.95 69.43 162.99 64.46 165.53 60.48 M 176.30 61.03 C 174.01 62.25 172.83 64.64 171.54 66.76 C 170.49 72.40 174.01 78.81 180.04 79.47 C 186.27 80.77 193.09 75.44 192.43 68.92 C 192.24 64.23 188.31 60.94 184.13 59.54 C 181.46 59.60 178.66 59.62 176.30 61.03 Z" />
<path fill="#858585" opacity="1.00" d=" M 207.72 53.45 C 210.59 53.39 213.46 53.38 216.33 53.41 C 216.30 65.45 216.29 77.49 216.29 89.53 C 213.43 89.54 210.56 89.53 207.70 89.48 C 207.74 77.47 207.74 65.46 207.72 53.45 Z" />
</g>
</svg>
