<?xml version="1.0" encoding="UTF-8" ?>
<!DOCTYPE svg PUBLIC "-//W3C//DTD SVG 1.1//EN" "http://www.w3.org/Graphics/SVG/1.1/DTD/svg11.dtd">
<svg width="1000pt" height="1000pt" viewBox="0 0 1000 1000" version="1.1" xmlns="http://www.w3.org/2000/svg">
<g id="#ab7b30ff">
<path fill="#ab7b30" opacity="1.00" d=" M 442.57 47.46 C 461.12 34.97 480.21 23.22 500.08 12.94 C 512.80 19.56 525.28 26.65 537.34 34.39 C 537.54 35.02 537.95 36.29 538.16 36.93 C 541.00 38.78 544.19 40.96 544.38 44.73 C 545.25 46.88 543.81 48.63 542.44 50.10 C 542.85 51.28 543.27 52.46 543.69 53.64 C 542.95 54.75 542.21 55.87 541.48 56.98 C 542.53 57.51 543.59 58.05 544.66 58.59 C 543.64 59.04 542.63 59.50 541.63 59.96 C 541.85 60.63 542.07 61.30 542.30 61.97 C 542.10 62.54 541.91 63.11 541.72 63.68 C 542.27 63.94 543.36 64.45 543.90 64.71 C 543.02 67.07 541.66 69.67 543.38 72.01 C 543.19 72.40 542.82 73.18 542.63 73.57 C 543.74 73.93 544.85 74.27 545.98 74.61 C 544.43 75.20 542.90 75.83 541.32 76.31 C 541.41 79.17 542.26 82.41 540.06 84.76 C 527.03 75.83 513.71 67.33 500.08 59.37 C 485.53 67.87 471.36 77.01 457.47 86.55 C 457.96 84.05 459.27 81.75 459.60 79.23 C 457.89 72.21 459.99 64.98 459.43 57.86 C 458.98 55.09 458.72 52.28 458.22 49.51 C 458.11 48.62 456.97 48.56 456.30 48.34 C 451.75 47.76 447.12 48.13 442.57 47.46 Z" />
</g>
<g id="#a7752aff">
<path fill="#a7752a" opacity="1.00" d=" M 537.34 34.39 C 565.36 51.74 592.12 71.16 617.32 92.41 C 617.18 92.93 616.90 93.96 616.76 94.48 C 618.44 95.83 619.80 97.52 620.35 99.65 C 619.52 99.26 618.70 98.87 617.89 98.47 C 617.71 98.80 617.36 99.46 617.18 99.78 C 618.21 100.31 619.24 100.83 620.28 101.36 C 618.93 105.94 619.46 110.82 620.58 115.39 C 621.71 119.01 619.33 122.53 620.06 126.19 C 620.69 129.11 619.65 132.06 620.20 134.97 C 621.16 138.78 618.87 143.47 622.80 146.12 C 622.18 146.80 621.57 147.47 620.96 148.15 C 618.13 146.06 616.08 142.39 612.17 142.35 C 589.71 121.28 565.45 102.17 540.06 84.76 C 542.26 82.41 541.41 79.17 541.32 76.31 C 542.90 75.83 544.43 75.20 545.98 74.61 C 544.85 74.27 543.74 73.93 542.63 73.57 C 542.82 73.18 543.19 72.40 543.38 72.01 C 541.66 69.67 543.02 67.07 543.90 64.71 C 543.36 64.45 542.27 63.94 541.72 63.68 C 541.91 63.11 542.10 62.54 542.30 61.97 C 542.07 61.30 541.85 60.63 541.63 59.96 C 542.63 59.50 543.64 59.04 544.66 58.59 C 543.59 58.05 542.53 57.51 541.48 56.98 C 542.21 55.87 542.95 54.75 543.69 53.64 C 543.27 52.46 542.85 51.28 542.44 50.10 C 543.81 48.63 545.25 46.88 544.38 44.73 C 544.19 40.96 541.00 38.78 538.16 36.93 C 537.95 36.29 537.54 35.02 537.34 34.39 Z" />
</g>
<g id="#af8037ff">
<path fill="#af8037" opacity="1.00" d=" M 371.56 102.22 C 393.89 82.31 417.73 64.12 442.57 47.46 C 447.12 48.13 451.75 47.76 456.30 48.34 C 456.97 48.56 458.11 48.62 458.22 49.51 C 458.72 52.28 458.98 55.09 459.43 57.86 C 459.99 64.98 457.89 72.21 459.60 79.23 C 459.27 81.75 457.96 84.05 457.47 86.55 C 430.60 105.21 404.97 125.71 381.55 148.57 C 381.54 147.41 381.20 146.09 382.29 145.27 C 384.83 142.21 388.45 140.01 390.31 136.40 C 391.15 134.41 389.47 132.63 388.72 130.92 C 389.73 128.07 389.22 125.14 387.78 122.54 C 388.48 122.01 389.19 121.48 389.90 120.95 C 389.16 120.48 388.42 120.01 387.70 119.53 C 388.80 117.25 388.79 114.76 387.89 112.42 C 389.08 111.64 390.49 111.08 391.45 109.98 C 391.25 108.41 390.76 106.89 390.32 105.38 C 384.10 104.09 377.68 104.02 371.56 102.22 Z" />
</g>
<g id="#a16d21ff">
<path fill="#a16d21" opacity="1.00" d=" M 617.32 92.41 C 645.10 115.96 670.99 142.04 692.21 171.72 C 711.95 199.42 727.59 230.76 733.24 264.54 C 736.57 283.20 735.29 302.21 735.54 321.06 C 735.53 459.88 735.56 598.70 735.53 737.52 C 713.58 746.10 692.10 755.97 671.89 768.15 C 672.54 766.19 672.69 763.89 674.26 762.40 C 674.91 761.59 676.10 760.80 675.43 759.64 C 674.32 758.50 673.03 757.58 671.80 756.62 C 673.10 756.63 674.42 756.66 675.74 756.70 C 672.64 754.16 674.56 750.23 673.66 746.94 C 673.34 745.29 672.81 743.71 672.29 742.13 C 673.02 741.53 673.74 740.93 674.49 740.35 C 674.01 740.16 673.06 739.76 672.58 739.56 C 673.06 737.20 673.42 734.82 673.60 732.42 C 674.67 732.14 675.75 731.87 676.85 731.62 C 674.93 730.81 672.22 730.64 671.51 728.33 C 670.89 727.25 671.73 726.18 672.05 725.18 C 672.81 726.14 673.59 727.13 674.37 728.11 C 674.37 726.47 674.39 724.83 674.43 723.21 C 672.62 723.66 670.31 725.43 669.19 722.94 C 677.56 718.48 686.07 714.28 694.76 710.46 C 694.90 570.97 694.77 431.48 694.82 292.00 C 694.87 266.55 686.54 241.77 674.38 219.66 C 658.31 190.51 636.11 165.26 612.17 142.35 C 616.08 142.39 618.13 146.06 620.96 148.15 C 621.57 147.47 622.18 146.80 622.80 146.12 C 618.87 143.47 621.16 138.78 620.20 134.97 C 619.65 132.06 620.69 129.11 620.06 126.19 C 619.33 122.53 621.71 119.01 620.58 115.39 C 619.46 110.82 618.93 105.94 620.28 101.36 C 619.24 100.83 618.21 100.31 617.18 99.78 C 617.36 99.46 617.71 98.80 617.89 98.47 C 618.70 98.87 619.52 99.26 620.35 99.65 C 619.80 97.52 618.44 95.83 616.76 94.48 C 616.90 93.96 617.18 92.93 617.32 92.41 Z" />
</g>
<g id="#b3843cff">
<path fill="#b3843c" opacity="1.00" d=" M 307.49 172.37 C 325.89 146.49 347.89 123.33 371.56 102.22 C 377.68 104.02 384.10 104.09 390.32 105.38 C 390.76 106.89 391.25 108.41 391.45 109.98 C 390.49 111.08 389.08 111.64 387.89 112.42 C 388.79 114.76 388.80 117.25 387.70 119.53 C 388.42 120.01 389.16 120.48 389.90 120.95 C 389.19 121.48 388.48 122.01 387.78 122.54 C 389.22 125.14 389.73 128.07 388.72 130.92 C 389.47 132.63 391.15 134.41 390.31 136.40 C 388.45 140.01 384.83 142.21 382.29 145.27 C 381.20 146.09 381.54 147.41 381.55 148.57 C 354.00 175.96 328.83 206.99 314.64 243.54 C 314.38 238.81 315.88 234.11 314.87 229.41 C 314.10 224.87 314.72 219.83 318.04 216.40 C 316.87 214.76 316.39 212.84 316.81 210.87 C 317.45 206.67 315.29 202.66 315.90 198.48 C 316.21 195.99 314.98 193.71 314.20 191.44 C 315.41 191.49 316.64 191.53 317.86 191.58 C 316.95 189.41 315.52 187.14 316.33 184.70 C 317.12 181.77 315.47 178.91 315.99 175.97 C 316.45 174.59 315.05 173.50 313.82 173.31 C 311.74 172.83 309.60 172.63 307.49 172.37 Z" />
</g>
<g id="#049599ff">
<path fill="#049599" opacity="1.00" d=" M 422.37 157.35 C 435.44 145.44 448.66 133.70 461.84 121.91 C 462.50 125.57 463.33 129.22 463.63 132.93 C 463.77 134.44 462.22 135.28 461.36 136.27 C 446.31 149.59 431.05 162.69 416.60 176.67 C 402.68 189.91 389.11 203.51 375.31 216.88 C 374.73 213.26 373.94 209.66 373.69 206.00 C 373.38 204.55 374.70 203.55 375.52 202.58 C 390.97 187.34 406.24 171.89 422.37 157.35 Z" />
<path fill="#049599" opacity="1.00" d=" M 620.81 194.79 C 622.79 191.31 627.35 188.79 631.20 190.82 C 634.89 193.05 637.65 196.87 638.65 201.05 C 638.93 204.91 636.84 208.41 635.77 212.02 C 631.64 211.16 630.36 205.53 626.00 204.78 C 622.79 204.37 621.37 207.86 620.49 210.31 C 616.69 221.28 613.98 232.59 611.48 243.91 C 610.37 248.66 608.87 253.87 605.09 257.16 C 604.37 255.67 603.88 254.09 603.68 252.45 C 602.12 241.78 597.58 231.88 592.89 222.28 C 591.93 220.54 590.81 217.29 588.24 218.25 C 586.43 219.33 584.44 220.81 582.29 219.57 C 578.59 217.30 574.19 214.65 573.26 210.05 C 572.92 205.53 577.18 202.76 578.97 199.04 C 579.73 197.05 581.95 195.88 583.98 196.83 C 589.93 199.95 595.51 204.27 598.82 210.24 C 603.88 218.41 605.28 228.03 607.56 237.18 C 610.94 222.79 612.84 207.57 620.81 194.79 Z" />
<path fill="#049599" opacity="1.00" d=" M 622.28 293.17 C 620.02 282.01 628.16 270.07 639.16 267.60 C 644.27 266.54 650.57 268.00 653.18 272.92 C 657.22 280.93 656.05 290.60 652.54 298.59 C 645.44 316.79 631.94 331.96 615.83 342.77 C 614.64 343.31 613.46 345.06 612.05 343.95 C 619.32 334.90 626.57 325.83 633.68 316.65 C 638.09 311.13 642.69 305.20 643.59 297.96 C 644.19 293.40 640.61 288.64 635.91 288.47 C 630.83 288.07 626.78 291.50 622.28 293.17 Z" />
<path fill="#049599" opacity="1.00" d=" M 344.38 297.40 C 350.08 295.04 358.02 295.99 361.29 301.78 C 364.44 307.94 364.48 315.36 362.65 321.93 C 356.38 342.09 342.30 359.20 324.97 370.98 C 323.45 371.81 322.06 373.74 320.15 372.99 C 328.38 362.60 336.72 352.29 344.76 341.75 C 348.14 337.49 350.91 332.51 351.71 327.07 C 352.41 322.42 348.75 317.47 343.92 317.38 C 339.05 317.24 334.80 319.99 330.73 322.31 C 327.93 312.18 335.00 301.21 344.38 297.40 Z" />
<path fill="#049599" opacity="1.00" d=" M 627.42 394.40 C 629.01 390.99 630.94 387.75 632.94 384.56 C 643.78 392.16 650.81 404.17 653.60 416.98 C 656.80 429.99 655.98 443.74 652.40 456.58 C 649.87 465.78 645.81 474.53 644.02 483.93 C 643.27 488.90 643.40 494.16 645.10 498.94 C 646.04 501.62 649.33 503.27 651.95 501.85 C 656.12 499.67 657.78 494.88 660.81 491.52 C 659.87 499.14 658.63 507.39 653.23 513.28 C 650.83 516.12 646.33 517.10 643.22 514.85 C 639.52 512.32 638.59 507.56 637.74 503.46 C 635.88 491.47 640.20 479.75 643.49 468.41 C 647.84 457.16 650.69 444.93 648.54 432.86 C 646.40 419.66 638.83 407.90 629.29 398.77 C 628.22 397.61 626.35 396.17 627.42 394.40 Z" />
<path fill="#049599" opacity="1.00" d=" M 502.52 441.52 C 514.73 423.84 528.24 407.10 541.84 390.48 C 542.63 392.58 543.38 394.71 543.80 396.92 C 529.77 413.37 516.88 430.72 504.14 448.17 C 503.62 446.00 501.99 443.74 502.52 441.52 Z" />
<path fill="#049599" opacity="1.00" d=" M 347.36 397.33 C 348.11 396.51 348.77 395.38 350.02 395.34 C 363.71 393.05 377.64 395.73 390.85 399.36 C 393.64 400.17 396.89 400.84 398.59 403.48 C 400.38 406.21 399.74 409.77 398.48 412.60 C 396.04 418.06 392.00 422.58 388.03 426.98 C 383.76 431.50 379.18 436.15 373.16 438.21 C 362.53 442.04 351.17 443.39 339.96 444.12 C 338.06 444.53 337.46 441.65 339.22 441.15 C 352.70 435.02 366.30 429.10 379.47 422.32 C 374.41 419.74 368.66 419.19 363.11 418.56 C 353.12 417.68 343.06 416.74 333.05 417.80 C 333.19 416.81 333.54 415.91 334.09 415.09 C 338.12 408.89 342.60 402.99 347.36 397.33 Z" />
<path fill="#049599" opacity="1.00" d=" M 354.01 488.97 C 355.09 484.02 358.00 479.64 360.84 475.52 C 364.74 477.97 366.52 482.42 368.47 486.39 C 375.42 500.93 376.65 517.92 372.57 533.45 C 371.03 539.19 367.46 544.18 366.32 550.04 C 366.62 551.94 367.99 553.44 369.51 554.51 C 375.42 558.85 381.44 563.81 384.26 570.79 C 386.17 575.33 384.79 580.39 382.60 584.55 C 379.38 590.45 374.15 595.38 367.78 597.66 C 362.34 599.66 355.79 598.53 351.43 594.70 C 347.36 591.00 347.17 584.92 348.12 579.88 C 350.08 569.58 355.59 560.49 360.46 551.36 C 367.33 537.33 370.52 520.42 364.69 505.48 C 362.42 499.22 358.25 493.97 354.01 488.97 M 357.40 570.43 C 355.57 573.62 353.95 577.29 354.82 581.04 C 355.91 585.27 360.99 587.10 364.93 586.25 C 369.41 585.36 373.89 584.01 377.78 581.57 C 377.48 579.21 375.72 577.49 374.31 575.73 C 370.79 571.70 367.14 567.76 363.11 564.23 C 360.23 565.17 358.81 568.00 357.40 570.43 Z" />
<path fill="#049599" opacity="1.00" d=" M 555.46 497.41 C 557.38 494.29 560.74 491.01 564.75 492.29 C 571.55 494.70 576.53 502.72 573.69 509.82 C 572.97 511.64 571.75 515.72 569.13 513.92 C 566.47 511.41 564.24 507.10 559.99 507.58 C 556.75 508.47 555.57 512.09 554.57 514.92 C 550.87 527.32 549.14 540.21 545.48 552.61 C 544.59 555.47 543.86 558.47 542.12 560.96 C 541.37 561.82 540.80 563.50 539.39 562.74 C 538.90 561.59 538.58 560.38 538.37 559.17 C 536.67 546.83 530.86 535.60 525.26 524.66 C 523.58 521.17 519.70 524.44 517.05 524.53 C 512.29 524.41 507.57 520.71 506.72 515.95 C 506.67 510.61 508.82 505.28 512.47 501.40 C 513.86 499.92 516.13 499.44 518.00 500.28 C 524.43 502.88 529.49 508.22 532.64 514.31 C 536.73 522.55 539.00 531.52 541.98 540.18 L 542.64 539.73 C 546.41 525.53 546.85 509.87 555.46 497.41 Z" />
<path fill="#049599" opacity="1.00" d=" M 642.24 549.27 C 643.66 547.68 645.82 549.00 645.43 551.00 C 645.10 553.97 643.42 556.57 642.59 559.41 C 639.76 568.77 636.75 578.14 635.37 587.86 C 634.65 593.68 634.96 599.92 637.74 605.21 C 639.85 609.09 645.03 610.45 648.94 608.55 C 654.46 606.03 657.47 600.42 661.20 595.95 C 662.15 594.47 664.74 596.06 663.47 597.54 C 660.18 605.48 657.36 613.67 653.14 621.18 C 647.74 630.08 632.47 629.36 627.88 620.05 C 625.12 614.15 624.41 607.49 624.36 601.04 C 624.71 584.79 630.75 569.29 638.17 555.05 C 639.29 552.99 640.22 550.64 642.24 549.27 Z" />
<path fill="#049599" opacity="1.00" d=" M 557.17 597.26 C 558.31 595.04 559.06 592.17 561.53 591.07 C 562.08 593.08 561.71 595.19 561.10 597.15 C 556.88 609.54 554.09 622.35 551.16 635.09 C 549.73 642.94 548.78 651.71 552.78 658.98 C 554.73 662.99 560.47 664.99 564.06 661.92 C 566.69 659.26 568.36 655.86 570.22 652.66 C 572.78 653.22 572.04 656.28 571.71 658.16 C 570.37 663.69 568.71 669.50 564.75 673.78 C 561.75 677.17 556.53 678.14 552.44 676.30 C 549.58 674.96 548.16 671.96 546.84 669.28 C 543.82 663.06 542.89 655.95 543.71 649.11 C 545.68 631.29 550.54 613.88 557.17 597.26 Z" />
<path fill="#049599" opacity="1.00" d=" M 441.19 619.24 C 443.13 616.02 447.10 613.27 450.92 615.10 C 454.91 617.08 458.33 620.68 459.44 625.08 C 460.26 629.03 459.22 633.47 456.63 636.58 C 455.19 637.67 453.88 635.97 453.04 635.00 C 450.99 632.64 448.53 629.43 444.98 630.11 C 442.12 631.18 440.91 634.32 439.97 636.98 C 435.65 651.21 434.02 666.15 429.09 680.22 C 428.31 682.45 426.82 684.32 425.16 685.98 C 424.33 684.36 423.69 682.63 423.47 680.84 C 421.74 668.89 416.03 658.03 410.66 647.39 C 408.97 643.49 404.90 647.05 402.01 647.06 C 397.25 646.70 392.55 642.92 391.93 638.07 C 392.11 632.81 394.16 627.60 397.83 623.81 C 399.40 622.15 401.94 621.99 403.90 623.03 C 410.57 626.01 415.66 631.81 418.68 638.38 C 422.29 646.37 424.60 654.87 427.38 663.18 C 427.55 662.86 427.89 662.23 428.06 661.92 C 431.63 647.52 432.27 631.69 441.19 619.24 Z" />
<path fill="#049599" opacity="1.00" d=" M 356.92 630.91 C 361.46 629.15 367.68 630.48 369.68 635.33 C 373.30 643.66 370.53 652.97 366.76 660.73 C 361.73 671.60 353.90 681.05 344.52 688.45 C 342.37 690.08 340.30 691.91 337.75 692.90 C 338.10 691.94 338.59 691.06 339.22 690.27 C 345.10 682.77 350.78 675.12 356.43 667.44 C 359.19 663.80 361.48 659.60 362.07 655.02 C 362.63 651.02 359.10 646.73 354.90 647.38 C 351.37 647.51 348.72 650.18 345.44 651.03 C 344.18 642.77 349.04 633.87 356.92 630.91 Z" />
<path fill="#049599" opacity="1.00" d=" M 620.15 671.22 C 623.77 670.03 627.54 669.36 631.30 668.74 C 632.63 680.62 629.32 692.73 622.77 702.66 C 613.69 717.36 599.08 727.92 583.18 734.23 C 572.97 738.57 561.33 742.17 554.82 751.87 C 552.68 754.29 552.38 758.64 555.54 760.36 C 560.01 762.56 565.08 760.49 569.80 760.37 C 563.37 764.89 556.16 769.52 547.98 769.17 C 544.50 769.11 541.14 766.52 540.67 762.99 C 539.99 758.58 542.82 754.72 545.29 751.37 C 553.08 741.73 565.05 737.11 575.95 731.98 C 588.90 727.35 601.35 719.71 608.83 707.85 C 615.16 698.09 617.91 686.42 618.40 674.90 C 618.53 673.57 618.46 671.58 620.15 671.22 Z" />
</g>
<g id="#b78a42ff">
<path fill="#b78a42" opacity="1.00" d=" M 477.77 153.81 C 480.29 142.50 491.15 134.97 502.25 133.73 C 499.95 143.17 498.30 152.84 498.89 162.59 C 498.86 169.28 500.41 175.93 503.40 181.92 C 496.40 184.47 488.55 184.21 482.05 188.15 C 477.31 177.47 475.44 165.32 477.77 153.81 Z" />
<path fill="#b78a42" opacity="1.00" d=" M 550.19 183.13 C 553.38 180.40 555.64 176.79 558.32 173.60 C 559.55 183.21 557.90 193.78 551.23 201.19 C 543.88 209.39 532.93 212.66 522.82 216.02 C 517.51 217.55 512.12 218.84 506.78 220.27 C 493.77 222.91 481.41 227.81 469.00 232.40 C 461.97 234.80 455.11 237.66 448.37 240.80 C 442.92 243.33 437.45 245.82 432.15 248.67 C 427.23 247.25 422.91 244.35 417.96 243.03 C 414.20 241.95 410.12 241.46 407.00 238.87 C 419.24 230.13 432.33 222.70 445.43 215.35 C 450.75 212.76 456.14 210.27 461.68 208.16 C 470.62 204.98 479.85 202.64 489.13 200.67 C 496.56 199.19 503.97 197.60 511.38 196.05 C 519.42 194.44 527.44 192.74 535.35 190.59 C 540.76 189.22 545.90 186.72 550.19 183.13 Z" />
<path fill="#b78a42" opacity="1.00" d=" M 448.23 247.21 C 455.05 243.23 462.60 240.62 469.92 237.70 L 470.63 237.96 C 472.83 245.00 474.90 252.11 476.55 259.31 C 471.55 254.81 467.58 249.32 463.46 244.04 C 464.20 248.80 464.92 253.57 465.58 258.35 C 460.05 258.20 454.78 256.11 449.25 256.17 C 448.60 259.41 448.14 262.77 448.78 266.06 C 454.48 268.31 460.91 268.52 466.91 269.88 C 509.47 278.12 552.79 281.58 596.08 282.84 C 597.72 285.81 597.19 289.32 596.79 292.53 C 595.64 298.79 593.77 305.04 590.42 310.49 C 589.41 311.97 588.13 313.93 586.08 313.73 C 563.13 312.40 540.06 314.64 517.62 319.50 C 498.49 323.37 479.93 329.58 461.84 336.82 C 457.05 338.79 452.06 340.22 447.25 342.14 C 437.76 345.21 428.42 351.45 418.03 349.08 C 404.74 346.43 393.45 337.98 383.78 328.85 C 393.92 329.22 403.98 327.23 413.77 324.78 C 415.62 324.10 418.15 323.95 419.10 321.94 C 419.48 319.61 419.30 317.24 419.27 314.90 C 429.08 312.90 439.11 312.12 449.12 312.21 C 456.39 312.51 462.86 308.68 469.80 307.17 C 475.35 305.59 480.96 304.21 486.61 303.05 C 480.65 302.57 474.73 301.74 468.83 300.78 C 462.14 299.66 455.48 298.39 448.83 297.12 C 424.67 292.66 400.54 286.90 375.89 286.24 C 373.03 284.76 373.99 280.97 374.59 278.46 C 377.50 269.08 382.75 260.57 388.67 252.80 C 397.44 255.01 406.29 256.88 415.07 259.03 C 426.07 261.49 437.07 263.92 448.10 266.18 C 448.06 259.86 448.11 253.53 448.23 247.21 Z" />
<path fill="#b78a42" opacity="1.00" d=" M 524.39 321.61 C 540.79 327.23 555.79 336.77 567.76 349.31 C 577.47 359.55 586.68 370.71 592.11 383.87 C 601.21 405.19 606.10 428.07 609.05 450.99 C 615.10 500.18 611.65 550.08 603.81 598.87 C 600.07 622.51 594.76 645.85 589.32 669.14 C 589.55 663.87 591.04 658.78 591.77 653.59 C 599.83 604.56 603.67 554.60 599.88 504.98 C 596.94 469.69 590.10 434.02 573.78 402.28 C 565.70 387.08 555.80 372.59 543.04 360.92 C 531.34 350.21 516.96 342.38 501.47 338.82 C 502.13 337.75 502.34 336.26 503.46 335.54 C 507.40 333.10 511.53 330.98 515.38 328.40 C 518.37 326.11 521.18 323.59 524.39 321.61 Z" />
<path fill="#b78a42" opacity="1.00" d=" M 461.46 349.45 C 463.00 349.06 464.27 350.18 465.60 350.76 C 461.12 373.46 459.80 398.97 472.65 419.33 C 468.46 420.56 464.13 421.24 459.79 421.62 C 452.37 414.60 447.55 405.07 445.95 395.00 C 443.65 380.67 445.28 366.12 446.25 351.74 C 451.30 350.84 456.39 350.21 461.46 349.45 Z" />
<path fill="#b78a42" opacity="1.00" d=" M 491.44 351.36 C 492.03 349.51 494.28 349.01 495.70 350.31 C 502.13 354.54 508.58 358.73 514.92 363.09 C 516.77 364.25 518.45 366.75 517.17 368.89 C 514.24 375.83 510.95 382.61 507.77 389.44 C 499.52 383.95 491.03 378.80 482.99 373.03 C 482.86 372.51 482.61 371.47 482.48 370.96 C 485.12 364.28 488.41 357.87 491.44 351.36 Z" />
<path fill="#b78a42" opacity="1.00" d=" M 461.11 465.64 C 466.47 465.20 471.83 466.18 477.19 465.69 C 480.75 469.04 483.79 473.09 485.16 477.85 C 488.08 487.79 484.08 499.71 475.11 505.20 C 472.44 506.93 469.38 507.89 466.33 508.67 C 461.32 504.97 456.39 500.96 452.43 496.16 C 460.31 493.74 466.48 486.25 466.88 477.96 C 466.98 473.17 463.99 469.16 461.11 465.64 Z" />
<path fill="#b78a42" opacity="1.00" d=" M 450.48 517.67 C 457.24 518.24 463.92 519.44 470.64 520.32 L 470.72 520.33 C 477.65 533.36 476.23 550.79 465.96 561.69 C 461.73 566.24 456.50 569.76 450.69 571.93 C 438.51 576.42 424.65 571.32 416.14 562.07 C 424.75 561.96 433.97 560.63 441.00 555.30 C 451.58 546.46 456.80 530.46 450.48 517.67 Z" />
<path fill="#b78a42" opacity="1.00" d=" M 472.64 562.88 C 489.12 566.88 503.53 577.58 513.65 591.00 C 505.27 586.09 497.16 580.55 487.92 577.31 C 480.08 574.63 471.87 573.12 463.64 572.26 C 466.66 569.15 470.49 566.76 472.64 562.88 Z" />
<path fill="#b78a42" opacity="1.00" d=" M 494.95 593.38 C 500.48 593.77 504.51 598.20 509.09 600.85 C 515.00 604.43 520.09 609.26 526.23 612.43 C 535.36 632.18 537.24 654.46 535.62 675.93 C 534.05 694.56 527.48 713.60 513.59 726.66 C 492.93 746.40 460.24 750.94 434.27 739.76 C 416.92 732.49 403.22 717.76 396.06 700.48 C 410.02 714.67 429.02 724.29 449.06 725.29 C 465.07 726.00 481.69 722.98 495.42 714.41 C 506.02 707.80 514.19 696.62 515.28 683.96 C 516.38 670.85 513.01 657.94 510.42 645.19 C 506.82 627.50 501.75 610.11 494.95 593.38 Z" />
</g>
<g id="#a67832ff">
<path fill="#a67832" opacity="1.00" d=" M 502.25 133.73 C 507.83 133.58 513.43 134.06 518.88 135.32 C 515.94 139.65 516.68 145.04 515.90 149.96 C 515.64 155.15 514.53 160.25 514.33 165.44 C 509.41 163.55 504.14 162.77 498.89 162.59 C 498.30 152.84 499.95 143.17 502.25 133.73 Z" />
</g>
<g id="#b68941ff">
<path fill="#b68941" opacity="1.00" d=" M 518.88 135.32 C 534.30 139.33 548.90 149.50 555.79 164.17 C 550.94 167.49 546.33 171.17 541.31 174.23 C 537.88 176.32 535.12 179.58 531.02 180.41 C 527.25 173.81 521.53 168.14 514.33 165.44 C 514.53 160.25 515.64 155.15 515.90 149.96 C 516.68 145.04 515.94 139.65 518.88 135.32 Z" />
</g>
<g id="#a0722dff">
<path fill="#a0722d" opacity="1.00" d=" M 555.79 164.17 L 555.84 164.13 C 557.01 167.18 557.93 170.34 558.32 173.60 C 555.64 176.79 553.38 180.40 550.19 183.13 C 545.90 186.72 540.76 189.22 535.35 190.59 C 534.22 187.07 532.87 183.62 531.02 180.41 C 535.12 179.58 537.88 176.32 541.31 174.23 C 546.33 171.17 550.94 167.49 555.79 164.17 Z" />
</g>
<g id="#b68840ff">
<path fill="#b68840" opacity="1.00" d=" M 266.26 268.91 C 271.18 233.77 287.13 201.09 307.49 172.37 C 309.60 172.63 311.74 172.83 313.82 173.31 C 315.05 173.50 316.45 174.59 315.99 175.97 C 315.47 178.91 317.12 181.77 316.33 184.70 C 315.52 187.14 316.95 189.41 317.86 191.58 C 316.64 191.53 315.41 191.49 314.20 191.44 C 314.98 193.71 316.21 195.99 315.90 198.48 C 315.29 202.66 317.45 206.67 316.81 210.87 C 316.39 212.84 316.87 214.76 318.04 216.40 C 314.72 219.83 314.10 224.87 314.87 229.41 C 315.88 234.11 314.38 238.81 314.64 243.54 C 309.02 258.71 305.40 274.75 305.35 290.98 C 305.36 430.82 305.33 570.66 305.37 710.50 C 312.88 713.93 320.32 717.54 327.61 721.43 C 327.03 724.57 331.03 725.91 331.55 728.77 C 331.45 730.17 330.93 731.49 330.56 732.85 C 330.99 734.31 332.50 735.87 331.41 737.39 C 330.31 739.26 329.38 741.35 329.87 743.58 C 330.68 747.10 328.60 750.72 330.37 754.08 C 331.33 759.03 331.85 764.52 329.14 769.06 C 308.70 756.46 286.88 746.33 264.63 737.39 C 264.66 595.26 264.64 453.13 264.64 311.00 C 264.73 296.96 264.11 282.84 266.26 268.91 Z" />
</g>
<g id="#ac7e37ff">
<path fill="#ac7e37" opacity="1.00" d=" M 482.05 188.15 C 488.55 184.21 496.40 184.47 503.40 181.92 C 504.39 184.02 505.49 186.08 506.61 188.13 C 505.00 190.72 501.54 189.65 499.02 190.22 C 494.14 190.60 489.75 192.93 485.11 194.27 C 484.05 192.25 483.03 190.21 482.05 188.15 Z" />
</g>
<g id="#9f712cff">
<path fill="#9f712c" opacity="1.00" d=" M 506.61 188.13 C 508.18 190.79 509.85 193.38 511.38 196.05 C 503.97 197.60 496.56 199.19 489.13 200.67 C 487.73 198.57 486.39 196.44 485.11 194.27 C 489.75 192.93 494.14 190.60 499.02 190.22 C 501.54 189.65 505.00 190.72 506.61 188.13 Z" />
</g>
<g id="#b2843eff">
<path fill="#b2843e" opacity="1.00" d=" M 448.57 206.18 C 450.75 200.73 452.67 195.14 455.45 189.95 C 457.36 194.49 458.77 199.21 460.32 203.88 C 456.39 204.58 452.52 205.59 448.57 206.18 Z" />
</g>
<g id="#a47834ff">
<path fill="#a47834" opacity="1.00" d=" M 448.57 206.18 C 452.52 205.59 456.39 204.58 460.32 203.88 C 460.76 205.30 461.21 206.73 461.68 208.16 C 456.14 210.27 450.75 212.76 445.43 215.35 C 446.28 212.22 447.41 209.20 448.57 206.18 Z" />
</g>
<g id="#a3742fff">
<path fill="#a3742f" opacity="1.00" d=" M 506.78 220.27 C 512.12 218.84 517.51 217.55 522.82 216.02 C 523.89 217.66 524.95 219.31 526.01 220.97 C 522.85 223.57 519.29 225.60 515.71 227.56 L 515.47 227.70 C 512.59 225.20 509.59 222.85 506.78 220.27 Z" />
</g>
<g id="#b3863eff">
<path fill="#b3863e" opacity="1.00" d=" M 515.71 227.56 C 519.29 225.60 522.85 223.57 526.01 220.97 C 531.07 228.87 536.34 236.63 541.46 244.50 C 532.45 239.56 523.66 234.09 515.71 227.56 Z" />
</g>
<g id="#a97c38ff">
<path fill="#a97c38" opacity="1.00" d=" M 448.37 240.80 C 455.11 237.66 461.97 234.80 469.00 232.40 C 469.39 233.96 470.32 235.45 470.26 237.10 L 469.92 237.70 C 462.60 240.62 455.05 243.23 448.23 247.21 C 448.28 245.07 448.33 242.93 448.37 240.80 Z" />
</g>
<g id="#ad8039ff">
<path fill="#ad8039" opacity="1.00" d=" M 399.55 244.25 C 402.02 242.43 404.47 240.60 407.00 238.87 C 410.12 241.46 414.20 241.95 417.96 243.03 C 422.91 244.35 427.23 247.25 432.15 248.67 C 429.79 249.90 427.45 251.19 425.16 252.54 C 420.00 250.98 415.20 248.38 409.93 247.21 C 406.41 246.42 402.94 245.44 399.55 244.25 Z" />
</g>
<g id="#9d6f2bff">
<path fill="#9d6f2b" opacity="1.00" d=" M 388.67 252.80 C 392.24 249.88 395.85 247.00 399.55 244.25 C 402.94 245.44 406.41 246.42 409.93 247.21 C 415.20 248.38 420.00 250.98 425.16 252.54 C 421.71 254.56 418.34 256.72 415.07 259.03 C 406.29 256.88 397.44 255.01 388.67 252.80 Z" />
</g>
<g id="#a37733ff">
<path fill="#a37733" opacity="1.00" d=" M 449.25 256.17 C 454.78 256.11 460.05 258.20 465.58 258.35 C 466.08 262.18 466.53 266.03 466.91 269.88 C 460.91 268.52 454.48 268.31 448.78 266.06 C 448.14 262.77 448.60 259.41 449.25 256.17 Z" />
</g>
<g id="#9b6f2eff">
<path fill="#9b6f2e" opacity="1.00" d=" M 448.83 297.12 C 455.48 298.39 462.14 299.66 468.83 300.78 C 468.85 302.99 468.87 305.20 468.90 307.42 L 469.80 307.17 C 462.86 308.68 456.39 312.51 449.12 312.21 C 449.17 307.17 449.00 302.15 448.83 297.12 Z" />
</g>
<g id="#a47126ff">
<path fill="#a47126" opacity="1.00" d=" M 383.78 328.85 C 394.78 322.39 406.81 317.64 419.27 314.90 C 419.30 317.24 419.48 319.61 419.10 321.94 C 418.15 323.95 415.62 324.10 413.77 324.78 C 403.98 327.23 393.92 329.22 383.78 328.85 Z" />
</g>
<g id="#a9762eff">
<path fill="#a9762e" opacity="1.00" d=" M 461.84 336.82 C 479.93 329.58 498.49 323.37 517.62 319.50 C 519.92 320.03 522.13 320.89 524.39 321.61 C 521.18 323.59 518.37 326.11 515.38 328.40 C 511.53 330.98 507.40 333.10 503.46 335.54 C 502.34 336.26 502.13 337.75 501.47 338.82 C 490.28 336.30 478.67 335.87 467.29 337.28 C 467.09 339.12 466.89 340.96 466.68 342.81 C 460.11 343.64 453.60 345.22 446.93 345.11 C 447.01 344.36 447.17 342.88 447.25 342.14 C 452.06 340.22 457.05 338.79 461.84 336.82 Z" />
</g>
<g id="#ac7f3aff">
<path fill="#ac7f3a" opacity="1.00" d=" M 446.93 345.11 C 453.60 345.22 460.11 343.64 466.68 342.81 C 466.32 345.45 465.95 348.10 465.60 350.76 C 464.27 350.18 463.00 349.06 461.46 349.45 C 456.39 350.21 451.30 350.84 446.25 351.74 C 446.46 349.53 446.68 347.31 446.93 345.11 Z" />
</g>
<g id="#a7762cff">
<path fill="#a7762c" opacity="1.00" d=" M 472.65 419.33 L 472.74 419.31 C 478.02 427.97 486.32 435.18 496.41 437.39 C 495.38 440.08 493.71 442.45 491.91 444.68 L 491.84 444.63 C 490.53 443.75 489.26 442.68 487.65 442.48 C 482.05 441.38 476.25 440.51 471.15 437.80 C 469.88 437.05 468.44 436.70 467.00 436.51 C 468.98 434.66 470.88 432.66 472.13 430.23 C 467.70 427.84 463.48 425.04 459.79 421.62 C 464.13 421.24 468.46 420.56 472.65 419.33 Z" />
</g>
<g id="#b2833cff">
<path fill="#b2833c" opacity="1.00" d=" M 467.00 436.51 C 468.44 436.70 469.88 437.05 471.15 437.80 C 476.25 440.51 482.05 441.38 487.65 442.48 C 489.26 442.68 490.53 443.75 491.84 444.63 C 487.03 450.03 481.37 454.98 474.38 457.27 C 469.49 451.57 462.00 449.40 456.69 444.24 C 460.31 441.92 463.77 439.36 467.00 436.51 Z" />
</g>
<g id="#a6762fff">
<path fill="#a6762f" opacity="1.00" d=" M 438.92 445.71 C 444.79 447.15 451.18 446.85 456.69 444.24 C 462.00 449.40 469.49 451.57 474.38 457.27 C 471.03 458.23 467.51 458.30 464.12 457.55 C 468.84 459.62 473.47 462.05 477.19 465.69 C 471.83 466.18 466.47 465.20 461.11 465.64 L 461.01 465.65 C 454.15 458.46 446.65 451.93 438.92 445.71 Z" />
</g>
<g id="#ae7e36ff">
<path fill="#ae7e36" opacity="1.00" d=" M 433.23 486.87 C 437.53 492.97 444.62 497.94 452.43 496.16 C 456.39 500.96 461.32 504.97 466.33 508.67 C 464.46 508.86 462.58 509.18 460.71 509.06 C 456.16 507.47 451.32 506.45 447.30 503.67 C 443.16 501.06 440.43 496.73 436.04 494.47 L 435.76 494.30 C 434.83 491.85 433.98 489.37 433.23 486.87 Z" />
</g>
<g id="#a37530ff">
<path fill="#a37530" opacity="1.00" d=" M 436.04 494.47 C 440.43 496.73 443.16 501.06 447.30 503.67 C 451.32 506.45 456.16 507.47 460.71 509.06 C 464.80 512.01 468.19 515.92 470.64 520.32 C 463.92 519.44 457.24 518.24 450.48 517.67 C 447.58 512.33 444.17 507.28 440.56 502.40 C 438.79 499.92 436.95 497.41 436.04 494.47 Z" />
</g>
<g id="#a67329ff">
<path fill="#a67329" opacity="1.00" d=" M 416.14 562.07 C 419.61 558.44 424.05 555.54 429.07 554.73 C 433.04 554.00 437.06 554.78 441.00 555.30 C 433.97 560.63 424.75 561.96 416.14 562.07 Z" />
</g>
<g id="#af7f37ff">
<path fill="#af7f37" opacity="1.00" d=" M 450.69 571.93 C 456.50 569.76 461.73 566.24 465.96 561.69 C 468.19 562.00 470.43 562.37 472.64 562.88 C 470.49 566.76 466.66 569.15 463.64 572.26 C 459.33 571.98 455.01 571.83 450.69 571.93 Z" />
</g>
<g id="#a06e29ff">
<path fill="#a06e29" opacity="1.00" d=" M 487.92 577.31 C 497.16 580.55 505.27 586.09 513.65 591.00 C 518.78 597.52 522.89 604.84 526.23 612.43 C 520.09 609.26 515.00 604.43 509.09 600.85 C 504.51 598.20 500.48 593.77 494.95 593.38 C 492.71 587.97 490.24 582.67 487.92 577.31 Z" />
</g>
<g id="#b18239ff">
<path fill="#b18239" opacity="1.00" d=" M 331.55 728.77 C 331.03 725.91 327.03 724.57 327.61 721.43 C 364.61 740.88 398.67 765.91 428.33 795.36 C 427.45 797.35 426.29 799.38 426.38 801.65 C 426.28 804.20 428.24 806.21 428.62 808.65 C 428.39 812.67 424.42 817.22 428.17 820.71 C 428.03 821.85 427.71 823.03 428.01 824.19 C 429.08 827.52 426.48 830.90 428.72 834.06 C 427.83 834.71 426.95 835.36 426.07 836.03 C 426.76 836.48 427.46 836.94 428.16 837.41 C 427.97 842.43 427.40 847.46 427.98 852.48 C 426.86 852.17 425.75 851.86 424.64 851.57 C 397.67 819.02 365.23 791.05 329.14 769.06 C 331.85 764.52 331.33 759.03 330.37 754.08 C 328.60 750.72 330.68 747.10 329.87 743.58 C 329.38 741.35 330.31 739.26 331.41 737.39 C 332.50 735.87 330.99 734.31 330.56 732.85 C 330.93 731.49 331.45 730.17 331.55 728.77 Z" />
</g>
<g id="#a57126ff">
<path fill="#a57126" opacity="1.00" d=" M 601.83 767.63 C 622.77 750.61 645.36 735.61 669.19 722.94 C 670.31 725.43 672.62 723.66 674.43 723.21 C 674.39 724.83 674.37 726.47 674.37 728.11 C 673.59 727.13 672.81 726.14 672.05 725.18 C 671.73 726.18 670.89 727.25 671.51 728.33 C 672.22 730.64 674.93 730.81 676.85 731.62 C 675.75 731.87 674.67 732.14 673.60 732.42 C 673.42 734.82 673.06 737.20 672.58 739.56 C 673.06 739.76 674.01 740.16 674.49 740.35 C 673.74 740.93 673.02 741.53 672.29 742.13 C 672.81 743.71 673.34 745.29 673.66 746.94 C 674.56 750.23 672.64 754.16 675.74 756.70 C 674.42 756.66 673.10 756.63 671.80 756.62 C 673.03 757.58 674.32 758.50 675.43 759.64 C 676.10 760.80 674.91 761.59 674.26 762.40 C 672.69 763.89 672.54 766.19 671.89 768.15 C 647.14 782.94 624.17 800.66 603.36 820.62 C 603.29 816.86 606.77 814.72 608.53 811.78 C 607.86 811.06 607.19 810.35 606.54 809.64 C 607.08 807.82 607.92 806.02 607.93 804.10 C 607.14 802.87 606.12 801.84 605.15 800.77 C 605.56 800.63 606.38 800.33 606.79 800.18 C 606.28 797.68 606.07 795.12 606.54 792.60 C 607.24 789.86 605.56 787.22 606.25 784.50 C 606.68 782.97 605.19 781.89 604.56 780.69 C 605.25 780.14 605.94 779.62 606.65 779.10 C 606.10 777.16 604.44 774.89 605.96 772.99 C 606.55 771.57 608.21 770.29 607.49 768.63 C 606.02 767.06 603.70 767.77 601.83 767.63 Z" />
</g>
<g id="#a8762bff">
<path fill="#a8762b" opacity="1.00" d=" M 601.83 767.63 C 603.70 767.77 606.02 767.06 607.49 768.63 C 608.21 770.29 606.55 771.57 605.96 772.99 C 604.44 774.89 606.10 777.16 606.65 779.10 C 605.94 779.62 605.25 780.14 604.56 780.69 C 605.19 781.89 606.68 782.97 606.25 784.50 C 605.56 787.22 607.24 789.86 606.54 792.60 C 606.07 795.12 606.28 797.68 606.79 800.18 C 606.38 800.33 605.56 800.63 605.15 800.77 C 606.12 801.84 607.14 802.87 607.93 804.10 C 607.92 806.02 607.08 807.82 606.54 809.64 C 607.19 810.35 607.86 811.06 608.53 811.78 C 606.77 814.72 603.29 816.86 603.36 820.62 C 581.91 841.52 562.91 864.90 546.89 890.20 C 545.72 889.13 545.84 887.74 546.17 886.37 C 545.56 886.02 544.97 885.68 544.38 885.35 C 544.85 885.20 545.77 884.88 546.23 884.72 C 545.73 880.04 543.68 875.37 544.85 870.65 C 545.94 867.50 543.53 864.29 545.12 861.21 C 544.41 859.74 543.31 858.34 543.29 856.65 C 543.25 853.72 545.10 851.23 545.53 848.41 C 545.34 846.41 544.85 844.43 545.07 842.41 C 544.44 842.01 543.81 841.62 543.19 841.24 C 543.80 841.12 545.02 840.88 545.63 840.75 C 544.79 839.87 543.96 839.00 543.14 838.14 C 544.62 835.29 544.31 832.10 543.66 829.09 C 543.40 829.71 542.87 830.95 542.60 831.57 C 541.55 831.22 540.51 830.88 539.47 830.56 C 557.92 807.43 578.90 786.33 601.83 767.63 Z" />
</g>
<g id="#af8036ff">
<path fill="#af8036" opacity="1.00" d=" M 481.58 775.41 C 488.35 775.40 495.12 775.47 501.89 775.40 C 502.78 776.70 504.64 777.74 504.46 779.55 C 504.41 787.51 504.39 795.48 504.50 803.45 C 503.62 803.96 502.75 804.49 501.88 805.02 C 499.04 804.76 495.91 806.14 495.10 809.07 C 493.87 812.45 496.53 816.00 499.90 816.56 C 499.81 828.83 500.35 841.13 499.58 853.38 C 497.30 836.74 486.59 821.85 472.43 813.08 C 481.26 802.90 484.70 788.51 481.58 775.41 Z" />
</g>
<g id="#a7742aff">
<path fill="#a7742a" opacity="1.00" d=" M 501.89 775.40 C 508.20 775.44 514.51 775.42 520.83 775.42 C 517.09 788.13 520.15 802.37 528.62 812.52 C 514.40 821.86 504.30 837.30 501.32 854.04 C 500.91 841.56 501.20 829.07 501.16 816.59 C 504.20 816.03 506.78 813.18 506.23 809.98 C 506.01 807.51 503.90 806.01 501.88 805.02 C 502.75 804.49 503.62 803.96 504.50 803.45 C 504.39 795.48 504.41 787.51 504.46 779.55 C 504.64 777.74 502.78 776.70 501.89 775.40 Z" />
</g>
<g id="#ac7b31ff">
<path fill="#ac7b31" opacity="1.00" d=" M 428.33 795.36 C 456.05 822.80 479.88 854.15 499.02 888.13 C 499.52 889.96 501.03 888.32 501.29 887.38 C 512.39 867.41 525.23 848.41 539.47 830.56 C 540.51 830.88 541.55 831.22 542.60 831.57 C 542.87 830.95 543.40 829.71 543.66 829.09 C 544.31 832.10 544.62 835.29 543.14 838.14 C 543.96 839.00 544.79 839.87 545.63 840.75 C 545.02 840.88 543.80 841.12 543.19 841.24 C 543.81 841.62 544.44 842.01 545.07 842.41 C 544.85 844.43 545.34 846.41 545.53 848.41 C 545.10 851.23 543.25 853.72 543.29 856.65 C 543.31 858.34 544.41 859.74 545.12 861.21 C 543.53 864.29 545.94 867.50 544.85 870.65 C 543.68 875.37 545.73 880.04 546.23 884.72 C 545.77 884.88 544.85 885.20 544.38 885.35 C 544.97 885.68 545.56 886.02 546.17 886.37 C 545.84 887.74 545.72 889.13 546.89 890.20 C 538.49 903.68 530.79 917.62 524.11 932.04 C 515.79 950.43 508.27 969.18 500.27 987.71 C 490.51 965.81 481.80 943.43 471.01 922.00 C 458.19 896.93 442.61 873.27 424.64 851.57 C 425.75 851.86 426.86 852.17 427.98 852.48 C 427.40 847.46 427.97 842.43 428.16 837.41 C 427.46 836.94 426.76 836.48 426.07 836.03 C 426.95 835.36 427.83 834.71 428.72 834.06 C 426.48 830.90 429.08 827.52 428.01 824.19 C 427.71 823.03 428.03 821.85 428.17 820.71 C 424.42 817.22 428.39 812.67 428.62 808.65 C 428.24 806.21 426.28 804.20 426.38 801.65 C 426.29 799.38 427.45 797.35 428.33 795.36 Z" />
</g>
</svg>
