<?xml version="1.0" encoding="UTF-8" ?>
<!DOCTYPE svg PUBLIC "-//W3C//DTD SVG 1.1//EN" "http://www.w3.org/Graphics/SVG/1.1/DTD/svg11.dtd">
<svg width="176pt" height="60pt" viewBox="0 0 176 60" version="1.1" xmlns="http://www.w3.org/2000/svg">
<g id="#0e4346fe">
<path fill="#0e4346" opacity="1.00" d=" M 26.85 0.00 L 27.51 0.00 C 34.72 2.73 42.44 7.10 45.19 14.77 C 46.23 16.90 44.77 18.92 43.97 20.83 C 43.06 22.51 43.20 24.47 43.08 26.32 C 42.74 27.71 42.41 29.11 42.10 30.51 C 42.84 30.17 44.31 29.50 45.05 29.16 C 44.83 25.83 44.68 22.35 46.39 19.34 C 46.80 23.05 47.20 26.78 48.36 30.35 C 49.46 33.69 45.53 35.49 43.42 37.22 C 43.12 39.86 42.60 42.65 40.55 44.54 C 37.86 47.64 32.49 47.44 31.01 51.70 C 28.06 52.63 25.15 51.80 22.59 50.25 C 25.19 49.74 27.80 49.32 30.40 48.80 C 32.61 44.64 37.69 44.19 41.55 42.35 C 39.79 41.93 38.02 41.55 36.25 41.17 C 37.04 39.39 37.40 37.30 38.76 35.84 C 40.30 34.83 42.10 34.33 43.80 33.67 C 44.29 32.57 44.77 31.47 45.25 30.37 C 43.53 30.47 42.21 31.22 41.64 32.89 C 41.20 32.08 40.73 31.28 40.24 30.50 C 39.45 30.82 37.87 31.45 37.08 31.76 C 37.55 32.40 38.50 33.68 38.98 34.32 C 37.88 33.85 36.79 33.38 35.70 32.91 C 35.29 35.48 35.08 38.07 34.85 40.66 C 33.43 42.06 32.01 43.48 30.62 44.92 C 30.03 44.88 28.86 44.78 28.28 44.74 C 27.75 46.10 27.21 47.45 26.64 48.79 C 26.81 46.16 26.90 43.48 26.18 40.92 C 27.22 40.53 28.23 40.11 29.23 39.64 C 28.48 39.26 26.98 38.51 26.23 38.13 C 26.22 37.62 26.21 36.61 26.20 36.10 C 26.76 36.20 27.87 36.42 28.43 36.52 C 28.44 35.72 28.46 34.11 28.47 33.30 C 27.74 33.56 26.29 34.07 25.56 34.33 C 26.26 33.15 26.96 31.98 27.66 30.79 C 26.70 30.74 24.77 30.63 23.81 30.58 C 23.58 31.18 23.12 32.39 22.89 33.00 C 22.29 33.22 21.07 33.65 20.47 33.86 C 20.89 36.04 19.67 39.51 21.72 40.85 C 22.46 38.85 22.91 36.75 23.48 34.70 C 24.53 39.39 25.06 44.28 23.82 48.99 C 23.38 48.55 22.51 47.67 22.07 47.23 C 21.56 47.95 20.54 49.39 20.04 50.11 C 20.40 50.43 21.14 51.06 21.50 51.37 C 21.03 52.75 20.56 54.13 20.09 55.51 C 20.82 55.59 22.28 55.74 23.01 55.81 C 23.51 54.78 24.01 53.75 24.51 52.72 C 25.32 53.64 26.12 54.57 26.93 55.49 C 28.38 54.82 29.83 54.15 31.31 53.53 C 30.05 54.59 28.76 55.62 27.49 56.67 C 29.11 56.51 30.72 56.34 32.33 56.12 C 32.86 56.31 33.90 56.67 34.42 56.86 C 35.93 56.11 37.63 55.54 38.60 54.06 C 37.66 53.15 36.67 52.30 35.68 51.45 C 35.20 53.02 34.68 54.59 33.94 56.07 C 33.82 53.90 33.70 51.73 33.80 49.56 C 34.40 50.07 35.60 51.09 36.21 51.60 C 37.11 50.69 38.01 49.79 38.90 48.88 C 39.84 47.94 40.77 46.99 41.70 46.04 C 42.54 47.12 43.40 48.19 44.26 49.25 C 44.65 48.05 44.93 46.82 45.08 45.57 C 44.42 45.29 43.10 44.72 42.44 44.44 C 43.44 44.09 44.43 43.73 45.43 43.36 C 45.17 41.66 44.92 39.96 44.68 38.25 C 46.00 37.42 47.32 36.58 48.65 35.75 C 48.61 43.83 48.63 51.91 48.63 60.00 L 5.02 60.00 C 5.83 59.92 7.44 59.75 8.25 59.67 C 9.50 58.48 10.75 57.30 12.00 56.12 C 11.41 54.98 10.81 53.85 10.20 52.72 C 11.58 53.98 13.07 55.12 14.64 56.13 C 14.23 54.74 13.82 53.36 13.39 51.98 C 14.30 52.41 15.22 52.85 16.13 53.29 C 16.27 52.59 16.56 51.20 16.70 50.51 C 17.68 50.87 18.66 51.24 19.64 51.60 C 19.62 50.49 19.59 49.38 19.56 48.27 C 20.90 46.99 23.71 45.21 22.23 43.09 C 21.33 42.27 20.42 41.46 19.49 40.69 C 19.65 39.75 19.81 38.81 19.98 37.87 C 19.28 37.87 17.88 37.86 17.17 37.86 C 16.48 37.09 15.78 36.33 15.08 35.57 C 14.57 36.34 13.55 37.87 13.05 38.64 C 14.17 38.54 16.41 38.36 17.53 38.26 C 16.19 39.52 14.85 40.77 13.50 42.02 C 13.48 43.59 13.45 45.18 13.41 46.76 C 12.26 45.88 11.10 45.02 9.94 44.17 C 9.73 45.00 9.30 46.65 9.09 47.48 C 8.29 47.46 6.69 47.42 5.89 47.40 C 6.52 41.62 5.30 35.80 6.16 30.05 C 6.43 27.73 8.22 26.10 9.66 24.44 C 8.91 20.46 8.29 16.09 10.43 12.41 C 13.91 6.20 20.48 2.61 26.85 0.00 M 26.45 5.47 C 25.99 7.11 26.56 7.67 28.18 7.17 C 28.65 5.54 28.08 4.98 26.45 5.47 M 21.25 6.51 C 19.59 8.15 22.73 8.72 23.39 7.31 C 25.01 5.64 21.93 5.13 21.25 6.51 M 30.95 5.96 C 30.27 7.37 32.64 8.60 33.73 7.82 C 34.36 6.44 32.03 5.18 30.95 5.96 M 29.19 7.31 C 27.56 7.73 28.42 10.28 29.96 9.83 C 31.61 9.45 30.72 6.84 29.19 7.31 M 24.27 8.26 C 24.31 11.70 27.29 6.75 24.27 8.26 M 17.35 9.66 C 17.21 10.07 16.93 10.90 16.78 11.31 C 18.87 14.72 21.08 7.74 17.35 9.66 M 21.05 9.46 C 19.85 10.79 22.12 13.37 23.42 11.84 C 24.56 10.46 22.41 8.32 21.05 9.46 M 30.01 10.84 C 30.61 11.36 31.81 12.38 32.41 12.90 C 34.21 12.12 33.92 10.05 34.29 8.47 C 32.61 8.77 31.30 9.81 30.01 10.84 M 34.75 8.46 C 35.01 10.11 35.41 11.72 35.97 13.29 C 36.69 12.68 38.12 11.46 38.83 10.86 C 37.54 9.95 36.19 9.10 34.75 8.46 M 26.58 10.20 C 26.04 11.58 26.50 12.07 27.96 11.66 C 28.49 10.30 28.03 9.81 26.58 10.20 M 14.25 12.74 C 12.43 14.14 15.03 16.37 16.35 14.68 C 17.80 13.38 15.46 11.25 14.25 12.74 M 22.64 13.06 C 22.98 13.64 23.65 14.79 23.99 15.36 C 24.91 15.32 26.76 15.24 27.68 15.20 C 26.93 13.92 26.16 12.65 25.37 11.40 C 24.68 11.81 23.32 12.65 22.64 13.06 M 29.19 12.24 C 27.39 12.69 27.89 15.96 29.89 15.14 C 31.86 14.72 31.13 11.59 29.19 12.24 M 38.93 12.24 C 36.74 12.63 38.08 15.66 39.92 15.11 C 41.97 14.79 40.59 11.76 38.93 12.24 M 16.32 15.99 C 17.66 17.14 19.01 18.29 20.38 19.41 C 21.42 18.21 22.47 17.02 23.52 15.83 C 22.62 14.59 21.73 13.34 20.90 12.05 C 19.29 13.26 17.77 14.59 16.32 15.99 M 30.79 15.94 C 32.10 17.12 33.39 18.32 34.70 19.50 C 35.86 18.24 37.02 16.99 38.19 15.75 C 36.91 14.53 35.62 13.33 34.34 12.11 C 33.17 13.39 31.97 14.66 30.79 15.94 M 14.04 16.61 C 12.69 17.93 15.16 20.43 16.42 18.89 C 17.61 17.49 15.37 15.50 14.04 16.61 M 23.79 19.26 C 25.76 20.83 26.74 17.55 27.95 16.64 C 25.95 15.94 21.41 16.13 23.79 19.26 M 28.09 17.98 C 28.29 20.15 31.63 19.45 30.90 17.41 C 30.50 15.63 27.37 15.96 28.09 17.98 M 37.35 17.72 C 37.85 18.36 38.85 19.64 39.34 20.28 C 40.98 18.84 41.60 16.98 40.38 15.02 C 39.34 15.88 38.33 16.78 37.35 17.72 M 15.57 20.26 C 16.61 21.73 18.12 22.61 19.93 22.88 C 19.91 21.65 19.88 20.43 19.83 19.21 C 18.26 18.87 16.84 19.32 15.57 20.26 M 21.60 22.22 C 23.21 22.57 24.55 19.89 22.64 19.33 C 20.87 18.78 20.27 21.38 21.60 22.22 M 27.09 19.28 C 25.45 19.63 26.12 22.36 27.75 21.76 C 29.33 21.36 28.68 18.78 27.09 19.28 M 32.10 19.27 C 30.46 19.82 31.27 22.64 32.96 22.26 C 34.59 21.76 33.70 18.91 32.10 19.27 M 36.17 19.30 C 34.61 19.76 34.92 22.88 36.77 22.18 C 38.35 21.71 37.95 18.75 36.17 19.30 M 13.36 20.42 C 13.62 20.68 13.62 20.68 13.36 20.42 M 40.63 19.81 C 40.16 21.27 40.61 21.78 41.96 21.35 C 42.42 19.86 41.98 19.35 40.63 19.81 M 14.50 22.13 C 13.93 23.77 14.46 24.36 16.09 23.89 C 16.66 22.26 16.13 21.67 14.50 22.13 M 23.98 22.13 C 23.44 23.77 23.98 24.34 25.60 23.85 C 26.14 22.20 25.60 21.63 23.98 22.13 M 28.95 22.22 C 28.58 23.63 29.10 24.07 30.51 23.55 C 30.86 22.12 30.34 21.68 28.95 22.22 M 38.56 22.25 C 38.06 23.65 38.54 24.13 39.98 23.69 C 40.47 22.31 39.99 21.83 38.56 22.25 M 17.16 24.27 C 15.48 25.60 18.05 27.84 19.23 26.18 C 20.77 24.77 18.46 22.53 17.16 24.27 M 21.16 24.08 C 19.99 25.30 21.98 27.59 23.26 26.29 C 24.51 25.11 22.38 22.97 21.16 24.08 M 27.31 24.35 C 26.01 25.01 26.02 25.69 27.34 26.40 C 28.65 25.74 28.65 25.06 27.31 24.35 M 31.48 24.21 C 30.01 25.46 32.13 27.89 33.42 26.29 C 34.98 24.94 32.88 22.32 31.48 24.21 M 35.40 23.99 C 34.25 25.30 36.10 27.83 37.54 26.42 C 38.92 25.18 36.77 22.59 35.40 23.99 M 36.92 28.24 C 38.19 29.60 39.99 29.88 41.75 29.62 C 41.08 28.24 40.38 26.87 39.66 25.51 C 38.75 26.42 37.83 27.32 36.92 28.24 M 12.67 29.59 C 14.57 29.91 16.34 29.47 17.74 28.12 C 17.13 27.52 15.92 26.31 15.31 25.70 C 14.39 26.97 13.51 28.27 12.67 29.59 M 27.39 29.36 C 28.82 30.11 30.32 29.39 31.76 29.12 C 31.08 27.94 30.38 26.77 29.68 25.61 C 28.78 26.77 27.82 27.93 27.39 29.36 M 11.53 27.50 C 10.12 27.60 9.54 30.29 11.24 30.36 C 12.67 30.29 13.23 27.56 11.53 27.50 M 20.00 26.45 C 18.83 27.75 17.67 29.05 16.52 30.36 C 17.74 31.47 18.96 32.58 20.18 33.69 C 21.34 32.55 22.48 31.40 23.62 30.23 C 22.41 28.97 21.21 27.71 20.00 26.45 M 23.63 26.83 C 22.25 29.53 25.09 29.56 26.92 30.04 C 26.74 28.75 26.56 27.46 26.36 26.18 C 25.68 26.34 24.31 26.66 23.63 26.83 M 30.82 30.11 C 31.96 31.34 33.14 32.54 34.27 33.78 C 35.53 32.57 36.77 31.35 38.03 30.14 C 36.91 28.92 35.79 27.71 34.68 26.48 C 33.38 27.68 32.11 28.90 30.82 30.11 M 9.67 31.32 C 8.20 32.61 10.40 34.90 11.72 33.36 C 13.56 32.05 11.02 29.83 9.67 31.32 M 13.83 32.55 C 14.28 34.17 17.12 33.89 16.71 32.07 C 16.35 30.51 13.07 30.67 13.83 32.55 M 29.26 33.73 C 31.22 34.41 31.84 31.23 29.89 30.85 C 27.84 30.01 27.44 33.28 29.26 33.73 M 30.74 34.27 C 29.78 36.51 32.85 36.73 34.10 37.71 C 34.29 35.88 33.72 34.18 32.81 32.63 C 32.29 33.04 31.26 33.86 30.74 34.27 M 11.97 34.16 C 11.46 35.81 12.01 36.37 13.62 35.84 C 14.13 34.18 13.58 33.62 11.97 34.16 M 17.15 34.00 C 15.85 35.33 18.10 37.60 19.50 36.57 C 20.52 35.25 18.61 32.74 17.15 34.00 M 10.23 36.11 C 8.70 36.48 9.33 39.12 10.87 38.66 C 12.48 38.28 11.87 35.61 10.23 36.11 M 29.26 36.18 C 27.67 36.53 28.21 39.18 29.84 38.66 C 31.44 38.33 30.91 35.61 29.26 36.18 M 32.31 38.18 C 30.62 38.52 30.79 41.58 32.74 40.84 C 34.44 40.54 34.26 37.36 32.31 38.18 M 12.13 39.01 C 11.68 40.39 12.18 40.90 13.61 40.53 C 14.04 39.15 13.55 38.64 12.13 39.01 M 9.49 41.44 C 8.20 43.81 11.04 44.19 12.71 44.49 C 12.93 42.85 11.22 38.66 9.49 41.44 M 29.29 41.02 C 27.49 41.46 27.70 44.74 29.83 43.84 C 31.85 43.57 31.30 40.26 29.29 41.02 M 41.17 48.18 C 39.57 48.56 40.27 51.14 41.83 50.66 C 43.48 50.31 42.79 47.61 41.17 48.18 M 38.62 50.91 C 38.15 52.33 38.62 52.80 40.03 52.33 C 40.51 50.91 40.04 50.43 38.62 50.91 M 43.06 50.89 C 42.57 52.54 43.13 53.11 44.73 52.61 C 45.21 50.94 44.66 50.37 43.06 50.89 M 18.19 52.32 C 16.96 52.66 16.38 54.81 17.85 55.25 C 19.78 55.71 20.48 51.63 18.19 52.32 M 41.29 53.31 C 39.84 56.36 44.72 53.32 41.29 53.31 M 15.38 55.42 C 15.64 55.68 15.64 55.68 15.38 55.42 M 23.69 56.02 C 24.44 57.19 25.20 57.17 25.96 55.95 C 25.22 54.75 24.46 54.77 23.69 56.02 M 38.37 55.39 C 37.40 56.67 39.72 57.59 40.54 56.67 C 41.43 55.44 39.16 54.37 38.37 55.39 M 42.49 56.67 C 43.72 57.33 44.61 57.04 45.14 55.78 C 45.03 53.67 41.33 54.99 42.49 56.67 Z" />
<path fill="#0e4346" opacity="1.00" d=" M 67.41 16.20 C 67.89 14.99 69.12 15.33 69.68 16.27 C 72.15 20.67 72.69 25.99 75.89 30.02 C 74.40 30.01 72.90 30.00 71.41 30.00 C 71.23 28.39 71.02 26.79 70.78 25.19 C 68.93 25.14 67.08 25.14 65.23 25.18 C 65.04 26.75 64.95 28.33 65.09 29.90 C 64.18 29.92 62.35 29.96 61.44 29.98 C 64.33 25.81 65.42 20.79 67.41 16.20 M 65.88 23.83 C 67.36 23.86 68.85 23.88 70.34 23.88 C 69.68 22.05 69.00 20.23 68.29 18.42 C 67.37 20.17 66.58 21.99 65.88 23.83 Z" />
<path fill="#0e4346" opacity="1.00" d=" M 83.13 15.35 C 84.67 15.41 86.22 15.46 87.77 15.49 C 86.01 19.59 86.75 24.11 86.60 28.44 C 89.41 29.19 91.87 27.93 93.94 26.12 C 93.65 27.35 93.61 28.68 93.00 29.81 C 89.57 30.18 86.11 29.95 82.67 30.05 C 84.90 25.58 84.34 20.06 83.13 15.35 Z" />
<path fill="#0e4346" opacity="1.00" d=" M 50.74 48.17 C 50.70 43.76 49.05 38.92 51.63 34.93 C 52.22 38.49 52.42 42.10 52.71 45.70 C 52.05 46.52 51.40 47.35 50.74 48.17 Z" />
<path fill="#0e4346" opacity="1.00" d=" M 123.24 35.66 C 126.57 35.86 131.47 34.39 133.30 38.13 C 134.24 40.37 132.24 42.13 130.98 43.68 C 132.23 46.08 133.84 48.25 135.59 50.30 C 130.42 51.33 130.96 44.31 126.66 43.50 C 126.40 45.78 126.70 48.05 127.54 50.19 C 125.82 50.11 124.10 50.04 122.39 49.97 C 122.81 49.48 123.64 48.48 124.06 47.99 C 124.23 43.86 124.34 39.69 123.24 35.66 M 126.35 42.90 C 127.43 42.76 128.50 42.58 129.56 42.34 C 131.31 41.65 130.85 39.40 131.24 37.93 C 129.71 37.36 128.17 36.80 126.63 36.27 C 126.45 38.47 126.37 40.68 126.35 42.90 Z" />
<path fill="#0e4346" opacity="1.00" d=" M 62.92 35.59 C 68.49 35.09 68.62 42.09 71.06 45.56 C 72.98 42.54 73.88 38.90 76.17 36.14 C 77.02 35.98 78.72 35.66 79.56 35.50 C 77.66 40.10 78.13 45.41 79.69 50.04 C 78.41 49.97 77.13 49.90 75.86 49.83 C 76.30 46.26 76.30 42.65 75.90 39.07 C 74.20 42.16 73.18 45.56 71.51 48.66 C 71.20 48.77 70.59 49.00 70.28 49.12 C 68.50 45.89 67.39 42.33 65.49 39.16 C 65.24 42.72 65.51 46.28 65.52 49.84 C 64.75 49.94 63.22 50.13 62.46 50.23 C 64.47 45.72 64.68 40.22 62.92 35.59 Z" />
<path fill="#0e4346" opacity="1.00" d=" M 87.86 35.68 C 89.49 35.63 91.13 35.58 92.76 35.52 C 91.30 40.15 90.63 45.76 93.08 50.17 C 91.21 50.13 89.35 50.12 87.49 50.13 C 88.32 48.88 89.23 47.59 89.11 46.00 C 89.17 42.54 89.63 38.83 87.86 35.68 Z" />
<path fill="#0e4346" opacity="1.00" d=" M 100.74 35.66 C 102.29 35.65 103.84 35.64 105.39 35.62 C 104.93 37.66 104.67 39.74 104.76 41.83 C 106.89 41.85 109.02 41.85 111.16 41.82 C 111.09 39.74 110.84 37.67 110.46 35.62 C 112.01 35.65 113.56 35.68 115.11 35.71 C 113.25 40.16 112.92 45.82 115.07 50.22 C 113.51 50.17 111.96 50.13 110.41 50.08 C 110.92 47.94 112.00 45.41 110.70 43.38 C 108.62 43.09 106.53 43.36 104.47 43.55 C 104.58 45.78 104.86 47.99 105.43 50.15 C 103.81 50.13 102.19 50.12 100.58 50.12 C 101.44 48.90 102.29 47.59 102.12 46.02 C 102.07 42.55 102.82 38.71 100.74 35.66 Z" />
<path fill="#0e4346" opacity="1.00" d=" M 141.57 50.03 C 145.08 45.53 145.06 39.14 148.96 34.98 C 152.00 39.73 152.48 45.70 156.05 50.14 C 154.53 50.11 153.01 50.09 151.50 50.06 C 151.33 48.41 151.07 46.78 150.76 45.15 C 148.79 45.57 145.46 44.33 144.94 47.06 C 145.01 47.83 145.16 49.37 145.24 50.14 C 144.32 50.11 142.48 50.06 141.57 50.03 M 145.99 44.10 C 147.08 44.09 149.25 44.06 150.34 44.05 C 149.77 42.22 149.18 40.39 148.52 38.59 C 147.33 40.25 146.62 42.17 145.99 44.10 Z" />
<path fill="#0e4346" opacity="1.00" d=" M 162.69 35.65 C 165.84 35.91 169.53 34.80 172.29 36.73 C 174.38 38.30 172.68 40.71 171.82 42.42 C 173.48 43.92 175.41 46.46 173.48 48.57 C 170.68 51.26 166.36 49.92 162.89 50.16 C 164.64 47.05 164.12 43.37 164.14 39.95 C 164.31 38.34 163.49 36.97 162.69 35.65 M 166.56 36.57 C 166.53 38.46 166.52 40.35 166.54 42.24 C 168.46 42.07 171.76 41.74 171.00 38.94 C 171.12 36.52 168.13 36.85 166.56 36.57 M 166.55 42.88 C 166.52 45.00 166.53 47.13 166.58 49.25 C 168.28 48.92 170.56 49.36 171.67 47.66 C 171.84 46.55 171.77 45.46 171.47 44.38 C 170.28 42.95 168.17 43.32 166.55 42.88 Z" />
<path fill="#0e4346" opacity="1.00" d=" M 15.70 43.66 C 16.42 42.70 17.15 41.76 17.88 40.82 C 18.47 43.43 18.80 46.58 16.51 48.53 C 13.14 51.59 7.71 53.60 3.40 51.52 C 0.25 49.02 2.70 44.85 4.56 42.34 C 4.39 44.34 2.82 46.69 4.53 48.41 C 8.37 50.48 12.79 48.36 16.51 46.97 C 16.31 46.14 15.90 44.49 15.70 43.66 Z" />
<path fill="#0e4346" opacity="1.00" d=" M 5.90 56.57 C 6.55 55.71 7.19 54.85 7.84 54.00 C 8.36 54.31 9.38 54.93 9.90 55.25 C 9.18 56.21 8.46 57.17 7.74 58.14 C 7.28 57.75 6.36 56.96 5.90 56.57 Z" />
</g>
</svg>
