<svg width="156" height="88" viewBox="0 0 156 88" fill="none" xmlns="http://www.w3.org/2000/svg">
<path d="M20.6683 1.24C23.1383 0.57 26.7483 1.54 26.6483 4.67C26.8683 10.52 24.5483 16.07 23.7383 21.81C22.6683 27.35 22.7783 33.02 22.0883 38.62C21.8583 42.48 21.0783 46.65 23.0083 50.24C24.4983 49.99 26.1183 49.82 27.2683 48.73C31.4983 45.24 34.6283 40.66 37.8583 36.29C42.1983 30.4 45.5083 23.35 52.0183 19.47C55.6983 17.37 59.8283 14.76 64.2483 15.71C67.6183 16.65 71.4483 18.72 71.9883 22.54C73.4183 30.73 70.8383 39.15 72.8583 47.29C75.0483 55.31 80.8083 62.85 89.0683 65.18C101.838 69.09 115.658 66.97 127.998 62.47C134.648 59.85 141.158 56.83 147.948 54.55C150.558 53.72 153.588 53.79 155.868 55.46C154.888 60.02 151.348 63.37 148.038 66.39C139.428 73.63 129.568 79.42 119.078 83.49C105.898 88.68 91.1783 89.14 77.4183 86.18C71.0983 84.57 64.2483 81.64 61.2183 75.45C57.6683 68.8 58.7283 61.05 57.6683 53.84C54.8483 54.86 52.9883 57.34 51.0383 59.49C44.9483 66.74 40.0583 75.15 32.3983 80.95C28.6383 83.75 24.3083 86.86 19.3583 86.27C14.9183 85.61 12.1483 81.54 10.2383 77.85C5.16829 67.53 3.43829 56.01 2.21829 44.69C1.42829 37.05 -0.371714 29.46 0.068286 21.74C0.108286 17.48 3.11829 14.19 5.76829 11.18C9.85829 6.82 14.7483 2.72 20.6683 1.24Z" fill="#15313C"/>
<path d="M90.5783 16.14C94.0583 10.74 97.8983 5.58 101.108 0C103.148 4.03 106.108 7.79 110.248 9.8C114.338 11.78 119.138 13.15 121.888 17.05C123.228 18.75 122.098 20.94 121.218 22.57C117.618 28.78 115.288 36.16 109.188 40.49C108.168 40.43 107.248 40.11 106.428 39.51C100.498 35.55 94.4883 31.55 89.7983 26.11C87.4283 23.14 88.7183 19.01 90.5783 16.14Z" fill="#15313C"/>
</svg>
