<svg width="894" height="569" viewBox="0 0 894 569" fill="none" xmlns="http://www.w3.org/2000/svg">
<path d="M559.107 7.43662C573.513 5.44643 588.504 8.24181 601.253 15.2227C613.097 21.6414 623.018 31.5012 629.593 43.2373C636.093 54.7455 639.286 68.0919 638.685 81.2864C637.279 109.613 616.746 135.523 589.918 144.342C574.631 149.591 557.503 148.976 542.535 142.952C519.47 133.928 502.282 111.891 498.808 87.4393C496.619 72.1559 499.583 56.1811 507.193 42.7435C517.729 23.738 537.502 10.1636 559.107 7.43662Z" fill="#1E40AF"/>
<path d="M318.67 244.733C333.486 243.837 348.668 247.224 361.409 254.912C372.302 261.444 381.296 271.069 387.104 282.357C393.664 294.951 396.249 309.551 394.5 323.642C392.714 339.176 385.545 354.011 374.56 365.14C365.187 374.718 353.008 381.585 339.872 384.388C325.595 387.487 310.399 385.847 296.959 380.21C283.792 374.642 272.465 364.896 264.954 352.758C256.592 339.449 252.798 323.247 254.79 307.629C256.622 291.533 264.065 276.135 275.528 264.688C286.893 253.165 302.462 245.736 318.67 244.733Z" fill="#1E40AF"/>
<path d="M803.201 7.48218C815.045 6.15285 827.072 8.4165 838.186 12.5108C855.138 18.7625 869.696 31.7519 876.865 48.4482C885.303 68.0235 884.627 91.4349 874.531 110.281C866.093 126.597 850.646 138.736 833.237 144.281C811.001 150.996 789.061 158.889 768.148 169.037C746.209 179.672 725.417 192.836 706.982 208.826C688.874 224.36 673.047 242.727 661.385 263.579C652.445 279.265 645.983 296.28 641.582 313.759C638.579 326.954 635.234 340.346 628.217 352.066C617.468 370.571 597.216 382.482 576.235 385.224C563.684 386.766 550.677 384.882 539.175 379.587C522.716 372.265 509.565 358.136 502.997 341.417C500.351 335.439 499.104 328.982 496.976 322.829C488.195 294.624 476.435 267.263 460.927 242.082C448.71 222.279 434.411 203.516 416.873 188.104C393.748 167.548 364.039 153.754 332.954 151.908C312.049 150.654 291.059 155.751 272.465 165.209C251.149 176.048 232.47 191.598 216.514 209.304C192.917 235.724 175.98 267.293 162.152 299.699C157.028 312.058 152.314 324.599 148.156 337.322C143.694 350.768 135.172 362.838 123.89 371.437C111.225 381.183 95.1091 386.789 79.0536 385.717C63.2642 384.419 47.5964 378.919 35.2735 368.831C23.3991 359.29 15.014 345.534 12.0644 330.592C8.37743 312.02 11.7299 291.875 22.2816 276.021C31.1075 262.523 44.9737 252.671 60.3298 247.954C95.4056 237.327 130.041 223.669 160.289 202.665C182.244 187.625 201.789 168.954 217.304 147.305C229.498 130.593 238.871 111.99 246.473 92.8098C249.742 83.9375 252.547 74.9056 254.919 65.7599C258.507 52.4058 264.505 39.3784 274.168 29.2983C284.575 18.2459 298.935 11.4929 313.721 8.68237C323.969 8.26458 334.421 8.219 344.403 10.8929C359.675 14.7517 373.389 24.2621 382.443 37.1376C388.806 46.0251 392.972 56.3634 395.162 67.0436C399.951 91.6628 408.138 115.712 420.081 137.802C435.057 165.513 457.065 189.41 483.634 206.38C500.062 216.794 517.783 225.484 536.613 230.566C555.382 235.549 575.231 236.628 594.35 233.111C614.184 229.586 633.045 221.344 649.564 209.897C664.837 199.414 678.11 186.227 689.52 171.688C715.687 138.554 733.415 99.3425 744.331 58.7182C747.752 46.8303 754.153 35.7778 763.002 27.0954C773.766 16.4077 788.081 9.2141 803.201 7.48218Z" fill="#1E40AF"/>
<path d="M58.4515 528V438.4H77.9075L124.884 502.4L120.66 501.76C120.233 498.944 119.892 496.256 119.636 493.696C119.38 491.136 119.124 488.619 118.868 486.144C118.697 483.669 118.526 481.152 118.356 478.592C118.27 476.032 118.185 473.259 118.1 470.272C118.1 467.285 118.1 464.043 118.1 460.544V438.4H139.22V528H119.507L70.4835 461.952L77.0115 462.848C77.4382 466.944 77.7795 470.443 78.0355 473.344C78.3768 476.16 78.6328 478.677 78.8035 480.896C79.0595 483.115 79.2302 485.12 79.3155 486.912C79.4008 488.704 79.4435 490.496 79.4435 492.288C79.5288 493.995 79.5715 495.915 79.5715 498.048V528H58.4515ZM182.694 529.408C177.659 529.408 173.35 528.341 169.766 526.208C166.267 523.989 163.536 520.832 161.574 516.736C159.696 512.64 158.758 507.733 158.758 502.016V460.032H179.366V499.2C179.366 501.931 179.792 504.277 180.646 506.24C181.499 508.203 182.779 509.739 184.486 510.848C186.192 511.872 188.24 512.384 190.63 512.384C192.422 512.384 194.043 512.085 195.494 511.488C197.03 510.891 198.31 510.08 199.334 509.056C200.443 507.947 201.296 506.709 201.894 505.344C202.491 503.893 202.79 502.315 202.79 500.608V460.032H223.398V528H204.07L203.174 514.048L207.014 512.512C205.99 515.755 204.283 518.656 201.894 521.216C199.504 523.691 196.646 525.696 193.318 527.232C189.99 528.683 186.448 529.408 182.694 529.408ZM241.523 528V460.032H260.979L261.619 472.32L258.931 472.448C259.955 470.229 261.235 468.267 262.771 466.56C264.392 464.853 266.184 463.445 268.147 462.336C270.195 461.141 272.285 460.245 274.419 459.648C276.637 459.051 278.856 458.752 281.075 458.752C284.403 458.752 287.432 459.264 290.163 460.288C292.893 461.312 295.283 462.976 297.331 465.28C299.379 467.499 301 470.528 302.195 474.368L298.995 474.112L300.019 472.064C301.128 470.016 302.536 468.181 304.243 466.56C306.035 464.853 307.997 463.445 310.131 462.336C312.264 461.141 314.483 460.245 316.787 459.648C319.091 459.051 321.309 458.752 323.443 458.752C328.819 458.752 333.299 459.819 336.883 461.952C340.467 464 343.155 467.115 344.947 471.296C346.824 475.477 347.763 480.555 347.763 486.528V528H327.155V488.192C327.155 485.461 326.771 483.2 326.003 481.408C325.235 479.616 324.083 478.293 322.547 477.44C321.096 476.501 319.261 476.032 317.043 476.032C315.251 476.032 313.587 476.331 312.051 476.928C310.6 477.525 309.32 478.336 308.211 479.36C307.187 480.384 306.376 481.579 305.779 482.944C305.181 484.309 304.882 485.845 304.882 487.552V528H284.275V488.064C284.275 485.504 283.891 483.328 283.123 481.536C282.355 479.744 281.203 478.379 279.667 477.44C278.131 476.501 276.339 476.032 274.291 476.032C272.499 476.032 270.835 476.331 269.299 476.928C267.848 477.525 266.568 478.336 265.458 479.36C264.435 480.384 263.624 481.579 263.027 482.944C262.429 484.309 262.131 485.803 262.131 487.424V528H241.523ZM397.16 529.28C389.65 529.28 383.122 527.787 377.576 524.8C372.029 521.728 367.72 517.589 364.648 512.384C361.576 507.093 360.04 501.077 360.04 494.336C360.04 489.131 360.893 484.352 362.6 480C364.306 475.648 366.696 471.893 369.768 468.736C372.84 465.493 376.466 463.019 380.648 461.312C384.914 459.52 389.565 458.624 394.6 458.624C399.378 458.624 403.73 459.477 407.656 461.184C411.666 462.891 415.122 465.28 418.024 468.352C420.925 471.424 423.144 475.051 424.68 479.232C426.216 483.413 426.898 487.979 426.728 492.928L426.6 498.432H372.456L369.512 486.912H409.96L407.784 489.344V486.784C407.613 484.651 406.93 482.773 405.736 481.152C404.626 479.445 403.133 478.123 401.256 477.184C399.378 476.245 397.245 475.776 394.856 475.776C391.528 475.776 388.669 476.459 386.28 477.824C383.976 479.104 382.226 481.024 381.032 483.584C379.837 486.059 379.24 489.131 379.24 492.8C379.24 496.555 380.008 499.84 381.544 502.656C383.165 505.387 385.469 507.52 388.456 509.056C391.528 510.592 395.154 511.36 399.336 511.36C402.237 511.36 404.797 510.933 407.016 510.08C409.32 509.227 411.794 507.776 414.44 505.728L424.04 519.296C421.394 521.6 418.578 523.477 415.592 524.928C412.605 526.379 409.533 527.445 406.376 528.128C403.304 528.896 400.232 529.28 397.16 529.28ZM439.776 528V460.032H459.232L460.128 482.176L456.288 477.952C457.312 474.283 458.976 470.997 461.28 468.096C463.669 465.195 466.442 462.891 469.6 461.184C472.757 459.477 476.128 458.624 479.712 458.624C481.248 458.624 482.656 458.752 483.936 459.008C485.301 459.264 486.538 459.563 487.648 459.904L482.016 482.56C481.077 481.963 479.797 481.493 478.176 481.152C476.64 480.725 475.018 480.512 473.312 480.512C471.434 480.512 469.685 480.853 468.064 481.536C466.442 482.133 465.077 483.029 463.968 484.224C462.858 485.419 461.962 486.827 461.28 488.448C460.682 490.069 460.384 491.904 460.384 493.952V528H439.776ZM520.239 529.152C514.521 529.152 509.401 527.659 504.878 524.672C500.441 521.6 496.9 517.419 494.255 512.128C491.609 506.752 490.286 500.693 490.286 493.952C490.286 487.04 491.609 480.939 494.255 475.648C496.9 470.357 500.527 466.219 505.135 463.232C509.743 460.16 514.991 458.624 520.879 458.624C524.121 458.624 527.065 459.093 529.711 460.032C532.441 460.971 534.831 462.293 536.879 464C538.927 465.621 540.676 467.541 542.127 469.76C543.577 471.893 544.644 474.197 545.327 476.672L541.103 476.16V460.032H561.455V528H540.719V511.616L545.327 511.488C544.644 513.877 543.535 516.139 541.999 518.272C540.463 520.405 538.585 522.283 536.367 523.904C534.148 525.525 531.673 526.805 528.943 527.744C526.212 528.683 523.311 529.152 520.239 529.152ZM525.871 511.872C529.028 511.872 531.759 511.147 534.063 509.696C536.367 508.245 538.159 506.197 539.439 503.552C540.719 500.821 541.359 497.621 541.359 493.952C541.359 490.283 540.719 487.125 539.439 484.48C538.159 481.749 536.367 479.659 534.063 478.208C531.759 476.672 529.028 475.904 525.871 475.904C522.799 475.904 520.111 476.672 517.807 478.208C515.588 479.659 513.839 481.749 512.559 484.48C511.279 487.125 510.639 490.283 510.639 493.952C510.639 497.621 511.279 500.821 512.559 503.552C513.839 506.197 515.588 508.245 517.807 509.696C520.111 511.147 522.799 511.872 525.871 511.872ZM585.158 528V442.88H605.638V528H585.158ZM573.126 477.952V460.032H618.822V477.952H573.126ZM662.285 529.28C654.775 529.28 648.247 527.787 642.701 524.8C637.154 521.728 632.845 517.589 629.773 512.384C626.701 507.093 625.165 501.077 625.165 494.336C625.165 489.131 626.018 484.352 627.725 480C629.431 475.648 631.821 471.893 634.893 468.736C637.965 465.493 641.591 463.019 645.773 461.312C650.039 459.52 654.69 458.624 659.725 458.624C664.503 458.624 668.855 459.477 672.781 461.184C676.791 462.891 680.247 465.28 683.149 468.352C686.05 471.424 688.269 475.051 689.805 479.232C691.341 483.413 692.023 487.979 691.853 492.928L691.725 498.432H637.581L634.637 486.912H675.085L672.909 489.344V486.784C672.738 484.651 672.055 482.773 670.861 481.152C669.751 479.445 668.258 478.123 666.381 477.184C664.503 476.245 662.37 475.776 659.981 475.776C656.653 475.776 653.794 476.459 651.405 477.824C649.101 479.104 647.351 481.024 646.157 483.584C644.962 486.059 644.365 489.131 644.365 492.8C644.365 496.555 645.133 499.84 646.669 502.656C648.29 505.387 650.594 507.52 653.581 509.056C656.653 510.592 660.279 511.36 664.461 511.36C667.362 511.36 669.922 510.933 672.141 510.08C674.445 509.227 676.919 507.776 679.565 505.728L689.165 519.296C686.519 521.6 683.703 523.477 680.717 524.928C677.73 526.379 674.658 527.445 671.501 528.128C668.429 528.896 665.357 529.28 662.285 529.28ZM734.725 529.28C728.154 529.28 722.266 527.744 717.061 524.672C711.855 521.6 707.717 517.419 704.645 512.128C701.658 506.752 700.165 500.693 700.165 493.952C700.165 487.211 701.658 481.195 704.645 475.904C707.717 470.528 711.855 466.304 717.061 463.232C722.266 460.16 728.154 458.624 734.725 458.624C740.783 458.624 746.33 459.691 751.365 461.824C756.485 463.957 760.538 466.944 763.525 470.784L752.389 484.096C751.194 482.731 749.786 481.451 748.165 480.256C746.543 479.061 744.751 478.123 742.789 477.44C740.826 476.757 738.778 476.416 736.645 476.416C733.402 476.416 730.543 477.184 728.069 478.72C725.594 480.171 723.674 482.219 722.309 484.864C720.943 487.509 720.261 490.539 720.261 493.952C720.261 497.195 720.943 500.139 722.309 502.784C723.759 505.429 725.722 507.52 728.197 509.056C730.671 510.592 733.487 511.36 736.645 511.36C738.863 511.36 740.911 511.104 742.789 510.592C744.666 509.995 746.373 509.141 747.909 508.032C749.53 506.923 751.023 505.557 752.389 503.936L763.396 517.376C760.495 521.045 756.442 523.947 751.237 526.08C746.117 528.213 740.613 529.28 734.725 529.28ZM774.651 528V433.28H794.747V473.856L790.651 475.392C791.589 472.32 793.253 469.547 795.643 467.072C798.117 464.512 801.061 462.464 804.475 460.928C807.888 459.392 811.472 458.624 815.227 458.624C820.347 458.624 824.656 459.691 828.155 461.824C831.653 463.872 834.299 466.987 836.09 471.168C837.883 475.264 838.779 480.299 838.779 486.272V528H818.171V487.936C818.171 485.205 817.787 482.944 817.019 481.152C816.251 479.36 815.056 478.037 813.435 477.184C811.899 476.245 809.979 475.819 807.675 475.904C805.883 475.904 804.219 476.203 802.683 476.8C801.147 477.312 799.824 478.123 798.715 479.232C797.605 480.256 796.709 481.451 796.027 482.816C795.429 484.181 795.131 485.675 795.131 487.296V528H785.019C782.629 528 780.581 528 778.875 528C777.168 528 775.76 528 774.651 528Z" fill="#1E40AF"/>
</svg>
