<?xml version="1.0" encoding="UTF-8" ?>
<!DOCTYPE svg PUBLIC "-//W3C//DTD SVG 1.1//EN" "http://www.w3.org/Graphics/SVG/1.1/DTD/svg11.dtd">
<svg width="650pt" height="655pt" viewBox="0 0 650 655" version="1.1" xmlns="http://www.w3.org/2000/svg">
<g id="#ffffffff">
<path fill="#ffffff" opacity="1.00" d=" M 0.00 0.00 L 650.00 0.00 L 650.00 655.00 L 0.00 655.00 L 0.00 0.00 M 233.15 30.42 C 201.73 48.44 176.30 76.71 161.75 109.88 C 152.62 130.68 147.72 153.40 147.71 176.12 C 147.29 185.82 148.58 195.47 149.78 205.08 C 153.08 220.86 157.67 236.51 164.96 250.94 C 177.52 276.40 196.89 298.32 220.09 314.59 C 228.35 320.22 237.25 324.84 246.12 329.43 C 254.51 333.11 263.19 336.07 271.85 339.01 C 282.79 341.39 293.77 343.88 304.97 344.57 C 323.01 346.37 341.32 344.69 358.99 340.81 C 364.03 339.13 369.79 339.16 374.26 336.07 L 374.90 336.40 C 389.56 331.72 403.43 324.73 416.38 316.45 C 425.66 310.96 433.41 303.38 441.63 296.49 C 452.33 285.50 462.48 273.75 470.06 260.34 C 485.45 234.97 493.73 205.27 493.65 175.60 C 493.85 164.61 492.90 153.61 490.67 142.84 C 488.69 134.06 486.93 125.15 483.38 116.84 C 480.14 108.36 476.63 99.73 471.85 92.04 C 469.43 87.57 466.54 83.36 463.73 79.14 C 460.38 74.27 456.50 69.81 452.73 65.28 C 451.48 63.86 450.76 61.80 448.84 61.16 C 431.58 42.51 409.97 27.90 386.32 18.63 C 383.93 17.52 381.52 16.26 378.83 16.14 C 376.29 14.82 373.51 14.14 370.79 13.33 C 325.12 0.14 274.13 6.20 233.15 30.42 M 108.32 395.61 C 89.31 408.41 76.21 429.44 72.63 452.04 C 70.49 466.06 71.19 480.81 76.06 494.19 C 75.09 495.79 75.96 499.64 78.14 499.48 C 83.04 513.18 92.71 524.84 103.99 533.86 C 121.60 547.39 144.00 553.81 166.07 553.44 C 168.91 553.27 171.92 553.74 174.63 552.77 C 203.71 551.19 232.26 535.32 247.25 510.05 C 264.39 481.81 263.60 443.59 244.61 416.44 C 233.63 400.45 216.86 388.66 198.31 383.15 C 193.53 380.42 187.70 380.74 182.66 378.66 C 182.61 378.84 182.51 379.21 182.47 379.39 L 182.43 379.16 C 178.63 379.16 174.88 378.41 171.09 378.43 C 149.09 377.38 126.42 382.79 108.32 395.61 M 283.18 382.68 C 283.37 414.58 282.27 446.54 282.90 478.41 C 282.33 501.80 282.57 525.23 282.30 548.64 C 297.03 548.52 311.76 548.50 326.49 548.61 C 326.30 529.92 326.94 511.21 326.52 492.52 C 327.82 491.60 329.44 491.71 330.95 491.74 C 349.71 491.89 368.48 491.55 387.24 491.88 C 387.40 479.72 387.29 467.55 387.53 455.38 C 367.46 455.44 347.37 455.11 327.31 455.61 C 327.24 455.04 327.11 453.90 327.04 453.34 C 327.14 452.97 327.33 452.23 327.43 451.86 C 327.85 441.34 327.41 430.79 327.81 420.26 C 341.41 420.25 355.01 420.31 368.61 420.22 C 380.59 420.45 392.58 420.06 404.56 420.39 C 405.12 407.81 404.39 395.18 405.24 382.60 C 364.56 382.52 323.87 382.66 283.18 382.68 M 432.47 391.02 C 432.18 418.01 432.50 445.02 431.83 471.99 C 431.79 497.49 431.57 522.98 431.50 548.48 C 457.63 548.35 483.77 548.44 509.91 548.30 C 517.67 547.88 525.47 547.03 532.91 544.66 C 534.00 544.40 535.07 544.09 536.18 543.82 L 536.24 543.10 C 537.49 543.91 539.33 542.71 540.03 541.61 C 542.00 541.58 543.64 540.14 545.36 539.31 C 555.06 533.78 562.13 524.04 564.60 513.16 C 567.24 501.64 567.21 488.64 560.78 478.33 C 554.44 468.04 542.74 462.27 531.17 460.17 L 531.33 459.32 C 536.33 456.76 540.44 452.69 543.68 448.15 L 544.28 448.10 L 544.16 447.19 C 547.67 442.48 549.38 436.68 550.20 430.93 C 551.24 421.46 550.47 411.36 545.66 402.93 C 542.11 395.88 535.63 390.62 528.48 387.50 C 517.95 382.98 506.30 382.18 494.98 382.46 C 474.28 382.32 453.56 382.80 432.87 382.33 C 432.15 385.17 432.58 388.13 432.47 391.02 M 439.91 574.00 C 433.44 575.27 428.11 581.30 428.24 587.99 C 427.56 594.74 432.38 601.39 439.00 602.86 C 438.61 604.68 436.52 605.59 436.26 607.43 C 438.20 608.44 440.28 609.16 442.36 609.84 C 442.91 608.27 443.53 606.72 443.89 605.09 C 444.33 603.74 445.46 603.19 446.74 602.90 C 448.05 603.15 449.14 602.80 450.03 601.83 C 452.46 600.93 454.88 599.30 456.05 596.94 C 454.23 595.27 452.09 594.01 450.19 592.46 C 448.46 594.37 446.28 595.83 443.76 596.42 C 441.51 595.93 439.20 595.12 437.90 593.09 C 434.72 589.02 436.93 582.34 441.91 580.97 C 445.02 579.87 447.92 582.13 450.04 584.16 C 451.78 582.35 454.90 581.38 455.82 579.07 C 453.73 576.57 450.88 574.59 447.61 574.10 L 447.34 573.67 C 444.86 573.58 442.31 573.23 439.91 574.00 M 514.53 575.61 C 510.62 578.06 509.30 583.89 512.21 587.60 C 514.94 590.62 519.18 591.22 522.93 592.17 C 524.61 592.59 526.75 593.19 526.95 595.32 C 522.74 598.23 517.78 595.57 513.97 593.32 C 512.19 594.52 511.02 596.58 509.21 597.85 C 510.10 599.77 512.15 600.66 513.98 601.50 C 519.37 603.69 525.97 604.32 531.11 601.13 C 536.07 598.24 536.43 589.48 530.82 587.05 C 527.14 584.54 521.68 585.68 518.75 582.11 C 519.05 581.67 519.65 580.78 519.95 580.33 C 523.59 579.77 527.00 580.99 530.05 582.86 C 531.84 581.27 533.03 579.15 534.25 577.13 C 533.18 576.55 532.11 575.99 531.05 575.44 C 525.98 572.95 519.45 572.52 514.53 575.61 M 112.39 574.62 C 104.49 576.88 99.20 586.10 102.31 593.96 C 105.34 603.09 117.47 606.42 125.39 601.64 C 133.61 597.62 135.63 585.23 129.11 578.81 C 124.99 574.15 118.17 573.38 112.39 574.62 M 218.99 578.05 C 213.59 583.19 212.96 592.46 217.72 598.23 C 223.82 605.96 237.53 605.52 242.77 597.02 C 240.70 595.87 238.92 594.30 236.92 593.07 C 236.44 593.33 235.49 593.85 235.02 594.11 C 232.93 596.24 229.51 597.22 226.85 595.55 C 221.22 592.84 222.01 583.23 227.96 581.40 C 231.08 580.36 234.21 581.91 236.16 584.35 C 238.51 583.07 240.56 581.36 242.76 579.86 C 237.42 572.38 225.47 571.76 218.99 578.05 M 294.67 574.58 C 295.02 584.00 294.56 593.43 294.72 602.85 C 297.29 602.32 300.26 603.62 302.58 602.76 C 303.18 599.37 302.10 595.83 303.29 592.54 C 307.76 592.88 312.24 592.67 316.72 592.73 C 316.73 590.57 316.75 588.41 316.76 586.25 C 312.31 586.36 307.85 586.11 303.42 586.49 C 302.78 584.91 302.66 583.20 302.64 581.54 C 307.86 581.16 313.10 581.39 318.33 581.42 C 318.35 579.06 318.38 576.72 318.53 574.38 C 310.57 574.56 302.61 574.17 294.67 574.58 M 325.15 574.09 C 325.37 583.46 325.05 592.83 325.04 602.19 C 325.17 603.76 327.28 603.76 328.33 604.63 C 329.07 604.28 329.80 603.90 330.51 603.49 C 331.29 603.45 332.86 603.36 333.64 603.32 C 333.68 600.45 333.69 597.58 333.74 594.72 C 334.57 594.65 336.24 594.49 337.08 594.42 C 339.22 597.41 340.73 600.97 343.66 603.32 C 346.45 602.60 349.33 602.98 352.18 602.95 C 350.48 599.36 347.44 596.62 345.74 593.03 C 348.75 591.40 351.28 588.53 351.43 584.97 C 352.13 580.17 348.64 575.60 344.00 574.60 C 337.76 573.70 331.42 574.18 325.15 574.09 M 393.45 574.45 C 393.82 583.94 393.34 593.44 393.57 602.93 C 396.26 602.79 398.96 602.77 401.66 602.74 C 401.61 597.69 401.68 592.63 401.64 587.58 C 405.99 592.48 409.70 597.91 413.96 602.89 C 416.38 602.80 418.80 602.80 421.23 602.82 C 421.38 593.37 421.07 583.91 421.58 574.48 C 418.81 574.18 416.03 574.22 413.25 574.21 C 413.12 579.16 413.19 584.10 413.29 589.05 C 409.11 584.41 405.41 579.34 401.60 574.40 C 398.88 574.22 396.16 574.19 393.45 574.45 M 458.04 602.78 C 461.01 602.76 463.98 602.77 466.95 602.53 C 467.39 600.84 468.05 599.23 468.78 597.65 C 472.51 597.68 476.25 597.64 480.00 597.65 C 480.56 599.29 481.14 600.94 481.69 602.60 C 484.73 602.69 487.82 603.02 490.85 602.43 C 486.25 593.06 482.91 583.12 478.28 573.77 C 475.76 573.84 473.24 573.83 470.72 573.76 C 466.33 583.36 462.20 593.08 458.04 602.78 M 495.56 574.11 C 495.15 583.63 495.50 593.17 495.21 602.70 C 498.00 602.71 500.80 602.71 503.60 602.69 C 503.42 593.17 503.64 583.65 503.68 574.14 C 500.97 574.19 498.26 574.19 495.56 574.11 M 139.46 574.53 C 139.53 584.14 139.32 593.75 139.44 603.36 C 141.25 603.28 143.08 603.21 144.90 603.17 C 145.56 603.20 146.87 603.26 147.53 603.30 C 147.52 600.01 147.66 596.72 147.36 593.45 C 151.95 592.70 156.67 593.23 161.32 593.19 C 161.44 590.92 161.48 588.65 161.53 586.39 C 156.89 586.33 152.25 586.33 147.62 586.39 C 147.63 584.78 147.63 583.17 147.62 581.58 C 152.80 581.46 157.98 581.53 163.16 581.54 C 163.12 579.19 163.11 576.85 163.10 574.51 C 155.22 574.57 147.34 574.53 139.46 574.53 M 169.50 574.50 C 169.56 576.42 169.59 578.35 169.59 580.29 C 169.71 582.97 169.24 585.75 169.78 588.39 C 169.30 593.33 169.66 598.31 169.46 603.27 C 172.13 603.22 174.81 603.22 177.48 603.27 C 177.54 600.00 177.59 596.73 177.41 593.47 C 182.10 592.68 186.91 592.96 191.66 592.85 C 191.55 590.67 191.55 588.49 191.61 586.32 C 186.94 586.34 182.28 586.35 177.61 586.33 C 177.62 584.82 177.63 583.32 177.63 581.83 C 177.82 581.69 178.21 581.42 178.40 581.28 C 183.32 581.65 188.27 581.36 193.20 581.49 C 193.18 579.17 193.19 576.85 193.22 574.54 C 185.31 574.49 177.41 574.65 169.50 574.50 M 199.57 574.47 C 199.65 584.08 199.41 593.68 199.52 603.29 C 202.28 603.21 205.04 603.23 207.80 603.06 C 207.67 593.56 207.66 584.05 207.93 574.56 C 205.14 574.41 202.35 574.43 199.57 574.47 M 248.69 574.47 C 248.79 584.04 248.66 593.62 248.62 603.19 C 256.57 603.24 264.52 603.05 272.47 603.26 C 272.60 600.89 272.63 598.52 272.41 596.16 C 267.19 596.37 261.96 596.29 256.74 596.31 C 256.76 594.79 256.78 593.28 256.80 591.77 C 261.53 591.80 266.25 591.71 270.98 591.83 C 271.24 589.68 271.25 587.50 270.86 585.38 C 266.18 585.55 261.49 585.54 256.81 585.44 C 256.79 584.41 256.76 582.37 256.74 581.34 C 261.97 581.26 267.19 581.22 272.42 581.34 C 272.47 579.01 272.49 576.68 272.47 574.35 C 264.55 574.52 256.62 574.38 248.69 574.47 M 367.93 574.14 C 367.23 576.17 365.89 578.03 365.57 580.17 C 361.88 587.29 359.33 594.95 355.57 602.04 C 355.63 602.31 355.75 602.84 355.81 603.11 C 358.54 602.88 361.27 602.76 364.01 602.73 C 365.06 601.26 365.41 599.42 365.88 597.71 C 369.71 597.62 373.55 597.66 377.39 597.65 C 378.02 599.34 378.62 601.04 379.24 602.74 C 382.20 602.76 385.17 602.77 388.14 602.88 C 386.44 598.57 384.57 594.32 382.69 590.09 C 380.60 584.71 378.23 579.45 376.01 574.13 C 373.32 574.15 370.62 574.15 367.93 574.14 M 550.38 617.36 C 554.56 618.42 558.70 616.77 561.60 613.87 C 561.65 613.54 561.75 612.89 561.80 612.56 C 559.44 612.20 557.16 611.50 554.92 610.70 C 553.63 613.06 551.69 615.02 550.38 617.36 M 189.74 619.61 C 185.70 629.35 181.27 638.92 177.20 648.65 C 180.17 648.56 183.15 648.59 186.12 648.40 C 186.58 646.73 187.14 645.10 187.70 643.48 C 191.32 643.39 194.95 643.59 198.56 643.20 C 199.89 644.74 200.18 646.93 201.49 648.45 C 204.49 648.78 207.53 648.45 210.55 648.62 C 208.63 646.02 207.85 642.83 206.33 640.03 C 203.46 633.15 200.64 626.26 197.51 619.50 C 194.92 619.64 192.33 619.66 189.74 619.61 M 229.53 619.66 C 229.20 629.23 229.55 638.81 229.17 648.38 C 235.94 648.32 242.87 649.10 249.55 647.82 C 255.66 646.71 257.69 637.81 252.37 634.42 C 251.87 634.27 250.88 633.96 250.38 633.81 C 250.50 633.53 250.75 632.97 250.87 632.69 C 254.59 631.22 255.25 625.91 253.05 622.90 C 250.98 620.83 248.03 619.66 245.10 619.73 C 239.91 619.66 234.72 619.83 229.53 619.66 M 363.24 619.49 C 367.15 629.12 371.23 638.69 374.84 648.44 C 377.56 648.61 380.30 648.71 383.01 648.31 C 384.33 644.10 386.36 640.16 387.95 636.05 C 390.22 630.51 392.61 625.01 394.79 619.43 C 391.73 619.58 388.67 619.61 385.62 619.59 C 385.53 620.12 385.34 621.17 385.25 621.69 C 382.84 626.65 381.19 631.96 379.30 637.14 C 376.26 631.67 375.03 625.23 372.46 619.47 C 369.38 619.61 366.31 619.64 363.24 619.49 M 467.70 621.69 C 463.16 625.14 463.70 633.63 469.53 635.45 C 473.04 637.57 478.39 636.44 480.81 640.06 C 480.54 640.43 479.98 641.16 479.70 641.53 C 475.56 642.69 471.11 641.15 467.92 638.45 C 466.23 640.32 464.48 642.16 463.16 644.33 C 468.71 648.01 476.20 650.23 482.56 647.71 C 488.13 646.52 490.71 639.22 487.49 634.70 C 483.71 630.15 477.08 631.17 472.45 628.07 C 474.90 623.35 480.89 626.48 484.15 628.62 C 485.35 626.69 487.07 625.04 487.97 622.95 C 486.63 620.82 483.61 620.33 481.36 619.51 C 476.80 618.92 471.42 618.38 467.70 621.69 M 510.28 619.34 C 510.21 621.77 510.19 624.22 510.24 626.66 C 513.03 626.60 515.83 626.55 518.64 626.40 C 518.84 633.67 518.64 640.96 518.63 648.24 C 521.38 648.25 524.13 648.24 526.88 648.20 C 526.81 640.93 526.96 633.66 527.39 626.41 C 530.19 626.54 533.00 626.56 535.80 626.60 C 535.88 624.18 535.92 621.76 535.92 619.34 C 527.37 619.45 518.82 619.48 510.28 619.34 M 70.60 619.77 C 70.54 629.43 70.51 639.09 70.45 648.75 C 78.01 648.10 86.65 650.29 93.12 645.19 C 100.44 639.93 100.09 627.44 92.44 622.68 C 85.87 618.56 77.86 620.62 70.60 619.77 M 105.14 619.87 C 104.79 629.42 104.89 638.99 104.73 648.55 C 112.70 648.79 120.68 648.57 128.66 648.64 C 128.74 646.28 128.75 643.93 128.69 641.58 C 123.51 641.75 118.32 641.61 113.13 641.70 C 113.23 640.20 113.04 638.65 113.51 637.22 C 118.10 637.57 122.70 637.32 127.30 637.41 C 127.27 636.78 127.22 635.54 127.20 634.91 C 127.29 634.03 127.46 632.26 127.54 631.37 C 122.87 630.20 117.96 631.14 113.18 630.85 C 113.26 629.39 113.29 627.94 113.41 626.50 C 118.42 626.79 123.43 626.56 128.44 626.83 C 128.73 624.46 128.75 622.08 128.60 619.70 C 120.78 619.99 112.96 619.66 105.14 619.87 M 151.36 648.54 C 158.75 648.54 166.15 648.53 173.54 648.51 C 173.51 646.18 173.53 643.86 173.60 641.55 C 168.91 641.68 164.21 641.50 159.53 641.73 C 159.53 635.80 159.55 629.88 159.66 623.96 C 159.58 622.50 160.01 620.86 159.08 619.59 C 156.58 619.90 154.05 619.86 151.54 619.70 C 151.39 629.31 151.47 638.92 151.36 648.54 M 261.76 619.74 C 261.96 629.28 261.86 638.84 261.69 648.39 C 264.33 648.22 267.41 649.07 269.79 648.10 C 269.71 638.63 270.25 629.17 270.29 619.71 C 267.44 619.66 264.60 619.68 261.76 619.74 M 280.49 624.09 C 274.71 630.10 275.31 640.96 282.22 645.81 C 289.18 651.17 300.47 649.86 305.49 642.47 C 309.77 636.82 309.02 628.03 303.63 623.35 L 303.61 623.12 C 297.09 617.58 286.47 617.84 280.49 624.09 M 314.65 619.62 C 314.83 629.22 314.66 638.82 314.57 648.43 C 321.93 648.00 330.12 649.95 336.65 645.54 C 343.20 641.29 344.64 631.36 339.85 625.30 C 339.13 624.41 338.37 623.02 337.00 623.34 L 336.71 623.08 C 336.53 621.25 334.39 621.30 333.14 620.70 C 327.16 618.78 320.81 619.94 314.65 619.62 M 349.74 619.60 C 349.81 629.18 349.68 638.76 349.61 648.35 C 352.36 648.41 355.10 648.41 357.85 648.31 C 357.96 638.78 357.48 629.21 358.24 619.70 C 355.41 619.56 352.57 619.56 349.74 619.60 M 400.17 619.65 C 400.40 629.19 400.33 638.76 400.07 648.30 C 408.00 648.36 415.93 648.30 423.87 648.30 C 423.74 645.99 423.75 643.67 423.85 641.37 C 418.63 641.44 413.42 641.44 408.21 641.43 C 408.17 639.99 408.12 638.56 408.05 637.14 C 412.82 637.05 417.59 637.22 422.37 637.17 C 422.39 634.95 422.39 632.73 422.42 630.52 C 417.70 630.60 412.98 630.55 408.27 630.63 C 408.27 629.30 408.28 627.98 408.30 626.67 C 408.56 626.54 409.08 626.28 409.34 626.15 C 414.14 626.57 418.98 626.29 423.80 626.25 C 423.69 624.03 423.70 621.82 423.88 619.61 C 415.98 619.54 408.07 619.52 400.17 619.65 M 432.16 619.69 C 432.50 629.23 432.31 638.79 432.11 648.34 C 434.84 648.32 437.58 648.32 440.33 648.38 C 440.56 645.42 440.49 642.45 440.45 639.49 C 443.12 638.84 444.94 640.56 446.19 642.66 C 447.22 644.63 448.51 646.46 449.81 648.28 C 452.85 648.26 455.90 648.29 458.95 648.34 C 457.42 644.68 454.57 641.72 452.26 638.54 C 454.50 637.08 457.03 635.57 457.73 632.79 C 459.90 627.80 456.86 621.55 451.61 620.16 L 451.65 619.94 C 445.18 619.24 438.65 619.42 432.16 619.69 M 495.74 619.42 C 495.68 629.03 495.63 638.64 495.58 648.25 C 498.34 648.27 501.10 648.26 503.86 648.26 C 503.65 638.65 504.10 629.05 504.15 619.45 C 501.34 619.42 498.54 619.42 495.74 619.42 M 541.52 619.38 C 541.63 628.99 541.48 638.60 541.45 648.21 C 547.74 648.20 554.04 648.30 560.34 648.14 C 562.01 648.17 563.69 648.18 565.38 648.19 C 565.36 647.33 565.32 645.60 565.30 644.74 C 565.37 643.93 565.51 642.31 565.58 641.49 C 560.25 640.94 554.89 641.32 549.55 641.27 C 549.56 639.76 549.58 638.26 549.61 636.77 C 554.28 636.77 558.96 636.84 563.64 636.79 C 563.62 634.67 563.64 632.55 563.67 630.43 C 558.98 630.45 554.29 630.47 549.61 630.41 C 549.64 628.99 549.68 627.59 549.73 626.19 C 554.93 626.26 560.13 626.17 565.33 626.26 C 565.27 623.98 565.27 621.70 565.35 619.42 C 557.40 619.33 549.46 619.43 541.52 619.38 Z" />
<path fill="#ffffff" opacity="1.00" d=" M 476.19 447.66 C 476.38 436.95 476.10 426.23 476.45 415.52 C 485.55 416.06 495.54 413.89 503.76 418.96 C 512.63 424.46 512.21 439.47 503.12 444.55 C 494.95 449.34 485.14 446.95 476.19 447.66 Z" />
<path fill="#ffffff" opacity="1.00" d=" M 123.00 444.92 C 131.50 429.32 149.31 419.42 167.03 420.24 C 187.24 420.14 206.96 434.35 211.95 454.17 C 215.47 467.40 212.50 482.25 203.94 492.97 C 195.04 504.55 180.58 511.43 166.02 511.54 C 154.62 511.81 143.15 507.96 134.24 500.84 C 130.64 498.02 127.82 494.42 125.03 490.84 C 116.11 477.37 115.16 459.10 123.00 444.92 Z" />
<path fill="#ffffff" opacity="1.00" d=" M 476.15 479.74 C 483.74 479.77 491.34 479.59 498.94 479.83 C 505.31 480.30 512.47 481.08 517.17 485.92 C 522.28 490.68 522.54 498.72 520.07 504.87 C 516.40 511.67 508.41 514.23 501.17 514.65 C 493.70 514.98 486.22 514.74 478.75 514.81 C 477.98 514.81 476.45 514.80 475.69 514.80 C 475.93 503.12 475.43 491.40 476.15 479.74 Z" />
</g>
<g id="#102e55ff">
<path fill="#102e55" opacity="1.00" d=" M 233.15 30.42 C 274.13 6.20 325.12 0.14 370.79 13.33 C 373.51 14.14 376.29 14.82 378.83 16.14 C 377.29 16.26 375.76 16.42 374.24 16.58 C 370.53 15.22 366.80 13.87 362.85 13.39 C 356.80 12.63 351.04 10.33 344.93 9.92 C 337.30 9.46 329.74 7.60 322.06 8.39 C 309.66 9.64 296.91 8.85 284.87 12.57 C 281.02 13.61 276.97 13.75 273.21 15.13 C 264.74 18.25 255.85 20.42 248.00 25.00 C 243.57 26.91 239.31 29.24 234.84 31.03 C 234.42 30.88 233.57 30.57 233.15 30.42 Z" />
</g>
<g id="#013878ff">
<path fill="#013878" opacity="1.00" d=" M 284.87 12.57 C 296.91 8.85 309.66 9.64 322.06 8.39 C 329.74 7.60 337.30 9.46 344.93 9.92 C 351.04 10.33 356.80 12.63 362.85 13.39 C 366.80 13.87 370.53 15.22 374.24 16.58 C 371.30 17.91 368.35 19.21 365.36 20.41 C 334.24 33.98 308.90 59.26 293.39 89.27 C 285.46 104.68 275.77 119.25 264.02 132.01 C 261.79 134.29 259.62 136.62 257.60 139.08 C 252.06 143.39 246.92 148.20 241.16 152.23 C 229.83 160.81 216.77 166.84 203.37 171.38 C 199.21 172.87 194.67 173.15 190.75 175.33 C 177.18 176.42 163.56 175.58 149.98 176.12 C 149.41 176.12 148.28 176.12 147.71 176.12 C 147.72 153.40 152.62 130.68 161.75 109.88 C 176.30 76.71 201.73 48.44 233.15 30.42 C 233.57 30.57 234.42 30.88 234.84 31.03 C 239.31 29.24 243.57 26.91 248.00 25.00 C 255.85 20.42 264.74 18.25 273.21 15.13 C 276.97 13.75 281.02 13.61 284.87 12.57 Z" />
<path fill="#013878" opacity="1.00" d=" M 127.72 387.32 C 141.76 381.70 157.09 379.95 172.11 380.26 C 183.69 381.52 195.69 382.83 206.15 388.33 C 210.24 389.19 213.63 391.53 216.95 393.96 C 221.44 396.09 225.72 398.69 229.07 402.43 C 237.92 409.30 244.00 418.90 249.62 428.42 C 250.79 430.99 251.42 433.78 252.61 436.36 C 255.05 441.35 255.29 447.00 256.51 452.34 C 258.85 463.03 257.59 474.09 255.56 484.71 C 250.77 506.31 236.72 525.50 217.78 536.87 C 212.41 540.59 206.55 543.47 200.27 545.28 C 192.80 548.94 184.47 549.64 176.35 550.61 C 175.92 551.15 175.06 552.23 174.63 552.77 C 171.92 553.74 168.91 553.27 166.07 553.44 C 144.00 553.81 121.60 547.39 103.99 533.86 C 92.71 524.84 83.04 513.18 78.14 499.48 C 77.92 497.55 77.24 495.73 76.06 494.19 C 71.19 480.81 70.49 466.06 72.63 452.04 C 76.21 429.44 89.31 408.41 108.32 395.61 C 108.74 395.75 109.59 396.03 110.02 396.17 C 116.00 393.48 121.27 389.10 127.72 387.32 M 158.97 418.65 C 151.48 419.42 144.85 423.27 137.99 426.06 C 137.62 425.92 136.90 425.63 136.53 425.49 C 135.46 428.64 131.97 430.10 130.10 432.78 C 127.26 434.83 124.91 437.36 123.69 440.70 C 123.39 440.66 122.79 440.57 122.49 440.53 C 121.34 446.36 117.12 451.15 116.54 457.18 C 115.73 465.43 116.29 473.90 118.36 481.93 C 120.33 485.69 121.84 490.15 125.49 492.62 L 125.03 490.84 C 127.82 494.42 130.64 498.02 134.24 500.84 L 132.55 500.58 C 132.76 501.10 133.17 502.13 133.38 502.65 C 136.86 504.92 140.62 506.74 144.16 508.91 C 151.87 512.51 160.55 513.55 168.98 513.13 C 175.25 513.17 181.16 510.82 187.00 508.82 C 191.20 507.48 194.11 503.77 198.37 502.55 C 198.31 500.59 200.62 499.99 201.69 498.70 C 206.02 493.93 209.09 488.18 212.48 482.79 C 213.18 479.49 213.69 476.15 214.65 472.91 C 216.26 467.40 215.83 461.46 213.98 456.07 C 212.97 453.35 212.97 450.41 212.29 447.64 C 209.29 443.35 207.14 438.49 203.54 434.65 C 203.56 434.27 203.60 433.52 203.62 433.14 C 201.27 432.40 198.12 431.20 198.27 428.25 C 196.28 427.50 194.26 426.77 192.45 425.64 C 182.67 419.19 170.46 417.28 158.97 418.65 Z" />
<path fill="#013878" opacity="1.00" d=" M 283.18 382.68 C 323.87 382.66 364.56 382.52 405.24 382.60 C 404.39 395.18 405.12 407.81 404.56 420.39 C 392.58 420.06 380.59 420.45 368.61 420.22 C 367.73 417.75 365.03 418.43 363.02 418.33 C 350.74 418.51 338.45 418.32 326.17 418.34 C 325.60 420.17 325.17 422.06 325.25 423.99 C 325.44 433.32 325.32 442.65 325.34 451.98 C 325.44 453.81 325.18 456.30 327.15 457.30 C 330.76 457.24 334.36 456.64 337.98 456.90 C 353.81 457.56 369.67 456.54 385.48 457.40 C 386.52 463.57 385.54 469.80 385.70 476.00 C 385.53 480.81 386.47 485.77 384.96 490.45 C 366.98 489.59 348.95 490.58 330.96 490.09 C 328.33 489.71 324.82 490.76 324.73 493.91 C 324.82 509.27 324.84 524.64 324.93 540.00 C 324.90 542.17 324.69 544.34 324.48 546.50 C 311.11 546.90 297.71 546.81 284.34 546.68 C 283.82 528.43 284.31 510.18 284.08 491.93 C 283.86 487.42 284.95 482.63 282.90 478.41 C 282.27 446.54 283.37 414.58 283.18 382.68 Z" />
<path fill="#013878" opacity="1.00" d=" M 432.87 382.33 C 453.56 382.80 474.28 382.32 494.98 382.46 C 506.30 382.18 517.95 382.98 528.48 387.50 C 535.63 390.62 542.11 395.88 545.66 402.93 C 545.18 402.89 544.20 402.81 543.71 402.78 C 547.04 407.91 547.73 414.04 548.86 419.91 C 549.67 425.68 547.96 431.40 547.21 437.09 C 547.06 440.76 543.03 443.38 544.16 447.19 L 544.28 448.10 L 543.68 448.15 C 540.57 447.59 539.51 450.92 537.59 452.60 C 535.27 454.62 531.35 455.64 531.33 459.32 L 531.17 460.17 C 542.74 462.27 554.44 468.04 560.78 478.33 C 567.21 488.64 567.24 501.64 564.60 513.16 C 562.13 524.04 555.06 533.78 545.36 539.31 C 543.64 540.14 542.00 541.58 540.03 541.61 C 538.60 540.54 536.02 540.89 536.24 543.10 L 536.18 543.82 C 535.07 544.09 534.00 544.40 532.91 544.66 C 530.72 543.08 528.09 544.25 525.74 544.69 C 513.35 547.70 500.54 546.37 487.93 547.08 C 469.65 547.04 451.36 546.46 433.08 546.76 C 432.52 526.18 432.73 505.57 432.77 484.98 C 433.71 456.64 433.36 428.28 433.40 399.93 C 433.33 394.06 433.98 388.13 432.87 382.33 M 475.20 415.65 C 473.96 425.40 474.54 435.26 474.27 445.06 C 474.26 446.35 474.12 448.67 476.01 448.62 C 482.01 448.91 488.04 448.64 494.05 448.73 C 501.90 449.01 510.08 443.50 511.47 435.53 C 512.50 430.64 511.30 425.46 508.95 421.13 C 505.00 416.60 498.92 414.40 493.01 414.20 C 489.01 414.07 485.00 414.21 481.02 413.79 C 478.88 413.42 477.09 414.96 475.20 415.65 M 476.15 479.74 C 475.43 491.40 475.93 503.12 475.69 514.80 C 476.45 514.80 477.98 514.81 478.75 514.81 C 478.03 516.93 480.75 516.67 481.95 516.77 C 489.86 516.72 497.78 516.97 505.66 516.30 C 509.54 516.02 512.58 513.41 516.02 511.91 C 518.98 510.72 520.28 507.58 521.91 505.07 C 521.45 505.02 520.53 504.92 520.07 504.87 C 522.54 498.72 522.28 490.68 517.17 485.92 C 512.47 481.08 505.31 480.30 498.94 479.83 C 491.34 479.59 483.74 479.77 476.15 479.74 Z" />
</g>
<g id="#0181c8ff">
<path fill="#0181c8" opacity="1.00" d=" M 378.83 16.14 C 381.52 16.26 383.93 17.52 386.32 18.63 C 409.97 27.90 431.58 42.51 448.84 61.16 C 449.34 61.97 449.84 62.78 450.33 63.61 C 422.90 65.94 396.25 75.42 372.93 89.95 C 359.72 98.35 347.11 107.86 336.11 119.03 C 329.82 124.05 324.35 130.00 318.15 135.11 C 308.31 143.71 298.02 151.78 287.12 158.99 C 287.28 158.44 287.59 157.32 287.75 156.77 C 294.00 152.34 300.28 147.96 306.28 143.21 C 311.84 138.09 317.90 133.55 323.37 128.32 C 326.04 125.71 329.61 123.84 331.08 120.21 C 326.04 119.91 321.02 120.48 316.04 121.17 C 300.96 122.55 285.88 125.76 272.05 132.04 C 267.10 134.14 262.84 137.65 257.60 139.08 C 259.62 136.62 261.79 134.29 264.02 132.01 C 275.77 119.25 285.46 104.68 293.39 89.27 C 308.90 59.26 334.24 33.98 365.36 20.41 C 368.35 19.21 371.30 17.91 374.24 16.58 C 375.76 16.42 377.29 16.26 378.83 16.14 Z" />
</g>
<g id="#56c2f0ff">
<path fill="#56c2f0" opacity="1.00" d=" M 448.84 61.16 C 450.76 61.80 451.48 63.86 452.73 65.28 C 456.50 69.81 460.38 74.27 463.73 79.14 C 463.30 79.12 462.44 79.07 462.01 79.04 C 465.40 84.98 468.62 91.13 473.02 96.39 C 472.65 94.93 472.28 93.47 471.85 92.04 C 476.63 99.73 480.14 108.36 483.38 116.84 C 483.26 117.37 483.04 118.42 482.93 118.95 C 464.95 119.64 446.94 119.17 428.95 119.31 C 402.62 119.32 376.30 119.34 349.97 119.37 C 345.35 119.24 340.67 120.08 336.11 119.03 C 347.11 107.86 359.72 98.35 372.93 89.95 C 396.25 75.42 422.90 65.94 450.33 63.61 C 449.84 62.78 449.34 61.97 448.84 61.16 Z" />
</g>
<g id="#67bad5ff">
<path fill="#67bad5" opacity="1.00" d=" M 462.01 79.04 C 462.44 79.07 463.30 79.12 463.73 79.14 C 466.54 83.36 469.43 87.57 471.85 92.04 C 472.28 93.47 472.65 94.93 473.02 96.39 C 468.62 91.13 465.40 84.98 462.01 79.04 Z" />
</g>
<g id="#92d5f0ff">
<path fill="#92d5f0" opacity="1.00" d=" M 483.38 116.84 C 486.93 125.15 488.69 134.06 490.67 142.84 C 492.90 153.61 493.85 164.61 493.65 175.60 C 442.22 175.67 390.78 175.63 339.35 175.82 C 313.89 175.77 288.43 175.88 262.97 175.81 C 260.47 175.74 257.98 175.92 255.51 176.17 C 253.60 176.08 251.70 175.94 249.80 175.82 C 263.35 173.27 275.74 166.56 287.12 158.99 C 298.02 151.78 308.31 143.71 318.15 135.11 C 324.35 130.00 329.82 124.05 336.11 119.03 C 340.67 120.08 345.35 119.24 349.97 119.37 C 376.30 119.34 402.62 119.32 428.95 119.31 C 446.94 119.17 464.95 119.64 482.93 118.95 C 483.04 118.42 483.26 117.37 483.38 116.84 Z" />
<path fill="#92d5f0" opacity="1.00" d=" M 327.12 420.26 L 327.81 420.26 C 327.41 430.79 327.85 441.34 327.43 451.86 C 327.33 452.23 327.14 452.97 327.04 453.34 C 326.50 442.33 327.08 431.28 327.12 420.26 Z" />
</g>
<g id="#00a5dfff">
<path fill="#00a5df" opacity="1.00" d=" M 316.04 121.17 C 321.02 120.48 326.04 119.91 331.08 120.21 C 329.61 123.84 326.04 125.71 323.37 128.32 C 317.90 133.55 311.84 138.09 306.28 143.21 C 300.28 147.96 294.00 152.34 287.75 156.77 C 287.59 157.32 287.28 158.44 287.12 158.99 C 275.74 166.56 263.35 173.27 249.80 175.82 C 230.12 175.37 210.41 176.26 190.75 175.33 C 194.67 173.15 199.21 172.87 203.37 171.38 C 216.77 166.84 229.83 160.81 241.16 152.23 C 246.92 148.20 252.06 143.39 257.60 139.08 C 262.84 137.65 267.10 134.14 272.05 132.04 C 285.88 125.76 300.96 122.55 316.04 121.17 Z" />
</g>
<g id="#94c77aff">
<path fill="#94c77a" opacity="1.00" d=" M 149.98 176.12 C 163.56 175.58 177.18 176.42 190.75 175.33 C 210.41 176.26 230.12 175.37 249.80 175.82 C 251.70 175.94 253.60 176.08 255.51 176.17 C 259.96 177.24 264.49 177.96 268.96 178.97 C 293.99 185.72 316.55 199.96 334.97 218.03 C 339.47 221.87 343.64 226.10 348.48 229.55 C 366.71 242.61 388.03 251.02 410.02 255.17 C 410.26 255.23 410.75 255.37 411.00 255.44 C 416.24 268.37 424.12 280.24 433.75 290.33 C 436.07 292.74 438.52 295.11 441.63 296.49 C 433.41 303.38 425.66 310.96 416.38 316.45 C 403.43 324.73 389.56 331.72 374.90 336.40 L 374.26 336.07 C 365.34 331.49 355.80 328.14 347.32 322.71 C 327.27 310.70 310.66 293.36 298.65 273.39 C 292.72 264.88 289.27 254.96 283.49 246.36 C 276.17 234.15 266.97 223.18 256.99 213.07 C 240.42 197.56 220.46 185.25 198.35 179.58 C 193.55 178.48 189.04 175.93 184.00 176.11 C 172.66 176.19 161.31 176.68 149.98 176.12 Z" />
</g>
<g id="#bbd895ff">
<path fill="#bbd895" opacity="1.00" d=" M 147.71 176.12 C 148.28 176.12 149.41 176.12 149.98 176.12 C 161.31 176.68 172.66 176.19 184.00 176.11 C 189.04 175.93 193.55 178.48 198.35 179.58 C 220.46 185.25 240.42 197.56 256.99 213.07 C 266.97 223.18 276.17 234.15 283.49 246.36 C 289.27 254.96 292.72 264.88 298.65 273.39 C 310.66 293.36 327.27 310.70 347.32 322.71 C 355.80 328.14 365.34 331.49 374.26 336.07 C 369.79 339.16 364.03 339.13 358.99 340.81 C 341.32 344.69 323.01 346.37 304.97 344.57 C 293.77 343.88 282.79 341.39 271.85 339.01 C 263.19 336.07 254.51 333.11 246.12 329.43 C 237.25 324.84 228.35 320.22 220.09 314.59 C 196.89 298.32 177.52 276.40 164.96 250.94 C 157.67 236.51 153.08 220.86 149.78 205.08 C 148.58 195.47 147.29 185.82 147.71 176.12 Z" />
</g>
<g id="#01a245ff">
<path fill="#01a245" opacity="1.00" d=" M 255.51 176.17 C 257.98 175.92 260.47 175.74 262.97 175.81 C 288.43 175.88 313.89 175.77 339.35 175.82 C 344.20 178.33 349.80 178.85 354.61 181.48 C 370.90 189.62 383.59 203.58 393.17 218.83 C 396.74 225.63 400.98 232.11 403.76 239.31 C 405.91 244.56 408.86 249.55 410.02 255.17 C 388.03 251.02 366.71 242.61 348.48 229.55 C 343.64 226.10 339.47 221.87 334.97 218.03 C 316.55 199.96 293.99 185.72 268.96 178.97 C 264.49 177.96 259.96 177.24 255.51 176.17 Z" />
</g>
<g id="#008033ff">
<path fill="#008033" opacity="1.00" d=" M 339.35 175.82 C 390.78 175.63 442.22 175.67 493.65 175.60 C 493.73 205.27 485.45 234.97 470.06 260.34 C 450.29 260.17 430.41 259.45 411.00 255.44 C 410.75 255.37 410.26 255.23 410.02 255.17 C 408.86 249.55 405.91 244.56 403.76 239.31 C 400.98 232.11 396.74 225.63 393.17 218.83 C 383.59 203.58 370.90 189.62 354.61 181.48 C 349.80 178.85 344.20 178.33 339.35 175.82 Z" />
</g>
<g id="#60b66cff">
<path fill="#60b66c" opacity="1.00" d=" M 411.00 255.44 C 430.41 259.45 450.29 260.17 470.06 260.34 C 462.48 273.75 452.33 285.50 441.63 296.49 C 438.52 295.11 436.07 292.74 433.75 290.33 C 424.12 280.24 416.24 268.37 411.00 255.44 Z" />
</g>
<g id="#0c2857ff">
<path fill="#0c2857" opacity="1.00" d=" M 108.32 395.61 C 126.42 382.79 149.09 377.38 171.09 378.43 C 174.88 378.41 178.63 379.16 182.43 379.16 L 182.47 379.39 C 182.51 379.60 182.58 380.03 182.62 380.24 C 188.02 379.99 193.07 382.23 198.31 383.15 C 216.86 388.66 233.63 400.45 244.61 416.44 C 263.60 443.59 264.39 481.81 247.25 510.05 C 232.26 535.32 203.71 551.19 174.63 552.77 C 175.06 552.23 175.92 551.15 176.35 550.61 C 184.47 549.64 192.80 548.94 200.27 545.28 C 206.55 543.47 212.41 540.59 217.78 536.87 C 236.72 525.50 250.77 506.31 255.56 484.71 C 257.59 474.09 258.85 463.03 256.51 452.34 C 255.29 447.00 255.05 441.35 252.61 436.36 C 251.42 433.78 250.79 430.99 249.62 428.42 C 244.00 418.90 237.92 409.30 229.07 402.43 C 225.72 398.69 221.44 396.09 216.95 393.96 C 213.63 391.53 210.24 389.19 206.15 388.33 C 195.69 382.83 183.69 381.52 172.11 380.26 C 157.09 379.95 141.76 381.70 127.72 387.32 C 121.27 389.10 116.00 393.48 110.02 396.17 C 109.59 396.03 108.74 395.75 108.32 395.61 Z" />
</g>
<g id="#7a8db1ff">
<path fill="#7a8db1" opacity="1.00" d=" M 182.47 379.39 C 182.51 379.21 182.61 378.84 182.66 378.66 C 187.70 380.74 193.53 380.42 198.31 383.15 C 193.07 382.23 188.02 379.99 182.62 380.24 C 182.58 380.03 182.51 379.60 182.47 379.39 Z" />
</g>
<g id="#022249ff">
<path fill="#022249" opacity="1.00" d=" M 432.47 391.02 C 432.58 388.13 432.15 385.17 432.87 382.33 C 433.98 388.13 433.33 394.06 433.40 399.93 C 433.36 428.28 433.71 456.64 432.77 484.98 C 432.73 505.57 432.52 526.18 433.08 546.76 C 451.36 546.46 469.65 547.04 487.93 547.08 C 500.54 546.37 513.35 547.70 525.74 544.69 C 528.09 544.25 530.72 543.08 532.91 544.66 C 525.47 547.03 517.67 547.88 509.91 548.30 C 483.77 548.44 457.63 548.35 431.50 548.48 C 431.57 522.98 431.79 497.49 431.83 471.99 C 432.50 445.02 432.18 418.01 432.47 391.02 Z" />
<path fill="#022249" opacity="1.00" d=" M 543.71 402.78 C 544.20 402.81 545.18 402.89 545.66 402.93 C 550.47 411.36 551.24 421.46 550.20 430.93 C 549.38 436.68 547.67 442.48 544.16 447.19 C 543.03 443.38 547.06 440.76 547.21 437.09 C 547.96 431.40 549.67 425.68 548.86 419.91 C 547.73 414.04 547.04 407.91 543.71 402.78 Z" />
<path fill="#022249" opacity="1.00" d=" M 112.39 574.62 C 118.17 573.38 124.99 574.15 129.11 578.81 C 135.63 585.23 133.61 597.62 125.39 601.64 C 117.47 606.42 105.34 603.09 102.31 593.96 C 99.20 586.10 104.49 576.88 112.39 574.62 M 106.44 581.19 C 103.46 582.80 103.26 586.71 103.39 589.72 C 103.66 594.70 106.88 600.32 112.24 600.90 C 118.50 602.98 126.79 601.09 129.81 594.74 C 132.36 589.62 131.75 581.52 125.58 579.35 C 125.65 578.45 125.31 577.76 124.55 577.30 C 121.42 575.21 117.46 575.86 113.94 576.19 C 110.76 576.39 108.48 579.02 106.44 581.19 Z" />
<path fill="#022249" opacity="1.00" d=" M 428.24 587.99 C 428.11 581.30 433.44 575.27 439.91 574.00 C 442.52 573.96 445.18 574.07 447.67 574.96 C 443.40 575.99 438.16 574.80 434.90 578.39 C 429.98 582.63 428.44 590.37 431.74 596.03 C 433.52 598.68 436.66 599.85 439.36 601.33 C 439.71 603.40 438.06 607.00 440.95 607.53 C 442.38 605.60 443.17 603.28 444.63 601.37 C 444.42 602.61 444.17 603.85 443.89 605.09 C 443.53 606.72 442.91 608.27 442.36 609.84 C 440.28 609.16 438.20 608.44 436.26 607.43 C 436.52 605.59 438.61 604.68 439.00 602.86 C 432.38 601.39 427.56 594.74 428.24 587.99 Z" />
<path fill="#022249" opacity="1.00" d=" M 447.61 574.10 C 450.88 574.59 453.73 576.57 455.82 579.07 C 454.90 581.38 451.78 582.35 450.04 584.16 C 447.92 582.13 445.02 579.87 441.91 580.97 C 436.93 582.34 434.72 589.02 437.90 593.09 C 439.20 595.12 441.51 595.93 443.76 596.42 C 438.17 598.81 433.11 591.95 434.86 586.89 C 435.61 583.17 438.52 580.18 442.09 579.02 C 444.72 578.15 447.06 580.13 449.32 581.15 C 450.59 580.33 451.85 579.50 453.12 578.68 C 451.63 577.53 450.06 576.50 448.52 575.44 C 448.29 575.11 447.84 574.43 447.61 574.10 Z" />
<path fill="#022249" opacity="1.00" d=" M 331.87 580.58 C 333.99 579.22 336.54 579.65 338.83 578.88 C 339.72 578.80 340.63 578.75 341.53 578.70 C 342.88 580.56 344.22 582.43 345.62 584.27 C 344.44 588.36 340.45 591.21 336.16 590.29 C 335.62 590.04 334.53 589.53 333.99 589.27 L 334.72 588.20 C 337.33 588.06 340.52 588.72 342.53 586.61 C 344.31 584.98 343.14 581.81 340.89 581.46 C 338.41 581.08 335.90 581.31 333.41 581.15 C 333.03 581.01 332.26 580.72 331.87 580.58 Z" />
<path fill="#022249" opacity="1.00" d=" M 365.57 580.17 C 365.62 581.58 366.02 583.10 365.34 584.45 C 363.06 590.07 359.79 595.35 358.54 601.33 C 359.99 601.31 361.42 601.13 362.82 600.78 C 363.93 599.44 364.55 597.78 365.31 596.23 C 369.46 595.84 373.72 595.29 377.84 596.18 C 379.60 597.13 380.24 599.15 380.81 600.94 C 382.29 601.03 383.76 601.11 385.25 601.19 C 385.18 597.29 381.20 593.94 382.69 590.09 C 384.57 594.32 386.44 598.57 388.14 602.88 C 385.17 602.77 382.20 602.76 379.24 602.74 C 378.62 601.04 378.02 599.34 377.39 597.65 C 373.55 597.66 369.71 597.62 365.88 597.71 C 365.41 599.42 365.06 601.26 364.01 602.73 C 361.27 602.76 358.54 602.88 355.81 603.11 C 355.75 602.84 355.63 602.31 355.57 602.04 C 359.33 594.95 361.88 587.29 365.57 580.17 Z" />
<path fill="#022249" opacity="1.00" d=" M 70.60 619.77 C 77.86 620.62 85.87 618.56 92.44 622.68 C 100.09 627.44 100.44 639.93 93.12 645.19 C 86.65 650.29 78.01 648.10 70.45 648.75 C 70.51 639.09 70.54 629.43 70.60 619.77 M 72.29 622.33 C 71.99 630.50 71.73 638.67 72.31 646.83 C 76.17 647.13 80.06 647.37 83.94 647.12 C 87.48 646.64 89.96 643.83 93.00 642.24 C 96.79 640.75 96.96 636.03 96.70 632.58 C 96.55 628.90 94.09 625.80 91.15 623.81 C 85.27 621.14 78.53 621.13 72.29 622.33 Z" />
<path fill="#022249" opacity="1.00" d=" M 261.76 619.74 C 264.60 619.68 267.44 619.66 270.29 619.71 C 270.25 629.17 269.71 638.63 269.79 648.10 C 267.41 649.07 264.33 648.22 261.69 648.39 C 261.86 638.84 261.96 629.28 261.76 619.74 M 263.73 621.96 C 263.47 629.30 263.66 636.66 263.62 644.01 C 262.90 646.70 267.59 647.52 267.92 644.94 C 268.70 637.69 268.41 630.33 268.28 623.06 C 268.04 620.67 265.22 621.53 263.73 621.96 Z" />
<path fill="#022249" opacity="1.00" d=" M 400.17 619.65 C 408.07 619.52 415.98 619.54 423.88 619.61 C 423.70 621.82 423.69 624.03 423.80 626.25 C 418.98 626.29 414.14 626.57 409.34 626.15 C 409.60 625.76 410.14 624.98 410.41 624.59 C 414.25 624.66 418.10 624.91 421.95 624.84 C 421.92 623.65 421.90 622.46 421.87 621.29 C 416.36 621.64 410.85 621.18 405.34 621.32 C 404.30 621.44 403.07 621.31 402.25 622.08 C 401.09 628.67 402.45 635.39 401.61 642.02 C 401.59 643.56 400.85 646.54 403.22 646.59 C 409.35 646.65 415.49 646.36 421.63 646.48 C 421.45 645.32 421.27 644.15 421.10 643.01 C 415.73 643.14 410.13 644.00 405.13 641.43 C 405.77 639.78 406.28 637.92 408.05 637.14 C 408.12 638.56 408.17 639.99 408.21 641.43 C 413.42 641.44 418.63 641.44 423.85 641.37 C 423.75 643.67 423.74 645.99 423.87 648.30 C 415.93 648.30 408.00 648.36 400.07 648.30 C 400.33 638.76 400.40 629.19 400.17 619.65 Z" />
<path fill="#022249" opacity="1.00" d=" M 470.88 627.32 C 471.27 627.51 472.05 627.89 472.45 628.07 C 477.08 631.17 483.71 630.15 487.49 634.70 C 490.71 639.22 488.13 646.52 482.56 647.71 C 484.48 644.83 487.74 642.07 486.75 638.22 C 486.00 633.11 479.88 632.78 475.94 631.72 C 473.46 631.44 472.16 629.15 470.88 627.32 Z" />
</g>
<g id="#04244cff">
<path fill="#04244c" opacity="1.00" d=" M 475.20 415.65 C 477.09 414.96 478.88 413.42 481.02 413.79 C 485.00 414.21 489.01 414.07 493.01 414.20 C 498.92 414.40 505.00 416.60 508.95 421.13 C 511.30 425.46 512.50 430.64 511.47 435.53 C 510.08 443.50 501.90 449.01 494.05 448.73 C 488.04 448.64 482.01 448.91 476.01 448.62 C 474.12 448.67 474.26 446.35 474.27 445.06 C 474.54 435.26 473.96 425.40 475.20 415.65 M 476.19 447.66 C 485.14 446.95 494.95 449.34 503.12 444.55 C 512.21 439.47 512.63 424.46 503.76 418.96 C 495.54 413.89 485.55 416.06 476.45 415.52 C 476.10 426.23 476.38 436.95 476.19 447.66 Z" />
<path fill="#04244c" opacity="1.00" d=" M 158.97 418.65 C 170.46 417.28 182.67 419.19 192.45 425.64 C 194.26 426.77 196.28 427.50 198.27 428.25 C 198.12 431.20 201.27 432.40 203.62 433.14 C 203.60 433.52 203.56 434.27 203.54 434.65 C 207.14 438.49 209.29 443.35 212.29 447.64 C 212.97 450.41 212.97 453.35 213.98 456.07 C 215.83 461.46 216.26 467.40 214.65 472.91 C 213.69 476.15 213.18 479.49 212.48 482.79 C 209.09 488.18 206.02 493.93 201.69 498.70 C 200.62 499.99 198.31 500.59 198.37 502.55 C 194.11 503.77 191.20 507.48 187.00 508.82 C 181.16 510.82 175.25 513.17 168.98 513.13 C 160.55 513.55 151.87 512.51 144.16 508.91 C 140.62 506.74 136.86 504.92 133.38 502.65 C 133.17 502.13 132.76 501.10 132.55 500.58 L 134.24 500.84 C 143.15 507.96 154.62 511.81 166.02 511.54 C 180.58 511.43 195.04 504.55 203.94 492.97 C 212.50 482.25 215.47 467.40 211.95 454.17 C 206.96 434.35 187.24 420.14 167.03 420.24 C 149.31 419.42 131.50 429.32 123.00 444.92 C 115.16 459.10 116.11 477.37 125.03 490.84 L 125.49 492.62 C 121.84 490.15 120.33 485.69 118.36 481.93 C 116.29 473.90 115.73 465.43 116.54 457.18 C 117.12 451.15 121.34 446.36 122.49 440.53 C 122.79 440.57 123.39 440.66 123.69 440.70 C 124.91 437.36 127.26 434.83 130.10 432.78 C 131.97 430.10 135.46 428.64 136.53 425.49 C 136.90 425.63 137.62 425.92 137.99 426.06 C 144.85 423.27 151.48 419.42 158.97 418.65 Z" />
<path fill="#04244c" opacity="1.00" d=" M 326.17 418.34 C 338.45 418.32 350.74 418.51 363.02 418.33 C 365.03 418.43 367.73 417.75 368.61 420.22 C 355.01 420.31 341.41 420.25 327.81 420.26 L 327.12 420.26 C 327.08 431.28 326.50 442.33 327.04 453.34 C 327.11 453.90 327.24 455.04 327.31 455.61 C 347.37 455.11 367.46 455.44 387.53 455.38 C 387.29 467.55 387.40 479.72 387.24 491.88 C 368.48 491.55 349.71 491.89 330.95 491.74 C 329.44 491.71 327.82 491.60 326.52 492.52 C 326.94 511.21 326.30 529.92 326.49 548.61 C 311.76 548.50 297.03 548.52 282.30 548.64 C 282.57 525.23 282.33 501.80 282.90 478.41 C 284.95 482.63 283.86 487.42 284.08 491.93 C 284.31 510.18 283.82 528.43 284.34 546.68 C 297.71 546.81 311.11 546.90 324.48 546.50 C 324.69 544.34 324.90 542.17 324.93 540.00 C 324.84 524.64 324.82 509.27 324.73 493.91 C 324.82 490.76 328.33 489.71 330.96 490.09 C 348.95 490.58 366.98 489.59 384.96 490.45 C 386.47 485.77 385.53 480.81 385.70 476.00 C 385.54 469.80 386.52 463.57 385.48 457.40 C 369.67 456.54 353.81 457.56 337.98 456.90 C 334.36 456.64 330.76 457.24 327.15 457.30 C 325.18 456.30 325.44 453.81 325.34 451.98 C 325.32 442.65 325.44 433.32 325.25 423.99 C 325.17 422.06 325.60 420.17 326.17 418.34 Z" />
<path fill="#04244c" opacity="1.00" d=" M 501.17 514.65 C 508.41 514.23 516.40 511.67 520.07 504.87 C 520.53 504.92 521.45 505.02 521.91 505.07 C 520.28 507.58 518.98 510.72 516.02 511.91 C 512.58 513.41 509.54 516.02 505.66 516.30 C 497.78 516.97 489.86 516.72 481.95 516.77 C 480.75 516.67 478.03 516.93 478.75 514.81 C 486.22 514.74 493.70 514.98 501.17 514.65 Z" />
<path fill="#04244c" opacity="1.00" d=" M 108.75 583.46 C 111.74 581.13 114.94 578.54 118.86 578.20 C 118.38 578.54 117.42 579.24 116.94 579.58 C 119.49 580.10 122.02 580.69 124.54 581.33 C 124.44 581.67 124.25 582.35 124.15 582.69 C 127.25 586.42 127.18 592.20 123.70 595.67 C 121.72 598.44 117.93 598.14 114.95 597.80 C 111.97 597.51 110.09 594.72 108.51 592.48 C 107.54 589.55 108.69 586.45 108.75 583.46 M 114.53 581.75 C 111.12 583.05 109.03 587.16 110.02 590.68 C 110.80 594.58 115.11 597.50 119.00 596.42 C 123.20 595.46 125.65 590.47 124.32 586.48 C 123.23 582.45 118.41 579.92 114.53 581.75 Z" />
</g>
<g id="#09214dff">
<path fill="#09214d" opacity="1.00" d=" M 537.59 452.60 C 539.51 450.92 540.57 447.59 543.68 448.15 C 540.44 452.69 536.33 456.76 531.33 459.32 C 531.35 455.64 535.27 454.62 537.59 452.60 Z" />
<path fill="#09214d" opacity="1.00" d=" M 294.67 574.58 C 302.61 574.17 310.57 574.56 318.53 574.38 C 318.38 576.72 318.35 579.06 318.33 581.42 C 313.10 581.39 307.86 581.16 302.64 581.54 C 302.66 583.20 302.78 584.91 303.42 586.49 C 307.85 586.11 312.31 586.36 316.76 586.25 C 316.75 588.41 316.73 590.57 316.72 592.73 C 312.24 592.67 307.76 592.88 303.29 592.54 C 302.10 595.83 303.18 599.37 302.58 602.76 C 300.26 603.62 297.29 602.32 294.72 602.85 C 294.56 593.43 295.02 584.00 294.67 574.58 M 297.25 583.30 C 296.50 587.70 296.53 592.18 296.41 596.64 C 296.21 599.29 299.19 599.89 300.98 600.97 C 301.50 597.73 301.46 594.42 302.12 591.21 C 306.47 590.74 310.83 591.75 315.16 591.02 C 315.06 590.33 314.86 588.96 314.76 588.28 C 311.04 587.00 306.83 588.17 302.98 588.61 C 300.89 585.83 301.62 582.34 302.39 579.24 C 307.19 578.97 312.16 580.26 316.84 578.88 C 316.46 578.04 316.04 577.22 315.59 576.43 C 310.07 575.68 304.46 576.38 298.90 576.11 C 294.88 575.99 297.33 580.95 297.25 583.30 Z" />
<path fill="#09214d" opacity="1.00" d=" M 531.05 575.44 C 532.11 575.99 533.18 576.55 534.25 577.13 C 533.03 579.15 531.84 581.27 530.05 582.86 C 527.00 580.99 523.59 579.77 519.95 580.33 C 520.30 579.79 520.99 578.70 521.34 578.16 C 524.59 578.67 527.75 579.76 531.06 579.83 C 531.07 578.36 531.07 576.90 531.05 575.44 Z" />
<path fill="#09214d" opacity="1.00" d=" M 349.74 619.60 C 352.57 619.56 355.41 619.56 358.24 619.70 C 357.48 629.21 357.96 638.78 357.85 648.31 C 355.10 648.41 352.36 648.41 349.61 648.35 C 349.68 638.76 349.81 629.18 349.74 619.60 M 351.19 622.10 C 350.25 627.03 351.20 632.02 351.18 636.98 C 351.25 639.89 350.97 642.81 351.27 645.71 C 352.11 647.06 355.90 647.21 355.69 644.95 C 356.32 637.27 355.50 629.56 356.20 621.89 C 354.54 621.29 352.83 621.67 351.19 622.10 Z" />
</g>
<g id="#819cbbff">
<path fill="#819cbb" opacity="1.00" d=" M 76.06 494.19 C 77.24 495.73 77.92 497.55 78.14 499.48 C 75.96 499.64 75.09 495.79 76.06 494.19 Z" />
</g>
<g id="#062451ff">
<path fill="#062451" opacity="1.00" d=" M 536.24 543.10 C 536.02 540.89 538.60 540.54 540.03 541.61 C 539.33 542.71 537.49 543.91 536.24 543.10 Z" />
</g>
<g id="#03377aff">
<path fill="#03377a" opacity="1.00" d=" M 439.91 574.00 C 442.31 573.23 444.86 573.58 447.34 573.67 L 447.61 574.10 C 447.84 574.43 448.29 575.11 448.52 575.44 C 450.06 576.50 451.63 577.53 453.12 578.68 C 451.85 579.50 450.59 580.33 449.32 581.15 C 447.06 580.13 444.72 578.15 442.09 579.02 C 438.52 580.18 435.61 583.17 434.86 586.89 C 433.11 591.95 438.17 598.81 443.76 596.42 C 446.28 595.83 448.46 594.37 450.19 592.46 C 452.09 594.01 454.23 595.27 456.05 596.94 C 454.88 599.30 452.46 600.93 450.03 601.83 C 449.18 600.01 444.70 600.88 446.74 602.90 C 445.46 603.19 444.33 603.74 443.89 605.09 C 444.17 603.85 444.42 602.61 444.63 601.37 C 443.17 603.28 442.38 605.60 440.95 607.53 C 438.06 607.00 439.71 603.40 439.36 601.33 C 436.66 599.85 433.52 598.68 431.74 596.03 C 428.44 590.37 429.98 582.63 434.90 578.39 C 438.16 574.80 443.40 575.99 447.67 574.96 C 445.18 574.07 442.52 573.96 439.91 574.00 Z" />
</g>
<g id="#06356fff">
<path fill="#06356f" opacity="1.00" d=" M 514.53 575.61 C 519.45 572.52 525.98 572.95 531.05 575.44 C 531.07 576.90 531.07 578.36 531.06 579.83 C 527.75 579.76 524.59 578.67 521.34 578.16 C 520.99 578.70 520.30 579.79 519.95 580.33 C 519.65 580.78 519.05 581.67 518.75 582.11 C 521.68 585.68 527.14 584.54 530.82 587.05 C 536.43 589.48 536.07 598.24 531.11 601.13 C 525.97 604.32 519.37 603.69 513.98 601.50 C 512.15 600.66 510.10 599.77 509.21 597.85 C 511.02 596.58 512.19 594.52 513.97 593.32 C 517.78 595.57 522.74 598.23 526.95 595.32 C 526.75 593.19 524.61 592.59 522.93 592.17 C 519.18 591.22 514.94 590.62 512.21 587.60 C 509.30 583.89 510.62 578.06 514.53 575.61 Z" />
</g>
<g id="#073574ff">
<path fill="#073574" opacity="1.00" d=" M 218.99 578.05 C 225.47 571.76 237.42 572.38 242.76 579.86 C 240.56 581.36 238.51 583.07 236.16 584.35 C 234.21 581.91 231.08 580.36 227.96 581.40 C 222.01 583.23 221.22 592.84 226.85 595.55 C 229.51 597.22 232.93 596.24 235.02 594.11 C 235.49 593.85 236.44 593.33 236.92 593.07 C 238.92 594.30 240.70 595.87 242.77 597.02 C 237.53 605.52 223.82 605.96 217.72 598.23 C 212.96 592.46 213.59 583.19 218.99 578.05 Z" />
</g>
<g id="#788ca9ff">
<path fill="#788ca9" opacity="1.00" d=" M 325.15 574.09 C 331.42 574.18 337.76 573.70 344.00 574.60 C 337.91 574.67 331.82 574.60 325.74 574.84 C 325.54 584.07 325.61 593.32 325.66 602.56 C 328.19 602.63 330.72 602.65 333.25 602.61 C 333.28 599.76 333.28 596.92 333.24 594.08 C 334.52 594.18 335.80 594.29 337.08 594.42 C 336.24 594.49 334.57 594.65 333.74 594.72 C 333.69 597.58 333.68 600.45 333.64 603.32 C 332.86 603.36 331.29 603.45 330.51 603.49 C 329.80 603.90 329.07 604.28 328.33 604.63 C 327.28 603.76 325.17 603.76 325.04 602.19 C 325.05 592.83 325.37 583.46 325.15 574.09 Z" />
</g>
<g id="#053773ff">
<path fill="#053773" opacity="1.00" d=" M 393.45 574.45 C 396.16 574.19 398.88 574.22 401.60 574.40 C 405.41 579.34 409.11 584.41 413.29 589.05 C 413.19 584.10 413.12 579.16 413.25 574.21 C 416.03 574.22 418.81 574.18 421.58 574.48 C 421.07 583.91 421.38 593.37 421.23 602.82 C 418.80 602.80 416.38 602.80 413.96 602.89 C 409.70 597.91 405.99 592.48 401.64 587.58 C 401.68 592.63 401.61 597.69 401.66 602.74 C 398.96 602.77 396.26 602.79 393.57 602.93 C 393.34 593.44 393.82 583.94 393.45 574.45 Z" />
</g>
<g id="#053573ff">
<path fill="#053573" opacity="1.00" d=" M 458.04 602.78 C 462.20 593.08 466.33 583.36 470.72 573.76 C 473.24 573.83 475.76 573.84 478.28 573.77 C 482.91 583.12 486.25 593.06 490.85 602.43 C 487.82 603.02 484.73 602.69 481.69 602.60 C 481.14 600.94 480.56 599.29 480.00 597.65 C 476.25 597.64 472.51 597.68 468.78 597.65 C 468.05 599.23 467.39 600.84 466.95 602.53 C 463.98 602.77 461.01 602.76 458.04 602.78 M 474.21 583.81 C 473.16 586.34 472.14 588.89 471.22 591.48 C 473.32 591.45 475.43 591.46 477.54 591.50 C 476.50 588.91 475.81 586.13 474.21 583.81 Z" />
<path fill="#053573" opacity="1.00" d=" M 363.24 619.49 C 366.31 619.64 369.38 619.61 372.46 619.47 C 375.03 625.23 376.26 631.67 379.30 637.14 C 381.19 631.96 382.84 626.65 385.25 621.69 C 385.16 622.29 384.96 623.50 384.87 624.10 C 386.84 622.26 389.29 620.55 392.02 621.99 C 389.98 626.95 387.81 631.86 385.97 636.90 C 386.47 636.69 387.45 636.27 387.95 636.05 C 386.36 640.16 384.33 644.10 383.01 648.31 C 380.30 648.71 377.56 648.61 374.84 648.44 C 371.23 638.69 367.15 629.12 363.24 619.49 Z" />
</g>
<g id="#053476ff">
<path fill="#053476" opacity="1.00" d=" M 495.56 574.11 C 498.26 574.19 500.97 574.19 503.68 574.14 C 503.64 583.65 503.42 593.17 503.60 602.69 C 500.80 602.71 498.00 602.71 495.21 602.70 C 495.50 593.17 495.15 583.63 495.56 574.11 Z" />
</g>
<g id="#053674ff">
<path fill="#053674" opacity="1.00" d=" M 139.46 574.53 C 147.34 574.53 155.22 574.57 163.10 574.51 C 163.11 576.85 163.12 579.19 163.16 581.54 C 157.98 581.53 152.80 581.46 147.62 581.58 C 147.63 583.17 147.63 584.78 147.62 586.39 C 152.25 586.33 156.89 586.33 161.53 586.39 C 161.48 588.65 161.44 590.92 161.32 593.19 C 156.67 593.23 151.95 592.70 147.36 593.45 C 145.41 596.26 145.79 599.96 144.90 603.17 C 143.08 603.21 141.25 603.28 139.44 603.36 C 139.32 593.75 139.53 584.14 139.46 574.53 Z" />
</g>
<g id="#072352ff">
<path fill="#072352" opacity="1.00" d=" M 169.50 574.50 C 177.41 574.65 185.31 574.49 193.22 574.54 C 193.19 576.85 193.18 579.17 193.20 581.49 C 188.27 581.36 183.32 581.65 178.40 581.28 C 181.91 578.54 186.77 580.55 190.88 579.82 C 190.88 578.59 190.87 577.36 190.87 576.15 C 185.24 575.73 179.61 576.29 173.97 576.20 C 171.65 576.17 170.90 578.84 169.59 580.29 C 169.59 578.35 169.56 576.42 169.50 574.50 Z" />
</g>
<g id="#043775ff">
<path fill="#043775" opacity="1.00" d=" M 199.57 574.47 C 202.35 574.43 205.14 574.41 207.93 574.56 C 207.66 584.05 207.67 593.56 207.80 603.06 C 205.04 603.23 202.28 603.21 199.52 603.29 C 199.41 593.68 199.65 584.08 199.57 574.47 Z" />
</g>
<g id="#063573ff">
<path fill="#063573" opacity="1.00" d=" M 248.69 574.47 C 256.62 574.38 264.55 574.52 272.47 574.35 C 272.49 576.68 272.47 579.01 272.42 581.34 C 267.19 581.22 261.97 581.26 256.74 581.34 C 256.76 582.37 256.79 584.41 256.81 585.44 C 261.49 585.54 266.18 585.55 270.86 585.38 C 271.25 587.50 271.24 589.68 270.98 591.83 C 266.25 591.71 261.53 591.80 256.80 591.77 C 256.78 593.28 256.76 594.79 256.74 596.31 C 261.96 596.29 267.19 596.37 272.41 596.16 C 272.63 598.52 272.60 600.89 272.47 603.26 C 264.52 603.05 256.57 603.24 248.62 603.19 C 248.66 593.62 248.79 584.04 248.69 574.47 Z" />
</g>
<g id="#073676ff">
<path fill="#073676" opacity="1.00" d=" M 325.74 574.84 C 331.82 574.60 337.91 574.67 344.00 574.60 C 348.64 575.60 352.13 580.17 351.43 584.97 C 351.28 588.53 348.75 591.40 345.74 593.03 C 347.44 596.62 350.48 599.36 352.18 602.95 C 349.33 602.98 346.45 602.60 343.66 603.32 C 340.73 600.97 339.22 597.41 337.08 594.42 C 335.80 594.29 334.52 594.18 333.24 594.08 C 333.28 596.92 333.28 599.76 333.25 602.61 C 330.72 602.65 328.19 602.63 325.66 602.56 C 325.61 593.32 325.54 584.07 325.74 574.84 M 331.87 580.58 C 332.26 580.72 333.03 581.01 333.41 581.15 L 333.47 582.53 C 331.58 582.43 330.69 588.03 333.38 586.51 C 333.51 586.89 333.76 587.67 333.88 588.06 L 334.72 588.20 L 333.99 589.27 C 334.53 589.53 335.62 590.04 336.16 590.29 C 340.45 591.21 344.44 588.36 345.62 584.27 C 344.22 582.43 342.88 580.56 341.53 578.70 C 340.63 578.75 339.72 578.80 338.83 578.88 C 336.54 579.65 333.99 579.22 331.87 580.58 Z" />
</g>
<g id="#063676ff">
<path fill="#063676" opacity="1.00" d=" M 367.93 574.14 C 370.62 574.15 373.32 574.15 376.01 574.13 C 378.23 579.45 380.60 584.71 382.69 590.09 C 381.20 593.94 385.18 597.29 385.25 601.19 C 383.76 601.11 382.29 601.03 380.81 600.94 C 380.24 599.15 379.60 597.13 377.84 596.18 C 373.72 595.29 369.46 595.84 365.31 596.23 C 364.55 597.78 363.93 599.44 362.82 600.78 C 361.42 601.13 359.99 601.31 358.54 601.33 C 359.79 595.35 363.06 590.07 365.34 584.45 C 366.02 583.10 365.62 581.58 365.57 580.17 C 365.89 578.03 367.23 576.17 367.93 574.14 M 371.79 583.74 C 370.81 586.32 369.74 588.87 368.47 591.33 C 370.63 591.54 372.81 591.57 374.99 591.57 C 373.95 588.95 373.05 586.26 371.79 583.74 Z" />
</g>
<g id="#02387dff">
<path fill="#02387d" opacity="1.00" d=" M 106.44 581.19 C 108.48 579.02 110.76 576.39 113.94 576.19 C 117.46 575.86 121.42 575.21 124.55 577.30 C 125.31 577.76 125.65 578.45 125.58 579.35 C 131.75 581.52 132.36 589.62 129.81 594.74 C 126.79 601.09 118.50 602.98 112.24 600.90 C 106.88 600.32 103.66 594.70 103.39 589.72 C 103.26 586.71 103.46 582.80 106.44 581.19 M 108.75 583.46 C 108.69 586.45 107.54 589.55 108.51 592.48 C 110.09 594.72 111.97 597.51 114.95 597.80 C 117.93 598.14 121.72 598.44 123.70 595.67 C 127.18 592.20 127.25 586.42 124.15 582.69 C 124.25 582.35 124.44 581.67 124.54 581.33 C 122.02 580.69 119.49 580.10 116.94 579.58 C 117.42 579.24 118.38 578.54 118.86 578.20 C 114.94 578.54 111.74 581.13 108.75 583.46 Z" />
</g>
<g id="#043774ff">
<path fill="#043774" opacity="1.00" d=" M 169.59 580.29 C 170.90 578.84 171.65 576.17 173.97 576.20 C 179.61 576.29 185.24 575.73 190.87 576.15 C 190.87 577.36 190.88 578.59 190.88 579.82 C 186.77 580.55 181.91 578.54 178.40 581.28 C 178.21 581.42 177.82 581.69 177.63 581.83 C 177.63 583.32 177.62 584.82 177.61 586.33 C 182.28 586.35 186.94 586.34 191.61 586.32 C 191.55 588.49 191.55 590.67 191.66 592.85 C 186.91 592.96 182.10 592.68 177.41 593.47 L 176.12 594.02 C 175.84 596.22 175.70 598.45 175.55 600.68 C 174.86 600.88 173.47 601.28 172.78 601.47 C 169.52 597.80 172.86 592.26 169.78 588.39 C 169.24 585.75 169.71 582.97 169.59 580.29 Z" />
</g>
<g id="#02387cff">
<path fill="#02387c" opacity="1.00" d=" M 297.25 583.30 C 297.33 580.95 294.88 575.99 298.90 576.11 C 304.46 576.38 310.07 575.68 315.59 576.43 C 316.04 577.22 316.46 578.04 316.84 578.88 C 312.16 580.26 307.19 578.97 302.39 579.24 C 301.62 582.34 300.89 585.83 302.98 588.61 C 306.83 588.17 311.04 587.00 314.76 588.28 C 314.86 588.96 315.06 590.33 315.16 591.02 C 310.83 591.75 306.47 590.74 302.12 591.21 C 301.46 594.42 301.50 597.73 300.98 600.97 C 299.19 599.89 296.21 599.29 296.41 596.64 C 296.53 592.18 296.50 587.70 297.25 583.30 Z" />
</g>
<g id="#fcfefdff">
<path fill="#fcfefd" opacity="1.00" d=" M 114.53 581.75 C 118.41 579.92 123.23 582.45 124.32 586.48 C 125.65 590.47 123.20 595.46 119.00 596.42 C 115.11 597.50 110.80 594.58 110.02 590.68 C 109.03 587.16 111.12 583.05 114.53 581.75 Z" />
</g>
<g id="#f4fbffff">
<path fill="#f4fbff" opacity="1.00" d=" M 333.41 581.15 C 335.90 581.31 338.41 581.08 340.89 581.46 C 343.14 581.81 344.31 584.98 342.53 586.61 C 340.52 588.72 337.33 588.06 334.72 588.20 L 333.88 588.06 C 333.76 587.67 333.51 586.89 333.38 586.51 C 333.48 585.17 333.55 583.85 333.47 582.53 L 333.41 581.15 Z" />
</g>
<g id="#022350ff">
<path fill="#022350" opacity="1.00" d=" M 333.38 586.51 C 330.69 588.03 331.58 582.43 333.47 582.53 C 333.55 583.85 333.48 585.17 333.38 586.51 Z" />
</g>
<g id="#f4ffffff">
<path fill="#f4ffff" opacity="1.00" d=" M 371.79 583.74 C 373.05 586.26 373.95 588.95 374.99 591.57 C 372.81 591.57 370.63 591.54 368.47 591.33 C 369.74 588.87 370.81 586.32 371.79 583.74 Z" />
</g>
<g id="#ebf0fdff">
<path fill="#ebf0fd" opacity="1.00" d=" M 474.21 583.81 C 475.81 586.13 476.50 588.91 477.54 591.50 C 475.43 591.46 473.32 591.45 471.22 591.48 C 472.14 588.89 473.16 586.34 474.21 583.81 Z" />
</g>
<g id="#0c2450ff">
<path fill="#0c2450" opacity="1.00" d=" M 169.78 588.39 C 172.86 592.26 169.52 597.80 172.78 601.47 C 173.47 601.28 174.86 600.88 175.55 600.68 C 175.70 598.45 175.84 596.22 176.12 594.02 L 177.41 593.47 C 177.59 596.73 177.54 600.00 177.48 603.27 C 174.81 603.22 172.13 603.22 169.46 603.27 C 169.66 598.31 169.30 593.33 169.78 588.39 Z" />
</g>
<g id="#071e4fff">
<path fill="#071e4f" opacity="1.00" d=" M 144.90 603.17 C 145.79 599.96 145.41 596.26 147.36 593.45 C 147.66 596.72 147.52 600.01 147.53 603.30 C 146.87 603.26 145.56 603.20 144.90 603.17 Z" />
</g>
<g id="#102c50ff">
<path fill="#102c50" opacity="1.00" d=" M 446.74 602.90 C 444.70 600.88 449.18 600.01 450.03 601.83 C 449.14 602.80 448.05 603.15 446.74 602.90 Z" />
</g>
<g id="#112764ff">
<path fill="#112764" opacity="1.00" d=" M 550.38 617.36 C 551.69 615.02 553.63 613.06 554.92 610.70 C 557.16 611.50 559.44 612.20 561.80 612.56 C 561.75 612.89 561.65 613.54 561.60 613.87 C 558.70 616.77 554.56 618.42 550.38 617.36 Z" />
</g>
<g id="#0c2344ff">
<path fill="#0c2344" opacity="1.00" d=" M 189.74 619.61 C 192.33 619.66 194.92 619.64 197.51 619.50 C 200.64 626.26 203.46 633.15 206.33 640.03 C 206.14 640.50 205.76 641.46 205.57 641.93 C 202.59 635.91 200.65 629.43 197.61 623.45 C 196.30 620.74 191.52 620.11 190.31 623.24 C 186.61 630.76 183.04 638.39 180.17 646.27 C 184.01 647.33 186.15 643.79 188.40 641.40 C 191.37 641.64 194.35 641.52 197.33 641.55 C 197.64 641.97 198.25 642.79 198.56 643.20 C 194.95 643.59 191.32 643.39 187.70 643.48 C 187.14 645.10 186.58 646.73 186.12 648.40 C 183.15 648.59 180.17 648.56 177.20 648.65 C 181.27 638.92 185.70 629.35 189.74 619.61 Z" />
</g>
<g id="#0d264aff">
<path fill="#0d264a" opacity="1.00" d=" M 229.53 619.66 C 234.72 619.83 239.91 619.66 245.10 619.73 C 248.03 619.66 250.98 620.83 253.05 622.90 C 255.25 625.91 254.59 631.22 250.87 632.69 C 252.18 629.40 253.82 624.36 249.46 622.54 C 243.56 621.17 237.17 620.68 231.21 622.06 C 230.84 630.07 230.88 638.07 231.23 646.08 C 237.40 647.62 244.16 647.54 250.19 645.41 C 253.13 644.61 254.25 641.05 253.40 638.37 C 252.59 637.14 251.38 636.26 250.34 635.26 C 250.85 635.05 251.86 634.63 252.37 634.42 C 257.69 637.81 255.66 646.71 249.55 647.82 C 242.87 649.10 235.94 648.32 229.17 648.38 C 229.55 638.81 229.20 629.23 229.53 619.66 Z" />
</g>
<g id="#0f2246ff">
<path fill="#0f2246" opacity="1.00" d=" M 385.62 619.59 C 388.67 619.61 391.73 619.58 394.79 619.43 C 392.61 625.01 390.22 630.51 387.95 636.05 C 387.45 636.27 386.47 636.69 385.97 636.90 C 387.81 631.86 389.98 626.95 392.02 621.99 C 389.29 620.55 386.84 622.26 384.87 624.10 C 384.96 623.50 385.16 622.29 385.25 621.69 C 385.34 621.17 385.53 620.12 385.62 619.59 Z" />
</g>
<g id="#053574ff">
<path fill="#053574" opacity="1.00" d=" M 467.70 621.69 C 471.42 618.38 476.80 618.92 481.36 619.51 C 483.61 620.33 486.63 620.82 487.97 622.95 C 487.07 625.04 485.35 626.69 484.15 628.62 C 480.89 626.48 474.90 623.35 472.45 628.07 C 472.05 627.89 471.27 627.51 470.88 627.32 C 472.16 629.15 473.46 631.44 475.94 631.72 C 479.88 632.78 486.00 633.11 486.75 638.22 C 487.74 642.07 484.48 644.83 482.56 647.71 C 476.20 650.23 468.71 648.01 463.16 644.33 C 464.48 642.16 466.23 640.32 467.92 638.45 C 471.11 641.15 475.56 642.69 479.70 641.53 C 479.98 641.16 480.54 640.43 480.81 640.06 C 478.39 636.44 473.04 637.57 469.53 635.45 C 463.70 633.63 463.16 625.14 467.70 621.69 Z" />
</g>
<g id="#03356fff">
<path fill="#03356f" opacity="1.00" d=" M 510.28 619.34 C 518.82 619.48 527.37 619.45 535.92 619.34 C 535.92 621.76 535.88 624.18 535.80 626.60 C 533.00 626.56 530.19 626.54 527.39 626.41 C 526.96 633.66 526.81 640.93 526.88 648.20 C 524.13 648.24 521.38 648.25 518.63 648.24 C 518.64 640.96 518.84 633.67 518.64 626.40 C 515.83 626.55 513.03 626.60 510.24 626.66 C 510.19 624.22 510.21 621.77 510.28 619.34 Z" />
</g>
<g id="#063473ff">
<path fill="#063473" opacity="1.00" d=" M 105.14 619.87 C 112.96 619.66 120.78 619.99 128.60 619.70 C 128.75 622.08 128.73 624.46 128.44 626.83 C 123.43 626.56 118.42 626.79 113.41 626.50 C 113.29 627.94 113.26 629.39 113.18 630.85 C 117.96 631.14 122.87 630.20 127.54 631.37 C 127.46 632.26 127.29 634.03 127.20 634.91 C 122.96 636.03 118.58 635.67 114.26 635.53 C 114.07 635.95 113.70 636.80 113.51 637.22 C 113.04 638.65 113.23 640.20 113.13 641.70 C 118.32 641.61 123.51 641.75 128.69 641.58 C 128.75 643.93 128.74 646.28 128.66 648.64 C 120.68 648.57 112.70 648.79 104.73 648.55 C 104.89 638.99 104.79 629.42 105.14 619.87 Z" />
</g>
<g id="#031933ff">
<path fill="#031933" opacity="1.00" d=" M 151.36 648.54 C 151.47 638.92 151.39 629.31 151.54 619.70 C 154.05 619.86 156.58 619.90 159.08 619.59 C 158.78 622.04 158.64 624.52 158.52 626.99 C 158.39 625.21 158.26 623.43 158.13 621.66 C 156.75 621.56 155.36 621.55 153.98 621.63 C 152.86 622.76 152.95 624.52 152.75 625.99 C 152.47 631.32 152.71 636.67 152.58 642.01 C 152.64 643.89 152.41 647.06 155.05 647.21 C 159.69 647.57 164.37 647.42 169.02 647.34 C 170.71 647.49 171.69 645.87 172.84 644.97 C 169.45 640.52 163.27 645.17 159.53 641.73 C 164.21 641.50 168.91 641.68 173.60 641.55 C 173.53 643.86 173.51 646.18 173.54 648.51 C 166.15 648.53 158.75 648.54 151.36 648.54 Z" />
<path fill="#031933" opacity="1.00" d=" M 442.24 625.55 C 442.29 625.26 442.39 624.70 442.44 624.42 C 445.99 625.19 451.66 625.00 451.90 629.87 C 451.63 630.31 451.10 631.21 450.83 631.65 L 450.57 630.60 C 450.49 630.20 450.35 629.39 450.27 628.99 C 450.13 624.98 445.00 625.82 442.24 625.55 Z" />
</g>
<g id="#043778ff">
<path fill="#043778" opacity="1.00" d=" M 159.08 619.59 C 160.01 620.86 159.58 622.50 159.66 623.96 C 159.55 629.88 159.53 635.80 159.53 641.73 C 163.27 645.17 169.45 640.52 172.84 644.97 C 171.69 645.87 170.71 647.49 169.02 647.34 C 164.37 647.42 159.69 647.57 155.05 647.21 C 152.41 647.06 152.64 643.89 152.58 642.01 C 152.71 636.67 152.47 631.32 152.75 625.99 C 152.95 624.52 152.86 622.76 153.98 621.63 C 155.36 621.55 156.75 621.56 158.13 621.66 C 158.26 623.43 158.39 625.21 158.52 626.99 C 158.64 624.52 158.78 622.04 159.08 619.59 Z" />
</g>
<g id="#063778ff">
<path fill="#063778" opacity="1.00" d=" M 280.49 624.09 C 286.47 617.84 297.09 617.58 303.61 623.12 L 303.63 623.35 C 303.62 627.45 306.91 630.79 306.47 634.99 C 306.69 639.29 303.61 643.46 299.29 644.14 C 297.16 647.41 292.67 648.18 289.17 646.91 C 285.96 645.71 282.43 644.31 280.74 641.12 C 277.91 637.76 277.11 632.45 279.89 628.84 C 280.90 627.46 280.38 625.64 280.49 624.09 M 290.52 626.61 C 285.27 627.97 283.21 635.15 286.85 639.13 C 289.93 643.46 297.59 642.10 299.12 637.04 C 301.76 631.73 296.35 624.83 290.52 626.61 Z" />
</g>
<g id="#043675ff">
<path fill="#043675" opacity="1.00" d=" M 314.65 619.62 C 320.81 619.94 327.16 618.78 333.14 620.70 C 334.39 621.30 336.53 621.25 336.71 623.08 C 336.73 623.13 336.77 623.22 336.79 623.27 L 337.00 623.34 C 338.37 623.02 339.13 624.41 339.85 625.30 C 344.64 631.36 343.20 641.29 336.65 645.54 C 330.12 649.95 321.93 648.00 314.57 648.43 C 314.66 638.82 314.83 629.22 314.65 619.62 M 322.83 641.39 C 325.56 641.26 328.52 641.66 330.97 640.15 C 329.10 642.39 325.32 640.87 323.73 643.16 C 326.42 643.27 329.31 643.32 331.62 641.70 C 333.52 640.71 336.51 638.76 333.98 636.65 C 335.03 633.54 333.83 629.74 330.99 628.02 C 328.74 626.59 325.94 626.83 323.41 626.52 C 322.25 631.36 323.21 636.44 322.83 641.39 Z" />
</g>
<g id="#053676ff">
<path fill="#053676" opacity="1.00" d=" M 432.16 619.69 C 438.65 619.42 445.18 619.24 451.65 619.94 L 451.61 620.16 C 451.53 620.56 451.38 621.36 451.31 621.76 C 454.06 623.45 457.37 625.67 456.54 629.43 C 456.92 633.69 453.15 636.02 450.21 638.26 C 451.69 640.97 454.61 643.29 454.59 646.56 C 451.80 647.14 449.14 645.53 448.11 642.94 C 446.69 639.89 443.58 635.91 439.93 638.38 C 442.88 638.37 445.28 639.78 446.19 642.66 C 444.94 640.56 443.12 638.84 440.45 639.49 C 440.49 642.45 440.56 645.42 440.33 648.38 C 437.58 648.32 434.84 648.32 432.11 648.34 C 432.31 638.79 432.50 629.23 432.16 619.69 M 442.24 625.55 C 445.00 625.82 450.13 624.98 450.27 628.99 C 448.22 625.44 443.87 626.70 440.53 626.55 C 440.52 628.79 440.50 631.04 440.43 633.29 C 443.97 633.32 448.35 634.17 450.57 630.60 L 450.83 631.65 C 451.10 631.21 451.63 630.31 451.90 629.87 C 451.66 625.00 445.99 625.19 442.44 624.42 C 442.39 624.70 442.29 625.26 442.24 625.55 M 439.74 633.32 C 440.40 630.84 440.30 628.28 439.79 625.79 C 437.59 627.36 437.27 631.92 439.74 633.32 M 442.43 634.35 C 443.17 635.80 446.91 635.50 447.69 634.15 C 446.07 633.49 443.97 633.54 442.43 634.35 Z" />
</g>
<g id="#033575ff">
<path fill="#033575" opacity="1.00" d=" M 495.74 619.42 C 498.54 619.42 501.34 619.42 504.15 619.45 C 504.10 629.05 503.65 638.65 503.86 648.26 C 501.10 648.26 498.34 648.27 495.58 648.25 C 495.63 638.64 495.68 629.03 495.74 619.42 Z" />
</g>
<g id="#073470ff">
<path fill="#073470" opacity="1.00" d=" M 541.52 619.38 C 549.46 619.43 557.40 619.33 565.35 619.42 C 565.27 621.70 565.27 623.98 565.33 626.26 C 560.13 626.17 554.93 626.26 549.73 626.19 C 549.68 627.59 549.64 628.99 549.61 630.41 C 554.29 630.47 558.98 630.45 563.67 630.43 C 563.64 632.55 563.62 634.67 563.64 636.79 C 558.96 636.84 554.28 636.77 549.61 636.77 C 549.58 638.26 549.56 639.76 549.55 641.27 C 554.89 641.32 560.25 640.94 565.58 641.49 C 565.51 642.31 565.37 643.93 565.30 644.74 C 563.46 645.60 561.70 646.62 560.34 648.14 C 554.04 648.30 547.74 648.20 541.45 648.21 C 541.48 638.60 541.63 628.99 541.52 619.38 Z" />
</g>
<g id="#033775ff">
<path fill="#033775" opacity="1.00" d=" M 190.31 623.24 C 191.52 620.11 196.30 620.74 197.61 623.45 C 200.65 629.43 202.59 635.91 205.57 641.93 C 205.76 641.46 206.14 640.50 206.33 640.03 C 207.85 642.83 208.63 646.02 210.55 648.62 C 207.53 648.45 204.49 648.78 201.49 648.45 C 200.18 646.93 199.89 644.74 198.56 643.20 C 198.25 642.79 197.64 641.97 197.33 641.55 C 194.35 641.52 191.37 641.64 188.40 641.40 C 186.15 643.79 184.01 647.33 180.17 646.27 C 183.04 638.39 186.61 630.76 190.31 623.24 M 190.69 630.02 C 190.29 632.11 189.71 634.16 189.11 636.21 L 190.73 636.02 C 190.69 636.44 190.61 637.27 190.58 637.69 C 190.94 639.56 195.30 639.10 195.55 637.37 L 196.71 637.48 C 195.98 635.03 195.03 632.65 194.25 630.23 C 193.95 630.27 193.34 630.35 193.04 630.39 L 192.80 630.98 C 192.27 630.74 191.22 630.26 190.69 630.02 Z" />
</g>
<g id="#063675ff">
<path fill="#063675" opacity="1.00" d=" M 231.21 622.06 C 237.17 620.68 243.56 621.17 249.46 622.54 C 253.82 624.36 252.18 629.40 250.87 632.69 C 250.75 632.97 250.50 633.53 250.38 633.81 C 250.88 633.96 251.87 634.27 252.37 634.42 C 251.86 634.63 250.85 635.05 250.34 635.26 C 251.38 636.26 252.59 637.14 253.40 638.37 C 254.25 641.05 253.13 644.61 250.19 645.41 C 244.16 647.54 237.40 647.62 231.23 646.08 C 230.88 638.07 230.84 630.07 231.21 622.06 M 237.30 626.30 C 237.31 627.99 237.34 629.69 237.29 631.39 C 236.92 633.84 239.80 632.94 241.16 633.08 C 242.98 632.89 246.84 633.21 246.09 630.20 C 246.62 628.92 245.77 627.77 245.36 626.62 C 242.69 626.26 239.99 626.21 237.30 626.30 M 237.52 642.36 C 240.42 642.04 243.34 641.92 246.23 641.50 C 246.58 640.84 247.27 639.52 247.61 638.87 C 245.13 635.82 240.87 637.21 237.49 636.71 C 237.17 638.58 237.24 640.48 237.52 642.36 Z" />
</g>
<g id="#003a7aff">
<path fill="#003a7a" opacity="1.00" d=" M 263.73 621.96 C 265.22 621.53 268.04 620.67 268.28 623.06 C 268.41 630.33 268.70 637.69 267.92 644.94 C 267.59 647.52 262.90 646.70 263.62 644.01 C 263.66 636.66 263.47 629.30 263.73 621.96 Z" />
</g>
<g id="#023b79ff">
<path fill="#023b79" opacity="1.00" d=" M 351.19 622.10 C 352.83 621.67 354.54 621.29 356.20 621.89 C 355.50 629.56 356.32 637.27 355.69 644.95 C 355.90 647.21 352.11 647.06 351.27 645.71 C 350.97 642.81 351.25 639.89 351.18 636.98 C 351.20 632.02 350.25 627.03 351.19 622.10 Z" />
</g>
<g id="#053677ff">
<path fill="#053677" opacity="1.00" d=" M 402.25 622.08 C 403.07 621.31 404.30 621.44 405.34 621.32 C 410.85 621.18 416.36 621.64 421.87 621.29 C 421.90 622.46 421.92 623.65 421.95 624.84 C 418.10 624.91 414.25 624.66 410.41 624.59 C 410.14 624.98 409.60 625.76 409.34 626.15 C 409.08 626.28 408.56 626.54 408.30 626.67 C 408.28 627.98 408.27 629.30 408.27 630.63 C 412.98 630.55 417.70 630.60 422.42 630.52 C 422.39 632.73 422.39 634.95 422.37 637.17 C 417.59 637.22 412.82 637.05 408.05 637.14 C 406.28 637.92 405.77 639.78 405.13 641.43 C 410.13 644.00 415.73 643.14 421.10 643.01 C 421.27 644.15 421.45 645.32 421.63 646.48 C 415.49 646.36 409.35 646.65 403.22 646.59 C 400.85 646.54 401.59 643.56 401.61 642.02 C 402.45 635.39 401.09 628.67 402.25 622.08 Z" />
</g>
<g id="#10274fff">
<path fill="#10274f" opacity="1.00" d=" M 451.31 621.76 C 451.38 621.36 451.53 620.56 451.61 620.16 C 456.86 621.55 459.90 627.80 457.73 632.79 C 457.03 635.57 454.50 637.08 452.26 638.54 C 454.57 641.72 457.42 644.68 458.95 648.34 C 455.90 648.29 452.85 648.26 449.81 648.28 C 448.51 646.46 447.22 644.63 446.19 642.66 C 445.28 639.78 442.88 638.37 439.93 638.38 C 443.58 635.91 446.69 639.89 448.11 642.94 C 449.14 645.53 451.80 647.14 454.59 646.56 C 454.61 643.29 451.69 640.97 450.21 638.26 C 453.15 636.02 456.92 633.69 456.54 629.43 C 457.37 625.67 454.06 623.45 451.31 621.76 Z" />
</g>
<g id="#043776ff">
<path fill="#043776" opacity="1.00" d=" M 72.29 622.33 C 78.53 621.13 85.27 621.14 91.15 623.81 C 94.09 625.80 96.55 628.90 96.70 632.58 C 96.96 636.03 96.79 640.75 93.00 642.24 C 89.96 643.83 87.48 646.64 83.94 647.12 C 80.06 647.37 76.17 647.13 72.31 646.83 C 71.73 638.67 71.99 630.50 72.29 622.33 M 78.52 627.50 C 78.90 632.14 78.65 636.80 78.60 641.45 C 81.44 641.71 84.49 641.71 87.00 640.17 C 90.65 637.81 90.87 632.05 87.91 629.06 C 85.27 626.96 81.69 626.78 78.52 627.50 Z" />
</g>
<g id="#00022bff">
<path fill="#00022b" opacity="1.00" d=" M 336.71 623.08 L 337.00 623.34 L 336.79 623.27 C 336.77 623.22 336.73 623.13 336.71 623.08 Z" />
</g>
<g id="#213a62ff">
<path fill="#213a62" opacity="1.00" d=" M 306.47 634.99 C 306.91 630.79 303.62 627.45 303.63 623.35 C 309.02 628.03 309.77 636.82 305.49 642.47 C 300.47 649.86 289.18 651.17 282.22 645.81 C 275.31 640.96 274.71 630.10 280.49 624.09 C 280.38 625.64 280.90 627.46 279.89 628.84 C 277.11 632.45 277.91 637.76 280.74 641.12 C 282.43 644.31 285.96 645.71 289.17 646.91 C 292.67 648.18 297.16 647.41 299.29 644.14 C 303.61 643.46 306.69 639.29 306.47 634.99 Z" />
</g>
<g id="#f1fbffff">
<path fill="#f1fbff" opacity="1.00" d=" M 237.30 626.30 C 239.99 626.21 242.69 626.26 245.36 626.62 C 245.77 627.77 246.62 628.92 246.09 630.20 C 243.33 631.55 240.25 631.32 237.29 631.39 C 237.34 629.69 237.31 627.99 237.30 626.30 Z" />
</g>
<g id="#fdfeffff">
<path fill="#fdfeff" opacity="1.00" d=" M 290.52 626.61 C 296.35 624.83 301.76 631.73 299.12 637.04 C 297.59 642.10 289.93 643.46 286.85 639.13 C 283.21 635.15 285.27 627.97 290.52 626.61 Z" />
</g>
<g id="#022855ff">
<path fill="#022855" opacity="1.00" d=" M 439.74 633.32 C 437.27 631.92 437.59 627.36 439.79 625.79 C 440.30 628.28 440.40 630.84 439.74 633.32 Z" />
</g>
<g id="#fefefeff">
<path fill="#fefefe" opacity="1.00" d=" M 78.52 627.50 C 81.69 626.78 85.27 626.96 87.91 629.06 C 90.87 632.05 90.65 637.81 87.00 640.17 C 84.49 641.71 81.44 641.71 78.60 641.45 C 78.65 636.80 78.90 632.14 78.52 627.50 Z" />
</g>
<g id="#fcfcfdff">
<path fill="#fcfcfd" opacity="1.00" d=" M 322.83 641.39 C 323.21 636.44 322.25 631.36 323.41 626.52 C 325.94 626.83 328.74 626.59 330.99 628.02 C 333.83 629.74 335.03 633.54 333.98 636.65 C 333.12 637.92 332.21 639.20 330.97 640.15 C 328.52 641.66 325.56 641.26 322.83 641.39 Z" />
</g>
<g id="#fffcfbff">
<path fill="#fffcfb" opacity="1.00" d=" M 440.53 626.55 C 443.87 626.70 448.22 625.44 450.27 628.99 C 450.35 629.39 450.49 630.20 450.57 630.60 C 448.35 634.17 443.97 633.32 440.43 633.29 C 440.50 631.04 440.52 628.79 440.53 626.55 Z" />
</g>
<g id="#02245fff">
<path fill="#02245f" opacity="1.00" d=" M 190.69 630.02 C 191.22 630.26 192.27 630.74 192.80 630.98 C 192.12 632.65 191.43 634.34 190.73 636.02 L 189.11 636.21 C 189.71 634.16 190.29 632.11 190.69 630.02 Z" />
</g>
<g id="#eeffffff">
<path fill="#eeffff" opacity="1.00" d=" M 193.04 630.39 C 193.34 630.35 193.95 630.27 194.25 630.23 C 195.03 632.65 195.98 635.03 196.71 637.48 L 195.55 637.37 C 193.89 637.16 192.18 637.19 190.58 637.69 C 190.61 637.27 190.69 636.44 190.73 636.02 C 191.43 634.34 192.12 632.65 192.80 630.98 L 193.04 630.39 Z" />
</g>
<g id="#052657ff">
<path fill="#052657" opacity="1.00" d=" M 237.29 631.39 C 240.25 631.32 243.33 631.55 246.09 630.20 C 246.84 633.21 242.98 632.89 241.16 633.08 C 239.80 632.94 236.92 633.84 237.29 631.39 Z" />
</g>
<g id="#052058ff">
<path fill="#052058" opacity="1.00" d=" M 442.43 634.35 C 443.97 633.54 446.07 633.49 447.69 634.15 C 446.91 635.50 443.17 635.80 442.43 634.35 Z" />
</g>
<g id="#08285aff">
<path fill="#08285a" opacity="1.00" d=" M 114.26 635.53 C 118.58 635.67 122.96 636.03 127.20 634.91 C 127.22 635.54 127.27 636.78 127.30 637.41 C 122.70 637.32 118.10 637.57 113.51 637.22 C 113.70 636.80 114.07 635.95 114.26 635.53 Z" />
</g>
<g id="#f3fffdff">
<path fill="#f3fffd" opacity="1.00" d=" M 237.52 642.36 C 237.24 640.48 237.17 638.58 237.49 636.71 C 240.87 637.21 245.13 635.82 247.61 638.87 C 247.27 639.52 246.58 640.84 246.23 641.50 C 243.34 641.92 240.42 642.04 237.52 642.36 Z" />
</g>
<g id="#0a2655ff">
<path fill="#0a2655" opacity="1.00" d=" M 333.98 636.65 C 336.51 638.76 333.52 640.71 331.62 641.70 C 329.31 643.32 326.42 643.27 323.73 643.16 C 325.32 640.87 329.10 642.39 330.97 640.15 C 332.21 639.20 333.12 637.92 333.98 636.65 Z" />
</g>
<g id="#011c53ff">
<path fill="#011c53" opacity="1.00" d=" M 190.58 637.69 C 192.18 637.19 193.89 637.16 195.55 637.37 C 195.30 639.10 190.94 639.56 190.58 637.69 Z" />
</g>
<g id="#0c2c57ff">
<path fill="#0c2c57" opacity="1.00" d=" M 560.34 648.14 C 561.70 646.62 563.46 645.60 565.30 644.74 C 565.32 645.60 565.36 647.33 565.38 648.19 C 563.69 648.18 562.01 648.17 560.34 648.14 Z" />
</g>
</svg>
