<?xml version="1.0" encoding="UTF-8" ?>
<!DOCTYPE svg PUBLIC "-//W3C//DTD SVG 1.1//EN" "http://www.w3.org/Graphics/SVG/1.1/DTD/svg11.dtd">
<svg width="198pt" height="64pt" viewBox="0 0 198 64" version="1.1" xmlns="http://www.w3.org/2000/svg">
<g id="#ffffffff">
<path fill="#ffffff" opacity="1.00" d=" M 0.00 0.00 L 198.00 0.00 L 198.00 64.00 L 0.00 64.00 L 0.00 0.00 M 44.37 12.35 C 40.82 15.16 46.21 20.36 49.16 17.17 C 52.88 14.38 47.34 9.18 44.37 12.35 M 13.80 13.03 C 13.80 24.68 13.80 36.33 13.80 47.97 C 15.93 48.00 18.07 48.00 20.20 47.97 C 20.20 43.68 20.20 39.38 20.20 35.08 C 22.36 35.09 24.52 35.11 26.68 35.17 C 28.91 39.31 31.01 43.53 33.36 47.60 C 35.58 48.46 38.14 47.81 40.49 48.01 C 37.98 43.49 35.54 38.92 33.01 34.41 C 40.61 30.99 41.45 19.06 34.25 14.83 C 27.93 11.63 20.58 13.47 13.80 13.03 M 109.37 13.01 C 109.37 24.67 109.37 36.33 109.37 47.99 C 116.61 47.97 123.85 48.08 131.10 47.92 C 130.79 46.33 131.85 44.05 130.34 42.98 C 125.44 42.76 120.54 42.98 115.63 42.90 C 115.63 32.93 115.63 22.97 115.63 13.00 C 113.54 13.00 111.45 13.00 109.37 13.01 M 161.24 13.00 C 161.25 24.67 161.25 36.34 161.25 48.00 C 163.23 48.01 165.21 48.00 167.20 47.97 C 167.19 46.55 167.19 45.13 167.19 43.71 C 169.93 48.73 176.89 49.87 181.30 46.39 C 185.87 42.74 186.31 36.29 185.51 30.92 C 184.77 26.17 180.95 21.73 175.91 21.51 C 172.24 20.92 169.19 23.32 167.27 26.20 C 167.33 21.80 167.29 17.40 167.30 13.00 C 165.28 13.00 163.26 13.00 161.24 13.00 M 43.70 21.90 C 43.70 30.60 43.70 39.30 43.70 48.00 C 45.72 48.00 47.74 48.00 49.76 47.99 C 49.75 39.30 49.75 30.60 49.75 21.90 C 47.73 21.90 45.72 21.90 43.70 21.90 M 58.23 23.18 C 54.30 25.25 53.27 31.35 56.69 34.33 C 60.16 37.41 65.33 36.62 69.17 38.86 C 71.40 41.01 68.62 44.05 66.08 43.90 C 63.09 44.55 60.56 42.58 59.26 40.06 C 57.39 40.47 55.52 40.89 53.65 41.31 C 56.11 49.04 66.36 50.28 72.57 46.54 C 76.27 44.45 77.63 38.82 74.49 35.68 C 70.92 32.20 65.15 33.48 61.30 30.65 C 59.11 28.36 62.63 25.68 64.97 25.97 C 67.42 25.51 69.17 27.40 70.49 29.15 C 72.28 28.86 74.05 28.51 75.82 28.11 C 73.41 21.01 64.06 19.93 58.23 23.18 M 81.71 25.64 C 78.85 29.48 78.93 34.59 79.50 39.11 C 80.34 44.08 84.59 48.83 89.96 48.36 C 93.37 48.78 95.88 46.28 97.71 43.77 C 97.68 48.48 97.71 53.18 97.69 57.89 C 99.71 57.89 101.73 57.89 103.75 57.88 C 103.76 45.89 103.75 33.90 103.75 21.90 C 101.77 21.90 99.78 21.90 97.79 21.91 C 97.81 23.37 97.82 24.83 97.84 26.28 C 96.56 24.87 95.47 23.19 93.75 22.27 C 89.61 20.44 84.26 21.86 81.71 25.64 M 133.96 28.28 C 135.76 28.68 137.57 29.00 139.40 29.26 C 141.32 26.57 145.23 24.88 148.19 26.94 C 149.84 27.80 149.87 29.88 149.59 31.48 C 145.40 33.17 140.51 32.19 136.56 34.57 C 131.94 37.04 132.33 44.72 136.77 47.18 C 141.08 49.67 147.09 48.70 149.95 44.49 C 149.93 45.34 149.89 47.05 149.87 47.90 C 151.83 47.98 153.79 48.02 155.75 48.02 C 155.55 41.22 156.17 34.37 155.44 27.61 C 152.20 18.83 137.03 19.59 133.96 28.28 Z" />
<path fill="#ffffff" opacity="1.00" d=" M 20.20 18.33 C 23.21 18.45 26.32 17.93 29.25 18.79 C 33.93 20.09 34.14 27.86 29.60 29.50 C 26.58 30.43 23.32 29.87 20.20 29.99 C 20.20 26.11 20.20 22.22 20.20 18.33 Z" />
<path fill="#ffffff" opacity="1.00" d=" M 88.36 27.33 C 91.31 25.42 95.76 26.73 96.96 30.10 C 98.20 33.59 98.25 37.85 96.19 41.05 C 94.13 44.50 88.24 44.14 86.57 40.48 C 84.51 36.41 84.57 30.39 88.36 27.33 Z" />
<path fill="#ffffff" opacity="1.00" d=" M 170.32 27.27 C 173.34 25.37 177.77 26.82 178.86 30.26 C 180.32 34.28 180.15 39.72 176.57 42.59 C 173.43 44.58 168.96 42.97 167.86 39.41 C 166.76 35.41 166.60 29.99 170.32 27.27 Z" />
<path fill="#ffffff" opacity="1.00" d=" M 139.38 39.14 C 141.68 35.97 146.52 36.95 149.86 35.74 C 149.92 38.44 149.90 41.76 147.10 43.16 C 144.12 45.33 137.73 43.73 139.38 39.14 Z" />
</g>
<g id="#11181cff">
<path fill="#11181c" opacity="1.00" d=" M 44.37 12.35 C 47.34 9.18 52.88 14.38 49.16 17.17 C 46.21 20.36 40.82 15.16 44.37 12.35 Z" />
<path fill="#11181c" opacity="1.00" d=" M 13.80 13.03 C 20.58 13.47 27.93 11.63 34.25 14.83 C 41.45 19.06 40.61 30.99 33.01 34.41 C 35.54 38.92 37.98 43.49 40.49 48.01 C 38.14 47.81 35.58 48.46 33.36 47.60 C 31.01 43.53 28.91 39.31 26.68 35.17 C 24.52 35.11 22.36 35.09 20.20 35.08 C 20.20 39.38 20.20 43.68 20.20 47.97 C 18.07 48.00 15.93 48.00 13.80 47.97 C 13.80 36.33 13.80 24.68 13.80 13.03 M 20.20 18.33 C 20.20 22.22 20.20 26.11 20.20 29.99 C 23.32 29.87 26.58 30.43 29.60 29.50 C 34.14 27.86 33.93 20.09 29.25 18.79 C 26.32 17.93 23.21 18.45 20.20 18.33 Z" />
<path fill="#11181c" opacity="1.00" d=" M 109.37 13.01 C 111.45 13.00 113.54 13.00 115.63 13.00 C 115.63 22.97 115.63 32.93 115.63 42.90 C 120.54 42.98 125.44 42.76 130.34 42.98 C 131.85 44.05 130.79 46.33 131.10 47.92 C 123.85 48.08 116.61 47.97 109.37 47.99 C 109.37 36.33 109.37 24.67 109.37 13.01 Z" />
<path fill="#11181c" opacity="1.00" d=" M 161.24 13.00 C 163.26 13.00 165.28 13.00 167.30 13.00 C 167.29 17.40 167.33 21.80 167.27 26.20 C 169.19 23.32 172.24 20.92 175.91 21.51 C 180.95 21.73 184.77 26.17 185.51 30.92 C 186.31 36.29 185.87 42.74 181.30 46.39 C 176.89 49.87 169.93 48.73 167.19 43.71 C 167.19 45.13 167.19 46.55 167.20 47.97 C 165.21 48.00 163.23 48.01 161.25 48.00 C 161.25 36.34 161.25 24.67 161.24 13.00 M 170.32 27.27 C 166.60 29.99 166.76 35.41 167.86 39.41 C 168.96 42.97 173.43 44.58 176.57 42.59 C 180.15 39.72 180.32 34.28 178.86 30.26 C 177.77 26.82 173.34 25.37 170.32 27.27 Z" />
<path fill="#11181c" opacity="1.00" d=" M 43.70 21.90 C 45.72 21.90 47.73 21.90 49.75 21.90 C 49.75 30.60 49.75 39.30 49.76 47.99 C 47.74 48.00 45.72 48.00 43.70 48.00 C 43.70 39.30 43.70 30.60 43.70 21.90 Z" />
<path fill="#11181c" opacity="1.00" d=" M 58.23 23.18 C 64.06 19.93 73.41 21.01 75.82 28.11 C 74.05 28.51 72.28 28.86 70.49 29.15 C 69.17 27.40 67.42 25.51 64.97 25.97 C 62.63 25.68 59.11 28.36 61.30 30.65 C 65.15 33.48 70.92 32.20 74.49 35.68 C 77.63 38.82 76.27 44.45 72.57 46.54 C 66.36 50.28 56.11 49.04 53.65 41.31 C 55.52 40.89 57.39 40.47 59.26 40.06 C 60.56 42.58 63.09 44.55 66.08 43.90 C 68.62 44.05 71.40 41.01 69.17 38.86 C 65.33 36.62 60.16 37.41 56.69 34.33 C 53.27 31.35 54.30 25.25 58.23 23.18 Z" />
<path fill="#11181c" opacity="1.00" d=" M 81.71 25.64 C 84.26 21.86 89.61 20.44 93.75 22.27 C 95.47 23.19 96.56 24.87 97.84 26.28 C 97.82 24.83 97.81 23.37 97.79 21.91 C 99.78 21.90 101.77 21.90 103.75 21.90 C 103.75 33.90 103.76 45.89 103.75 57.88 C 101.73 57.89 99.71 57.89 97.69 57.89 C 97.71 53.18 97.68 48.48 97.71 43.77 C 95.88 46.28 93.37 48.78 89.96 48.36 C 84.59 48.83 80.34 44.08 79.50 39.11 C 78.93 34.59 78.85 29.48 81.71 25.64 M 88.36 27.33 C 84.57 30.39 84.51 36.41 86.57 40.48 C 88.24 44.14 94.13 44.50 96.19 41.05 C 98.25 37.85 98.20 33.59 96.96 30.10 C 95.76 26.73 91.31 25.42 88.36 27.33 Z" />
<path fill="#11181c" opacity="1.00" d=" M 133.96 28.28 C 137.03 19.59 152.20 18.83 155.44 27.61 C 156.17 34.37 155.55 41.22 155.75 48.02 C 153.79 48.02 151.83 47.98 149.87 47.90 C 149.89 47.05 149.93 45.34 149.95 44.49 C 147.09 48.70 141.08 49.67 136.77 47.18 C 132.33 44.72 131.94 37.04 136.56 34.57 C 140.51 32.19 145.40 33.17 149.59 31.48 C 149.87 29.88 149.84 27.80 148.19 26.94 C 145.23 24.88 141.32 26.57 139.40 29.26 C 137.57 29.00 135.76 28.68 133.96 28.28 M 139.38 39.14 C 137.73 43.73 144.12 45.33 147.10 43.16 C 149.90 41.76 149.92 38.44 149.86 35.74 C 146.52 36.95 141.68 35.97 139.38 39.14 Z" />
</g>
</svg>
