<svg width="778" height="116" viewBox="0 0 778 116" fill="none" xmlns="http://www.w3.org/2000/svg">
<path d="M36.4 90.2C30.88 90.2 25.88 89.56 21.4 88.28C17 86.92 13.08 85 9.64 82.52C6.2 79.96 3.12 76.96 0.4 73.52L12.76 59.48C16.76 64.84 20.76 68.44 24.76 70.28C28.84 72.12 33.04 73.04 37.36 73.04C39.52 73.04 41.48 72.76 43.24 72.2C45 71.64 46.36 70.84 47.32 69.8C48.28 68.68 48.76 67.32 48.76 65.72C48.76 64.52 48.44 63.44 47.8 62.48C47.24 61.52 46.44 60.68 45.4 59.96C44.36 59.24 43.12 58.6 41.68 58.04C40.24 57.4 38.72 56.88 37.12 56.48C35.52 56 33.88 55.6 32.2 55.28C27.56 54.24 23.52 52.96 20.08 51.44C16.64 49.92 13.76 48.08 11.44 45.92C9.2 43.68 7.52 41.16 6.4 38.36C5.28 35.48 4.72 32.28 4.72 28.76C4.72 25 5.56 21.56 7.24 18.44C9 15.24 11.32 12.52 14.2 10.28C17.16 7.95999 20.56 6.19999 24.4 4.99999C28.24 3.72 32.24 3.08 36.4 3.08C41.92 3.08 46.64 3.68 50.56 4.88C54.56 6 57.96 7.64 60.76 9.8C63.64 11.96 66.08 14.56 68.08 17.6L55.48 29.72C53.8 27.64 51.96 25.92 49.96 24.56C48.04 23.2 45.96 22.16 43.72 21.44C41.56 20.72 39.32 20.36 37 20.36C34.6 20.36 32.52 20.68 30.76 21.32C29.08 21.88 27.76 22.72 26.8 23.84C25.84 24.88 25.36 26.16 25.36 27.68C25.36 29.04 25.76 30.2 26.56 31.16C27.36 32.12 28.44 33 29.8 33.8C31.16 34.52 32.72 35.16 34.48 35.72C36.24 36.2 38.08 36.6 40 36.92C44.4 37.8 48.36 38.96 51.88 40.4C55.48 41.84 58.56 43.6 61.12 45.68C63.76 47.76 65.76 50.24 67.12 53.12C68.56 55.92 69.28 59.2 69.28 62.96C69.28 68.8 67.84 73.76 64.96 77.84C62.16 81.84 58.28 84.92 53.32 87.08C48.44 89.16 42.8 90.2 36.4 90.2ZM82.5747 89V0.199999H101.415V38.24L97.5747 39.68C98.4547 36.8 100.015 34.2 102.255 31.88C104.575 29.48 107.335 27.56 110.535 26.12C113.735 24.68 117.095 23.96 120.615 23.96C125.415 23.96 129.455 24.96 132.735 26.96C136.015 28.88 138.495 31.8 140.175 35.72C141.855 39.56 142.695 44.28 142.695 49.88V89H123.375V51.44C123.375 48.88 123.015 46.76 122.295 45.08C121.575 43.4 120.455 42.16 118.935 41.36C117.495 40.48 115.695 40.08 113.535 40.16C111.855 40.16 110.295 40.44 108.855 41C107.415 41.48 106.175 42.24 105.135 43.28C104.095 44.24 103.255 45.36 102.615 46.64C102.055 47.92 101.775 49.32 101.775 50.84V89H92.2947C90.0547 89 88.1347 89 86.5347 89C84.9347 89 83.6147 89 82.5747 89ZM188.747 90.2C182.107 90.2 176.187 88.76 170.987 85.88C165.867 83 161.787 79.08 158.747 74.12C155.787 69.16 154.307 63.48 154.307 57.08C154.307 50.68 155.787 45 158.747 40.04C161.787 35.08 165.867 31.16 170.987 28.28C176.187 25.4 182.107 23.96 188.747 23.96C195.387 23.96 201.267 25.4 206.387 28.28C211.587 31.16 215.667 35.08 218.627 40.04C221.587 45 223.067 50.68 223.067 57.08C223.067 63.48 221.587 69.16 218.627 74.12C215.667 79.08 211.587 83 206.387 85.88C201.267 88.76 195.387 90.2 188.747 90.2ZM188.747 73.64C191.627 73.64 194.187 72.92 196.427 71.48C198.667 70.04 200.427 68.08 201.707 65.6C202.987 63.12 203.587 60.28 203.507 57.08C203.587 53.88 202.987 51.04 201.707 48.56C200.427 46 198.667 44 196.427 42.56C194.187 41.12 191.627 40.4 188.747 40.4C185.867 40.4 183.267 41.12 180.947 42.56C178.707 44 176.947 46 175.667 48.56C174.387 51.04 173.787 53.88 173.867 57.08C173.787 60.28 174.387 63.12 175.667 65.6C176.947 68.08 178.707 70.04 180.947 71.48C183.267 72.92 185.867 73.64 188.747 73.64ZM235.622 115.4V25.28H253.862L254.582 39.56L250.982 38.48C251.542 35.84 252.902 33.44 255.062 31.28C257.222 29.12 259.942 27.4 263.222 26.12C266.582 24.76 270.102 24.08 273.782 24.08C279.222 24.08 284.062 25.52 288.302 28.4C292.542 31.2 295.862 35.08 298.262 40.04C300.742 44.92 301.982 50.6 301.982 57.08C301.982 63.48 300.742 69.16 298.262 74.12C295.862 79.08 292.502 83 288.182 85.88C283.942 88.68 279.062 90.08 273.542 90.08C269.942 90.08 266.502 89.4 263.222 88.04C259.942 86.68 257.182 84.84 254.942 82.52C252.702 80.2 251.222 77.68 250.502 74.96L254.942 73.28V115.4H235.622ZM268.862 73.88C271.742 73.88 274.262 73.2 276.422 71.84C278.582 70.4 280.262 68.44 281.462 65.96C282.662 63.48 283.262 60.52 283.262 57.08C283.262 53.72 282.662 50.8 281.462 48.32C280.262 45.76 278.582 43.8 276.422 42.44C274.342 41 271.822 40.28 268.862 40.28C265.902 40.28 263.342 40.96 261.182 42.32C259.022 43.68 257.342 45.64 256.142 48.2C254.942 50.76 254.342 53.72 254.342 57.08C254.342 60.52 254.942 63.48 256.142 65.96C257.342 68.44 259.022 70.4 261.182 71.84C263.342 73.2 265.902 73.88 268.862 73.88ZM767.344 90.32C764.064 90.32 761.504 89.4 759.664 87.56C757.904 85.72 757.024 83.08 757.024 79.64C757.024 76.44 757.984 73.84 759.904 71.84C761.824 69.84 764.304 68.84 767.344 68.84C770.624 68.84 773.184 69.8 775.024 71.72C776.864 73.56 777.784 76.2 777.784 79.64C777.784 82.76 776.824 85.32 774.904 87.32C772.984 89.32 770.464 90.32 767.344 90.32Z" fill="#00396D"/>
<path d="M329.261 89V23H304.301V4.99999H375.221V23H349.661V89H329.261ZM380.465 89V25.28H398.705L399.545 46.04L395.945 42.08C396.905 38.64 398.465 35.56 400.625 32.84C402.865 30.12 405.465 27.96 408.425 26.36C411.385 24.76 414.545 23.96 417.905 23.96C419.345 23.96 420.665 24.08 421.865 24.32C423.145 24.56 424.305 24.84 425.345 25.16L420.065 46.4C419.185 45.84 417.985 45.4 416.465 45.08C415.025 44.68 413.505 44.48 411.905 44.48C410.145 44.48 408.505 44.8 406.985 45.44C405.465 46 404.185 46.84 403.145 47.96C402.105 49.08 401.265 50.4 400.625 51.92C400.065 53.44 399.785 55.16 399.785 57.08V89H380.465ZM455.899 90.08C450.539 90.08 445.739 88.68 441.499 85.88C437.339 83 434.019 79.08 431.539 74.12C429.059 69.08 427.819 63.4 427.819 57.08C427.819 50.6 429.059 44.88 431.539 39.92C434.019 34.96 437.419 31.08 441.739 28.28C446.059 25.4 450.979 23.96 456.499 23.96C459.539 23.96 462.299 24.4 464.779 25.28C467.339 26.16 469.579 27.4 471.499 29C473.419 30.52 475.059 32.32 476.419 34.4C477.779 36.4 478.779 38.56 479.419 40.88L475.459 40.4V25.28H494.539V89H475.099V73.64L479.419 73.52C478.779 75.76 477.739 77.88 476.299 79.88C474.859 81.88 473.099 83.64 471.019 85.16C468.939 86.68 466.619 87.88 464.059 88.76C461.499 89.64 458.779 90.08 455.899 90.08ZM461.179 73.88C464.139 73.88 466.699 73.2 468.859 71.84C471.019 70.48 472.699 68.56 473.899 66.08C475.099 63.52 475.699 60.52 475.699 57.08C475.699 53.64 475.099 50.68 473.899 48.2C472.699 45.64 471.019 43.68 468.859 42.32C466.699 40.88 464.139 40.16 461.179 40.16C458.299 40.16 455.779 40.88 453.619 42.32C451.539 43.68 449.899 45.64 448.699 48.2C447.499 50.68 446.899 53.64 446.899 57.08C446.899 60.52 447.499 63.52 448.699 66.08C449.899 68.56 451.539 70.48 453.619 71.84C455.779 73.2 458.299 73.88 461.179 73.88ZM539.441 90.2C533.281 90.2 527.761 88.76 522.881 85.88C518.001 83 514.121 79.08 511.241 74.12C508.441 69.08 507.041 63.4 507.041 57.08C507.041 50.76 508.441 45.12 511.241 40.16C514.121 35.12 518.001 31.16 522.881 28.28C527.761 25.4 533.281 23.96 539.441 23.96C545.121 23.96 550.321 24.96 555.041 26.96C559.841 28.96 563.641 31.76 566.441 35.36L556.001 47.84C554.881 46.56 553.561 45.36 552.041 44.24C550.521 43.12 548.841 42.24 547.001 41.6C545.161 40.96 543.241 40.64 541.241 40.64C538.201 40.64 535.521 41.36 533.201 42.8C530.881 44.16 529.081 46.08 527.801 48.56C526.521 51.04 525.881 53.88 525.881 57.08C525.881 60.12 526.521 62.88 527.801 65.36C529.161 67.84 531.001 69.8 533.321 71.24C535.641 72.68 538.281 73.4 541.241 73.4C543.321 73.4 545.241 73.16 547.001 72.68C548.761 72.12 550.361 71.32 551.801 70.28C553.321 69.24 554.721 67.96 556.001 66.44L566.321 79.04C563.601 82.48 559.801 85.2 554.921 87.2C550.121 89.2 544.961 90.2 539.441 90.2ZM595.352 70.28L588.272 55.88L618.032 25.28H643.352L595.352 70.28ZM576.872 89V0.199999H596.072V89H576.872ZM620.072 89L597.632 59.96L611.192 49.4L642.752 89H620.072ZM679.653 90.2C672.613 90.2 666.493 88.8 661.293 86C656.093 83.12 652.053 79.24 649.173 74.36C646.293 69.4 644.853 63.76 644.853 57.44C644.853 52.56 645.653 48.08 647.253 44C648.853 39.92 651.093 36.4 653.973 33.44C656.853 30.4 660.253 28.08 664.173 26.48C668.173 24.8 672.533 23.96 677.253 23.96C681.733 23.96 685.813 24.76 689.493 26.36C693.253 27.96 696.493 30.2 699.213 33.08C701.933 35.96 704.013 39.36 705.453 43.28C706.893 47.2 707.533 51.48 707.373 56.12L707.253 61.28H656.493L653.733 50.48H691.653L689.613 52.76V50.36C689.453 48.36 688.813 46.6 687.693 45.08C686.653 43.48 685.253 42.24 683.493 41.36C681.733 40.48 679.733 40.04 677.493 40.04C674.373 40.04 671.693 40.68 669.453 41.96C667.293 43.16 665.653 44.96 664.533 47.36C663.413 49.68 662.853 52.56 662.853 56C662.853 59.52 663.573 62.6 665.013 65.24C666.533 67.8 668.693 69.8 671.493 71.24C674.373 72.68 677.773 73.4 681.693 73.4C684.413 73.4 686.813 73 688.893 72.2C691.053 71.4 693.373 70.04 695.853 68.12L704.853 80.84C702.373 83 699.733 84.76 696.933 86.12C694.133 87.48 691.253 88.48 688.293 89.12C685.413 89.84 682.533 90.2 679.653 90.2ZM719.606 89V25.28H737.846L738.686 46.04L735.086 42.08C736.046 38.64 737.606 35.56 739.766 32.84C742.006 30.12 744.606 27.96 747.566 26.36C750.526 24.76 753.686 23.96 757.046 23.96C758.486 23.96 759.806 24.08 761.006 24.32C762.286 24.56 763.446 24.84 764.486 25.16L759.206 46.4C758.326 45.84 757.126 45.4 755.606 45.08C754.166 44.68 752.646 44.48 751.046 44.48C749.286 44.48 747.646 44.8 746.126 45.44C744.606 46 743.326 46.84 742.286 47.96C741.246 49.08 740.406 50.4 739.766 51.92C739.206 53.44 738.926 55.16 738.926 57.08V89H719.606Z" fill="#FFA217"/>
</svg>
