<?xml version="1.0" encoding="UTF-8" ?>
<!DOCTYPE svg PUBLIC "-//W3C//DTD SVG 1.1//EN" "http://www.w3.org/Graphics/SVG/1.1/DTD/svg11.dtd">
<svg width="342pt" height="155pt" viewBox="0 0 342 155" version="1.1" xmlns="http://www.w3.org/2000/svg">
<g id="#0088c6ff">
<path fill="#0088c6" opacity="1.00" d=" M 35.36 0.00 L 35.69 0.00 C 39.11 6.94 43.42 13.48 46.14 20.75 C 47.90 25.24 46.72 30.05 45.46 34.50 C 39.27 34.50 33.08 34.50 26.89 34.49 C 29.59 22.97 33.25 11.64 35.36 0.00 Z" />
<path fill="#0088c6" opacity="1.00" d=" M 24.91 42.08 C 29.49 47.80 34.16 53.45 38.53 59.32 C 37.98 64.21 36.13 68.93 35.06 73.75 C 30.71 73.37 25.96 74.25 21.96 72.13 C 19.11 70.67 18.36 67.05 19.27 64.19 C 21.12 56.81 23.04 49.45 24.91 42.08 Z" />
<path fill="#0088c6" opacity="1.00" d=" M 185.63 101.89 C 186.09 98.75 189.73 98.94 192.10 98.45 C 190.90 102.16 189.76 105.90 188.49 109.59 C 193.16 108.13 199.27 106.96 203.05 110.93 C 206.01 115.07 203.27 120.85 199.59 123.59 C 193.52 128.45 185.30 127.77 178.01 127.72 C 180.75 119.17 183.37 110.58 185.63 101.89 M 187.71 112.44 C 186.49 116.64 185.16 120.80 184.24 125.08 C 188.65 124.83 193.83 124.58 196.80 120.78 C 198.36 118.64 200.01 115.32 198.02 112.96 C 195.26 110.15 190.98 111.33 187.71 112.44 Z" />
<path fill="#0088c6" opacity="1.00" d=" M 129.53 102.05 C 131.56 101.89 133.58 101.76 135.61 101.67 C 134.36 105.52 133.16 109.38 131.97 113.25 C 137.30 113.23 142.62 113.32 147.94 113.17 C 149.03 109.47 150.11 105.76 150.97 102.00 C 152.95 101.87 154.93 101.77 156.92 101.70 C 154.23 110.21 151.45 118.73 149.54 127.46 C 147.49 127.59 145.43 127.72 143.38 127.83 C 144.75 123.65 146.08 119.46 147.36 115.25 C 142.01 115.25 136.67 115.24 131.32 115.26 C 130.10 119.30 129.00 123.37 127.96 127.46 C 125.94 127.58 123.92 127.72 121.89 127.84 C 124.67 119.32 127.42 110.77 129.53 102.05 Z" />
<path fill="#0088c6" opacity="1.00" d=" M 209.69 105.46 C 210.20 101.78 214.02 102.87 216.69 102.69 C 216.41 103.63 216.12 104.56 215.84 105.50 C 213.79 105.50 211.73 105.49 209.69 105.46 Z" />
<path fill="#0088c6" opacity="1.00" d=" M 223.26 104.16 C 224.79 103.46 226.47 103.23 228.09 102.82 C 227.42 104.80 226.76 106.78 226.12 108.78 C 228.14 108.74 230.15 108.70 232.17 108.70 C 231.15 111.65 227.96 110.29 225.65 110.49 C 223.71 116.15 222.08 121.91 220.61 127.70 C 218.70 127.71 216.80 127.73 214.89 127.77 C 216.76 122.13 218.59 116.47 220.35 110.80 C 219.53 110.77 217.88 110.72 217.06 110.69 C 217.26 110.21 217.66 109.24 217.86 108.75 C 218.58 108.76 220.02 108.77 220.73 108.77 C 221.46 107.20 221.77 105.24 223.26 104.16 Z" />
<path fill="#0088c6" opacity="1.00" d=" M 259.50 104.57 C 261.08 103.48 263.08 103.37 264.90 102.87 C 264.26 104.83 263.62 106.78 262.99 108.73 C 265.02 108.73 267.04 108.72 269.08 108.75 C 267.88 111.53 264.70 110.29 262.36 110.61 C 260.66 116.28 258.85 121.92 257.48 127.69 C 255.55 127.71 253.63 127.73 251.71 127.76 C 253.69 122.15 255.38 116.43 257.21 110.77 C 256.38 110.76 254.71 110.73 253.87 110.72 C 254.11 110.23 254.57 109.24 254.81 108.74 C 255.51 108.75 256.90 108.78 257.60 108.79 C 258.17 107.36 258.62 105.86 259.50 104.57 Z" />
<path fill="#0088c6" opacity="1.00" d=" M 159.63 111.40 C 161.15 108.24 165.07 108.79 167.95 108.30 C 171.06 108.22 175.56 107.75 177.20 111.07 C 177.14 116.84 174.17 122.15 173.22 127.81 C 171.41 127.76 169.56 127.68 167.99 126.64 C 164.03 127.86 159.19 129.17 155.58 126.39 C 152.98 123.99 154.79 119.88 157.32 118.23 C 161.60 115.37 166.97 115.27 171.90 114.63 C 172.07 113.80 172.40 112.14 172.57 111.31 C 168.56 108.94 163.86 110.86 159.63 111.40 M 161.66 118.71 C 159.44 120.08 159.17 124.14 162.04 124.92 C 164.33 125.26 166.73 124.84 168.78 123.77 C 170.23 121.57 170.49 118.81 171.33 116.36 C 168.08 116.90 164.53 116.90 161.66 118.71 Z" />
<path fill="#0088c6" opacity="1.00" d=" M 234.11 109.41 C 238.51 108.59 243.07 107.64 247.52 108.63 C 249.36 109.02 251.24 110.79 250.66 112.83 C 249.46 117.76 247.94 122.63 246.49 127.50 C 245.36 127.68 244.22 127.82 243.09 127.91 C 242.72 127.54 241.99 126.82 241.63 126.46 C 237.77 127.81 233.03 129.10 229.33 126.71 C 226.59 124.79 227.66 120.70 229.91 118.85 C 233.82 115.54 239.25 115.53 244.05 114.71 C 246.17 114.89 245.36 112.09 245.97 110.86 C 241.79 109.51 237.44 110.47 233.32 111.52 C 233.58 110.81 233.85 110.11 234.11 109.41 M 234.86 118.82 C 232.86 120.22 232.46 123.84 235.04 124.86 C 237.60 125.44 240.13 124.53 242.53 123.74 C 243.27 121.28 244.00 118.82 244.69 116.35 C 241.39 116.98 237.73 116.85 234.86 118.82 Z" />
<path fill="#0088c6" opacity="1.00" d=" M 208.38 111.50 C 208.97 108.54 212.60 108.87 214.85 108.26 C 212.80 114.60 210.75 120.95 209.19 127.43 C 207.25 127.55 205.31 127.69 203.37 127.82 C 205.32 122.47 206.81 116.97 208.38 111.50 Z" />
<path fill="#0088c6" opacity="1.00" d=" M 138.94 140.82 C 139.65 138.79 141.89 138.66 143.69 138.89 C 141.10 139.56 139.49 141.34 138.80 143.89 C 139.89 143.85 142.07 143.76 143.16 143.72 C 143.82 141.56 144.77 139.40 147.06 138.59 C 148.48 138.91 149.91 139.17 151.32 139.51 C 150.99 139.95 150.31 140.82 149.97 141.25 C 149.13 140.57 148.28 139.92 147.41 139.28 C 145.86 140.50 145.05 142.28 144.29 144.04 C 145.12 144.01 146.79 143.96 147.63 143.94 C 146.47 144.47 145.30 144.96 144.11 145.42 C 142.93 148.43 143.02 152.27 140.32 154.43 C 140.87 151.13 142.00 147.98 143.02 144.80 C 141.58 144.87 140.15 144.93 138.71 145.00 C 137.45 148.17 137.53 152.18 134.71 154.50 C 135.31 151.34 136.41 148.32 137.20 145.21 C 136.48 145.04 135.04 144.69 134.32 144.52 C 134.66 150.82 127.42 156.34 121.62 153.25 C 118.67 150.62 120.35 146.07 122.35 143.37 C 125.14 139.39 132.56 138.02 134.86 143.19 C 136.47 146.11 138.14 142.39 138.94 140.82 M 127.14 141.18 C 123.62 142.38 121.40 146.28 121.50 149.90 C 121.47 151.74 123.17 153.14 124.95 153.03 C 130.15 153.54 133.72 147.74 132.94 143.06 C 132.14 140.69 129.17 140.51 127.14 141.18 Z" />
<path fill="#0088c6" opacity="1.00" d=" M 201.79 140.82 C 202.07 139.58 202.82 138.55 203.71 137.68 C 203.50 139.94 202.80 142.11 202.12 144.26 C 204.10 143.97 206.57 143.07 208.23 144.73 C 210.04 146.91 208.36 150.00 206.63 151.67 C 204.28 153.97 200.82 153.77 197.80 153.84 C 199.24 149.54 200.46 145.16 201.79 140.82 M 199.48 152.99 C 201.92 152.69 204.77 152.55 206.33 150.32 C 208.11 148.63 208.02 144.70 204.94 144.71 C 200.34 144.45 200.72 149.98 199.48 152.99 Z" />
<path fill="#0088c6" opacity="1.00" d=" M 213.19 140.90 C 213.44 139.61 214.32 138.64 215.20 137.73 C 214.57 141.61 213.15 145.29 212.10 149.05 C 211.43 150.93 211.30 153.34 209.28 154.35 C 210.32 149.80 211.92 145.39 213.19 140.90 Z" />
<path fill="#0088c6" opacity="1.00" d=" M 242.94 143.58 C 243.67 141.56 243.90 139.13 245.79 137.79 C 244.83 143.29 242.60 148.46 241.31 153.89 C 240.71 153.72 240.12 153.55 239.53 153.39 C 237.24 154.35 233.37 154.26 233.23 151.04 C 232.99 145.88 238.50 143.39 242.94 143.58 M 235.97 146.89 C 234.61 148.34 234.87 150.47 234.64 152.29 C 236.54 152.60 238.97 153.41 240.46 151.67 C 241.45 149.36 242.00 146.90 242.67 144.49 C 240.37 144.94 237.58 144.87 235.97 146.89 Z" />
<path fill="#0088c6" opacity="1.00" d=" M 264.14 142.93 C 264.74 141.08 265.02 138.93 266.81 137.81 C 266.16 141.62 264.72 145.23 263.70 148.96 C 263.07 150.91 262.77 153.16 260.96 154.45 C 261.57 150.49 263.08 146.76 264.14 142.93 Z" />
<path fill="#0088c6" opacity="1.00" d=" M 297.62 140.03 C 297.86 139.03 298.79 138.48 299.48 137.81 C 299.04 139.97 298.36 142.07 297.72 144.17 C 299.70 144.16 302.65 142.79 304.00 145.04 C 305.54 147.60 303.63 150.74 301.46 152.29 C 299.17 154.10 296.10 153.66 293.39 153.84 C 294.90 149.27 296.21 144.63 297.62 140.03 M 295.08 153.01 C 297.84 152.71 301.22 152.33 302.55 149.47 C 303.90 147.52 302.69 144.08 299.95 144.78 C 295.84 144.89 296.36 150.28 295.08 153.01 Z" />
<path fill="#0088c6" opacity="1.00" d=" M 218.03 141.30 C 216.46 140.82 217.42 138.29 218.89 138.60 C 220.46 139.04 219.46 141.58 218.03 141.30 Z" />
<path fill="#0088c6" opacity="1.00" d=" M 268.21 145.62 C 268.67 143.19 268.09 139.69 271.07 138.74 C 270.50 141.17 269.48 143.47 268.21 145.62 Z" />
<path fill="#0088c6" opacity="1.00" d=" M 175.71 154.52 C 176.71 149.56 178.53 144.82 179.80 139.93 C 182.38 140.17 185.41 139.48 187.62 141.17 C 188.79 143.18 187.43 145.58 185.76 146.82 C 183.73 148.22 181.12 148.13 178.77 148.42 C 178.05 150.58 177.69 153.07 175.71 154.52 M 181.00 140.83 C 180.32 143.04 179.65 145.25 179.02 147.47 C 182.60 147.55 187.17 146.15 186.69 141.69 C 184.80 141.32 182.90 141.04 181.00 140.83 Z" />
<path fill="#0088c6" opacity="1.00" d=" M 273.66 140.57 C 274.02 140.29 274.75 139.73 275.12 139.45 C 274.62 141.59 273.99 143.68 273.34 145.77 C 276.12 145.76 278.90 145.75 281.68 145.71 C 282.60 143.68 282.17 140.32 284.82 139.60 C 283.74 143.59 282.44 147.52 281.32 151.51 C 281.09 152.77 280.24 153.69 279.25 154.44 C 279.69 151.90 280.46 149.43 281.25 146.99 C 278.48 146.81 275.71 146.83 272.95 147.00 C 271.99 149.54 272.02 152.80 269.52 154.42 C 270.60 149.73 271.98 145.07 273.66 140.57 Z" />
<path fill="#0088c6" opacity="1.00" d=" M 312.21 143.51 C 312.93 142.46 313.69 141.44 314.51 140.46 C 314.37 141.29 314.10 142.95 313.96 143.78 C 314.52 143.77 315.64 143.76 316.20 143.75 L 316.00 144.72 C 311.55 144.00 312.56 150.41 311.08 152.92 C 312.22 152.61 313.35 152.29 314.48 151.96 C 314.89 147.96 319.26 147.65 322.31 146.89 C 324.33 143.74 318.73 145.18 317.21 144.55 C 319.53 143.55 322.19 143.39 324.47 144.60 C 323.60 147.60 322.64 150.58 321.83 153.61 C 319.62 153.31 316.52 155.04 315.04 152.85 C 313.34 153.87 311.40 154.22 309.54 153.43 C 310.31 150.56 311.21 147.74 312.08 144.91 C 311.45 144.78 310.20 144.51 309.57 144.38 C 310.44 144.08 311.32 143.79 312.21 143.51 M 316.01 151.86 C 316.71 154.03 319.41 152.48 320.95 152.29 C 321.22 151.17 321.78 148.92 322.05 147.79 C 319.97 148.69 315.62 148.54 316.01 151.86 Z" />
<path fill="#0088c6" opacity="1.00" d=" M 327.74 143.46 C 328.39 142.44 329.06 141.44 329.76 140.46 C 329.70 141.28 329.59 142.93 329.53 143.75 C 330.22 143.82 331.61 143.96 332.30 144.03 C 331.16 144.42 330.00 144.76 328.85 145.10 C 328.01 147.64 327.23 150.20 326.62 152.80 C 327.32 152.84 328.74 152.92 329.44 152.96 C 328.09 154.00 326.46 154.04 324.96 153.30 C 325.80 150.52 326.68 147.76 327.55 144.99 L 325.35 144.63 C 326.14 144.23 326.94 143.84 327.74 143.46 Z" />
<path fill="#0088c6" opacity="1.00" d=" M 150.15 152.06 C 149.02 146.98 154.87 141.95 159.70 144.21 L 159.94 145.19 C 157.91 145.19 155.63 144.30 153.89 145.73 C 151.60 147.11 151.51 149.91 151.33 152.27 C 153.56 153.14 155.90 152.70 158.18 152.38 C 155.95 154.18 151.74 155.10 150.15 152.06 Z" />
<path fill="#0088c6" opacity="1.00" d=" M 159.67 152.52 C 157.45 147.86 163.24 142.14 168.01 144.04 C 169.85 144.91 169.02 147.15 169.19 148.75 C 166.24 148.75 163.29 148.74 160.34 148.78 C 160.80 150.09 160.47 152.34 162.23 152.74 C 164.20 153.24 166.22 152.32 168.21 152.21 C 165.88 153.99 161.74 155.20 159.67 152.52 M 160.78 147.61 C 163.32 147.75 165.86 147.77 168.40 147.67 C 168.17 147.06 167.70 145.85 167.47 145.24 C 165.14 143.26 162.39 145.98 160.78 147.61 Z" />
<path fill="#0088c6" opacity="1.00" d=" M 189.51 144.21 C 189.93 144.01 190.75 143.62 191.16 143.43 C 190.61 146.49 188.42 149.58 189.36 152.70 C 191.02 153.35 193.13 152.92 194.35 151.63 C 195.36 149.23 195.94 146.69 196.64 144.20 C 197.01 144.00 197.77 143.60 198.15 143.41 C 197.27 146.87 196.22 150.28 195.19 153.70 C 192.79 153.36 189.67 154.93 187.76 153.11 C 187.03 150.11 189.00 147.15 189.51 144.21 Z" />
<path fill="#0088c6" opacity="1.00" d=" M 218.60 152.51 C 216.25 147.25 224.26 140.61 228.48 145.22 C 226.50 145.15 224.33 144.26 222.52 145.45 C 220.19 146.73 218.44 150.33 220.42 152.61 C 222.35 153.31 224.42 152.45 226.40 152.42 C 224.22 153.97 220.41 155.15 218.60 152.51 Z" />
<path fill="#0088c6" opacity="1.00" d=" M 248.06 144.09 C 249.89 144.05 251.95 143.30 253.72 144.16 C 255.02 145.30 254.60 147.11 254.76 148.63 C 251.74 148.77 248.71 148.75 245.69 148.82 C 246.04 150.40 246.15 152.45 248.04 152.99 C 249.90 152.91 251.72 152.47 253.57 152.26 C 251.22 154.05 247.49 155.01 245.12 152.79 C 243.38 149.96 245.75 146.83 247.50 144.71 C 247.33 145.53 247.00 147.15 246.83 147.97 C 249.24 147.78 251.66 147.70 254.06 147.39 C 253.41 144.20 250.16 145.35 248.06 144.09 Z" />
<path fill="#0088c6" opacity="1.00" d=" M 286.20 144.45 C 288.57 143.66 291.21 143.33 293.48 144.62 C 292.63 147.63 291.67 150.61 290.83 153.63 C 288.42 153.40 285.13 155.06 283.52 152.58 C 283.25 147.45 289.59 147.84 292.74 145.96 C 290.72 144.83 288.42 144.77 286.20 144.45 M 285.01 151.81 C 285.67 154.07 288.39 152.46 289.95 152.30 C 290.24 151.18 290.84 148.93 291.14 147.81 C 289.00 148.61 284.79 148.59 285.01 151.81 Z" />
<path fill="#0088c6" opacity="1.00" d=" M 145.36 154.30 C 146.68 150.72 146.40 145.83 149.66 143.43 C 148.26 146.98 148.59 151.85 145.36 154.30 Z" />
<path fill="#0088c6" opacity="1.00" d=" M 213.53 154.38 C 214.78 150.72 214.57 145.86 217.82 143.35 C 216.45 146.97 216.73 151.78 213.53 154.38 Z" />
<path fill="#0088c6" opacity="1.00" d=" M 305.05 154.52 C 306.02 150.72 306.03 145.97 309.16 143.24 C 307.93 146.99 307.98 151.61 305.05 154.52 Z" />
</g>
<g id="#008d2eff">
<path fill="#008d2e" opacity="1.00" d=" M 4.71 39.70 C 9.64 38.42 14.81 39.16 19.84 39.02 C 18.28 44.60 16.75 50.19 15.16 55.77 C 10.61 55.75 6.07 55.75 1.52 55.75 C 1.01 53.01 0.44 50.29 0.00 47.55 L 0.00 44.67 C 0.97 42.57 2.25 40.25 4.71 39.70 Z" />
<path fill="#008d2e" opacity="1.00" d=" M 29.90 39.77 C 39.93 39.75 49.95 39.74 59.98 39.75 C 63.16 39.48 66.40 41.38 67.40 44.47 C 68.53 48.50 67.05 52.59 66.06 56.47 C 58.42 56.53 50.78 56.49 43.14 56.50 C 38.73 50.92 34.27 45.38 29.90 39.77 Z" />
<path fill="#008d2e" opacity="1.00" d=" M 156.12 65.99 C 157.79 65.37 159.58 65.23 161.32 64.92 C 158.36 74.58 154.95 84.12 152.75 94.00 C 150.85 93.99 148.95 93.99 147.06 93.98 C 149.69 86.12 152.23 78.23 154.24 70.19 C 154.70 68.74 154.94 67.06 156.12 65.99 Z" />
<path fill="#008d2e" opacity="1.00" d=" M 103.28 68.26 C 105.35 68.25 107.42 68.25 109.49 68.25 C 109.91 75.89 110.46 83.53 111.52 91.12 C 117.02 83.69 121.89 75.83 127.13 68.23 C 128.75 68.24 130.38 68.25 132.00 68.26 C 125.84 76.81 119.64 85.32 113.58 93.94 C 111.05 93.99 108.53 94.00 106.00 94.02 C 105.22 85.42 104.26 76.84 103.28 68.26 Z" />
<path fill="#008d2e" opacity="1.00" d=" M 174.49 68.32 C 182.74 68.18 190.99 68.30 199.24 68.24 C 198.97 68.79 198.42 69.88 198.14 70.42 C 195.13 70.25 192.12 70.23 189.11 70.22 C 186.61 78.09 184.28 86.01 182.19 94.00 C 180.17 94.00 178.16 93.99 176.14 93.98 C 178.68 86.11 181.20 78.24 183.38 70.26 C 180.29 70.25 177.20 70.42 174.13 70.61 C 174.22 70.04 174.40 68.89 174.49 68.32 Z" />
<path fill="#008d2e" opacity="1.00" d=" M 286.80 69.34 C 288.86 69.19 290.92 69.04 292.98 68.92 C 292.82 69.60 292.50 70.96 292.34 71.64 C 290.29 71.75 288.25 71.85 286.21 71.99 C 286.36 71.33 286.65 70.00 286.80 69.34 Z" />
<path fill="#008d2e" opacity="1.00" d=" M 128.90 77.32 C 130.21 74.69 133.36 74.84 135.85 74.43 C 139.02 74.20 142.58 73.76 145.39 75.60 C 146.83 76.50 146.78 78.42 146.38 79.87 C 145.22 84.52 143.58 89.03 142.52 93.71 C 141.31 93.73 140.11 93.76 138.91 93.78 C 138.54 93.46 137.82 92.82 137.46 92.50 C 133.45 93.94 128.34 95.24 124.70 92.29 C 122.32 89.64 124.26 85.56 126.96 83.98 C 131.24 81.41 136.40 81.26 141.22 80.66 C 141.43 79.39 141.64 78.12 141.85 76.85 C 137.57 75.54 133.17 76.67 128.90 77.32 M 130.84 84.80 C 128.77 86.11 128.44 89.90 131.02 90.85 C 133.56 91.45 136.09 90.54 138.48 89.75 C 139.19 87.29 139.91 84.83 140.60 82.37 C 137.33 82.99 133.69 82.87 130.84 84.80 Z" />
<path fill="#008d2e" opacity="1.00" d=" M 201.37 74.52 C 205.55 73.32 210.85 73.51 213.90 77.03 C 216.03 79.39 215.89 83.00 214.43 85.66 C 211.04 91.80 203.40 95.21 196.56 93.67 C 192.79 92.87 189.61 89.11 190.41 85.15 C 191.49 79.80 196.31 75.95 201.37 74.52 M 202.40 76.56 C 198.49 78.90 195.31 83.24 195.65 87.97 C 195.69 90.83 198.92 92.78 201.51 91.73 C 206.66 90.05 210.80 84.54 210.06 79.05 C 209.56 75.42 205.04 74.77 202.40 76.56 Z" />
<path fill="#008d2e" opacity="1.00" d=" M 251.98 77.35 C 254.39 75.38 257.34 74.39 260.44 74.55 C 259.87 75.56 259.30 76.56 258.72 77.56 C 256.28 77.47 253.26 77.52 251.93 79.97 C 249.80 84.39 248.97 89.29 247.69 93.99 C 245.81 93.99 243.93 94.00 242.05 94.01 C 243.97 87.88 245.96 81.76 247.33 75.48 C 249.28 75.23 251.23 74.98 253.18 74.73 L 251.98 77.35 Z" />
<path fill="#008d2e" opacity="1.00" d=" M 261.69 77.41 C 263.34 74.43 267.05 74.75 269.94 74.33 C 273.23 74.16 277.56 73.76 279.50 77.08 C 279.18 82.86 276.48 88.19 275.39 93.84 C 273.60 93.73 271.77 93.66 270.21 92.68 C 266.20 93.82 261.27 95.25 257.69 92.32 C 255.20 90.02 256.99 85.99 259.39 84.33 C 263.74 81.36 269.24 81.27 274.29 80.65 C 274.12 79.13 275.31 76.56 272.98 76.39 C 269.20 75.72 265.41 76.88 261.69 77.41 M 263.70 84.78 C 261.60 86.09 261.33 90.06 263.99 90.91 C 266.54 91.41 269.05 90.54 271.43 89.72 C 272.11 87.26 272.82 84.81 273.51 82.35 C 270.21 82.96 266.63 82.96 263.70 84.78 Z" />
<path fill="#008d2e" opacity="1.00" d=" M 318.02 84.96 C 320.08 76.14 331.47 71.58 339.26 75.77 C 342.36 77.72 341.49 81.74 340.78 84.70 C 334.83 84.45 328.86 84.31 322.92 84.79 C 323.03 86.95 322.75 89.79 325.16 90.82 C 329.41 92.62 334.12 91.16 338.18 89.52 C 337.69 90.61 337.21 91.70 336.73 92.78 C 331.74 94.05 326.15 94.92 321.30 92.71 C 318.35 91.47 317.04 87.92 318.02 84.96 M 323.67 82.68 C 327.91 82.79 332.16 82.75 336.41 82.76 C 336.33 80.88 337.01 78.17 334.70 77.36 C 330.14 75.45 325.72 78.77 323.67 82.68 Z" />
<path fill="#008d2e" opacity="1.00" d=" M 217.32 87.91 C 218.12 83.46 219.77 79.23 220.78 74.83 C 222.65 74.74 224.53 74.64 226.40 74.53 C 224.98 79.68 222.61 84.62 222.09 89.97 C 224.23 93.59 229.35 91.77 232.38 90.34 C 234.68 85.44 235.69 80.01 237.16 74.81 C 239.02 74.71 240.88 74.60 242.74 74.48 C 240.71 80.80 238.75 87.13 237.24 93.60 C 235.82 93.66 234.41 93.71 233.00 93.76 C 232.78 93.38 232.35 92.62 232.14 92.23 C 228.20 93.70 223.74 94.86 219.65 93.33 C 217.50 92.50 216.80 89.99 217.32 87.91 Z" />
<path fill="#008d2e" opacity="1.00" d=" M 284.77 77.64 C 285.57 74.87 288.98 75.23 291.20 74.57 C 289.03 80.95 287.01 87.39 285.47 93.95 C 283.53 93.98 281.59 94.00 279.66 94.02 C 281.68 88.66 283.09 83.10 284.77 77.64 Z" />
<path fill="#008d2e" opacity="1.00" d=" M 290.14 93.98 C 292.30 87.69 294.16 81.29 295.74 74.83 C 297.61 74.98 299.64 74.88 301.18 76.16 C 305.11 75.03 309.53 73.52 313.47 75.45 C 315.21 76.20 316.12 78.24 315.71 80.06 C 314.90 84.80 313.13 89.32 312.03 94.00 C 310.19 94.00 308.34 93.99 306.51 93.99 C 307.84 89.60 309.53 85.32 310.56 80.84 C 310.78 79.67 311.04 78.05 309.81 77.33 C 306.72 75.70 303.24 77.26 300.21 78.26 C 298.57 83.46 296.92 88.67 295.74 94.00 C 293.87 93.99 292.00 93.99 290.14 93.98 Z" />
<path fill="#008d2e" opacity="1.00" d=" M 69.97 124.05 C 66.25 118.10 62.37 112.23 58.84 106.15 C 63.01 109.92 68.22 113.06 74.03 112.96 C 83.32 113.04 92.61 112.78 101.90 112.75 C 103.43 116.22 105.42 119.50 106.52 123.14 C 107.46 126.29 104.64 129.24 101.58 129.38 C 95.74 129.73 89.87 129.58 84.02 129.73 C 78.94 129.74 72.83 128.81 69.97 124.05 Z" />
</g>
<g id="#c9c816ff">
<path fill="#c9c816" opacity="1.00" d=" M 71.29 40.60 C 75.15 46.12 78.96 51.67 82.79 57.21 C 85.61 61.10 86.08 66.27 84.78 70.82 C 81.58 82.91 78.37 95.00 75.19 107.10 C 71.38 106.29 67.30 105.43 64.44 102.57 C 62.04 100.09 61.65 96.29 62.57 93.08 C 65.89 79.76 69.28 66.46 72.55 53.13 C 73.74 48.92 72.76 44.59 71.29 40.60 Z" />
</g>
<g id="#005393fe">
<path fill="#005393" opacity="1.00" d=" M 15.39 75.58 C 23.22 81.90 33.81 79.14 43.02 79.75 C 45.21 83.50 48.30 86.82 49.58 91.02 C 50.35 93.90 47.55 96.13 44.92 96.27 C 38.14 96.93 29.46 97.21 25.28 90.72 C 21.93 85.71 18.77 80.57 15.39 75.58 Z" />
<path fill="#005393" opacity="1.00" d=" M 308.98 139.10 C 310.63 138.51 311.15 139.03 310.55 140.66 C 308.89 141.24 308.37 140.72 308.98 139.10 Z" />
</g>
</svg>
